M48
;GenerationSoftware,Autodesk,EAGLE,9.7.0*%
;CreationDate,2023-12-12T12:00:27Z*%
FMAT,2
ICI,OFF
METRIC,TZ,000.000
T2C0.350
T1C0.813
%
G90
M71
T1
X27230Y2540
X27230Y27940
X9450Y27940
X11990Y27940
X14530Y27940
X17070Y27940
X19610Y27940
X22150Y27940
X24690Y27940
X9450Y2540
X11990Y2540
X14530Y2540
X17070Y2540
X19610Y2540
X22150Y2540
X24690Y2540
T2
X15400Y11200
X6500Y20500
X2600Y13500
X6500Y27500
X21724Y14589
X15700Y17200
X15700Y16100
X43800Y14472
X30500Y16900
X28627Y13730
X30285Y13815
X26217Y6760
X27533Y5267
X21679Y16966
X16800Y12400
X21672Y15924
X44967Y7523
X51249Y15000
X26500Y5032
X5400Y3712
X28044Y7622
X22083Y22360
X51100Y23100
X22063Y21056
X42500Y23000
X49104Y5711
X47738Y5711
X39300Y5400
X22000Y24200
X21210Y12890
X20800Y9700
X22302Y12698
X20983Y23817
X21117Y8117
X38540Y1851
X45317Y5983
X36817Y11800
X8283Y11676
X50359Y5711
X40600Y17800
X43600Y7500
X51249Y10200
X51100Y3600
X33888Y6562
X9500Y12583
X20134Y13400
X39100Y21503
X31700Y1853
X28300Y17900
X29872Y18906
X29600Y27100
X8303Y10002
X49900Y22417
X7600Y13943
X8155Y5249
M30