M48
;GenerationSoftware,Autodesk,EAGLE,9.7.0*%
;CreationDate,2023-12-17T13:00:00Z*%
FMAT,2
ICI,OFF
METRIC,TZ,000.000
T9C0.350
T8C0.600
T7C0.700
T6C0.900
T5C1.000
T4C1.016
T3C1.778
T2C2.540
T1C3.200
%
G90
M71
T1
X32370Y54624
T2
X32370Y61609
X27290Y58434
T3
X4917Y48270
X21427Y60970
X91337Y60951
X21427Y48270
X21427Y54620
X4917Y54620
X4917Y60970
X91337Y48251
X91337Y54601
X74827Y48251
X74827Y54601
X74827Y60951
T4
X90576Y3504
X88456Y22277
X90996Y24817
X88456Y24817
X90996Y27357
X88456Y27357
X88036Y3504
X90996Y22277
X88036Y6044
X90576Y6044
X1956Y38358
X4496Y38358
X1956Y35818
X18810Y5746
X4496Y35818
X1956Y33278
X4496Y33278
X4496Y30738
X85496Y6044
X1956Y30738
X90996Y19737
X88456Y19737
X85496Y3504
X82956Y6044
X82956Y3504
X11190Y3206
X11190Y5746
X13730Y3206
X13730Y5746
X16270Y3206
X16270Y5746
X18810Y3206
T5
X69290Y27893
X66750Y27893
X64210Y27893
X61670Y27893
X71830Y32338
X69290Y32338
X66750Y32338
X64210Y32338
X61670Y32338
X71830Y27893
T6
X74370Y20908
X74370Y18368
X74370Y15828
X74370Y13288
X74370Y10748
X74370Y8208
X74370Y5668
X74370Y36148
X59130Y36148
X61670Y36148
X64210Y36148
X71830Y36148
X74370Y28528
X59130Y18368
X59130Y8208
X59130Y3128
X59130Y5668
X66750Y36148
X74370Y3128
X59130Y15828
X59130Y13288
X59130Y10748
X59130Y20908
X59130Y23448
X59130Y25988
X59130Y28528
X59130Y31068
X59130Y33608
X61670Y5668
X74370Y33608
X74370Y31068
X74370Y25988
X74370Y23448
X69290Y36148
T7
X41440Y29720
X41300Y27220
T8
X52890Y26810
X52890Y29350
X27490Y29350
X27490Y26810
X27490Y24270
X27490Y21730
X27490Y19190
X27490Y16650
X27490Y14110
X27490Y11570
X52890Y11570
X52890Y14110
X52890Y16650
X52890Y19190
X52890Y21730
X52890Y24270
T9
X62500Y2750
X56750Y36249
X58416Y47034
X33740Y37888
X66013Y38394
X37250Y44664
X29470Y9575
X48941Y42117
X43000Y45250
X61500Y49835
X17250Y37750
X7858Y30044
X32500Y35500
X13750Y23215
X17036Y19814
X11309Y23329
X17164Y24397
X22500Y32653
X16615Y10068
X19978Y26377
X34565Y15996
X51387Y51237
X40663Y5485
X41579Y12886
X61750Y46449
X53000Y57000
X77600Y40219
X58411Y40596
X50474Y30650
X71052Y38448
X46500Y29297
X49491Y30056
X36341Y44871
X38989Y46250
X6505Y27546
X62165Y50500
X53050Y43677
X24134Y21776
X39591Y52659
X60000Y55165
X29000Y37000
X36500Y36335
X30558Y17275
X46977Y35294
X6250Y7500
X27384Y42228
X41750Y56000
X49750Y62665
X67500Y56500
X10926Y36074
X16500Y16296
X65250Y56000
X57988Y50827
X72762Y46512
X26487Y33763
X43000Y63250
X69000Y56500
X7500Y12296
X10133Y30839
X13500Y36000
X27999Y39925
X5250Y15046
X78906Y14464
X61788Y9075
X77921Y13478
X39240Y9663
X38094Y10499
X30475Y8863
X41750Y15194
X76750Y1394
X40508Y16755
X42678Y20985
X49727Y26750
X55250Y4835
X51387Y48665
X40908Y51458
M30