M48
;GenerationSoftware,Autodesk,EAGLE,9.7.0*%
;CreationDate,2023-12-20T09:17:23Z*%
FMAT,2
ICI,OFF
METRIC,TZ,000.000
T8C0.350
T7C0.700
T6C0.900
T5C1.000
T4C1.016
T3C1.778
T2C2.540
T1C3.200
%
G90
M71
T1
X32370Y54624
T2
X27290Y58434
X32370Y61609
T3
X91337Y60951
X91337Y54601
X91337Y48251
X4917Y54620
X4917Y48270
X21427Y60970
X21427Y54620
X4917Y60970
X21427Y48270
X74827Y60951
X74827Y54601
X74827Y48251
T4
X4496Y33278
X1956Y30738
X4496Y30738
X88456Y19737
X90996Y22277
X88456Y22277
X88456Y24817
X90996Y27357
X1956Y35818
X88456Y27357
X90996Y19737
X18810Y5746
X82956Y6044
X18810Y3206
X16270Y5746
X16270Y3206
X13730Y5746
X13730Y3206
X11190Y5746
X11190Y3206
X82956Y3504
X90996Y24817
X85496Y3504
X85496Y6044
X88036Y3504
X88036Y6044
X90576Y3504
X90576Y6044
X1956Y38358
X4496Y38358
X4496Y35818
X1956Y33278
T5
X61670Y27893
X27490Y11570
X71830Y32338
X69290Y32338
X66750Y32338
X64210Y32338
X61670Y32338
X52890Y29350
X52890Y24270
X52890Y21730
X66750Y27893
X27490Y16650
X27490Y19190
X27490Y21730
X27490Y24270
X27490Y26810
X64210Y27893
X27490Y29350
X52890Y26810
X52890Y11570
X52890Y14110
X52890Y16650
X52890Y19190
X71830Y27893
X69290Y27893
X27490Y14110
T6
X64210Y36148
X61670Y36148
X59130Y36148
X74370Y36148
X74370Y5668
X74370Y8208
X74370Y10748
X74370Y13288
X74370Y18368
X74370Y20908
X74370Y23448
X74370Y25988
X74370Y28528
X74370Y31068
X74370Y33608
X61670Y5668
X59130Y33608
X59130Y31068
X59130Y28528
X59130Y25988
X59130Y23448
X59130Y20908
X59130Y18368
X59130Y15828
X59130Y13288
X59130Y10748
X74370Y15828
X74370Y3128
X66750Y36148
X59130Y5668
X59130Y3128
X59130Y8208
X69290Y36148
X71830Y36148
T7
X41440Y29420
X41300Y27220
T8
X13500Y36000
X10133Y30839
X7500Y12296
X69000Y56500
X43000Y63250
X72762Y46512
X26487Y32903
X65250Y56000
X16500Y16296
X10926Y36074
X67500Y56500
X49750Y62665
X41750Y56000
X27384Y42228
X6250Y7500
X46977Y37794
X30558Y17275
X44500Y42000
X89800Y58300
X77100Y52000
X57600Y51800
X54400Y49400
X37800Y42700
X60900Y57400
X61750Y46449
X89400Y36100
X46400Y17900
X45400Y11200
X33400Y34000
X33400Y30200
X36700Y19700
X45200Y5800
X39240Y9663
X51387Y51237
X53000Y57000
X79186Y14184
X61788Y9075
X78201Y13198
X38094Y10499
X30475Y8863
X29470Y9575
X41750Y15194
X76750Y1394
X49327Y26830
X40508Y16755
X42678Y20985
X55250Y4833
X51387Y48665
X40908Y51458
X62500Y2750
X56750Y36249
X58416Y47034
X35040Y40388
X66013Y38394
X37150Y44764
X5250Y15046
X27999Y39925
X48941Y42117
X43000Y45250
X7858Y30041
X61500Y49835
X17250Y37750
X31800Y37600
X13750Y23215
X45300Y51600
X17036Y19814
X11309Y23329
X17164Y24397
X22500Y32141
X16615Y10068
X19978Y26377
X77600Y40219
X58411Y40596
X50474Y30650
X71052Y38448
X46500Y29297
X49491Y30056
X36210Y44902
X39489Y45950
X6505Y27546
X62165Y50500
X36344Y40176
X29000Y37885
X53050Y43677
X24134Y21776
X59188Y52027
X39591Y52659
X60000Y55165
X52800Y58200
M30