G04 EAGLE Gerber RS-274X export*
G75*
%MOMM*%
%FSLAX34Y34*%
%LPD*%
%INTop Copper*%
%IPPOS*%
%AMOC8*
5,1,8,0,0,1.08239X$1,22.5*%
G01*
G04 Define Apertures*
%ADD10R,1.500000X1.300000*%
%ADD11R,2.800000X1.600000*%
%ADD12R,1.300000X1.500000*%
%ADD13R,1.600000X2.800000*%
%ADD14R,2.540000X2.540000*%
%ADD15R,1.200000X0.700000*%
%ADD16C,3.810000*%
%ADD17R,4.216000X4.216000*%
%ADD18R,1.000000X1.500000*%
%ADD19R,1.000000X2.000000*%
%ADD20C,2.200000*%
%ADD21C,1.508000*%
%ADD22R,1.408000X1.408000*%
%ADD23C,1.408000*%
%ADD24P,1.52401X8X202.5*%
%ADD25C,1.408000*%
%ADD26C,1.508000*%
%ADD27R,2.200000X0.600000*%
%ADD28C,2.794000*%
%ADD29C,1.208000*%
%ADD30C,0.322400*%
%ADD31R,1.400000X1.000000*%
%ADD32R,1.066800X0.228600*%
%ADD33C,1.879600*%
%ADD34C,1.016000*%
%ADD35C,0.756400*%
%ADD36C,0.609600*%
%ADD37C,0.304800*%
%ADD38C,0.200000*%
G36*
X925481Y391765D02*
X924292Y391524D01*
X791425Y391524D01*
X790327Y391729D01*
X789305Y392383D01*
X788619Y393383D01*
X788377Y394572D01*
X788377Y408122D01*
X787913Y409242D01*
X778055Y419100D01*
X776935Y419564D01*
X763340Y419564D01*
X762196Y419787D01*
X761185Y420457D01*
X745312Y436330D01*
X744192Y436794D01*
X722872Y436794D01*
X721773Y436999D01*
X720751Y437653D01*
X720065Y438653D01*
X719824Y439842D01*
X719824Y443981D01*
X718931Y444874D01*
X708932Y444874D01*
X708690Y444922D01*
X705843Y444922D01*
X705821Y444917D01*
X705795Y444922D01*
X705784Y444922D01*
X705784Y444924D01*
X704628Y445140D01*
X703617Y445810D01*
X697628Y451798D01*
X695948Y452494D01*
X634261Y452494D01*
X633874Y452407D01*
X632675Y452592D01*
X631643Y453229D01*
X630941Y454219D01*
X630681Y455403D01*
X630903Y456596D01*
X631573Y457607D01*
X636001Y462035D01*
X636697Y463716D01*
X636697Y465534D01*
X636001Y467215D01*
X634715Y468501D01*
X633034Y469197D01*
X620605Y469197D01*
X619439Y469429D01*
X618555Y469795D01*
X616445Y469795D01*
X614494Y468987D01*
X613097Y467590D01*
X612131Y466938D01*
X610942Y466697D01*
X598465Y466697D01*
X597781Y466561D01*
X594200Y466561D01*
X593147Y466749D01*
X592115Y467386D01*
X591413Y468375D01*
X591153Y469560D01*
X591375Y470753D01*
X592045Y471764D01*
X597196Y476915D01*
X598163Y477567D01*
X599352Y477808D01*
X625789Y477808D01*
X627470Y478504D01*
X637417Y488451D01*
X638294Y489063D01*
X639475Y489342D01*
X640671Y489139D01*
X641693Y488485D01*
X642379Y487485D01*
X642620Y486296D01*
X642620Y480348D01*
X644108Y478860D01*
X658398Y478860D01*
X658398Y499940D01*
X645240Y499940D01*
X644141Y500145D01*
X643119Y500799D01*
X642433Y501799D01*
X642192Y502988D01*
X642192Y577227D01*
X642380Y578281D01*
X643017Y579313D01*
X644007Y580015D01*
X645191Y580275D01*
X646384Y580053D01*
X647022Y579630D01*
X652438Y579630D01*
X652438Y592932D01*
X653962Y592932D01*
X653962Y579630D01*
X659252Y579630D01*
X659335Y579713D01*
X660302Y580365D01*
X661491Y580606D01*
X666666Y580606D01*
X667810Y580383D01*
X668821Y579713D01*
X684339Y564195D01*
X685000Y563206D01*
X685502Y561994D01*
X686994Y560502D01*
X688945Y559694D01*
X690078Y559694D01*
X691222Y559471D01*
X692233Y558801D01*
X696695Y554339D01*
X697347Y553373D01*
X697588Y552184D01*
X697588Y507796D01*
X697400Y506743D01*
X696763Y505711D01*
X695773Y505009D01*
X694589Y504749D01*
X693396Y504971D01*
X692385Y505641D01*
X677069Y520957D01*
X676457Y521834D01*
X676178Y523015D01*
X676381Y524211D01*
X677035Y525233D01*
X677832Y525779D01*
X677438Y525779D01*
X677438Y546240D01*
X670648Y546240D01*
X670525Y546117D01*
X669558Y545465D01*
X668369Y545224D01*
X654069Y545224D01*
X653176Y544331D01*
X653176Y528069D01*
X654069Y527176D01*
X656656Y527176D01*
X657800Y526953D01*
X658811Y526283D01*
X685743Y499351D01*
X686395Y498385D01*
X686636Y497196D01*
X686636Y480769D01*
X687529Y479876D01*
X703956Y479876D01*
X705100Y479653D01*
X706111Y478983D01*
X718970Y466124D01*
X720434Y465518D01*
X721423Y464857D01*
X721962Y464318D01*
X722623Y463329D01*
X723125Y462117D01*
X724617Y460625D01*
X726567Y459817D01*
X728678Y459817D01*
X730628Y460625D01*
X732121Y462117D01*
X732929Y464067D01*
X732929Y466178D01*
X732121Y468128D01*
X730628Y469621D01*
X729417Y470123D01*
X728428Y470784D01*
X725336Y473876D01*
X723872Y474482D01*
X722883Y475143D01*
X718577Y479449D01*
X717925Y480416D01*
X717684Y481604D01*
X717684Y498031D01*
X716791Y498924D01*
X709780Y498924D01*
X708681Y499129D01*
X707659Y499783D01*
X706973Y500783D01*
X706732Y501972D01*
X706732Y556249D01*
X706036Y557930D01*
X695090Y568876D01*
X693387Y569581D01*
X692267Y569804D01*
X691794Y570000D01*
X690805Y570661D01*
X675607Y585859D01*
X674955Y586826D01*
X674714Y588014D01*
X674714Y597761D01*
X673821Y598654D01*
X667021Y598654D01*
X665968Y598842D01*
X664936Y599479D01*
X664234Y600469D01*
X663973Y601653D01*
X664196Y602846D01*
X664573Y603416D01*
X666740Y608647D01*
X666740Y618078D01*
X639660Y618078D01*
X639660Y608647D01*
X641804Y603470D01*
X642146Y602980D01*
X642425Y601799D01*
X642222Y600603D01*
X641568Y599581D01*
X640568Y598895D01*
X639379Y598654D01*
X632579Y598654D01*
X631051Y597127D01*
X630085Y596475D01*
X628896Y596234D01*
X622268Y596234D01*
X621124Y596457D01*
X620113Y597127D01*
X619117Y598123D01*
X618465Y599089D01*
X618224Y600278D01*
X618224Y606670D01*
X618118Y607151D01*
X618224Y607719D01*
X618224Y622831D01*
X617331Y623724D01*
X611778Y623724D01*
X610634Y623947D01*
X609623Y624617D01*
X602801Y631439D01*
X600374Y632444D01*
X572272Y632444D01*
X571173Y632649D01*
X570151Y633303D01*
X569465Y634303D01*
X569224Y635492D01*
X569224Y636792D01*
X569429Y637891D01*
X570083Y638913D01*
X571083Y639599D01*
X572272Y639840D01*
X640193Y639840D01*
X641246Y639652D01*
X642279Y639015D01*
X642980Y638025D01*
X643241Y636841D01*
X643018Y635648D01*
X642348Y634637D01*
X641721Y634010D01*
X639660Y629033D01*
X639660Y619602D01*
X666740Y619602D01*
X666740Y629033D01*
X664679Y634010D01*
X664052Y634637D01*
X663440Y635514D01*
X663161Y636695D01*
X663364Y637891D01*
X664018Y638913D01*
X665018Y639599D01*
X666207Y639840D01*
X924292Y639840D01*
X925391Y639635D01*
X926413Y638981D01*
X927099Y637981D01*
X927340Y636792D01*
X927340Y624813D01*
X927152Y623759D01*
X926515Y622727D01*
X925525Y622026D01*
X924341Y621765D01*
X923148Y621988D01*
X922160Y622642D01*
X916452Y625006D01*
X910288Y625006D01*
X904593Y622648D01*
X900235Y618289D01*
X897876Y612594D01*
X897876Y606431D01*
X900235Y600736D01*
X904593Y596377D01*
X910288Y594018D01*
X916452Y594018D01*
X922157Y596382D01*
X923014Y596979D01*
X924195Y597259D01*
X925391Y597055D01*
X926413Y596401D01*
X927099Y595401D01*
X927340Y594212D01*
X927340Y561313D01*
X927152Y560259D01*
X926515Y559227D01*
X925525Y558526D01*
X924341Y558265D01*
X923148Y558488D01*
X922160Y559142D01*
X916452Y561506D01*
X910288Y561506D01*
X904593Y559148D01*
X900235Y554789D01*
X897876Y549094D01*
X897876Y542931D01*
X900235Y537236D01*
X904593Y532877D01*
X910288Y530518D01*
X916452Y530518D01*
X922157Y532882D01*
X923014Y533479D01*
X924195Y533759D01*
X925391Y533555D01*
X926413Y532901D01*
X927099Y531901D01*
X927340Y530712D01*
X927340Y497813D01*
X927152Y496759D01*
X926515Y495727D01*
X925525Y495026D01*
X924341Y494765D01*
X923148Y494988D01*
X922160Y495642D01*
X916452Y498006D01*
X910288Y498006D01*
X904593Y495648D01*
X900235Y491289D01*
X897876Y485594D01*
X897876Y479431D01*
X900235Y473736D01*
X904593Y469377D01*
X910288Y467018D01*
X916452Y467018D01*
X922157Y469382D01*
X923014Y469979D01*
X924195Y470259D01*
X925391Y470055D01*
X926413Y469401D01*
X927099Y468401D01*
X927340Y467212D01*
X927340Y394572D01*
X927135Y393473D01*
X926481Y392451D01*
X925481Y391765D01*
G37*
%LPC*%
G36*
X731760Y610274D02*
X747508Y610274D01*
X747508Y626022D01*
X744986Y626022D01*
X738918Y623509D01*
X734274Y618865D01*
X731760Y612796D01*
X731760Y610274D01*
G37*
G36*
X749032Y610274D02*
X764780Y610274D01*
X764780Y612796D01*
X762266Y618865D01*
X757622Y623509D01*
X751554Y626022D01*
X749032Y626022D01*
X749032Y610274D01*
G37*
G36*
X749032Y593002D02*
X751554Y593002D01*
X757622Y595516D01*
X762266Y600160D01*
X764780Y606228D01*
X764780Y608750D01*
X749032Y608750D01*
X749032Y593002D01*
G37*
G36*
X744986Y593002D02*
X747508Y593002D01*
X747508Y608750D01*
X731760Y608750D01*
X731760Y606228D01*
X734274Y600160D01*
X738918Y595516D01*
X744986Y593002D01*
G37*
G36*
X745188Y530518D02*
X751352Y530518D01*
X757047Y532877D01*
X761405Y537236D01*
X763764Y542931D01*
X763764Y549094D01*
X761405Y554789D01*
X757047Y559148D01*
X751352Y561506D01*
X745188Y561506D01*
X739493Y559148D01*
X735135Y554789D01*
X732776Y549094D01*
X732776Y542931D01*
X735135Y537236D01*
X739493Y532877D01*
X745188Y530518D01*
G37*
G36*
X678962Y536962D02*
X687240Y536962D01*
X687240Y544752D01*
X685752Y546240D01*
X678962Y546240D01*
X678962Y536962D01*
G37*
G36*
X678962Y535438D02*
X678962Y526107D01*
X679224Y526160D01*
X685752Y526160D01*
X687240Y527648D01*
X687240Y535438D01*
X678962Y535438D01*
G37*
G36*
X659922Y490162D02*
X675700Y490162D01*
X675700Y498452D01*
X674212Y499940D01*
X659922Y499940D01*
X659922Y490162D01*
G37*
G36*
X745188Y467018D02*
X751352Y467018D01*
X757047Y469377D01*
X761405Y473736D01*
X763764Y479431D01*
X763764Y485594D01*
X761405Y491289D01*
X757047Y495648D01*
X751352Y498006D01*
X745188Y498006D01*
X739493Y495648D01*
X735135Y491289D01*
X732776Y485594D01*
X732776Y479431D01*
X735135Y473736D01*
X739493Y469377D01*
X745188Y467018D01*
G37*
G36*
X659922Y478860D02*
X674212Y478860D01*
X675700Y480348D01*
X675700Y488638D01*
X659922Y488638D01*
X659922Y478860D01*
G37*
%LPD*%
G36*
X522050Y612815D02*
X520869Y612536D01*
X519673Y612739D01*
X518651Y613393D01*
X517965Y614394D01*
X517724Y615583D01*
X517724Y620331D01*
X516831Y621224D01*
X500569Y621224D01*
X500041Y620697D01*
X499075Y620045D01*
X497886Y619804D01*
X491862Y619804D01*
X490763Y620009D01*
X489741Y620663D01*
X489055Y621663D01*
X488814Y622852D01*
X488814Y626001D01*
X487921Y626894D01*
X475591Y626894D01*
X474447Y627117D01*
X473435Y627787D01*
X473352Y627870D01*
X468062Y627870D01*
X468062Y614568D01*
X466538Y614568D01*
X466538Y627870D01*
X461248Y627870D01*
X461165Y627787D01*
X460198Y627135D01*
X459009Y626894D01*
X446679Y626894D01*
X445481Y625697D01*
X444515Y625045D01*
X443326Y624804D01*
X437117Y624804D01*
X436041Y625000D01*
X435014Y625646D01*
X434320Y626641D01*
X434069Y627828D01*
X434301Y629018D01*
X435306Y631445D01*
X435306Y633556D01*
X434449Y635626D01*
X434218Y636695D01*
X434421Y637891D01*
X435075Y638913D01*
X436076Y639599D01*
X437265Y639840D01*
X547128Y639840D01*
X548227Y639635D01*
X549249Y638981D01*
X549935Y637981D01*
X550176Y636792D01*
X550176Y635492D01*
X549971Y634393D01*
X549317Y633371D01*
X548317Y632685D01*
X547128Y632444D01*
X543366Y632444D01*
X540939Y631439D01*
X522927Y613427D01*
X522050Y612815D01*
G37*
G36*
X63837Y323121D02*
X62652Y322861D01*
X61460Y323084D01*
X60448Y323753D01*
X56651Y327551D01*
X56010Y328495D01*
X55759Y329681D01*
X55880Y330305D01*
X55880Y334951D01*
X54217Y338965D01*
X51145Y342037D01*
X49636Y342662D01*
X48735Y343239D01*
X48025Y344222D01*
X47756Y345405D01*
X47969Y346599D01*
X48630Y347616D01*
X49636Y348294D01*
X51145Y348919D01*
X54217Y351991D01*
X55880Y356005D01*
X55880Y360351D01*
X54217Y364365D01*
X51145Y367437D01*
X50964Y367512D01*
X50063Y368089D01*
X49353Y369073D01*
X49083Y370255D01*
X49296Y371449D01*
X49958Y372466D01*
X50964Y373144D01*
X51720Y373457D01*
X55079Y376816D01*
X56896Y381203D01*
X56896Y382816D01*
X44196Y382816D01*
X44196Y395516D01*
X42583Y395516D01*
X38196Y393699D01*
X34837Y390340D01*
X34524Y389584D01*
X33948Y388683D01*
X32964Y387973D01*
X31781Y387703D01*
X30587Y387916D01*
X29570Y388578D01*
X28892Y389584D01*
X28817Y389765D01*
X25745Y392837D01*
X21731Y394500D01*
X17385Y394500D01*
X14374Y393253D01*
X13305Y393022D01*
X12109Y393226D01*
X11087Y393879D01*
X10401Y394880D01*
X10160Y396069D01*
X10160Y614529D01*
X10383Y615673D01*
X11053Y616684D01*
X33316Y638947D01*
X34282Y639599D01*
X35471Y639840D01*
X311952Y639840D01*
X312982Y639661D01*
X314019Y639031D01*
X314729Y638048D01*
X314999Y636865D01*
X314786Y635671D01*
X314124Y634654D01*
X313118Y633976D01*
X312046Y633532D01*
X306258Y627744D01*
X303126Y620182D01*
X303126Y611998D01*
X306258Y604436D01*
X312046Y598648D01*
X319608Y595516D01*
X327792Y595516D01*
X330961Y596829D01*
X332079Y597060D01*
X333271Y596838D01*
X334283Y596168D01*
X352698Y577752D01*
X353350Y576786D01*
X353591Y575597D01*
X353591Y500672D01*
X353386Y499573D01*
X352732Y498551D01*
X351732Y497865D01*
X350543Y497624D01*
X346864Y497624D01*
X345971Y496731D01*
X345971Y468952D01*
X345766Y467853D01*
X345112Y466831D01*
X344112Y466145D01*
X342923Y465904D01*
X331493Y465904D01*
X330394Y466109D01*
X329372Y466763D01*
X328686Y467763D01*
X328445Y468952D01*
X328445Y482638D01*
X297965Y482638D01*
X297965Y468952D01*
X297760Y467853D01*
X297106Y466831D01*
X296106Y466145D01*
X294917Y465904D01*
X277472Y465904D01*
X276373Y466109D01*
X275351Y466763D01*
X274665Y467763D01*
X274424Y468952D01*
X274424Y473931D01*
X273531Y474824D01*
X256269Y474824D01*
X255376Y473931D01*
X255376Y444669D01*
X256269Y443776D01*
X264018Y443776D01*
X265071Y443588D01*
X266103Y442951D01*
X266805Y441961D01*
X267065Y440777D01*
X266843Y439584D01*
X266173Y438573D01*
X217627Y390027D01*
X216750Y389415D01*
X215569Y389136D01*
X214373Y389339D01*
X213351Y389993D01*
X212665Y390994D01*
X212424Y392183D01*
X212424Y414531D01*
X211531Y415424D01*
X195104Y415424D01*
X193960Y415647D01*
X192949Y416317D01*
X122690Y486576D01*
X121009Y487272D01*
X66083Y487272D01*
X64962Y487486D01*
X63945Y488148D01*
X63267Y489154D01*
X62305Y491477D01*
X57947Y495835D01*
X52252Y498194D01*
X46088Y498194D01*
X40393Y495835D01*
X36035Y491477D01*
X33676Y485782D01*
X33676Y479618D01*
X36035Y473923D01*
X40393Y469565D01*
X46088Y467206D01*
X52252Y467206D01*
X57947Y469565D01*
X62305Y473923D01*
X63267Y476246D01*
X63894Y477201D01*
X64895Y477887D01*
X66083Y478128D01*
X116944Y478128D01*
X118088Y477905D01*
X119099Y477235D01*
X166559Y429775D01*
X167171Y428898D01*
X167450Y427717D01*
X167247Y426521D01*
X166593Y425499D01*
X165593Y424813D01*
X164404Y424572D01*
X161029Y424572D01*
X160064Y424764D01*
X91062Y424764D01*
X89382Y424068D01*
X66348Y401034D01*
X65652Y399353D01*
X65652Y325909D01*
X65464Y324855D01*
X64827Y323823D01*
X63837Y323121D01*
G37*
%LPC*%
G36*
X32660Y610462D02*
X48408Y610462D01*
X48408Y626210D01*
X45886Y626210D01*
X39818Y623696D01*
X35174Y619052D01*
X32660Y612984D01*
X32660Y610462D01*
G37*
G36*
X49932Y610462D02*
X65680Y610462D01*
X65680Y612984D01*
X63166Y619052D01*
X58522Y623696D01*
X52454Y626210D01*
X49932Y626210D01*
X49932Y610462D01*
G37*
G36*
X211188Y594206D02*
X217352Y594206D01*
X223047Y596565D01*
X227405Y600923D01*
X229764Y606618D01*
X229764Y612782D01*
X227405Y618477D01*
X223047Y622835D01*
X217352Y625194D01*
X211188Y625194D01*
X205493Y622835D01*
X201135Y618477D01*
X198776Y612782D01*
X198776Y606618D01*
X201135Y600923D01*
X205493Y596565D01*
X211188Y594206D01*
G37*
G36*
X49932Y593190D02*
X52454Y593190D01*
X58522Y595704D01*
X63166Y600348D01*
X65680Y606416D01*
X65680Y608938D01*
X49932Y608938D01*
X49932Y593190D01*
G37*
G36*
X45886Y593190D02*
X48408Y593190D01*
X48408Y608938D01*
X32660Y608938D01*
X32660Y606416D01*
X35174Y600348D01*
X39818Y595704D01*
X45886Y593190D01*
G37*
G36*
X268808Y563766D02*
X276992Y563766D01*
X284554Y566898D01*
X290342Y572686D01*
X293474Y580248D01*
X293474Y588432D01*
X290342Y595994D01*
X284554Y601782D01*
X276992Y604914D01*
X268808Y604914D01*
X261246Y601782D01*
X255458Y595994D01*
X252326Y588432D01*
X252326Y580248D01*
X255458Y572686D01*
X261246Y566898D01*
X268808Y563766D01*
G37*
G36*
X300080Y547002D02*
X322938Y547002D01*
X322938Y569860D01*
X301568Y569860D01*
X300080Y568372D01*
X300080Y547002D01*
G37*
G36*
X324462Y547002D02*
X347320Y547002D01*
X347320Y568372D01*
X345832Y569860D01*
X324462Y569860D01*
X324462Y547002D01*
G37*
G36*
X211188Y530706D02*
X217352Y530706D01*
X223047Y533065D01*
X227405Y537423D01*
X229764Y543118D01*
X229764Y549282D01*
X227405Y554977D01*
X223047Y559335D01*
X217352Y561694D01*
X211188Y561694D01*
X205493Y559335D01*
X201135Y554977D01*
X198776Y549282D01*
X198776Y543118D01*
X201135Y537423D01*
X205493Y533065D01*
X211188Y530706D01*
G37*
G36*
X46088Y530706D02*
X52252Y530706D01*
X57947Y533065D01*
X62305Y537423D01*
X64664Y543118D01*
X64664Y549282D01*
X62305Y554977D01*
X57947Y559335D01*
X52252Y561694D01*
X46088Y561694D01*
X40393Y559335D01*
X36035Y554977D01*
X33676Y549282D01*
X33676Y543118D01*
X36035Y537423D01*
X40393Y533065D01*
X46088Y530706D01*
G37*
G36*
X301568Y522620D02*
X322938Y522620D01*
X322938Y545478D01*
X300080Y545478D01*
X300080Y524108D01*
X301568Y522620D01*
G37*
G36*
X324462Y522620D02*
X345832Y522620D01*
X347320Y524108D01*
X347320Y545478D01*
X324462Y545478D01*
X324462Y522620D01*
G37*
G36*
X265662Y503062D02*
X275440Y503062D01*
X275440Y517352D01*
X273952Y518840D01*
X265662Y518840D01*
X265662Y503062D01*
G37*
G36*
X254360Y503062D02*
X264138Y503062D01*
X264138Y518840D01*
X255848Y518840D01*
X254360Y517352D01*
X254360Y503062D01*
G37*
G36*
X255848Y485760D02*
X264138Y485760D01*
X264138Y501538D01*
X254360Y501538D01*
X254360Y487248D01*
X255848Y485760D01*
G37*
G36*
X265662Y485760D02*
X273952Y485760D01*
X275440Y487248D01*
X275440Y501538D01*
X265662Y501538D01*
X265662Y485760D01*
G37*
G36*
X297965Y484162D02*
X312443Y484162D01*
X312443Y498640D01*
X299453Y498640D01*
X297965Y497152D01*
X297965Y484162D01*
G37*
G36*
X313967Y484162D02*
X328445Y484162D01*
X328445Y497152D01*
X326957Y498640D01*
X313967Y498640D01*
X313967Y484162D01*
G37*
G36*
X211188Y467206D02*
X217352Y467206D01*
X223047Y469565D01*
X227405Y473923D01*
X229764Y479618D01*
X229764Y485782D01*
X227405Y491477D01*
X223047Y495835D01*
X217352Y498194D01*
X211188Y498194D01*
X205493Y495835D01*
X201135Y491477D01*
X198776Y485782D01*
X198776Y479618D01*
X201135Y473923D01*
X205493Y469565D01*
X211188Y467206D01*
G37*
G36*
X45720Y384340D02*
X56896Y384340D01*
X56896Y385953D01*
X55079Y390340D01*
X51720Y393699D01*
X47333Y395516D01*
X45720Y395516D01*
X45720Y384340D01*
G37*
%LPD*%
G36*
X493200Y531792D02*
X492020Y531513D01*
X490824Y531717D01*
X489802Y532370D01*
X489116Y533371D01*
X488875Y534560D01*
X488875Y535773D01*
X489098Y536917D01*
X489768Y537928D01*
X514299Y562459D01*
X515304Y564886D01*
X515304Y569057D01*
X515492Y570111D01*
X516129Y571143D01*
X517119Y571845D01*
X518303Y572105D01*
X519496Y571883D01*
X520507Y571213D01*
X521950Y569770D01*
X523683Y569052D01*
X524655Y568408D01*
X525333Y567403D01*
X525502Y566994D01*
X526994Y565502D01*
X528945Y564694D01*
X531055Y564694D01*
X533006Y565502D01*
X534498Y566994D01*
X535306Y568945D01*
X535306Y571055D01*
X534498Y573006D01*
X533006Y574498D01*
X531794Y575000D01*
X530805Y575661D01*
X528944Y577522D01*
X526880Y578377D01*
X526552Y578441D01*
X525541Y579111D01*
X518617Y586035D01*
X517965Y587001D01*
X517724Y588190D01*
X517724Y590444D01*
X517929Y591543D01*
X518583Y592565D01*
X519583Y593251D01*
X519746Y593284D01*
X522676Y594497D01*
X544973Y616794D01*
X545850Y617406D01*
X547031Y617685D01*
X548227Y617482D01*
X549249Y616828D01*
X549935Y615827D01*
X550176Y614639D01*
X550176Y610767D01*
X550394Y609777D01*
X550171Y608584D01*
X549501Y607573D01*
X543252Y601324D01*
X542556Y599643D01*
X542556Y566037D01*
X543252Y564356D01*
X546187Y561421D01*
X546799Y560544D01*
X547078Y559363D01*
X546875Y558167D01*
X546221Y557145D01*
X545221Y556459D01*
X544032Y556218D01*
X518876Y556218D01*
X517196Y555522D01*
X494078Y532404D01*
X493200Y531792D01*
G37*
G36*
X404622Y517890D02*
X403442Y517611D01*
X402246Y517814D01*
X401224Y518468D01*
X400538Y519469D01*
X400297Y520657D01*
X400297Y522718D01*
X400529Y523885D01*
X401213Y525537D01*
X401213Y527648D01*
X400529Y529301D01*
X400297Y530467D01*
X400297Y544928D01*
X400502Y546027D01*
X401155Y547049D01*
X402156Y547735D01*
X403328Y547973D01*
X404224Y548869D01*
X404224Y563169D01*
X404447Y564313D01*
X405117Y565325D01*
X405240Y565448D01*
X405240Y572238D01*
X394438Y572238D01*
X394438Y573762D01*
X405240Y573762D01*
X405240Y580552D01*
X403752Y582040D01*
X397599Y582040D01*
X396545Y582228D01*
X395513Y582865D01*
X394811Y583855D01*
X394551Y585039D01*
X394773Y586232D01*
X395443Y587243D01*
X398887Y590687D01*
X399139Y591294D01*
X399765Y592249D01*
X400766Y592935D01*
X401284Y593040D01*
X402313Y594069D01*
X402313Y609170D01*
X402207Y609651D01*
X402313Y610219D01*
X402313Y610569D01*
X402518Y611668D01*
X403171Y612690D01*
X404172Y613376D01*
X405361Y613617D01*
X411755Y613617D01*
X412809Y613429D01*
X413841Y612792D01*
X414543Y611803D01*
X414803Y610618D01*
X414580Y609425D01*
X414238Y608908D01*
X414238Y601951D01*
X434318Y601951D01*
X434318Y608548D01*
X434523Y609647D01*
X435177Y610669D01*
X436177Y611355D01*
X437366Y611596D01*
X442738Y611596D01*
X443837Y611391D01*
X444859Y610737D01*
X445014Y610511D01*
X446679Y608846D01*
X453479Y608846D01*
X454532Y608658D01*
X455565Y608021D01*
X456266Y607031D01*
X456527Y605847D01*
X456304Y604654D01*
X455927Y604084D01*
X453760Y598853D01*
X453760Y589422D01*
X468062Y589422D01*
X468062Y587898D01*
X453760Y587898D01*
X453760Y578467D01*
X455821Y573490D01*
X455901Y573411D01*
X456533Y572489D01*
X456793Y571304D01*
X456571Y570112D01*
X455901Y569100D01*
X431428Y544627D01*
X430462Y543976D01*
X429273Y543735D01*
X415720Y543735D01*
X414827Y542842D01*
X414827Y525579D01*
X416054Y524352D01*
X416666Y523475D01*
X416945Y522294D01*
X416742Y521098D01*
X416088Y520076D01*
X415087Y519390D01*
X413899Y519149D01*
X412512Y519149D01*
X411346Y519381D01*
X410134Y519883D01*
X408023Y519883D01*
X406073Y519075D01*
X405500Y518502D01*
X404622Y517890D01*
G37*
%LPC*%
G36*
X415726Y592149D02*
X423516Y592149D01*
X423516Y600427D01*
X414238Y600427D01*
X414238Y593637D01*
X415726Y592149D01*
G37*
G36*
X425040Y592149D02*
X432830Y592149D01*
X434318Y593637D01*
X434318Y600427D01*
X425040Y600427D01*
X425040Y592149D01*
G37*
%LPD*%
G36*
X467772Y506414D02*
X466583Y506172D01*
X426980Y506172D01*
X425921Y506362D01*
X424890Y507001D01*
X424190Y507992D01*
X423932Y509177D01*
X424157Y510370D01*
X424828Y511380D01*
X425434Y511983D01*
X425579Y512332D01*
X426240Y513321D01*
X435027Y522108D01*
X435315Y522805D01*
X435942Y523759D01*
X436943Y524445D01*
X438131Y524687D01*
X444982Y524687D01*
X445875Y525579D01*
X445875Y539133D01*
X446098Y540277D01*
X446768Y541288D01*
X461539Y556059D01*
X462505Y556711D01*
X463694Y556952D01*
X475905Y556952D01*
X478333Y557957D01*
X490503Y570127D01*
X491508Y572555D01*
X491508Y603548D01*
X491713Y604647D01*
X492367Y605669D01*
X493367Y606355D01*
X494556Y606596D01*
X496628Y606596D01*
X497727Y606391D01*
X498749Y605737D01*
X499435Y604737D01*
X499676Y603548D01*
X499676Y589069D01*
X501203Y587541D01*
X501855Y586575D01*
X502096Y585386D01*
X502096Y570198D01*
X501873Y569054D01*
X501203Y568043D01*
X477788Y544627D01*
X476821Y543976D01*
X475633Y543735D01*
X458720Y543735D01*
X457827Y542842D01*
X457827Y525579D01*
X458720Y524687D01*
X479002Y524687D01*
X480055Y524499D01*
X481087Y523862D01*
X481789Y522872D01*
X482049Y521687D01*
X481827Y520495D01*
X481157Y519483D01*
X468739Y507065D01*
X467772Y506414D01*
G37*
G36*
X631233Y545489D02*
X630049Y545229D01*
X628856Y545451D01*
X627845Y546121D01*
X610090Y563876D01*
X608409Y564572D01*
X572272Y564572D01*
X571173Y564777D01*
X570151Y565431D01*
X569465Y566431D01*
X569224Y567620D01*
X569224Y573188D01*
X569429Y574287D01*
X570083Y575309D01*
X571083Y575995D01*
X572272Y576236D01*
X594654Y576236D01*
X597081Y577241D01*
X607045Y587205D01*
X607967Y587837D01*
X609151Y588098D01*
X610344Y587875D01*
X611355Y587205D01*
X614529Y584031D01*
X616956Y583026D01*
X628896Y583026D01*
X630040Y582803D01*
X631051Y582133D01*
X632155Y581029D01*
X632807Y580063D01*
X633048Y578874D01*
X633048Y548276D01*
X632860Y547223D01*
X632223Y546191D01*
X631233Y545489D01*
G37*
G36*
X507443Y391765D02*
X506254Y391524D01*
X505387Y391524D01*
X504288Y391729D01*
X503266Y392383D01*
X502580Y393383D01*
X502339Y394572D01*
X502339Y493104D01*
X502562Y494248D01*
X503232Y495259D01*
X514679Y506707D01*
X515668Y507367D01*
X516880Y507869D01*
X518372Y509362D01*
X519180Y511312D01*
X519180Y513423D01*
X518372Y515373D01*
X517107Y516639D01*
X516475Y517560D01*
X516215Y518745D01*
X516437Y519938D01*
X517107Y520949D01*
X519315Y523157D01*
X520281Y523808D01*
X521470Y524050D01*
X581836Y524050D01*
X582890Y523862D01*
X583922Y523225D01*
X584624Y522235D01*
X584884Y521050D01*
X584662Y519858D01*
X583992Y518847D01*
X551124Y485979D01*
X550428Y484298D01*
X550428Y464427D01*
X550205Y463283D01*
X549535Y462272D01*
X529698Y442435D01*
X528709Y441774D01*
X527497Y441272D01*
X526005Y439779D01*
X525197Y437829D01*
X525197Y435718D01*
X526005Y433768D01*
X527497Y432276D01*
X529447Y431468D01*
X531558Y431468D01*
X532813Y431988D01*
X533834Y432216D01*
X535033Y432032D01*
X535583Y431692D01*
X535308Y432086D01*
X535057Y433273D01*
X535289Y434464D01*
X535503Y434980D01*
X536164Y435969D01*
X545073Y444878D01*
X545950Y445490D01*
X547131Y445769D01*
X548327Y445566D01*
X549349Y444912D01*
X550035Y443912D01*
X550276Y442723D01*
X550276Y441489D01*
X550062Y440367D01*
X549400Y439351D01*
X548394Y438673D01*
X547364Y438246D01*
X540260Y431142D01*
X539405Y430540D01*
X538226Y430252D01*
X537029Y430445D01*
X536504Y430775D01*
X536767Y430405D01*
X537027Y429220D01*
X536805Y428028D01*
X536135Y427016D01*
X523649Y414531D01*
X522772Y413919D01*
X521591Y413640D01*
X520395Y413843D01*
X519373Y414497D01*
X518687Y415497D01*
X518446Y416686D01*
X518446Y483212D01*
X518678Y484379D01*
X519180Y485591D01*
X519180Y487701D01*
X518372Y489652D01*
X516880Y491144D01*
X514929Y491952D01*
X512819Y491952D01*
X510868Y491144D01*
X509376Y489652D01*
X508568Y487701D01*
X508568Y485591D01*
X509070Y484379D01*
X509302Y483212D01*
X509302Y394572D01*
X509097Y393473D01*
X508443Y392451D01*
X507443Y391765D01*
G37*
G36*
X372898Y404129D02*
X371717Y403850D01*
X370521Y404053D01*
X369499Y404707D01*
X368813Y405708D01*
X368572Y406896D01*
X368572Y425176D01*
X368795Y426320D01*
X369465Y427331D01*
X384725Y442592D01*
X385421Y444272D01*
X385421Y451012D01*
X384725Y452692D01*
X381301Y456117D01*
X380669Y457038D01*
X380409Y458223D01*
X380631Y459416D01*
X381301Y460427D01*
X384506Y463633D01*
X385362Y464234D01*
X385954Y464379D01*
X385775Y465228D01*
X386007Y466418D01*
X386103Y466651D01*
X386103Y512075D01*
X386282Y513105D01*
X386912Y514142D01*
X387895Y514852D01*
X389078Y515122D01*
X390272Y514909D01*
X391289Y514247D01*
X391621Y513754D01*
X407651Y497724D01*
X409332Y497028D01*
X462120Y497028D01*
X463173Y496841D01*
X464205Y496203D01*
X464907Y495214D01*
X465167Y494029D01*
X464945Y492836D01*
X464275Y491825D01*
X461671Y489222D01*
X460705Y488570D01*
X459516Y488329D01*
X418232Y488329D01*
X416552Y487633D01*
X394080Y465161D01*
X393091Y464500D01*
X391879Y463998D01*
X390978Y463097D01*
X390122Y462495D01*
X389530Y462350D01*
X389710Y461502D01*
X389579Y460831D01*
X389579Y458445D01*
X390387Y456494D01*
X391879Y455002D01*
X393830Y454194D01*
X395940Y454194D01*
X397891Y455002D01*
X399383Y456494D01*
X399885Y457706D01*
X400546Y458695D01*
X420143Y478292D01*
X421109Y478943D01*
X422298Y479185D01*
X424361Y479185D01*
X425414Y478997D01*
X426446Y478360D01*
X427148Y477370D01*
X427408Y476185D01*
X427186Y474993D01*
X426516Y473982D01*
X383624Y431090D01*
X382928Y429409D01*
X382928Y415156D01*
X382705Y414012D01*
X382035Y413001D01*
X373775Y404741D01*
X372898Y404129D01*
G37*
G36*
X491336Y391765D02*
X490147Y391524D01*
X380848Y391524D01*
X379795Y391712D01*
X378763Y392349D01*
X378061Y393339D01*
X377801Y394523D01*
X378023Y395716D01*
X378693Y396727D01*
X391376Y409410D01*
X392072Y411091D01*
X392072Y425344D01*
X392295Y426488D01*
X392965Y427499D01*
X419491Y454025D01*
X420368Y454637D01*
X421549Y454916D01*
X422745Y454713D01*
X423767Y454059D01*
X424453Y453059D01*
X424694Y451870D01*
X424694Y451445D01*
X425502Y449494D01*
X426994Y448002D01*
X428945Y447194D01*
X431055Y447194D01*
X432267Y447696D01*
X433434Y447928D01*
X454923Y447928D01*
X456067Y447705D01*
X457078Y447035D01*
X483752Y420362D01*
X484413Y419373D01*
X484915Y418161D01*
X486407Y416668D01*
X488357Y415861D01*
X490147Y415861D01*
X491246Y415656D01*
X492267Y415002D01*
X492953Y414001D01*
X493195Y412813D01*
X493195Y394572D01*
X492990Y393473D01*
X492336Y392451D01*
X491336Y391765D01*
G37*
G36*
X241949Y342364D02*
X240764Y342104D01*
X239571Y342326D01*
X238560Y342996D01*
X220781Y360776D01*
X219100Y361472D01*
X215472Y361472D01*
X214373Y361677D01*
X213351Y362331D01*
X212665Y363331D01*
X212424Y364520D01*
X212424Y371531D01*
X212403Y371553D01*
X211791Y372430D01*
X211511Y373611D01*
X211715Y374807D01*
X212368Y375829D01*
X213369Y376515D01*
X214558Y376756D01*
X216303Y376756D01*
X217984Y377452D01*
X283777Y443245D01*
X284743Y443897D01*
X285932Y444138D01*
X299761Y444138D01*
X300860Y443933D01*
X301882Y443279D01*
X302568Y442279D01*
X302809Y441090D01*
X302809Y436283D01*
X302587Y435139D01*
X301917Y434127D01*
X295352Y427563D01*
X294656Y425882D01*
X294656Y397897D01*
X295550Y395738D01*
X295780Y394669D01*
X295577Y393473D01*
X294923Y392451D01*
X293923Y391765D01*
X292734Y391524D01*
X287609Y391524D01*
X286511Y391729D01*
X285489Y392383D01*
X284803Y393383D01*
X284561Y394572D01*
X284561Y395339D01*
X284561Y395339D01*
X284561Y395812D01*
X284793Y396978D01*
X285295Y398190D01*
X285295Y400301D01*
X284487Y402251D01*
X282995Y403744D01*
X281045Y404552D01*
X278934Y404552D01*
X276984Y403744D01*
X275491Y402251D01*
X274683Y400301D01*
X274683Y398190D01*
X274843Y397804D01*
X275075Y396686D01*
X274853Y395493D01*
X274183Y394482D01*
X272117Y392417D01*
X271151Y391765D01*
X269962Y391524D01*
X245101Y391524D01*
X244800Y391504D01*
X244603Y391465D01*
X244413Y391399D01*
X244234Y391310D01*
X244068Y391197D01*
X243918Y391064D01*
X243787Y390912D01*
X243678Y390744D01*
X243591Y390563D01*
X243529Y390372D01*
X243491Y390167D01*
X243477Y389897D01*
X243763Y345171D01*
X243576Y344098D01*
X242938Y343066D01*
X241949Y342364D01*
G37*
G36*
X121563Y349879D02*
X121563Y339771D01*
X120039Y339771D01*
X120039Y349573D01*
X112248Y349573D01*
X110678Y348003D01*
X109801Y347391D01*
X108620Y347112D01*
X107424Y347315D01*
X106403Y347969D01*
X105717Y348970D01*
X105475Y350158D01*
X105475Y363078D01*
X105663Y364131D01*
X106300Y365163D01*
X107290Y365865D01*
X108475Y366125D01*
X109667Y365903D01*
X110678Y365233D01*
X119787Y356124D01*
X121446Y355437D01*
X122329Y354877D01*
X123047Y353899D01*
X123326Y352718D01*
X123123Y351522D01*
X122469Y350500D01*
X121563Y349879D01*
G37*
G36*
X115413Y10401D02*
X114224Y10160D01*
X90471Y10160D01*
X89327Y10383D01*
X88316Y11053D01*
X11053Y88316D01*
X10401Y89282D01*
X10160Y90471D01*
X10160Y294887D01*
X10356Y295963D01*
X11002Y296990D01*
X11997Y297684D01*
X13184Y297935D01*
X14374Y297703D01*
X17385Y296456D01*
X21997Y296456D01*
X22582Y296577D01*
X23774Y296355D01*
X24785Y295685D01*
X35987Y284483D01*
X36638Y283517D01*
X36880Y282328D01*
X36880Y264773D01*
X37576Y263092D01*
X47035Y253633D01*
X47687Y252667D01*
X47928Y251478D01*
X47928Y153889D01*
X47696Y152723D01*
X47194Y151511D01*
X47194Y149400D01*
X48002Y147450D01*
X49494Y145957D01*
X51445Y145149D01*
X53555Y145149D01*
X55506Y145957D01*
X56871Y147322D01*
X57748Y147934D01*
X58929Y148213D01*
X60125Y148010D01*
X61147Y147356D01*
X61833Y146356D01*
X62074Y145167D01*
X62074Y116808D01*
X62770Y115127D01*
X97071Y80826D01*
X98751Y80130D01*
X174944Y80130D01*
X176625Y80826D01*
X177002Y81203D01*
X177968Y81855D01*
X179157Y82096D01*
X180798Y82096D01*
X181828Y81917D01*
X182865Y81287D01*
X183575Y80304D01*
X183845Y79121D01*
X183632Y77927D01*
X182970Y76910D01*
X181964Y76232D01*
X179724Y75304D01*
X171918Y67498D01*
X170974Y66857D01*
X169787Y66606D01*
X168596Y66838D01*
X164873Y68380D01*
X160527Y68380D01*
X156513Y66717D01*
X153441Y63645D01*
X152816Y62136D01*
X152239Y61235D01*
X151256Y60525D01*
X150073Y60256D01*
X148879Y60469D01*
X147862Y61130D01*
X147184Y62136D01*
X146559Y63645D01*
X143487Y66717D01*
X139473Y68380D01*
X135127Y68380D01*
X131113Y66717D01*
X128041Y63645D01*
X127416Y62136D01*
X126839Y61235D01*
X125856Y60525D01*
X124673Y60256D01*
X123479Y60469D01*
X122462Y61130D01*
X121784Y62136D01*
X121159Y63645D01*
X118087Y66717D01*
X114073Y68380D01*
X109727Y68380D01*
X105713Y66717D01*
X102641Y63645D01*
X100978Y59631D01*
X100978Y55285D01*
X102641Y51271D01*
X105713Y48199D01*
X107222Y47574D01*
X108123Y46997D01*
X108833Y46014D01*
X109102Y44831D01*
X108889Y43637D01*
X108228Y42620D01*
X107222Y41942D01*
X105713Y41317D01*
X102641Y38245D01*
X100978Y34231D01*
X100978Y29885D01*
X102641Y25871D01*
X105713Y22799D01*
X110068Y20995D01*
X110488Y20913D01*
X111499Y20243D01*
X116379Y15363D01*
X116991Y14486D01*
X117270Y13305D01*
X117067Y12109D01*
X116413Y11087D01*
X115413Y10401D01*
G37*
G36*
X208501Y91481D02*
X207312Y91240D01*
X186330Y91240D01*
X185277Y91428D01*
X184245Y92065D01*
X183543Y93055D01*
X183283Y94239D01*
X183505Y95432D01*
X184175Y96443D01*
X199248Y111516D01*
X199695Y112594D01*
X200321Y113549D01*
X201322Y114235D01*
X202511Y114476D01*
X208431Y114476D01*
X209324Y115369D01*
X209324Y131631D01*
X208431Y132524D01*
X193330Y132524D01*
X192849Y132418D01*
X192281Y132524D01*
X177970Y132524D01*
X176826Y132747D01*
X175815Y133417D01*
X173928Y135304D01*
X173621Y135431D01*
X172720Y136008D01*
X172010Y136992D01*
X171740Y138174D01*
X171953Y139368D01*
X172615Y140385D01*
X173621Y141063D01*
X175512Y141847D01*
X179449Y145783D01*
X180416Y146435D01*
X181604Y146676D01*
X190069Y146676D01*
X191213Y146453D01*
X192225Y145783D01*
X192348Y145660D01*
X199138Y145660D01*
X199138Y165740D01*
X192348Y165740D01*
X192225Y165617D01*
X191258Y164965D01*
X190069Y164724D01*
X175769Y164724D01*
X174876Y163831D01*
X174876Y155404D01*
X174653Y154260D01*
X173983Y153249D01*
X171921Y151187D01*
X170955Y150536D01*
X169766Y150295D01*
X148628Y150295D01*
X147529Y150499D01*
X146507Y151153D01*
X145821Y152154D01*
X145580Y153343D01*
X145580Y153854D01*
X144687Y154747D01*
X139692Y154747D01*
X138593Y154951D01*
X137571Y155605D01*
X136885Y156606D01*
X136644Y157795D01*
X136644Y158248D01*
X135948Y159929D01*
X122753Y173124D01*
X121072Y173820D01*
X118798Y173820D01*
X117654Y174043D01*
X116643Y174713D01*
X116631Y174724D01*
X103369Y174724D01*
X101666Y173021D01*
X101651Y172997D01*
X101620Y172975D01*
X101583Y172939D01*
X101577Y172945D01*
X100661Y172295D01*
X99477Y172035D01*
X98284Y172257D01*
X97273Y172927D01*
X92898Y177302D01*
X92246Y178269D01*
X92005Y179458D01*
X92005Y202295D01*
X92057Y202557D01*
X92057Y212050D01*
X91579Y213203D01*
X90666Y214117D01*
X90034Y215039D01*
X89773Y216223D01*
X89996Y217416D01*
X90666Y218427D01*
X91565Y219327D01*
X92509Y219969D01*
X93696Y220219D01*
X94747Y220015D01*
X99045Y220015D01*
X100197Y220492D01*
X101079Y221374D01*
X101557Y222527D01*
X101557Y231550D01*
X101079Y232703D01*
X100197Y233585D01*
X99045Y234063D01*
X97737Y234063D01*
X96593Y234286D01*
X95582Y234955D01*
X88565Y241973D01*
X87913Y242939D01*
X87672Y244128D01*
X87672Y258706D01*
X87724Y258968D01*
X87724Y260846D01*
X87947Y261990D01*
X88617Y263001D01*
X92273Y266657D01*
X93150Y267269D01*
X94331Y267548D01*
X95527Y267345D01*
X96549Y266691D01*
X97235Y265691D01*
X97476Y264502D01*
X97476Y259438D01*
X97953Y258286D01*
X98836Y257403D01*
X99988Y256926D01*
X104212Y256926D01*
X104303Y256964D01*
X105372Y257194D01*
X106568Y256991D01*
X107590Y256337D01*
X108276Y255337D01*
X108517Y254148D01*
X108517Y253906D01*
X108517Y253905D01*
X108518Y236719D01*
X108286Y235553D01*
X107784Y234341D01*
X107784Y232230D01*
X108592Y230280D01*
X110085Y228788D01*
X112035Y227980D01*
X114146Y227980D01*
X116096Y228788D01*
X117588Y230280D01*
X118396Y232230D01*
X118396Y234341D01*
X117894Y235554D01*
X117662Y236720D01*
X117662Y252265D01*
X117884Y253409D01*
X118554Y254420D01*
X132797Y268663D01*
X133764Y269315D01*
X134953Y269556D01*
X138066Y269556D01*
X139119Y269368D01*
X140151Y268731D01*
X140853Y267741D01*
X141114Y266557D01*
X140891Y265364D01*
X140221Y264353D01*
X139352Y263484D01*
X138656Y261803D01*
X138656Y258084D01*
X138433Y256940D01*
X137763Y255929D01*
X133751Y251917D01*
X132785Y251265D01*
X131596Y251024D01*
X125169Y251024D01*
X124276Y250131D01*
X124276Y238869D01*
X125169Y237976D01*
X129609Y237976D01*
X130685Y237780D01*
X131712Y237134D01*
X132406Y236139D01*
X132657Y234952D01*
X132425Y233762D01*
X132194Y233205D01*
X132194Y231094D01*
X132696Y229882D01*
X132823Y229245D01*
X133624Y227310D01*
X145383Y215551D01*
X146035Y214585D01*
X146276Y213396D01*
X146276Y211138D01*
X146088Y210084D01*
X145451Y209052D01*
X144461Y208351D01*
X143277Y208090D01*
X142084Y208313D01*
X141073Y208983D01*
X140431Y209624D01*
X125169Y209624D01*
X124276Y208731D01*
X124276Y197469D01*
X125169Y196576D01*
X125180Y196576D01*
X126279Y196371D01*
X127301Y195717D01*
X127987Y194717D01*
X128228Y193528D01*
X128228Y182991D01*
X128924Y181310D01*
X138583Y171651D01*
X139235Y170685D01*
X139476Y169496D01*
X139476Y165569D01*
X140369Y164676D01*
X153631Y164676D01*
X154524Y165569D01*
X154524Y173831D01*
X153631Y174724D01*
X149704Y174724D01*
X148560Y174947D01*
X147549Y175617D01*
X138265Y184901D01*
X137613Y185868D01*
X137372Y187056D01*
X137372Y193528D01*
X137577Y194627D01*
X138231Y195649D01*
X139231Y196335D01*
X140420Y196576D01*
X140431Y196576D01*
X141073Y197217D01*
X141950Y197830D01*
X143131Y198109D01*
X144327Y197905D01*
X145349Y197252D01*
X146035Y196251D01*
X146276Y195062D01*
X146276Y187969D01*
X147169Y187076D01*
X153596Y187076D01*
X154740Y186853D01*
X155751Y186183D01*
X162577Y179357D01*
X164257Y178661D01*
X187855Y178661D01*
X188999Y178439D01*
X190010Y177769D01*
X190458Y177321D01*
X205559Y177321D01*
X206041Y177427D01*
X206608Y177321D01*
X221721Y177321D01*
X222614Y178214D01*
X222614Y194476D01*
X221721Y195369D01*
X215800Y195369D01*
X214679Y195583D01*
X213662Y196244D01*
X212984Y197250D01*
X212537Y198328D01*
X210265Y200601D01*
X209613Y201568D01*
X209372Y202757D01*
X209372Y203195D01*
X209577Y204294D01*
X210230Y205316D01*
X211231Y206002D01*
X211807Y206119D01*
X212824Y207136D01*
X212824Y207647D01*
X213029Y208746D01*
X213682Y209768D01*
X214683Y210454D01*
X215872Y210695D01*
X218442Y210695D01*
X220123Y211391D01*
X231210Y222479D01*
X232066Y223080D01*
X233244Y223369D01*
X234442Y223175D01*
X235469Y222530D01*
X236162Y221534D01*
X236413Y220348D01*
X236181Y219157D01*
X236038Y218811D01*
X236038Y216700D01*
X236846Y214750D01*
X238339Y213258D01*
X240289Y212450D01*
X241586Y212450D01*
X242666Y212252D01*
X243692Y211605D01*
X244385Y210609D01*
X244634Y209421D01*
X245148Y129096D01*
X244926Y127933D01*
X244256Y126922D01*
X209467Y92133D01*
X208501Y91481D01*
G37*
%LPC*%
G36*
X200662Y156462D02*
X208940Y156462D01*
X208940Y164252D01*
X207452Y165740D01*
X200662Y165740D01*
X200662Y156462D01*
G37*
G36*
X200662Y145660D02*
X207452Y145660D01*
X208940Y147148D01*
X208940Y154938D01*
X200662Y154938D01*
X200662Y145660D01*
G37*
%LPD*%
G36*
X243685Y64554D02*
X242496Y64313D01*
X208730Y64313D01*
X207586Y64536D01*
X206575Y65206D01*
X196477Y75304D01*
X194236Y76232D01*
X193353Y76792D01*
X192635Y77770D01*
X192356Y78951D01*
X192559Y80147D01*
X193213Y81169D01*
X194214Y81855D01*
X195402Y82096D01*
X211377Y82096D01*
X213058Y82792D01*
X240083Y109817D01*
X240942Y110421D01*
X242121Y110707D01*
X243318Y110512D01*
X244344Y109864D01*
X245037Y108868D01*
X245286Y107681D01*
X245544Y67380D01*
X245339Y66262D01*
X244685Y65240D01*
X243685Y64554D01*
G37*
G36*
X349533Y380813D02*
X348344Y380572D01*
X321434Y380572D01*
X320267Y380804D01*
X319055Y381306D01*
X318453Y381306D01*
X317355Y381511D01*
X316333Y382165D01*
X315647Y383165D01*
X315405Y384354D01*
X315405Y386952D01*
X315610Y388051D01*
X316264Y389073D01*
X317265Y389759D01*
X318453Y390000D01*
X351676Y390000D01*
X352729Y389812D01*
X353761Y389175D01*
X354463Y388185D01*
X354723Y387001D01*
X354501Y385808D01*
X353831Y384797D01*
X350499Y381465D01*
X349533Y380813D01*
G37*
G36*
X561113Y366281D02*
X559929Y366021D01*
X558736Y366243D01*
X557725Y366913D01*
X539841Y384797D01*
X539229Y385674D01*
X538950Y386855D01*
X539153Y388051D01*
X539807Y389073D01*
X540807Y389759D01*
X541996Y390000D01*
X559880Y390000D01*
X560979Y389795D01*
X562001Y389141D01*
X562687Y388141D01*
X562928Y386952D01*
X562928Y369068D01*
X562740Y368015D01*
X562103Y366983D01*
X561113Y366281D01*
G37*
G36*
X249872Y313339D02*
X248691Y313060D01*
X247495Y313263D01*
X246473Y313917D01*
X245787Y314918D01*
X245546Y316106D01*
X245546Y335106D01*
X245346Y336097D01*
X245020Y386932D01*
X245225Y388051D01*
X245878Y389073D01*
X246879Y389759D01*
X248068Y390000D01*
X267380Y390000D01*
X268479Y389795D01*
X269501Y389141D01*
X270187Y388141D01*
X270428Y386952D01*
X270428Y350911D01*
X270205Y349767D01*
X269535Y348756D01*
X260997Y340217D01*
X260301Y338537D01*
X260301Y332460D01*
X260069Y331293D01*
X259567Y330081D01*
X259567Y327971D01*
X260311Y326174D01*
X260542Y325056D01*
X260320Y323863D01*
X259650Y322852D01*
X250749Y313951D01*
X249872Y313339D01*
G37*
G36*
X283898Y380100D02*
X282717Y379821D01*
X281521Y380024D01*
X280499Y380678D01*
X279813Y381678D01*
X279572Y382867D01*
X279572Y385677D01*
X279795Y386821D01*
X280465Y387832D01*
X281740Y389107D01*
X282706Y389759D01*
X283895Y390000D01*
X287720Y390000D01*
X288751Y389821D01*
X289788Y389191D01*
X289989Y388913D01*
X290090Y389073D01*
X291091Y389759D01*
X292280Y390000D01*
X294406Y390000D01*
X295505Y389795D01*
X296527Y389141D01*
X297213Y388141D01*
X297454Y386952D01*
X297454Y386071D01*
X297258Y384995D01*
X296612Y383968D01*
X295617Y383274D01*
X294430Y383023D01*
X293240Y383255D01*
X291113Y384136D01*
X290230Y384696D01*
X290011Y384995D01*
X289893Y384814D01*
X288887Y384136D01*
X286994Y383352D01*
X285502Y381860D01*
X285436Y381701D01*
X284876Y380817D01*
X283898Y380100D01*
G37*
G36*
X925481Y10401D02*
X924292Y10160D01*
X863657Y10160D01*
X862604Y10348D01*
X861571Y10985D01*
X860870Y11975D01*
X860609Y13159D01*
X860832Y14352D01*
X861502Y15363D01*
X871140Y25002D01*
X872084Y25643D01*
X873271Y25894D01*
X874462Y25662D01*
X878185Y24120D01*
X882531Y24120D01*
X886545Y25783D01*
X889617Y28855D01*
X890242Y30364D01*
X890819Y31265D01*
X891802Y31975D01*
X892985Y32244D01*
X894179Y32031D01*
X895196Y31370D01*
X895874Y30364D01*
X896499Y28855D01*
X899571Y25783D01*
X903585Y24120D01*
X907931Y24120D01*
X911945Y25783D01*
X915017Y28855D01*
X916680Y32869D01*
X916680Y37215D01*
X915017Y41229D01*
X911945Y44301D01*
X910436Y44926D01*
X909535Y45503D01*
X908825Y46486D01*
X908556Y47669D01*
X908769Y48863D01*
X909430Y49880D01*
X910436Y50558D01*
X911945Y51183D01*
X915017Y54255D01*
X916680Y58269D01*
X916680Y62615D01*
X915017Y66629D01*
X911945Y69701D01*
X907931Y71364D01*
X903586Y71364D01*
X901804Y70626D01*
X900686Y70395D01*
X899494Y70617D01*
X898483Y71287D01*
X879880Y89890D01*
X879247Y90812D01*
X878987Y91997D01*
X879210Y93189D01*
X879880Y94201D01*
X900045Y114366D01*
X900045Y120834D01*
X897934Y122945D01*
X897302Y123867D01*
X897042Y125051D01*
X897264Y126244D01*
X897934Y127255D01*
X900045Y129366D01*
X900045Y130213D01*
X900268Y131357D01*
X900938Y132368D01*
X903105Y134535D01*
X904071Y135187D01*
X905260Y135428D01*
X905909Y135428D01*
X907590Y136124D01*
X908876Y137410D01*
X909572Y139091D01*
X909572Y140909D01*
X908876Y142590D01*
X897590Y153876D01*
X895909Y154572D01*
X878933Y154572D01*
X877789Y154795D01*
X876777Y155465D01*
X853085Y179157D01*
X852433Y180124D01*
X852192Y181313D01*
X852192Y234868D01*
X851496Y236548D01*
X754256Y333788D01*
X754146Y333834D01*
X753191Y334460D01*
X752505Y335461D01*
X752264Y336650D01*
X752264Y337862D01*
X752065Y338823D01*
X752287Y340015D01*
X752957Y341027D01*
X787913Y375983D01*
X788377Y377103D01*
X788377Y386952D01*
X788582Y388051D01*
X789236Y389073D01*
X790236Y389759D01*
X791425Y390000D01*
X924292Y390000D01*
X925391Y389795D01*
X926413Y389141D01*
X927099Y388141D01*
X927340Y386952D01*
X927340Y13208D01*
X927135Y12109D01*
X926481Y11087D01*
X925481Y10401D01*
G37*
%LPC*%
G36*
X882385Y186444D02*
X886731Y186444D01*
X890745Y188107D01*
X893817Y191179D01*
X894442Y192688D01*
X895019Y193589D01*
X896002Y194299D01*
X897185Y194568D01*
X898379Y194355D01*
X899396Y193694D01*
X900074Y192688D01*
X900699Y191179D01*
X903771Y188107D01*
X907785Y186444D01*
X912131Y186444D01*
X916145Y188107D01*
X919217Y191179D01*
X920880Y195194D01*
X920880Y199539D01*
X919217Y203553D01*
X916145Y206625D01*
X914636Y207250D01*
X913735Y207827D01*
X913025Y208810D01*
X912756Y209993D01*
X912969Y211187D01*
X913630Y212204D01*
X914636Y212882D01*
X916145Y213507D01*
X919217Y216579D01*
X920880Y220594D01*
X920880Y224939D01*
X919217Y228953D01*
X916145Y232025D01*
X914636Y232650D01*
X913735Y233227D01*
X913025Y234210D01*
X912756Y235393D01*
X912969Y236587D01*
X913630Y237604D01*
X914636Y238282D01*
X916145Y238907D01*
X919217Y241979D01*
X920880Y245994D01*
X920880Y250339D01*
X919217Y254353D01*
X916145Y257425D01*
X914636Y258050D01*
X913735Y258627D01*
X913025Y259610D01*
X912756Y260793D01*
X912969Y261987D01*
X913630Y263004D01*
X914636Y263682D01*
X916145Y264307D01*
X919217Y267379D01*
X920880Y271394D01*
X920880Y275739D01*
X919217Y279753D01*
X916145Y282825D01*
X912131Y284488D01*
X907785Y284488D01*
X903771Y282825D01*
X900699Y279753D01*
X900074Y278245D01*
X899497Y277343D01*
X898514Y276634D01*
X897331Y276364D01*
X896137Y276577D01*
X895120Y277239D01*
X894442Y278245D01*
X893817Y279753D01*
X890745Y282825D01*
X886731Y284488D01*
X882385Y284488D01*
X878371Y282825D01*
X875299Y279753D01*
X873636Y275739D01*
X873636Y271394D01*
X875299Y267379D01*
X878371Y264307D01*
X879880Y263682D01*
X880781Y263105D01*
X881491Y262122D01*
X881760Y260939D01*
X881547Y259745D01*
X880886Y258728D01*
X879880Y258050D01*
X878371Y257425D01*
X875299Y254353D01*
X873636Y250339D01*
X873636Y245994D01*
X875299Y241979D01*
X878371Y238907D01*
X879880Y238282D01*
X880781Y237705D01*
X881491Y236722D01*
X881760Y235539D01*
X881547Y234345D01*
X880886Y233328D01*
X879880Y232650D01*
X878371Y232025D01*
X875299Y228953D01*
X873636Y224939D01*
X873636Y220594D01*
X875299Y216579D01*
X878371Y213507D01*
X879880Y212882D01*
X880781Y212305D01*
X881491Y211322D01*
X881760Y210139D01*
X881547Y208945D01*
X880886Y207928D01*
X879880Y207250D01*
X878371Y206625D01*
X875299Y203553D01*
X873636Y199539D01*
X873636Y195194D01*
X875299Y191179D01*
X878371Y188107D01*
X882385Y186444D01*
G37*
%LPD*%
G36*
X898514Y251234D02*
X897331Y250964D01*
X896137Y251177D01*
X895120Y251839D01*
X894442Y252845D01*
X893817Y254353D01*
X890745Y257425D01*
X889236Y258050D01*
X888335Y258627D01*
X887625Y259610D01*
X887356Y260793D01*
X887569Y261987D01*
X888230Y263004D01*
X889236Y263682D01*
X890745Y264307D01*
X893817Y267379D01*
X894442Y268888D01*
X895019Y269789D01*
X896002Y270499D01*
X897185Y270768D01*
X898379Y270555D01*
X899396Y269894D01*
X900074Y268888D01*
X900699Y267379D01*
X903771Y264307D01*
X905280Y263682D01*
X906181Y263105D01*
X906891Y262122D01*
X907160Y260939D01*
X906947Y259745D01*
X906286Y258728D01*
X905280Y258050D01*
X903771Y257425D01*
X900699Y254353D01*
X900074Y252845D01*
X899497Y251943D01*
X898514Y251234D01*
G37*
G36*
X898514Y225834D02*
X897331Y225564D01*
X896137Y225777D01*
X895120Y226439D01*
X894442Y227445D01*
X893817Y228953D01*
X890745Y232025D01*
X889236Y232650D01*
X888335Y233227D01*
X887625Y234210D01*
X887356Y235393D01*
X887569Y236587D01*
X888230Y237604D01*
X889236Y238282D01*
X890745Y238907D01*
X893817Y241979D01*
X894442Y243488D01*
X895019Y244389D01*
X896002Y245099D01*
X897185Y245368D01*
X898379Y245155D01*
X899396Y244494D01*
X900074Y243488D01*
X900699Y241979D01*
X903771Y238907D01*
X905280Y238282D01*
X906181Y237705D01*
X906891Y236722D01*
X907160Y235539D01*
X906947Y234345D01*
X906286Y233328D01*
X905280Y232650D01*
X903771Y232025D01*
X900699Y228953D01*
X900074Y227445D01*
X899497Y226543D01*
X898514Y225834D01*
G37*
G36*
X898514Y200434D02*
X897331Y200164D01*
X896137Y200377D01*
X895120Y201039D01*
X894442Y202045D01*
X893817Y203553D01*
X890745Y206625D01*
X889236Y207250D01*
X888335Y207827D01*
X887625Y208810D01*
X887356Y209993D01*
X887569Y211187D01*
X888230Y212204D01*
X889236Y212882D01*
X890745Y213507D01*
X893817Y216579D01*
X894442Y218088D01*
X895019Y218989D01*
X896002Y219699D01*
X897185Y219968D01*
X898379Y219755D01*
X899396Y219094D01*
X900074Y218088D01*
X900699Y216579D01*
X903771Y213507D01*
X905280Y212882D01*
X906181Y212305D01*
X906891Y211322D01*
X907160Y210139D01*
X906947Y208945D01*
X906286Y207928D01*
X905280Y207250D01*
X903771Y206625D01*
X900699Y203553D01*
X900074Y202045D01*
X899497Y201143D01*
X898514Y200434D01*
G37*
G36*
X569019Y286201D02*
X567830Y285960D01*
X547689Y285960D01*
X546613Y286156D01*
X545586Y286802D01*
X544892Y287797D01*
X544641Y288984D01*
X544873Y290174D01*
X545504Y291697D01*
X545504Y295303D01*
X544124Y298634D01*
X541574Y301184D01*
X538243Y302564D01*
X520713Y302564D01*
X519614Y302769D01*
X518592Y303423D01*
X517906Y304423D01*
X517665Y305612D01*
X517665Y336808D01*
X517888Y337951D01*
X518558Y338963D01*
X537990Y358395D01*
X538686Y360076D01*
X538686Y369972D01*
X538874Y371026D01*
X539511Y372058D01*
X540501Y372760D01*
X541685Y373020D01*
X542878Y372797D01*
X543889Y372127D01*
X562944Y353072D01*
X564065Y352608D01*
X570935Y352608D01*
X572056Y353072D01*
X576523Y357539D01*
X577489Y358191D01*
X578678Y358432D01*
X581256Y358432D01*
X582378Y358218D01*
X583394Y357556D01*
X583977Y356691D01*
X586449Y354220D01*
X589597Y352916D01*
X593003Y352916D01*
X596151Y354220D01*
X598560Y356629D01*
X599864Y359777D01*
X599864Y363183D01*
X598560Y366331D01*
X596151Y368740D01*
X593003Y370044D01*
X589597Y370044D01*
X586449Y368740D01*
X583984Y366276D01*
X583446Y365455D01*
X582445Y364769D01*
X581256Y364528D01*
X575120Y364528D01*
X574021Y364733D01*
X572999Y365387D01*
X572313Y366387D01*
X572072Y367576D01*
X572072Y381712D01*
X572269Y382790D01*
X572915Y383817D01*
X573911Y384510D01*
X575098Y384760D01*
X575135Y384753D01*
X575135Y384754D01*
X647435Y384754D01*
X648555Y385218D01*
X649620Y386283D01*
X650498Y386895D01*
X651678Y387175D01*
X652874Y386971D01*
X653896Y386317D01*
X654582Y385317D01*
X654824Y384128D01*
X654824Y382889D01*
X655631Y380938D01*
X657124Y379446D01*
X659074Y378638D01*
X661185Y378638D01*
X663135Y379446D01*
X664628Y380938D01*
X665436Y382889D01*
X665436Y383677D01*
X665658Y384821D01*
X666328Y385832D01*
X669603Y389107D01*
X670570Y389759D01*
X671759Y390000D01*
X672382Y390000D01*
X673503Y389786D01*
X674520Y389124D01*
X674748Y388786D01*
X681379Y382155D01*
X682011Y381233D01*
X682271Y380049D01*
X682049Y378856D01*
X681379Y377845D01*
X675078Y371544D01*
X674702Y370971D01*
X673702Y370285D01*
X672513Y370044D01*
X659829Y370044D01*
X658936Y369151D01*
X658936Y357488D01*
X658731Y356389D01*
X658077Y355367D01*
X657077Y354681D01*
X655888Y354440D01*
X653015Y354440D01*
X651939Y354636D01*
X650912Y355282D01*
X650218Y356277D01*
X649967Y357464D01*
X650199Y358654D01*
X650664Y359777D01*
X650664Y363183D01*
X649360Y366331D01*
X646951Y368740D01*
X643803Y370044D01*
X640397Y370044D01*
X637249Y368740D01*
X634840Y366331D01*
X633536Y363183D01*
X633536Y359777D01*
X634840Y356629D01*
X637249Y354220D01*
X640397Y352916D01*
X640683Y352916D01*
X641736Y352728D01*
X642768Y352091D01*
X643470Y351101D01*
X643730Y349917D01*
X643508Y348724D01*
X642838Y347713D01*
X626167Y331042D01*
X625245Y330410D01*
X624061Y330150D01*
X622868Y330372D01*
X621857Y331042D01*
X621834Y331064D01*
X618503Y332444D01*
X614897Y332444D01*
X611566Y331064D01*
X609016Y328514D01*
X607636Y325183D01*
X607636Y321577D01*
X609016Y318246D01*
X611566Y315696D01*
X614897Y314316D01*
X617380Y314316D01*
X618479Y314111D01*
X619501Y313457D01*
X620187Y312457D01*
X620428Y311268D01*
X620428Y304512D01*
X620223Y303413D01*
X619569Y302391D01*
X618569Y301705D01*
X617380Y301464D01*
X601314Y301464D01*
X600238Y301660D01*
X599211Y302306D01*
X598517Y303301D01*
X598266Y304488D01*
X598498Y305678D01*
X599864Y308977D01*
X599864Y312383D01*
X598560Y315531D01*
X596151Y317940D01*
X593003Y319244D01*
X589597Y319244D01*
X586449Y317940D01*
X584040Y315531D01*
X582736Y312383D01*
X582736Y308977D01*
X584040Y305829D01*
X584352Y305517D01*
X584975Y304616D01*
X585244Y303433D01*
X585030Y302239D01*
X584368Y301222D01*
X584327Y301195D01*
X569985Y286853D01*
X569019Y286201D01*
G37*
%LPC*%
G36*
X614997Y352916D02*
X618403Y352916D01*
X621551Y354220D01*
X623960Y356629D01*
X625264Y359777D01*
X625264Y363183D01*
X623960Y366331D01*
X621551Y368740D01*
X618403Y370044D01*
X614997Y370044D01*
X611849Y368740D01*
X609440Y366331D01*
X608136Y363183D01*
X608136Y359777D01*
X609440Y356629D01*
X611849Y354220D01*
X614997Y352916D01*
G37*
G36*
X589597Y327516D02*
X593003Y327516D01*
X596151Y328820D01*
X598560Y331229D01*
X599864Y334377D01*
X599864Y337783D01*
X598560Y340931D01*
X596151Y343340D01*
X593003Y344644D01*
X589597Y344644D01*
X586449Y343340D01*
X584040Y340931D01*
X582736Y337783D01*
X582736Y334377D01*
X584040Y331229D01*
X586449Y328820D01*
X589597Y327516D01*
G37*
%LPD*%
G36*
X766398Y363354D02*
X765217Y363075D01*
X764021Y363278D01*
X762999Y363932D01*
X762313Y364932D01*
X762072Y366121D01*
X762072Y386024D01*
X761893Y386855D01*
X762096Y388051D01*
X762750Y389073D01*
X763750Y389759D01*
X764939Y390000D01*
X779233Y390000D01*
X780332Y389795D01*
X781354Y389141D01*
X782040Y388141D01*
X782281Y386952D01*
X782281Y380234D01*
X782058Y379090D01*
X781389Y378079D01*
X767275Y363966D01*
X766398Y363354D01*
G37*
G36*
X751091Y368692D02*
X749904Y368441D01*
X748714Y368673D01*
X745403Y370044D01*
X741918Y370044D01*
X740957Y369845D01*
X739765Y370067D01*
X738753Y370737D01*
X730289Y379202D01*
X729637Y380168D01*
X729396Y381357D01*
X729396Y386952D01*
X729601Y388051D01*
X730255Y389073D01*
X731255Y389759D01*
X732444Y390000D01*
X746927Y390000D01*
X748071Y389777D01*
X749082Y389107D01*
X752035Y386154D01*
X752687Y385188D01*
X752928Y383999D01*
X752928Y371489D01*
X752732Y370413D01*
X752086Y369386D01*
X751091Y368692D01*
G37*
G36*
X300160Y175131D02*
X298975Y174871D01*
X297783Y175093D01*
X296771Y175763D01*
X290586Y181949D01*
X290586Y181949D01*
X290102Y182433D01*
X289470Y183355D01*
X289210Y184540D01*
X289432Y185732D01*
X290102Y186743D01*
X290124Y186766D01*
X291504Y190097D01*
X291504Y193703D01*
X289959Y197432D01*
X289835Y197613D01*
X289575Y198798D01*
X289797Y199990D01*
X290467Y201002D01*
X313996Y224530D01*
X314692Y226211D01*
X314692Y367646D01*
X314897Y368745D01*
X315551Y369767D01*
X316551Y370453D01*
X317740Y370694D01*
X319055Y370694D01*
X320267Y371196D01*
X321434Y371428D01*
X352409Y371428D01*
X354090Y372124D01*
X371073Y389107D01*
X372040Y389759D01*
X373228Y390000D01*
X490147Y390000D01*
X491246Y389795D01*
X492267Y389141D01*
X492953Y388141D01*
X493195Y386952D01*
X493195Y381137D01*
X492972Y379993D01*
X492302Y378982D01*
X485030Y371710D01*
X484334Y370029D01*
X484334Y351262D01*
X484111Y350118D01*
X483441Y349107D01*
X479548Y345213D01*
X478670Y344601D01*
X477490Y344322D01*
X476294Y344526D01*
X475272Y345179D01*
X474586Y346180D01*
X474344Y347369D01*
X474344Y374504D01*
X474576Y375671D01*
X475078Y376883D01*
X475078Y378993D01*
X474271Y380944D01*
X472778Y382436D01*
X470828Y383244D01*
X468717Y383244D01*
X466767Y382436D01*
X465274Y380944D01*
X464466Y378993D01*
X464466Y376883D01*
X464968Y375671D01*
X465200Y374504D01*
X465200Y343729D01*
X464978Y342585D01*
X464308Y341573D01*
X425190Y302456D01*
X424246Y301814D01*
X423059Y301564D01*
X422030Y301764D01*
X406855Y301764D01*
X404075Y300612D01*
X401948Y298485D01*
X400796Y295705D01*
X400796Y292695D01*
X401633Y290674D01*
X401864Y289581D01*
X401651Y288386D01*
X400990Y287370D01*
X399984Y286692D01*
X399974Y286688D01*
X303624Y190338D01*
X302928Y188657D01*
X302928Y178872D01*
X302705Y177728D01*
X302035Y176717D01*
X301082Y175763D01*
X300160Y175131D01*
G37*
G36*
X497804Y352959D02*
X496623Y352680D01*
X495427Y352883D01*
X494405Y353537D01*
X493719Y354537D01*
X493478Y355726D01*
X493478Y365964D01*
X493701Y367108D01*
X494371Y368119D01*
X501643Y375391D01*
X502339Y377071D01*
X502339Y386952D01*
X502544Y388051D01*
X503197Y389073D01*
X504198Y389759D01*
X505387Y390000D01*
X506254Y390000D01*
X507353Y389795D01*
X508375Y389141D01*
X509061Y388141D01*
X509302Y386952D01*
X509302Y365454D01*
X509079Y364310D01*
X508409Y363299D01*
X498681Y353571D01*
X497804Y352959D01*
G37*
G36*
X702867Y366381D02*
X701682Y366121D01*
X700490Y366343D01*
X699478Y367013D01*
X697751Y368740D01*
X694603Y370044D01*
X693868Y370044D01*
X692815Y370232D01*
X691783Y370869D01*
X691081Y371859D01*
X690821Y373043D01*
X691043Y374236D01*
X691713Y375247D01*
X692982Y376516D01*
X693948Y377168D01*
X695137Y377409D01*
X706827Y377409D01*
X707880Y377221D01*
X708912Y376584D01*
X709614Y375594D01*
X709874Y374410D01*
X709652Y373217D01*
X708982Y372206D01*
X703789Y367013D01*
X702867Y366381D01*
G37*
G36*
X731190Y360130D02*
X730009Y359851D01*
X728813Y360054D01*
X727791Y360708D01*
X727105Y361709D01*
X726864Y362897D01*
X726864Y363183D01*
X725560Y366331D01*
X723151Y368740D01*
X720992Y369635D01*
X720073Y370228D01*
X719371Y371217D01*
X719111Y372402D01*
X719333Y373595D01*
X720003Y374606D01*
X720978Y375581D01*
X721900Y376213D01*
X723085Y376473D01*
X724277Y376251D01*
X725289Y375581D01*
X733942Y366927D01*
X734574Y366006D01*
X734834Y364821D01*
X734612Y363628D01*
X733942Y362617D01*
X732067Y360742D01*
X731190Y360130D01*
G37*
G36*
X701445Y330410D02*
X700261Y330150D01*
X699068Y330372D01*
X698057Y331042D01*
X698034Y331064D01*
X694703Y332444D01*
X691097Y332444D01*
X690477Y332187D01*
X689457Y331959D01*
X688258Y332143D01*
X687226Y332780D01*
X686524Y333770D01*
X686263Y334955D01*
X686486Y336147D01*
X687156Y337159D01*
X705572Y355575D01*
X705737Y355972D01*
X706330Y356891D01*
X707319Y357593D01*
X708504Y357853D01*
X709696Y357631D01*
X710708Y356961D01*
X713449Y354220D01*
X716597Y352916D01*
X716883Y352916D01*
X717936Y352728D01*
X718968Y352091D01*
X719670Y351101D01*
X719930Y349917D01*
X719708Y348724D01*
X719038Y347713D01*
X702367Y331042D01*
X701445Y330410D01*
G37*
G36*
X687067Y345945D02*
X685889Y345656D01*
X684691Y345850D01*
X683664Y346496D01*
X682970Y347491D01*
X682720Y348678D01*
X682951Y349868D01*
X683740Y351771D01*
X683880Y352542D01*
X684526Y353569D01*
X685521Y354263D01*
X686708Y354514D01*
X687898Y354282D01*
X689171Y353755D01*
X690090Y353162D01*
X690792Y352172D01*
X691052Y350988D01*
X690830Y349795D01*
X690160Y348784D01*
X687923Y346547D01*
X687067Y345945D01*
G37*
G36*
X283563Y342622D02*
X282385Y342334D01*
X281188Y342527D01*
X280161Y343173D01*
X279467Y344168D01*
X279216Y345355D01*
X279448Y346546D01*
X279564Y346826D01*
X280124Y347710D01*
X281102Y348427D01*
X282283Y348706D01*
X283479Y348503D01*
X284501Y347849D01*
X285187Y346849D01*
X285428Y345660D01*
X285428Y345495D01*
X285205Y344352D01*
X284535Y343340D01*
X284419Y343224D01*
X283563Y342622D01*
G37*
G36*
X702545Y225505D02*
X701356Y225264D01*
X601314Y225264D01*
X600238Y225460D01*
X599211Y226106D01*
X598517Y227101D01*
X598266Y228288D01*
X598498Y229478D01*
X599864Y232777D01*
X599864Y236183D01*
X598560Y239331D01*
X596151Y241740D01*
X593003Y243044D01*
X589597Y243044D01*
X586449Y241740D01*
X584040Y239331D01*
X582848Y236454D01*
X582221Y235499D01*
X581221Y234813D01*
X580032Y234572D01*
X547446Y234572D01*
X546370Y234768D01*
X545343Y235414D01*
X544649Y236409D01*
X544398Y237596D01*
X544630Y238786D01*
X545504Y240897D01*
X545504Y244503D01*
X544124Y247834D01*
X544102Y247857D01*
X543470Y248778D01*
X543210Y249963D01*
X543432Y251156D01*
X544102Y252167D01*
X553970Y262035D01*
X554937Y262687D01*
X556125Y262928D01*
X574429Y262928D01*
X576110Y263624D01*
X578029Y265543D01*
X578885Y266145D01*
X580063Y266434D01*
X581260Y266240D01*
X582287Y265594D01*
X582981Y264599D01*
X583232Y263412D01*
X583000Y262222D01*
X582736Y261583D01*
X582736Y258177D01*
X584040Y255029D01*
X586449Y252620D01*
X589597Y251316D01*
X593003Y251316D01*
X596151Y252620D01*
X598560Y255029D01*
X599864Y258177D01*
X599864Y261583D01*
X598560Y264731D01*
X596151Y267140D01*
X593003Y268444D01*
X589597Y268444D01*
X588958Y268180D01*
X587938Y267951D01*
X586739Y268135D01*
X585707Y268773D01*
X585005Y269762D01*
X584744Y270947D01*
X584967Y272140D01*
X585637Y273151D01*
X588309Y275823D01*
X589276Y276475D01*
X590464Y276716D01*
X593003Y276716D01*
X596151Y278020D01*
X598560Y280429D01*
X599864Y283577D01*
X599864Y286984D01*
X599399Y288106D01*
X599169Y289175D01*
X599372Y290371D01*
X600026Y291393D01*
X601026Y292079D01*
X602215Y292320D01*
X610018Y292320D01*
X611048Y292141D01*
X612085Y291511D01*
X612795Y290528D01*
X613065Y289345D01*
X612852Y288151D01*
X612190Y287134D01*
X611870Y286918D01*
X609016Y284064D01*
X607636Y280733D01*
X607636Y277127D01*
X609016Y273796D01*
X611566Y271246D01*
X614897Y269866D01*
X618503Y269866D01*
X621834Y271246D01*
X624384Y273796D01*
X625764Y277127D01*
X625764Y280733D01*
X624384Y284064D01*
X621605Y286843D01*
X621333Y287016D01*
X620615Y287994D01*
X620336Y289175D01*
X620539Y290371D01*
X621193Y291393D01*
X622194Y292079D01*
X623382Y292320D01*
X625301Y292320D01*
X626982Y293016D01*
X628876Y294910D01*
X629572Y296591D01*
X629572Y311395D01*
X629795Y312539D01*
X630465Y313550D01*
X632633Y315718D01*
X633555Y316350D01*
X634740Y316611D01*
X635932Y316388D01*
X636944Y315718D01*
X636966Y315696D01*
X640297Y314316D01*
X643903Y314316D01*
X647234Y315696D01*
X649784Y318246D01*
X651164Y321577D01*
X651164Y325183D01*
X649784Y328514D01*
X647234Y331064D01*
X645712Y331695D01*
X644793Y332288D01*
X644091Y333277D01*
X643830Y334462D01*
X644053Y335655D01*
X644723Y336666D01*
X652460Y344403D01*
X653427Y345055D01*
X654615Y345296D01*
X677343Y345296D01*
X679112Y346029D01*
X680132Y346257D01*
X681331Y346073D01*
X682364Y345435D01*
X683065Y344446D01*
X683326Y343261D01*
X683103Y342069D01*
X682433Y341057D01*
X679728Y338352D01*
X679264Y337232D01*
X679264Y331793D01*
X679076Y330740D01*
X678439Y329708D01*
X677449Y329006D01*
X676265Y328745D01*
X675072Y328968D01*
X674061Y329638D01*
X672634Y331064D01*
X669303Y332444D01*
X665697Y332444D01*
X662366Y331064D01*
X659816Y328514D01*
X658436Y325183D01*
X658436Y321577D01*
X659816Y318246D01*
X662366Y315696D01*
X665697Y314316D01*
X669303Y314316D01*
X672634Y315696D01*
X674885Y317947D01*
X675785Y318569D01*
X676968Y318839D01*
X678162Y318626D01*
X679179Y317964D01*
X679481Y317514D01*
X709854Y287142D01*
X710496Y286198D01*
X710747Y285011D01*
X710515Y283820D01*
X709236Y280733D01*
X709236Y277127D01*
X710616Y273796D01*
X713166Y271246D01*
X716497Y269866D01*
X720103Y269866D01*
X723434Y271246D01*
X725984Y273796D01*
X726615Y275318D01*
X727208Y276237D01*
X728197Y276939D01*
X729382Y277200D01*
X730575Y276977D01*
X731586Y276307D01*
X737646Y270248D01*
X738278Y269326D01*
X738538Y268141D01*
X738316Y266948D01*
X737646Y265937D01*
X736440Y264731D01*
X735136Y261583D01*
X735136Y259044D01*
X734913Y257900D01*
X734243Y256889D01*
X703511Y226157D01*
X702545Y225505D01*
G37*
%LPC*%
G36*
X691097Y269866D02*
X694703Y269866D01*
X698034Y271246D01*
X700584Y273796D01*
X701964Y277127D01*
X701964Y280733D01*
X700584Y284064D01*
X698034Y286614D01*
X694703Y287994D01*
X691097Y287994D01*
X687766Y286614D01*
X685216Y284064D01*
X683836Y280733D01*
X683836Y277127D01*
X685216Y273796D01*
X687766Y271246D01*
X691097Y269866D01*
G37*
G36*
X665697Y269866D02*
X669303Y269866D01*
X672634Y271246D01*
X675184Y273796D01*
X676564Y277127D01*
X676564Y280733D01*
X675184Y284064D01*
X672634Y286614D01*
X669303Y287994D01*
X665697Y287994D01*
X662366Y286614D01*
X659816Y284064D01*
X658436Y280733D01*
X658436Y277127D01*
X659816Y273796D01*
X662366Y271246D01*
X665697Y269866D01*
G37*
G36*
X640297Y269866D02*
X643903Y269866D01*
X647234Y271246D01*
X649784Y273796D01*
X651164Y277127D01*
X651164Y280733D01*
X649784Y284064D01*
X647234Y286614D01*
X643903Y287994D01*
X640297Y287994D01*
X636966Y286614D01*
X634416Y284064D01*
X633036Y280733D01*
X633036Y277127D01*
X634416Y273796D01*
X636966Y271246D01*
X640297Y269866D01*
G37*
%LPD*%
G36*
X250384Y224906D02*
X249205Y224619D01*
X248008Y224815D01*
X246982Y225462D01*
X246290Y226458D01*
X246041Y227645D01*
X245612Y294600D01*
X245834Y295763D01*
X246504Y296774D01*
X264937Y315207D01*
X265903Y315859D01*
X267092Y316100D01*
X269242Y316100D01*
X270923Y316796D01*
X292725Y338598D01*
X293602Y339210D01*
X294783Y339489D01*
X295979Y339286D01*
X297001Y338632D01*
X297687Y337632D01*
X297928Y336443D01*
X297928Y248056D01*
X297705Y246912D01*
X297035Y245901D01*
X295940Y244806D01*
X295040Y244184D01*
X293858Y243914D01*
X292663Y244127D01*
X291647Y244789D01*
X290969Y245795D01*
X290124Y247834D01*
X287574Y250384D01*
X284243Y251764D01*
X265557Y251764D01*
X262226Y250384D01*
X259676Y247834D01*
X258296Y244503D01*
X258296Y240897D01*
X259841Y237168D01*
X259965Y236987D01*
X260225Y235802D01*
X260003Y234610D01*
X259333Y233598D01*
X251244Y225510D01*
X250384Y224906D01*
G37*
%LPC*%
G36*
X265557Y284436D02*
X284243Y284436D01*
X287574Y285816D01*
X290124Y288366D01*
X291504Y291697D01*
X291504Y295303D01*
X290124Y298634D01*
X287574Y301184D01*
X284243Y302564D01*
X265557Y302564D01*
X262226Y301184D01*
X259676Y298634D01*
X258296Y295303D01*
X258296Y291697D01*
X259676Y288366D01*
X262226Y285816D01*
X265557Y284436D01*
G37*
G36*
X265557Y259036D02*
X284243Y259036D01*
X287574Y260416D01*
X290124Y262966D01*
X291504Y266297D01*
X291504Y269903D01*
X290124Y273234D01*
X287574Y275784D01*
X284243Y277164D01*
X265557Y277164D01*
X262226Y275784D01*
X259676Y273234D01*
X258296Y269903D01*
X258296Y266297D01*
X259676Y262966D01*
X262226Y260416D01*
X265557Y259036D01*
G37*
%LPD*%
G36*
X725679Y331138D02*
X724492Y330887D01*
X723302Y331119D01*
X721912Y331695D01*
X720993Y332288D01*
X720291Y333277D01*
X720030Y334462D01*
X720253Y335655D01*
X720923Y336666D01*
X722313Y338056D01*
X723190Y338668D01*
X724371Y338947D01*
X725567Y338744D01*
X726589Y338090D01*
X727275Y337090D01*
X727516Y335901D01*
X727516Y333935D01*
X727320Y332859D01*
X726674Y331832D01*
X725679Y331138D01*
G37*
G36*
X511300Y286201D02*
X510111Y285960D01*
X479734Y285960D01*
X478590Y286183D01*
X477579Y286853D01*
X470661Y293771D01*
X470000Y294760D01*
X469498Y295972D01*
X468006Y297464D01*
X466055Y298272D01*
X464266Y298272D01*
X463167Y298477D01*
X462145Y299131D01*
X461459Y300131D01*
X461218Y301320D01*
X461218Y301913D01*
X461441Y303057D01*
X462111Y304069D01*
X494963Y336921D01*
X495841Y337533D01*
X497022Y337813D01*
X498217Y337609D01*
X499239Y336955D01*
X499925Y335955D01*
X500167Y334766D01*
X500167Y309930D01*
X499935Y308764D01*
X499497Y307707D01*
X498887Y306770D01*
X497892Y306076D01*
X496705Y305825D01*
X496473Y305871D01*
X493854Y305871D01*
X491904Y305063D01*
X490411Y303570D01*
X489604Y301620D01*
X489604Y299509D01*
X490411Y297559D01*
X491904Y296067D01*
X493116Y295565D01*
X494105Y294904D01*
X494742Y294267D01*
X496422Y293571D01*
X509483Y293571D01*
X510605Y293357D01*
X511621Y292695D01*
X512299Y291689D01*
X512927Y290174D01*
X513157Y289105D01*
X512954Y287909D01*
X512300Y286887D01*
X511300Y286201D01*
G37*
G36*
X734875Y301705D02*
X733686Y301464D01*
X730815Y301464D01*
X729671Y301687D01*
X728660Y302357D01*
X720923Y310094D01*
X720301Y310994D01*
X720031Y312176D01*
X720244Y313371D01*
X720906Y314387D01*
X721912Y315065D01*
X723434Y315696D01*
X725984Y318246D01*
X727364Y321577D01*
X727364Y322170D01*
X727552Y323223D01*
X728189Y324255D01*
X729179Y324957D01*
X730363Y325217D01*
X731556Y324995D01*
X732567Y324325D01*
X736650Y320242D01*
X736682Y320221D01*
X736710Y320183D01*
X736729Y320163D01*
X736726Y320160D01*
X737384Y319232D01*
X737644Y318047D01*
X737422Y316855D01*
X736752Y315843D01*
X736440Y315531D01*
X735136Y312383D01*
X735136Y308977D01*
X736502Y305678D01*
X736733Y304609D01*
X736529Y303413D01*
X735875Y302391D01*
X734875Y301705D01*
G37*
G36*
X719350Y292807D02*
X718161Y292566D01*
X714313Y292566D01*
X713169Y292789D01*
X712158Y293459D01*
X695523Y310094D01*
X694901Y310994D01*
X694631Y312176D01*
X694844Y313371D01*
X695506Y314387D01*
X696512Y315065D01*
X698034Y315696D01*
X698057Y315718D01*
X698978Y316350D01*
X700163Y316611D01*
X701356Y316388D01*
X702367Y315718D01*
X704027Y314058D01*
X720316Y297769D01*
X720928Y296892D01*
X721207Y295711D01*
X721004Y294515D01*
X720350Y293493D01*
X719350Y292807D01*
G37*
G36*
X833613Y207113D02*
X832429Y206852D01*
X831236Y207075D01*
X830225Y207745D01*
X760777Y277193D01*
X760125Y278159D01*
X759884Y279348D01*
X759884Y290999D01*
X759188Y292680D01*
X750750Y301118D01*
X750718Y301139D01*
X750690Y301177D01*
X750671Y301197D01*
X750674Y301200D01*
X750016Y302128D01*
X749756Y303313D01*
X749978Y304505D01*
X750648Y305517D01*
X750960Y305829D01*
X751425Y306951D01*
X752018Y307870D01*
X753008Y308572D01*
X754192Y308832D01*
X755385Y308610D01*
X756396Y307940D01*
X834535Y229801D01*
X835187Y228834D01*
X835428Y227646D01*
X835428Y209900D01*
X835240Y208847D01*
X834603Y207815D01*
X833613Y207113D01*
G37*
G36*
X545335Y44813D02*
X544146Y44572D01*
X543156Y44572D01*
X542012Y44795D01*
X541001Y45465D01*
X497590Y88876D01*
X495909Y89572D01*
X461584Y89572D01*
X460440Y89795D01*
X459428Y90465D01*
X429611Y120283D01*
X428959Y121249D01*
X428718Y122438D01*
X428718Y133230D01*
X428022Y134911D01*
X422965Y139968D01*
X422313Y140934D01*
X422072Y142123D01*
X422072Y148507D01*
X422304Y149674D01*
X422806Y150886D01*
X422806Y152996D01*
X421998Y154947D01*
X420506Y156439D01*
X418555Y157247D01*
X416445Y157247D01*
X414494Y156439D01*
X413002Y154947D01*
X412194Y152996D01*
X412194Y150886D01*
X412696Y149674D01*
X412928Y148507D01*
X412928Y144823D01*
X412732Y143747D01*
X412086Y142719D01*
X411091Y142026D01*
X409904Y141775D01*
X408714Y142007D01*
X407713Y142421D01*
X341935Y142421D01*
X340881Y142609D01*
X339849Y143246D01*
X339147Y144236D01*
X338887Y145420D01*
X339109Y146613D01*
X339779Y147624D01*
X346451Y154296D01*
X347440Y154957D01*
X348652Y155459D01*
X350145Y156951D01*
X350952Y158902D01*
X350952Y161012D01*
X350145Y162963D01*
X348652Y164455D01*
X346702Y165263D01*
X344591Y165263D01*
X342641Y164455D01*
X341148Y162963D01*
X340646Y161751D01*
X339985Y160762D01*
X322537Y143314D01*
X321571Y142662D01*
X320382Y142421D01*
X311924Y142421D01*
X310780Y142644D01*
X309769Y143314D01*
X307637Y145446D01*
X306985Y146412D01*
X306744Y147601D01*
X306744Y165308D01*
X306729Y165378D01*
X306942Y166572D01*
X307604Y167589D01*
X308558Y168232D01*
X310074Y169747D01*
X310576Y170959D01*
X311236Y171948D01*
X311376Y172088D01*
X312072Y173768D01*
X312072Y184591D01*
X312295Y185735D01*
X312965Y186747D01*
X395443Y269225D01*
X396343Y269847D01*
X397526Y270117D01*
X398720Y269904D01*
X399737Y269242D01*
X400415Y268236D01*
X400548Y267915D01*
X402675Y265788D01*
X405455Y264636D01*
X420545Y264636D01*
X423325Y265788D01*
X425452Y267915D01*
X426604Y270695D01*
X426604Y273705D01*
X425767Y275726D01*
X425536Y276819D01*
X425749Y278014D01*
X426410Y279030D01*
X427416Y279708D01*
X427426Y279712D01*
X434928Y287214D01*
X435013Y287419D01*
X435673Y288407D01*
X446871Y299605D01*
X447748Y300217D01*
X448929Y300496D01*
X450125Y300293D01*
X451147Y299639D01*
X451833Y298639D01*
X452074Y297450D01*
X452074Y285630D01*
X452770Y283950D01*
X493915Y242805D01*
X494567Y241838D01*
X494808Y240649D01*
X494808Y104711D01*
X495504Y103030D01*
X546319Y52215D01*
X546961Y51270D01*
X547212Y50083D01*
X547194Y49991D01*
X547194Y47620D01*
X546989Y46521D01*
X546335Y45499D01*
X545335Y44813D01*
G37*
%LPC*%
G36*
X404023Y162242D02*
X406134Y162242D01*
X408084Y163050D01*
X409576Y164543D01*
X410078Y165755D01*
X410739Y166743D01*
X430657Y186661D01*
X431353Y188342D01*
X431353Y206412D01*
X431585Y207578D01*
X432087Y208790D01*
X432087Y210901D01*
X431279Y212851D01*
X429787Y214344D01*
X427836Y215152D01*
X425726Y215152D01*
X423775Y214344D01*
X422283Y212851D01*
X421475Y210901D01*
X421475Y208790D01*
X421977Y207578D01*
X422209Y206412D01*
X422209Y192407D01*
X421986Y191263D01*
X421316Y190252D01*
X404273Y173209D01*
X403285Y172548D01*
X402073Y172046D01*
X400580Y170554D01*
X399772Y168604D01*
X399772Y166493D01*
X400580Y164543D01*
X402073Y163050D01*
X404023Y162242D01*
G37*
%LPD*%
G36*
X733657Y285614D02*
X732473Y285353D01*
X731280Y285576D01*
X730269Y286246D01*
X729398Y287117D01*
X728786Y287994D01*
X728506Y289175D01*
X728710Y290371D01*
X729363Y291393D01*
X730364Y292079D01*
X731553Y292320D01*
X732785Y292320D01*
X733861Y292124D01*
X734888Y291478D01*
X735582Y290483D01*
X735833Y289296D01*
X735601Y288106D01*
X735240Y287234D01*
X734647Y286315D01*
X733657Y285614D01*
G37*
G36*
X548826Y270101D02*
X547644Y269831D01*
X546449Y270044D01*
X545433Y270706D01*
X544755Y271712D01*
X544386Y272602D01*
X544156Y273671D01*
X544359Y274867D01*
X545013Y275889D01*
X546013Y276575D01*
X547202Y276816D01*
X548461Y276816D01*
X549514Y276628D01*
X550546Y275991D01*
X551248Y275001D01*
X551508Y273817D01*
X551286Y272624D01*
X550616Y271613D01*
X549726Y270723D01*
X548826Y270101D01*
G37*
G36*
X510481Y263515D02*
X509297Y263255D01*
X508104Y263477D01*
X507093Y264147D01*
X499627Y271613D01*
X499015Y272490D01*
X498736Y273671D01*
X498939Y274867D01*
X499593Y275889D01*
X500594Y276575D01*
X501782Y276816D01*
X510598Y276816D01*
X511674Y276620D01*
X512701Y275974D01*
X513395Y274979D01*
X513646Y273792D01*
X513414Y272602D01*
X512296Y269903D01*
X512296Y266302D01*
X512108Y265249D01*
X511471Y264217D01*
X510481Y263515D01*
G37*
G36*
X486153Y266255D02*
X484969Y265994D01*
X483776Y266217D01*
X482765Y266887D01*
X478039Y271613D01*
X477427Y272490D01*
X477148Y273671D01*
X477351Y274867D01*
X478005Y275889D01*
X479005Y276575D01*
X480194Y276816D01*
X486923Y276816D01*
X487976Y276628D01*
X489008Y275991D01*
X489710Y275001D01*
X489970Y273817D01*
X489748Y272624D01*
X489078Y271613D01*
X488776Y271311D01*
X487968Y269360D01*
X487968Y269042D01*
X487780Y267989D01*
X487143Y266956D01*
X486153Y266255D01*
G37*
G36*
X734061Y18755D02*
X732872Y18514D01*
X662594Y18514D01*
X661450Y18737D01*
X660439Y19407D01*
X633777Y46069D01*
X633125Y47036D01*
X632884Y48224D01*
X632884Y93048D01*
X632188Y94728D01*
X623931Y102985D01*
X622251Y103681D01*
X613511Y103681D01*
X611831Y102985D01*
X599324Y90478D01*
X598402Y89846D01*
X597217Y89586D01*
X596025Y89808D01*
X595013Y90478D01*
X594847Y90644D01*
X587753Y90644D01*
X584253Y87144D01*
X583264Y86484D01*
X581990Y85956D01*
X568624Y72590D01*
X567928Y70909D01*
X567928Y55656D01*
X567705Y54512D01*
X567035Y53501D01*
X562536Y49002D01*
X561637Y48380D01*
X560454Y48110D01*
X559260Y48323D01*
X558243Y48985D01*
X557565Y49991D01*
X557304Y50621D01*
X557072Y51788D01*
X557072Y53409D01*
X556376Y55090D01*
X504845Y106621D01*
X504193Y107588D01*
X503952Y108776D01*
X503952Y148224D01*
X504140Y149277D01*
X504777Y150309D01*
X505767Y151011D01*
X506951Y151271D01*
X508144Y151049D01*
X509155Y150379D01*
X512126Y147409D01*
X512767Y146464D01*
X513018Y145278D01*
X512786Y144087D01*
X512296Y142903D01*
X512296Y139297D01*
X513676Y135966D01*
X516226Y133416D01*
X519557Y132036D01*
X538243Y132036D01*
X541574Y133416D01*
X544124Y135966D01*
X545504Y139297D01*
X545504Y142903D01*
X544124Y146234D01*
X541574Y148784D01*
X538243Y150164D01*
X523564Y150164D01*
X522420Y150387D01*
X521409Y151057D01*
X520233Y152233D01*
X519621Y153110D01*
X519342Y154291D01*
X519545Y155487D01*
X520199Y156509D01*
X521200Y157195D01*
X522388Y157436D01*
X538243Y157436D01*
X541574Y158816D01*
X544124Y161366D01*
X545504Y164697D01*
X545504Y168303D01*
X544124Y171634D01*
X541574Y174184D01*
X538243Y175564D01*
X519557Y175564D01*
X515786Y174002D01*
X514717Y173772D01*
X513521Y173975D01*
X512499Y174629D01*
X511813Y175629D01*
X511572Y176818D01*
X511572Y181582D01*
X511768Y182658D01*
X512414Y183685D01*
X513409Y184379D01*
X514596Y184630D01*
X515786Y184398D01*
X519557Y182836D01*
X538243Y182836D01*
X541574Y184216D01*
X544124Y186766D01*
X545589Y190301D01*
X545709Y190947D01*
X546363Y191969D01*
X547363Y192655D01*
X548552Y192896D01*
X581286Y192896D01*
X582362Y192700D01*
X583389Y192054D01*
X584083Y191059D01*
X584334Y189872D01*
X584102Y188682D01*
X582736Y185383D01*
X582736Y181977D01*
X584040Y178829D01*
X586449Y176420D01*
X589597Y175116D01*
X593003Y175116D01*
X596151Y176420D01*
X598560Y178829D01*
X599864Y181977D01*
X599864Y185383D01*
X598485Y188714D01*
X598254Y189783D01*
X598458Y190979D01*
X599111Y192001D01*
X600112Y192687D01*
X601301Y192928D01*
X707629Y192928D01*
X709310Y193624D01*
X730429Y214743D01*
X731285Y215345D01*
X732463Y215634D01*
X733660Y215440D01*
X734687Y214794D01*
X735381Y213799D01*
X735632Y212612D01*
X735400Y211422D01*
X735136Y210783D01*
X735136Y207377D01*
X736440Y204229D01*
X738849Y201820D01*
X741997Y200516D01*
X745403Y200516D01*
X748551Y201820D01*
X750960Y204229D01*
X752264Y207377D01*
X752264Y210783D01*
X750960Y213931D01*
X748500Y216392D01*
X747867Y217314D01*
X747607Y218499D01*
X747830Y219691D01*
X748500Y220702D01*
X756372Y228575D01*
X756836Y229695D01*
X756836Y260843D01*
X757024Y261897D01*
X757661Y262929D01*
X758651Y263631D01*
X759835Y263891D01*
X761028Y263669D01*
X762039Y262999D01*
X826915Y198123D01*
X827567Y197156D01*
X827808Y195967D01*
X827808Y156711D01*
X828504Y155030D01*
X838207Y145327D01*
X838819Y144450D01*
X839098Y143269D01*
X838895Y142073D01*
X838241Y141051D01*
X837241Y140365D01*
X836052Y140124D01*
X825088Y140124D01*
X823944Y140347D01*
X822933Y141017D01*
X802859Y161090D01*
X782247Y161090D01*
X762755Y141598D01*
X762755Y131367D01*
X762533Y130223D01*
X761863Y129212D01*
X749171Y116520D01*
X748227Y115878D01*
X747040Y115628D01*
X745849Y115859D01*
X745404Y116044D01*
X741997Y116044D01*
X738849Y114740D01*
X736440Y112331D01*
X735136Y109183D01*
X735136Y105777D01*
X736440Y102629D01*
X738849Y100220D01*
X741997Y98916D01*
X745403Y98916D01*
X748551Y100220D01*
X750960Y102629D01*
X752264Y105777D01*
X752264Y109184D01*
X752079Y109629D01*
X751848Y110747D01*
X752070Y111939D01*
X752740Y112951D01*
X757725Y117935D01*
X758602Y118547D01*
X759783Y118826D01*
X760979Y118623D01*
X762001Y117969D01*
X762687Y116969D01*
X762928Y115780D01*
X762928Y21562D01*
X762723Y20463D01*
X762069Y19441D01*
X761069Y18755D01*
X759880Y18514D01*
X754528Y18514D01*
X753474Y18702D01*
X752442Y19339D01*
X751741Y20329D01*
X751480Y21513D01*
X751703Y22706D01*
X752264Y23553D01*
X752264Y38951D01*
X751371Y39844D01*
X736029Y39844D01*
X735136Y38951D01*
X735136Y23562D01*
X735640Y22840D01*
X735919Y21659D01*
X735715Y20463D01*
X735062Y19441D01*
X734061Y18755D01*
G37*
%LPC*%
G36*
X741997Y175116D02*
X745403Y175116D01*
X748551Y176420D01*
X750960Y178829D01*
X752264Y181977D01*
X752264Y185383D01*
X750960Y188531D01*
X748551Y190940D01*
X745403Y192244D01*
X741997Y192244D01*
X738849Y190940D01*
X736440Y188531D01*
X735136Y185383D01*
X735136Y181977D01*
X736440Y178829D01*
X738849Y176420D01*
X741997Y175116D01*
G37*
G36*
X741997Y149716D02*
X745403Y149716D01*
X748551Y151020D01*
X750960Y153429D01*
X752264Y156577D01*
X752264Y159983D01*
X750960Y163131D01*
X748551Y165540D01*
X745403Y166844D01*
X741997Y166844D01*
X738849Y165540D01*
X736440Y163131D01*
X735136Y159983D01*
X735136Y156577D01*
X736440Y153429D01*
X738849Y151020D01*
X741997Y149716D01*
G37*
G36*
X589597Y149716D02*
X593003Y149716D01*
X596151Y151020D01*
X598560Y153429D01*
X599864Y156577D01*
X599864Y159983D01*
X598560Y163131D01*
X596151Y165540D01*
X593003Y166844D01*
X589597Y166844D01*
X586449Y165540D01*
X584040Y163131D01*
X582736Y159983D01*
X582736Y156577D01*
X584040Y153429D01*
X586449Y151020D01*
X589597Y149716D01*
G37*
G36*
X741997Y124316D02*
X745403Y124316D01*
X748551Y125620D01*
X750960Y128029D01*
X752264Y131177D01*
X752264Y134583D01*
X750960Y137731D01*
X748551Y140140D01*
X745403Y141444D01*
X741997Y141444D01*
X738849Y140140D01*
X736440Y137731D01*
X735136Y134583D01*
X735136Y131177D01*
X736440Y128029D01*
X738849Y125620D01*
X741997Y124316D01*
G37*
G36*
X589597Y124316D02*
X593003Y124316D01*
X596151Y125620D01*
X598560Y128029D01*
X599864Y131177D01*
X599864Y134583D01*
X598560Y137731D01*
X596151Y140140D01*
X593003Y141444D01*
X589597Y141444D01*
X586449Y140140D01*
X584040Y137731D01*
X582736Y134583D01*
X582736Y131177D01*
X584040Y128029D01*
X586449Y125620D01*
X589597Y124316D01*
G37*
G36*
X519557Y106636D02*
X538243Y106636D01*
X541574Y108016D01*
X544124Y110566D01*
X545504Y113897D01*
X545504Y117503D01*
X544124Y120834D01*
X541574Y123384D01*
X538243Y124764D01*
X519557Y124764D01*
X516226Y123384D01*
X513676Y120834D01*
X512296Y117503D01*
X512296Y113897D01*
X513676Y110566D01*
X516226Y108016D01*
X519557Y106636D01*
G37*
G36*
X589597Y98916D02*
X593003Y98916D01*
X596151Y100220D01*
X598560Y102629D01*
X599864Y105777D01*
X599864Y109183D01*
X598560Y112331D01*
X596151Y114740D01*
X593003Y116044D01*
X589597Y116044D01*
X586449Y114740D01*
X584040Y112331D01*
X582736Y109183D01*
X582736Y105777D01*
X584040Y102629D01*
X586449Y100220D01*
X589597Y98916D01*
G37*
G36*
X741997Y73516D02*
X745403Y73516D01*
X748551Y74820D01*
X750960Y77229D01*
X752264Y80377D01*
X752264Y83783D01*
X750960Y86931D01*
X748551Y89340D01*
X745403Y90644D01*
X741997Y90644D01*
X738849Y89340D01*
X736440Y86931D01*
X735136Y83783D01*
X735136Y80377D01*
X736440Y77229D01*
X738849Y74820D01*
X741997Y73516D01*
G37*
G36*
X741997Y48116D02*
X745403Y48116D01*
X748551Y49420D01*
X750960Y51829D01*
X752264Y54977D01*
X752264Y58383D01*
X750960Y61531D01*
X748551Y63940D01*
X745403Y65244D01*
X741997Y65244D01*
X738849Y63940D01*
X736440Y61531D01*
X735136Y58383D01*
X735136Y54977D01*
X736440Y51829D01*
X738849Y49420D01*
X741997Y48116D01*
G37*
%LPD*%
G36*
X508278Y228078D02*
X507097Y227799D01*
X505901Y228002D01*
X504879Y228656D01*
X504193Y229657D01*
X503952Y230845D01*
X503952Y244715D01*
X503256Y246396D01*
X491856Y257796D01*
X491244Y258673D01*
X490965Y259854D01*
X491168Y261050D01*
X491822Y262072D01*
X492822Y262758D01*
X494011Y262999D01*
X494047Y262999D01*
X495191Y262776D01*
X496202Y262106D01*
X506196Y252112D01*
X507877Y251416D01*
X510598Y251416D01*
X511674Y251220D01*
X512701Y250574D01*
X513395Y249579D01*
X513646Y248392D01*
X513414Y247202D01*
X512296Y244503D01*
X512296Y240897D01*
X513676Y237566D01*
X513698Y237544D01*
X514330Y236622D01*
X514591Y235437D01*
X514368Y234244D01*
X513698Y233233D01*
X509155Y228690D01*
X508278Y228078D01*
G37*
G36*
X748903Y242598D02*
X747716Y242347D01*
X746526Y242579D01*
X745404Y243044D01*
X741997Y243044D01*
X741358Y242780D01*
X740338Y242551D01*
X739139Y242735D01*
X738107Y243373D01*
X737405Y244362D01*
X737144Y245547D01*
X737367Y246740D01*
X738037Y247751D01*
X740709Y250423D01*
X741676Y251075D01*
X742864Y251316D01*
X745404Y251316D01*
X746526Y251781D01*
X747595Y252011D01*
X748791Y251808D01*
X749813Y251154D01*
X750499Y250154D01*
X750740Y248965D01*
X750740Y245395D01*
X750544Y244319D01*
X749898Y243292D01*
X748903Y242598D01*
G37*
G36*
X704753Y202313D02*
X703564Y202072D01*
X602228Y202072D01*
X601152Y202268D01*
X600125Y202914D01*
X599431Y203909D01*
X599181Y205096D01*
X599412Y206286D01*
X599864Y207377D01*
X599864Y210784D01*
X599399Y211906D01*
X599169Y212975D01*
X599372Y214171D01*
X600026Y215193D01*
X601026Y215879D01*
X602215Y216120D01*
X705421Y216120D01*
X707102Y216816D01*
X730429Y240143D01*
X731285Y240745D01*
X732463Y241034D01*
X733660Y240840D01*
X734687Y240194D01*
X735381Y239199D01*
X735632Y238012D01*
X735400Y236822D01*
X735136Y236183D01*
X735136Y233644D01*
X734913Y232500D01*
X734243Y231489D01*
X705719Y202965D01*
X704753Y202313D01*
G37*
G36*
X295040Y218784D02*
X293858Y218514D01*
X292663Y218727D01*
X291647Y219389D01*
X290969Y220395D01*
X289959Y222832D01*
X289835Y223013D01*
X289575Y224198D01*
X289797Y225390D01*
X290467Y226402D01*
X300345Y236279D01*
X301222Y236891D01*
X302403Y237170D01*
X303599Y236967D01*
X304621Y236313D01*
X305307Y235313D01*
X305548Y234124D01*
X305548Y230276D01*
X305325Y229132D01*
X304655Y228121D01*
X295940Y219406D01*
X295040Y218784D01*
G37*
G36*
X277425Y226605D02*
X276236Y226364D01*
X272388Y226364D01*
X271335Y226552D01*
X270303Y227189D01*
X269601Y228179D01*
X269341Y229363D01*
X269563Y230556D01*
X270233Y231567D01*
X271409Y232743D01*
X272376Y233395D01*
X273564Y233636D01*
X277412Y233636D01*
X278465Y233448D01*
X279497Y232811D01*
X280199Y231821D01*
X280459Y230637D01*
X280237Y229444D01*
X279567Y228433D01*
X278391Y227257D01*
X277425Y226605D01*
G37*
G36*
X515786Y199402D02*
X514717Y199172D01*
X513521Y199375D01*
X512499Y200029D01*
X511813Y201029D01*
X511572Y202218D01*
X511572Y206982D01*
X511768Y208058D01*
X512414Y209085D01*
X513409Y209779D01*
X514596Y210030D01*
X515786Y209798D01*
X519557Y208236D01*
X538243Y208236D01*
X541574Y209616D01*
X543794Y211835D01*
X544760Y212487D01*
X545949Y212728D01*
X579688Y212728D01*
X580787Y212523D01*
X581809Y211869D01*
X582495Y210869D01*
X582736Y209680D01*
X582736Y207377D01*
X583201Y206254D01*
X583431Y205185D01*
X583228Y203989D01*
X582574Y202967D01*
X581574Y202281D01*
X580385Y202040D01*
X533559Y202040D01*
X531521Y201196D01*
X530355Y200964D01*
X519557Y200964D01*
X515786Y199402D01*
G37*
G36*
X259898Y197522D02*
X258717Y197243D01*
X257521Y197446D01*
X256499Y198100D01*
X255813Y199100D01*
X255572Y200289D01*
X255572Y208911D01*
X255760Y209964D01*
X256397Y210997D01*
X257387Y211698D01*
X258571Y211959D01*
X259764Y211736D01*
X260775Y211066D01*
X262226Y209616D01*
X265557Y208236D01*
X277412Y208236D01*
X278465Y208048D01*
X279497Y207411D01*
X280199Y206421D01*
X280459Y205237D01*
X280237Y204044D01*
X279567Y203033D01*
X278391Y201857D01*
X277425Y201205D01*
X276236Y200964D01*
X265557Y200964D01*
X262226Y199584D01*
X260775Y198134D01*
X259898Y197522D01*
G37*
G36*
X257787Y158025D02*
X256598Y157784D01*
X249517Y157784D01*
X248437Y157982D01*
X247411Y158629D01*
X246718Y159625D01*
X246469Y160812D01*
X246334Y181954D01*
X246521Y183026D01*
X247159Y184059D01*
X248148Y184760D01*
X249333Y185021D01*
X250526Y184798D01*
X251537Y184128D01*
X259698Y175967D01*
X260330Y175045D01*
X260591Y173860D01*
X260368Y172668D01*
X259698Y171657D01*
X259676Y171634D01*
X258296Y168303D01*
X258296Y164697D01*
X259414Y161998D01*
X259644Y160929D01*
X259441Y159733D01*
X258787Y158711D01*
X257787Y158025D01*
G37*
G36*
X854478Y148128D02*
X853289Y147887D01*
X849841Y147887D01*
X848697Y148110D01*
X847686Y148780D01*
X837845Y158621D01*
X837193Y159588D01*
X836952Y160776D01*
X836952Y164224D01*
X837140Y165277D01*
X837777Y166309D01*
X838767Y167011D01*
X839951Y167271D01*
X841144Y167049D01*
X842155Y166379D01*
X855444Y153090D01*
X856056Y152213D01*
X856335Y151032D01*
X856132Y149836D01*
X855478Y148814D01*
X854478Y148128D01*
G37*
G36*
X295785Y154106D02*
X294601Y153846D01*
X293408Y154068D01*
X292397Y154738D01*
X290102Y157033D01*
X289470Y157955D01*
X289210Y159140D01*
X289432Y160332D01*
X290102Y161343D01*
X290124Y161366D01*
X290755Y162888D01*
X291348Y163807D01*
X292337Y164509D01*
X293522Y164770D01*
X294715Y164547D01*
X295726Y163877D01*
X296707Y162896D01*
X297359Y161930D01*
X297600Y160741D01*
X297600Y156893D01*
X297412Y155840D01*
X296775Y154808D01*
X295785Y154106D01*
G37*
G36*
X250968Y133889D02*
X249789Y133603D01*
X248592Y133798D01*
X247566Y134446D01*
X246873Y135442D01*
X246624Y136629D01*
X246567Y145572D01*
X246772Y146691D01*
X247425Y147713D01*
X248426Y148399D01*
X249615Y148640D01*
X256111Y148640D01*
X257187Y148444D01*
X258214Y147798D01*
X258908Y146803D01*
X259159Y145616D01*
X258927Y144426D01*
X258296Y142903D01*
X258296Y142224D01*
X258073Y141080D01*
X257403Y140069D01*
X251827Y134493D01*
X250968Y133889D01*
G37*
G36*
X808257Y129022D02*
X807068Y128781D01*
X806930Y128781D01*
X805832Y128986D01*
X804810Y129639D01*
X804124Y130640D01*
X803882Y131829D01*
X803882Y134793D01*
X804070Y135847D01*
X804708Y136879D01*
X805697Y137581D01*
X806882Y137841D01*
X808074Y137619D01*
X809086Y136949D01*
X809223Y136811D01*
X809875Y135845D01*
X810116Y134656D01*
X810116Y131829D01*
X809911Y130730D01*
X809257Y129708D01*
X808257Y129022D01*
G37*
G36*
X309449Y40285D02*
X308260Y40043D01*
X269780Y40043D01*
X268749Y40223D01*
X267712Y40852D01*
X267002Y41836D01*
X266732Y43018D01*
X266945Y44213D01*
X267607Y45229D01*
X268232Y45650D01*
X305554Y82972D01*
X306543Y83633D01*
X307755Y84135D01*
X309247Y85628D01*
X310055Y87578D01*
X310055Y89689D01*
X309247Y91639D01*
X307755Y93132D01*
X305805Y93939D01*
X303205Y93939D01*
X303155Y93928D01*
X303091Y93939D01*
X303087Y93939D01*
X303087Y93940D01*
X301959Y94132D01*
X300937Y94786D01*
X300251Y95786D01*
X300079Y96633D01*
X299202Y98751D01*
X297709Y100244D01*
X295759Y101051D01*
X293648Y101051D01*
X291698Y100244D01*
X290205Y98751D01*
X289703Y97539D01*
X289043Y96550D01*
X257698Y65206D01*
X256732Y64554D01*
X255543Y64313D01*
X250116Y64313D01*
X249036Y64511D01*
X248010Y65158D01*
X247317Y66154D01*
X247068Y67341D01*
X246987Y80039D01*
X247210Y81203D01*
X247880Y82214D01*
X271409Y105743D01*
X272376Y106395D01*
X273564Y106636D01*
X284243Y106636D01*
X287574Y108016D01*
X290124Y110566D01*
X291504Y113897D01*
X291504Y117503D01*
X289959Y121232D01*
X289835Y121413D01*
X289575Y122598D01*
X289797Y123790D01*
X290467Y124802D01*
X298428Y132762D01*
X299307Y134884D01*
X299900Y135803D01*
X300889Y136505D01*
X302074Y136765D01*
X303267Y136543D01*
X304278Y135873D01*
X306178Y133973D01*
X307858Y133277D01*
X403647Y133277D01*
X404791Y133054D01*
X405802Y132384D01*
X407171Y131016D01*
X407803Y130094D01*
X408063Y128909D01*
X407841Y127717D01*
X407171Y126705D01*
X402753Y122287D01*
X402057Y120607D01*
X402057Y101845D01*
X401869Y100791D01*
X401231Y99759D01*
X400242Y99057D01*
X399057Y98797D01*
X397865Y99019D01*
X396853Y99689D01*
X395410Y101133D01*
X393460Y101940D01*
X391349Y101940D01*
X390457Y101571D01*
X389388Y101340D01*
X388192Y101544D01*
X387170Y102197D01*
X386484Y103198D01*
X386243Y104387D01*
X386243Y106046D01*
X385435Y107997D01*
X383942Y109489D01*
X381992Y110297D01*
X379881Y110297D01*
X377931Y109489D01*
X376438Y107997D01*
X375936Y106785D01*
X375276Y105796D01*
X310416Y40936D01*
X309449Y40285D01*
G37*
G36*
X828728Y123522D02*
X827539Y123281D01*
X826760Y123281D01*
X825661Y123486D01*
X824639Y124139D01*
X823953Y125140D01*
X823712Y126329D01*
X823712Y127888D01*
X822819Y128781D01*
X822308Y128781D01*
X821209Y128986D01*
X820187Y129639D01*
X819501Y130640D01*
X819260Y131829D01*
X819260Y132028D01*
X819465Y133127D01*
X820119Y134149D01*
X821119Y134835D01*
X822308Y135076D01*
X833239Y135076D01*
X834292Y134888D01*
X835324Y134251D01*
X836026Y133261D01*
X836286Y132077D01*
X836064Y130884D01*
X835394Y129873D01*
X829695Y124174D01*
X828728Y123522D01*
G37*
G36*
X869433Y101230D02*
X868249Y100969D01*
X867056Y101192D01*
X866045Y101862D01*
X854488Y113419D01*
X853836Y114385D01*
X853595Y115574D01*
X853595Y129861D01*
X853783Y130914D01*
X854420Y131946D01*
X855410Y132648D01*
X856594Y132908D01*
X857787Y132686D01*
X858798Y132016D01*
X859690Y131124D01*
X861370Y130428D01*
X868409Y130428D01*
X870218Y131177D01*
X871384Y131409D01*
X879757Y131409D01*
X880856Y131204D01*
X881878Y130550D01*
X882564Y129550D01*
X882805Y128361D01*
X882805Y115574D01*
X882582Y114430D01*
X881912Y113419D01*
X870355Y101862D01*
X869433Y101230D01*
G37*
G36*
X251193Y98715D02*
X250014Y98428D01*
X248817Y98624D01*
X247791Y99271D01*
X247099Y100267D01*
X246850Y101454D01*
X246761Y115214D01*
X246984Y116377D01*
X247654Y117388D01*
X254905Y124639D01*
X255760Y125241D01*
X256938Y125529D01*
X257647Y125415D01*
X257529Y125952D01*
X257751Y127144D01*
X258421Y128155D01*
X261815Y131549D01*
X262759Y132191D01*
X263946Y132442D01*
X265137Y132210D01*
X265557Y132036D01*
X277412Y132036D01*
X278465Y131848D01*
X279497Y131211D01*
X280199Y130221D01*
X280459Y129037D01*
X280237Y127844D01*
X279567Y126833D01*
X278391Y125657D01*
X277425Y125005D01*
X276236Y124764D01*
X265557Y124764D01*
X261743Y123184D01*
X260722Y122956D01*
X259989Y123068D01*
X260108Y122508D01*
X259876Y121317D01*
X258296Y117503D01*
X258296Y113897D01*
X259841Y110168D01*
X259965Y109987D01*
X260225Y108802D01*
X260003Y107610D01*
X259333Y106598D01*
X252053Y99319D01*
X251193Y98715D01*
G37*
G36*
X811272Y10401D02*
X810083Y10160D01*
X775854Y10160D01*
X774755Y10365D01*
X773733Y11019D01*
X773047Y12019D01*
X772806Y13208D01*
X772806Y14997D01*
X772304Y16209D01*
X772072Y17376D01*
X772072Y119344D01*
X772295Y120488D01*
X772965Y121499D01*
X774727Y123262D01*
X775486Y125093D01*
X775611Y125795D01*
X776249Y126828D01*
X777238Y127529D01*
X778423Y127790D01*
X779615Y127567D01*
X780627Y126897D01*
X781335Y126189D01*
X781986Y125223D01*
X782228Y124034D01*
X782228Y46358D01*
X782924Y44678D01*
X812238Y15363D01*
X812850Y14486D01*
X813129Y13305D01*
X812926Y12109D01*
X812272Y11087D01*
X811272Y10401D01*
G37*
G36*
X551241Y18021D02*
X550052Y17780D01*
X327375Y17780D01*
X326321Y17968D01*
X325289Y18605D01*
X324587Y19595D01*
X324327Y20779D01*
X324549Y21972D01*
X325219Y22983D01*
X393209Y90973D01*
X394198Y91634D01*
X395410Y92136D01*
X396853Y93579D01*
X397731Y94191D01*
X398911Y94470D01*
X400107Y94267D01*
X401129Y93613D01*
X401815Y92613D01*
X402057Y91424D01*
X402057Y58285D01*
X401825Y57119D01*
X401323Y55907D01*
X401323Y53796D01*
X402130Y51846D01*
X403623Y50353D01*
X405573Y49545D01*
X407684Y49545D01*
X409634Y50353D01*
X411127Y51846D01*
X411935Y53796D01*
X411935Y55907D01*
X411433Y57119D01*
X411201Y58285D01*
X411201Y116541D01*
X411423Y117685D01*
X412093Y118696D01*
X414371Y120974D01*
X415248Y121586D01*
X416429Y121865D01*
X417625Y121661D01*
X418647Y121008D01*
X419332Y120007D01*
X419574Y118818D01*
X419574Y118372D01*
X420270Y116692D01*
X455837Y81124D01*
X457518Y80428D01*
X491844Y80428D01*
X492988Y80205D01*
X493999Y79535D01*
X537410Y36124D01*
X539091Y35428D01*
X561258Y35428D01*
X561520Y35487D01*
X562719Y35302D01*
X563751Y34665D01*
X564453Y33676D01*
X564714Y32491D01*
X564491Y31298D01*
X563821Y30287D01*
X552207Y18673D01*
X551241Y18021D01*
G37*
G36*
X829226Y104541D02*
X828038Y104300D01*
X826760Y104300D01*
X825661Y104505D01*
X824639Y105159D01*
X823953Y106159D01*
X823712Y107348D01*
X823712Y111727D01*
X823606Y112208D01*
X823712Y112776D01*
X823712Y115185D01*
X823917Y116284D01*
X824571Y117305D01*
X825571Y117991D01*
X826760Y118233D01*
X829783Y118233D01*
X830882Y118028D01*
X831904Y117374D01*
X832590Y116374D01*
X832831Y115185D01*
X832831Y109094D01*
X832608Y107950D01*
X831938Y106938D01*
X830193Y105193D01*
X829226Y104541D01*
G37*
G36*
X845729Y66924D02*
X844548Y66645D01*
X843352Y66849D01*
X842330Y67502D01*
X841644Y68503D01*
X841403Y69692D01*
X841403Y111885D01*
X841608Y112984D01*
X842262Y114006D01*
X843262Y114692D01*
X844451Y114933D01*
X844572Y114933D01*
X845716Y114710D01*
X846727Y114040D01*
X861583Y99184D01*
X862235Y98218D01*
X862476Y97029D01*
X862476Y77308D01*
X862253Y76164D01*
X861583Y75153D01*
X858687Y72257D01*
X857721Y71605D01*
X856532Y71364D01*
X852785Y71364D01*
X848771Y69701D01*
X846606Y67536D01*
X845729Y66924D01*
G37*
G36*
X824374Y70117D02*
X823305Y69886D01*
X822109Y70090D01*
X821087Y70743D01*
X820401Y71744D01*
X820160Y72933D01*
X820160Y92685D01*
X820365Y93784D01*
X821019Y94805D01*
X822019Y95491D01*
X822720Y95634D01*
X823809Y96722D01*
X823917Y97303D01*
X824571Y98325D01*
X825571Y99011D01*
X826760Y99252D01*
X831495Y99252D01*
X832029Y99625D01*
X833210Y99904D01*
X834406Y99701D01*
X835428Y99047D01*
X836114Y98046D01*
X836355Y96858D01*
X836355Y74010D01*
X836159Y72934D01*
X835513Y71907D01*
X834518Y71213D01*
X833331Y70962D01*
X832141Y71194D01*
X831731Y71364D01*
X827385Y71364D01*
X824374Y70117D01*
G37*
G36*
X809201Y44864D02*
X808017Y44604D01*
X806824Y44827D01*
X805813Y45496D01*
X804775Y46534D01*
X804124Y47501D01*
X803882Y48689D01*
X803882Y92685D01*
X804087Y93784D01*
X804741Y94805D01*
X805742Y95491D01*
X806930Y95733D01*
X807968Y95733D01*
X809067Y95528D01*
X810089Y94874D01*
X810775Y93874D01*
X811016Y92685D01*
X811016Y47652D01*
X810828Y46598D01*
X810191Y45566D01*
X809201Y44864D01*
G37*
G36*
X885664Y71070D02*
X884478Y70819D01*
X883287Y71051D01*
X882531Y71364D01*
X878468Y71364D01*
X877324Y71587D01*
X876313Y72257D01*
X873417Y75153D01*
X872765Y76119D01*
X872524Y77308D01*
X872524Y82748D01*
X872712Y83801D01*
X873349Y84833D01*
X874339Y85535D01*
X875523Y85796D01*
X876716Y85573D01*
X877727Y84903D01*
X886609Y76022D01*
X887210Y75166D01*
X887499Y73988D01*
X887305Y72791D01*
X886660Y71764D01*
X885664Y71070D01*
G37*
G36*
X613549Y64645D02*
X612529Y64416D01*
X611330Y64600D01*
X610297Y65238D01*
X609596Y66227D01*
X609335Y67412D01*
X609558Y68604D01*
X610228Y69616D01*
X618537Y77925D01*
X619414Y78537D01*
X620595Y78816D01*
X621791Y78613D01*
X622813Y77959D01*
X623499Y76959D01*
X623740Y75770D01*
X623740Y67595D01*
X623544Y66519D01*
X622898Y65492D01*
X621903Y64798D01*
X620716Y64547D01*
X619526Y64779D01*
X618404Y65244D01*
X614997Y65244D01*
X613549Y64645D01*
G37*
G36*
X581398Y63279D02*
X580217Y62999D01*
X579021Y63203D01*
X577999Y63856D01*
X577313Y64857D01*
X577072Y66046D01*
X577072Y66844D01*
X577295Y67988D01*
X577965Y68999D01*
X582962Y73996D01*
X583884Y74628D01*
X585069Y74889D01*
X586261Y74666D01*
X587273Y73996D01*
X587753Y73516D01*
X595369Y73516D01*
X596445Y73320D01*
X597472Y72674D01*
X598166Y71679D01*
X598417Y70492D01*
X598340Y70097D01*
X598340Y68292D01*
X598135Y67193D01*
X597481Y66171D01*
X596481Y65485D01*
X595292Y65244D01*
X583629Y65244D01*
X582275Y63891D01*
X581398Y63279D01*
G37*
G36*
X868914Y63509D02*
X867731Y63240D01*
X866537Y63453D01*
X865520Y64114D01*
X864842Y65120D01*
X864147Y66798D01*
X863731Y67405D01*
X863471Y68590D01*
X863693Y69782D01*
X864363Y70794D01*
X865345Y71775D01*
X866267Y72407D01*
X867451Y72668D01*
X868644Y72445D01*
X869655Y71775D01*
X870795Y70636D01*
X871427Y69714D01*
X871687Y68529D01*
X871465Y67336D01*
X871270Y67042D01*
X870474Y65120D01*
X869897Y64219D01*
X868914Y63509D01*
G37*
G36*
X843514Y38109D02*
X842331Y37840D01*
X841137Y38053D01*
X840120Y38714D01*
X839442Y39720D01*
X838817Y41229D01*
X835745Y44301D01*
X834236Y44926D01*
X833335Y45503D01*
X832625Y46486D01*
X832356Y47669D01*
X832569Y48863D01*
X833230Y49880D01*
X834236Y50558D01*
X835745Y51183D01*
X838817Y54255D01*
X839442Y55764D01*
X840019Y56665D01*
X841002Y57375D01*
X842185Y57644D01*
X843379Y57431D01*
X844396Y56770D01*
X845074Y55764D01*
X845699Y54255D01*
X848771Y51183D01*
X850280Y50558D01*
X851181Y49981D01*
X851891Y48998D01*
X852160Y47815D01*
X851947Y46621D01*
X851286Y45604D01*
X850280Y44926D01*
X848771Y44301D01*
X845699Y41229D01*
X845074Y39720D01*
X844497Y38819D01*
X843514Y38109D01*
G37*
G36*
X868914Y38109D02*
X867731Y37840D01*
X866537Y38053D01*
X865520Y38714D01*
X864842Y39720D01*
X864217Y41229D01*
X861145Y44301D01*
X859636Y44926D01*
X858735Y45503D01*
X858025Y46486D01*
X857756Y47669D01*
X857969Y48863D01*
X858630Y49880D01*
X859636Y50558D01*
X861145Y51183D01*
X864217Y54255D01*
X864842Y55764D01*
X865419Y56665D01*
X866402Y57375D01*
X867585Y57644D01*
X868779Y57431D01*
X869796Y56770D01*
X870474Y55764D01*
X871099Y54255D01*
X874171Y51183D01*
X875680Y50558D01*
X876581Y49981D01*
X877291Y48998D01*
X877560Y47815D01*
X877347Y46621D01*
X876686Y45604D01*
X875680Y44926D01*
X874171Y44301D01*
X871099Y41229D01*
X870474Y39720D01*
X869897Y38819D01*
X868914Y38109D01*
G37*
G36*
X894314Y38109D02*
X893131Y37840D01*
X891937Y38053D01*
X890920Y38714D01*
X890242Y39720D01*
X889617Y41229D01*
X886545Y44301D01*
X885036Y44926D01*
X884135Y45503D01*
X883425Y46486D01*
X883156Y47669D01*
X883369Y48863D01*
X884030Y49880D01*
X885036Y50558D01*
X886545Y51183D01*
X889617Y54255D01*
X890242Y55764D01*
X890819Y56665D01*
X891802Y57375D01*
X892985Y57644D01*
X894179Y57431D01*
X895196Y56770D01*
X895874Y55764D01*
X896499Y54255D01*
X899571Y51183D01*
X901080Y50558D01*
X901981Y49981D01*
X902691Y48998D01*
X902960Y47815D01*
X902747Y46621D01*
X902086Y45604D01*
X901080Y44926D01*
X899571Y44301D01*
X896499Y41229D01*
X895874Y39720D01*
X895297Y38819D01*
X894314Y38109D01*
G37*
G36*
X622733Y32304D02*
X621566Y32072D01*
X602278Y32072D01*
X601157Y32286D01*
X600140Y32948D01*
X599462Y33954D01*
X598498Y36282D01*
X598267Y37351D01*
X598471Y38547D01*
X599125Y39569D01*
X600125Y40255D01*
X600979Y40428D01*
X602824Y41192D01*
X606788Y45156D01*
X607540Y46971D01*
X607680Y47742D01*
X608326Y48769D01*
X609321Y49463D01*
X610508Y49714D01*
X611698Y49482D01*
X614997Y48116D01*
X618404Y48116D01*
X619526Y48581D01*
X620595Y48811D01*
X621791Y48608D01*
X622813Y47954D01*
X623499Y46954D01*
X623740Y45765D01*
X623740Y44159D01*
X624436Y42478D01*
X628967Y37947D01*
X629569Y37092D01*
X629857Y35913D01*
X629664Y34716D01*
X629018Y33689D01*
X628023Y32995D01*
X626836Y32744D01*
X626517Y32806D01*
X623945Y32806D01*
X622733Y32304D01*
G37*
G36*
X650585Y10401D02*
X649396Y10160D01*
X602215Y10160D01*
X601139Y10356D01*
X600112Y11002D01*
X599418Y11997D01*
X599167Y13184D01*
X599399Y14374D01*
X599864Y15497D01*
X599864Y19880D01*
X600069Y20979D01*
X600723Y22001D01*
X601723Y22687D01*
X602912Y22928D01*
X621566Y22928D01*
X622733Y22696D01*
X623945Y22194D01*
X626055Y22194D01*
X628006Y23002D01*
X629498Y24494D01*
X630306Y26445D01*
X630306Y28904D01*
X630247Y29166D01*
X630432Y30365D01*
X631069Y31397D01*
X632058Y32099D01*
X633243Y32360D01*
X634436Y32137D01*
X635447Y31467D01*
X651551Y15363D01*
X652163Y14486D01*
X652442Y13305D01*
X652239Y12109D01*
X651585Y11087D01*
X650585Y10401D01*
G37*
G36*
X581574Y10401D02*
X580385Y10160D01*
X563984Y10160D01*
X562931Y10348D01*
X561899Y10985D01*
X561197Y11975D01*
X560937Y13159D01*
X561159Y14352D01*
X561829Y15363D01*
X577533Y31067D01*
X578410Y31679D01*
X579591Y31958D01*
X580787Y31755D01*
X581809Y31101D01*
X582495Y30101D01*
X582736Y28912D01*
X582736Y15497D01*
X583201Y14374D01*
X583431Y13305D01*
X583228Y12109D01*
X582574Y11087D01*
X581574Y10401D01*
G37*
G36*
X851157Y18265D02*
X849968Y18024D01*
X846121Y18024D01*
X845068Y18212D01*
X844035Y18849D01*
X843334Y19839D01*
X843073Y21023D01*
X843296Y22216D01*
X843966Y23227D01*
X845740Y25002D01*
X846684Y25643D01*
X847871Y25894D01*
X849062Y25662D01*
X851782Y24536D01*
X852701Y23942D01*
X853403Y22953D01*
X853664Y21768D01*
X853441Y20576D01*
X852771Y19564D01*
X852124Y18917D01*
X851157Y18265D01*
G37*
D10*
X508700Y613200D03*
X508700Y596200D03*
D11*
X430351Y534211D03*
X473351Y534211D03*
D12*
X661200Y536200D03*
X678200Y536200D03*
D10*
X609200Y598700D03*
X609200Y615700D03*
D13*
X559700Y582840D03*
X559700Y625840D03*
D12*
X310833Y436578D03*
X327833Y436578D03*
X310833Y410334D03*
X327833Y410334D03*
D10*
X120801Y323533D03*
X120801Y340533D03*
D12*
X182900Y155700D03*
X199900Y155700D03*
D13*
X202900Y356900D03*
X202900Y399900D03*
D10*
X814688Y103757D03*
X814688Y120757D03*
D11*
X702160Y489400D03*
X659160Y489400D03*
D13*
X264900Y459300D03*
X264900Y502300D03*
D10*
X424278Y618189D03*
X424278Y601189D03*
D14*
X360195Y483400D03*
X313205Y483400D03*
D15*
X136000Y282200D03*
X173000Y282200D03*
X110000Y169700D03*
X147000Y169700D03*
D16*
X272900Y584340D03*
X323700Y616090D03*
D17*
X323700Y546240D03*
D18*
X482290Y617870D03*
X452310Y617870D03*
D19*
X467300Y615330D03*
D20*
X467300Y596160D02*
X467300Y581160D01*
D18*
X638210Y589630D03*
X668190Y589630D03*
D19*
X653200Y592170D03*
D20*
X653200Y611340D02*
X653200Y626340D01*
D21*
X282440Y293500D02*
X267360Y293500D01*
X267360Y268100D02*
X282440Y268100D01*
X282440Y242700D02*
X267360Y242700D01*
X267360Y217300D02*
X282440Y217300D01*
X282440Y191900D02*
X267360Y191900D01*
X267360Y166500D02*
X282440Y166500D01*
X282440Y141100D02*
X267360Y141100D01*
X267360Y115700D02*
X282440Y115700D01*
X521360Y115700D02*
X536440Y115700D01*
X536440Y141100D02*
X521360Y141100D01*
X521360Y166500D02*
X536440Y166500D01*
X536440Y191900D02*
X521360Y191900D01*
X521360Y217300D02*
X536440Y217300D01*
X536440Y242700D02*
X521360Y242700D01*
X521360Y268100D02*
X536440Y268100D01*
X536440Y293500D02*
X521360Y293500D01*
D22*
X743700Y31280D03*
X667500Y361480D03*
X591300Y56680D03*
D23*
X591300Y31280D02*
X591300Y17200D01*
D24*
X591300Y82080D03*
D25*
X692900Y361480D03*
X718300Y361480D03*
X642100Y361480D03*
X616700Y361480D03*
X591300Y361480D03*
X743700Y361480D03*
X743700Y56680D03*
X743700Y82080D03*
X743700Y107480D03*
X743700Y132880D03*
X743700Y158280D03*
X743700Y183680D03*
X743700Y209080D03*
X743700Y234480D03*
X743700Y259880D03*
X743700Y285280D03*
X743700Y310680D03*
X743700Y336080D03*
X616700Y56680D03*
X591300Y336080D03*
X591300Y310680D03*
X591300Y285280D03*
X591300Y259880D03*
X591300Y234480D03*
X591300Y209080D03*
X591300Y183680D03*
X591300Y158280D03*
X591300Y132880D03*
X591300Y107480D03*
D26*
X616700Y323380D03*
X642100Y323380D03*
X667500Y323380D03*
X692900Y323380D03*
X718300Y323380D03*
X616700Y278930D03*
X642100Y278930D03*
X667500Y278930D03*
X692900Y278930D03*
X718300Y278930D03*
D27*
X614800Y414050D03*
X562800Y414050D03*
X614800Y401350D03*
X614800Y426750D03*
X614800Y439450D03*
X562800Y401350D03*
X562800Y426750D03*
X562800Y439450D03*
X707300Y414950D03*
X655300Y414950D03*
X707300Y402250D03*
X707300Y427650D03*
X707300Y440350D03*
X655300Y402250D03*
X655300Y427650D03*
X655300Y440350D03*
D28*
X748270Y609512D03*
X748270Y546012D03*
X748270Y482512D03*
X913370Y609512D03*
X913370Y546012D03*
X913370Y482512D03*
X49170Y609700D03*
X49170Y546200D03*
X49170Y482700D03*
X214270Y609700D03*
X214270Y546200D03*
X214270Y482700D03*
D29*
X408360Y294200D02*
X420440Y294200D01*
X419040Y272200D02*
X406960Y272200D01*
D30*
X81612Y267838D02*
X81612Y260062D01*
X81612Y267838D02*
X84588Y267838D01*
X84588Y260062D01*
X81612Y260062D01*
X81612Y263125D02*
X84588Y263125D01*
X84588Y266188D02*
X81612Y266188D01*
X100612Y267838D02*
X100612Y260062D01*
X100612Y267838D02*
X103588Y267838D01*
X103588Y260062D01*
X100612Y260062D01*
X100612Y263125D02*
X103588Y263125D01*
X103588Y266188D02*
X100612Y266188D01*
X94088Y279562D02*
X94088Y287338D01*
X94088Y279562D02*
X91112Y279562D01*
X91112Y287338D01*
X94088Y287338D01*
X94088Y282625D02*
X91112Y282625D01*
X91112Y285688D02*
X94088Y285688D01*
D31*
X132800Y244500D03*
X154800Y254000D03*
X154800Y235000D03*
X132800Y203100D03*
X154800Y212600D03*
X154800Y193600D03*
D30*
X98421Y223151D02*
X98421Y230927D01*
X98421Y223151D02*
X95445Y223151D01*
X95445Y230927D01*
X98421Y230927D01*
X98421Y226214D02*
X95445Y226214D01*
X95445Y229277D02*
X98421Y229277D01*
X79421Y230927D02*
X79421Y223151D01*
X76445Y223151D01*
X76445Y230927D01*
X79421Y230927D01*
X79421Y226214D02*
X76445Y226214D01*
X76445Y229277D02*
X79421Y229277D01*
X85945Y211427D02*
X85945Y203651D01*
X85945Y211427D02*
X88921Y211427D01*
X88921Y203651D01*
X85945Y203651D01*
X85945Y206714D02*
X88921Y206714D01*
X88921Y209777D02*
X85945Y209777D01*
D12*
X169900Y328500D03*
X152900Y328500D03*
D10*
X103699Y378678D03*
X103699Y395678D03*
X136056Y394011D03*
X136056Y377011D03*
D12*
X228655Y241412D03*
X211655Y241412D03*
X226810Y283546D03*
X209810Y283546D03*
X204800Y215267D03*
X187800Y215267D03*
X214590Y186345D03*
X197590Y186345D03*
X137556Y145723D03*
X120556Y145723D03*
X201300Y123500D03*
X184300Y123500D03*
X120322Y114633D03*
X137322Y114633D03*
D10*
X393289Y618200D03*
X393289Y601200D03*
X395200Y556000D03*
X395200Y573000D03*
D32*
X846737Y137600D03*
X846737Y132600D03*
X846737Y127600D03*
X846737Y122600D03*
X846737Y117600D03*
X889663Y117600D03*
X889663Y122600D03*
X889663Y127600D03*
X889663Y132600D03*
X889663Y137600D03*
D33*
X884558Y273566D03*
X909958Y273566D03*
X884558Y248166D03*
X909958Y248166D03*
X884558Y222766D03*
X909958Y222766D03*
X884558Y197366D03*
X909958Y197366D03*
X44958Y307378D03*
X19558Y307378D03*
X44958Y332778D03*
X19558Y332778D03*
X44958Y358178D03*
X19558Y358178D03*
X44958Y383578D03*
X19558Y383578D03*
X905758Y60442D03*
X905758Y35042D03*
X880358Y60442D03*
X880358Y35042D03*
X854958Y60442D03*
X854958Y35042D03*
X829558Y60442D03*
X829558Y35042D03*
X111900Y32058D03*
X111900Y57458D03*
X137300Y32058D03*
X137300Y57458D03*
X162700Y32058D03*
X162700Y57458D03*
X188100Y32058D03*
X188100Y57458D03*
D34*
X360195Y483400D02*
X360195Y579595D01*
X451980Y618200D02*
X452310Y617870D01*
X424289Y618200D02*
X424278Y618189D01*
X424289Y618200D02*
X451980Y618200D01*
D35*
X52500Y150455D03*
D36*
X279989Y393823D02*
X279989Y399246D01*
X279989Y393823D02*
X275000Y388834D01*
D35*
X279989Y399246D03*
D36*
X135000Y360000D02*
X122377Y360000D01*
X103699Y378678D01*
D35*
X135000Y360000D03*
X101330Y308389D03*
D36*
X100903Y375881D02*
X103699Y378678D01*
X100903Y375881D02*
X100903Y308815D01*
X101330Y308389D01*
X201300Y123500D02*
X195372Y117572D01*
X195372Y114106D01*
D35*
X75000Y122955D03*
D36*
X668190Y586810D02*
X668190Y589630D01*
X668190Y586810D02*
X690000Y565000D01*
D35*
X690000Y565000D03*
X430000Y632500D03*
D36*
X424278Y626778D01*
X424278Y618189D01*
X275000Y388834D02*
X275000Y347755D01*
X264873Y337628D01*
X393300Y618189D02*
X424278Y618189D01*
X393300Y618189D02*
X393289Y618200D01*
X391179Y616090D01*
X323700Y616090D01*
D34*
X360195Y579595D01*
D36*
X195372Y114106D02*
X175554Y94288D01*
X171576Y94288D02*
X169610Y92322D01*
X105633Y92322D01*
X75000Y122955D01*
X171576Y94288D02*
X175554Y94288D01*
X690000Y565000D02*
X692500Y565000D01*
X703280Y488280D02*
X721560Y470000D01*
X703280Y488280D02*
X702160Y489400D01*
X702160Y555340D01*
X692500Y565000D01*
X661200Y536200D02*
X661200Y530360D01*
X703280Y488280D01*
D35*
X727623Y465123D03*
D36*
X722746Y470000D01*
X721560Y470000D01*
X52500Y254634D02*
X41452Y265682D01*
X52500Y254634D02*
X52500Y150455D01*
X41452Y285484D02*
X19558Y307378D01*
X41452Y285484D02*
X41452Y265682D01*
D35*
X264873Y329026D03*
D36*
X264873Y337628D01*
D34*
X323700Y493895D02*
X323700Y546240D01*
X323700Y493895D02*
X313205Y483400D01*
X294305Y502300D02*
X264900Y502300D01*
X294305Y502300D02*
X313205Y483400D01*
X395200Y573000D02*
X423389Y601189D01*
X424278Y601189D01*
X454771Y601189D01*
X467300Y588660D01*
D36*
X120801Y349200D02*
X120801Y340533D01*
D35*
X652500Y560000D03*
X165000Y162955D03*
D36*
X191294Y167772D02*
X193972Y165094D01*
X191294Y167772D02*
X174506Y167772D01*
X193972Y161628D02*
X199900Y155700D01*
X193972Y161628D02*
X193972Y165094D01*
X174506Y167772D02*
X169689Y162955D01*
X165000Y162955D01*
D35*
X109257Y360743D03*
D36*
X120801Y349200D01*
X156570Y502300D02*
X264900Y502300D01*
X156570Y502300D02*
X49170Y609700D01*
X467300Y615330D02*
X472638Y620668D01*
X472638Y627184D01*
D35*
X675000Y565000D03*
X497500Y626646D03*
D36*
X494204Y629942D01*
X475396Y629942D01*
X472638Y627184D01*
D35*
X417500Y560000D03*
D36*
X404500Y573000D01*
X395200Y573000D01*
X467300Y588660D02*
X467300Y615330D01*
X652500Y590000D02*
X653200Y590700D01*
X652500Y590000D01*
X653200Y590700D02*
X653200Y592170D01*
D35*
X273844Y422279D03*
X62500Y75000D03*
X469772Y377938D03*
D36*
X469772Y340572D01*
X423400Y294200D01*
X414400Y294200D01*
X179157Y79048D02*
X175109Y75000D01*
X62500Y75000D01*
X179157Y79048D02*
X238248Y79048D01*
X653618Y585552D02*
X653200Y585970D01*
X653618Y585552D02*
X653618Y585236D01*
X653200Y585970D02*
X653200Y618840D01*
X652500Y590000D02*
X653538Y588962D01*
X653538Y585632D01*
X653618Y585552D01*
X653618Y585236D01*
X672272Y545594D02*
X672272Y542128D01*
X678200Y536200D01*
X653200Y564666D02*
X653200Y592170D01*
X653200Y564666D02*
X672272Y545594D01*
X653200Y548666D02*
X653200Y564666D01*
X653200Y548666D02*
X650128Y545594D01*
X650128Y498432D02*
X659160Y489400D01*
X650128Y498432D02*
X650128Y545594D01*
X674666Y564666D02*
X675000Y565000D01*
X674666Y564666D02*
X653200Y564666D01*
X672272Y542128D02*
X678200Y536200D01*
X672272Y542128D02*
X672272Y545594D01*
X657866Y560000D01*
X652500Y560000D01*
X653200Y618840D02*
X738942Y618840D01*
X748270Y609512D01*
D35*
X305575Y172753D03*
D36*
X307500Y174678D01*
X274900Y115700D02*
X238248Y79048D01*
X294552Y136083D02*
X294552Y146117D01*
X287457Y153212D01*
X264000Y153212D01*
X210000Y153212D01*
X294552Y136083D02*
X294552Y135352D01*
X274900Y115700D01*
X207512Y155700D02*
X199900Y155700D01*
X207512Y155700D02*
X210000Y153212D01*
D35*
X445000Y420000D03*
X898000Y583000D03*
X771000Y520000D03*
X576000Y518000D03*
X544000Y494000D03*
X453000Y516000D03*
X378000Y427000D03*
X609000Y574000D03*
X528000Y582000D03*
D36*
X414400Y294200D02*
X403012Y282812D01*
X402564Y282812D01*
X307500Y187748D01*
X307500Y174678D01*
D34*
X381096Y563765D02*
X381096Y582235D01*
X381096Y563765D02*
X384965Y559896D01*
X393289Y594428D02*
X393289Y601200D01*
X391304Y559896D02*
X384965Y559896D01*
X381096Y582235D02*
X393289Y594428D01*
X391304Y559896D02*
X395200Y556000D01*
D35*
X600000Y551646D03*
X395907Y526593D03*
D36*
X395200Y527300D01*
X395200Y556000D01*
X555000Y483389D02*
X591879Y520268D01*
D35*
X591879Y520268D03*
D36*
X241344Y228723D02*
X228655Y241412D01*
X241344Y228723D02*
X241344Y217756D01*
D35*
X241344Y217756D03*
D36*
X228655Y226389D02*
X228655Y241412D01*
X228655Y226389D02*
X217533Y215267D01*
X204800Y215267D01*
X228655Y281700D02*
X226810Y283546D01*
X228655Y281700D02*
X228655Y241412D01*
X208662Y195739D02*
X208662Y192273D01*
X214590Y186345D01*
X204800Y199600D02*
X204800Y215267D01*
X204800Y199600D02*
X208662Y195739D01*
D35*
X530503Y436774D03*
D36*
X555000Y461271D02*
X555000Y483389D01*
X555000Y461271D02*
X530503Y436774D01*
X380849Y445182D02*
X380849Y450102D01*
X368130Y462821D02*
X368130Y464096D01*
X368130Y462821D02*
X380849Y450102D01*
X380849Y445182D02*
X364000Y428333D01*
D34*
X368130Y464096D02*
X375630Y464096D01*
D36*
X395725Y555475D02*
X395200Y556000D01*
X395725Y555475D02*
X395725Y516117D01*
X410241Y501600D01*
X469740Y501600D01*
X268333Y320672D02*
X263936Y320672D01*
X226810Y283546D01*
X268333Y320672D02*
X290000Y342339D01*
D35*
X290000Y378854D03*
D36*
X290000Y342339D01*
D35*
X363442Y401757D03*
D36*
X364000Y402314D01*
X364000Y428333D01*
X469740Y501600D02*
X519785Y551646D01*
X600000Y551646D01*
D34*
X368130Y464096D02*
X363441Y459406D01*
X357795Y459406D01*
X357689Y459300D01*
X264900Y459300D01*
X375630Y464096D02*
X379499Y467965D01*
X379499Y540299D02*
X395200Y556000D01*
X379499Y540299D02*
X379499Y467965D01*
D36*
X159242Y420000D02*
X159050Y420192D01*
X159242Y420000D02*
X165000Y420000D01*
D35*
X621646Y505000D03*
D36*
X515157Y536242D02*
X462673Y483757D01*
D35*
X65046Y275455D03*
D36*
X91972Y420192D02*
X159050Y420192D01*
X515157Y536242D02*
X598495Y536242D01*
D35*
X394885Y459500D03*
D36*
X419142Y483757D02*
X462673Y483757D01*
X419142Y483757D02*
X394885Y459500D01*
X70224Y280633D02*
X65046Y275455D01*
X70224Y280633D02*
X70224Y398444D01*
X91972Y420192D01*
X190328Y384006D02*
X193006Y381328D01*
X190328Y384006D02*
X190328Y394672D01*
X193006Y381328D02*
X215394Y381328D01*
X282776Y448710D01*
X190328Y394672D02*
X165000Y420000D01*
X598495Y536242D02*
X607853Y526884D01*
X607853Y518793D01*
X621646Y505000D01*
D35*
X362097Y449020D03*
D36*
X361787Y448710D02*
X282776Y448710D01*
X361787Y448710D02*
X362097Y449020D01*
X83228Y151727D02*
X120322Y114633D01*
X83100Y263950D02*
X92528Y273378D01*
X96944Y273378D01*
X96933Y227139D02*
X96933Y227039D01*
X96933Y227139D02*
X83100Y240972D01*
X152900Y313671D02*
X152900Y328500D01*
X152900Y313671D02*
X140875Y301646D01*
X125212Y301646D02*
X96944Y273378D01*
X125212Y301646D02*
X140875Y301646D01*
X83100Y263950D02*
X83100Y240972D01*
X83228Y169730D02*
X83228Y151727D01*
X83228Y169730D02*
X79761Y173197D01*
X79761Y213988D02*
X92811Y227039D01*
X79761Y213988D02*
X79761Y173197D01*
X92811Y227039D02*
X96933Y227039D01*
D37*
X653220Y425570D02*
X655300Y427650D01*
X640912Y425570D02*
X636044Y420702D01*
X640912Y425570D02*
X653220Y425570D01*
X655300Y427650D02*
X667376Y427650D01*
X673472Y421554D01*
D36*
X738890Y347692D02*
X732088Y340890D01*
X732088Y331270D01*
X738890Y324468D01*
X740532Y324468D01*
X742500Y322500D01*
X746334Y347692D02*
X757500Y358858D01*
X746334Y347692D02*
X738890Y347692D01*
X742500Y322500D02*
X742708Y322292D01*
X748510Y322292D01*
X840000Y230802D01*
X840000Y187500D01*
X840000Y175000D01*
X872500Y142500D01*
D38*
X877400Y137600D02*
X889663Y137600D01*
X877400Y137600D02*
X872500Y142500D01*
D35*
X494910Y300565D03*
D36*
X508199Y298143D02*
X513093Y303036D01*
X508199Y298143D02*
X497332Y298143D01*
X494910Y300565D01*
X757500Y358858D02*
X757500Y385000D01*
D37*
X719007Y421554D02*
X673472Y421554D01*
X719007Y421554D02*
X732500Y408061D01*
X734440Y408061D02*
X757500Y385000D01*
X734440Y408061D02*
X732500Y408061D01*
X636044Y420702D02*
X602538Y420702D01*
X596490Y426750D02*
X562800Y426750D01*
X596490Y426750D02*
X602538Y420702D01*
D36*
X513093Y339964D02*
X513093Y303036D01*
D37*
X557190Y426750D02*
X562800Y426750D01*
D36*
X555034Y426750D01*
D37*
X557190Y426750D02*
X534716Y404277D01*
X564671Y355656D02*
X570329Y355656D01*
X576153Y361480D02*
X591300Y361480D01*
X576153Y361480D02*
X570329Y355656D01*
X534716Y385611D02*
X534716Y404277D01*
X534716Y385611D02*
X564671Y355656D01*
D36*
X534114Y405830D02*
X555034Y426750D01*
X534114Y405830D02*
X534114Y360985D01*
X513093Y339964D01*
D37*
X702500Y414950D02*
X707300Y414950D01*
X642806Y420998D02*
X635858Y414050D01*
X614800Y414050D01*
X726348Y378832D02*
X743700Y361480D01*
D36*
X846685Y143315D02*
X853965Y143315D01*
X862280Y135000D02*
X867500Y135000D01*
X862280Y135000D02*
X853965Y143315D01*
D38*
X888330Y133933D02*
X889663Y132600D01*
D37*
X667563Y420998D02*
X642806Y420998D01*
X667563Y420998D02*
X673611Y414950D01*
X680000Y414950D02*
X702500Y414950D01*
X680000Y414950D02*
X673611Y414950D01*
X717063Y410798D02*
X726348Y401513D01*
X726348Y378832D01*
X717063Y410798D02*
X711452Y410798D01*
X707300Y414950D01*
D36*
X748510Y296892D02*
X755312Y290090D01*
X755312Y276192D01*
X743700Y361480D02*
X739271Y361480D01*
X706188Y328397D01*
X706188Y318363D01*
X727659Y296892D01*
X748510Y296892D01*
X755312Y276192D02*
X832380Y199124D01*
X832380Y157620D01*
X846685Y143315D01*
D38*
X867500Y135000D02*
X868567Y133933D01*
X888330Y133933D01*
D36*
X690000Y380000D02*
X691250Y381250D01*
X690000Y380000D02*
X682500Y372500D01*
X679112Y369112D01*
X679112Y352546D01*
X676434Y349868D01*
X628812Y318363D02*
X625000Y314551D01*
X625000Y297500D01*
X651459Y349868D02*
X676434Y349868D01*
X651459Y349868D02*
X628812Y327221D01*
X628812Y318363D01*
D35*
X465000Y292966D03*
D36*
X469300Y288667D01*
D37*
X678920Y413870D02*
X680000Y414950D01*
X678920Y413870D02*
X678920Y391080D01*
D35*
X710519Y384481D03*
D36*
X690000Y380000D02*
X678920Y391080D01*
X690519Y381981D02*
X691250Y381250D01*
X708019Y381981D02*
X710519Y384481D01*
X708019Y381981D02*
X690519Y381981D01*
X476578Y281388D02*
X469300Y288667D01*
X476578Y281388D02*
X570986Y281388D01*
X586490Y296892D01*
X624392Y296892D02*
X625000Y297500D01*
X624392Y296892D02*
X586490Y296892D01*
D37*
X654400Y439450D02*
X655300Y440350D01*
X654400Y439450D02*
X635611Y439450D01*
D36*
X743700Y336080D02*
X749868Y329912D01*
X751666Y329912D01*
X895000Y150000D02*
X905000Y140000D01*
D38*
X897521Y132521D01*
X897521Y130412D01*
X894710Y127600D01*
X889663Y127600D01*
D36*
X847620Y233958D02*
X751666Y329912D01*
X875776Y150000D02*
X895000Y150000D01*
X875776Y150000D02*
X847620Y178156D01*
X847620Y233958D01*
D37*
X635611Y439450D02*
X629515Y433354D01*
D35*
X504739Y306497D03*
D37*
X562800Y439450D02*
X596490Y439450D01*
X602586Y433354D01*
X629515Y433354D01*
D36*
X562800Y439450D02*
X557720Y434370D01*
X504739Y342386D02*
X504739Y306497D01*
X549954Y434370D02*
X557720Y434370D01*
D37*
X655300Y440350D02*
X688990Y440350D01*
X695594Y433746D02*
X743585Y433746D01*
X695594Y433746D02*
X688990Y440350D01*
X776328Y416516D02*
X785329Y407516D01*
X760815Y416516D02*
X743585Y433746D01*
X760815Y416516D02*
X776328Y416516D01*
X785329Y407516D02*
X785329Y377709D01*
X743700Y336080D01*
D36*
X549954Y434370D02*
X526494Y410910D01*
X526494Y364141D01*
X504739Y342386D01*
D37*
X641144Y412870D02*
X653220Y412870D01*
X655300Y414950D01*
X596490Y414050D02*
X562800Y414050D01*
X596490Y414050D02*
X602538Y408002D01*
X636276Y408002D01*
X641144Y412870D01*
D35*
X584106Y405960D03*
D36*
X562928Y413922D02*
X562800Y414050D01*
X562928Y413922D02*
X573194Y413922D01*
X583655Y405510D02*
X584106Y405960D01*
X583655Y405510D02*
X581606Y405510D01*
X573194Y413922D01*
D37*
X614800Y426750D02*
X629376Y426750D01*
X636324Y433698D01*
X673842Y427650D02*
X707300Y427650D01*
X667794Y433698D02*
X636324Y433698D01*
X667794Y433698D02*
X673842Y427650D01*
D36*
X707300Y427650D02*
X738984Y427650D01*
D35*
X775999Y402186D03*
D36*
X764448Y402186D01*
X738984Y427650D01*
X202900Y399900D02*
X120100Y482700D01*
X49170Y482700D01*
D34*
X508700Y566200D02*
X508700Y596200D01*
X508700Y566200D02*
X476711Y534211D01*
X473351Y534211D01*
X512596Y600096D02*
X518935Y600096D01*
X512596Y600096D02*
X508700Y596200D01*
X544679Y625840D02*
X559700Y625840D01*
X544679Y625840D02*
X518935Y600096D01*
X559700Y625840D02*
X599060Y625840D01*
X609200Y615700D01*
D36*
X814688Y103757D02*
X815588Y102857D01*
X815588Y49012D01*
X829558Y35042D01*
D38*
X845404Y126267D02*
X846737Y127600D01*
X845404Y126267D02*
X840358Y126267D01*
X830346Y101776D02*
X816669Y101776D01*
X814688Y103757D01*
X835355Y121265D02*
X840358Y126267D01*
X835355Y121265D02*
X835355Y106786D01*
X830346Y101776D01*
D36*
X614800Y439450D02*
X614800Y447300D01*
X614800Y439450D02*
X626989Y439450D01*
X702961Y440000D02*
X707300Y440000D01*
X635461Y447922D02*
X626989Y439450D01*
X635461Y447922D02*
X695039Y447922D01*
X702961Y440000D01*
X603272Y609772D02*
X609200Y615700D01*
X607500Y560000D02*
X630000Y537500D01*
X630000Y500000D01*
X620000Y490000D01*
X592500Y490000D01*
X590000Y490000D01*
X570000Y470000D01*
X578011Y461989D01*
X599489Y461989D01*
X617125Y464625D02*
X617500Y465000D01*
X617125Y464625D02*
X614625Y462125D01*
X614800Y447300D02*
X632125Y464625D01*
X617125Y464625D01*
X614625Y462125D02*
X599625Y462125D01*
X599489Y461989D01*
D35*
X530000Y570000D03*
X617500Y464489D03*
D36*
X617500Y465000D01*
X707300Y440350D02*
X707300Y440000D01*
D35*
X415792Y128861D03*
D36*
X406804Y137849D01*
X325730Y137849D02*
X308768Y137849D01*
X325730Y137849D02*
X406804Y137849D01*
D35*
X406629Y54851D03*
D36*
X406629Y119697D01*
X415792Y128861D01*
D35*
X513874Y512368D03*
D36*
X497767Y496260D01*
X497767Y377981D02*
X488906Y369120D01*
X497767Y377981D02*
X497767Y496260D01*
X488906Y369120D02*
X488906Y348106D01*
X547128Y566946D02*
X547128Y598734D01*
X547128Y566946D02*
X554074Y560000D01*
X607500Y560000D01*
X603272Y609772D02*
X558166Y609772D01*
X547128Y598734D01*
D35*
X345646Y159957D03*
D36*
X325730Y140040D01*
X325730Y137849D01*
X286281Y179788D02*
X262343Y179788D01*
X251000Y191131D01*
X251000Y200000D01*
X251000Y218800D01*
X274900Y242700D01*
X302172Y163897D02*
X302172Y144445D01*
X302172Y163897D02*
X286281Y179788D01*
X302172Y144445D02*
X308768Y137849D01*
X530000Y570000D02*
X526354Y573646D01*
X524540Y573646D01*
X508700Y589486D01*
X508700Y596200D01*
X424388Y283588D02*
X413000Y272200D01*
X424388Y283588D02*
X424836Y283588D01*
X431052Y289804D01*
X431052Y290252D01*
X488906Y348106D01*
X205243Y235000D02*
X197500Y235000D01*
X205243Y235000D02*
X211655Y241412D01*
X166580Y231352D02*
X162932Y235000D01*
X154800Y235000D01*
X172348Y235000D02*
X197500Y235000D01*
X172348Y235000D02*
X168700Y231352D01*
X166580Y231352D01*
D35*
X199782Y263770D03*
D36*
X197500Y261488D01*
X197500Y235000D01*
D38*
X846737Y117600D02*
X865000Y99337D01*
X865000Y75000D01*
X855000Y65000D01*
X855000Y60484D01*
X854958Y60442D01*
D36*
X143228Y254928D02*
X143228Y260894D01*
X143228Y254928D02*
X132800Y244500D01*
X164534Y282200D02*
X173000Y282200D01*
X164534Y282200D02*
X143228Y260894D01*
X93354Y298460D02*
X87620Y304194D01*
X105366Y394011D02*
X136056Y394011D01*
X105366Y394011D02*
X103699Y395678D01*
X93354Y289495D02*
X92600Y288741D01*
X92600Y283450D01*
X93354Y289495D02*
X93354Y298460D01*
X102771Y394750D02*
X103699Y395678D01*
X102771Y394750D02*
X99306Y394750D01*
X87620Y383064D01*
X87620Y304194D01*
X137322Y114633D02*
X132372Y109683D01*
X77933Y227039D02*
X67740Y237232D01*
D35*
X166150Y100676D03*
D36*
X151279Y100676D02*
X137322Y114633D01*
X151279Y100676D02*
X166150Y100676D01*
X77933Y224003D02*
X77933Y227039D01*
X77933Y224003D02*
X72141Y218211D01*
X72141Y170041D01*
X75608Y166574D01*
X111928Y102561D02*
X128716Y102561D01*
X75608Y138881D02*
X75608Y166574D01*
X75608Y138881D02*
X111928Y102561D01*
X128716Y102561D02*
X132372Y106217D01*
X132372Y109683D01*
X56692Y271995D02*
X56692Y278916D01*
X67740Y260947D02*
X67740Y237232D01*
X67740Y260947D02*
X56692Y271995D01*
X58928Y318808D02*
X44958Y332778D01*
X58928Y318808D02*
X58928Y281152D01*
X56692Y278916D01*
X102100Y263950D02*
X125428Y287278D01*
X125428Y287594D01*
X128106Y290272D01*
X169900Y328500D02*
X189133Y309267D01*
X185378Y305512D01*
X140277Y290272D02*
X128106Y290272D01*
X155517Y305512D02*
X185378Y305512D01*
X155517Y305512D02*
X140277Y290272D01*
X171874Y326526D02*
X169900Y328500D01*
D35*
X225000Y321406D03*
D36*
X219880Y326526D02*
X171874Y326526D01*
X219880Y326526D02*
X225000Y321406D01*
X209810Y283546D02*
X202622Y283546D01*
X185028Y265952D01*
X166752Y265952D01*
X154800Y254000D01*
D35*
X171641Y243974D03*
D36*
X164826Y243974D01*
X154800Y254000D01*
X240974Y334117D02*
X218191Y356900D01*
X202900Y356900D01*
X145686Y274128D02*
X131796Y274128D01*
X145686Y274128D02*
X161830Y290272D01*
D35*
X113090Y233286D03*
D36*
X113089Y255421D02*
X131796Y274128D01*
X113089Y255421D02*
X113090Y233286D01*
X161830Y290272D02*
X196070Y290272D01*
X201416Y295618D01*
X240974Y314789D02*
X240974Y334117D01*
X240974Y314789D02*
X221802Y295618D01*
X201416Y295618D01*
D38*
X875000Y91200D02*
X905758Y60442D01*
X875000Y91200D02*
X875000Y92891D01*
X897521Y115412D01*
X897521Y119789D01*
X894710Y122600D02*
X889663Y122600D01*
X894710Y122600D02*
X897521Y119789D01*
D36*
X132800Y183900D02*
X132800Y203100D01*
X132800Y183900D02*
X147000Y169700D01*
X194478Y183233D02*
X197590Y186345D01*
X194478Y183233D02*
X165167Y183233D01*
X154800Y193600D01*
D35*
X170356Y198144D03*
D36*
X165812Y193600D01*
X154800Y193600D01*
X154800Y212600D02*
X185133Y212600D01*
X187800Y215267D01*
X154800Y212600D02*
X137500Y229900D01*
D35*
X137500Y232149D03*
D36*
X137500Y229900D01*
X387500Y412000D02*
X387500Y428500D01*
X387500Y412000D02*
X351500Y376000D01*
X318000Y376000D01*
D35*
X318000Y376000D03*
X78578Y300445D03*
X172500Y377500D03*
D36*
X158572Y391428D01*
X158572Y409894D01*
X155894Y412572D01*
D35*
X615000Y498354D03*
D36*
X595339Y528622D02*
X518314Y528622D01*
X435137Y476137D02*
X387500Y428500D01*
X435137Y476137D02*
X465829Y476137D01*
X518314Y528622D01*
X155894Y412572D02*
X97628Y412572D01*
X78578Y393522D01*
X78578Y300445D01*
X595339Y528622D02*
X600233Y523728D01*
X600233Y513121D02*
X615000Y498354D01*
X600233Y513121D02*
X600233Y523728D01*
X121700Y322634D02*
X120801Y323533D01*
X148872Y364194D02*
X136056Y377011D01*
X136000Y282200D02*
X142982Y282200D01*
X158674Y297892D01*
X192914Y297892D02*
X198260Y303238D01*
X192914Y297892D02*
X158674Y297892D01*
X148872Y349938D02*
X148872Y364194D01*
X148872Y349938D02*
X148872Y349806D01*
X132873Y333807D01*
X132873Y332139D01*
X130194Y329461D01*
X128527Y329461D01*
X121700Y322634D01*
X225986Y338328D02*
X233354Y330960D01*
X225986Y338328D02*
X193006Y338328D01*
X181396Y349938D02*
X148872Y349938D01*
X181396Y349938D02*
X193006Y338328D01*
X233354Y330960D02*
X233354Y317946D01*
X218646Y303238D01*
X198260Y303238D01*
X184300Y123500D02*
X179266Y123500D01*
X171338Y131428D01*
X129606Y131428D01*
X104650Y161628D02*
X102106Y161628D01*
X104650Y161628D02*
X120556Y145723D01*
X87433Y176301D02*
X87433Y207539D01*
X87433Y176301D02*
X102106Y161628D01*
X120556Y145723D02*
X126484Y139795D01*
X126484Y134551D01*
X129606Y131428D01*
X137556Y145723D02*
X172923Y145723D01*
X182900Y155700D01*
X110452Y169248D02*
X110000Y169700D01*
X132072Y157339D02*
X132072Y151206D01*
X137556Y145723D01*
X120163Y169248D02*
X110452Y169248D01*
X120163Y169248D02*
X132072Y157339D01*
D35*
X430000Y452500D03*
X489413Y421167D03*
D36*
X458079Y452500D02*
X430000Y452500D01*
X458079Y452500D02*
X489413Y421167D01*
D35*
X371495Y447642D03*
D36*
X361469Y436578D02*
X327833Y436578D01*
X361469Y436578D02*
X371495Y446604D01*
X371495Y447642D01*
D37*
X614800Y401350D02*
X616748Y403298D01*
D35*
X660130Y383944D03*
D37*
X671848Y395662D02*
X671848Y404013D01*
X671848Y395662D02*
X660130Y383944D01*
X667563Y408298D02*
X643038Y408298D01*
X638038Y403298D02*
X616748Y403298D01*
X667563Y408298D02*
X671848Y404013D01*
X643038Y408298D02*
X638038Y403298D01*
X747879Y269968D02*
X753788Y264059D01*
X743700Y220213D02*
X743700Y209080D01*
X743700Y220213D02*
X753788Y230301D01*
X707300Y402250D02*
X707300Y402653D01*
X753788Y264059D02*
X753788Y230301D01*
X718388Y391565D02*
X707300Y402653D01*
X718388Y391565D02*
X718388Y377301D01*
X702988Y361901D01*
X702988Y357301D01*
X682312Y336625D01*
X682312Y318994D01*
X711788Y289518D01*
X722686Y289518D01*
X742236Y269968D02*
X747879Y269968D01*
X742236Y269968D02*
X722686Y289518D01*
D38*
X889663Y117600D02*
X870000Y97937D01*
X870000Y75000D01*
X880000Y65000D01*
X880000Y60800D01*
X880358Y60442D01*
X832058Y60442D02*
X829558Y60442D01*
X832058Y60442D02*
X838879Y67263D01*
X838879Y119789D01*
X841691Y122600D02*
X846737Y122600D01*
X841691Y122600D02*
X838879Y119789D01*
D36*
X583098Y217300D02*
X528900Y217300D01*
X583098Y217300D02*
X586490Y220692D01*
X704512Y220692D02*
X743700Y259880D01*
X704512Y220692D02*
X586490Y220692D01*
X596142Y197500D02*
X596110Y197468D01*
X596142Y197500D02*
X685000Y197500D01*
X534468Y197468D02*
X528900Y191900D01*
X534468Y197468D02*
X596110Y197468D01*
X685000Y197500D02*
X706720Y197500D01*
X743700Y234480D01*
X591300Y234480D02*
X586820Y230000D01*
X528900Y141100D02*
X524900Y141100D01*
X507000Y159000D01*
X507000Y220069D02*
X516931Y230000D01*
X507000Y220069D02*
X507000Y159000D01*
X516931Y230000D02*
X586820Y230000D01*
X310833Y436578D02*
X299228Y424973D01*
X299228Y398806D01*
X302500Y244900D02*
X274900Y217300D01*
X302500Y366909D02*
X302026Y367383D01*
X302500Y366909D02*
X302500Y244900D01*
X302026Y396008D02*
X299228Y398806D01*
X302026Y396008D02*
X302026Y367383D01*
X309646Y370540D02*
X310120Y370066D01*
X310120Y227120D01*
X274900Y191900D01*
X310833Y380648D02*
X310833Y410334D01*
X310833Y380648D02*
X309646Y379460D01*
X309646Y370540D01*
X274900Y141100D02*
X264900Y141100D01*
X66646Y150168D02*
X66646Y117717D01*
X66646Y150168D02*
X60120Y156694D01*
X210468Y86668D02*
X264900Y141100D01*
X210468Y86668D02*
X176001Y86668D01*
X99661Y84702D02*
X66646Y117717D01*
X99661Y84702D02*
X174035Y84702D01*
X176001Y86668D01*
X60120Y156694D02*
X60120Y257790D01*
X49072Y268839D01*
X49072Y303264D02*
X44958Y307378D01*
X49072Y303264D02*
X49072Y268839D01*
D35*
X350400Y403877D03*
D36*
X334290Y403877D01*
X327833Y410334D01*
D34*
X618270Y589630D02*
X638210Y589630D01*
X618270Y589630D02*
X609200Y598700D01*
X593340Y582840D01*
X559700Y582840D01*
D36*
X637620Y589040D02*
X638210Y589630D01*
X637620Y589040D02*
X637620Y495120D01*
X624880Y482380D01*
D35*
X584158Y470343D03*
D36*
X596195Y482380D02*
X624880Y482380D01*
X596195Y482380D02*
X584158Y470343D01*
D37*
X655300Y402250D02*
X655300Y396274D01*
X646829Y387802D01*
X576348Y387802D01*
X562800Y401350D01*
D35*
X567500Y362486D03*
D36*
X567500Y396650D01*
X562800Y401350D01*
D34*
X508700Y613200D02*
X486960Y613200D01*
X482290Y617870D01*
X482290Y606066D01*
X484904Y603452D01*
X484904Y573868D01*
X474592Y563556D01*
X459696Y563556D02*
X430351Y534211D01*
X459696Y563556D02*
X474592Y563556D01*
D35*
X625000Y27500D03*
D36*
X595080Y27500D01*
X591300Y31280D01*
X431151Y533411D02*
X430351Y534211D01*
X431151Y533411D02*
X431151Y524698D01*
X421295Y514843D01*
X421560Y514577D02*
X409079Y514577D01*
X421295Y514843D02*
X421560Y514577D01*
D35*
X409079Y514577D03*
X513874Y486646D03*
X552500Y48354D03*
D36*
X552500Y52500D01*
X456646Y286540D02*
X456646Y305070D01*
X513874Y362298D01*
X513874Y481646D02*
X513874Y486646D01*
X513874Y481646D02*
X513874Y362298D01*
X456646Y286540D02*
X499380Y243806D01*
X499380Y105620D02*
X552500Y52500D01*
X499380Y105620D02*
X499380Y243806D01*
D38*
X822780Y137600D02*
X846737Y137600D01*
X765279Y129059D02*
X743700Y107480D01*
X765279Y129059D02*
X765279Y140553D01*
X783293Y158566D01*
X801814Y158566D01*
X822780Y137600D01*
D36*
X591300Y285280D02*
X573520Y267500D01*
X426781Y209846D02*
X426781Y189251D01*
D35*
X426781Y209846D03*
X405078Y167548D03*
D36*
X426781Y189251D01*
D35*
X493274Y268305D03*
D36*
X496469Y268305D01*
X552969Y267500D02*
X573520Y267500D01*
X552969Y267500D02*
X541457Y255988D01*
X508786Y255988D01*
X496469Y268305D01*
D35*
X767500Y13942D03*
D36*
X659438Y13942D01*
X628312Y45068D01*
X767500Y13942D02*
X767500Y122500D01*
X814688Y120757D02*
X814688Y137812D01*
D38*
X845404Y131267D02*
X846737Y132600D01*
X845404Y131267D02*
X840358Y131267D01*
X829847Y120757D01*
X814688Y120757D01*
D36*
X621342Y99109D02*
X614421Y99109D01*
X597392Y82080D02*
X591300Y82080D01*
X597392Y82080D02*
X614421Y99109D01*
X628312Y92138D02*
X628312Y45068D01*
X628312Y92138D02*
X621342Y99109D01*
X560000Y40000D02*
X540000Y40000D01*
X560000Y40000D02*
X572500Y52500D01*
X572500Y70000D01*
X584580Y82080D01*
X591300Y82080D01*
D35*
X417500Y151941D03*
D36*
X458427Y85000D02*
X495000Y85000D01*
X540000Y40000D01*
X458427Y85000D02*
X424146Y119281D01*
X424146Y132321D01*
X417500Y138967D02*
X417500Y151941D01*
X417500Y138967D02*
X424146Y132321D01*
X767500Y122500D02*
X770851Y125851D01*
X770851Y138245D01*
X785601Y152994D01*
X799506Y152994D01*
X814688Y137812D01*
D35*
X294704Y95745D03*
D36*
X258699Y59741D01*
X210337Y59741D01*
X164983Y59741D02*
X162700Y57458D01*
X182313Y71428D02*
X193887Y71428D01*
X205574Y59741D02*
X210337Y59741D01*
X170626Y59741D02*
X164983Y59741D01*
X193887Y71428D02*
X205574Y59741D01*
X182313Y71428D02*
X170626Y59741D01*
D35*
X304749Y88633D03*
D36*
X265811Y49695D01*
X211226Y49695D01*
X195863Y49695D01*
X188100Y57458D01*
D35*
X380937Y104991D03*
D36*
X311417Y35471D01*
X232296Y35471D01*
X211404Y35471D01*
X206337Y40538D01*
D38*
X202895Y43980D01*
X174622Y43980D01*
X162700Y32058D01*
D35*
X392405Y96634D03*
D36*
X320396Y24625D01*
X225273Y24625D01*
X195533Y24625D01*
X188100Y32058D01*
X874715Y35042D02*
X880358Y35042D01*
X874715Y35042D02*
X853125Y13452D01*
X820615Y13452D01*
X786800Y47267D01*
X786800Y127190D01*
D35*
X779205Y134784D03*
D36*
X786800Y127190D01*
X111900Y32058D02*
X111900Y26308D01*
X553208Y13208D02*
X585068Y45068D01*
X600234Y45068D01*
X602912Y47746D01*
X602912Y68766D01*
X617881Y83735D01*
D35*
X617881Y90755D03*
D36*
X617881Y83735D01*
X553208Y13208D02*
X235022Y13208D01*
X124981Y13227D02*
X111900Y26308D01*
X124981Y13227D02*
X235003Y13227D01*
X235022Y13208D01*
X825000Y21072D02*
X835345Y21072D01*
X849315Y35042D02*
X854958Y35042D01*
X849315Y35042D02*
X835345Y21072D01*
X825000Y21072D02*
X823771Y21072D01*
X799310Y45533D01*
X799310Y134391D01*
D35*
X789061Y144640D03*
D36*
X799310Y134391D01*
M02*
