G04 EAGLE Gerber RS-274X export*
G75*
%MOMM*%
%FSLAX34Y34*%
%LPD*%
%INBottom Copper*%
%IPPOS*%
%AMOC8*
5,1,8,0,0,1.08239X$1,22.5*%
G01*
G04 Define Apertures*
%ADD10R,1.500000X1.300000*%
%ADD11R,1.300000X1.500000*%
%ADD12R,0.700000X1.200000*%
%ADD13C,3.810000*%
%ADD14R,4.216000X4.216000*%
%ADD15R,2.200000X0.600000*%
%ADD16C,1.108000*%
%ADD17R,1.408000X1.408000*%
%ADD18C,1.408000*%
%ADD19P,1.52401X8X202.5*%
%ADD20C,1.408000*%
%ADD21C,1.508000*%
%ADD22R,0.600000X2.200000*%
%ADD23C,2.794000*%
%ADD24C,1.208000*%
%ADD25R,1.066800X0.228600*%
%ADD26C,1.879600*%
%ADD27C,0.609600*%
%ADD28C,0.756400*%
%ADD29C,0.200000*%
%ADD30C,0.304800*%
G36*
X925481Y391765D02*
X924292Y391524D01*
X807390Y391524D01*
X806268Y391738D01*
X805252Y392400D01*
X804574Y393406D01*
X803876Y395090D01*
X768490Y430476D01*
X766809Y431172D01*
X755572Y431172D01*
X754473Y431377D01*
X753451Y432031D01*
X752765Y433031D01*
X752649Y433607D01*
X751631Y434624D01*
X735369Y434624D01*
X733709Y432965D01*
X732743Y432313D01*
X731554Y432072D01*
X725572Y432072D01*
X724473Y432277D01*
X723451Y432931D01*
X722765Y433931D01*
X722649Y434507D01*
X721631Y435524D01*
X705369Y435524D01*
X704364Y434519D01*
X704271Y434021D01*
X703617Y432999D01*
X702617Y432313D01*
X701428Y432072D01*
X684646Y432072D01*
X683502Y432295D01*
X682491Y432965D01*
X681631Y433824D01*
X667708Y433824D01*
X666564Y434047D01*
X665552Y434717D01*
X654916Y445353D01*
X654304Y446230D01*
X654025Y447411D01*
X654228Y448607D01*
X654882Y449629D01*
X655883Y450315D01*
X657072Y450556D01*
X730352Y450556D01*
X732032Y451252D01*
X739853Y459073D01*
X740549Y460753D01*
X740549Y464378D01*
X740745Y465455D01*
X741391Y466482D01*
X742386Y467176D01*
X743573Y467426D01*
X744763Y467194D01*
X745188Y467018D01*
X751352Y467018D01*
X757047Y469377D01*
X761405Y473736D01*
X763764Y479431D01*
X763764Y479580D01*
X763969Y480679D01*
X764623Y481701D01*
X765623Y482387D01*
X766812Y482628D01*
X794328Y482628D01*
X795427Y482423D01*
X796449Y481769D01*
X797135Y480769D01*
X797251Y480193D01*
X798269Y479176D01*
X814531Y479176D01*
X815424Y480069D01*
X815424Y495170D01*
X815318Y495651D01*
X815424Y496219D01*
X815424Y511331D01*
X814531Y512224D01*
X814020Y512224D01*
X812921Y512429D01*
X811899Y513083D01*
X811213Y514083D01*
X810972Y515272D01*
X810972Y523228D01*
X811177Y524327D01*
X811831Y525349D01*
X812831Y526035D01*
X813281Y526126D01*
X814324Y527169D01*
X814324Y542270D01*
X814218Y542751D01*
X814324Y543319D01*
X814324Y558431D01*
X813431Y559324D01*
X806433Y559324D01*
X805289Y559547D01*
X804278Y560217D01*
X796064Y568430D01*
X794384Y569126D01*
X739680Y569126D01*
X738000Y568430D01*
X716284Y546715D01*
X715318Y546063D01*
X714129Y545822D01*
X712856Y545822D01*
X711712Y546045D01*
X710701Y546715D01*
X704670Y552746D01*
X702989Y553442D01*
X678601Y553442D01*
X677457Y553665D01*
X676445Y554335D01*
X658550Y572230D01*
X656870Y572926D01*
X648130Y572926D01*
X646450Y572230D01*
X629737Y555517D01*
X628770Y554865D01*
X627581Y554624D01*
X615769Y554624D01*
X614876Y553731D01*
X614876Y550594D01*
X614688Y549541D01*
X614051Y548509D01*
X613061Y547807D01*
X611877Y547547D01*
X610684Y547769D01*
X609673Y548439D01*
X605661Y552451D01*
X605000Y553440D01*
X604498Y554652D01*
X603006Y556144D01*
X601055Y556952D01*
X598945Y556952D01*
X596994Y556144D01*
X595502Y554652D01*
X595000Y553440D01*
X594339Y552451D01*
X576403Y534515D01*
X575503Y533892D01*
X574320Y533623D01*
X573126Y533836D01*
X572110Y534497D01*
X571432Y535503D01*
X570600Y537511D01*
X562562Y545549D01*
X561910Y546516D01*
X561669Y547704D01*
X561669Y551631D01*
X560776Y552524D01*
X552514Y552524D01*
X551248Y551258D01*
X550762Y550499D01*
X549762Y549813D01*
X548573Y549572D01*
X538372Y549572D01*
X537273Y549777D01*
X536251Y550431D01*
X535656Y551300D01*
X534431Y552524D01*
X526348Y552524D01*
X525295Y552712D01*
X524759Y553043D01*
X525035Y552641D01*
X525276Y551452D01*
X525276Y538156D01*
X525487Y537843D01*
X525728Y536654D01*
X525728Y527122D01*
X525505Y525978D01*
X524835Y524967D01*
X524272Y524403D01*
X523394Y523791D01*
X522213Y523512D01*
X521018Y523715D01*
X519996Y524369D01*
X519310Y525370D01*
X519068Y526558D01*
X519068Y551340D01*
X519291Y552484D01*
X519961Y553495D01*
X520073Y553607D01*
X520950Y554219D01*
X522131Y554498D01*
X523327Y554295D01*
X523813Y553984D01*
X523561Y554339D01*
X523301Y555523D01*
X523523Y556716D01*
X524193Y557727D01*
X530805Y564339D01*
X531794Y565000D01*
X533006Y565502D01*
X534498Y566994D01*
X535306Y568945D01*
X535306Y571055D01*
X534498Y573006D01*
X533006Y574498D01*
X531055Y575306D01*
X528945Y575306D01*
X526994Y574498D01*
X525502Y573006D01*
X525000Y571794D01*
X524339Y570805D01*
X510620Y557086D01*
X509924Y555406D01*
X509924Y517184D01*
X509702Y516040D01*
X509570Y515841D01*
X508568Y513423D01*
X508568Y512492D01*
X508363Y511393D01*
X507709Y510371D01*
X506709Y509685D01*
X505520Y509444D01*
X421940Y509444D01*
X420796Y509667D01*
X419785Y510337D01*
X414740Y515382D01*
X414079Y516371D01*
X413577Y517583D01*
X412084Y519075D01*
X410134Y519883D01*
X408023Y519883D01*
X406073Y519075D01*
X405682Y518685D01*
X404805Y518073D01*
X403624Y517794D01*
X402428Y517997D01*
X401407Y518651D01*
X400721Y519651D01*
X400479Y520840D01*
X400479Y523159D01*
X400711Y524325D01*
X401213Y525537D01*
X401213Y527648D01*
X400405Y529598D01*
X398913Y531091D01*
X396963Y531899D01*
X394852Y531899D01*
X392902Y531091D01*
X391409Y529598D01*
X390601Y527648D01*
X390601Y525537D01*
X391103Y524325D01*
X391335Y523159D01*
X391335Y483818D01*
X392031Y482137D01*
X396216Y477952D01*
X397294Y477505D01*
X398249Y476879D01*
X398935Y475878D01*
X399176Y474690D01*
X399176Y468652D01*
X399522Y468423D01*
X400069Y467876D01*
X416331Y467876D01*
X417224Y468769D01*
X417224Y483870D01*
X417118Y484351D01*
X417224Y484919D01*
X417224Y485280D01*
X417429Y486379D01*
X418083Y487401D01*
X419083Y488087D01*
X420272Y488328D01*
X429328Y488328D01*
X430427Y488123D01*
X431449Y487469D01*
X432135Y486469D01*
X432376Y485280D01*
X432376Y485030D01*
X432482Y484549D01*
X432376Y483981D01*
X432376Y474704D01*
X432153Y473560D01*
X431483Y472549D01*
X426124Y467190D01*
X425428Y465509D01*
X425428Y456612D01*
X425223Y455513D01*
X424569Y454491D01*
X423569Y453805D01*
X422380Y453564D01*
X395811Y453564D01*
X394758Y453752D01*
X393726Y454389D01*
X393024Y455379D01*
X392764Y456563D01*
X392986Y457756D01*
X393656Y458767D01*
X394383Y459494D01*
X395191Y461445D01*
X395191Y463556D01*
X394551Y465101D01*
X394437Y465608D01*
X393973Y465916D01*
X392891Y466998D01*
X390940Y467806D01*
X388830Y467806D01*
X387618Y467304D01*
X386451Y467072D01*
X376591Y467072D01*
X374910Y466376D01*
X368995Y460461D01*
X368029Y459809D01*
X366840Y459568D01*
X365803Y459568D01*
X364122Y458872D01*
X359531Y454281D01*
X358835Y452601D01*
X358835Y452144D01*
X358603Y450977D01*
X358101Y449765D01*
X358101Y447655D01*
X358909Y445704D01*
X360402Y444212D01*
X362352Y443404D01*
X364463Y443404D01*
X365245Y443728D01*
X366362Y443960D01*
X367555Y443737D01*
X368566Y443067D01*
X369490Y442144D01*
X371440Y441336D01*
X373551Y441336D01*
X374763Y441838D01*
X375929Y442070D01*
X379275Y442070D01*
X380956Y442766D01*
X381717Y443527D01*
X382683Y444179D01*
X383872Y444420D01*
X396806Y444420D01*
X397860Y444232D01*
X398892Y443595D01*
X399594Y442605D01*
X399854Y441421D01*
X399631Y440228D01*
X398961Y439217D01*
X397176Y437431D01*
X397176Y421169D01*
X398226Y420118D01*
X398395Y420088D01*
X399427Y419451D01*
X400129Y418461D01*
X400389Y417277D01*
X400167Y416084D01*
X399497Y415073D01*
X391495Y407071D01*
X390573Y406439D01*
X389389Y406179D01*
X388196Y406401D01*
X387185Y407071D01*
X329165Y465091D01*
X328513Y466058D01*
X328272Y467246D01*
X328272Y498524D01*
X327576Y500204D01*
X310363Y517417D01*
X309751Y518294D01*
X309472Y519475D01*
X309675Y520671D01*
X310329Y521693D01*
X311330Y522379D01*
X312519Y522620D01*
X322938Y522620D01*
X322938Y569860D01*
X305668Y569860D01*
X304569Y570065D01*
X303547Y570719D01*
X302861Y571719D01*
X302620Y572908D01*
X302620Y587282D01*
X302843Y588426D01*
X303513Y589437D01*
X311085Y597009D01*
X312029Y597651D01*
X313216Y597902D01*
X314407Y597670D01*
X319608Y595516D01*
X327792Y595516D01*
X335354Y598648D01*
X341142Y604436D01*
X344274Y611998D01*
X344274Y620182D01*
X341142Y627744D01*
X335354Y633532D01*
X334282Y633976D01*
X333398Y634536D01*
X332681Y635514D01*
X332402Y636695D01*
X332605Y637891D01*
X333259Y638913D01*
X334259Y639599D01*
X335448Y639840D01*
X422736Y639840D01*
X423812Y639644D01*
X424839Y638998D01*
X425533Y638003D01*
X425783Y636816D01*
X425551Y635626D01*
X424694Y633556D01*
X424694Y631445D01*
X425502Y629494D01*
X426994Y628002D01*
X428945Y627194D01*
X431055Y627194D01*
X433006Y628002D01*
X434539Y629535D01*
X435506Y630187D01*
X436694Y630428D01*
X616844Y630428D01*
X617988Y630205D01*
X618999Y629535D01*
X684339Y564195D01*
X685000Y563206D01*
X685502Y561994D01*
X686994Y560502D01*
X688945Y559694D01*
X691055Y559694D01*
X693006Y560502D01*
X694498Y561994D01*
X695306Y563945D01*
X695306Y566055D01*
X694498Y568006D01*
X693006Y569498D01*
X691794Y570000D01*
X690805Y570661D01*
X626829Y634637D01*
X626217Y635514D01*
X625938Y636695D01*
X626141Y637891D01*
X626795Y638913D01*
X627796Y639599D01*
X628984Y639840D01*
X924292Y639840D01*
X925391Y639635D01*
X926413Y638981D01*
X927099Y637981D01*
X927340Y636792D01*
X927340Y624813D01*
X927152Y623759D01*
X926515Y622727D01*
X925525Y622026D01*
X924341Y621765D01*
X923148Y621988D01*
X922160Y622642D01*
X916452Y625006D01*
X910288Y625006D01*
X904593Y622648D01*
X900235Y618289D01*
X897876Y612594D01*
X897876Y606431D01*
X900235Y600736D01*
X904593Y596377D01*
X910288Y594018D01*
X916452Y594018D01*
X922157Y596382D01*
X923014Y596979D01*
X924195Y597259D01*
X925391Y597055D01*
X926413Y596401D01*
X927099Y595401D01*
X927340Y594212D01*
X927340Y561313D01*
X927152Y560259D01*
X926515Y559227D01*
X925525Y558526D01*
X924341Y558265D01*
X923148Y558488D01*
X922160Y559142D01*
X916452Y561506D01*
X910288Y561506D01*
X904593Y559148D01*
X900235Y554789D01*
X897876Y549094D01*
X897876Y542931D01*
X900235Y537236D01*
X904593Y532877D01*
X910288Y530518D01*
X916452Y530518D01*
X922157Y532882D01*
X923014Y533479D01*
X924195Y533759D01*
X925391Y533555D01*
X926413Y532901D01*
X927099Y531901D01*
X927340Y530712D01*
X927340Y497813D01*
X927152Y496759D01*
X926515Y495727D01*
X925525Y495026D01*
X924341Y494765D01*
X923148Y494988D01*
X922160Y495642D01*
X916452Y498006D01*
X910288Y498006D01*
X904593Y495648D01*
X900235Y491289D01*
X897876Y485594D01*
X897876Y479431D01*
X900235Y473736D01*
X904593Y469377D01*
X910288Y467018D01*
X916452Y467018D01*
X922157Y469382D01*
X923014Y469979D01*
X924195Y470259D01*
X925391Y470055D01*
X926413Y469401D01*
X927099Y468401D01*
X927340Y467212D01*
X927340Y394572D01*
X927135Y393473D01*
X926481Y392451D01*
X925481Y391765D01*
G37*
%LPC*%
G36*
X749032Y610274D02*
X764780Y610274D01*
X764780Y612796D01*
X762266Y618865D01*
X757622Y623509D01*
X751554Y626022D01*
X749032Y626022D01*
X749032Y610274D01*
G37*
G36*
X731760Y610274D02*
X747508Y610274D01*
X747508Y626022D01*
X744986Y626022D01*
X738918Y623509D01*
X734274Y618865D01*
X731760Y612796D01*
X731760Y610274D01*
G37*
G36*
X744986Y593002D02*
X747508Y593002D01*
X747508Y608750D01*
X731760Y608750D01*
X731760Y606228D01*
X734274Y600160D01*
X738918Y595516D01*
X744986Y593002D01*
G37*
G36*
X749032Y593002D02*
X751554Y593002D01*
X757622Y595516D01*
X762266Y600160D01*
X764780Y606228D01*
X764780Y608750D01*
X749032Y608750D01*
X749032Y593002D01*
G37*
G36*
X324462Y547002D02*
X347320Y547002D01*
X347320Y568372D01*
X345832Y569860D01*
X324462Y569860D01*
X324462Y547002D01*
G37*
G36*
X324462Y522620D02*
X345832Y522620D01*
X347320Y524108D01*
X347320Y545478D01*
X324462Y545478D01*
X324462Y522620D01*
G37*
%LPD*%
G36*
X186813Y274146D02*
X185629Y273886D01*
X184436Y274108D01*
X183425Y274778D01*
X160000Y298203D01*
X158319Y298899D01*
X132051Y298899D01*
X130907Y299122D01*
X129896Y299792D01*
X101773Y327914D01*
X100093Y328611D01*
X82254Y328611D01*
X81110Y328833D01*
X80099Y329503D01*
X56651Y352951D01*
X56010Y353895D01*
X55759Y355081D01*
X55880Y355705D01*
X55880Y360351D01*
X54217Y364365D01*
X51145Y367437D01*
X50964Y367512D01*
X50063Y368089D01*
X49353Y369073D01*
X49083Y370255D01*
X49296Y371449D01*
X49958Y372466D01*
X50964Y373144D01*
X51720Y373457D01*
X55079Y376816D01*
X56896Y381203D01*
X56896Y382816D01*
X44196Y382816D01*
X44196Y395516D01*
X42583Y395516D01*
X38196Y393699D01*
X34837Y390340D01*
X34524Y389584D01*
X33948Y388683D01*
X32964Y387973D01*
X31781Y387703D01*
X30587Y387916D01*
X29570Y388578D01*
X28892Y389584D01*
X28817Y389765D01*
X25745Y392837D01*
X21731Y394500D01*
X17385Y394500D01*
X14374Y393253D01*
X13305Y393022D01*
X12109Y393226D01*
X11087Y393879D01*
X10401Y394880D01*
X10160Y396069D01*
X10160Y614529D01*
X10383Y615673D01*
X11053Y616684D01*
X33316Y638947D01*
X34282Y639599D01*
X35471Y639840D01*
X311952Y639840D01*
X312982Y639661D01*
X314019Y639031D01*
X314729Y638048D01*
X314999Y636865D01*
X314786Y635671D01*
X314124Y634654D01*
X313118Y633976D01*
X312046Y633532D01*
X306258Y627744D01*
X303126Y620182D01*
X303126Y611998D01*
X305280Y606797D01*
X305512Y605679D01*
X305289Y604487D01*
X304619Y603475D01*
X295558Y594414D01*
X294658Y593792D01*
X293476Y593522D01*
X292281Y593735D01*
X291265Y594397D01*
X290587Y595403D01*
X290342Y595994D01*
X284554Y601782D01*
X276992Y604914D01*
X268808Y604914D01*
X261246Y601782D01*
X255458Y595994D01*
X252326Y588432D01*
X252326Y580248D01*
X255458Y572686D01*
X261246Y566898D01*
X268808Y563766D01*
X276992Y563766D01*
X284554Y566898D01*
X288273Y570617D01*
X289150Y571229D01*
X290331Y571508D01*
X291527Y571305D01*
X292549Y570651D01*
X293235Y569650D01*
X293476Y568461D01*
X293476Y522357D01*
X294172Y520676D01*
X318235Y496613D01*
X318887Y495647D01*
X319128Y494458D01*
X319128Y463181D01*
X319824Y461500D01*
X335154Y446170D01*
X335766Y445293D01*
X336045Y444112D01*
X335842Y442916D01*
X335188Y441894D01*
X334188Y441208D01*
X332999Y440967D01*
X322630Y440967D01*
X320950Y440271D01*
X285444Y404766D01*
X284500Y404124D01*
X283313Y403873D01*
X282123Y404105D01*
X281045Y404552D01*
X278934Y404552D01*
X277722Y404050D01*
X276555Y403818D01*
X173336Y403818D01*
X171656Y403122D01*
X134195Y365661D01*
X133206Y365000D01*
X131994Y364498D01*
X130502Y363006D01*
X129694Y361055D01*
X129694Y358945D01*
X130502Y356994D01*
X131994Y355502D01*
X133945Y354694D01*
X136055Y354694D01*
X138006Y355502D01*
X139498Y356994D01*
X140000Y358206D01*
X140661Y359195D01*
X161991Y380525D01*
X162868Y381137D01*
X164049Y381416D01*
X165245Y381213D01*
X166267Y380559D01*
X166953Y379559D01*
X167194Y378370D01*
X167194Y376445D01*
X167696Y375233D01*
X167928Y374066D01*
X167928Y361591D01*
X168624Y359910D01*
X177410Y351124D01*
X179091Y350428D01*
X211513Y350428D01*
X212566Y350240D01*
X213598Y349603D01*
X214300Y348613D01*
X214561Y347429D01*
X214338Y346236D01*
X213668Y345225D01*
X205150Y336707D01*
X204454Y335026D01*
X204454Y327982D01*
X204231Y326838D01*
X203561Y325827D01*
X195651Y317917D01*
X194685Y317265D01*
X193496Y317024D01*
X185069Y317024D01*
X184176Y316131D01*
X184176Y301030D01*
X184282Y300549D01*
X184176Y299981D01*
X184176Y284869D01*
X185069Y283976D01*
X185580Y283976D01*
X186679Y283771D01*
X187701Y283117D01*
X188387Y282117D01*
X188628Y280928D01*
X188628Y276933D01*
X188440Y275880D01*
X187803Y274848D01*
X186813Y274146D01*
G37*
%LPC*%
G36*
X49932Y610462D02*
X65680Y610462D01*
X65680Y612984D01*
X63166Y619052D01*
X58522Y623696D01*
X52454Y626210D01*
X49932Y626210D01*
X49932Y610462D01*
G37*
G36*
X32660Y610462D02*
X48408Y610462D01*
X48408Y626210D01*
X45886Y626210D01*
X39818Y623696D01*
X35174Y619052D01*
X32660Y612984D01*
X32660Y610462D01*
G37*
G36*
X211188Y594206D02*
X217352Y594206D01*
X223047Y596565D01*
X227405Y600923D01*
X229764Y606618D01*
X229764Y612782D01*
X227405Y618477D01*
X223047Y622835D01*
X217352Y625194D01*
X211188Y625194D01*
X205493Y622835D01*
X201135Y618477D01*
X198776Y612782D01*
X198776Y606618D01*
X201135Y600923D01*
X205493Y596565D01*
X211188Y594206D01*
G37*
G36*
X45886Y593190D02*
X48408Y593190D01*
X48408Y608938D01*
X32660Y608938D01*
X32660Y606416D01*
X35174Y600348D01*
X39818Y595704D01*
X45886Y593190D01*
G37*
G36*
X49932Y593190D02*
X52454Y593190D01*
X58522Y595704D01*
X63166Y600348D01*
X65680Y606416D01*
X65680Y608938D01*
X49932Y608938D01*
X49932Y593190D01*
G37*
G36*
X46088Y530706D02*
X52252Y530706D01*
X57947Y533065D01*
X62305Y537423D01*
X64664Y543118D01*
X64664Y549282D01*
X62305Y554977D01*
X57947Y559335D01*
X52252Y561694D01*
X46088Y561694D01*
X40393Y559335D01*
X36035Y554977D01*
X33676Y549282D01*
X33676Y543118D01*
X36035Y537423D01*
X40393Y533065D01*
X46088Y530706D01*
G37*
G36*
X211188Y530706D02*
X217352Y530706D01*
X223047Y533065D01*
X227405Y537423D01*
X229764Y543118D01*
X229764Y549282D01*
X227405Y554977D01*
X223047Y559335D01*
X217352Y561694D01*
X211188Y561694D01*
X205493Y559335D01*
X201135Y554977D01*
X198776Y549282D01*
X198776Y543118D01*
X201135Y537423D01*
X205493Y533065D01*
X211188Y530706D01*
G37*
G36*
X211188Y467206D02*
X217352Y467206D01*
X223047Y469565D01*
X227405Y473923D01*
X229764Y479618D01*
X229764Y485782D01*
X227405Y491477D01*
X223047Y495835D01*
X217352Y498194D01*
X211188Y498194D01*
X205493Y495835D01*
X201135Y491477D01*
X198776Y485782D01*
X198776Y479618D01*
X201135Y473923D01*
X205493Y469565D01*
X211188Y467206D01*
G37*
G36*
X46088Y467206D02*
X52252Y467206D01*
X57947Y469565D01*
X62305Y473923D01*
X64664Y479618D01*
X64664Y485782D01*
X62305Y491477D01*
X57947Y495835D01*
X52252Y498194D01*
X46088Y498194D01*
X40393Y495835D01*
X36035Y491477D01*
X33676Y485782D01*
X33676Y479618D01*
X36035Y473923D01*
X40393Y469565D01*
X46088Y467206D01*
G37*
G36*
X45720Y384340D02*
X56896Y384340D01*
X56896Y385953D01*
X55079Y390340D01*
X51720Y393699D01*
X47333Y395516D01*
X45720Y395516D01*
X45720Y384340D01*
G37*
%LPD*%
G36*
X678301Y459941D02*
X677112Y459700D01*
X653805Y459700D01*
X652661Y459923D01*
X651649Y460593D01*
X627903Y484339D01*
X626223Y485035D01*
X619894Y485035D01*
X618750Y485258D01*
X617738Y485928D01*
X616795Y486871D01*
X616183Y487748D01*
X615904Y488929D01*
X616107Y490125D01*
X616761Y491147D01*
X617762Y491833D01*
X618950Y492074D01*
X652105Y492074D01*
X653786Y492770D01*
X658749Y497733D01*
X659716Y498385D01*
X660904Y498626D01*
X669331Y498626D01*
X670224Y499519D01*
X670224Y506781D01*
X669661Y507345D01*
X669029Y508267D01*
X668768Y509451D01*
X668991Y510644D01*
X669661Y511655D01*
X670224Y512219D01*
X670224Y519481D01*
X669661Y520045D01*
X669029Y520967D01*
X668768Y522151D01*
X668991Y523344D01*
X669661Y524355D01*
X670224Y524919D01*
X670224Y532252D01*
X669747Y532948D01*
X669487Y534133D01*
X669709Y535326D01*
X670379Y536337D01*
X671240Y537198D01*
X671240Y540488D01*
X644160Y540488D01*
X644160Y537220D01*
X643955Y536121D01*
X643301Y535099D01*
X642301Y534413D01*
X641112Y534172D01*
X635972Y534172D01*
X634873Y534377D01*
X633851Y535031D01*
X633165Y536031D01*
X632924Y537220D01*
X632924Y537570D01*
X632818Y538051D01*
X632924Y538619D01*
X632924Y544510D01*
X633147Y545654D01*
X633817Y546665D01*
X650041Y562889D01*
X651007Y563541D01*
X652196Y563782D01*
X652804Y563782D01*
X653948Y563559D01*
X654959Y562889D01*
X665855Y551993D01*
X666467Y551116D01*
X666747Y549935D01*
X666543Y548739D01*
X665889Y547717D01*
X664889Y547031D01*
X663700Y546790D01*
X658462Y546790D01*
X658462Y542012D01*
X671382Y542012D01*
X671445Y542349D01*
X672099Y543371D01*
X673099Y544057D01*
X674288Y544298D01*
X694128Y544298D01*
X695227Y544093D01*
X696249Y543439D01*
X696935Y542439D01*
X697176Y541250D01*
X697176Y537619D01*
X697739Y537055D01*
X698372Y536133D01*
X698632Y534949D01*
X698409Y533756D01*
X697739Y532745D01*
X697176Y532181D01*
X697176Y524919D01*
X697739Y524355D01*
X698372Y523433D01*
X698632Y522249D01*
X698409Y521056D01*
X697739Y520045D01*
X697176Y519481D01*
X697176Y512219D01*
X697739Y511655D01*
X698372Y510733D01*
X698632Y509549D01*
X698409Y508356D01*
X697739Y507345D01*
X697176Y506781D01*
X697176Y499519D01*
X698069Y498626D01*
X702080Y498626D01*
X703179Y498421D01*
X704201Y497767D01*
X704887Y496767D01*
X705128Y495578D01*
X705128Y479272D01*
X704923Y478173D01*
X704269Y477151D01*
X703269Y476465D01*
X702080Y476224D01*
X699031Y476224D01*
X697887Y476447D01*
X696875Y477117D01*
X696752Y477240D01*
X689962Y477240D01*
X689962Y466438D01*
X680160Y466438D01*
X680160Y462748D01*
X679955Y461649D01*
X679301Y460627D01*
X678301Y459941D01*
G37*
%LPC*%
G36*
X644160Y542012D02*
X656938Y542012D01*
X656938Y546790D01*
X645648Y546790D01*
X644160Y545302D01*
X644160Y542012D01*
G37*
G36*
X680160Y467962D02*
X688438Y467962D01*
X688438Y477240D01*
X681648Y477240D01*
X680160Y475752D01*
X680160Y467962D01*
G37*
%LPD*%
G36*
X426957Y391765D02*
X425768Y391524D01*
X404912Y391524D01*
X403813Y391729D01*
X402791Y392383D01*
X402105Y393383D01*
X401864Y394572D01*
X401864Y403246D01*
X402087Y404390D01*
X402757Y405401D01*
X409076Y411720D01*
X409772Y413401D01*
X409772Y416777D01*
X409960Y417831D01*
X410597Y418863D01*
X411587Y419565D01*
X412771Y419825D01*
X413964Y419603D01*
X414481Y419260D01*
X421438Y419260D01*
X421438Y430062D01*
X431240Y430062D01*
X431240Y437852D01*
X429603Y439489D01*
X429430Y439520D01*
X428393Y440149D01*
X427683Y441132D01*
X427413Y442315D01*
X427626Y443509D01*
X428288Y444526D01*
X428913Y444947D01*
X430805Y446839D01*
X431794Y447500D01*
X433006Y448002D01*
X434498Y449494D01*
X435306Y451445D01*
X435306Y453555D01*
X434804Y454767D01*
X434572Y455934D01*
X434572Y461070D01*
X434760Y462123D01*
X435397Y463155D01*
X436387Y463857D01*
X437571Y464117D01*
X438764Y463895D01*
X439775Y463225D01*
X442807Y460193D01*
X443459Y459226D01*
X443700Y458038D01*
X443700Y408538D01*
X443477Y407394D01*
X442807Y406383D01*
X440291Y403867D01*
X439325Y403215D01*
X438136Y402974D01*
X429709Y402974D01*
X428816Y402081D01*
X428816Y394572D01*
X428611Y393473D01*
X427957Y392451D01*
X426957Y391765D01*
G37*
%LPC*%
G36*
X422962Y419260D02*
X429752Y419260D01*
X431240Y420748D01*
X431240Y428538D01*
X422962Y428538D01*
X422962Y419260D01*
G37*
%LPD*%
G36*
X103567Y133069D02*
X102378Y132827D01*
X96145Y132827D01*
X95001Y133050D01*
X93990Y133720D01*
X87128Y140582D01*
X86477Y141548D01*
X86235Y142737D01*
X86235Y151202D01*
X86458Y152346D01*
X87128Y153357D01*
X87251Y153481D01*
X87251Y160271D01*
X67171Y160271D01*
X67171Y153339D01*
X67456Y152930D01*
X67735Y151750D01*
X67532Y150554D01*
X66878Y149532D01*
X65878Y148846D01*
X64689Y148605D01*
X62079Y148605D01*
X60935Y148828D01*
X59924Y149497D01*
X58161Y151260D01*
X57500Y152249D01*
X56998Y153461D01*
X55506Y154953D01*
X53555Y155761D01*
X51445Y155761D01*
X49494Y154953D01*
X47874Y153334D01*
X46953Y152702D01*
X45768Y152441D01*
X44575Y152664D01*
X43564Y153334D01*
X42209Y154688D01*
X34631Y154688D01*
X33532Y154893D01*
X32510Y155547D01*
X31824Y156548D01*
X31583Y157736D01*
X31583Y174527D01*
X31788Y175625D01*
X32441Y176647D01*
X33442Y177333D01*
X34631Y177575D01*
X34980Y177575D01*
X35462Y177680D01*
X36029Y177575D01*
X51142Y177575D01*
X52035Y178467D01*
X52035Y194730D01*
X51030Y195735D01*
X50532Y195827D01*
X49510Y196481D01*
X48824Y197482D01*
X48583Y198671D01*
X48583Y203671D01*
X48788Y204770D01*
X49441Y205792D01*
X50442Y206478D01*
X51631Y206719D01*
X54731Y206719D01*
X55624Y207612D01*
X55624Y223874D01*
X55543Y223955D01*
X54911Y224877D01*
X54651Y226062D01*
X54873Y227254D01*
X55543Y228265D01*
X68649Y241371D01*
X69616Y242023D01*
X70804Y242264D01*
X80070Y242264D01*
X80551Y242370D01*
X81119Y242264D01*
X96231Y242264D01*
X97124Y243157D01*
X97124Y245980D01*
X97329Y247078D01*
X97983Y248100D01*
X98983Y248786D01*
X100172Y249028D01*
X105488Y249028D01*
X107168Y249724D01*
X109673Y252228D01*
X110550Y252840D01*
X111731Y253119D01*
X112927Y252916D01*
X113949Y252262D01*
X114635Y251262D01*
X114876Y250073D01*
X114876Y243120D01*
X115017Y242918D01*
X115296Y241737D01*
X115093Y240541D01*
X114439Y239519D01*
X113438Y238833D01*
X112250Y238592D01*
X112035Y238592D01*
X110085Y237784D01*
X108592Y236292D01*
X108090Y235080D01*
X107429Y234091D01*
X106231Y232892D01*
X105264Y232241D01*
X104075Y231999D01*
X72797Y231999D01*
X71116Y231303D01*
X66174Y226361D01*
X65478Y224681D01*
X65478Y202696D01*
X66174Y201016D01*
X70138Y197051D01*
X71217Y196605D01*
X72171Y195978D01*
X72857Y194978D01*
X73098Y193789D01*
X73098Y187868D01*
X73991Y186975D01*
X82596Y186975D01*
X83740Y186752D01*
X84751Y186082D01*
X94454Y176379D01*
X96134Y175683D01*
X102378Y175683D01*
X103477Y175478D01*
X104499Y174825D01*
X105185Y173824D01*
X105426Y172635D01*
X105426Y168624D01*
X106319Y167731D01*
X113581Y167731D01*
X114145Y168295D01*
X115067Y168927D01*
X116251Y169187D01*
X117444Y168965D01*
X118455Y168295D01*
X119019Y167731D01*
X126281Y167731D01*
X126845Y168295D01*
X127767Y168927D01*
X128951Y169187D01*
X130144Y168965D01*
X131155Y168295D01*
X131719Y167731D01*
X139052Y167731D01*
X139748Y168208D01*
X140933Y168469D01*
X142126Y168246D01*
X143137Y167576D01*
X143998Y166715D01*
X147288Y166715D01*
X147288Y181017D01*
X148812Y181017D01*
X148812Y166715D01*
X152102Y166715D01*
X153590Y168203D01*
X153590Y178617D01*
X153778Y179671D01*
X154415Y180703D01*
X155405Y181405D01*
X156589Y181665D01*
X157782Y181442D01*
X158793Y180773D01*
X167889Y171677D01*
X168541Y170710D01*
X168782Y169521D01*
X168782Y156716D01*
X168559Y155572D01*
X167889Y154560D01*
X155001Y141672D01*
X154035Y141021D01*
X152846Y140779D01*
X144419Y140779D01*
X143855Y140216D01*
X142933Y139584D01*
X141749Y139323D01*
X140556Y139546D01*
X139545Y140216D01*
X138981Y140779D01*
X131719Y140779D01*
X131155Y140216D01*
X130233Y139584D01*
X129049Y139323D01*
X127856Y139546D01*
X126845Y140216D01*
X126281Y140779D01*
X119019Y140779D01*
X118455Y140216D01*
X117533Y139584D01*
X116349Y139323D01*
X115156Y139546D01*
X114145Y140216D01*
X113581Y140779D01*
X106319Y140779D01*
X105426Y139887D01*
X105426Y135875D01*
X105221Y134777D01*
X104567Y133755D01*
X103567Y133069D01*
G37*
%LPC*%
G36*
X77973Y161795D02*
X87251Y161795D01*
X87251Y168585D01*
X85763Y170073D01*
X77973Y170073D01*
X77973Y161795D01*
G37*
G36*
X67171Y161795D02*
X76449Y161795D01*
X76449Y170073D01*
X68659Y170073D01*
X67171Y168585D01*
X67171Y161795D01*
G37*
%LPD*%
G36*
X244032Y10401D02*
X242843Y10160D01*
X90471Y10160D01*
X89327Y10383D01*
X88316Y11053D01*
X11053Y88316D01*
X10401Y89282D01*
X10160Y90471D01*
X10160Y196171D01*
X10348Y197224D01*
X10985Y198256D01*
X11975Y198958D01*
X13159Y199219D01*
X14352Y198996D01*
X15363Y198326D01*
X18094Y195596D01*
X18745Y194629D01*
X18987Y193440D01*
X18987Y178467D01*
X19991Y177462D01*
X20489Y177370D01*
X21511Y176716D01*
X22197Y175715D01*
X22439Y174527D01*
X22439Y152822D01*
X23135Y151142D01*
X24161Y150115D01*
X24812Y149149D01*
X25054Y147960D01*
X25054Y138695D01*
X25160Y138213D01*
X25054Y137646D01*
X25054Y122533D01*
X25947Y121640D01*
X34374Y121640D01*
X35517Y121418D01*
X36529Y120748D01*
X48469Y108807D01*
X50150Y108111D01*
X115753Y108111D01*
X115850Y108151D01*
X117016Y108383D01*
X119344Y108383D01*
X120488Y108160D01*
X121499Y107491D01*
X127802Y101187D01*
X129483Y100491D01*
X158447Y100491D01*
X159568Y100278D01*
X160585Y99616D01*
X161263Y98610D01*
X161652Y97671D01*
X163144Y96178D01*
X164356Y95676D01*
X165345Y95015D01*
X170585Y89775D01*
X171197Y88898D01*
X171476Y87717D01*
X171273Y86521D01*
X170619Y85499D01*
X169619Y84813D01*
X168430Y84572D01*
X133533Y84572D01*
X131852Y83876D01*
X117127Y69151D01*
X116184Y68510D01*
X114997Y68259D01*
X114373Y68380D01*
X109727Y68380D01*
X105713Y66717D01*
X102641Y63645D01*
X100978Y59631D01*
X100978Y55285D01*
X102641Y51271D01*
X105713Y48199D01*
X107222Y47574D01*
X108123Y46997D01*
X108833Y46014D01*
X109102Y44831D01*
X108889Y43637D01*
X108228Y42620D01*
X107222Y41942D01*
X105713Y41317D01*
X102641Y38245D01*
X100978Y34231D01*
X100978Y29885D01*
X102641Y25871D01*
X105713Y22799D01*
X109727Y21136D01*
X114073Y21136D01*
X118087Y22799D01*
X121159Y25871D01*
X121784Y27380D01*
X122361Y28281D01*
X123344Y28991D01*
X124527Y29260D01*
X125721Y29047D01*
X126738Y28386D01*
X127416Y27380D01*
X128041Y25871D01*
X131113Y22799D01*
X135127Y21136D01*
X139473Y21136D01*
X143487Y22799D01*
X146559Y25871D01*
X147184Y27380D01*
X147761Y28281D01*
X148744Y28991D01*
X149927Y29260D01*
X151121Y29047D01*
X152138Y28386D01*
X152816Y27380D01*
X153441Y25871D01*
X156513Y22799D01*
X160527Y21136D01*
X164873Y21136D01*
X168887Y22799D01*
X171959Y25871D01*
X172584Y27380D01*
X173161Y28281D01*
X174144Y28991D01*
X175327Y29260D01*
X176521Y29047D01*
X177538Y28386D01*
X178216Y27380D01*
X178841Y25871D01*
X181913Y22799D01*
X185927Y21136D01*
X190273Y21136D01*
X194287Y22799D01*
X197359Y25871D01*
X199022Y29885D01*
X199022Y34231D01*
X197359Y38245D01*
X194287Y41317D01*
X192778Y41942D01*
X191877Y42519D01*
X191167Y43502D01*
X190898Y44685D01*
X191111Y45879D01*
X191772Y46896D01*
X192778Y47574D01*
X194287Y48199D01*
X197359Y51271D01*
X199022Y55285D01*
X199022Y59631D01*
X197775Y62642D01*
X197544Y63711D01*
X197748Y64907D01*
X198401Y65929D01*
X199402Y66615D01*
X200591Y66856D01*
X242519Y66856D01*
X243599Y66658D01*
X244625Y66011D01*
X245318Y65015D01*
X245567Y63828D01*
X245891Y13228D01*
X245686Y12109D01*
X245033Y11087D01*
X244032Y10401D01*
G37*
G36*
X635433Y87214D02*
X634245Y86973D01*
X626235Y86973D01*
X625136Y87178D01*
X624115Y87832D01*
X623429Y88832D01*
X623187Y90021D01*
X623187Y91810D01*
X622379Y93761D01*
X620465Y95675D01*
X619813Y96642D01*
X619572Y97830D01*
X619572Y237089D01*
X618876Y238770D01*
X600757Y256889D01*
X600105Y257856D01*
X599864Y259044D01*
X599864Y261583D01*
X598560Y264731D01*
X596151Y267140D01*
X593003Y268444D01*
X589597Y268444D01*
X586449Y267140D01*
X584040Y264731D01*
X582736Y261583D01*
X582736Y258177D01*
X584040Y255029D01*
X586449Y252620D01*
X589597Y251316D01*
X592136Y251316D01*
X593280Y251093D01*
X594291Y250423D01*
X596963Y247751D01*
X597565Y246895D01*
X597854Y245717D01*
X597660Y244520D01*
X597014Y243493D01*
X596019Y242799D01*
X594832Y242548D01*
X593642Y242780D01*
X593003Y243044D01*
X589597Y243044D01*
X586449Y241740D01*
X584040Y239331D01*
X583575Y238209D01*
X582982Y237290D01*
X581992Y236588D01*
X580808Y236328D01*
X579615Y236550D01*
X578604Y237220D01*
X551516Y264308D01*
X549836Y265004D01*
X544552Y265004D01*
X543453Y265209D01*
X542431Y265863D01*
X541745Y266863D01*
X541504Y268052D01*
X541504Y269578D01*
X541307Y270495D01*
X541510Y271691D01*
X542164Y272713D01*
X543164Y273399D01*
X544353Y273640D01*
X545121Y273640D01*
X546802Y274336D01*
X566069Y293603D01*
X567036Y294255D01*
X568224Y294496D01*
X581286Y294496D01*
X582362Y294300D01*
X583389Y293654D01*
X584083Y292659D01*
X584334Y291472D01*
X584102Y290282D01*
X582736Y286983D01*
X582736Y283577D01*
X584040Y280429D01*
X586449Y278020D01*
X589597Y276716D01*
X593003Y276716D01*
X596151Y278020D01*
X598560Y280429D01*
X599864Y283577D01*
X599864Y286983D01*
X598560Y290131D01*
X598248Y290443D01*
X597625Y291344D01*
X597356Y292527D01*
X597570Y293721D01*
X598232Y294738D01*
X598273Y294765D01*
X606788Y303280D01*
X607484Y304961D01*
X607484Y312825D01*
X607680Y313901D01*
X608326Y314928D01*
X609321Y315622D01*
X610508Y315873D01*
X611698Y315641D01*
X614897Y314316D01*
X618503Y314316D01*
X621834Y315696D01*
X624384Y318246D01*
X625764Y321577D01*
X625764Y325183D01*
X624384Y328514D01*
X621834Y331064D01*
X618503Y332444D01*
X614897Y332444D01*
X611698Y331119D01*
X610629Y330889D01*
X609433Y331092D01*
X608411Y331746D01*
X607725Y332746D01*
X607484Y333935D01*
X607484Y341799D01*
X606788Y343480D01*
X598255Y352013D01*
X597623Y352935D01*
X597362Y354120D01*
X597585Y355312D01*
X598255Y356323D01*
X598560Y356629D01*
X599864Y359777D01*
X599864Y363183D01*
X598560Y366331D01*
X596151Y368740D01*
X593003Y370044D01*
X589597Y370044D01*
X586449Y368740D01*
X584040Y366331D01*
X583575Y365209D01*
X582982Y364290D01*
X581992Y363588D01*
X580808Y363328D01*
X579615Y363550D01*
X578604Y364220D01*
X576462Y366362D01*
X574504Y367173D01*
X574021Y367263D01*
X572999Y367917D01*
X572313Y368918D01*
X572072Y370106D01*
X572072Y380893D01*
X571376Y382574D01*
X569153Y384797D01*
X568541Y385674D01*
X568262Y386855D01*
X568465Y388051D01*
X569119Y389073D01*
X570119Y389759D01*
X571308Y390000D01*
X652333Y390000D01*
X653409Y389804D01*
X654436Y389158D01*
X655130Y388163D01*
X655381Y386976D01*
X655149Y385786D01*
X654824Y384999D01*
X654824Y382889D01*
X655631Y380938D01*
X657124Y379446D01*
X659074Y378638D01*
X661185Y378638D01*
X663135Y379446D01*
X663693Y380003D01*
X664659Y380655D01*
X665848Y380896D01*
X673872Y380896D01*
X675016Y380673D01*
X676027Y380003D01*
X685514Y370516D01*
X686146Y369594D01*
X686407Y368409D01*
X686184Y367217D01*
X685711Y366502D01*
X684336Y363183D01*
X684336Y359777D01*
X685640Y356629D01*
X688049Y354220D01*
X691197Y352916D01*
X694603Y352916D01*
X697751Y354220D01*
X700492Y356961D01*
X701392Y357583D01*
X702575Y357853D01*
X703769Y357640D01*
X704786Y356978D01*
X705463Y355972D01*
X705628Y355575D01*
X724044Y337159D01*
X724646Y336303D01*
X724935Y335125D01*
X724741Y333927D01*
X724095Y332900D01*
X723100Y332206D01*
X721913Y331955D01*
X720723Y332187D01*
X720103Y332444D01*
X716497Y332444D01*
X713166Y331064D01*
X710616Y328514D01*
X709236Y325183D01*
X709236Y321577D01*
X710616Y318246D01*
X713166Y315696D01*
X716497Y314316D01*
X720103Y314316D01*
X723434Y315696D01*
X725984Y318246D01*
X727364Y321577D01*
X727364Y325183D01*
X727107Y325803D01*
X726879Y326823D01*
X727063Y328022D01*
X727700Y329055D01*
X728690Y329756D01*
X729875Y330017D01*
X731067Y329794D01*
X732079Y329124D01*
X738901Y322302D01*
X739533Y321381D01*
X739793Y320196D01*
X739570Y319003D01*
X738901Y317992D01*
X736440Y315531D01*
X735136Y312383D01*
X735136Y308977D01*
X736440Y305829D01*
X738849Y303420D01*
X741997Y302116D01*
X745403Y302116D01*
X748551Y303420D01*
X750960Y305829D01*
X752264Y308977D01*
X752264Y312383D01*
X750960Y315531D01*
X748496Y317996D01*
X747675Y318534D01*
X746989Y319535D01*
X746748Y320724D01*
X746748Y322420D01*
X746212Y323714D01*
X745818Y324283D01*
X745548Y325466D01*
X745761Y326660D01*
X746423Y327677D01*
X747429Y328355D01*
X748551Y328820D01*
X750960Y331229D01*
X752264Y334377D01*
X752264Y337783D01*
X750960Y340931D01*
X748551Y343340D01*
X745403Y344644D01*
X741997Y344644D01*
X738849Y343340D01*
X736440Y340931D01*
X735975Y339809D01*
X735382Y338890D01*
X734392Y338188D01*
X733208Y337928D01*
X732015Y338150D01*
X731004Y338820D01*
X721040Y348784D01*
X720418Y349683D01*
X720148Y350866D01*
X720361Y352060D01*
X721023Y353077D01*
X722029Y353755D01*
X723151Y354220D01*
X725560Y356629D01*
X726864Y359777D01*
X726864Y363183D01*
X725560Y366331D01*
X723151Y368740D01*
X720003Y370044D01*
X716597Y370044D01*
X713449Y368740D01*
X710988Y366280D01*
X710066Y365647D01*
X708882Y365387D01*
X707689Y365610D01*
X706678Y366280D01*
X697722Y375235D01*
X696602Y375699D01*
X690215Y375699D01*
X689071Y375922D01*
X688060Y376592D01*
X679855Y384797D01*
X679243Y385674D01*
X678963Y386855D01*
X679167Y388051D01*
X679821Y389073D01*
X680821Y389759D01*
X682010Y390000D01*
X702500Y390000D01*
X703576Y389804D01*
X704603Y389158D01*
X705297Y388163D01*
X705548Y386976D01*
X705316Y385786D01*
X705213Y385536D01*
X705213Y383426D01*
X706021Y381475D01*
X707513Y379983D01*
X709464Y379175D01*
X711574Y379175D01*
X713525Y379983D01*
X715017Y381475D01*
X715825Y383426D01*
X715825Y385536D01*
X715722Y385786D01*
X715491Y386855D01*
X715695Y388051D01*
X716348Y389073D01*
X717349Y389759D01*
X718538Y390000D01*
X792380Y390000D01*
X793479Y389795D01*
X794501Y389141D01*
X795187Y388141D01*
X795428Y386952D01*
X795428Y372748D01*
X796124Y371067D01*
X811067Y356124D01*
X812748Y355428D01*
X842624Y355428D01*
X843768Y355205D01*
X844780Y354535D01*
X897004Y302311D01*
X897616Y301434D01*
X897895Y300253D01*
X897691Y299057D01*
X897038Y298035D01*
X896037Y297349D01*
X894848Y297108D01*
X852486Y297108D01*
X850805Y296412D01*
X798264Y243871D01*
X797568Y242190D01*
X797568Y158756D01*
X797380Y157703D01*
X796743Y156671D01*
X795753Y155969D01*
X794569Y155709D01*
X793376Y155931D01*
X792365Y156601D01*
X760777Y188189D01*
X760125Y189156D01*
X759884Y190344D01*
X759884Y265599D01*
X759188Y267280D01*
X750655Y275813D01*
X750023Y276735D01*
X749762Y277920D01*
X749985Y279112D01*
X750655Y280123D01*
X750960Y280429D01*
X752264Y283577D01*
X752264Y286983D01*
X750960Y290131D01*
X748551Y292540D01*
X745403Y293844D01*
X741997Y293844D01*
X738849Y292540D01*
X736440Y290131D01*
X735136Y286983D01*
X735136Y283577D01*
X736440Y280429D01*
X738235Y278633D01*
X738887Y277667D01*
X739128Y276478D01*
X739128Y275392D01*
X739824Y273712D01*
X740960Y272576D01*
X741582Y271677D01*
X741852Y270494D01*
X741639Y269300D01*
X740977Y268283D01*
X739971Y267605D01*
X738849Y267140D01*
X736440Y264731D01*
X735136Y261583D01*
X735136Y258177D01*
X736440Y255029D01*
X738849Y252620D01*
X741997Y251316D01*
X745404Y251316D01*
X746526Y251781D01*
X747595Y252011D01*
X748791Y251808D01*
X749813Y251154D01*
X750499Y250154D01*
X750740Y248965D01*
X750740Y245395D01*
X750544Y244319D01*
X749898Y243292D01*
X748903Y242598D01*
X747716Y242347D01*
X746526Y242579D01*
X745404Y243044D01*
X741997Y243044D01*
X738849Y241740D01*
X736440Y239331D01*
X735136Y236183D01*
X735136Y232777D01*
X736440Y229629D01*
X738849Y227220D01*
X741997Y225916D01*
X745404Y225916D01*
X746526Y226381D01*
X747595Y226611D01*
X748791Y226408D01*
X749813Y225754D01*
X750499Y224754D01*
X750740Y223565D01*
X750740Y219995D01*
X750544Y218919D01*
X749898Y217892D01*
X748903Y217198D01*
X747716Y216947D01*
X746526Y217179D01*
X745404Y217644D01*
X741997Y217644D01*
X738849Y216340D01*
X736440Y213931D01*
X735136Y210783D01*
X735136Y207377D01*
X736440Y204229D01*
X738849Y201820D01*
X741997Y200516D01*
X745404Y200516D01*
X746526Y200981D01*
X747595Y201211D01*
X748791Y201008D01*
X749813Y200354D01*
X750499Y199354D01*
X750740Y198165D01*
X750740Y194595D01*
X750544Y193519D01*
X749898Y192492D01*
X748903Y191798D01*
X747716Y191547D01*
X746526Y191779D01*
X745404Y192244D01*
X741997Y192244D01*
X738849Y190940D01*
X736440Y188531D01*
X735136Y185383D01*
X735136Y181977D01*
X736502Y178678D01*
X736733Y177609D01*
X736529Y176413D01*
X735875Y175391D01*
X734875Y174705D01*
X733686Y174464D01*
X723983Y174464D01*
X722302Y173768D01*
X636400Y87866D01*
X635433Y87214D01*
G37*
%LPC*%
G36*
X668262Y362242D02*
X677080Y362242D01*
X677080Y369572D01*
X675592Y371060D01*
X668262Y371060D01*
X668262Y362242D01*
G37*
G36*
X657920Y362242D02*
X666738Y362242D01*
X666738Y371060D01*
X659408Y371060D01*
X657920Y369572D01*
X657920Y362242D01*
G37*
G36*
X741997Y352916D02*
X745403Y352916D01*
X748551Y354220D01*
X750960Y356629D01*
X752264Y359777D01*
X752264Y363183D01*
X750960Y366331D01*
X748551Y368740D01*
X745403Y370044D01*
X741997Y370044D01*
X738849Y368740D01*
X736440Y366331D01*
X735136Y363183D01*
X735136Y359777D01*
X736440Y356629D01*
X738849Y354220D01*
X741997Y352916D01*
G37*
G36*
X614997Y352916D02*
X618403Y352916D01*
X621551Y354220D01*
X623960Y356629D01*
X625264Y359777D01*
X625264Y363183D01*
X623960Y366331D01*
X621551Y368740D01*
X618403Y370044D01*
X614997Y370044D01*
X611849Y368740D01*
X609440Y366331D01*
X608136Y363183D01*
X608136Y359777D01*
X609440Y356629D01*
X611849Y354220D01*
X614997Y352916D01*
G37*
G36*
X640397Y352916D02*
X643803Y352916D01*
X646951Y354220D01*
X649360Y356629D01*
X650664Y359777D01*
X650664Y363183D01*
X649360Y366331D01*
X646951Y368740D01*
X643803Y370044D01*
X640397Y370044D01*
X637249Y368740D01*
X634840Y366331D01*
X633536Y363183D01*
X633536Y359777D01*
X634840Y356629D01*
X637249Y354220D01*
X640397Y352916D01*
G37*
G36*
X659408Y351900D02*
X666738Y351900D01*
X666738Y360718D01*
X657920Y360718D01*
X657920Y353388D01*
X659408Y351900D01*
G37*
G36*
X668262Y351900D02*
X675592Y351900D01*
X677080Y353388D01*
X677080Y360718D01*
X668262Y360718D01*
X668262Y351900D01*
G37*
G36*
X691097Y314316D02*
X694703Y314316D01*
X698034Y315696D01*
X700584Y318246D01*
X701964Y321577D01*
X701964Y325183D01*
X700584Y328514D01*
X698034Y331064D01*
X694703Y332444D01*
X691097Y332444D01*
X687766Y331064D01*
X685216Y328514D01*
X683836Y325183D01*
X683836Y321577D01*
X685216Y318246D01*
X687766Y315696D01*
X691097Y314316D01*
G37*
G36*
X665697Y314316D02*
X669303Y314316D01*
X672634Y315696D01*
X675184Y318246D01*
X676564Y321577D01*
X676564Y325183D01*
X675184Y328514D01*
X672634Y331064D01*
X669303Y332444D01*
X665697Y332444D01*
X662366Y331064D01*
X659816Y328514D01*
X658436Y325183D01*
X658436Y321577D01*
X659816Y318246D01*
X662366Y315696D01*
X665697Y314316D01*
G37*
G36*
X640297Y314316D02*
X643903Y314316D01*
X647234Y315696D01*
X649784Y318246D01*
X651164Y321577D01*
X651164Y325183D01*
X649784Y328514D01*
X647234Y331064D01*
X643903Y332444D01*
X640297Y332444D01*
X636966Y331064D01*
X634416Y328514D01*
X633036Y325183D01*
X633036Y321577D01*
X634416Y318246D01*
X636966Y315696D01*
X640297Y314316D01*
G37*
G36*
X614897Y269866D02*
X618503Y269866D01*
X621834Y271246D01*
X624384Y273796D01*
X625764Y277127D01*
X625764Y280733D01*
X624384Y284064D01*
X621834Y286614D01*
X618503Y287994D01*
X614897Y287994D01*
X611566Y286614D01*
X609016Y284064D01*
X607636Y280733D01*
X607636Y277127D01*
X609016Y273796D01*
X611566Y271246D01*
X614897Y269866D01*
G37*
G36*
X716497Y269866D02*
X720103Y269866D01*
X723434Y271246D01*
X725984Y273796D01*
X727364Y277127D01*
X727364Y280733D01*
X725984Y284064D01*
X723434Y286614D01*
X720103Y287994D01*
X716497Y287994D01*
X713166Y286614D01*
X710616Y284064D01*
X709236Y280733D01*
X709236Y277127D01*
X710616Y273796D01*
X713166Y271246D01*
X716497Y269866D01*
G37*
G36*
X691097Y269866D02*
X694703Y269866D01*
X698034Y271246D01*
X700584Y273796D01*
X701964Y277127D01*
X701964Y280733D01*
X700584Y284064D01*
X698034Y286614D01*
X694703Y287994D01*
X691097Y287994D01*
X687766Y286614D01*
X685216Y284064D01*
X683836Y280733D01*
X683836Y277127D01*
X685216Y273796D01*
X687766Y271246D01*
X691097Y269866D01*
G37*
G36*
X665697Y269866D02*
X669303Y269866D01*
X672634Y271246D01*
X675184Y273796D01*
X676564Y277127D01*
X676564Y280733D01*
X675184Y284064D01*
X672634Y286614D01*
X669303Y287994D01*
X665697Y287994D01*
X662366Y286614D01*
X659816Y284064D01*
X658436Y280733D01*
X658436Y277127D01*
X659816Y273796D01*
X662366Y271246D01*
X665697Y269866D01*
G37*
G36*
X640297Y269866D02*
X643903Y269866D01*
X647234Y271246D01*
X649784Y273796D01*
X651164Y277127D01*
X651164Y280733D01*
X649784Y284064D01*
X647234Y286614D01*
X643903Y287994D01*
X640297Y287994D01*
X636966Y286614D01*
X634416Y284064D01*
X633036Y280733D01*
X633036Y277127D01*
X634416Y273796D01*
X636966Y271246D01*
X640297Y269866D01*
G37*
%LPD*%
G36*
X291830Y163561D02*
X290649Y163282D01*
X289453Y163485D01*
X288431Y164139D01*
X287745Y165140D01*
X287504Y166328D01*
X287504Y167905D01*
X286429Y170501D01*
X284441Y172489D01*
X281845Y173564D01*
X275564Y173564D01*
X274420Y173787D01*
X273409Y174457D01*
X268233Y179633D01*
X267621Y180510D01*
X267342Y181691D01*
X267545Y182887D01*
X268199Y183909D01*
X269200Y184595D01*
X270388Y184836D01*
X281845Y184836D01*
X284441Y185911D01*
X286429Y187899D01*
X287504Y190495D01*
X287504Y193305D01*
X286429Y195901D01*
X284441Y197889D01*
X281845Y198964D01*
X267955Y198964D01*
X265359Y197889D01*
X263371Y195901D01*
X262296Y193305D01*
X262296Y190495D01*
X263371Y187899D01*
X264995Y186275D01*
X265607Y185398D01*
X265886Y184217D01*
X265683Y183021D01*
X265029Y181999D01*
X264028Y181313D01*
X262839Y181072D01*
X256177Y181072D01*
X255033Y181295D01*
X254022Y181965D01*
X250584Y185403D01*
X249506Y185850D01*
X248551Y186476D01*
X247865Y187477D01*
X247624Y188666D01*
X247624Y194587D01*
X247128Y195082D01*
X246485Y196031D01*
X246236Y197218D01*
X246123Y214802D01*
X246355Y215988D01*
X246650Y216700D01*
X246650Y218811D01*
X246317Y219616D01*
X246085Y220763D01*
X245557Y303094D01*
X245762Y304213D01*
X246416Y305235D01*
X247416Y305921D01*
X248605Y306162D01*
X254510Y306162D01*
X255654Y305939D01*
X256665Y305269D01*
X262242Y299692D01*
X262884Y298748D01*
X263135Y297561D01*
X262903Y296370D01*
X262296Y294905D01*
X262296Y292095D01*
X263371Y289499D01*
X265359Y287511D01*
X267955Y286436D01*
X279412Y286436D01*
X280465Y286248D01*
X281497Y285611D01*
X282199Y284621D01*
X282459Y283437D01*
X282237Y282244D01*
X281567Y281233D01*
X276391Y276057D01*
X275425Y275405D01*
X274236Y275164D01*
X267955Y275164D01*
X265359Y274089D01*
X263371Y272101D01*
X262296Y269505D01*
X262296Y266695D01*
X263371Y264099D01*
X265359Y262111D01*
X267955Y261036D01*
X281845Y261036D01*
X284441Y262111D01*
X286429Y264099D01*
X287504Y266695D01*
X287504Y269505D01*
X286897Y270970D01*
X286665Y272088D01*
X286888Y273281D01*
X287558Y274292D01*
X290301Y277035D01*
X291268Y277687D01*
X292456Y277928D01*
X395484Y277928D01*
X396560Y277732D01*
X397587Y277086D01*
X398281Y276091D01*
X398532Y274904D01*
X398380Y274124D01*
X398380Y272962D01*
X413762Y272962D01*
X413762Y271438D01*
X398380Y271438D01*
X398380Y270493D01*
X398429Y270374D01*
X398660Y269305D01*
X398456Y268109D01*
X397803Y267087D01*
X396802Y266401D01*
X395613Y266160D01*
X391987Y266160D01*
X390307Y265464D01*
X310053Y185211D01*
X309357Y183530D01*
X309357Y181107D01*
X309152Y180008D01*
X308499Y178986D01*
X307498Y178300D01*
X306309Y178059D01*
X304520Y178059D01*
X302570Y177251D01*
X301077Y175759D01*
X300269Y173808D01*
X300269Y172998D01*
X300047Y171854D01*
X299377Y170842D01*
X292707Y164173D01*
X291830Y163561D01*
G37*
%LPC*%
G36*
X261280Y243462D02*
X274138Y243462D01*
X274138Y250780D01*
X267753Y250780D01*
X264783Y249550D01*
X262510Y247277D01*
X261280Y244307D01*
X261280Y243462D01*
G37*
G36*
X275662Y243462D02*
X288520Y243462D01*
X288520Y244307D01*
X287290Y247277D01*
X285017Y249550D01*
X282047Y250780D01*
X275662Y250780D01*
X275662Y243462D01*
G37*
G36*
X267753Y234620D02*
X274138Y234620D01*
X274138Y241938D01*
X261280Y241938D01*
X261280Y241093D01*
X262510Y238123D01*
X264783Y235850D01*
X267753Y234620D01*
G37*
G36*
X275662Y234620D02*
X282047Y234620D01*
X285017Y235850D01*
X287290Y238123D01*
X288520Y241093D01*
X288520Y241938D01*
X275662Y241938D01*
X275662Y234620D01*
G37*
G36*
X267955Y210236D02*
X281845Y210236D01*
X284441Y211311D01*
X286429Y213299D01*
X287504Y215895D01*
X287504Y218705D01*
X286429Y221301D01*
X284441Y223289D01*
X281845Y224364D01*
X267955Y224364D01*
X265359Y223289D01*
X263371Y221301D01*
X262296Y218705D01*
X262296Y215895D01*
X263371Y213299D01*
X265359Y211311D01*
X267955Y210236D01*
G37*
%LPD*%
G36*
X581574Y10401D02*
X580385Y10160D01*
X250463Y10160D01*
X249383Y10358D01*
X248357Y11005D01*
X247665Y12001D01*
X247415Y13188D01*
X247091Y63788D01*
X247296Y64907D01*
X247950Y65929D01*
X248950Y66615D01*
X250139Y66856D01*
X313863Y66856D01*
X315007Y66633D01*
X316018Y65963D01*
X324452Y57530D01*
X326132Y56834D01*
X402278Y56834D01*
X403959Y57530D01*
X404169Y57741D01*
X405136Y58392D01*
X406325Y58633D01*
X424982Y58633D01*
X426662Y59329D01*
X432336Y65003D01*
X433303Y65655D01*
X434491Y65896D01*
X578672Y65896D01*
X579771Y65691D01*
X580793Y65037D01*
X581479Y64037D01*
X581720Y62848D01*
X581720Y57442D01*
X600880Y57442D01*
X600880Y62848D01*
X601085Y63947D01*
X601739Y64969D01*
X602739Y65655D01*
X603928Y65896D01*
X606686Y65896D01*
X607762Y65700D01*
X608789Y65054D01*
X609483Y64059D01*
X609734Y62872D01*
X609502Y61682D01*
X608136Y58383D01*
X608136Y54977D01*
X609440Y51829D01*
X611849Y49420D01*
X614997Y48116D01*
X618403Y48116D01*
X621551Y49420D01*
X623960Y51829D01*
X625264Y54977D01*
X625264Y58383D01*
X623898Y61682D01*
X623667Y62751D01*
X623871Y63947D01*
X624525Y64969D01*
X625525Y65655D01*
X626714Y65896D01*
X656797Y65896D01*
X658478Y66592D01*
X730429Y138543D01*
X731285Y139145D01*
X732463Y139434D01*
X733660Y139240D01*
X734687Y138594D01*
X735381Y137599D01*
X735632Y136412D01*
X735400Y135222D01*
X735136Y134583D01*
X735136Y131177D01*
X736440Y128029D01*
X738849Y125620D01*
X741997Y124316D01*
X745403Y124316D01*
X748551Y125620D01*
X750960Y128029D01*
X752264Y131177D01*
X752264Y133716D01*
X752487Y134860D01*
X753157Y135871D01*
X759188Y141902D01*
X759884Y143583D01*
X759884Y155470D01*
X760072Y156523D01*
X760709Y157555D01*
X761699Y158257D01*
X762883Y158518D01*
X764076Y158295D01*
X765087Y157625D01*
X773741Y148972D01*
X774392Y148005D01*
X774633Y146817D01*
X774633Y138218D01*
X774401Y137052D01*
X773899Y135840D01*
X773899Y133729D01*
X774707Y131779D01*
X775973Y130514D01*
X776605Y129592D01*
X776865Y128407D01*
X776642Y127214D01*
X776209Y126561D01*
X775428Y124674D01*
X775428Y117620D01*
X775223Y116521D01*
X774569Y115499D01*
X773569Y114813D01*
X772380Y114572D01*
X761732Y114572D01*
X760052Y113876D01*
X756396Y110220D01*
X755497Y109598D01*
X754314Y109328D01*
X753120Y109541D01*
X752103Y110203D01*
X751425Y111209D01*
X750960Y112331D01*
X748551Y114740D01*
X745403Y116044D01*
X741997Y116044D01*
X738849Y114740D01*
X736440Y112331D01*
X735136Y109183D01*
X735136Y105777D01*
X735601Y104654D01*
X735831Y103585D01*
X735628Y102389D01*
X734974Y101367D01*
X733974Y100681D01*
X732785Y100440D01*
X732459Y100440D01*
X730778Y99744D01*
X663999Y32965D01*
X663033Y32313D01*
X661844Y32072D01*
X628434Y32072D01*
X627267Y32304D01*
X626055Y32806D01*
X623945Y32806D01*
X621994Y31998D01*
X620502Y30506D01*
X619694Y28555D01*
X619694Y26445D01*
X620502Y24494D01*
X621994Y23002D01*
X623945Y22194D01*
X626055Y22194D01*
X627267Y22696D01*
X628434Y22928D01*
X665909Y22928D01*
X667590Y23624D01*
X729933Y85967D01*
X730810Y86579D01*
X731991Y86858D01*
X733187Y86655D01*
X734209Y86001D01*
X734895Y85001D01*
X735136Y83812D01*
X735136Y80377D01*
X736440Y77229D01*
X738849Y74820D01*
X741997Y73516D01*
X745403Y73516D01*
X748551Y74820D01*
X750960Y77229D01*
X752264Y80377D01*
X752264Y81510D01*
X752478Y82632D01*
X753140Y83648D01*
X754146Y84326D01*
X754256Y84372D01*
X764419Y94535D01*
X765386Y95187D01*
X766575Y95428D01*
X784668Y95428D01*
X786349Y96124D01*
X812605Y122380D01*
X813482Y122992D01*
X814663Y123271D01*
X815859Y123068D01*
X816881Y122414D01*
X817567Y121414D01*
X817808Y120225D01*
X817808Y118036D01*
X817585Y116892D01*
X816915Y115881D01*
X763179Y62145D01*
X762213Y61493D01*
X761024Y61252D01*
X752502Y61252D01*
X751358Y61475D01*
X750347Y62145D01*
X748551Y63940D01*
X745403Y65244D01*
X741997Y65244D01*
X738849Y63940D01*
X736440Y61531D01*
X735136Y58383D01*
X735136Y54977D01*
X736440Y51829D01*
X738849Y49420D01*
X741997Y48116D01*
X745403Y48116D01*
X748551Y49420D01*
X750347Y51215D01*
X751313Y51867D01*
X752502Y52108D01*
X765089Y52108D01*
X766770Y52804D01*
X826256Y112290D01*
X826952Y113971D01*
X826952Y232188D01*
X827175Y233332D01*
X827845Y234344D01*
X836202Y242701D01*
X837169Y243353D01*
X838358Y243594D01*
X872593Y243594D01*
X873715Y243380D01*
X874731Y242719D01*
X875086Y242192D01*
X878371Y238907D01*
X879880Y238282D01*
X880781Y237705D01*
X881491Y236722D01*
X881760Y235539D01*
X881547Y234345D01*
X880886Y233328D01*
X879880Y232650D01*
X878371Y232025D01*
X875299Y228953D01*
X873636Y224939D01*
X873636Y220594D01*
X875299Y216579D01*
X878371Y213507D01*
X878552Y213432D01*
X879453Y212855D01*
X880163Y211872D01*
X880433Y210689D01*
X880220Y209495D01*
X879558Y208478D01*
X878552Y207800D01*
X877796Y207487D01*
X874437Y204128D01*
X872620Y199741D01*
X872620Y198128D01*
X885320Y198128D01*
X885320Y185428D01*
X886933Y185428D01*
X891320Y187246D01*
X894679Y190604D01*
X894992Y191360D01*
X895568Y192261D01*
X896552Y192971D01*
X897735Y193241D01*
X898929Y193028D01*
X899946Y192366D01*
X900624Y191360D01*
X900699Y191179D01*
X903771Y188107D01*
X907785Y186444D01*
X912131Y186444D01*
X916145Y188107D01*
X919217Y191179D01*
X920880Y195194D01*
X920880Y199539D01*
X919217Y203553D01*
X916145Y206625D01*
X914636Y207250D01*
X913735Y207827D01*
X913025Y208810D01*
X912756Y209993D01*
X912969Y211187D01*
X913630Y212204D01*
X914636Y212882D01*
X916145Y213507D01*
X919217Y216579D01*
X920880Y220594D01*
X920880Y224939D01*
X919217Y228953D01*
X916145Y232025D01*
X914636Y232650D01*
X913735Y233227D01*
X913025Y234210D01*
X912756Y235393D01*
X912969Y236587D01*
X913630Y237604D01*
X914636Y238282D01*
X916145Y238907D01*
X919217Y241979D01*
X920880Y245994D01*
X920880Y250605D01*
X920759Y251190D01*
X920981Y252382D01*
X921651Y253394D01*
X922137Y253879D01*
X923014Y254491D01*
X924195Y254770D01*
X925391Y254567D01*
X926413Y253913D01*
X927099Y252913D01*
X927340Y251724D01*
X927340Y13208D01*
X927135Y12109D01*
X926481Y11087D01*
X925481Y10401D01*
X924292Y10160D01*
X894700Y10160D01*
X893647Y10348D01*
X892615Y10985D01*
X891913Y11975D01*
X891653Y13159D01*
X891875Y14352D01*
X892545Y15363D01*
X900531Y23349D01*
X901475Y23990D01*
X902661Y24241D01*
X903285Y24120D01*
X907931Y24120D01*
X911945Y25783D01*
X915017Y28855D01*
X916680Y32869D01*
X916680Y37215D01*
X915017Y41229D01*
X911945Y44301D01*
X910436Y44926D01*
X909535Y45503D01*
X908825Y46486D01*
X908556Y47669D01*
X908769Y48863D01*
X909430Y49880D01*
X910436Y50558D01*
X911945Y51183D01*
X915017Y54255D01*
X916680Y58269D01*
X916680Y62615D01*
X915017Y66629D01*
X911945Y69701D01*
X907931Y71364D01*
X903585Y71364D01*
X899571Y69701D01*
X896499Y66629D01*
X895874Y65120D01*
X895297Y64219D01*
X894314Y63509D01*
X893131Y63240D01*
X891937Y63453D01*
X890920Y64114D01*
X890242Y65120D01*
X889617Y66629D01*
X886545Y69701D01*
X882531Y71364D01*
X878185Y71364D01*
X874171Y69701D01*
X871099Y66629D01*
X870474Y65120D01*
X869897Y64219D01*
X868914Y63509D01*
X867731Y63240D01*
X866537Y63453D01*
X865520Y64114D01*
X864842Y65120D01*
X864217Y66629D01*
X861145Y69701D01*
X857131Y71364D01*
X852785Y71364D01*
X848771Y69701D01*
X845699Y66629D01*
X845074Y65120D01*
X844497Y64219D01*
X843514Y63509D01*
X842331Y63240D01*
X841137Y63453D01*
X840120Y64114D01*
X839442Y65120D01*
X838817Y66629D01*
X835745Y69701D01*
X831731Y71364D01*
X827385Y71364D01*
X823371Y69701D01*
X820299Y66629D01*
X818636Y62615D01*
X818636Y58269D01*
X820299Y54255D01*
X823371Y51183D01*
X823552Y51108D01*
X824453Y50531D01*
X825163Y49548D01*
X825433Y48365D01*
X825220Y47171D01*
X824558Y46154D01*
X823552Y45476D01*
X822796Y45163D01*
X819437Y41804D01*
X817620Y37417D01*
X817620Y35804D01*
X830320Y35804D01*
X830320Y34280D01*
X817620Y34280D01*
X817620Y32667D01*
X819437Y28280D01*
X822796Y24921D01*
X824108Y24378D01*
X824991Y23818D01*
X825709Y22840D01*
X825988Y21659D01*
X825784Y20463D01*
X825131Y19441D01*
X824130Y18755D01*
X822941Y18514D01*
X770934Y18514D01*
X769767Y18746D01*
X768555Y19248D01*
X766445Y19248D01*
X764494Y18440D01*
X763002Y16948D01*
X762194Y14997D01*
X762194Y13208D01*
X761989Y12109D01*
X761335Y11087D01*
X760335Y10401D01*
X759146Y10160D01*
X602215Y10160D01*
X601139Y10356D01*
X600112Y11002D01*
X599418Y11997D01*
X599167Y13184D01*
X599399Y14374D01*
X599864Y15497D01*
X599864Y32983D01*
X598560Y36131D01*
X596151Y38540D01*
X593003Y39844D01*
X589597Y39844D01*
X586449Y38540D01*
X584653Y36745D01*
X583687Y36093D01*
X582498Y35852D01*
X572730Y35852D01*
X571586Y36075D01*
X570575Y36745D01*
X558161Y49159D01*
X557500Y50148D01*
X556998Y51360D01*
X555506Y52852D01*
X553555Y53660D01*
X551445Y53660D01*
X549494Y52852D01*
X548002Y51360D01*
X547194Y49409D01*
X547194Y47299D01*
X548002Y45348D01*
X549494Y43856D01*
X550706Y43354D01*
X551695Y42693D01*
X566984Y27404D01*
X568665Y26708D01*
X579688Y26708D01*
X580787Y26503D01*
X581809Y25849D01*
X582495Y24849D01*
X582736Y23660D01*
X582736Y15497D01*
X583201Y14374D01*
X583431Y13305D01*
X583228Y12109D01*
X582574Y11087D01*
X581574Y10401D01*
G37*
%LPC*%
G36*
X882183Y185428D02*
X883796Y185428D01*
X883796Y196604D01*
X872620Y196604D01*
X872620Y194991D01*
X874437Y190604D01*
X877796Y187246D01*
X882183Y185428D01*
G37*
G36*
X592062Y47100D02*
X599392Y47100D01*
X600880Y48588D01*
X600880Y55918D01*
X592062Y55918D01*
X592062Y47100D01*
G37*
G36*
X583208Y47100D02*
X590538Y47100D01*
X590538Y55918D01*
X581720Y55918D01*
X581720Y48588D01*
X583208Y47100D01*
G37*
G36*
X734120Y32042D02*
X742938Y32042D01*
X742938Y40860D01*
X735608Y40860D01*
X734120Y39372D01*
X734120Y32042D01*
G37*
G36*
X744462Y32042D02*
X753280Y32042D01*
X753280Y39372D01*
X751792Y40860D01*
X744462Y40860D01*
X744462Y32042D01*
G37*
G36*
X744462Y21700D02*
X751792Y21700D01*
X753280Y23188D01*
X753280Y30518D01*
X744462Y30518D01*
X744462Y21700D01*
G37*
G36*
X735608Y21700D02*
X742938Y21700D01*
X742938Y30518D01*
X734120Y30518D01*
X734120Y23188D01*
X735608Y21700D01*
G37*
%LPD*%
G36*
X400869Y108854D02*
X399688Y108575D01*
X398492Y108779D01*
X397470Y109432D01*
X396784Y110433D01*
X396543Y111622D01*
X396543Y113936D01*
X396748Y115035D01*
X397402Y116057D01*
X398402Y116743D01*
X399591Y116984D01*
X399984Y116984D01*
X400877Y117877D01*
X400877Y125178D01*
X401100Y126322D01*
X401770Y127333D01*
X401893Y127456D01*
X401893Y128889D01*
X386145Y128889D01*
X386145Y126656D01*
X385922Y125512D01*
X385252Y124501D01*
X378413Y117661D01*
X378413Y111827D01*
X378225Y110774D01*
X377587Y109741D01*
X376598Y109040D01*
X375413Y108779D01*
X374221Y109002D01*
X373209Y109672D01*
X372796Y110085D01*
X372145Y111051D01*
X371904Y112240D01*
X371904Y117457D01*
X358844Y130517D01*
X358192Y131483D01*
X357951Y132672D01*
X357951Y141426D01*
X357058Y142318D01*
X356665Y142318D01*
X355566Y142523D01*
X354544Y143177D01*
X353858Y144177D01*
X353617Y145366D01*
X353617Y146038D01*
X342757Y156898D01*
X342106Y157864D01*
X341864Y159053D01*
X341864Y166275D01*
X342087Y167419D01*
X342757Y168430D01*
X352802Y178475D01*
X353679Y179087D01*
X354860Y179366D01*
X356056Y179163D01*
X357078Y178509D01*
X357764Y177508D01*
X358005Y176319D01*
X358005Y170166D01*
X359493Y168678D01*
X366283Y168678D01*
X366283Y179480D01*
X367807Y179480D01*
X367807Y168678D01*
X374597Y168678D01*
X374720Y168801D01*
X375687Y169453D01*
X376876Y169694D01*
X391176Y169694D01*
X392069Y170587D01*
X392069Y171098D01*
X392274Y172197D01*
X392928Y173219D01*
X393928Y173905D01*
X395117Y174146D01*
X397506Y174146D01*
X398582Y173950D01*
X399609Y173304D01*
X400303Y172309D01*
X400554Y171122D01*
X400322Y169932D01*
X399772Y168604D01*
X399772Y167074D01*
X399549Y165930D01*
X398880Y164919D01*
X391495Y157535D01*
X391495Y145366D01*
X391290Y144268D01*
X390636Y143246D01*
X389636Y142560D01*
X388447Y142318D01*
X388054Y142318D01*
X387161Y141426D01*
X387161Y134125D01*
X386938Y132981D01*
X386268Y131970D01*
X386145Y131846D01*
X386145Y130413D01*
X401893Y130413D01*
X401893Y132647D01*
X402116Y133791D01*
X402786Y134802D01*
X405680Y137696D01*
X405680Y143792D01*
X405902Y144936D01*
X406572Y145947D01*
X407101Y146476D01*
X408068Y147128D01*
X409256Y147369D01*
X414066Y147369D01*
X415233Y147137D01*
X416445Y146635D01*
X418234Y146635D01*
X419333Y146430D01*
X420355Y145776D01*
X421041Y144776D01*
X421282Y143587D01*
X421282Y130265D01*
X421059Y129121D01*
X420389Y128110D01*
X401746Y109467D01*
X400869Y108854D01*
G37*
D10*
X805300Y551300D03*
X805300Y534300D03*
D11*
X47600Y215743D03*
X30600Y215743D03*
D10*
X408200Y475900D03*
X408200Y492900D03*
D11*
X486800Y446800D03*
X503800Y446800D03*
X405200Y429300D03*
X422200Y429300D03*
X212100Y170155D03*
X195100Y170155D03*
D10*
X193200Y292000D03*
X193200Y309000D03*
D11*
X72100Y251288D03*
X89100Y251288D03*
X384045Y178718D03*
X367045Y178718D03*
D10*
X184700Y115055D03*
X184700Y132055D03*
D11*
X706200Y467200D03*
X689200Y467200D03*
D10*
X77211Y144033D03*
X77211Y161033D03*
D11*
X123300Y282255D03*
X140300Y282255D03*
D12*
X530300Y545000D03*
X530300Y508000D03*
X530300Y486000D03*
X530300Y449000D03*
X556645Y508000D03*
X556645Y545000D03*
X556556Y447267D03*
X556556Y484267D03*
D13*
X272900Y584340D03*
X323700Y616090D03*
D14*
X323700Y546240D03*
D15*
X657700Y515850D03*
X709700Y515850D03*
X657700Y503150D03*
X657700Y528550D03*
X657700Y541250D03*
X709700Y503150D03*
X709700Y528550D03*
X709700Y541250D03*
X441340Y385750D03*
X389340Y385750D03*
X441340Y398450D03*
X441340Y373050D03*
X441340Y360350D03*
X389340Y398450D03*
X389340Y373050D03*
X389340Y360350D03*
D16*
X280440Y293500D02*
X269360Y293500D01*
X269360Y268100D02*
X280440Y268100D01*
X280440Y242700D02*
X269360Y242700D01*
X269360Y217300D02*
X280440Y217300D01*
X280440Y191900D02*
X269360Y191900D01*
X269360Y166500D02*
X280440Y166500D01*
X280440Y141100D02*
X269360Y141100D01*
X269360Y115700D02*
X280440Y115700D01*
X523360Y115700D02*
X534440Y115700D01*
X534440Y141100D02*
X523360Y141100D01*
X523360Y166500D02*
X534440Y166500D01*
X534440Y191900D02*
X523360Y191900D01*
X523360Y217300D02*
X534440Y217300D01*
X534440Y242700D02*
X523360Y242700D01*
X523360Y268100D02*
X534440Y268100D01*
X534440Y293500D02*
X523360Y293500D01*
D17*
X743700Y31280D03*
X667500Y361480D03*
X591300Y56680D03*
D18*
X591300Y31280D02*
X591300Y17200D01*
D19*
X591300Y82080D03*
D20*
X692900Y361480D03*
X718300Y361480D03*
X642100Y361480D03*
X616700Y361480D03*
X591300Y361480D03*
X743700Y361480D03*
X743700Y56680D03*
X743700Y82080D03*
X743700Y107480D03*
X743700Y132880D03*
X743700Y158280D03*
X743700Y183680D03*
X743700Y209080D03*
X743700Y234480D03*
X743700Y259880D03*
X743700Y285280D03*
X743700Y310680D03*
X743700Y336080D03*
X616700Y56680D03*
X591300Y336080D03*
X591300Y310680D03*
X591300Y285280D03*
X591300Y259880D03*
X591300Y234480D03*
X591300Y209080D03*
X591300Y183680D03*
X591300Y158280D03*
X591300Y132880D03*
X591300Y107480D03*
D21*
X616700Y323380D03*
X642100Y323380D03*
X667500Y323380D03*
X692900Y323380D03*
X718300Y323380D03*
X616700Y278930D03*
X642100Y278930D03*
X667500Y278930D03*
X692900Y278930D03*
X718300Y278930D03*
D22*
X122650Y180255D03*
X122650Y128255D03*
X109950Y180255D03*
X135350Y180255D03*
X148050Y180255D03*
X109950Y128255D03*
X135350Y128255D03*
X148050Y128255D03*
D23*
X748270Y609512D03*
X748270Y546012D03*
X748270Y482512D03*
X913370Y609512D03*
X913370Y546012D03*
X913370Y482512D03*
X49170Y609700D03*
X49170Y546200D03*
X49170Y482700D03*
X214270Y609700D03*
X214270Y546200D03*
X214270Y482700D03*
D24*
X408360Y297200D02*
X420440Y297200D01*
X419040Y272200D02*
X406960Y272200D01*
D10*
X806400Y504200D03*
X806400Y487200D03*
D11*
X33660Y252609D03*
X16660Y252609D03*
D10*
X498600Y475300D03*
X498600Y492300D03*
X441400Y493000D03*
X441400Y476000D03*
X471400Y493800D03*
X471400Y476800D03*
X481400Y162100D03*
X481400Y145100D03*
X481400Y215400D03*
X481400Y198400D03*
X478600Y241300D03*
X478600Y258300D03*
X488500Y400900D03*
X488500Y383900D03*
X513500Y401700D03*
X513500Y384700D03*
X238600Y170455D03*
X238600Y187455D03*
X713500Y427500D03*
X713500Y410500D03*
X673500Y425800D03*
X673500Y408800D03*
X743500Y426600D03*
X743500Y409600D03*
D11*
X214200Y104355D03*
X231200Y104355D03*
X122900Y251455D03*
X139900Y251455D03*
X122256Y213955D03*
X139256Y213955D03*
D10*
X623900Y546600D03*
X623900Y529600D03*
X82122Y211999D03*
X82122Y194999D03*
D11*
X215100Y134355D03*
X232100Y134355D03*
D10*
X34078Y146664D03*
X34078Y129664D03*
D11*
X44011Y186599D03*
X27011Y186599D03*
D25*
X394019Y139651D03*
X394019Y134651D03*
X394019Y129651D03*
X394019Y124651D03*
X394019Y119651D03*
X351093Y119651D03*
X351093Y124651D03*
X351093Y129651D03*
X351093Y134651D03*
X351093Y139651D03*
D26*
X884558Y273566D03*
X909958Y273566D03*
X884558Y248166D03*
X909958Y248166D03*
X884558Y222766D03*
X909958Y222766D03*
X884558Y197366D03*
X909958Y197366D03*
X44958Y307378D03*
X19558Y307378D03*
X44958Y332778D03*
X19558Y332778D03*
X44958Y358178D03*
X19558Y358178D03*
X44958Y383578D03*
X19558Y383578D03*
X905758Y60442D03*
X905758Y35042D03*
X880358Y60442D03*
X880358Y35042D03*
X854958Y60442D03*
X854958Y35042D03*
X829558Y60442D03*
X829558Y35042D03*
X111900Y32058D03*
X111900Y57458D03*
X137300Y32058D03*
X137300Y57458D03*
X162700Y32058D03*
X162700Y57458D03*
X188100Y32058D03*
X188100Y57458D03*
D27*
X702080Y548870D02*
X709700Y541250D01*
X805300Y551300D02*
X805300Y552729D01*
X793474Y564554D01*
X655960Y568354D02*
X649040Y568354D01*
X627286Y546600D02*
X623900Y546600D01*
X675444Y548870D02*
X702080Y548870D01*
X649040Y568354D02*
X627286Y546600D01*
X655960Y568354D02*
X675444Y548870D01*
X717285Y541250D02*
X740590Y564554D01*
X717285Y541250D02*
X709700Y541250D01*
X740590Y564554D02*
X793474Y564554D01*
X806400Y533200D02*
X806400Y504200D01*
X806400Y533200D02*
X805300Y534300D01*
X92989Y128255D02*
X77211Y144033D01*
X92989Y128255D02*
X109950Y128255D01*
X709700Y470700D02*
X709700Y503150D01*
X709700Y470700D02*
X706200Y467200D01*
X389340Y398450D02*
X351395Y436395D01*
X405200Y429300D02*
X405200Y414310D01*
X389340Y398450D01*
D28*
X52500Y150455D03*
D27*
X58923Y144033D01*
X77211Y144033D01*
D28*
X279989Y399246D03*
D27*
X286390Y399246D02*
X323539Y436395D01*
X286390Y399246D02*
X279989Y399246D01*
X323539Y436395D02*
X351395Y436395D01*
D28*
X135000Y360000D03*
D27*
X174246Y399246D01*
X279989Y399246D01*
X50745Y291363D02*
X39171Y291363D01*
X23157Y307378D02*
X19558Y307378D01*
X23157Y307378D02*
X39171Y291363D01*
X257666Y310734D02*
X274900Y293500D01*
X216646Y323066D02*
X216646Y329986D01*
X221540Y334880D01*
X228978Y310734D02*
X257666Y310734D01*
X228978Y310734D02*
X216646Y323066D01*
D28*
X101330Y308389D03*
D27*
X94202Y308389D01*
D28*
X75000Y122955D03*
D27*
X75000Y141821D01*
X77211Y144033D01*
D28*
X690000Y565000D03*
D27*
X620000Y635000D01*
X432500Y635000D02*
X430000Y632500D01*
D28*
X430000Y632500D03*
D27*
X298048Y569214D02*
X298048Y523266D01*
X323700Y497614D02*
X323700Y464090D01*
X323700Y497614D02*
X298048Y523266D01*
X323700Y464090D02*
X351395Y436395D01*
D28*
X264873Y337628D03*
D27*
X262125Y334880D01*
X221540Y334880D01*
X298048Y569214D02*
X298048Y590438D01*
X323700Y616090D01*
X432500Y635000D02*
X620000Y635000D01*
D28*
X727623Y465123D03*
D27*
X725546Y467200D02*
X706200Y467200D01*
X725546Y467200D02*
X727623Y465123D01*
X62604Y303222D02*
X50745Y291363D01*
X62604Y303222D02*
X62604Y307061D01*
X71961Y316419D01*
X86172Y316419D01*
X94202Y308389D01*
X91044Y164411D02*
X80590Y164411D01*
X77211Y161033D01*
X91044Y164411D02*
X95000Y160455D01*
X140000Y160455D01*
X148050Y168505D01*
X148050Y180255D01*
X689200Y467200D02*
X689200Y533300D01*
X682500Y540000D01*
X681250Y541250D01*
X657700Y541250D01*
X422200Y429300D02*
X422200Y365300D01*
X422500Y365000D01*
X427150Y360350D01*
X441340Y360350D01*
X96015Y347500D02*
X81036Y347500D01*
X44958Y383578D01*
X657700Y541250D02*
X657700Y554800D01*
X652500Y560000D01*
D28*
X652500Y560000D03*
D27*
X165000Y163305D02*
X148050Y180255D01*
X165000Y163305D02*
X165000Y162955D01*
D28*
X165000Y162955D03*
X109257Y360743D03*
D27*
X96015Y347500D01*
X70212Y588658D02*
X49170Y609700D01*
X441340Y360350D02*
X462150Y360350D01*
X274900Y121259D02*
X274900Y115700D01*
X290552Y136911D02*
X290552Y155552D01*
X290552Y136911D02*
X274900Y121259D01*
D28*
X675000Y565000D03*
X497500Y626646D03*
D27*
X416272Y435228D02*
X422200Y429300D01*
X416272Y435228D02*
X416272Y438694D01*
X413594Y441372D01*
X396806Y441372D01*
X392934Y437500D01*
X355000Y497500D02*
X417500Y560000D01*
D28*
X417500Y560000D03*
D27*
X355000Y497500D02*
X323700Y528800D01*
X323700Y546240D01*
D28*
X273844Y422279D03*
X62500Y75000D03*
X469772Y352938D03*
D27*
X469562Y352938D02*
X462150Y360350D01*
X469562Y352938D02*
X469772Y352938D01*
X675000Y565000D02*
X613354Y626646D01*
X497500Y626646D01*
X55212Y588658D02*
X45212Y578658D01*
X55212Y588658D02*
X60212Y588658D01*
X44958Y452266D02*
X44958Y383578D01*
X60212Y588658D02*
X70212Y588658D01*
X67712Y490380D02*
X67712Y475020D01*
X67712Y538520D02*
X67712Y553880D01*
X67712Y475020D02*
X44958Y452266D01*
X51850Y522658D02*
X67712Y538520D01*
X51850Y522658D02*
X51850Y506242D01*
X67712Y490380D01*
X45212Y576380D02*
X45212Y578658D01*
X45212Y576380D02*
X67712Y553880D01*
X232812Y463311D02*
X273844Y422279D01*
X232812Y463311D02*
X232812Y490380D01*
X134534Y588658D01*
X70212Y588658D01*
X355000Y445303D02*
X362803Y437500D01*
X392934Y437500D01*
X355000Y445303D02*
X355000Y497500D01*
D28*
X305575Y172753D03*
D27*
X305575Y170575D02*
X290552Y155552D01*
X305575Y170575D02*
X305575Y172753D01*
X623900Y529600D02*
X656650Y529600D01*
X657700Y528550D01*
X623900Y529600D02*
X617972Y535528D01*
X614506Y535528D01*
X611828Y538206D01*
X530300Y449000D02*
X532033Y447267D01*
X556556Y447267D01*
X408200Y475900D02*
X402272Y481828D01*
X441340Y373050D02*
X454350Y373050D01*
X476428Y395128D01*
X476428Y409294D01*
X512154Y430854D02*
X530300Y449000D01*
X195100Y170155D02*
X185000Y180255D01*
X152944Y195827D02*
X143156Y195827D01*
X140478Y193149D01*
X168516Y180255D02*
X185000Y180255D01*
X140478Y185383D02*
X140478Y193149D01*
X140478Y185383D02*
X135350Y180255D01*
X161658Y187113D02*
X168516Y180255D01*
X161658Y187113D02*
X152944Y195827D01*
X151408Y271147D02*
X140300Y282255D01*
X161658Y187113D02*
X161658Y184374D01*
X173354Y172678D01*
X173354Y153559D01*
X148050Y128255D01*
D28*
X365000Y363354D03*
D27*
X368004Y360350D01*
X389340Y360350D01*
D28*
X290000Y370000D03*
D27*
X358354Y370000D01*
X365000Y363354D01*
D28*
X600000Y551646D03*
D27*
X611828Y539818D02*
X611828Y538206D01*
X611828Y539818D02*
X600000Y551646D01*
X485686Y430854D02*
X480792Y425960D01*
X485686Y430854D02*
X512154Y430854D01*
X480792Y413658D02*
X476428Y409294D01*
X480792Y413658D02*
X480792Y425960D01*
D28*
X395907Y526593D03*
D27*
X555000Y445711D02*
X556556Y447267D01*
D28*
X579879Y508268D03*
D27*
X579879Y531525D01*
X600000Y551646D01*
D28*
X241344Y217756D03*
D27*
X188673Y217756D01*
X183474Y222955D01*
X173816Y189790D02*
X166895Y189790D01*
X160858Y195827D02*
X152944Y195827D01*
X160858Y195827D02*
X166895Y189790D01*
X173816Y189790D02*
X183474Y199448D01*
X183474Y222955D01*
X169191Y271147D02*
X151408Y271147D01*
X169191Y271147D02*
X188948Y251390D01*
X183474Y224682D02*
X183474Y222955D01*
X183474Y224682D02*
X188948Y230156D01*
X188948Y251390D01*
D28*
X530503Y436774D03*
D27*
X555000Y440926D02*
X555000Y445711D01*
X555000Y440926D02*
X550846Y436773D01*
X530503Y436774D01*
X402272Y481828D02*
X398806Y481828D01*
X395907Y484727D01*
X395907Y526593D01*
X238600Y170455D02*
X232100Y163955D01*
X232100Y134355D01*
X232100Y150155D02*
X212100Y170155D01*
X232100Y150155D02*
X232100Y134355D01*
X231200Y133455D01*
X231200Y104355D01*
X215100Y134355D02*
X187000Y134355D01*
X184700Y132055D01*
X135350Y128255D02*
X135350Y120489D01*
X143156Y112683D01*
X155566Y112683D01*
X174938Y132055D02*
X184700Y132055D01*
X174938Y132055D02*
X155566Y112683D01*
X122500Y112955D02*
X122500Y128105D01*
X122650Y128255D01*
X205242Y104355D02*
X214200Y104355D01*
X205242Y104355D02*
X197250Y96363D01*
X182500Y96363D01*
X184700Y98563D02*
X184700Y115055D01*
X184700Y98563D02*
X182500Y96363D01*
X115116Y112955D02*
X114844Y112683D01*
X115116Y112955D02*
X122500Y112955D01*
X51059Y112683D02*
X34078Y129664D01*
X51059Y112683D02*
X114844Y112683D01*
X162690Y109030D02*
X169610Y109030D01*
X182277Y96363D02*
X182500Y96363D01*
X162690Y109030D02*
X158723Y105063D01*
X130392Y105063D01*
X122500Y112955D01*
X169610Y109030D02*
X182277Y96363D01*
X31077Y264699D02*
X41833Y275455D01*
X622500Y505000D02*
X633350Y515850D01*
X657700Y515850D01*
X31077Y264699D02*
X31077Y256876D01*
X31077Y247766D01*
D28*
X621646Y505000D03*
D27*
X622500Y505000D01*
X369996Y454996D02*
X366712Y454996D01*
X369996Y454996D02*
X377500Y462500D01*
D28*
X65046Y275455D03*
D27*
X65046Y275455D01*
X41833Y275455D01*
X31077Y264699D02*
X31077Y264699D01*
X31077Y264699D01*
X31077Y256876D02*
X32949Y256876D01*
X32949Y256876D01*
X33393Y256876D01*
X32949Y256876D02*
X32949Y256876D01*
X33393Y256876D02*
X33393Y252609D01*
X33393Y256876D02*
X32949Y256876D01*
X33393Y252609D02*
X33393Y252609D01*
X33660Y252609D01*
X31077Y247766D02*
X30600Y247289D01*
X30600Y215743D01*
D28*
X389885Y462500D03*
D27*
X377500Y462500D01*
D28*
X363407Y448710D03*
D27*
X363407Y451691D01*
X366712Y454996D01*
X34078Y146664D02*
X27011Y153732D01*
X27011Y186599D01*
X14400Y264376D02*
X14077Y264699D01*
X14400Y256876D02*
X14400Y205755D01*
X14400Y256876D02*
X14400Y264376D01*
X27011Y193145D02*
X27011Y186599D01*
X27011Y193145D02*
X14400Y205755D01*
X108581Y282255D02*
X123300Y282255D01*
X14077Y264699D02*
X14077Y264699D01*
X14400Y256876D02*
X15949Y256876D01*
X14077Y264699D02*
X14077Y264699D01*
X22588Y273210D01*
X22588Y274093D01*
X32238Y283743D01*
X15949Y256876D02*
X15949Y256876D01*
X16393Y256876D02*
X16393Y252609D01*
X16393Y256876D02*
X15949Y256876D01*
X15949Y256876D01*
X16393Y256876D01*
X16393Y252609D02*
X16393Y252609D01*
X16660Y252609D01*
X70224Y303905D02*
X75117Y308799D01*
X82038Y308799D01*
X108581Y282255D01*
X53901Y283743D02*
X32238Y283743D01*
X53901Y283743D02*
X70224Y300066D01*
X70224Y303905D01*
D28*
X494910Y300565D03*
D27*
X491365Y297021D02*
X486078Y297021D01*
X491365Y297021D02*
X494910Y300565D01*
X451288Y273006D02*
X451288Y262230D01*
X451288Y273006D02*
X462894Y284612D01*
X473670Y284612D01*
X486078Y297021D01*
D29*
X337292Y158793D02*
X351093Y144992D01*
X351093Y139651D01*
D27*
X358651Y190790D02*
X379848Y190790D01*
X358651Y190790D02*
X337292Y169431D01*
X337292Y158793D01*
X379848Y190790D02*
X451288Y262230D01*
D28*
X465000Y292966D03*
D27*
X464266Y292232D01*
X459737Y292232D01*
X437272Y264648D02*
X426592Y253968D01*
X437272Y269767D02*
X459737Y292232D01*
X437272Y269767D02*
X437272Y264648D01*
D29*
X335735Y144963D02*
X344714Y135984D01*
X349760Y135984D02*
X351093Y134651D01*
X349760Y135984D02*
X344714Y135984D01*
D27*
X376383Y203759D02*
X426592Y253968D01*
D29*
X335735Y144970D02*
X335735Y144963D01*
D28*
X710519Y384481D03*
D27*
X710519Y407519D02*
X713500Y410500D01*
X710519Y407519D02*
X710519Y384481D01*
X376383Y203759D02*
X353344Y203759D01*
X325395Y175810D02*
X325395Y155310D01*
X335735Y144970D01*
X325395Y175810D02*
X353344Y203759D01*
D28*
X504739Y306497D03*
D27*
X504739Y298580D01*
X494106Y287947D01*
X483151Y276992D01*
X466050Y276992D01*
X458908Y269850D01*
D29*
X351093Y129651D02*
X352426Y128318D01*
X357473Y128318D01*
X369380Y116411D01*
X369380Y107036D01*
D27*
X458908Y253787D02*
X458908Y269850D01*
X369380Y107036D02*
X369380Y104734D01*
X395865Y88280D02*
X400759Y93174D01*
X385833Y88280D02*
X369380Y104734D01*
X385833Y88280D02*
X395865Y88280D01*
X400759Y93174D02*
X400759Y102013D01*
X425854Y127108D01*
X418427Y176790D02*
X418427Y213306D01*
X458908Y253787D01*
X425854Y169363D02*
X425854Y127108D01*
X425854Y169363D02*
X418427Y176790D01*
D28*
X584106Y405960D03*
D27*
X660660Y395960D02*
X673500Y408800D01*
X660660Y395960D02*
X594106Y395960D01*
X584106Y405960D01*
X743500Y409600D02*
X768586Y409600D01*
D28*
X775999Y402186D03*
D27*
X768586Y409600D01*
X709700Y515850D02*
X709700Y528550D01*
X556645Y545000D02*
X530300Y545000D01*
X732594Y510722D02*
X735272Y508044D01*
X732594Y510722D02*
X714828Y510722D01*
X709700Y515850D01*
X530300Y523966D02*
X530300Y545000D01*
X209026Y334117D02*
X209026Y324826D01*
X193200Y309000D01*
X417681Y337490D02*
X451643Y337490D01*
X517334Y478292D02*
X522228Y483186D01*
X501592Y478292D02*
X498600Y475300D01*
X501592Y478292D02*
X517334Y478292D01*
X566724Y534921D02*
X556645Y545000D01*
X584970Y501100D02*
X596100Y501100D01*
X584970Y501100D02*
X581117Y497247D01*
X417681Y337490D02*
X409190Y345982D01*
X220891Y345982D01*
X209026Y334117D01*
X497753Y337711D02*
X533192Y373150D01*
X479545Y329344D02*
X459789Y329344D01*
X451643Y337490D01*
X487912Y337711D02*
X497753Y337711D01*
X487912Y337711D02*
X479545Y329344D01*
X522228Y483186D02*
X522228Y515894D01*
X530300Y523966D01*
X566724Y534921D02*
X566724Y509608D01*
X579085Y497247D01*
X581117Y497247D01*
X596100Y501100D02*
X575804Y480804D01*
X575804Y438517D01*
X650648Y455128D02*
X729442Y455128D01*
X729728Y474832D02*
X729728Y490193D01*
X735272Y495737D01*
X735272Y508044D01*
X735977Y461662D02*
X729442Y455128D01*
X735977Y461662D02*
X735977Y468583D01*
X729728Y474832D01*
X544101Y406814D02*
X540534Y406814D01*
X544101Y406814D02*
X575804Y438517D01*
X616737Y480463D02*
X596100Y501100D01*
X616737Y480463D02*
X625314Y480463D01*
X650648Y455128D01*
X540534Y406814D02*
X533192Y399473D01*
X533192Y373150D01*
X829558Y35042D02*
X825796Y31280D01*
X743700Y31280D01*
X274900Y242700D02*
X264900Y242700D01*
X849558Y197366D02*
X884558Y197366D01*
X849558Y197366D02*
X847500Y195308D01*
X847500Y80000D01*
X817500Y80000D01*
X805000Y67500D01*
X805000Y59600D01*
X829558Y35042D01*
X743700Y31280D02*
X679556Y31280D01*
X621540Y19146D02*
X616646Y24040D01*
X616646Y31334D02*
X591300Y56680D01*
X616646Y31334D02*
X616646Y24040D01*
X667422Y19146D02*
X679556Y31280D01*
X667422Y19146D02*
X621540Y19146D01*
X304400Y272200D02*
X274900Y242700D01*
X304400Y272200D02*
X413000Y272200D01*
X264900Y242700D02*
X262281Y240081D01*
X415734Y53786D02*
X425429Y53786D01*
X555988Y56680D02*
X591300Y56680D01*
X555988Y56680D02*
X555960Y56708D01*
X428351Y56708D01*
X425429Y53786D01*
D28*
X530000Y570000D03*
X617500Y464489D03*
X415792Y128861D03*
D29*
X415001Y129651D02*
X394019Y129651D01*
X415001Y129651D02*
X415792Y128861D01*
D27*
X415734Y53786D02*
X407694Y53786D01*
X406629Y54851D01*
D28*
X406629Y54851D03*
D27*
X351103Y162776D02*
X367045Y178718D01*
X514496Y554496D02*
X530000Y570000D01*
D28*
X513874Y512368D03*
D27*
X514496Y512990D01*
X514496Y554496D01*
X262281Y240081D02*
X211656Y240081D01*
X157410Y294327D02*
X128895Y294327D01*
X157410Y294327D02*
X211656Y240081D01*
X610644Y457633D02*
X617500Y464489D01*
X563260Y404421D02*
X563260Y395000D01*
X563260Y404421D02*
X568509Y409670D01*
X79098Y324039D02*
X44958Y358178D01*
X79098Y324039D02*
X99184Y324039D01*
X128895Y294327D01*
D28*
X345646Y159957D03*
D27*
X348465Y162776D02*
X351103Y162776D01*
X348465Y162776D02*
X345646Y159957D01*
X572420Y385840D02*
X643140Y385840D01*
X572420Y385840D02*
X563260Y395000D01*
X643140Y385840D02*
X667500Y361480D01*
X570945Y409670D02*
X568509Y409670D01*
X570945Y409670D02*
X610644Y449369D01*
X610644Y457633D01*
X560023Y504622D02*
X556645Y508000D01*
X560023Y504622D02*
X560023Y487734D01*
X556556Y484267D01*
X530300Y486000D02*
X530300Y508000D01*
D28*
X199782Y263770D03*
D27*
X193200Y270352D02*
X193200Y292000D01*
X193200Y270352D02*
X199782Y263770D01*
X260133Y105588D02*
X242500Y87955D01*
X260133Y105588D02*
X284629Y105588D01*
X290552Y111511D01*
X290552Y126135D01*
D28*
X166150Y100676D03*
D27*
X178871Y87955D01*
X242500Y87955D01*
X423436Y261588D02*
X429652Y267804D01*
X429652Y272923D01*
X508199Y314851D02*
X512370Y310680D01*
X591300Y310680D01*
X461369Y304641D02*
X429652Y272923D01*
X461369Y304641D02*
X487171Y304641D01*
X497381Y314851D01*
X508199Y314851D01*
X313929Y149512D02*
X290552Y126135D01*
X313929Y182621D02*
X392897Y261588D01*
X423436Y261588D01*
X313929Y182621D02*
X313929Y149512D01*
D28*
X225000Y326526D03*
D27*
X225974Y326526D01*
X585311Y330091D02*
X591300Y336080D01*
X482702Y321724D02*
X230776Y321724D01*
X225974Y326526D01*
X491068Y330091D02*
X585311Y330091D01*
X491068Y330091D02*
X482702Y321724D01*
X165630Y240329D02*
X139256Y213955D01*
D28*
X171641Y243974D03*
D27*
X167996Y240329D02*
X165630Y240329D01*
X167996Y240329D02*
X171641Y243974D01*
X109950Y180255D02*
X97044Y180255D01*
X82300Y194999D01*
X82122Y194999D01*
X73706Y227427D02*
X107232Y227427D01*
D28*
X113090Y233286D03*
D27*
X107232Y227427D01*
X72728Y200927D02*
X70050Y203605D01*
X76194Y200927D02*
X82122Y194999D01*
X76194Y200927D02*
X72728Y200927D01*
X70050Y203605D02*
X70050Y223771D01*
X73706Y227427D01*
X752982Y487200D02*
X806400Y487200D01*
X752982Y487200D02*
X748294Y482512D01*
X748270Y482512D01*
D28*
X170356Y198144D03*
D27*
X104578Y253600D02*
X91411Y253600D01*
X89100Y251288D01*
X104578Y253600D02*
X114506Y263527D01*
X181328Y247967D02*
X181328Y233312D01*
X170356Y222340D01*
X181328Y247967D02*
X165768Y263527D01*
X114506Y263527D01*
X170356Y222340D02*
X170356Y198144D01*
D28*
X137500Y232149D03*
D27*
X139900Y235355D02*
X139900Y251455D01*
X137500Y232955D02*
X137500Y232149D01*
X137500Y232955D02*
X139900Y235355D01*
X122256Y250812D02*
X122256Y213955D01*
X122256Y250812D02*
X122900Y251455D01*
X117522Y185383D02*
X122650Y180255D01*
X117522Y209221D02*
X122256Y213955D01*
X117522Y209221D02*
X117522Y185383D01*
X103618Y211999D02*
X121444Y229826D01*
X103618Y211999D02*
X82122Y211999D01*
X121444Y250000D02*
X122900Y251455D01*
X121444Y250000D02*
X121444Y229826D01*
X47600Y226788D02*
X47600Y215743D01*
X47600Y226788D02*
X72100Y251288D01*
D28*
X325000Y355000D03*
D27*
X180000Y355000D01*
D28*
X78578Y300445D03*
D27*
X83400Y295622D01*
X83400Y269521D01*
X172500Y362500D02*
X180000Y355000D01*
X172500Y362500D02*
X172500Y377500D01*
D28*
X172500Y377500D03*
X615000Y498354D03*
D27*
X651196Y496646D02*
X657700Y503150D01*
X651196Y496646D02*
X616708Y496646D01*
X615000Y498354D01*
X47600Y215743D02*
X46354Y215743D01*
X44011Y213400D01*
X44011Y186599D01*
X72100Y251288D02*
X77850Y257038D01*
X77850Y263971D01*
X83400Y269521D01*
X472900Y492300D02*
X498600Y492300D01*
X472900Y492300D02*
X471400Y493800D01*
X442200Y493800D02*
X441400Y493000D01*
X442200Y493800D02*
X471400Y493800D01*
X422500Y492900D02*
X408200Y492900D01*
X422500Y492900D02*
X441300Y492900D01*
X441400Y493000D01*
X441468Y385878D02*
X441340Y385750D01*
X441468Y385878D02*
X449234Y385878D01*
X468808Y405452D01*
X468808Y412450D01*
X471400Y415042D01*
X471400Y447500D01*
X471400Y476800D02*
X471400Y415042D01*
X472100Y446800D02*
X486800Y446800D01*
X472100Y446800D02*
X471400Y447500D01*
X448272Y405382D02*
X441340Y398450D01*
X448272Y405382D02*
X448272Y461194D01*
X441400Y468066D02*
X441400Y476000D01*
X441400Y468066D02*
X448272Y461194D01*
X495000Y407400D02*
X488500Y400900D01*
X495000Y407400D02*
X495000Y421167D01*
D28*
X430000Y452500D03*
D27*
X430000Y464600D01*
X441400Y476000D01*
X503800Y446800D02*
X516572Y459572D01*
D28*
X489413Y421167D03*
D27*
X495000Y421167D01*
X430000Y452500D02*
X426492Y448992D01*
X380716Y448992D01*
X378366Y446642D01*
X516572Y459572D02*
X560217Y459572D01*
X495480Y421646D02*
X495000Y421167D01*
X560217Y459572D02*
X564628Y455161D01*
X548157Y421646D02*
X495480Y421646D01*
X564628Y438118D02*
X564628Y455161D01*
X564628Y438118D02*
X548157Y421646D01*
D28*
X372495Y446642D03*
D27*
X378366Y446642D01*
D30*
X743700Y321813D02*
X743700Y310680D01*
X743700Y321813D02*
X708212Y357301D01*
X708212Y360435D01*
D28*
X660130Y383944D03*
D30*
X676397Y383944D01*
X687690Y372651D01*
X695996Y372651D02*
X708212Y360435D01*
X695996Y372651D02*
X687690Y372651D01*
D27*
X528900Y293500D02*
X521232Y285832D01*
X516015Y285832D01*
X505628Y275445D01*
X505628Y264040D01*
X499888Y258300D01*
X478600Y258300D01*
X602912Y213890D02*
X602912Y204270D01*
X591300Y192658D02*
X591300Y183680D01*
X591300Y192658D02*
X602912Y204270D01*
X536568Y260432D02*
X528900Y268100D01*
X536568Y260432D02*
X548926Y260432D01*
X586490Y222868D01*
X593934Y222868D02*
X602912Y213890D01*
X593934Y222868D02*
X586490Y222868D01*
X591300Y158280D02*
X540521Y158280D01*
X538629Y156388D01*
X518612Y156388D01*
X517620Y231420D02*
X528900Y242700D01*
X517620Y225861D02*
X513248Y221489D01*
X517620Y225861D02*
X517620Y231420D01*
X513248Y161752D02*
X518612Y156388D01*
X513248Y161752D02*
X513248Y221489D01*
X528900Y166500D02*
X571480Y209080D01*
X591300Y209080D01*
X487328Y204328D02*
X481400Y198400D01*
X487328Y204328D02*
X490794Y204328D01*
X493472Y207006D01*
X493472Y212489D01*
X510000Y229017D01*
X583334Y215248D02*
X585132Y215248D01*
X591300Y209080D01*
X583334Y215248D02*
X545770Y252812D01*
X519171Y252812D01*
X510000Y243641D02*
X510000Y229017D01*
X510000Y243641D02*
X519171Y252812D01*
X528900Y141100D02*
X485400Y141100D01*
X481400Y145100D01*
X528900Y115700D02*
X546080Y132880D01*
X591300Y132880D01*
X244528Y181527D02*
X238600Y187455D01*
X244528Y181527D02*
X247994Y181527D01*
X264900Y176500D02*
X274900Y166500D01*
X264900Y176500D02*
X253021Y176500D01*
X247994Y181527D01*
X488500Y383900D02*
X494428Y389828D01*
X497894Y389828D01*
X509766Y401700D02*
X513500Y401700D01*
X509766Y401700D02*
X497894Y389828D01*
X391312Y373002D02*
X391264Y373050D01*
X389340Y373050D01*
X404912Y365244D02*
X404912Y361035D01*
X513500Y401700D02*
X519428Y395772D01*
X522894Y395772D01*
X404912Y365244D02*
X397154Y373002D01*
X391312Y373002D01*
X514474Y365208D02*
X525572Y376306D01*
X420837Y345110D02*
X404912Y361035D01*
X420837Y345110D02*
X454799Y345110D01*
X462945Y336964D02*
X476389Y336964D01*
X462945Y336964D02*
X454799Y345110D01*
X504633Y365208D02*
X514474Y365208D01*
X504633Y365208D02*
X476389Y336964D01*
X525572Y393094D02*
X522894Y395772D01*
X525572Y393094D02*
X525572Y376306D01*
X513500Y384700D02*
X509766Y384700D01*
X402234Y380622D02*
X394468Y380622D01*
X389340Y385750D01*
X402234Y380622D02*
X412532Y370324D01*
X412532Y364192D01*
D28*
X337400Y378877D03*
D27*
X412532Y364192D02*
X423994Y352730D01*
X457956Y352730D01*
X480854Y355788D02*
X509766Y384700D01*
X466102Y344584D02*
X457956Y352730D01*
X466102Y344584D02*
X473233Y344584D01*
X480854Y352205D01*
X480854Y355788D01*
X389340Y385750D02*
X384212Y380622D01*
X376446Y380622D01*
X374701Y378877D01*
X337400Y378877D01*
X713500Y427500D02*
X714300Y428300D01*
X472006Y209472D02*
X469328Y206794D01*
X469328Y190006D01*
X475472Y209472D02*
X481400Y215400D01*
X475472Y209472D02*
X472006Y209472D01*
X481400Y177934D02*
X481400Y162100D01*
X481400Y177934D02*
X469328Y190006D01*
X596110Y299068D02*
X602912Y305870D01*
X502380Y236380D02*
X481400Y215400D01*
X519171Y278212D02*
X544212Y278212D01*
X565068Y299068D01*
X596110Y299068D01*
X502380Y246797D02*
X502380Y236380D01*
X502380Y246797D02*
X513248Y257665D01*
X602912Y305870D02*
X602912Y327500D01*
X289300Y282500D02*
X274900Y268100D01*
X289300Y282500D02*
X390000Y282500D01*
X402252Y282500D01*
X402564Y282812D01*
X513248Y272289D02*
X519171Y278212D01*
X513248Y272289D02*
X513248Y257665D01*
X424460Y282812D02*
X402564Y282812D01*
X597883Y322471D02*
X602912Y327500D01*
X453909Y312261D02*
X424460Y282812D01*
X453909Y312261D02*
X484015Y312261D01*
X494225Y322471D01*
X597883Y322471D01*
D28*
X584158Y470343D03*
D27*
X602500Y452001D01*
X565353Y417290D02*
X555640Y407577D01*
X713500Y427500D02*
X714300Y428300D01*
X800000Y373657D02*
X813657Y360000D01*
X845781Y360000D01*
X924292Y262500D02*
X909958Y248166D01*
X924292Y262500D02*
X924292Y281489D01*
X845781Y360000D01*
X713500Y427500D02*
X675200Y427500D01*
X673500Y425800D01*
X713500Y427500D02*
X742600Y427500D01*
X743500Y426600D01*
X620960Y472843D02*
X614040Y472843D01*
X611540Y470343D01*
X584158Y470343D01*
X620960Y472843D02*
X668003Y425800D01*
X673500Y425800D01*
D28*
X567500Y362486D03*
D27*
X567789Y417290D02*
X565353Y417290D01*
X567789Y417290D02*
X602500Y452001D01*
X602912Y340890D02*
X602912Y327500D01*
X602912Y340890D02*
X593934Y349868D01*
X586490Y349868D01*
X573872Y362486D02*
X567500Y362486D01*
X573872Y362486D02*
X586490Y349868D01*
X567500Y362486D02*
X567500Y379984D01*
X555640Y391844D01*
X555640Y407577D01*
X800000Y392500D02*
X800000Y373657D01*
X800000Y392500D02*
X765900Y426600D01*
X743500Y426600D01*
X762642Y110000D02*
X780000Y110000D01*
X733368Y95868D02*
X720000Y82500D01*
X748510Y95868D02*
X762642Y110000D01*
X748510Y95868D02*
X733368Y95868D01*
X720000Y82500D02*
X665000Y27500D01*
X625000Y27500D01*
D28*
X625000Y27500D03*
X409079Y514577D03*
D27*
X418784Y504872D01*
X506494Y504872D01*
D28*
X513874Y486646D03*
D27*
X513874Y497492D01*
X506494Y504872D01*
D28*
X552500Y48354D03*
D27*
X569574Y31280D01*
X591300Y31280D01*
X780000Y110000D02*
X780000Y123765D01*
X853395Y292536D02*
X895345Y292536D01*
X802140Y145905D02*
X780000Y123765D01*
X909958Y273566D02*
X909958Y277923D01*
X895345Y292536D01*
X853395Y292536D02*
X802140Y241281D01*
X802140Y145905D01*
X589408Y105588D02*
X489412Y105588D01*
X589408Y105588D02*
X591300Y107480D01*
X489412Y105588D02*
X451828Y143172D01*
X451828Y214528D02*
X478600Y241300D01*
X451828Y214528D02*
X451828Y143172D01*
X134442Y80000D02*
X111900Y57458D01*
X748510Y169892D02*
X752951Y165451D01*
X748510Y169892D02*
X724892Y169892D01*
X752951Y165451D02*
X755312Y163090D01*
X755312Y144492D01*
X743700Y132880D01*
X596110Y93692D02*
X586490Y93692D01*
X607401Y82401D02*
X637401Y82401D01*
X586490Y93692D02*
X572798Y80000D01*
X596110Y93692D02*
X607401Y82401D01*
X637401Y82401D02*
X724892Y169892D01*
X319224Y80000D02*
X134442Y80000D01*
X430091Y80000D02*
X572798Y80000D01*
X328398Y70825D02*
X319224Y80000D01*
X420916Y70825D02*
X430091Y80000D01*
X420916Y70825D02*
X328398Y70825D01*
X137943Y57458D02*
X137300Y57458D01*
X137943Y57458D02*
X151913Y71428D01*
X655888Y70468D02*
X743700Y158280D01*
X317019Y71428D02*
X151913Y71428D01*
X317019Y71428D02*
X327041Y61406D01*
X431335Y70468D02*
X655888Y70468D01*
X403168Y63205D02*
X401369Y61406D01*
X327041Y61406D01*
X424072Y63205D02*
X431335Y70468D01*
X424072Y63205D02*
X403168Y63205D01*
D28*
X497274Y267500D03*
D27*
X489866Y267500D01*
X487994Y269372D01*
X469206Y269372D02*
X466528Y266694D01*
X469206Y269372D02*
X487994Y269372D01*
X466528Y266694D02*
X466528Y249593D01*
X426781Y209846D01*
D29*
X394019Y156489D02*
X394019Y139651D01*
D28*
X426781Y209846D03*
X405078Y167548D03*
D29*
X394019Y156489D01*
D28*
X767500Y13942D03*
D27*
X884658Y13942D02*
X905758Y35042D01*
X884658Y13942D02*
X767500Y13942D01*
D29*
X399065Y134651D02*
X394019Y134651D01*
X403156Y138741D02*
X403156Y148996D01*
X403156Y138741D02*
X399065Y134651D01*
D28*
X417500Y151941D03*
D27*
X406100Y151941D01*
X403156Y148996D01*
X413432Y156009D02*
X417500Y151941D01*
X413432Y156009D02*
X413432Y171009D01*
X405723Y178718D01*
X384045Y178718D01*
D29*
X351093Y124651D02*
X328410Y124651D01*
X323863Y120104D01*
D27*
X299504Y95745D01*
X294704Y95745D01*
D28*
X294704Y95745D03*
D29*
X337279Y119651D02*
X351093Y119651D01*
X337279Y119651D02*
X331775Y114148D01*
D27*
X306261Y88633D01*
X304749Y88633D01*
D28*
X304749Y88633D03*
X380937Y104991D03*
D29*
X392686Y123318D02*
X394019Y124651D01*
X392686Y123318D02*
X387640Y123318D01*
X380937Y116615D01*
X380937Y104991D01*
X394019Y98249D02*
X394019Y119651D01*
X394019Y98249D02*
X392405Y96634D01*
D28*
X392405Y96634D03*
D27*
X743700Y56680D02*
X764180Y56680D01*
X822380Y114880D01*
X835201Y248166D02*
X884558Y248166D01*
X822380Y235345D02*
X822380Y114880D01*
X822380Y235345D02*
X835201Y248166D01*
X749868Y88248D02*
X743700Y82080D01*
X749868Y88248D02*
X751666Y88248D01*
X763418Y100000D01*
X783759Y100000D01*
X814760Y131001D01*
X845201Y273566D02*
X884558Y273566D01*
X814760Y243125D02*
X814760Y131001D01*
X814760Y243125D02*
X845201Y273566D01*
X751666Y177512D02*
X749868Y177512D01*
X743700Y183680D01*
D28*
X779205Y134784D03*
D27*
X779205Y149973D02*
X751666Y177512D01*
X779205Y149973D02*
X779205Y134784D01*
X615000Y236180D02*
X591300Y259880D01*
D28*
X617881Y90755D03*
D27*
X615000Y93636D02*
X615000Y236180D01*
X615000Y93636D02*
X617881Y90755D01*
X755312Y264690D02*
X743700Y276302D01*
X755312Y264690D02*
X755312Y187188D01*
X743700Y276302D02*
X743700Y285280D01*
D28*
X789061Y144640D03*
D27*
X789061Y153439D02*
X755312Y187188D01*
X789061Y153439D02*
X789061Y144640D01*
M02*
