G04 EAGLE Gerber RS-274X export*
G75*
%MOMM*%
%FSLAX34Y34*%
%LPD*%
%INSilkscreen Bottom*%
%IPPOS*%
%AMOC8*
5,1,8,0,0,1.08239X$1,22.5*%
G01*
G04 Define Apertures*
%ADD10C,0.101600*%
%ADD11R,1.450100X0.750100*%
%ADD12C,0.152400*%
%ADD13R,0.750100X1.450100*%
%ADD14C,0.203200*%
%ADD15C,0.127000*%
%ADD16R,1.400000X0.200000*%
%ADD17R,1.100000X0.490000*%
%ADD18C,0.076200*%
%ADD19C,0.254000*%
%ADD20R,0.490000X1.100000*%
G36*
X386465Y141758D02*
X385422Y142388D01*
X387043Y144578D01*
X384573Y145217D01*
X384967Y146373D01*
X387279Y145471D01*
X387165Y148055D01*
X388356Y148055D01*
X388251Y145454D01*
X390590Y146391D01*
X390984Y145217D01*
X388532Y144578D01*
X390187Y142406D01*
X389145Y141775D01*
X387778Y144017D01*
X386465Y141758D01*
G37*
G36*
X397514Y148108D02*
X396471Y148738D01*
X398092Y150928D01*
X395622Y151567D01*
X396016Y152723D01*
X398328Y151821D01*
X398214Y154405D01*
X399405Y154405D01*
X399300Y151804D01*
X401639Y152741D01*
X402033Y151567D01*
X399581Y150928D01*
X401236Y148756D01*
X400194Y148125D01*
X398827Y150367D01*
X397514Y148108D01*
G37*
G36*
X340552Y141683D02*
X343346Y141683D01*
X343346Y137619D01*
X340552Y137619D01*
X340552Y141683D01*
G37*
D10*
X798700Y546610D02*
X798700Y538990D01*
X811900Y538990D02*
X811900Y546360D01*
D11*
X805289Y549972D03*
X805289Y535494D03*
D12*
X806821Y564454D02*
X808288Y564454D01*
X808288Y564453D02*
X808362Y564455D01*
X808437Y564461D01*
X808510Y564470D01*
X808584Y564483D01*
X808656Y564500D01*
X808727Y564520D01*
X808798Y564544D01*
X808867Y564572D01*
X808935Y564603D01*
X809000Y564637D01*
X809065Y564675D01*
X809127Y564716D01*
X809187Y564760D01*
X809244Y564807D01*
X809299Y564857D01*
X809352Y564910D01*
X809402Y564965D01*
X809449Y565022D01*
X809493Y565082D01*
X809534Y565144D01*
X809572Y565209D01*
X809606Y565275D01*
X809637Y565342D01*
X809665Y565411D01*
X809689Y565482D01*
X809709Y565553D01*
X809726Y565626D01*
X809739Y565699D01*
X809748Y565773D01*
X809754Y565847D01*
X809756Y565921D01*
X809756Y569590D01*
X809754Y569664D01*
X809748Y569739D01*
X809739Y569812D01*
X809726Y569885D01*
X809709Y569958D01*
X809689Y570029D01*
X809665Y570100D01*
X809637Y570169D01*
X809606Y570236D01*
X809572Y570302D01*
X809534Y570367D01*
X809493Y570429D01*
X809449Y570489D01*
X809402Y570546D01*
X809352Y570601D01*
X809299Y570654D01*
X809244Y570704D01*
X809187Y570751D01*
X809127Y570795D01*
X809065Y570836D01*
X809000Y570874D01*
X808935Y570908D01*
X808867Y570939D01*
X808798Y570967D01*
X808728Y570991D01*
X808656Y571011D01*
X808584Y571028D01*
X808510Y571041D01*
X808437Y571050D01*
X808362Y571056D01*
X808288Y571058D01*
X806821Y571058D01*
X803624Y569590D02*
X801790Y571058D01*
X801790Y564454D01*
X803624Y564454D02*
X799955Y564454D01*
D10*
X42910Y222343D02*
X35290Y222343D01*
X35290Y209143D02*
X42660Y209143D01*
D13*
X46271Y215755D03*
X31793Y215755D03*
D12*
X46000Y227519D02*
X47468Y227519D01*
X47468Y227518D02*
X47542Y227520D01*
X47617Y227526D01*
X47690Y227535D01*
X47764Y227548D01*
X47836Y227565D01*
X47907Y227585D01*
X47978Y227609D01*
X48047Y227637D01*
X48115Y227668D01*
X48180Y227702D01*
X48245Y227740D01*
X48307Y227781D01*
X48367Y227825D01*
X48424Y227872D01*
X48479Y227922D01*
X48532Y227975D01*
X48582Y228030D01*
X48629Y228087D01*
X48673Y228147D01*
X48714Y228209D01*
X48752Y228274D01*
X48786Y228340D01*
X48817Y228407D01*
X48845Y228476D01*
X48869Y228547D01*
X48889Y228618D01*
X48906Y228691D01*
X48919Y228764D01*
X48928Y228838D01*
X48934Y228912D01*
X48936Y228986D01*
X48935Y228986D02*
X48935Y232655D01*
X48936Y232655D02*
X48934Y232729D01*
X48928Y232804D01*
X48919Y232877D01*
X48906Y232950D01*
X48889Y233023D01*
X48869Y233094D01*
X48845Y233165D01*
X48817Y233234D01*
X48786Y233301D01*
X48752Y233367D01*
X48714Y233432D01*
X48673Y233494D01*
X48629Y233554D01*
X48582Y233611D01*
X48532Y233666D01*
X48479Y233719D01*
X48424Y233769D01*
X48367Y233816D01*
X48307Y233860D01*
X48245Y233901D01*
X48180Y233939D01*
X48115Y233973D01*
X48047Y234004D01*
X47978Y234032D01*
X47908Y234056D01*
X47836Y234076D01*
X47764Y234093D01*
X47690Y234106D01*
X47617Y234115D01*
X47542Y234121D01*
X47468Y234123D01*
X46000Y234123D01*
X42804Y232655D02*
X40970Y234123D01*
X40970Y227519D01*
X42804Y227519D02*
X39135Y227519D01*
X35489Y230821D02*
X35487Y230966D01*
X35481Y231111D01*
X35472Y231256D01*
X35458Y231401D01*
X35441Y231545D01*
X35419Y231688D01*
X35394Y231832D01*
X35365Y231974D01*
X35333Y232115D01*
X35296Y232256D01*
X35256Y232395D01*
X35212Y232534D01*
X35165Y232671D01*
X35114Y232807D01*
X35059Y232941D01*
X35001Y233074D01*
X34939Y233206D01*
X34939Y233205D02*
X34913Y233274D01*
X34884Y233341D01*
X34851Y233407D01*
X34815Y233470D01*
X34775Y233532D01*
X34732Y233591D01*
X34686Y233648D01*
X34637Y233702D01*
X34585Y233754D01*
X34530Y233803D01*
X34473Y233848D01*
X34413Y233891D01*
X34351Y233930D01*
X34288Y233966D01*
X34222Y233999D01*
X34155Y234027D01*
X34086Y234053D01*
X34016Y234074D01*
X33945Y234092D01*
X33873Y234105D01*
X33800Y234115D01*
X33727Y234121D01*
X33654Y234123D01*
X33654Y234122D02*
X33581Y234120D01*
X33508Y234114D01*
X33435Y234104D01*
X33364Y234091D01*
X33292Y234073D01*
X33222Y234052D01*
X33154Y234026D01*
X33086Y233998D01*
X33021Y233965D01*
X32957Y233929D01*
X32895Y233890D01*
X32836Y233848D01*
X32779Y233802D01*
X32724Y233753D01*
X32672Y233702D01*
X32623Y233647D01*
X32577Y233590D01*
X32534Y233531D01*
X32494Y233470D01*
X32458Y233406D01*
X32425Y233341D01*
X32396Y233274D01*
X32370Y233205D01*
X32370Y233206D02*
X32308Y233074D01*
X32250Y232941D01*
X32195Y232807D01*
X32144Y232671D01*
X32097Y232534D01*
X32053Y232395D01*
X32013Y232256D01*
X31976Y232115D01*
X31944Y231974D01*
X31915Y231832D01*
X31890Y231689D01*
X31868Y231545D01*
X31851Y231401D01*
X31837Y231256D01*
X31828Y231111D01*
X31822Y230966D01*
X31820Y230821D01*
X35488Y230821D02*
X35486Y230676D01*
X35480Y230531D01*
X35471Y230386D01*
X35457Y230241D01*
X35440Y230097D01*
X35418Y229954D01*
X35393Y229811D01*
X35365Y229668D01*
X35332Y229527D01*
X35295Y229386D01*
X35255Y229247D01*
X35211Y229108D01*
X35164Y228971D01*
X35113Y228835D01*
X35058Y228701D01*
X35000Y228568D01*
X34938Y228436D01*
X34939Y228436D02*
X34913Y228367D01*
X34884Y228300D01*
X34851Y228234D01*
X34815Y228171D01*
X34775Y228109D01*
X34732Y228050D01*
X34686Y227993D01*
X34637Y227939D01*
X34585Y227887D01*
X34530Y227838D01*
X34473Y227793D01*
X34413Y227750D01*
X34351Y227711D01*
X34288Y227675D01*
X34222Y227642D01*
X34155Y227614D01*
X34086Y227588D01*
X34016Y227567D01*
X33945Y227549D01*
X33873Y227536D01*
X33800Y227526D01*
X33727Y227520D01*
X33654Y227518D01*
X32370Y228436D02*
X32308Y228568D01*
X32250Y228701D01*
X32195Y228835D01*
X32144Y228971D01*
X32097Y229108D01*
X32053Y229247D01*
X32013Y229386D01*
X31976Y229527D01*
X31944Y229668D01*
X31915Y229810D01*
X31890Y229953D01*
X31868Y230097D01*
X31851Y230241D01*
X31837Y230386D01*
X31828Y230531D01*
X31822Y230676D01*
X31820Y230821D01*
X32370Y228436D02*
X32396Y228367D01*
X32425Y228300D01*
X32458Y228235D01*
X32494Y228171D01*
X32534Y228110D01*
X32577Y228051D01*
X32623Y227994D01*
X32672Y227939D01*
X32724Y227888D01*
X32779Y227839D01*
X32836Y227793D01*
X32895Y227751D01*
X32957Y227712D01*
X33021Y227676D01*
X33086Y227643D01*
X33154Y227615D01*
X33222Y227589D01*
X33292Y227568D01*
X33364Y227550D01*
X33435Y227537D01*
X33508Y227527D01*
X33581Y227521D01*
X33654Y227519D01*
X35122Y228986D02*
X32187Y232655D01*
D10*
X414800Y480590D02*
X414800Y488210D01*
X401600Y488210D02*
X401600Y480840D01*
D11*
X408212Y477229D03*
X408212Y491707D03*
D12*
X413912Y455431D02*
X415379Y455431D01*
X415453Y455433D01*
X415528Y455439D01*
X415601Y455448D01*
X415675Y455461D01*
X415747Y455478D01*
X415818Y455498D01*
X415889Y455522D01*
X415958Y455550D01*
X416026Y455581D01*
X416091Y455615D01*
X416156Y455653D01*
X416218Y455694D01*
X416278Y455738D01*
X416335Y455785D01*
X416390Y455835D01*
X416443Y455888D01*
X416493Y455943D01*
X416540Y456000D01*
X416584Y456060D01*
X416625Y456122D01*
X416663Y456187D01*
X416697Y456253D01*
X416728Y456320D01*
X416756Y456389D01*
X416780Y456460D01*
X416800Y456531D01*
X416817Y456604D01*
X416830Y456677D01*
X416839Y456751D01*
X416845Y456825D01*
X416847Y456899D01*
X416847Y460568D01*
X416845Y460642D01*
X416839Y460717D01*
X416830Y460790D01*
X416817Y460863D01*
X416800Y460936D01*
X416780Y461007D01*
X416756Y461078D01*
X416728Y461147D01*
X416697Y461214D01*
X416663Y461280D01*
X416625Y461345D01*
X416584Y461407D01*
X416540Y461467D01*
X416493Y461524D01*
X416443Y461579D01*
X416390Y461632D01*
X416335Y461682D01*
X416278Y461729D01*
X416218Y461773D01*
X416156Y461814D01*
X416091Y461852D01*
X416026Y461886D01*
X415958Y461917D01*
X415889Y461945D01*
X415819Y461969D01*
X415747Y461989D01*
X415675Y462006D01*
X415601Y462019D01*
X415528Y462028D01*
X415453Y462034D01*
X415379Y462036D01*
X415379Y462035D02*
X413912Y462035D01*
X410715Y460568D02*
X408881Y462035D01*
X408881Y455431D01*
X410715Y455431D02*
X407046Y455431D01*
X403400Y460568D02*
X401566Y462035D01*
X401566Y455431D01*
X403400Y455431D02*
X399731Y455431D01*
D10*
X491490Y440200D02*
X499110Y440200D01*
X499110Y453400D02*
X491740Y453400D01*
D13*
X488129Y446789D03*
X502607Y446789D03*
D12*
X502275Y429082D02*
X500807Y429082D01*
X502275Y429082D02*
X502349Y429084D01*
X502424Y429090D01*
X502497Y429099D01*
X502571Y429112D01*
X502643Y429129D01*
X502714Y429149D01*
X502785Y429173D01*
X502854Y429201D01*
X502922Y429232D01*
X502987Y429266D01*
X503052Y429304D01*
X503114Y429345D01*
X503174Y429389D01*
X503231Y429436D01*
X503286Y429486D01*
X503339Y429539D01*
X503389Y429594D01*
X503436Y429651D01*
X503480Y429711D01*
X503521Y429773D01*
X503559Y429838D01*
X503593Y429904D01*
X503624Y429971D01*
X503652Y430040D01*
X503676Y430111D01*
X503696Y430182D01*
X503713Y430255D01*
X503726Y430328D01*
X503735Y430402D01*
X503741Y430476D01*
X503743Y430550D01*
X503742Y430550D02*
X503742Y434219D01*
X503743Y434219D02*
X503741Y434293D01*
X503735Y434368D01*
X503726Y434441D01*
X503713Y434514D01*
X503696Y434587D01*
X503676Y434658D01*
X503652Y434729D01*
X503624Y434798D01*
X503593Y434865D01*
X503559Y434931D01*
X503521Y434996D01*
X503480Y435058D01*
X503436Y435118D01*
X503389Y435175D01*
X503339Y435230D01*
X503286Y435283D01*
X503231Y435333D01*
X503174Y435380D01*
X503114Y435424D01*
X503052Y435465D01*
X502987Y435503D01*
X502922Y435537D01*
X502854Y435568D01*
X502785Y435596D01*
X502715Y435620D01*
X502643Y435640D01*
X502571Y435657D01*
X502497Y435670D01*
X502424Y435679D01*
X502349Y435685D01*
X502275Y435687D01*
X502275Y435686D02*
X500807Y435686D01*
X497611Y434219D02*
X495776Y435686D01*
X495776Y429082D01*
X493942Y429082D02*
X497611Y429082D01*
X490296Y430550D02*
X488828Y435686D01*
X490296Y430550D02*
X486627Y430550D01*
X487727Y432017D02*
X487727Y429082D01*
D10*
X417510Y422700D02*
X409890Y422700D01*
X410140Y435900D02*
X417510Y435900D01*
D13*
X406529Y429289D03*
X421007Y429289D03*
D12*
X420029Y441983D02*
X418561Y441983D01*
X420029Y441982D02*
X420103Y441984D01*
X420178Y441990D01*
X420251Y441999D01*
X420325Y442012D01*
X420397Y442029D01*
X420468Y442049D01*
X420539Y442073D01*
X420608Y442101D01*
X420676Y442132D01*
X420741Y442166D01*
X420806Y442204D01*
X420868Y442245D01*
X420928Y442289D01*
X420985Y442336D01*
X421040Y442386D01*
X421093Y442439D01*
X421143Y442494D01*
X421190Y442551D01*
X421234Y442611D01*
X421275Y442673D01*
X421313Y442738D01*
X421347Y442804D01*
X421378Y442871D01*
X421406Y442940D01*
X421430Y443011D01*
X421450Y443082D01*
X421467Y443155D01*
X421480Y443228D01*
X421489Y443302D01*
X421495Y443376D01*
X421497Y443450D01*
X421496Y443450D02*
X421496Y447119D01*
X421497Y447119D02*
X421495Y447193D01*
X421489Y447268D01*
X421480Y447341D01*
X421467Y447414D01*
X421450Y447487D01*
X421430Y447558D01*
X421406Y447629D01*
X421378Y447698D01*
X421347Y447765D01*
X421313Y447831D01*
X421275Y447896D01*
X421234Y447958D01*
X421190Y448018D01*
X421143Y448075D01*
X421093Y448130D01*
X421040Y448183D01*
X420985Y448233D01*
X420928Y448280D01*
X420868Y448324D01*
X420806Y448365D01*
X420741Y448403D01*
X420676Y448437D01*
X420608Y448468D01*
X420539Y448496D01*
X420469Y448520D01*
X420397Y448540D01*
X420325Y448557D01*
X420251Y448570D01*
X420178Y448579D01*
X420103Y448585D01*
X420029Y448587D01*
X418561Y448587D01*
X415365Y447119D02*
X413530Y448587D01*
X413530Y441983D01*
X411696Y441983D02*
X415365Y441983D01*
X408050Y445652D02*
X405848Y445652D01*
X405774Y445650D01*
X405699Y445644D01*
X405626Y445635D01*
X405552Y445622D01*
X405480Y445605D01*
X405409Y445585D01*
X405338Y445561D01*
X405269Y445533D01*
X405202Y445502D01*
X405136Y445468D01*
X405071Y445430D01*
X405009Y445389D01*
X404949Y445345D01*
X404892Y445298D01*
X404837Y445248D01*
X404784Y445195D01*
X404734Y445140D01*
X404687Y445083D01*
X404643Y445023D01*
X404602Y444961D01*
X404564Y444896D01*
X404530Y444830D01*
X404499Y444763D01*
X404471Y444694D01*
X404447Y444623D01*
X404427Y444552D01*
X404410Y444480D01*
X404397Y444406D01*
X404388Y444333D01*
X404382Y444258D01*
X404380Y444184D01*
X404381Y444184D02*
X404381Y443817D01*
X404383Y443732D01*
X404389Y443648D01*
X404399Y443564D01*
X404412Y443480D01*
X404430Y443397D01*
X404451Y443315D01*
X404476Y443234D01*
X404505Y443154D01*
X404537Y443076D01*
X404573Y443000D01*
X404613Y442925D01*
X404656Y442852D01*
X404702Y442781D01*
X404751Y442712D01*
X404804Y442645D01*
X404860Y442581D01*
X404918Y442520D01*
X404979Y442462D01*
X405043Y442406D01*
X405110Y442353D01*
X405179Y442304D01*
X405250Y442258D01*
X405323Y442215D01*
X405398Y442175D01*
X405474Y442139D01*
X405552Y442107D01*
X405632Y442078D01*
X405713Y442053D01*
X405795Y442032D01*
X405878Y442014D01*
X405962Y442001D01*
X406046Y441991D01*
X406130Y441985D01*
X406215Y441983D01*
X406300Y441985D01*
X406384Y441991D01*
X406468Y442001D01*
X406552Y442014D01*
X406635Y442032D01*
X406717Y442053D01*
X406798Y442078D01*
X406878Y442107D01*
X406956Y442139D01*
X407032Y442175D01*
X407107Y442215D01*
X407180Y442258D01*
X407251Y442304D01*
X407320Y442353D01*
X407387Y442406D01*
X407451Y442462D01*
X407512Y442520D01*
X407570Y442581D01*
X407626Y442645D01*
X407679Y442712D01*
X407728Y442781D01*
X407774Y442852D01*
X407817Y442925D01*
X407857Y443000D01*
X407893Y443076D01*
X407925Y443154D01*
X407954Y443234D01*
X407979Y443315D01*
X408000Y443397D01*
X408018Y443480D01*
X408031Y443564D01*
X408041Y443648D01*
X408047Y443732D01*
X408049Y443817D01*
X408050Y443817D02*
X408050Y445652D01*
X408048Y445759D01*
X408042Y445866D01*
X408032Y445973D01*
X408019Y446079D01*
X408001Y446185D01*
X407980Y446290D01*
X407955Y446394D01*
X407926Y446498D01*
X407893Y446600D01*
X407856Y446700D01*
X407816Y446800D01*
X407772Y446898D01*
X407725Y446994D01*
X407674Y447088D01*
X407620Y447181D01*
X407563Y447271D01*
X407502Y447360D01*
X407438Y447446D01*
X407371Y447529D01*
X407301Y447611D01*
X407228Y447689D01*
X407152Y447765D01*
X407074Y447838D01*
X406992Y447908D01*
X406909Y447975D01*
X406823Y448039D01*
X406734Y448100D01*
X406644Y448157D01*
X406551Y448211D01*
X406457Y448262D01*
X406361Y448309D01*
X406263Y448353D01*
X406164Y448393D01*
X406063Y448430D01*
X405961Y448463D01*
X405857Y448492D01*
X405753Y448517D01*
X405648Y448538D01*
X405542Y448556D01*
X405436Y448569D01*
X405329Y448579D01*
X405222Y448585D01*
X405115Y448587D01*
D10*
X207410Y176755D02*
X199790Y176755D01*
X199790Y163555D02*
X207160Y163555D01*
D13*
X210772Y170167D03*
X196294Y170167D03*
D12*
X175470Y168279D02*
X175470Y166812D01*
X175469Y166812D02*
X175471Y166738D01*
X175477Y166663D01*
X175486Y166590D01*
X175499Y166516D01*
X175516Y166444D01*
X175536Y166373D01*
X175560Y166302D01*
X175588Y166233D01*
X175619Y166166D01*
X175653Y166100D01*
X175691Y166035D01*
X175732Y165973D01*
X175776Y165913D01*
X175823Y165856D01*
X175873Y165801D01*
X175926Y165748D01*
X175981Y165698D01*
X176038Y165651D01*
X176098Y165607D01*
X176160Y165566D01*
X176225Y165528D01*
X176291Y165494D01*
X176358Y165463D01*
X176427Y165435D01*
X176498Y165411D01*
X176569Y165391D01*
X176641Y165374D01*
X176715Y165361D01*
X176788Y165352D01*
X176863Y165346D01*
X176937Y165344D01*
X180606Y165344D01*
X180680Y165346D01*
X180755Y165352D01*
X180828Y165361D01*
X180902Y165374D01*
X180974Y165391D01*
X181045Y165411D01*
X181116Y165435D01*
X181185Y165463D01*
X181252Y165494D01*
X181318Y165528D01*
X181383Y165566D01*
X181445Y165607D01*
X181505Y165651D01*
X181562Y165698D01*
X181617Y165748D01*
X181670Y165801D01*
X181720Y165856D01*
X181767Y165913D01*
X181811Y165973D01*
X181852Y166035D01*
X181890Y166100D01*
X181924Y166165D01*
X181955Y166233D01*
X181983Y166302D01*
X182007Y166373D01*
X182027Y166444D01*
X182044Y166516D01*
X182057Y166590D01*
X182066Y166663D01*
X182072Y166738D01*
X182074Y166812D01*
X182074Y168279D01*
X182074Y173493D02*
X182072Y173572D01*
X182067Y173650D01*
X182057Y173728D01*
X182044Y173805D01*
X182027Y173882D01*
X182007Y173958D01*
X181983Y174033D01*
X181956Y174107D01*
X181925Y174179D01*
X181890Y174250D01*
X181853Y174319D01*
X181812Y174386D01*
X181768Y174451D01*
X181721Y174514D01*
X181671Y174574D01*
X181618Y174632D01*
X181562Y174688D01*
X181504Y174741D01*
X181444Y174791D01*
X181381Y174838D01*
X181316Y174882D01*
X181249Y174923D01*
X181180Y174960D01*
X181109Y174995D01*
X181037Y175026D01*
X180963Y175053D01*
X180888Y175077D01*
X180812Y175097D01*
X180735Y175114D01*
X180658Y175127D01*
X180580Y175137D01*
X180502Y175142D01*
X180423Y175144D01*
X182073Y173493D02*
X182071Y173404D01*
X182066Y173315D01*
X182056Y173227D01*
X182043Y173139D01*
X182027Y173052D01*
X182006Y172965D01*
X181982Y172880D01*
X181955Y172795D01*
X181924Y172712D01*
X181889Y172630D01*
X181851Y172549D01*
X181810Y172470D01*
X181766Y172394D01*
X181718Y172318D01*
X181667Y172245D01*
X181614Y172175D01*
X181557Y172106D01*
X181497Y172040D01*
X181435Y171977D01*
X181370Y171916D01*
X181303Y171858D01*
X181233Y171803D01*
X181161Y171750D01*
X181087Y171701D01*
X181011Y171655D01*
X180933Y171613D01*
X180853Y171573D01*
X180772Y171537D01*
X180689Y171504D01*
X180605Y171475D01*
X179139Y174594D02*
X179195Y174650D01*
X179254Y174704D01*
X179315Y174755D01*
X179379Y174804D01*
X179444Y174849D01*
X179512Y174892D01*
X179581Y174931D01*
X179652Y174968D01*
X179725Y175001D01*
X179799Y175030D01*
X179874Y175057D01*
X179950Y175080D01*
X180028Y175099D01*
X180106Y175115D01*
X180184Y175128D01*
X180264Y175137D01*
X180343Y175142D01*
X180423Y175144D01*
X179138Y174594D02*
X175470Y171476D01*
X175470Y175144D01*
D10*
X199800Y296690D02*
X199800Y304310D01*
X186600Y304310D02*
X186600Y296940D01*
D11*
X193212Y293329D03*
X193212Y307807D03*
D12*
X173566Y295946D02*
X173566Y294479D01*
X173565Y294479D02*
X173567Y294405D01*
X173573Y294330D01*
X173582Y294257D01*
X173595Y294183D01*
X173612Y294111D01*
X173632Y294040D01*
X173656Y293969D01*
X173684Y293900D01*
X173715Y293833D01*
X173749Y293767D01*
X173787Y293702D01*
X173828Y293640D01*
X173872Y293580D01*
X173919Y293523D01*
X173969Y293468D01*
X174022Y293415D01*
X174077Y293365D01*
X174134Y293318D01*
X174194Y293274D01*
X174256Y293233D01*
X174321Y293195D01*
X174387Y293161D01*
X174454Y293130D01*
X174523Y293102D01*
X174594Y293078D01*
X174665Y293058D01*
X174737Y293041D01*
X174811Y293028D01*
X174884Y293019D01*
X174959Y293013D01*
X175033Y293011D01*
X178702Y293011D01*
X178776Y293013D01*
X178851Y293019D01*
X178924Y293028D01*
X178998Y293041D01*
X179070Y293058D01*
X179141Y293078D01*
X179212Y293102D01*
X179281Y293130D01*
X179348Y293161D01*
X179414Y293195D01*
X179479Y293233D01*
X179541Y293274D01*
X179601Y293318D01*
X179658Y293365D01*
X179713Y293415D01*
X179766Y293468D01*
X179816Y293523D01*
X179863Y293580D01*
X179907Y293640D01*
X179948Y293702D01*
X179986Y293767D01*
X180020Y293832D01*
X180051Y293900D01*
X180079Y293969D01*
X180103Y294040D01*
X180123Y294111D01*
X180140Y294183D01*
X180153Y294257D01*
X180162Y294330D01*
X180168Y294405D01*
X180170Y294479D01*
X180170Y295946D01*
X180170Y301161D02*
X180168Y301240D01*
X180163Y301318D01*
X180153Y301396D01*
X180140Y301473D01*
X180123Y301550D01*
X180103Y301626D01*
X180079Y301701D01*
X180052Y301775D01*
X180021Y301847D01*
X179986Y301918D01*
X179949Y301987D01*
X179908Y302054D01*
X179864Y302119D01*
X179817Y302182D01*
X179767Y302242D01*
X179714Y302300D01*
X179658Y302356D01*
X179600Y302409D01*
X179540Y302459D01*
X179477Y302506D01*
X179412Y302550D01*
X179345Y302591D01*
X179276Y302628D01*
X179205Y302663D01*
X179133Y302694D01*
X179059Y302721D01*
X178984Y302745D01*
X178908Y302765D01*
X178831Y302782D01*
X178754Y302795D01*
X178676Y302805D01*
X178598Y302810D01*
X178519Y302812D01*
X180170Y301161D02*
X180168Y301072D01*
X180163Y300983D01*
X180153Y300895D01*
X180140Y300807D01*
X180124Y300720D01*
X180103Y300633D01*
X180079Y300548D01*
X180052Y300463D01*
X180021Y300380D01*
X179986Y300298D01*
X179948Y300217D01*
X179907Y300138D01*
X179863Y300062D01*
X179815Y299986D01*
X179764Y299913D01*
X179711Y299843D01*
X179654Y299774D01*
X179594Y299708D01*
X179532Y299645D01*
X179467Y299584D01*
X179400Y299526D01*
X179330Y299471D01*
X179258Y299418D01*
X179184Y299369D01*
X179108Y299323D01*
X179030Y299281D01*
X178950Y299241D01*
X178869Y299205D01*
X178786Y299172D01*
X178702Y299143D01*
X177235Y302261D02*
X177291Y302317D01*
X177350Y302371D01*
X177411Y302422D01*
X177475Y302471D01*
X177540Y302516D01*
X177608Y302559D01*
X177677Y302598D01*
X177748Y302635D01*
X177821Y302668D01*
X177895Y302697D01*
X177970Y302724D01*
X178046Y302747D01*
X178124Y302766D01*
X178202Y302782D01*
X178280Y302795D01*
X178360Y302804D01*
X178439Y302809D01*
X178519Y302811D01*
X177234Y302261D02*
X173566Y299143D01*
X173566Y302812D01*
X178702Y306458D02*
X180170Y308292D01*
X173566Y308292D01*
X173566Y306458D02*
X173566Y310127D01*
D10*
X84410Y244688D02*
X76790Y244688D01*
X77040Y257888D02*
X84410Y257888D01*
D13*
X73429Y251277D03*
X87907Y251277D03*
D12*
X84910Y232098D02*
X83442Y232098D01*
X84910Y232098D02*
X84984Y232100D01*
X85059Y232106D01*
X85132Y232115D01*
X85206Y232128D01*
X85278Y232145D01*
X85349Y232165D01*
X85420Y232189D01*
X85489Y232217D01*
X85557Y232248D01*
X85622Y232282D01*
X85687Y232320D01*
X85749Y232361D01*
X85809Y232405D01*
X85866Y232452D01*
X85921Y232502D01*
X85974Y232555D01*
X86024Y232610D01*
X86071Y232667D01*
X86115Y232727D01*
X86156Y232789D01*
X86194Y232854D01*
X86228Y232920D01*
X86259Y232987D01*
X86287Y233056D01*
X86311Y233127D01*
X86331Y233198D01*
X86348Y233271D01*
X86361Y233344D01*
X86370Y233418D01*
X86376Y233492D01*
X86378Y233566D01*
X86377Y233566D02*
X86377Y237235D01*
X86378Y237235D02*
X86376Y237309D01*
X86370Y237384D01*
X86361Y237457D01*
X86348Y237530D01*
X86331Y237603D01*
X86311Y237674D01*
X86287Y237745D01*
X86259Y237814D01*
X86228Y237881D01*
X86194Y237947D01*
X86156Y238012D01*
X86115Y238074D01*
X86071Y238134D01*
X86024Y238191D01*
X85974Y238246D01*
X85921Y238299D01*
X85866Y238349D01*
X85809Y238396D01*
X85749Y238440D01*
X85687Y238481D01*
X85622Y238519D01*
X85557Y238553D01*
X85489Y238584D01*
X85420Y238612D01*
X85350Y238636D01*
X85278Y238656D01*
X85206Y238673D01*
X85132Y238686D01*
X85059Y238695D01*
X84984Y238701D01*
X84910Y238703D01*
X84910Y238702D02*
X83442Y238702D01*
X78228Y238702D02*
X78149Y238700D01*
X78071Y238695D01*
X77993Y238685D01*
X77916Y238672D01*
X77839Y238655D01*
X77763Y238635D01*
X77688Y238611D01*
X77614Y238584D01*
X77542Y238553D01*
X77471Y238518D01*
X77403Y238481D01*
X77335Y238440D01*
X77270Y238396D01*
X77207Y238349D01*
X77147Y238299D01*
X77089Y238246D01*
X77033Y238190D01*
X76980Y238132D01*
X76930Y238072D01*
X76883Y238009D01*
X76839Y237944D01*
X76798Y237877D01*
X76761Y237808D01*
X76726Y237737D01*
X76695Y237665D01*
X76668Y237591D01*
X76644Y237516D01*
X76624Y237440D01*
X76607Y237363D01*
X76594Y237286D01*
X76584Y237208D01*
X76579Y237130D01*
X76577Y237051D01*
X78228Y238702D02*
X78317Y238700D01*
X78406Y238695D01*
X78494Y238685D01*
X78582Y238672D01*
X78669Y238656D01*
X78756Y238635D01*
X78841Y238611D01*
X78926Y238584D01*
X79009Y238553D01*
X79091Y238518D01*
X79172Y238480D01*
X79251Y238439D01*
X79327Y238395D01*
X79403Y238347D01*
X79476Y238296D01*
X79546Y238243D01*
X79615Y238186D01*
X79681Y238126D01*
X79744Y238064D01*
X79805Y237999D01*
X79863Y237932D01*
X79918Y237862D01*
X79971Y237790D01*
X80020Y237716D01*
X80066Y237640D01*
X80108Y237562D01*
X80148Y237482D01*
X80184Y237401D01*
X80217Y237318D01*
X80246Y237234D01*
X77127Y235767D02*
X77071Y235823D01*
X77017Y235882D01*
X76966Y235943D01*
X76917Y236007D01*
X76872Y236072D01*
X76829Y236140D01*
X76790Y236209D01*
X76753Y236280D01*
X76720Y236353D01*
X76691Y236427D01*
X76664Y236502D01*
X76641Y236578D01*
X76622Y236656D01*
X76606Y236734D01*
X76593Y236812D01*
X76584Y236892D01*
X76579Y236971D01*
X76577Y237051D01*
X77127Y235767D02*
X80246Y232098D01*
X76577Y232098D01*
X72931Y235767D02*
X70729Y235767D01*
X70729Y235768D02*
X70655Y235766D01*
X70580Y235760D01*
X70507Y235751D01*
X70433Y235738D01*
X70361Y235721D01*
X70290Y235701D01*
X70219Y235677D01*
X70150Y235649D01*
X70083Y235618D01*
X70017Y235584D01*
X69952Y235546D01*
X69890Y235505D01*
X69830Y235461D01*
X69773Y235414D01*
X69718Y235364D01*
X69665Y235311D01*
X69615Y235256D01*
X69568Y235199D01*
X69524Y235139D01*
X69483Y235077D01*
X69445Y235012D01*
X69411Y234946D01*
X69380Y234879D01*
X69352Y234810D01*
X69328Y234739D01*
X69308Y234668D01*
X69291Y234596D01*
X69278Y234522D01*
X69269Y234449D01*
X69263Y234374D01*
X69261Y234300D01*
X69262Y234300D02*
X69262Y233933D01*
X69264Y233848D01*
X69270Y233764D01*
X69280Y233680D01*
X69293Y233596D01*
X69311Y233513D01*
X69332Y233431D01*
X69357Y233350D01*
X69386Y233270D01*
X69418Y233192D01*
X69454Y233116D01*
X69494Y233041D01*
X69537Y232968D01*
X69583Y232897D01*
X69632Y232828D01*
X69685Y232761D01*
X69741Y232697D01*
X69799Y232636D01*
X69860Y232578D01*
X69924Y232522D01*
X69991Y232469D01*
X70060Y232420D01*
X70131Y232374D01*
X70204Y232331D01*
X70279Y232291D01*
X70355Y232255D01*
X70433Y232223D01*
X70513Y232194D01*
X70594Y232169D01*
X70676Y232148D01*
X70759Y232130D01*
X70843Y232117D01*
X70927Y232107D01*
X71011Y232101D01*
X71096Y232099D01*
X71181Y232101D01*
X71265Y232107D01*
X71349Y232117D01*
X71433Y232130D01*
X71516Y232148D01*
X71598Y232169D01*
X71679Y232194D01*
X71759Y232223D01*
X71837Y232255D01*
X71913Y232291D01*
X71988Y232331D01*
X72061Y232374D01*
X72132Y232420D01*
X72201Y232469D01*
X72268Y232522D01*
X72332Y232578D01*
X72393Y232636D01*
X72451Y232697D01*
X72507Y232761D01*
X72560Y232828D01*
X72609Y232897D01*
X72655Y232968D01*
X72698Y233041D01*
X72738Y233116D01*
X72774Y233192D01*
X72806Y233270D01*
X72835Y233350D01*
X72860Y233431D01*
X72881Y233513D01*
X72899Y233596D01*
X72912Y233680D01*
X72922Y233764D01*
X72928Y233848D01*
X72930Y233933D01*
X72931Y233933D02*
X72931Y235767D01*
X72929Y235874D01*
X72923Y235981D01*
X72913Y236088D01*
X72900Y236194D01*
X72882Y236300D01*
X72861Y236405D01*
X72836Y236509D01*
X72807Y236613D01*
X72774Y236715D01*
X72737Y236815D01*
X72697Y236915D01*
X72653Y237013D01*
X72606Y237109D01*
X72555Y237203D01*
X72501Y237296D01*
X72444Y237386D01*
X72383Y237475D01*
X72319Y237561D01*
X72252Y237644D01*
X72182Y237726D01*
X72109Y237804D01*
X72033Y237880D01*
X71955Y237953D01*
X71873Y238023D01*
X71790Y238090D01*
X71704Y238154D01*
X71615Y238215D01*
X71525Y238272D01*
X71432Y238326D01*
X71338Y238377D01*
X71242Y238424D01*
X71144Y238468D01*
X71045Y238508D01*
X70944Y238545D01*
X70842Y238578D01*
X70738Y238607D01*
X70634Y238632D01*
X70529Y238653D01*
X70423Y238671D01*
X70317Y238684D01*
X70210Y238694D01*
X70103Y238700D01*
X69996Y238702D01*
D10*
X371735Y185318D02*
X379355Y185318D01*
X379105Y172118D02*
X371735Y172118D01*
D13*
X382717Y178730D03*
X368239Y178730D03*
D14*
X381202Y190811D02*
X383008Y190811D01*
X383091Y190813D01*
X383175Y190819D01*
X383258Y190828D01*
X383340Y190842D01*
X383421Y190859D01*
X383502Y190880D01*
X383582Y190905D01*
X383660Y190933D01*
X383737Y190965D01*
X383813Y191000D01*
X383887Y191039D01*
X383959Y191082D01*
X384029Y191127D01*
X384096Y191176D01*
X384162Y191228D01*
X384225Y191282D01*
X384285Y191340D01*
X384343Y191400D01*
X384397Y191463D01*
X384449Y191529D01*
X384498Y191596D01*
X384544Y191666D01*
X384586Y191738D01*
X384625Y191812D01*
X384660Y191888D01*
X384692Y191965D01*
X384720Y192043D01*
X384745Y192123D01*
X384766Y192204D01*
X384783Y192285D01*
X384797Y192368D01*
X384806Y192450D01*
X384812Y192534D01*
X384814Y192617D01*
X384814Y197133D01*
X384812Y197216D01*
X384806Y197300D01*
X384797Y197383D01*
X384783Y197465D01*
X384766Y197546D01*
X384745Y197627D01*
X384720Y197707D01*
X384692Y197785D01*
X384660Y197862D01*
X384625Y197938D01*
X384586Y198012D01*
X384544Y198084D01*
X384498Y198154D01*
X384449Y198221D01*
X384397Y198287D01*
X384343Y198350D01*
X384285Y198410D01*
X384225Y198468D01*
X384162Y198522D01*
X384096Y198574D01*
X384029Y198623D01*
X383959Y198668D01*
X383887Y198711D01*
X383813Y198750D01*
X383738Y198785D01*
X383660Y198817D01*
X383582Y198845D01*
X383502Y198870D01*
X383422Y198891D01*
X383340Y198908D01*
X383258Y198922D01*
X383175Y198931D01*
X383091Y198937D01*
X383008Y198939D01*
X381202Y198939D01*
X374664Y198939D02*
X374575Y198937D01*
X374487Y198931D01*
X374399Y198922D01*
X374311Y198908D01*
X374224Y198891D01*
X374138Y198870D01*
X374053Y198845D01*
X373969Y198816D01*
X373886Y198784D01*
X373805Y198749D01*
X373726Y198709D01*
X373648Y198667D01*
X373572Y198621D01*
X373498Y198572D01*
X373427Y198519D01*
X373358Y198464D01*
X373291Y198405D01*
X373227Y198344D01*
X373166Y198280D01*
X373107Y198213D01*
X373052Y198144D01*
X372999Y198073D01*
X372950Y197999D01*
X372904Y197923D01*
X372862Y197845D01*
X372822Y197766D01*
X372787Y197685D01*
X372755Y197602D01*
X372726Y197518D01*
X372701Y197433D01*
X372680Y197347D01*
X372663Y197260D01*
X372649Y197172D01*
X372640Y197084D01*
X372634Y196996D01*
X372632Y196907D01*
X374664Y198939D02*
X374763Y198937D01*
X374863Y198931D01*
X374962Y198922D01*
X375060Y198909D01*
X375159Y198892D01*
X375256Y198871D01*
X375352Y198847D01*
X375448Y198819D01*
X375542Y198787D01*
X375635Y198752D01*
X375727Y198713D01*
X375817Y198671D01*
X375905Y198625D01*
X375992Y198576D01*
X376077Y198524D01*
X376159Y198468D01*
X376240Y198410D01*
X376318Y198348D01*
X376394Y198284D01*
X376467Y198217D01*
X376538Y198147D01*
X376605Y198074D01*
X376671Y197999D01*
X376733Y197921D01*
X376792Y197841D01*
X376848Y197759D01*
X376901Y197675D01*
X376951Y197588D01*
X376997Y197500D01*
X377040Y197411D01*
X377080Y197319D01*
X377116Y197226D01*
X377148Y197132D01*
X373309Y195326D02*
X373243Y195392D01*
X373180Y195460D01*
X373120Y195531D01*
X373063Y195605D01*
X373009Y195680D01*
X372959Y195758D01*
X372911Y195839D01*
X372868Y195921D01*
X372827Y196005D01*
X372791Y196090D01*
X372758Y196177D01*
X372728Y196265D01*
X372703Y196355D01*
X372681Y196445D01*
X372664Y196537D01*
X372650Y196629D01*
X372640Y196721D01*
X372634Y196814D01*
X372632Y196907D01*
X373309Y195326D02*
X377148Y190811D01*
X372632Y190811D01*
X368004Y190811D02*
X365746Y190811D01*
X365653Y190813D01*
X365560Y190819D01*
X365467Y190828D01*
X365374Y190842D01*
X365283Y190859D01*
X365192Y190880D01*
X365102Y190905D01*
X365013Y190933D01*
X364925Y190965D01*
X364839Y191001D01*
X364754Y191040D01*
X364671Y191083D01*
X364590Y191129D01*
X364511Y191179D01*
X364434Y191231D01*
X364359Y191287D01*
X364287Y191346D01*
X364217Y191408D01*
X364149Y191472D01*
X364085Y191540D01*
X364023Y191610D01*
X363964Y191682D01*
X363908Y191757D01*
X363856Y191834D01*
X363806Y191913D01*
X363760Y191994D01*
X363717Y192077D01*
X363678Y192162D01*
X363642Y192248D01*
X363610Y192336D01*
X363582Y192425D01*
X363557Y192515D01*
X363536Y192606D01*
X363519Y192697D01*
X363505Y192790D01*
X363496Y192883D01*
X363490Y192976D01*
X363488Y193069D01*
X363490Y193162D01*
X363496Y193255D01*
X363505Y193348D01*
X363519Y193441D01*
X363536Y193532D01*
X363557Y193623D01*
X363582Y193713D01*
X363610Y193802D01*
X363642Y193890D01*
X363678Y193976D01*
X363717Y194061D01*
X363760Y194144D01*
X363806Y194225D01*
X363856Y194304D01*
X363908Y194381D01*
X363964Y194456D01*
X364023Y194528D01*
X364085Y194598D01*
X364149Y194666D01*
X364217Y194730D01*
X364287Y194792D01*
X364359Y194851D01*
X364434Y194907D01*
X364511Y194959D01*
X364590Y195009D01*
X364671Y195055D01*
X364754Y195098D01*
X364839Y195137D01*
X364925Y195173D01*
X365013Y195205D01*
X365102Y195233D01*
X365192Y195258D01*
X365283Y195279D01*
X365374Y195296D01*
X365467Y195310D01*
X365560Y195319D01*
X365653Y195325D01*
X365746Y195327D01*
X365294Y198939D02*
X368004Y198939D01*
X365294Y198939D02*
X365211Y198937D01*
X365127Y198931D01*
X365044Y198922D01*
X364962Y198908D01*
X364881Y198891D01*
X364800Y198870D01*
X364720Y198845D01*
X364642Y198817D01*
X364565Y198785D01*
X364489Y198750D01*
X364415Y198711D01*
X364343Y198668D01*
X364273Y198623D01*
X364206Y198574D01*
X364140Y198522D01*
X364077Y198468D01*
X364017Y198410D01*
X363959Y198350D01*
X363905Y198287D01*
X363853Y198221D01*
X363804Y198154D01*
X363759Y198084D01*
X363716Y198012D01*
X363677Y197938D01*
X363642Y197862D01*
X363610Y197785D01*
X363582Y197707D01*
X363557Y197627D01*
X363536Y197546D01*
X363519Y197465D01*
X363505Y197383D01*
X363496Y197300D01*
X363490Y197216D01*
X363488Y197133D01*
X363490Y197050D01*
X363496Y196966D01*
X363505Y196883D01*
X363519Y196801D01*
X363536Y196720D01*
X363557Y196639D01*
X363582Y196559D01*
X363610Y196481D01*
X363642Y196404D01*
X363677Y196328D01*
X363716Y196254D01*
X363759Y196182D01*
X363804Y196112D01*
X363853Y196045D01*
X363905Y195979D01*
X363959Y195916D01*
X364017Y195856D01*
X364077Y195798D01*
X364140Y195744D01*
X364206Y195692D01*
X364273Y195643D01*
X364343Y195598D01*
X364415Y195555D01*
X364489Y195516D01*
X364565Y195481D01*
X364642Y195449D01*
X364720Y195421D01*
X364800Y195396D01*
X364881Y195375D01*
X364962Y195358D01*
X365044Y195344D01*
X365127Y195335D01*
X365211Y195329D01*
X365294Y195327D01*
X365294Y195326D02*
X367101Y195326D01*
D10*
X191300Y127365D02*
X191300Y119745D01*
X178100Y119995D02*
X178100Y127365D01*
D11*
X184712Y116384D03*
X184712Y130862D03*
D12*
X186498Y145171D02*
X187966Y145171D01*
X187966Y145170D02*
X188040Y145172D01*
X188115Y145178D01*
X188188Y145187D01*
X188262Y145200D01*
X188334Y145217D01*
X188405Y145237D01*
X188476Y145261D01*
X188545Y145289D01*
X188613Y145320D01*
X188678Y145354D01*
X188743Y145392D01*
X188805Y145433D01*
X188865Y145477D01*
X188922Y145524D01*
X188977Y145574D01*
X189030Y145627D01*
X189080Y145682D01*
X189127Y145739D01*
X189171Y145799D01*
X189212Y145861D01*
X189250Y145926D01*
X189284Y145992D01*
X189315Y146059D01*
X189343Y146128D01*
X189367Y146199D01*
X189387Y146270D01*
X189404Y146343D01*
X189417Y146416D01*
X189426Y146490D01*
X189432Y146564D01*
X189434Y146638D01*
X189433Y146638D02*
X189433Y150307D01*
X189434Y150307D02*
X189432Y150381D01*
X189426Y150456D01*
X189417Y150529D01*
X189404Y150602D01*
X189387Y150675D01*
X189367Y150746D01*
X189343Y150817D01*
X189315Y150886D01*
X189284Y150953D01*
X189250Y151019D01*
X189212Y151084D01*
X189171Y151146D01*
X189127Y151206D01*
X189080Y151263D01*
X189030Y151318D01*
X188977Y151371D01*
X188922Y151421D01*
X188865Y151468D01*
X188805Y151512D01*
X188743Y151553D01*
X188678Y151591D01*
X188613Y151625D01*
X188545Y151656D01*
X188476Y151684D01*
X188406Y151708D01*
X188334Y151728D01*
X188262Y151745D01*
X188188Y151758D01*
X188115Y151767D01*
X188040Y151773D01*
X187966Y151775D01*
X186498Y151775D01*
X181834Y151775D02*
X183302Y146638D01*
X179633Y146638D01*
X180733Y145171D02*
X180733Y148106D01*
D10*
X693890Y473800D02*
X701510Y473800D01*
X701260Y460600D02*
X693890Y460600D01*
D13*
X704872Y467212D03*
X690394Y467212D03*
D12*
X668858Y465146D02*
X668858Y463678D01*
X668860Y463604D01*
X668866Y463529D01*
X668875Y463456D01*
X668888Y463382D01*
X668905Y463310D01*
X668925Y463239D01*
X668949Y463168D01*
X668977Y463099D01*
X669008Y463032D01*
X669042Y462966D01*
X669080Y462901D01*
X669121Y462839D01*
X669165Y462779D01*
X669212Y462722D01*
X669262Y462667D01*
X669315Y462614D01*
X669370Y462564D01*
X669427Y462517D01*
X669487Y462473D01*
X669549Y462432D01*
X669614Y462394D01*
X669680Y462360D01*
X669747Y462329D01*
X669816Y462301D01*
X669887Y462277D01*
X669958Y462257D01*
X670030Y462240D01*
X670104Y462227D01*
X670177Y462218D01*
X670252Y462212D01*
X670326Y462210D01*
X670326Y462211D02*
X673995Y462211D01*
X673995Y462210D02*
X674069Y462212D01*
X674144Y462218D01*
X674217Y462227D01*
X674291Y462240D01*
X674363Y462257D01*
X674434Y462277D01*
X674505Y462301D01*
X674574Y462329D01*
X674641Y462360D01*
X674707Y462394D01*
X674772Y462432D01*
X674834Y462473D01*
X674894Y462517D01*
X674951Y462564D01*
X675006Y462614D01*
X675059Y462667D01*
X675109Y462722D01*
X675156Y462779D01*
X675200Y462839D01*
X675241Y462901D01*
X675279Y462966D01*
X675313Y463031D01*
X675344Y463099D01*
X675372Y463168D01*
X675396Y463239D01*
X675416Y463310D01*
X675433Y463382D01*
X675446Y463456D01*
X675455Y463529D01*
X675461Y463604D01*
X675463Y463678D01*
X675462Y463678D02*
X675462Y465146D01*
X672527Y468342D02*
X672527Y470544D01*
X672528Y470544D02*
X672526Y470618D01*
X672520Y470693D01*
X672511Y470766D01*
X672498Y470840D01*
X672481Y470912D01*
X672461Y470983D01*
X672437Y471054D01*
X672409Y471123D01*
X672378Y471190D01*
X672344Y471256D01*
X672306Y471321D01*
X672265Y471383D01*
X672221Y471443D01*
X672174Y471500D01*
X672124Y471555D01*
X672071Y471608D01*
X672016Y471658D01*
X671959Y471705D01*
X671899Y471749D01*
X671837Y471790D01*
X671772Y471828D01*
X671706Y471862D01*
X671639Y471893D01*
X671570Y471921D01*
X671499Y471945D01*
X671428Y471965D01*
X671356Y471982D01*
X671282Y471995D01*
X671209Y472004D01*
X671134Y472010D01*
X671060Y472012D01*
X671060Y472011D02*
X670693Y472011D01*
X670608Y472009D01*
X670524Y472003D01*
X670440Y471993D01*
X670356Y471980D01*
X670273Y471962D01*
X670191Y471941D01*
X670110Y471916D01*
X670030Y471887D01*
X669952Y471855D01*
X669876Y471819D01*
X669801Y471779D01*
X669728Y471736D01*
X669657Y471690D01*
X669588Y471641D01*
X669521Y471588D01*
X669457Y471532D01*
X669396Y471474D01*
X669338Y471413D01*
X669282Y471349D01*
X669229Y471282D01*
X669180Y471213D01*
X669134Y471142D01*
X669091Y471069D01*
X669051Y470994D01*
X669015Y470918D01*
X668983Y470840D01*
X668954Y470760D01*
X668929Y470679D01*
X668908Y470597D01*
X668890Y470514D01*
X668877Y470430D01*
X668867Y470346D01*
X668861Y470262D01*
X668859Y470177D01*
X668861Y470092D01*
X668867Y470008D01*
X668877Y469924D01*
X668890Y469840D01*
X668908Y469757D01*
X668929Y469675D01*
X668954Y469594D01*
X668983Y469514D01*
X669015Y469436D01*
X669051Y469360D01*
X669091Y469285D01*
X669134Y469212D01*
X669180Y469141D01*
X669229Y469072D01*
X669282Y469005D01*
X669338Y468941D01*
X669396Y468880D01*
X669457Y468822D01*
X669521Y468766D01*
X669588Y468713D01*
X669657Y468664D01*
X669728Y468618D01*
X669801Y468575D01*
X669876Y468535D01*
X669952Y468499D01*
X670030Y468467D01*
X670110Y468438D01*
X670191Y468413D01*
X670273Y468392D01*
X670356Y468374D01*
X670440Y468361D01*
X670524Y468351D01*
X670608Y468345D01*
X670693Y468343D01*
X670693Y468342D02*
X672527Y468342D01*
X672527Y468343D02*
X672634Y468345D01*
X672741Y468351D01*
X672848Y468361D01*
X672954Y468374D01*
X673060Y468392D01*
X673165Y468413D01*
X673269Y468438D01*
X673373Y468467D01*
X673475Y468500D01*
X673575Y468537D01*
X673675Y468577D01*
X673773Y468621D01*
X673869Y468668D01*
X673963Y468719D01*
X674056Y468773D01*
X674146Y468830D01*
X674235Y468891D01*
X674321Y468955D01*
X674404Y469022D01*
X674486Y469092D01*
X674564Y469165D01*
X674640Y469241D01*
X674713Y469319D01*
X674783Y469401D01*
X674850Y469484D01*
X674914Y469570D01*
X674975Y469659D01*
X675032Y469749D01*
X675086Y469842D01*
X675137Y469936D01*
X675184Y470032D01*
X675228Y470130D01*
X675268Y470230D01*
X675305Y470330D01*
X675338Y470432D01*
X675367Y470536D01*
X675392Y470640D01*
X675413Y470745D01*
X675431Y470851D01*
X675444Y470957D01*
X675454Y471064D01*
X675460Y471171D01*
X675462Y471278D01*
D10*
X83811Y156343D02*
X83811Y148723D01*
X70611Y148973D02*
X70611Y156343D01*
D11*
X77223Y145361D03*
X77223Y159839D03*
D12*
X58656Y158190D02*
X58656Y156722D01*
X58655Y156722D02*
X58657Y156648D01*
X58663Y156573D01*
X58672Y156500D01*
X58685Y156426D01*
X58702Y156354D01*
X58722Y156283D01*
X58746Y156212D01*
X58774Y156143D01*
X58805Y156076D01*
X58839Y156010D01*
X58877Y155945D01*
X58918Y155883D01*
X58962Y155823D01*
X59009Y155766D01*
X59059Y155711D01*
X59112Y155658D01*
X59167Y155608D01*
X59224Y155561D01*
X59284Y155517D01*
X59346Y155476D01*
X59411Y155438D01*
X59477Y155404D01*
X59544Y155373D01*
X59613Y155345D01*
X59684Y155321D01*
X59755Y155301D01*
X59827Y155284D01*
X59901Y155271D01*
X59974Y155262D01*
X60049Y155256D01*
X60123Y155254D01*
X60123Y155255D02*
X63792Y155255D01*
X63792Y155254D02*
X63866Y155256D01*
X63941Y155262D01*
X64014Y155271D01*
X64088Y155284D01*
X64160Y155301D01*
X64231Y155321D01*
X64302Y155345D01*
X64371Y155373D01*
X64438Y155404D01*
X64504Y155438D01*
X64569Y155476D01*
X64631Y155517D01*
X64691Y155561D01*
X64748Y155608D01*
X64803Y155658D01*
X64856Y155711D01*
X64906Y155766D01*
X64953Y155823D01*
X64997Y155883D01*
X65038Y155945D01*
X65076Y156010D01*
X65110Y156075D01*
X65141Y156143D01*
X65169Y156212D01*
X65193Y156283D01*
X65213Y156354D01*
X65230Y156426D01*
X65243Y156500D01*
X65252Y156573D01*
X65258Y156648D01*
X65260Y156722D01*
X65260Y158190D01*
X65260Y161386D02*
X64526Y161386D01*
X65260Y161386D02*
X65260Y165055D01*
X58656Y163221D01*
D10*
X127990Y275655D02*
X135610Y275655D01*
X135610Y288855D02*
X128240Y288855D01*
D13*
X124629Y282244D03*
X139107Y282244D03*
D12*
X153149Y280290D02*
X153149Y278823D01*
X153148Y278823D02*
X153150Y278749D01*
X153156Y278674D01*
X153165Y278601D01*
X153178Y278527D01*
X153195Y278455D01*
X153215Y278384D01*
X153239Y278313D01*
X153267Y278244D01*
X153298Y278177D01*
X153332Y278111D01*
X153370Y278046D01*
X153411Y277984D01*
X153455Y277924D01*
X153502Y277867D01*
X153552Y277812D01*
X153605Y277759D01*
X153660Y277709D01*
X153717Y277662D01*
X153777Y277618D01*
X153839Y277577D01*
X153904Y277539D01*
X153970Y277505D01*
X154037Y277474D01*
X154106Y277446D01*
X154177Y277422D01*
X154248Y277402D01*
X154320Y277385D01*
X154394Y277372D01*
X154467Y277363D01*
X154542Y277357D01*
X154616Y277355D01*
X158285Y277355D01*
X158359Y277357D01*
X158434Y277363D01*
X158507Y277372D01*
X158581Y277385D01*
X158653Y277402D01*
X158724Y277422D01*
X158795Y277446D01*
X158864Y277474D01*
X158931Y277505D01*
X158997Y277539D01*
X159062Y277577D01*
X159124Y277618D01*
X159184Y277662D01*
X159241Y277709D01*
X159296Y277759D01*
X159349Y277812D01*
X159399Y277867D01*
X159446Y277924D01*
X159490Y277984D01*
X159531Y278046D01*
X159569Y278111D01*
X159603Y278176D01*
X159634Y278244D01*
X159662Y278313D01*
X159686Y278384D01*
X159706Y278455D01*
X159723Y278527D01*
X159736Y278601D01*
X159745Y278674D01*
X159751Y278749D01*
X159753Y278823D01*
X159753Y280290D01*
X154983Y283487D02*
X155068Y283489D01*
X155152Y283495D01*
X155236Y283505D01*
X155320Y283518D01*
X155403Y283536D01*
X155485Y283557D01*
X155566Y283582D01*
X155646Y283611D01*
X155724Y283643D01*
X155800Y283679D01*
X155875Y283719D01*
X155948Y283762D01*
X156019Y283808D01*
X156088Y283857D01*
X156155Y283910D01*
X156219Y283966D01*
X156280Y284024D01*
X156338Y284085D01*
X156394Y284149D01*
X156447Y284216D01*
X156496Y284285D01*
X156542Y284356D01*
X156585Y284429D01*
X156625Y284504D01*
X156661Y284580D01*
X156693Y284658D01*
X156722Y284738D01*
X156747Y284819D01*
X156768Y284901D01*
X156786Y284984D01*
X156799Y285068D01*
X156809Y285152D01*
X156815Y285236D01*
X156817Y285321D01*
X156815Y285406D01*
X156809Y285490D01*
X156799Y285574D01*
X156786Y285658D01*
X156768Y285741D01*
X156747Y285823D01*
X156722Y285904D01*
X156693Y285984D01*
X156661Y286062D01*
X156625Y286138D01*
X156585Y286213D01*
X156542Y286286D01*
X156496Y286357D01*
X156447Y286426D01*
X156394Y286493D01*
X156338Y286557D01*
X156280Y286618D01*
X156219Y286676D01*
X156155Y286732D01*
X156088Y286785D01*
X156019Y286834D01*
X155948Y286880D01*
X155875Y286923D01*
X155800Y286963D01*
X155724Y286999D01*
X155646Y287031D01*
X155566Y287060D01*
X155485Y287085D01*
X155403Y287106D01*
X155320Y287124D01*
X155236Y287137D01*
X155152Y287147D01*
X155068Y287153D01*
X154983Y287155D01*
X154898Y287153D01*
X154814Y287147D01*
X154730Y287137D01*
X154646Y287124D01*
X154563Y287106D01*
X154481Y287085D01*
X154400Y287060D01*
X154320Y287031D01*
X154242Y286999D01*
X154166Y286963D01*
X154091Y286923D01*
X154018Y286880D01*
X153947Y286834D01*
X153878Y286785D01*
X153811Y286732D01*
X153747Y286676D01*
X153686Y286618D01*
X153628Y286557D01*
X153572Y286493D01*
X153519Y286426D01*
X153470Y286357D01*
X153424Y286286D01*
X153381Y286213D01*
X153341Y286138D01*
X153305Y286062D01*
X153273Y285984D01*
X153244Y285904D01*
X153219Y285823D01*
X153198Y285741D01*
X153180Y285658D01*
X153167Y285574D01*
X153157Y285490D01*
X153151Y285406D01*
X153149Y285321D01*
X153151Y285236D01*
X153157Y285152D01*
X153167Y285068D01*
X153180Y284984D01*
X153198Y284901D01*
X153219Y284819D01*
X153244Y284738D01*
X153273Y284658D01*
X153305Y284580D01*
X153341Y284504D01*
X153381Y284429D01*
X153424Y284356D01*
X153470Y284285D01*
X153519Y284216D01*
X153572Y284149D01*
X153628Y284085D01*
X153686Y284024D01*
X153747Y283966D01*
X153811Y283910D01*
X153878Y283857D01*
X153947Y283808D01*
X154018Y283762D01*
X154091Y283719D01*
X154166Y283679D01*
X154242Y283643D01*
X154320Y283611D01*
X154400Y283582D01*
X154481Y283557D01*
X154563Y283536D01*
X154646Y283518D01*
X154730Y283505D01*
X154814Y283495D01*
X154898Y283489D01*
X154983Y283487D01*
X158285Y283853D02*
X158361Y283855D01*
X158436Y283861D01*
X158511Y283870D01*
X158585Y283884D01*
X158659Y283901D01*
X158731Y283923D01*
X158803Y283947D01*
X158873Y283976D01*
X158941Y284008D01*
X159008Y284043D01*
X159073Y284082D01*
X159136Y284125D01*
X159196Y284170D01*
X159254Y284218D01*
X159310Y284270D01*
X159362Y284324D01*
X159412Y284381D01*
X159459Y284440D01*
X159503Y284501D01*
X159544Y284565D01*
X159581Y284631D01*
X159615Y284699D01*
X159645Y284768D01*
X159672Y284839D01*
X159695Y284911D01*
X159714Y284984D01*
X159729Y285058D01*
X159741Y285133D01*
X159749Y285208D01*
X159753Y285283D01*
X159753Y285359D01*
X159749Y285434D01*
X159741Y285509D01*
X159729Y285584D01*
X159714Y285658D01*
X159695Y285731D01*
X159672Y285803D01*
X159645Y285874D01*
X159615Y285943D01*
X159581Y286011D01*
X159544Y286077D01*
X159503Y286141D01*
X159459Y286202D01*
X159412Y286261D01*
X159362Y286318D01*
X159310Y286372D01*
X159254Y286424D01*
X159196Y286472D01*
X159136Y286517D01*
X159073Y286560D01*
X159008Y286599D01*
X158941Y286634D01*
X158873Y286666D01*
X158803Y286695D01*
X158731Y286719D01*
X158659Y286741D01*
X158585Y286758D01*
X158511Y286772D01*
X158436Y286781D01*
X158361Y286787D01*
X158285Y286789D01*
X158209Y286787D01*
X158134Y286781D01*
X158059Y286772D01*
X157985Y286758D01*
X157911Y286741D01*
X157839Y286719D01*
X157767Y286695D01*
X157697Y286666D01*
X157629Y286634D01*
X157562Y286599D01*
X157497Y286560D01*
X157434Y286517D01*
X157374Y286472D01*
X157316Y286424D01*
X157260Y286372D01*
X157208Y286318D01*
X157158Y286261D01*
X157111Y286202D01*
X157067Y286141D01*
X157026Y286077D01*
X156989Y286011D01*
X156955Y285943D01*
X156925Y285874D01*
X156898Y285803D01*
X156875Y285731D01*
X156856Y285658D01*
X156841Y285584D01*
X156829Y285509D01*
X156821Y285434D01*
X156817Y285359D01*
X156817Y285283D01*
X156821Y285208D01*
X156829Y285133D01*
X156841Y285058D01*
X156856Y284984D01*
X156875Y284911D01*
X156898Y284839D01*
X156925Y284768D01*
X156955Y284699D01*
X156989Y284631D01*
X157026Y284565D01*
X157067Y284501D01*
X157111Y284440D01*
X157158Y284381D01*
X157208Y284324D01*
X157260Y284270D01*
X157316Y284218D01*
X157374Y284170D01*
X157434Y284125D01*
X157497Y284082D01*
X157562Y284043D01*
X157629Y284008D01*
X157697Y283976D01*
X157767Y283947D01*
X157839Y283923D01*
X157911Y283901D01*
X157985Y283884D01*
X158059Y283870D01*
X158134Y283861D01*
X158209Y283855D01*
X158285Y283853D01*
X523300Y516500D02*
X523300Y536500D01*
X523300Y516500D02*
X537300Y516500D01*
X537300Y536500D01*
X523300Y536500D01*
X530300Y531500D02*
X526300Y525500D01*
X534300Y525500D01*
X530300Y531500D01*
D15*
X522680Y544280D02*
X522680Y508720D01*
X537920Y508720D01*
X537920Y544280D01*
X522680Y544280D01*
D16*
X530300Y532500D03*
D12*
X519538Y525510D02*
X512934Y525510D01*
X519538Y525510D02*
X519538Y527345D01*
X519536Y527430D01*
X519530Y527514D01*
X519520Y527598D01*
X519507Y527682D01*
X519489Y527765D01*
X519468Y527847D01*
X519443Y527928D01*
X519414Y528008D01*
X519382Y528086D01*
X519346Y528162D01*
X519306Y528237D01*
X519263Y528310D01*
X519217Y528381D01*
X519168Y528450D01*
X519115Y528517D01*
X519059Y528581D01*
X519001Y528642D01*
X518940Y528700D01*
X518876Y528756D01*
X518809Y528809D01*
X518740Y528858D01*
X518669Y528904D01*
X518596Y528947D01*
X518521Y528987D01*
X518445Y529023D01*
X518367Y529055D01*
X518287Y529084D01*
X518206Y529109D01*
X518124Y529130D01*
X518041Y529148D01*
X517957Y529161D01*
X517873Y529171D01*
X517789Y529177D01*
X517704Y529179D01*
X514768Y529179D01*
X514683Y529177D01*
X514599Y529171D01*
X514515Y529161D01*
X514431Y529148D01*
X514348Y529130D01*
X514266Y529109D01*
X514185Y529084D01*
X514105Y529055D01*
X514027Y529023D01*
X513951Y528987D01*
X513876Y528947D01*
X513803Y528904D01*
X513732Y528858D01*
X513663Y528809D01*
X513596Y528756D01*
X513532Y528700D01*
X513471Y528642D01*
X513413Y528581D01*
X513357Y528517D01*
X513304Y528450D01*
X513255Y528381D01*
X513209Y528310D01*
X513166Y528237D01*
X513126Y528162D01*
X513090Y528086D01*
X513058Y528008D01*
X513029Y527928D01*
X513004Y527847D01*
X512983Y527765D01*
X512965Y527682D01*
X512952Y527598D01*
X512942Y527514D01*
X512936Y527430D01*
X512934Y527345D01*
X512934Y525510D01*
X519538Y535087D02*
X519536Y535166D01*
X519531Y535244D01*
X519521Y535322D01*
X519508Y535399D01*
X519491Y535476D01*
X519471Y535552D01*
X519447Y535627D01*
X519420Y535701D01*
X519389Y535773D01*
X519354Y535844D01*
X519317Y535913D01*
X519276Y535980D01*
X519232Y536045D01*
X519185Y536108D01*
X519135Y536168D01*
X519082Y536226D01*
X519026Y536282D01*
X518968Y536335D01*
X518908Y536385D01*
X518845Y536432D01*
X518780Y536476D01*
X518713Y536517D01*
X518644Y536554D01*
X518573Y536589D01*
X518501Y536620D01*
X518427Y536647D01*
X518352Y536671D01*
X518276Y536691D01*
X518199Y536708D01*
X518122Y536721D01*
X518044Y536731D01*
X517966Y536736D01*
X517887Y536738D01*
X519538Y535087D02*
X519536Y534998D01*
X519531Y534909D01*
X519521Y534821D01*
X519508Y534733D01*
X519492Y534646D01*
X519471Y534559D01*
X519447Y534474D01*
X519420Y534389D01*
X519389Y534306D01*
X519354Y534224D01*
X519316Y534143D01*
X519275Y534064D01*
X519231Y533988D01*
X519183Y533912D01*
X519132Y533839D01*
X519079Y533769D01*
X519022Y533700D01*
X518962Y533634D01*
X518900Y533571D01*
X518835Y533510D01*
X518768Y533452D01*
X518698Y533397D01*
X518626Y533344D01*
X518552Y533295D01*
X518476Y533249D01*
X518398Y533207D01*
X518318Y533167D01*
X518237Y533131D01*
X518154Y533098D01*
X518070Y533069D01*
X516603Y536188D02*
X516659Y536244D01*
X516718Y536298D01*
X516779Y536349D01*
X516843Y536398D01*
X516908Y536443D01*
X516976Y536486D01*
X517045Y536525D01*
X517116Y536562D01*
X517189Y536595D01*
X517263Y536624D01*
X517338Y536651D01*
X517414Y536674D01*
X517492Y536693D01*
X517570Y536709D01*
X517648Y536722D01*
X517728Y536731D01*
X517807Y536736D01*
X517887Y536738D01*
X516603Y536188D02*
X512934Y533069D01*
X512934Y536738D01*
X523300Y477500D02*
X523300Y457500D01*
X537300Y457500D01*
X537300Y477500D01*
X523300Y477500D01*
X530300Y472500D02*
X526300Y466500D01*
X534300Y466500D01*
X530300Y472500D01*
D15*
X522680Y485280D02*
X522680Y449720D01*
X537920Y449720D01*
X537920Y485280D01*
X522680Y485280D01*
D16*
X530300Y473500D03*
D12*
X519538Y466510D02*
X512934Y466510D01*
X519538Y466510D02*
X519538Y468345D01*
X519536Y468430D01*
X519530Y468514D01*
X519520Y468598D01*
X519507Y468682D01*
X519489Y468765D01*
X519468Y468847D01*
X519443Y468928D01*
X519414Y469008D01*
X519382Y469086D01*
X519346Y469162D01*
X519306Y469237D01*
X519263Y469310D01*
X519217Y469381D01*
X519168Y469450D01*
X519115Y469517D01*
X519059Y469581D01*
X519001Y469642D01*
X518940Y469700D01*
X518876Y469756D01*
X518809Y469809D01*
X518740Y469858D01*
X518669Y469904D01*
X518596Y469947D01*
X518521Y469987D01*
X518445Y470023D01*
X518367Y470055D01*
X518287Y470084D01*
X518206Y470109D01*
X518124Y470130D01*
X518041Y470148D01*
X517957Y470161D01*
X517873Y470171D01*
X517789Y470177D01*
X517704Y470179D01*
X514768Y470179D01*
X514683Y470177D01*
X514599Y470171D01*
X514515Y470161D01*
X514431Y470148D01*
X514348Y470130D01*
X514266Y470109D01*
X514185Y470084D01*
X514105Y470055D01*
X514027Y470023D01*
X513951Y469987D01*
X513876Y469947D01*
X513803Y469904D01*
X513732Y469858D01*
X513663Y469809D01*
X513596Y469756D01*
X513532Y469700D01*
X513471Y469642D01*
X513413Y469581D01*
X513357Y469517D01*
X513304Y469450D01*
X513255Y469381D01*
X513209Y469310D01*
X513166Y469237D01*
X513126Y469162D01*
X513090Y469086D01*
X513058Y469008D01*
X513029Y468928D01*
X513004Y468847D01*
X512983Y468765D01*
X512965Y468682D01*
X512952Y468598D01*
X512942Y468514D01*
X512936Y468430D01*
X512934Y468345D01*
X512934Y466510D01*
X512934Y474069D02*
X512934Y475904D01*
X512936Y475989D01*
X512942Y476073D01*
X512952Y476157D01*
X512965Y476241D01*
X512983Y476324D01*
X513004Y476406D01*
X513029Y476487D01*
X513058Y476567D01*
X513090Y476645D01*
X513126Y476721D01*
X513166Y476796D01*
X513209Y476869D01*
X513255Y476940D01*
X513304Y477009D01*
X513357Y477076D01*
X513413Y477140D01*
X513471Y477201D01*
X513532Y477259D01*
X513596Y477315D01*
X513663Y477368D01*
X513732Y477417D01*
X513803Y477463D01*
X513876Y477506D01*
X513951Y477546D01*
X514027Y477582D01*
X514105Y477614D01*
X514185Y477643D01*
X514266Y477668D01*
X514348Y477689D01*
X514431Y477707D01*
X514515Y477720D01*
X514599Y477730D01*
X514683Y477736D01*
X514768Y477738D01*
X514853Y477736D01*
X514937Y477730D01*
X515021Y477720D01*
X515105Y477707D01*
X515188Y477689D01*
X515270Y477668D01*
X515351Y477643D01*
X515431Y477614D01*
X515509Y477582D01*
X515585Y477546D01*
X515660Y477506D01*
X515733Y477463D01*
X515804Y477417D01*
X515873Y477368D01*
X515940Y477315D01*
X516004Y477259D01*
X516065Y477201D01*
X516123Y477140D01*
X516179Y477076D01*
X516232Y477009D01*
X516281Y476940D01*
X516327Y476869D01*
X516370Y476796D01*
X516410Y476721D01*
X516446Y476645D01*
X516478Y476567D01*
X516507Y476487D01*
X516532Y476406D01*
X516553Y476324D01*
X516571Y476241D01*
X516584Y476157D01*
X516594Y476073D01*
X516600Y475989D01*
X516602Y475904D01*
X519538Y476270D02*
X519538Y474069D01*
X519538Y476270D02*
X519536Y476346D01*
X519530Y476421D01*
X519521Y476496D01*
X519507Y476570D01*
X519490Y476644D01*
X519468Y476716D01*
X519444Y476788D01*
X519415Y476858D01*
X519383Y476926D01*
X519348Y476993D01*
X519309Y477058D01*
X519266Y477121D01*
X519221Y477181D01*
X519173Y477239D01*
X519121Y477295D01*
X519067Y477347D01*
X519010Y477397D01*
X518951Y477444D01*
X518890Y477488D01*
X518826Y477529D01*
X518760Y477566D01*
X518692Y477600D01*
X518623Y477630D01*
X518552Y477657D01*
X518480Y477680D01*
X518407Y477699D01*
X518333Y477714D01*
X518258Y477726D01*
X518183Y477734D01*
X518108Y477738D01*
X518032Y477738D01*
X517957Y477734D01*
X517882Y477726D01*
X517807Y477714D01*
X517733Y477699D01*
X517660Y477680D01*
X517588Y477657D01*
X517517Y477630D01*
X517448Y477600D01*
X517380Y477566D01*
X517314Y477529D01*
X517250Y477488D01*
X517189Y477444D01*
X517130Y477397D01*
X517073Y477347D01*
X517019Y477295D01*
X516967Y477239D01*
X516919Y477181D01*
X516874Y477121D01*
X516831Y477058D01*
X516792Y476993D01*
X516757Y476926D01*
X516725Y476858D01*
X516696Y476788D01*
X516672Y476716D01*
X516650Y476644D01*
X516633Y476570D01*
X516619Y476496D01*
X516610Y476421D01*
X516604Y476346D01*
X516602Y476270D01*
X516603Y476270D02*
X516603Y474803D01*
X563645Y516500D02*
X563645Y536500D01*
X549645Y536500D01*
X549645Y516500D01*
X563645Y516500D01*
X556645Y521500D02*
X560645Y527500D01*
X552645Y527500D01*
X556645Y521500D01*
D15*
X564265Y508720D02*
X564265Y544280D01*
X549025Y544280D01*
X549025Y508720D01*
X564265Y508720D01*
D16*
X556645Y520500D03*
D12*
X567407Y516262D02*
X574011Y516262D01*
X574011Y518096D01*
X574009Y518181D01*
X574003Y518265D01*
X573993Y518349D01*
X573980Y518433D01*
X573962Y518516D01*
X573941Y518598D01*
X573916Y518679D01*
X573887Y518759D01*
X573855Y518837D01*
X573819Y518913D01*
X573779Y518988D01*
X573736Y519061D01*
X573690Y519132D01*
X573641Y519201D01*
X573588Y519268D01*
X573532Y519332D01*
X573474Y519393D01*
X573413Y519451D01*
X573349Y519507D01*
X573282Y519560D01*
X573213Y519609D01*
X573142Y519655D01*
X573069Y519698D01*
X572994Y519738D01*
X572918Y519774D01*
X572840Y519806D01*
X572760Y519835D01*
X572679Y519860D01*
X572597Y519881D01*
X572514Y519899D01*
X572430Y519912D01*
X572346Y519922D01*
X572262Y519928D01*
X572177Y519930D01*
X572177Y519931D02*
X569241Y519931D01*
X569241Y519930D02*
X569156Y519928D01*
X569072Y519922D01*
X568988Y519912D01*
X568904Y519899D01*
X568821Y519881D01*
X568739Y519860D01*
X568658Y519835D01*
X568578Y519806D01*
X568500Y519774D01*
X568424Y519738D01*
X568349Y519698D01*
X568276Y519655D01*
X568205Y519609D01*
X568136Y519560D01*
X568069Y519507D01*
X568005Y519451D01*
X567944Y519393D01*
X567886Y519332D01*
X567830Y519268D01*
X567777Y519201D01*
X567728Y519132D01*
X567682Y519061D01*
X567639Y518988D01*
X567599Y518913D01*
X567563Y518837D01*
X567531Y518759D01*
X567502Y518679D01*
X567477Y518598D01*
X567456Y518516D01*
X567438Y518433D01*
X567425Y518349D01*
X567415Y518265D01*
X567409Y518181D01*
X567407Y518096D01*
X567407Y516262D01*
X568875Y523821D02*
X574011Y525289D01*
X568875Y523821D02*
X568875Y527490D01*
X570342Y526389D02*
X567407Y526389D01*
X563556Y475767D02*
X563556Y455767D01*
X563556Y475767D02*
X549556Y475767D01*
X549556Y455767D01*
X563556Y455767D01*
X556556Y460767D02*
X560556Y466767D01*
X552556Y466767D01*
X556556Y460767D01*
D15*
X564176Y447987D02*
X564176Y483547D01*
X548936Y483547D01*
X548936Y447987D01*
X564176Y447987D01*
D16*
X556556Y459767D03*
D12*
X567318Y455529D02*
X573922Y455529D01*
X573922Y457363D01*
X573920Y457448D01*
X573914Y457532D01*
X573904Y457616D01*
X573891Y457700D01*
X573873Y457783D01*
X573852Y457865D01*
X573827Y457946D01*
X573798Y458026D01*
X573766Y458104D01*
X573730Y458180D01*
X573690Y458255D01*
X573647Y458328D01*
X573601Y458399D01*
X573552Y458468D01*
X573499Y458535D01*
X573443Y458599D01*
X573385Y458660D01*
X573324Y458718D01*
X573260Y458774D01*
X573193Y458827D01*
X573124Y458876D01*
X573053Y458922D01*
X572980Y458965D01*
X572905Y459005D01*
X572829Y459041D01*
X572751Y459073D01*
X572671Y459102D01*
X572590Y459127D01*
X572508Y459148D01*
X572425Y459166D01*
X572341Y459179D01*
X572257Y459189D01*
X572173Y459195D01*
X572088Y459197D01*
X572088Y459198D02*
X569153Y459198D01*
X569153Y459197D02*
X569068Y459195D01*
X568984Y459189D01*
X568900Y459179D01*
X568816Y459166D01*
X568733Y459148D01*
X568651Y459127D01*
X568570Y459102D01*
X568490Y459073D01*
X568412Y459041D01*
X568336Y459005D01*
X568261Y458965D01*
X568188Y458922D01*
X568117Y458876D01*
X568048Y458827D01*
X567981Y458774D01*
X567917Y458718D01*
X567856Y458660D01*
X567798Y458599D01*
X567742Y458535D01*
X567689Y458468D01*
X567640Y458399D01*
X567594Y458328D01*
X567551Y458255D01*
X567511Y458180D01*
X567475Y458104D01*
X567443Y458026D01*
X567414Y457946D01*
X567389Y457865D01*
X567368Y457783D01*
X567350Y457700D01*
X567337Y457616D01*
X567327Y457532D01*
X567321Y457448D01*
X567319Y457363D01*
X567318Y457363D02*
X567318Y455529D01*
X567318Y463088D02*
X567318Y465289D01*
X567320Y465363D01*
X567326Y465438D01*
X567335Y465511D01*
X567348Y465585D01*
X567365Y465657D01*
X567385Y465728D01*
X567409Y465799D01*
X567437Y465868D01*
X567468Y465935D01*
X567502Y466001D01*
X567540Y466066D01*
X567581Y466128D01*
X567625Y466188D01*
X567672Y466245D01*
X567722Y466300D01*
X567775Y466353D01*
X567830Y466403D01*
X567887Y466450D01*
X567947Y466494D01*
X568009Y466535D01*
X568074Y466573D01*
X568139Y466607D01*
X568207Y466638D01*
X568276Y466666D01*
X568347Y466690D01*
X568418Y466710D01*
X568490Y466727D01*
X568564Y466740D01*
X568637Y466749D01*
X568712Y466755D01*
X568786Y466757D01*
X569519Y466757D01*
X569593Y466755D01*
X569668Y466749D01*
X569741Y466740D01*
X569815Y466727D01*
X569887Y466710D01*
X569958Y466690D01*
X570029Y466666D01*
X570098Y466638D01*
X570165Y466607D01*
X570231Y466573D01*
X570296Y466535D01*
X570358Y466494D01*
X570418Y466450D01*
X570475Y466403D01*
X570530Y466353D01*
X570583Y466300D01*
X570633Y466245D01*
X570680Y466188D01*
X570724Y466128D01*
X570765Y466066D01*
X570803Y466001D01*
X570837Y465935D01*
X570868Y465868D01*
X570896Y465799D01*
X570920Y465728D01*
X570940Y465657D01*
X570957Y465585D01*
X570970Y465511D01*
X570979Y465438D01*
X570985Y465363D01*
X570987Y465289D01*
X570987Y463088D01*
X573922Y463088D01*
X573922Y466757D01*
D14*
X669700Y546200D02*
X702700Y546200D01*
X669700Y546200D02*
X664700Y546200D01*
X664700Y498200D01*
X669700Y498200D01*
X702700Y498200D01*
X702700Y546200D01*
X669700Y546200D02*
X669700Y498200D01*
D17*
X658200Y503150D03*
X658200Y515850D03*
X658200Y528550D03*
X658200Y541250D03*
X709200Y541250D03*
X709200Y528550D03*
X709200Y515850D03*
X709200Y503150D03*
D18*
X672957Y503150D02*
X672959Y503252D01*
X672965Y503354D01*
X672975Y503455D01*
X672989Y503557D01*
X673007Y503657D01*
X673028Y503757D01*
X673054Y503856D01*
X673083Y503953D01*
X673117Y504050D01*
X673154Y504145D01*
X673194Y504238D01*
X673239Y504330D01*
X673286Y504421D01*
X673338Y504509D01*
X673392Y504595D01*
X673450Y504679D01*
X673512Y504760D01*
X673576Y504840D01*
X673644Y504916D01*
X673714Y504990D01*
X673787Y505061D01*
X673863Y505129D01*
X673942Y505194D01*
X674023Y505257D01*
X674106Y505315D01*
X674192Y505371D01*
X674279Y505423D01*
X674369Y505472D01*
X674460Y505517D01*
X674554Y505559D01*
X674648Y505596D01*
X674745Y505631D01*
X674842Y505661D01*
X674940Y505688D01*
X675040Y505710D01*
X675140Y505729D01*
X675241Y505744D01*
X675343Y505755D01*
X675444Y505762D01*
X675546Y505765D01*
X675649Y505764D01*
X675750Y505759D01*
X675852Y505750D01*
X675953Y505737D01*
X676054Y505720D01*
X676154Y505699D01*
X676253Y505675D01*
X676351Y505646D01*
X676448Y505614D01*
X676543Y505578D01*
X676637Y505538D01*
X676730Y505495D01*
X676820Y505448D01*
X676909Y505397D01*
X676996Y505344D01*
X677080Y505286D01*
X677162Y505226D01*
X677242Y505162D01*
X677319Y505096D01*
X677394Y505026D01*
X677466Y504953D01*
X677535Y504878D01*
X677600Y504800D01*
X677663Y504720D01*
X677723Y504637D01*
X677779Y504552D01*
X677832Y504465D01*
X677882Y504376D01*
X677928Y504285D01*
X677971Y504192D01*
X678009Y504097D01*
X678044Y504002D01*
X678076Y503905D01*
X678103Y503806D01*
X678127Y503707D01*
X678147Y503607D01*
X678163Y503506D01*
X678175Y503405D01*
X678183Y503303D01*
X678187Y503201D01*
X678187Y503099D01*
X678183Y502997D01*
X678175Y502895D01*
X678163Y502794D01*
X678147Y502693D01*
X678127Y502593D01*
X678103Y502494D01*
X678076Y502395D01*
X678044Y502298D01*
X678009Y502203D01*
X677971Y502108D01*
X677928Y502015D01*
X677882Y501924D01*
X677832Y501835D01*
X677779Y501748D01*
X677723Y501663D01*
X677663Y501580D01*
X677600Y501500D01*
X677535Y501422D01*
X677466Y501347D01*
X677394Y501274D01*
X677319Y501204D01*
X677242Y501138D01*
X677162Y501074D01*
X677080Y501014D01*
X676996Y500956D01*
X676909Y500903D01*
X676820Y500852D01*
X676730Y500805D01*
X676637Y500762D01*
X676543Y500722D01*
X676448Y500686D01*
X676351Y500654D01*
X676253Y500625D01*
X676154Y500601D01*
X676054Y500580D01*
X675953Y500563D01*
X675852Y500550D01*
X675750Y500541D01*
X675649Y500536D01*
X675546Y500535D01*
X675444Y500538D01*
X675343Y500545D01*
X675241Y500556D01*
X675140Y500571D01*
X675040Y500590D01*
X674940Y500612D01*
X674842Y500639D01*
X674745Y500669D01*
X674648Y500704D01*
X674554Y500741D01*
X674460Y500783D01*
X674369Y500828D01*
X674279Y500877D01*
X674192Y500929D01*
X674106Y500985D01*
X674023Y501043D01*
X673942Y501106D01*
X673863Y501171D01*
X673787Y501239D01*
X673714Y501310D01*
X673644Y501384D01*
X673576Y501460D01*
X673512Y501540D01*
X673450Y501621D01*
X673392Y501705D01*
X673338Y501791D01*
X673286Y501879D01*
X673239Y501970D01*
X673194Y502062D01*
X673154Y502155D01*
X673117Y502250D01*
X673083Y502347D01*
X673054Y502444D01*
X673028Y502543D01*
X673007Y502643D01*
X672989Y502743D01*
X672975Y502845D01*
X672965Y502946D01*
X672959Y503048D01*
X672957Y503150D01*
D14*
X669700Y546200D02*
X702700Y546200D01*
X669700Y546200D02*
X664700Y546200D01*
X664700Y498200D01*
X669700Y498200D01*
X702700Y498200D01*
X702700Y546200D01*
D19*
X687411Y494260D02*
X687411Y484100D01*
X688540Y484100D02*
X686282Y484100D01*
X686282Y494260D02*
X688540Y494260D01*
X678890Y484100D02*
X676632Y484100D01*
X678890Y484100D02*
X678983Y484102D01*
X679076Y484108D01*
X679169Y484117D01*
X679262Y484131D01*
X679353Y484148D01*
X679444Y484169D01*
X679534Y484194D01*
X679623Y484222D01*
X679711Y484254D01*
X679797Y484290D01*
X679882Y484329D01*
X679965Y484372D01*
X680046Y484418D01*
X680125Y484468D01*
X680202Y484520D01*
X680277Y484576D01*
X680349Y484635D01*
X680419Y484697D01*
X680487Y484761D01*
X680551Y484829D01*
X680613Y484899D01*
X680672Y484971D01*
X680728Y485046D01*
X680780Y485123D01*
X680830Y485202D01*
X680876Y485283D01*
X680919Y485366D01*
X680958Y485451D01*
X680994Y485537D01*
X681026Y485625D01*
X681054Y485714D01*
X681079Y485804D01*
X681100Y485895D01*
X681117Y485986D01*
X681131Y486079D01*
X681140Y486172D01*
X681146Y486265D01*
X681148Y486358D01*
X681148Y492002D01*
X681146Y492095D01*
X681140Y492188D01*
X681131Y492281D01*
X681117Y492374D01*
X681100Y492465D01*
X681079Y492556D01*
X681054Y492646D01*
X681026Y492735D01*
X680994Y492823D01*
X680958Y492909D01*
X680919Y492994D01*
X680876Y493077D01*
X680830Y493158D01*
X680780Y493237D01*
X680728Y493314D01*
X680672Y493389D01*
X680613Y493461D01*
X680551Y493531D01*
X680487Y493599D01*
X680419Y493663D01*
X680349Y493725D01*
X680277Y493784D01*
X680202Y493840D01*
X680125Y493892D01*
X680046Y493942D01*
X679965Y493988D01*
X679882Y494031D01*
X679797Y494070D01*
X679711Y494106D01*
X679623Y494138D01*
X679534Y494166D01*
X679444Y494191D01*
X679353Y494212D01*
X679262Y494229D01*
X679169Y494243D01*
X679076Y494252D01*
X678983Y494258D01*
X678890Y494260D01*
X676632Y494260D01*
X668460Y494260D02*
X668360Y494258D01*
X668261Y494252D01*
X668161Y494242D01*
X668063Y494229D01*
X667964Y494211D01*
X667867Y494190D01*
X667771Y494165D01*
X667675Y494136D01*
X667581Y494103D01*
X667488Y494067D01*
X667397Y494027D01*
X667307Y493983D01*
X667219Y493936D01*
X667133Y493886D01*
X667049Y493832D01*
X666967Y493775D01*
X666888Y493715D01*
X666810Y493651D01*
X666736Y493585D01*
X666664Y493516D01*
X666595Y493444D01*
X666529Y493370D01*
X666465Y493292D01*
X666405Y493213D01*
X666348Y493131D01*
X666294Y493047D01*
X666244Y492961D01*
X666197Y492873D01*
X666153Y492783D01*
X666113Y492692D01*
X666077Y492599D01*
X666044Y492505D01*
X666015Y492409D01*
X665990Y492313D01*
X665969Y492216D01*
X665951Y492117D01*
X665938Y492019D01*
X665928Y491919D01*
X665922Y491820D01*
X665920Y491720D01*
X668460Y494260D02*
X668571Y494258D01*
X668682Y494252D01*
X668792Y494243D01*
X668902Y494230D01*
X669012Y494213D01*
X669121Y494192D01*
X669229Y494168D01*
X669336Y494140D01*
X669443Y494109D01*
X669548Y494073D01*
X669652Y494035D01*
X669754Y493992D01*
X669855Y493947D01*
X669955Y493897D01*
X670052Y493845D01*
X670148Y493789D01*
X670242Y493730D01*
X670334Y493668D01*
X670424Y493603D01*
X670511Y493535D01*
X670596Y493463D01*
X670679Y493389D01*
X670759Y493313D01*
X670836Y493233D01*
X670911Y493151D01*
X670983Y493067D01*
X671052Y492980D01*
X671117Y492891D01*
X671180Y492799D01*
X671240Y492706D01*
X671296Y492610D01*
X671350Y492513D01*
X671399Y492414D01*
X671446Y492313D01*
X671489Y492211D01*
X671528Y492107D01*
X671564Y492002D01*
X666767Y489745D02*
X666695Y489815D01*
X666626Y489888D01*
X666560Y489964D01*
X666497Y490042D01*
X666437Y490122D01*
X666380Y490205D01*
X666325Y490289D01*
X666274Y490376D01*
X666226Y490464D01*
X666182Y490554D01*
X666141Y490645D01*
X666103Y490738D01*
X666068Y490833D01*
X666037Y490928D01*
X666010Y491025D01*
X665986Y491122D01*
X665966Y491221D01*
X665950Y491320D01*
X665937Y491419D01*
X665927Y491519D01*
X665922Y491620D01*
X665920Y491720D01*
X666767Y489744D02*
X671564Y484100D01*
X665920Y484100D01*
D14*
X429340Y355400D02*
X396340Y355400D01*
X429340Y355400D02*
X434340Y355400D01*
X434340Y403400D01*
X429340Y403400D01*
X396340Y403400D01*
X396340Y355400D01*
X429340Y355400D02*
X429340Y403400D01*
D17*
X440840Y398450D03*
X440840Y385750D03*
X440840Y373050D03*
X440840Y360350D03*
X389840Y360350D03*
X389840Y373050D03*
X389840Y385750D03*
X389840Y398450D03*
D18*
X420853Y398450D02*
X420855Y398552D01*
X420861Y398654D01*
X420871Y398755D01*
X420885Y398857D01*
X420903Y398957D01*
X420924Y399057D01*
X420950Y399156D01*
X420979Y399253D01*
X421013Y399350D01*
X421050Y399445D01*
X421090Y399538D01*
X421135Y399630D01*
X421182Y399721D01*
X421234Y399809D01*
X421288Y399895D01*
X421346Y399979D01*
X421408Y400060D01*
X421472Y400140D01*
X421540Y400216D01*
X421610Y400290D01*
X421683Y400361D01*
X421759Y400429D01*
X421838Y400494D01*
X421919Y400557D01*
X422002Y400615D01*
X422088Y400671D01*
X422175Y400723D01*
X422265Y400772D01*
X422356Y400817D01*
X422450Y400859D01*
X422544Y400896D01*
X422641Y400931D01*
X422738Y400961D01*
X422836Y400988D01*
X422936Y401010D01*
X423036Y401029D01*
X423137Y401044D01*
X423239Y401055D01*
X423340Y401062D01*
X423442Y401065D01*
X423545Y401064D01*
X423646Y401059D01*
X423748Y401050D01*
X423849Y401037D01*
X423950Y401020D01*
X424050Y400999D01*
X424149Y400975D01*
X424247Y400946D01*
X424344Y400914D01*
X424439Y400878D01*
X424533Y400838D01*
X424626Y400795D01*
X424716Y400748D01*
X424805Y400697D01*
X424892Y400644D01*
X424976Y400586D01*
X425058Y400526D01*
X425138Y400462D01*
X425215Y400396D01*
X425290Y400326D01*
X425362Y400253D01*
X425431Y400178D01*
X425496Y400100D01*
X425559Y400020D01*
X425619Y399937D01*
X425675Y399852D01*
X425728Y399765D01*
X425778Y399676D01*
X425824Y399585D01*
X425867Y399492D01*
X425905Y399397D01*
X425940Y399302D01*
X425972Y399205D01*
X425999Y399106D01*
X426023Y399007D01*
X426043Y398907D01*
X426059Y398806D01*
X426071Y398705D01*
X426079Y398603D01*
X426083Y398501D01*
X426083Y398399D01*
X426079Y398297D01*
X426071Y398195D01*
X426059Y398094D01*
X426043Y397993D01*
X426023Y397893D01*
X425999Y397794D01*
X425972Y397695D01*
X425940Y397598D01*
X425905Y397503D01*
X425867Y397408D01*
X425824Y397315D01*
X425778Y397224D01*
X425728Y397135D01*
X425675Y397048D01*
X425619Y396963D01*
X425559Y396880D01*
X425496Y396800D01*
X425431Y396722D01*
X425362Y396647D01*
X425290Y396574D01*
X425215Y396504D01*
X425138Y396438D01*
X425058Y396374D01*
X424976Y396314D01*
X424892Y396256D01*
X424805Y396203D01*
X424716Y396152D01*
X424626Y396105D01*
X424533Y396062D01*
X424439Y396022D01*
X424344Y395986D01*
X424247Y395954D01*
X424149Y395925D01*
X424050Y395901D01*
X423950Y395880D01*
X423849Y395863D01*
X423748Y395850D01*
X423646Y395841D01*
X423545Y395836D01*
X423442Y395835D01*
X423340Y395838D01*
X423239Y395845D01*
X423137Y395856D01*
X423036Y395871D01*
X422936Y395890D01*
X422836Y395912D01*
X422738Y395939D01*
X422641Y395969D01*
X422544Y396004D01*
X422450Y396041D01*
X422356Y396083D01*
X422265Y396128D01*
X422175Y396177D01*
X422088Y396229D01*
X422002Y396285D01*
X421919Y396343D01*
X421838Y396406D01*
X421759Y396471D01*
X421683Y396539D01*
X421610Y396610D01*
X421540Y396684D01*
X421472Y396760D01*
X421408Y396840D01*
X421346Y396921D01*
X421288Y397005D01*
X421234Y397091D01*
X421182Y397179D01*
X421135Y397270D01*
X421090Y397362D01*
X421050Y397455D01*
X421013Y397550D01*
X420979Y397647D01*
X420950Y397744D01*
X420924Y397843D01*
X420903Y397943D01*
X420885Y398043D01*
X420871Y398145D01*
X420861Y398246D01*
X420855Y398348D01*
X420853Y398450D01*
D14*
X429340Y355400D02*
X396340Y355400D01*
X429340Y355400D02*
X434340Y355400D01*
X434340Y403400D01*
X429340Y403400D01*
X396340Y403400D01*
X396340Y355400D01*
D19*
X428791Y350558D02*
X428791Y340398D01*
X429920Y340398D02*
X427662Y340398D01*
X427662Y350558D02*
X429920Y350558D01*
X420269Y340398D02*
X418012Y340398D01*
X420269Y340398D02*
X420362Y340400D01*
X420455Y340406D01*
X420548Y340415D01*
X420641Y340429D01*
X420732Y340446D01*
X420823Y340467D01*
X420913Y340492D01*
X421002Y340520D01*
X421090Y340552D01*
X421176Y340588D01*
X421261Y340627D01*
X421344Y340670D01*
X421425Y340716D01*
X421504Y340766D01*
X421581Y340818D01*
X421656Y340874D01*
X421728Y340933D01*
X421798Y340995D01*
X421866Y341059D01*
X421930Y341127D01*
X421992Y341197D01*
X422051Y341269D01*
X422107Y341344D01*
X422159Y341421D01*
X422209Y341500D01*
X422255Y341581D01*
X422298Y341664D01*
X422337Y341749D01*
X422373Y341835D01*
X422405Y341923D01*
X422433Y342012D01*
X422458Y342102D01*
X422479Y342193D01*
X422496Y342284D01*
X422510Y342377D01*
X422519Y342470D01*
X422525Y342563D01*
X422527Y342656D01*
X422527Y348301D01*
X422525Y348394D01*
X422519Y348487D01*
X422510Y348580D01*
X422496Y348673D01*
X422479Y348764D01*
X422458Y348855D01*
X422433Y348945D01*
X422405Y349034D01*
X422373Y349122D01*
X422337Y349208D01*
X422298Y349293D01*
X422255Y349376D01*
X422209Y349457D01*
X422159Y349536D01*
X422107Y349613D01*
X422051Y349688D01*
X421992Y349760D01*
X421930Y349830D01*
X421866Y349898D01*
X421798Y349962D01*
X421728Y350024D01*
X421656Y350083D01*
X421581Y350139D01*
X421504Y350191D01*
X421425Y350241D01*
X421344Y350287D01*
X421261Y350330D01*
X421176Y350369D01*
X421090Y350405D01*
X421002Y350437D01*
X420913Y350465D01*
X420823Y350490D01*
X420732Y350511D01*
X420641Y350528D01*
X420548Y350542D01*
X420455Y350551D01*
X420362Y350557D01*
X420269Y350559D01*
X420269Y350558D02*
X418012Y350558D01*
X412944Y340398D02*
X410122Y340398D01*
X410122Y340399D02*
X410016Y340401D01*
X409911Y340407D01*
X409806Y340417D01*
X409701Y340431D01*
X409597Y340448D01*
X409494Y340470D01*
X409392Y340495D01*
X409290Y340524D01*
X409190Y340557D01*
X409091Y340594D01*
X408994Y340634D01*
X408898Y340678D01*
X408803Y340726D01*
X408711Y340777D01*
X408621Y340832D01*
X408532Y340889D01*
X408446Y340950D01*
X408363Y341015D01*
X408281Y341082D01*
X408203Y341152D01*
X408127Y341226D01*
X408053Y341302D01*
X407983Y341380D01*
X407916Y341462D01*
X407851Y341545D01*
X407790Y341631D01*
X407733Y341720D01*
X407678Y341810D01*
X407627Y341902D01*
X407579Y341997D01*
X407535Y342093D01*
X407495Y342190D01*
X407458Y342289D01*
X407425Y342389D01*
X407396Y342491D01*
X407371Y342593D01*
X407349Y342696D01*
X407332Y342800D01*
X407318Y342905D01*
X407308Y343010D01*
X407302Y343115D01*
X407300Y343221D01*
X407302Y343327D01*
X407308Y343432D01*
X407318Y343537D01*
X407332Y343642D01*
X407349Y343746D01*
X407371Y343849D01*
X407396Y343951D01*
X407425Y344053D01*
X407458Y344153D01*
X407495Y344252D01*
X407535Y344349D01*
X407579Y344445D01*
X407627Y344540D01*
X407678Y344632D01*
X407733Y344722D01*
X407790Y344811D01*
X407851Y344897D01*
X407916Y344980D01*
X407983Y345062D01*
X408053Y345140D01*
X408127Y345216D01*
X408203Y345290D01*
X408281Y345360D01*
X408363Y345427D01*
X408446Y345492D01*
X408532Y345553D01*
X408621Y345610D01*
X408711Y345665D01*
X408803Y345716D01*
X408898Y345764D01*
X408994Y345808D01*
X409091Y345848D01*
X409190Y345885D01*
X409290Y345918D01*
X409392Y345947D01*
X409494Y345972D01*
X409597Y345994D01*
X409701Y346011D01*
X409806Y346025D01*
X409911Y346035D01*
X410016Y346041D01*
X410122Y346043D01*
X409557Y350558D02*
X412944Y350558D01*
X409557Y350559D02*
X409464Y350557D01*
X409371Y350551D01*
X409278Y350542D01*
X409185Y350528D01*
X409094Y350511D01*
X409003Y350490D01*
X408913Y350465D01*
X408824Y350437D01*
X408736Y350405D01*
X408650Y350369D01*
X408565Y350330D01*
X408482Y350287D01*
X408401Y350241D01*
X408322Y350191D01*
X408245Y350139D01*
X408170Y350083D01*
X408098Y350024D01*
X408028Y349962D01*
X407960Y349898D01*
X407896Y349830D01*
X407834Y349760D01*
X407775Y349688D01*
X407719Y349613D01*
X407667Y349536D01*
X407617Y349457D01*
X407571Y349376D01*
X407528Y349293D01*
X407489Y349208D01*
X407453Y349122D01*
X407421Y349034D01*
X407393Y348945D01*
X407368Y348855D01*
X407347Y348764D01*
X407330Y348673D01*
X407316Y348580D01*
X407307Y348487D01*
X407301Y348394D01*
X407299Y348301D01*
X407301Y348208D01*
X407307Y348115D01*
X407316Y348022D01*
X407330Y347929D01*
X407347Y347838D01*
X407368Y347747D01*
X407393Y347657D01*
X407421Y347568D01*
X407453Y347480D01*
X407489Y347394D01*
X407528Y347309D01*
X407571Y347226D01*
X407617Y347145D01*
X407667Y347066D01*
X407719Y346989D01*
X407775Y346914D01*
X407834Y346842D01*
X407896Y346772D01*
X407960Y346704D01*
X408028Y346640D01*
X408098Y346578D01*
X408170Y346519D01*
X408245Y346463D01*
X408322Y346411D01*
X408401Y346361D01*
X408482Y346315D01*
X408565Y346272D01*
X408650Y346233D01*
X408736Y346197D01*
X408824Y346165D01*
X408913Y346137D01*
X409003Y346112D01*
X409094Y346091D01*
X409185Y346074D01*
X409278Y346060D01*
X409371Y346051D01*
X409464Y346045D01*
X409557Y346043D01*
X411815Y346043D01*
D14*
X153000Y168255D02*
X153000Y135255D01*
X153000Y168255D02*
X153000Y173255D01*
X105000Y173255D01*
X105000Y168255D01*
X105000Y135255D01*
X153000Y135255D01*
X153000Y168255D02*
X105000Y168255D01*
D20*
X109950Y179755D03*
X122650Y179755D03*
X135350Y179755D03*
X148050Y179755D03*
X148050Y128755D03*
X135350Y128755D03*
X122650Y128755D03*
X109950Y128755D03*
D18*
X107335Y162383D02*
X107337Y162485D01*
X107343Y162587D01*
X107353Y162688D01*
X107367Y162790D01*
X107385Y162890D01*
X107406Y162990D01*
X107432Y163089D01*
X107461Y163186D01*
X107495Y163283D01*
X107532Y163378D01*
X107572Y163471D01*
X107617Y163563D01*
X107664Y163654D01*
X107716Y163742D01*
X107770Y163828D01*
X107828Y163912D01*
X107890Y163993D01*
X107954Y164073D01*
X108022Y164149D01*
X108092Y164223D01*
X108165Y164294D01*
X108241Y164362D01*
X108320Y164427D01*
X108401Y164490D01*
X108484Y164548D01*
X108570Y164604D01*
X108657Y164656D01*
X108747Y164705D01*
X108838Y164750D01*
X108932Y164792D01*
X109026Y164829D01*
X109123Y164864D01*
X109220Y164894D01*
X109318Y164921D01*
X109418Y164943D01*
X109518Y164962D01*
X109619Y164977D01*
X109721Y164988D01*
X109822Y164995D01*
X109924Y164998D01*
X110027Y164997D01*
X110128Y164992D01*
X110230Y164983D01*
X110331Y164970D01*
X110432Y164953D01*
X110532Y164932D01*
X110631Y164908D01*
X110729Y164879D01*
X110826Y164847D01*
X110921Y164811D01*
X111015Y164771D01*
X111108Y164728D01*
X111198Y164681D01*
X111287Y164630D01*
X111374Y164577D01*
X111458Y164519D01*
X111540Y164459D01*
X111620Y164395D01*
X111697Y164329D01*
X111772Y164259D01*
X111844Y164186D01*
X111913Y164111D01*
X111978Y164033D01*
X112041Y163953D01*
X112101Y163870D01*
X112157Y163785D01*
X112210Y163698D01*
X112260Y163609D01*
X112306Y163518D01*
X112349Y163425D01*
X112387Y163330D01*
X112422Y163235D01*
X112454Y163138D01*
X112481Y163039D01*
X112505Y162940D01*
X112525Y162840D01*
X112541Y162739D01*
X112553Y162638D01*
X112561Y162536D01*
X112565Y162434D01*
X112565Y162332D01*
X112561Y162230D01*
X112553Y162128D01*
X112541Y162027D01*
X112525Y161926D01*
X112505Y161826D01*
X112481Y161727D01*
X112454Y161628D01*
X112422Y161531D01*
X112387Y161436D01*
X112349Y161341D01*
X112306Y161248D01*
X112260Y161157D01*
X112210Y161068D01*
X112157Y160981D01*
X112101Y160896D01*
X112041Y160813D01*
X111978Y160733D01*
X111913Y160655D01*
X111844Y160580D01*
X111772Y160507D01*
X111697Y160437D01*
X111620Y160371D01*
X111540Y160307D01*
X111458Y160247D01*
X111374Y160189D01*
X111287Y160136D01*
X111198Y160085D01*
X111108Y160038D01*
X111015Y159995D01*
X110921Y159955D01*
X110826Y159919D01*
X110729Y159887D01*
X110631Y159858D01*
X110532Y159834D01*
X110432Y159813D01*
X110331Y159796D01*
X110230Y159783D01*
X110128Y159774D01*
X110027Y159769D01*
X109924Y159768D01*
X109822Y159771D01*
X109721Y159778D01*
X109619Y159789D01*
X109518Y159804D01*
X109418Y159823D01*
X109318Y159845D01*
X109220Y159872D01*
X109123Y159902D01*
X109026Y159937D01*
X108932Y159974D01*
X108838Y160016D01*
X108747Y160061D01*
X108657Y160110D01*
X108570Y160162D01*
X108484Y160218D01*
X108401Y160276D01*
X108320Y160339D01*
X108241Y160404D01*
X108165Y160472D01*
X108092Y160543D01*
X108022Y160617D01*
X107954Y160693D01*
X107890Y160773D01*
X107828Y160854D01*
X107770Y160938D01*
X107716Y161024D01*
X107664Y161112D01*
X107617Y161203D01*
X107572Y161295D01*
X107532Y161388D01*
X107495Y161483D01*
X107461Y161580D01*
X107432Y161677D01*
X107406Y161776D01*
X107385Y161876D01*
X107367Y161976D01*
X107353Y162078D01*
X107343Y162179D01*
X107337Y162281D01*
X107335Y162383D01*
D14*
X153000Y168255D02*
X153000Y135255D01*
X153000Y168255D02*
X153000Y173255D01*
X105000Y173255D01*
X105000Y168255D01*
X105000Y135255D01*
X153000Y135255D01*
D12*
X100235Y148359D02*
X93631Y148359D01*
X93631Y147626D02*
X93631Y149093D01*
X100235Y149093D02*
X100235Y147626D01*
X93631Y153809D02*
X93631Y155277D01*
X93630Y153809D02*
X93632Y153735D01*
X93638Y153660D01*
X93647Y153587D01*
X93660Y153513D01*
X93677Y153441D01*
X93697Y153370D01*
X93721Y153299D01*
X93749Y153230D01*
X93780Y153163D01*
X93814Y153097D01*
X93852Y153032D01*
X93893Y152970D01*
X93937Y152910D01*
X93984Y152853D01*
X94034Y152798D01*
X94087Y152745D01*
X94142Y152695D01*
X94199Y152648D01*
X94259Y152604D01*
X94321Y152563D01*
X94386Y152525D01*
X94452Y152491D01*
X94519Y152460D01*
X94588Y152432D01*
X94659Y152408D01*
X94730Y152388D01*
X94802Y152371D01*
X94876Y152358D01*
X94949Y152349D01*
X95024Y152343D01*
X95098Y152341D01*
X95098Y152342D02*
X98767Y152342D01*
X98767Y152341D02*
X98841Y152343D01*
X98916Y152349D01*
X98989Y152358D01*
X99063Y152371D01*
X99135Y152388D01*
X99206Y152408D01*
X99277Y152432D01*
X99346Y152460D01*
X99413Y152491D01*
X99479Y152525D01*
X99544Y152563D01*
X99606Y152604D01*
X99666Y152648D01*
X99723Y152695D01*
X99778Y152745D01*
X99831Y152798D01*
X99881Y152853D01*
X99928Y152910D01*
X99972Y152970D01*
X100013Y153032D01*
X100051Y153097D01*
X100085Y153162D01*
X100116Y153230D01*
X100144Y153299D01*
X100168Y153370D01*
X100188Y153441D01*
X100205Y153513D01*
X100218Y153587D01*
X100227Y153660D01*
X100233Y153735D01*
X100235Y153809D01*
X100235Y155277D01*
X96566Y159941D02*
X96566Y162142D01*
X96565Y159941D02*
X96567Y159867D01*
X96573Y159792D01*
X96582Y159719D01*
X96595Y159645D01*
X96612Y159573D01*
X96632Y159502D01*
X96656Y159431D01*
X96684Y159362D01*
X96715Y159295D01*
X96749Y159229D01*
X96787Y159164D01*
X96828Y159102D01*
X96872Y159042D01*
X96919Y158985D01*
X96969Y158930D01*
X97022Y158877D01*
X97077Y158827D01*
X97134Y158780D01*
X97194Y158736D01*
X97256Y158695D01*
X97321Y158657D01*
X97387Y158623D01*
X97454Y158592D01*
X97523Y158564D01*
X97594Y158540D01*
X97665Y158520D01*
X97737Y158503D01*
X97811Y158490D01*
X97884Y158481D01*
X97959Y158475D01*
X98033Y158473D01*
X98400Y158473D01*
X98400Y158474D02*
X98485Y158476D01*
X98569Y158482D01*
X98653Y158492D01*
X98737Y158505D01*
X98820Y158523D01*
X98902Y158544D01*
X98983Y158569D01*
X99063Y158598D01*
X99141Y158630D01*
X99217Y158666D01*
X99292Y158706D01*
X99365Y158749D01*
X99436Y158795D01*
X99505Y158844D01*
X99572Y158897D01*
X99636Y158953D01*
X99697Y159011D01*
X99755Y159072D01*
X99811Y159136D01*
X99864Y159203D01*
X99913Y159272D01*
X99959Y159343D01*
X100002Y159416D01*
X100042Y159491D01*
X100078Y159567D01*
X100110Y159645D01*
X100139Y159725D01*
X100164Y159806D01*
X100185Y159888D01*
X100203Y159971D01*
X100216Y160055D01*
X100226Y160139D01*
X100232Y160223D01*
X100234Y160308D01*
X100232Y160393D01*
X100226Y160477D01*
X100216Y160561D01*
X100203Y160645D01*
X100185Y160728D01*
X100164Y160810D01*
X100139Y160891D01*
X100110Y160971D01*
X100078Y161049D01*
X100042Y161125D01*
X100002Y161200D01*
X99959Y161273D01*
X99913Y161344D01*
X99864Y161413D01*
X99811Y161480D01*
X99755Y161544D01*
X99697Y161605D01*
X99636Y161663D01*
X99572Y161719D01*
X99505Y161772D01*
X99436Y161821D01*
X99365Y161867D01*
X99292Y161910D01*
X99217Y161950D01*
X99141Y161986D01*
X99063Y162018D01*
X98983Y162047D01*
X98902Y162072D01*
X98820Y162093D01*
X98737Y162111D01*
X98653Y162124D01*
X98569Y162134D01*
X98485Y162140D01*
X98400Y162142D01*
X96566Y162142D01*
X96459Y162140D01*
X96352Y162134D01*
X96245Y162124D01*
X96139Y162111D01*
X96033Y162093D01*
X95928Y162072D01*
X95824Y162047D01*
X95720Y162018D01*
X95618Y161985D01*
X95518Y161948D01*
X95418Y161908D01*
X95320Y161864D01*
X95224Y161817D01*
X95130Y161766D01*
X95037Y161712D01*
X94947Y161655D01*
X94858Y161594D01*
X94772Y161530D01*
X94689Y161463D01*
X94607Y161393D01*
X94529Y161320D01*
X94453Y161244D01*
X94380Y161166D01*
X94310Y161084D01*
X94243Y161001D01*
X94179Y160915D01*
X94118Y160826D01*
X94061Y160736D01*
X94007Y160643D01*
X93956Y160549D01*
X93909Y160453D01*
X93865Y160355D01*
X93825Y160255D01*
X93788Y160155D01*
X93755Y160053D01*
X93726Y159949D01*
X93701Y159845D01*
X93680Y159740D01*
X93662Y159634D01*
X93649Y159528D01*
X93639Y159421D01*
X93633Y159314D01*
X93631Y159207D01*
D10*
X799800Y491890D02*
X799800Y499510D01*
X813000Y499260D02*
X813000Y491890D01*
D11*
X806389Y502872D03*
X806389Y488394D03*
D12*
X811764Y475063D02*
X811764Y468459D01*
X811764Y475063D02*
X809929Y475063D01*
X809929Y475062D02*
X809844Y475060D01*
X809760Y475054D01*
X809676Y475044D01*
X809592Y475031D01*
X809509Y475013D01*
X809427Y474992D01*
X809346Y474967D01*
X809266Y474938D01*
X809188Y474906D01*
X809112Y474870D01*
X809037Y474830D01*
X808964Y474787D01*
X808893Y474741D01*
X808824Y474692D01*
X808757Y474639D01*
X808693Y474583D01*
X808632Y474525D01*
X808574Y474464D01*
X808518Y474400D01*
X808465Y474333D01*
X808416Y474264D01*
X808370Y474193D01*
X808327Y474120D01*
X808287Y474045D01*
X808251Y473969D01*
X808219Y473891D01*
X808190Y473811D01*
X808165Y473730D01*
X808144Y473648D01*
X808126Y473565D01*
X808113Y473481D01*
X808103Y473397D01*
X808097Y473313D01*
X808095Y473228D01*
X808097Y473143D01*
X808103Y473059D01*
X808113Y472975D01*
X808126Y472891D01*
X808144Y472808D01*
X808165Y472726D01*
X808190Y472645D01*
X808219Y472565D01*
X808251Y472487D01*
X808287Y472411D01*
X808327Y472336D01*
X808370Y472263D01*
X808416Y472192D01*
X808465Y472123D01*
X808518Y472056D01*
X808574Y471992D01*
X808632Y471931D01*
X808693Y471873D01*
X808757Y471817D01*
X808824Y471764D01*
X808893Y471715D01*
X808964Y471669D01*
X809037Y471626D01*
X809112Y471586D01*
X809188Y471550D01*
X809266Y471518D01*
X809346Y471489D01*
X809427Y471464D01*
X809509Y471443D01*
X809592Y471425D01*
X809676Y471412D01*
X809760Y471402D01*
X809844Y471396D01*
X809929Y471394D01*
X811764Y471394D01*
X809562Y471394D02*
X808095Y468459D01*
X804527Y473595D02*
X802693Y475063D01*
X802693Y468459D01*
X804527Y468459D02*
X800858Y468459D01*
D10*
X28970Y259209D02*
X21350Y259209D01*
X21350Y246009D02*
X28720Y246009D01*
D13*
X32332Y252620D03*
X17854Y252620D03*
D12*
X48289Y243594D02*
X54893Y243594D01*
X54893Y245428D01*
X54891Y245513D01*
X54885Y245597D01*
X54875Y245681D01*
X54862Y245765D01*
X54844Y245848D01*
X54823Y245930D01*
X54798Y246011D01*
X54769Y246091D01*
X54737Y246169D01*
X54701Y246245D01*
X54661Y246320D01*
X54618Y246393D01*
X54572Y246464D01*
X54523Y246533D01*
X54470Y246600D01*
X54414Y246664D01*
X54356Y246725D01*
X54295Y246783D01*
X54231Y246839D01*
X54164Y246892D01*
X54095Y246941D01*
X54024Y246987D01*
X53951Y247030D01*
X53876Y247070D01*
X53800Y247106D01*
X53722Y247138D01*
X53642Y247167D01*
X53561Y247192D01*
X53479Y247213D01*
X53396Y247231D01*
X53312Y247244D01*
X53228Y247254D01*
X53144Y247260D01*
X53059Y247262D01*
X52974Y247260D01*
X52890Y247254D01*
X52806Y247244D01*
X52722Y247231D01*
X52639Y247213D01*
X52557Y247192D01*
X52476Y247167D01*
X52396Y247138D01*
X52318Y247106D01*
X52242Y247070D01*
X52167Y247030D01*
X52094Y246987D01*
X52023Y246941D01*
X51954Y246892D01*
X51887Y246839D01*
X51823Y246783D01*
X51762Y246725D01*
X51704Y246664D01*
X51648Y246600D01*
X51595Y246533D01*
X51546Y246464D01*
X51500Y246393D01*
X51457Y246320D01*
X51417Y246245D01*
X51381Y246169D01*
X51349Y246091D01*
X51320Y246011D01*
X51295Y245930D01*
X51274Y245848D01*
X51256Y245765D01*
X51243Y245681D01*
X51233Y245597D01*
X51227Y245513D01*
X51225Y245428D01*
X51224Y245428D02*
X51224Y243594D01*
X51224Y245795D02*
X48289Y247263D01*
X53426Y250830D02*
X54893Y252665D01*
X48289Y252665D01*
X48289Y254499D02*
X48289Y250830D01*
X51591Y258146D02*
X51736Y258148D01*
X51881Y258154D01*
X52026Y258163D01*
X52171Y258177D01*
X52315Y258194D01*
X52458Y258216D01*
X52602Y258241D01*
X52744Y258270D01*
X52885Y258302D01*
X53026Y258339D01*
X53165Y258379D01*
X53304Y258423D01*
X53441Y258470D01*
X53577Y258521D01*
X53711Y258576D01*
X53844Y258634D01*
X53976Y258696D01*
X53976Y258695D02*
X54045Y258721D01*
X54112Y258750D01*
X54178Y258783D01*
X54241Y258819D01*
X54303Y258859D01*
X54362Y258902D01*
X54419Y258948D01*
X54473Y258997D01*
X54525Y259049D01*
X54574Y259104D01*
X54619Y259161D01*
X54662Y259221D01*
X54701Y259283D01*
X54737Y259346D01*
X54770Y259412D01*
X54798Y259479D01*
X54824Y259548D01*
X54845Y259618D01*
X54863Y259689D01*
X54876Y259761D01*
X54886Y259834D01*
X54892Y259907D01*
X54894Y259980D01*
X54893Y259980D02*
X54891Y260053D01*
X54885Y260126D01*
X54875Y260199D01*
X54862Y260271D01*
X54844Y260342D01*
X54823Y260412D01*
X54797Y260480D01*
X54769Y260548D01*
X54736Y260613D01*
X54700Y260677D01*
X54661Y260739D01*
X54619Y260798D01*
X54573Y260855D01*
X54524Y260910D01*
X54473Y260962D01*
X54418Y261011D01*
X54361Y261057D01*
X54302Y261100D01*
X54241Y261140D01*
X54177Y261176D01*
X54112Y261209D01*
X54045Y261238D01*
X53976Y261264D01*
X53844Y261326D01*
X53711Y261384D01*
X53577Y261439D01*
X53441Y261490D01*
X53304Y261537D01*
X53165Y261581D01*
X53026Y261621D01*
X52885Y261658D01*
X52744Y261690D01*
X52602Y261719D01*
X52459Y261744D01*
X52315Y261766D01*
X52171Y261783D01*
X52026Y261797D01*
X51881Y261806D01*
X51736Y261812D01*
X51591Y261814D01*
X51591Y258146D02*
X51446Y258148D01*
X51301Y258154D01*
X51156Y258163D01*
X51011Y258177D01*
X50867Y258194D01*
X50724Y258216D01*
X50581Y258241D01*
X50438Y258269D01*
X50297Y258302D01*
X50156Y258339D01*
X50017Y258379D01*
X49878Y258423D01*
X49741Y258470D01*
X49605Y258521D01*
X49471Y258576D01*
X49338Y258634D01*
X49206Y258696D01*
X49207Y258695D02*
X49138Y258721D01*
X49071Y258750D01*
X49005Y258783D01*
X48942Y258819D01*
X48880Y258859D01*
X48821Y258902D01*
X48764Y258948D01*
X48710Y258997D01*
X48658Y259049D01*
X48609Y259104D01*
X48564Y259161D01*
X48521Y259221D01*
X48482Y259283D01*
X48446Y259346D01*
X48413Y259412D01*
X48385Y259479D01*
X48359Y259548D01*
X48338Y259618D01*
X48320Y259689D01*
X48307Y259761D01*
X48297Y259834D01*
X48291Y259907D01*
X48289Y259980D01*
X49206Y261264D02*
X49338Y261326D01*
X49471Y261384D01*
X49605Y261439D01*
X49741Y261490D01*
X49878Y261537D01*
X50017Y261581D01*
X50156Y261621D01*
X50297Y261658D01*
X50438Y261690D01*
X50580Y261719D01*
X50723Y261744D01*
X50867Y261766D01*
X51011Y261783D01*
X51156Y261797D01*
X51301Y261806D01*
X51446Y261812D01*
X51591Y261814D01*
X49207Y261264D02*
X49138Y261238D01*
X49071Y261209D01*
X49006Y261176D01*
X48942Y261140D01*
X48881Y261100D01*
X48822Y261057D01*
X48765Y261011D01*
X48710Y260962D01*
X48659Y260910D01*
X48610Y260855D01*
X48564Y260798D01*
X48522Y260739D01*
X48483Y260677D01*
X48447Y260613D01*
X48414Y260548D01*
X48386Y260480D01*
X48360Y260412D01*
X48339Y260342D01*
X48321Y260270D01*
X48308Y260199D01*
X48298Y260126D01*
X48292Y260053D01*
X48290Y259980D01*
X49757Y258512D02*
X53426Y261447D01*
D10*
X505200Y479990D02*
X505200Y487610D01*
X492000Y487610D02*
X492000Y480240D01*
D11*
X498612Y476629D03*
X498612Y491107D03*
D12*
X506466Y508082D02*
X506466Y514686D01*
X504631Y514686D01*
X504546Y514684D01*
X504462Y514678D01*
X504378Y514668D01*
X504294Y514655D01*
X504211Y514637D01*
X504129Y514616D01*
X504048Y514591D01*
X503968Y514562D01*
X503890Y514530D01*
X503814Y514494D01*
X503739Y514454D01*
X503666Y514411D01*
X503595Y514365D01*
X503526Y514316D01*
X503459Y514263D01*
X503395Y514207D01*
X503334Y514149D01*
X503276Y514088D01*
X503220Y514024D01*
X503167Y513957D01*
X503118Y513888D01*
X503072Y513817D01*
X503029Y513744D01*
X502989Y513669D01*
X502953Y513593D01*
X502921Y513515D01*
X502892Y513435D01*
X502867Y513354D01*
X502846Y513272D01*
X502828Y513189D01*
X502815Y513105D01*
X502805Y513021D01*
X502799Y512937D01*
X502797Y512852D01*
X502799Y512767D01*
X502805Y512683D01*
X502815Y512599D01*
X502828Y512515D01*
X502846Y512432D01*
X502867Y512350D01*
X502892Y512269D01*
X502921Y512189D01*
X502953Y512111D01*
X502989Y512035D01*
X503029Y511960D01*
X503072Y511887D01*
X503118Y511816D01*
X503167Y511747D01*
X503220Y511680D01*
X503276Y511616D01*
X503334Y511555D01*
X503395Y511497D01*
X503459Y511441D01*
X503526Y511388D01*
X503595Y511339D01*
X503666Y511293D01*
X503739Y511250D01*
X503814Y511210D01*
X503890Y511174D01*
X503968Y511142D01*
X504048Y511113D01*
X504129Y511088D01*
X504211Y511067D01*
X504294Y511049D01*
X504378Y511036D01*
X504462Y511026D01*
X504546Y511020D01*
X504631Y511018D01*
X506466Y511018D01*
X504264Y511018D02*
X502797Y508082D01*
X499229Y513219D02*
X497395Y514686D01*
X497395Y508082D01*
X499229Y508082D02*
X495560Y508082D01*
X491914Y513219D02*
X490080Y514686D01*
X490080Y508082D01*
X491914Y508082D02*
X488245Y508082D01*
D10*
X434800Y488310D02*
X434800Y480690D01*
X448000Y480690D02*
X448000Y488060D01*
D11*
X441389Y491672D03*
X441389Y477194D03*
D12*
X450066Y508554D02*
X450066Y515158D01*
X448231Y515158D01*
X448231Y515157D02*
X448146Y515155D01*
X448062Y515149D01*
X447978Y515139D01*
X447894Y515126D01*
X447811Y515108D01*
X447729Y515087D01*
X447648Y515062D01*
X447568Y515033D01*
X447490Y515001D01*
X447414Y514965D01*
X447339Y514925D01*
X447266Y514882D01*
X447195Y514836D01*
X447126Y514787D01*
X447059Y514734D01*
X446995Y514678D01*
X446934Y514620D01*
X446876Y514559D01*
X446820Y514495D01*
X446767Y514428D01*
X446718Y514359D01*
X446672Y514288D01*
X446629Y514215D01*
X446589Y514140D01*
X446553Y514064D01*
X446521Y513986D01*
X446492Y513906D01*
X446467Y513825D01*
X446446Y513743D01*
X446428Y513660D01*
X446415Y513576D01*
X446405Y513492D01*
X446399Y513408D01*
X446397Y513323D01*
X446399Y513238D01*
X446405Y513154D01*
X446415Y513070D01*
X446428Y512986D01*
X446446Y512903D01*
X446467Y512821D01*
X446492Y512740D01*
X446521Y512660D01*
X446553Y512582D01*
X446589Y512506D01*
X446629Y512431D01*
X446672Y512358D01*
X446718Y512287D01*
X446767Y512218D01*
X446820Y512151D01*
X446876Y512087D01*
X446934Y512026D01*
X446995Y511968D01*
X447059Y511912D01*
X447126Y511859D01*
X447195Y511810D01*
X447266Y511764D01*
X447339Y511721D01*
X447414Y511681D01*
X447490Y511645D01*
X447568Y511613D01*
X447648Y511584D01*
X447729Y511559D01*
X447811Y511538D01*
X447894Y511520D01*
X447978Y511507D01*
X448062Y511497D01*
X448146Y511491D01*
X448231Y511489D01*
X450066Y511489D01*
X447864Y511489D02*
X446397Y508554D01*
X442829Y513690D02*
X440995Y515158D01*
X440995Y508554D01*
X442829Y508554D02*
X439160Y508554D01*
X433496Y515158D02*
X433417Y515156D01*
X433339Y515151D01*
X433261Y515141D01*
X433184Y515128D01*
X433107Y515111D01*
X433031Y515091D01*
X432956Y515067D01*
X432882Y515040D01*
X432810Y515009D01*
X432739Y514974D01*
X432671Y514937D01*
X432603Y514896D01*
X432538Y514852D01*
X432475Y514805D01*
X432415Y514755D01*
X432357Y514702D01*
X432301Y514646D01*
X432248Y514588D01*
X432198Y514528D01*
X432151Y514465D01*
X432107Y514400D01*
X432066Y514333D01*
X432029Y514264D01*
X431994Y514193D01*
X431963Y514121D01*
X431936Y514047D01*
X431912Y513972D01*
X431892Y513896D01*
X431875Y513819D01*
X431862Y513742D01*
X431852Y513664D01*
X431847Y513586D01*
X431845Y513507D01*
X433496Y515158D02*
X433585Y515156D01*
X433674Y515151D01*
X433762Y515141D01*
X433850Y515128D01*
X433937Y515112D01*
X434024Y515091D01*
X434109Y515067D01*
X434194Y515040D01*
X434277Y515009D01*
X434359Y514974D01*
X434440Y514936D01*
X434519Y514895D01*
X434595Y514851D01*
X434671Y514803D01*
X434744Y514752D01*
X434814Y514699D01*
X434883Y514642D01*
X434949Y514582D01*
X435012Y514520D01*
X435073Y514455D01*
X435131Y514388D01*
X435186Y514318D01*
X435239Y514246D01*
X435288Y514172D01*
X435334Y514096D01*
X435376Y514018D01*
X435416Y513938D01*
X435452Y513857D01*
X435485Y513774D01*
X435514Y513690D01*
X432396Y512223D02*
X432340Y512279D01*
X432286Y512338D01*
X432235Y512399D01*
X432186Y512463D01*
X432141Y512528D01*
X432098Y512596D01*
X432059Y512665D01*
X432022Y512736D01*
X431989Y512809D01*
X431960Y512883D01*
X431933Y512958D01*
X431910Y513034D01*
X431891Y513112D01*
X431875Y513190D01*
X431862Y513268D01*
X431853Y513348D01*
X431848Y513427D01*
X431846Y513507D01*
X432396Y512223D02*
X435514Y508554D01*
X431845Y508554D01*
D10*
X464800Y489110D02*
X464800Y481490D01*
X478000Y481490D02*
X478000Y488860D01*
D11*
X471389Y492472D03*
X471389Y477994D03*
D12*
X480599Y508732D02*
X480599Y515336D01*
X478765Y515336D01*
X478765Y515335D02*
X478680Y515333D01*
X478596Y515327D01*
X478512Y515317D01*
X478428Y515304D01*
X478345Y515286D01*
X478263Y515265D01*
X478182Y515240D01*
X478102Y515211D01*
X478024Y515179D01*
X477948Y515143D01*
X477873Y515103D01*
X477800Y515060D01*
X477729Y515014D01*
X477660Y514965D01*
X477593Y514912D01*
X477529Y514856D01*
X477468Y514798D01*
X477410Y514737D01*
X477354Y514673D01*
X477301Y514606D01*
X477252Y514537D01*
X477206Y514466D01*
X477163Y514393D01*
X477123Y514318D01*
X477087Y514242D01*
X477055Y514164D01*
X477026Y514084D01*
X477001Y514003D01*
X476980Y513921D01*
X476962Y513838D01*
X476949Y513754D01*
X476939Y513670D01*
X476933Y513586D01*
X476931Y513501D01*
X476933Y513416D01*
X476939Y513332D01*
X476949Y513248D01*
X476962Y513164D01*
X476980Y513081D01*
X477001Y512999D01*
X477026Y512918D01*
X477055Y512838D01*
X477087Y512760D01*
X477123Y512684D01*
X477163Y512609D01*
X477206Y512536D01*
X477252Y512465D01*
X477301Y512396D01*
X477354Y512329D01*
X477410Y512265D01*
X477468Y512204D01*
X477529Y512146D01*
X477593Y512090D01*
X477660Y512037D01*
X477729Y511988D01*
X477800Y511942D01*
X477873Y511899D01*
X477948Y511859D01*
X478024Y511823D01*
X478102Y511791D01*
X478182Y511762D01*
X478263Y511737D01*
X478345Y511716D01*
X478428Y511698D01*
X478512Y511685D01*
X478596Y511675D01*
X478680Y511669D01*
X478765Y511667D01*
X480599Y511667D01*
X478398Y511667D02*
X476930Y508732D01*
X473363Y513868D02*
X471528Y515336D01*
X471528Y508732D01*
X469694Y508732D02*
X473363Y508732D01*
X466048Y508732D02*
X464213Y508732D01*
X464128Y508734D01*
X464044Y508740D01*
X463960Y508750D01*
X463876Y508763D01*
X463793Y508781D01*
X463711Y508802D01*
X463630Y508827D01*
X463550Y508856D01*
X463472Y508888D01*
X463396Y508924D01*
X463321Y508964D01*
X463248Y509007D01*
X463177Y509053D01*
X463108Y509102D01*
X463041Y509155D01*
X462977Y509211D01*
X462916Y509269D01*
X462858Y509330D01*
X462802Y509394D01*
X462749Y509461D01*
X462700Y509530D01*
X462654Y509601D01*
X462611Y509674D01*
X462571Y509749D01*
X462535Y509825D01*
X462503Y509903D01*
X462474Y509983D01*
X462449Y510064D01*
X462428Y510146D01*
X462410Y510229D01*
X462397Y510313D01*
X462387Y510397D01*
X462381Y510481D01*
X462379Y510566D01*
X462381Y510651D01*
X462387Y510735D01*
X462397Y510819D01*
X462410Y510903D01*
X462428Y510986D01*
X462449Y511068D01*
X462474Y511149D01*
X462503Y511229D01*
X462535Y511307D01*
X462571Y511383D01*
X462611Y511458D01*
X462654Y511531D01*
X462700Y511602D01*
X462749Y511671D01*
X462802Y511738D01*
X462858Y511802D01*
X462916Y511863D01*
X462977Y511921D01*
X463041Y511977D01*
X463108Y512030D01*
X463177Y512079D01*
X463248Y512125D01*
X463321Y512168D01*
X463396Y512208D01*
X463472Y512244D01*
X463550Y512276D01*
X463630Y512305D01*
X463711Y512330D01*
X463793Y512351D01*
X463876Y512369D01*
X463960Y512382D01*
X464044Y512392D01*
X464128Y512398D01*
X464213Y512400D01*
X463846Y515336D02*
X466048Y515336D01*
X463846Y515336D02*
X463770Y515334D01*
X463695Y515328D01*
X463620Y515319D01*
X463546Y515305D01*
X463472Y515288D01*
X463400Y515266D01*
X463328Y515242D01*
X463258Y515213D01*
X463190Y515181D01*
X463123Y515146D01*
X463058Y515107D01*
X462995Y515064D01*
X462935Y515019D01*
X462877Y514971D01*
X462821Y514919D01*
X462769Y514865D01*
X462719Y514808D01*
X462672Y514749D01*
X462628Y514688D01*
X462587Y514624D01*
X462550Y514558D01*
X462516Y514490D01*
X462486Y514421D01*
X462459Y514350D01*
X462436Y514278D01*
X462417Y514205D01*
X462402Y514131D01*
X462390Y514056D01*
X462382Y513981D01*
X462378Y513906D01*
X462378Y513830D01*
X462382Y513755D01*
X462390Y513680D01*
X462402Y513605D01*
X462417Y513531D01*
X462436Y513458D01*
X462459Y513386D01*
X462486Y513315D01*
X462516Y513246D01*
X462550Y513178D01*
X462587Y513112D01*
X462628Y513048D01*
X462672Y512987D01*
X462719Y512928D01*
X462769Y512871D01*
X462821Y512817D01*
X462877Y512765D01*
X462935Y512717D01*
X462995Y512672D01*
X463058Y512629D01*
X463123Y512590D01*
X463190Y512555D01*
X463258Y512523D01*
X463328Y512494D01*
X463400Y512470D01*
X463472Y512448D01*
X463546Y512431D01*
X463620Y512417D01*
X463695Y512408D01*
X463770Y512402D01*
X463846Y512400D01*
X465314Y512400D01*
D10*
X474800Y157410D02*
X474800Y149790D01*
X488000Y149790D02*
X488000Y157160D01*
D11*
X481389Y160772D03*
X481389Y146294D03*
D12*
X468827Y147182D02*
X462223Y147182D01*
X468827Y147182D02*
X468827Y149017D01*
X468825Y149102D01*
X468819Y149186D01*
X468809Y149270D01*
X468796Y149354D01*
X468778Y149437D01*
X468757Y149519D01*
X468732Y149600D01*
X468703Y149680D01*
X468671Y149758D01*
X468635Y149834D01*
X468595Y149909D01*
X468552Y149982D01*
X468506Y150053D01*
X468457Y150122D01*
X468404Y150189D01*
X468348Y150253D01*
X468290Y150314D01*
X468229Y150372D01*
X468165Y150428D01*
X468098Y150481D01*
X468029Y150530D01*
X467958Y150576D01*
X467885Y150619D01*
X467810Y150659D01*
X467734Y150695D01*
X467656Y150727D01*
X467576Y150756D01*
X467495Y150781D01*
X467413Y150802D01*
X467330Y150820D01*
X467246Y150833D01*
X467162Y150843D01*
X467078Y150849D01*
X466993Y150851D01*
X466908Y150849D01*
X466824Y150843D01*
X466740Y150833D01*
X466656Y150820D01*
X466573Y150802D01*
X466491Y150781D01*
X466410Y150756D01*
X466330Y150727D01*
X466252Y150695D01*
X466176Y150659D01*
X466101Y150619D01*
X466028Y150576D01*
X465957Y150530D01*
X465888Y150481D01*
X465821Y150428D01*
X465757Y150372D01*
X465696Y150314D01*
X465638Y150253D01*
X465582Y150189D01*
X465529Y150122D01*
X465480Y150053D01*
X465434Y149982D01*
X465391Y149909D01*
X465351Y149834D01*
X465315Y149758D01*
X465283Y149680D01*
X465254Y149600D01*
X465229Y149519D01*
X465208Y149437D01*
X465190Y149354D01*
X465177Y149270D01*
X465167Y149186D01*
X465161Y149102D01*
X465159Y149017D01*
X465158Y149017D02*
X465158Y147182D01*
X465158Y149384D02*
X462223Y150851D01*
X467359Y154419D02*
X468827Y156253D01*
X462223Y156253D01*
X462223Y154419D02*
X462223Y158088D01*
X463691Y161734D02*
X468827Y163202D01*
X463691Y161734D02*
X463691Y165403D01*
X465158Y164302D02*
X462223Y164302D01*
D10*
X474800Y203090D02*
X474800Y210710D01*
X488000Y210460D02*
X488000Y203090D01*
D11*
X481389Y214072D03*
X481389Y199594D03*
D12*
X468423Y199900D02*
X461819Y199900D01*
X468423Y199900D02*
X468423Y201735D01*
X468422Y201735D02*
X468420Y201820D01*
X468414Y201904D01*
X468404Y201988D01*
X468391Y202072D01*
X468373Y202155D01*
X468352Y202237D01*
X468327Y202318D01*
X468298Y202398D01*
X468266Y202476D01*
X468230Y202552D01*
X468190Y202627D01*
X468147Y202700D01*
X468101Y202771D01*
X468052Y202840D01*
X467999Y202907D01*
X467943Y202971D01*
X467885Y203032D01*
X467824Y203090D01*
X467760Y203146D01*
X467693Y203199D01*
X467624Y203248D01*
X467553Y203294D01*
X467480Y203337D01*
X467405Y203377D01*
X467329Y203413D01*
X467251Y203445D01*
X467171Y203474D01*
X467090Y203499D01*
X467008Y203520D01*
X466925Y203538D01*
X466841Y203551D01*
X466757Y203561D01*
X466673Y203567D01*
X466588Y203569D01*
X466503Y203567D01*
X466419Y203561D01*
X466335Y203551D01*
X466251Y203538D01*
X466168Y203520D01*
X466086Y203499D01*
X466005Y203474D01*
X465925Y203445D01*
X465847Y203413D01*
X465771Y203377D01*
X465696Y203337D01*
X465623Y203294D01*
X465552Y203248D01*
X465483Y203199D01*
X465416Y203146D01*
X465352Y203090D01*
X465291Y203032D01*
X465233Y202971D01*
X465177Y202907D01*
X465124Y202840D01*
X465075Y202771D01*
X465029Y202700D01*
X464986Y202627D01*
X464946Y202552D01*
X464910Y202476D01*
X464878Y202398D01*
X464849Y202318D01*
X464824Y202237D01*
X464803Y202155D01*
X464785Y202072D01*
X464772Y201988D01*
X464762Y201904D01*
X464756Y201820D01*
X464754Y201735D01*
X464754Y199900D01*
X464754Y202101D02*
X461819Y203569D01*
X466955Y207137D02*
X468423Y208971D01*
X461819Y208971D01*
X461819Y207137D02*
X461819Y210805D01*
X461819Y214452D02*
X461819Y216653D01*
X461818Y216653D02*
X461820Y216727D01*
X461826Y216802D01*
X461835Y216875D01*
X461848Y216949D01*
X461865Y217021D01*
X461885Y217092D01*
X461909Y217163D01*
X461937Y217232D01*
X461968Y217299D01*
X462002Y217365D01*
X462040Y217430D01*
X462081Y217492D01*
X462125Y217552D01*
X462172Y217609D01*
X462222Y217664D01*
X462275Y217717D01*
X462330Y217767D01*
X462387Y217814D01*
X462447Y217858D01*
X462509Y217899D01*
X462574Y217937D01*
X462639Y217971D01*
X462707Y218002D01*
X462776Y218030D01*
X462847Y218054D01*
X462918Y218074D01*
X462990Y218091D01*
X463064Y218104D01*
X463137Y218113D01*
X463212Y218119D01*
X463286Y218121D01*
X464020Y218121D01*
X464094Y218119D01*
X464169Y218113D01*
X464242Y218104D01*
X464316Y218091D01*
X464388Y218074D01*
X464459Y218054D01*
X464530Y218030D01*
X464599Y218002D01*
X464666Y217971D01*
X464732Y217937D01*
X464797Y217899D01*
X464859Y217858D01*
X464919Y217814D01*
X464976Y217767D01*
X465031Y217717D01*
X465084Y217664D01*
X465134Y217609D01*
X465181Y217552D01*
X465225Y217492D01*
X465266Y217430D01*
X465304Y217365D01*
X465338Y217299D01*
X465369Y217232D01*
X465397Y217163D01*
X465421Y217092D01*
X465441Y217021D01*
X465458Y216949D01*
X465471Y216875D01*
X465480Y216802D01*
X465486Y216727D01*
X465488Y216653D01*
X465487Y216653D02*
X465487Y214452D01*
X468423Y214452D01*
X468423Y218121D01*
D10*
X485200Y245990D02*
X485200Y253610D01*
X472000Y253610D02*
X472000Y246240D01*
D11*
X478612Y242629D03*
X478612Y257107D03*
D14*
X466861Y242244D02*
X458733Y242244D01*
X466861Y242244D02*
X466861Y244502D01*
X466859Y244595D01*
X466853Y244688D01*
X466844Y244781D01*
X466830Y244874D01*
X466813Y244965D01*
X466792Y245056D01*
X466767Y245146D01*
X466739Y245235D01*
X466707Y245323D01*
X466671Y245409D01*
X466632Y245494D01*
X466589Y245577D01*
X466543Y245658D01*
X466493Y245737D01*
X466441Y245814D01*
X466385Y245889D01*
X466326Y245961D01*
X466264Y246031D01*
X466200Y246099D01*
X466132Y246163D01*
X466062Y246225D01*
X465990Y246284D01*
X465915Y246340D01*
X465838Y246392D01*
X465759Y246442D01*
X465678Y246488D01*
X465595Y246531D01*
X465510Y246570D01*
X465424Y246606D01*
X465336Y246638D01*
X465247Y246666D01*
X465157Y246691D01*
X465066Y246712D01*
X464975Y246729D01*
X464882Y246743D01*
X464789Y246752D01*
X464696Y246758D01*
X464603Y246760D01*
X464510Y246758D01*
X464417Y246752D01*
X464324Y246743D01*
X464231Y246729D01*
X464140Y246712D01*
X464049Y246691D01*
X463959Y246666D01*
X463870Y246638D01*
X463782Y246606D01*
X463696Y246570D01*
X463611Y246531D01*
X463528Y246488D01*
X463447Y246442D01*
X463368Y246392D01*
X463291Y246340D01*
X463216Y246284D01*
X463144Y246225D01*
X463074Y246163D01*
X463006Y246099D01*
X462942Y246031D01*
X462880Y245961D01*
X462821Y245889D01*
X462765Y245814D01*
X462713Y245737D01*
X462663Y245658D01*
X462617Y245577D01*
X462574Y245494D01*
X462535Y245409D01*
X462499Y245323D01*
X462467Y245235D01*
X462439Y245146D01*
X462414Y245056D01*
X462393Y244965D01*
X462376Y244874D01*
X462362Y244781D01*
X462353Y244688D01*
X462347Y244595D01*
X462345Y244502D01*
X462345Y242244D01*
X462345Y244953D02*
X458733Y246759D01*
X465055Y251285D02*
X466861Y253543D01*
X458733Y253543D01*
X458733Y255800D02*
X458733Y251285D01*
X463249Y260429D02*
X463249Y263138D01*
X463248Y263138D02*
X463246Y263221D01*
X463240Y263305D01*
X463231Y263388D01*
X463217Y263470D01*
X463200Y263551D01*
X463179Y263632D01*
X463154Y263712D01*
X463126Y263790D01*
X463094Y263867D01*
X463059Y263943D01*
X463020Y264017D01*
X462977Y264089D01*
X462932Y264159D01*
X462883Y264226D01*
X462831Y264292D01*
X462777Y264355D01*
X462719Y264415D01*
X462659Y264473D01*
X462596Y264527D01*
X462530Y264579D01*
X462463Y264628D01*
X462393Y264673D01*
X462321Y264716D01*
X462247Y264755D01*
X462171Y264790D01*
X462094Y264822D01*
X462016Y264850D01*
X461936Y264875D01*
X461855Y264896D01*
X461774Y264913D01*
X461692Y264927D01*
X461609Y264936D01*
X461525Y264942D01*
X461442Y264944D01*
X460991Y264944D01*
X460991Y264945D02*
X460898Y264943D01*
X460805Y264937D01*
X460712Y264928D01*
X460619Y264914D01*
X460528Y264897D01*
X460437Y264876D01*
X460347Y264851D01*
X460258Y264823D01*
X460170Y264791D01*
X460084Y264755D01*
X459999Y264716D01*
X459916Y264673D01*
X459835Y264627D01*
X459756Y264577D01*
X459679Y264525D01*
X459604Y264469D01*
X459532Y264410D01*
X459462Y264348D01*
X459394Y264284D01*
X459330Y264216D01*
X459268Y264146D01*
X459209Y264074D01*
X459153Y263999D01*
X459101Y263922D01*
X459051Y263843D01*
X459005Y263762D01*
X458962Y263679D01*
X458923Y263594D01*
X458887Y263508D01*
X458855Y263420D01*
X458827Y263331D01*
X458802Y263241D01*
X458781Y263150D01*
X458764Y263059D01*
X458750Y262966D01*
X458741Y262873D01*
X458735Y262780D01*
X458733Y262687D01*
X458735Y262594D01*
X458741Y262501D01*
X458750Y262408D01*
X458764Y262315D01*
X458781Y262224D01*
X458802Y262133D01*
X458827Y262043D01*
X458855Y261954D01*
X458887Y261866D01*
X458923Y261780D01*
X458962Y261695D01*
X459005Y261612D01*
X459051Y261531D01*
X459101Y261452D01*
X459153Y261375D01*
X459209Y261300D01*
X459268Y261228D01*
X459330Y261158D01*
X459394Y261090D01*
X459462Y261026D01*
X459532Y260964D01*
X459604Y260905D01*
X459679Y260849D01*
X459756Y260797D01*
X459835Y260747D01*
X459916Y260701D01*
X459999Y260658D01*
X460084Y260619D01*
X460170Y260583D01*
X460258Y260551D01*
X460347Y260523D01*
X460437Y260498D01*
X460528Y260477D01*
X460619Y260460D01*
X460712Y260446D01*
X460805Y260437D01*
X460898Y260431D01*
X460991Y260429D01*
X463249Y260429D01*
X463367Y260431D01*
X463485Y260437D01*
X463603Y260446D01*
X463720Y260460D01*
X463837Y260477D01*
X463954Y260498D01*
X464069Y260523D01*
X464184Y260552D01*
X464298Y260585D01*
X464410Y260621D01*
X464521Y260661D01*
X464631Y260704D01*
X464740Y260751D01*
X464847Y260801D01*
X464952Y260855D01*
X465055Y260913D01*
X465156Y260974D01*
X465256Y261038D01*
X465353Y261105D01*
X465448Y261175D01*
X465540Y261249D01*
X465631Y261325D01*
X465718Y261405D01*
X465803Y261487D01*
X465885Y261572D01*
X465965Y261659D01*
X466041Y261750D01*
X466115Y261842D01*
X466185Y261937D01*
X466252Y262034D01*
X466316Y262134D01*
X466377Y262235D01*
X466434Y262338D01*
X466488Y262443D01*
X466539Y262550D01*
X466586Y262659D01*
X466629Y262769D01*
X466669Y262880D01*
X466705Y262992D01*
X466738Y263106D01*
X466767Y263221D01*
X466792Y263336D01*
X466813Y263453D01*
X466830Y263570D01*
X466844Y263687D01*
X466853Y263805D01*
X466859Y263923D01*
X466861Y264041D01*
D10*
X481900Y388590D02*
X481900Y396210D01*
X495100Y395960D02*
X495100Y388590D01*
D11*
X488489Y399572D03*
X488489Y385094D03*
D12*
X497966Y369718D02*
X497966Y363114D01*
X497966Y369718D02*
X496131Y369718D01*
X496131Y369717D02*
X496046Y369715D01*
X495962Y369709D01*
X495878Y369699D01*
X495794Y369686D01*
X495711Y369668D01*
X495629Y369647D01*
X495548Y369622D01*
X495468Y369593D01*
X495390Y369561D01*
X495314Y369525D01*
X495239Y369485D01*
X495166Y369442D01*
X495095Y369396D01*
X495026Y369347D01*
X494959Y369294D01*
X494895Y369238D01*
X494834Y369180D01*
X494776Y369119D01*
X494720Y369055D01*
X494667Y368988D01*
X494618Y368919D01*
X494572Y368848D01*
X494529Y368775D01*
X494489Y368700D01*
X494453Y368624D01*
X494421Y368546D01*
X494392Y368466D01*
X494367Y368385D01*
X494346Y368303D01*
X494328Y368220D01*
X494315Y368136D01*
X494305Y368052D01*
X494299Y367968D01*
X494297Y367883D01*
X494299Y367798D01*
X494305Y367714D01*
X494315Y367630D01*
X494328Y367546D01*
X494346Y367463D01*
X494367Y367381D01*
X494392Y367300D01*
X494421Y367220D01*
X494453Y367142D01*
X494489Y367066D01*
X494529Y366991D01*
X494572Y366918D01*
X494618Y366847D01*
X494667Y366778D01*
X494720Y366711D01*
X494776Y366647D01*
X494834Y366586D01*
X494895Y366528D01*
X494959Y366472D01*
X495026Y366419D01*
X495095Y366370D01*
X495166Y366324D01*
X495239Y366281D01*
X495314Y366241D01*
X495390Y366205D01*
X495468Y366173D01*
X495548Y366144D01*
X495629Y366119D01*
X495711Y366098D01*
X495794Y366080D01*
X495878Y366067D01*
X495962Y366057D01*
X496046Y366051D01*
X496131Y366049D01*
X497966Y366049D01*
X495765Y366049D02*
X494297Y363114D01*
X490729Y368250D02*
X488895Y369718D01*
X488895Y363114D01*
X490729Y363114D02*
X487061Y363114D01*
X483414Y368984D02*
X483414Y369718D01*
X479745Y369718D01*
X481580Y363114D01*
D10*
X506900Y389390D02*
X506900Y397010D01*
X520100Y396760D02*
X520100Y389390D01*
D11*
X513489Y400372D03*
X513489Y385894D03*
D12*
X522521Y369718D02*
X522521Y363114D01*
X522521Y369718D02*
X520687Y369718D01*
X520687Y369717D02*
X520602Y369715D01*
X520518Y369709D01*
X520434Y369699D01*
X520350Y369686D01*
X520267Y369668D01*
X520185Y369647D01*
X520104Y369622D01*
X520024Y369593D01*
X519946Y369561D01*
X519870Y369525D01*
X519795Y369485D01*
X519722Y369442D01*
X519651Y369396D01*
X519582Y369347D01*
X519515Y369294D01*
X519451Y369238D01*
X519390Y369180D01*
X519332Y369119D01*
X519276Y369055D01*
X519223Y368988D01*
X519174Y368919D01*
X519128Y368848D01*
X519085Y368775D01*
X519045Y368700D01*
X519009Y368624D01*
X518977Y368546D01*
X518948Y368466D01*
X518923Y368385D01*
X518902Y368303D01*
X518884Y368220D01*
X518871Y368136D01*
X518861Y368052D01*
X518855Y367968D01*
X518853Y367883D01*
X518855Y367798D01*
X518861Y367714D01*
X518871Y367630D01*
X518884Y367546D01*
X518902Y367463D01*
X518923Y367381D01*
X518948Y367300D01*
X518977Y367220D01*
X519009Y367142D01*
X519045Y367066D01*
X519085Y366991D01*
X519128Y366918D01*
X519174Y366847D01*
X519223Y366778D01*
X519276Y366711D01*
X519332Y366647D01*
X519390Y366586D01*
X519451Y366528D01*
X519515Y366472D01*
X519582Y366419D01*
X519651Y366370D01*
X519722Y366324D01*
X519795Y366281D01*
X519870Y366241D01*
X519946Y366205D01*
X520024Y366173D01*
X520104Y366144D01*
X520185Y366119D01*
X520267Y366098D01*
X520350Y366080D01*
X520434Y366067D01*
X520518Y366057D01*
X520602Y366051D01*
X520687Y366049D01*
X522521Y366049D01*
X520320Y366049D02*
X518852Y363114D01*
X515285Y368250D02*
X513451Y369718D01*
X513451Y363114D01*
X515285Y363114D02*
X511616Y363114D01*
X507969Y364948D02*
X507967Y365033D01*
X507961Y365117D01*
X507951Y365201D01*
X507938Y365285D01*
X507920Y365368D01*
X507899Y365450D01*
X507874Y365531D01*
X507845Y365611D01*
X507813Y365689D01*
X507777Y365765D01*
X507737Y365840D01*
X507694Y365913D01*
X507648Y365984D01*
X507599Y366053D01*
X507546Y366120D01*
X507490Y366184D01*
X507432Y366245D01*
X507371Y366303D01*
X507307Y366359D01*
X507240Y366412D01*
X507171Y366461D01*
X507100Y366507D01*
X507027Y366550D01*
X506952Y366590D01*
X506876Y366626D01*
X506798Y366658D01*
X506718Y366687D01*
X506637Y366712D01*
X506555Y366733D01*
X506472Y366751D01*
X506388Y366764D01*
X506304Y366774D01*
X506220Y366780D01*
X506135Y366782D01*
X506050Y366780D01*
X505966Y366774D01*
X505882Y366764D01*
X505798Y366751D01*
X505715Y366733D01*
X505633Y366712D01*
X505552Y366687D01*
X505472Y366658D01*
X505394Y366626D01*
X505318Y366590D01*
X505243Y366550D01*
X505170Y366507D01*
X505099Y366461D01*
X505030Y366412D01*
X504963Y366359D01*
X504899Y366303D01*
X504838Y366245D01*
X504780Y366184D01*
X504724Y366120D01*
X504671Y366053D01*
X504622Y365984D01*
X504576Y365913D01*
X504533Y365840D01*
X504493Y365765D01*
X504457Y365689D01*
X504425Y365611D01*
X504396Y365531D01*
X504371Y365450D01*
X504350Y365368D01*
X504332Y365285D01*
X504319Y365201D01*
X504309Y365117D01*
X504303Y365033D01*
X504301Y364948D01*
X504303Y364863D01*
X504309Y364779D01*
X504319Y364695D01*
X504332Y364611D01*
X504350Y364528D01*
X504371Y364446D01*
X504396Y364365D01*
X504425Y364285D01*
X504457Y364207D01*
X504493Y364131D01*
X504533Y364056D01*
X504576Y363983D01*
X504622Y363912D01*
X504671Y363843D01*
X504724Y363776D01*
X504780Y363712D01*
X504838Y363651D01*
X504899Y363593D01*
X504963Y363537D01*
X505030Y363484D01*
X505099Y363435D01*
X505170Y363389D01*
X505243Y363346D01*
X505318Y363306D01*
X505394Y363270D01*
X505472Y363238D01*
X505552Y363209D01*
X505633Y363184D01*
X505715Y363163D01*
X505798Y363145D01*
X505882Y363132D01*
X505966Y363122D01*
X506050Y363116D01*
X506135Y363114D01*
X506220Y363116D01*
X506304Y363122D01*
X506388Y363132D01*
X506472Y363145D01*
X506555Y363163D01*
X506637Y363184D01*
X506718Y363209D01*
X506798Y363238D01*
X506876Y363270D01*
X506952Y363306D01*
X507027Y363346D01*
X507100Y363389D01*
X507171Y363435D01*
X507240Y363484D01*
X507307Y363537D01*
X507371Y363593D01*
X507432Y363651D01*
X507490Y363712D01*
X507546Y363776D01*
X507599Y363843D01*
X507648Y363912D01*
X507694Y363983D01*
X507737Y364056D01*
X507777Y364131D01*
X507813Y364207D01*
X507845Y364285D01*
X507874Y364365D01*
X507899Y364446D01*
X507920Y364528D01*
X507938Y364611D01*
X507951Y364695D01*
X507961Y364779D01*
X507967Y364863D01*
X507969Y364948D01*
X507603Y368250D02*
X507601Y368326D01*
X507595Y368401D01*
X507586Y368476D01*
X507572Y368550D01*
X507555Y368624D01*
X507533Y368696D01*
X507509Y368768D01*
X507480Y368838D01*
X507448Y368906D01*
X507413Y368973D01*
X507374Y369038D01*
X507331Y369101D01*
X507286Y369161D01*
X507238Y369219D01*
X507186Y369275D01*
X507132Y369327D01*
X507075Y369377D01*
X507016Y369424D01*
X506955Y369468D01*
X506891Y369509D01*
X506825Y369546D01*
X506757Y369580D01*
X506688Y369610D01*
X506617Y369637D01*
X506545Y369660D01*
X506472Y369679D01*
X506398Y369694D01*
X506323Y369706D01*
X506248Y369714D01*
X506173Y369718D01*
X506097Y369718D01*
X506022Y369714D01*
X505947Y369706D01*
X505872Y369694D01*
X505798Y369679D01*
X505725Y369660D01*
X505653Y369637D01*
X505582Y369610D01*
X505513Y369580D01*
X505445Y369546D01*
X505379Y369509D01*
X505315Y369468D01*
X505254Y369424D01*
X505195Y369377D01*
X505138Y369327D01*
X505084Y369275D01*
X505032Y369219D01*
X504984Y369161D01*
X504939Y369101D01*
X504896Y369038D01*
X504857Y368973D01*
X504822Y368906D01*
X504790Y368838D01*
X504761Y368768D01*
X504737Y368696D01*
X504715Y368624D01*
X504698Y368550D01*
X504684Y368476D01*
X504675Y368401D01*
X504669Y368326D01*
X504667Y368250D01*
X504669Y368174D01*
X504675Y368099D01*
X504684Y368024D01*
X504698Y367950D01*
X504715Y367876D01*
X504737Y367804D01*
X504761Y367732D01*
X504790Y367662D01*
X504822Y367594D01*
X504857Y367527D01*
X504896Y367462D01*
X504939Y367399D01*
X504984Y367339D01*
X505032Y367281D01*
X505084Y367225D01*
X505138Y367173D01*
X505195Y367123D01*
X505254Y367076D01*
X505315Y367032D01*
X505379Y366991D01*
X505445Y366954D01*
X505513Y366920D01*
X505582Y366890D01*
X505653Y366863D01*
X505725Y366840D01*
X505798Y366821D01*
X505872Y366806D01*
X505947Y366794D01*
X506022Y366786D01*
X506097Y366782D01*
X506173Y366782D01*
X506248Y366786D01*
X506323Y366794D01*
X506398Y366806D01*
X506472Y366821D01*
X506545Y366840D01*
X506617Y366863D01*
X506688Y366890D01*
X506757Y366920D01*
X506825Y366954D01*
X506891Y366991D01*
X506955Y367032D01*
X507016Y367076D01*
X507075Y367123D01*
X507132Y367173D01*
X507186Y367225D01*
X507238Y367281D01*
X507286Y367339D01*
X507331Y367399D01*
X507374Y367462D01*
X507413Y367527D01*
X507448Y367594D01*
X507480Y367662D01*
X507509Y367732D01*
X507533Y367804D01*
X507555Y367876D01*
X507572Y367950D01*
X507586Y368024D01*
X507595Y368099D01*
X507601Y368174D01*
X507603Y368250D01*
D10*
X245200Y182765D02*
X245200Y175145D01*
X232000Y175395D02*
X232000Y182765D01*
D11*
X238612Y171784D03*
X238612Y186262D03*
D12*
X242986Y199504D02*
X242986Y206108D01*
X241151Y206108D01*
X241151Y206107D02*
X241066Y206105D01*
X240982Y206099D01*
X240898Y206089D01*
X240814Y206076D01*
X240731Y206058D01*
X240649Y206037D01*
X240568Y206012D01*
X240488Y205983D01*
X240410Y205951D01*
X240334Y205915D01*
X240259Y205875D01*
X240186Y205832D01*
X240115Y205786D01*
X240046Y205737D01*
X239979Y205684D01*
X239915Y205628D01*
X239854Y205570D01*
X239796Y205509D01*
X239740Y205445D01*
X239687Y205378D01*
X239638Y205309D01*
X239592Y205238D01*
X239549Y205165D01*
X239509Y205090D01*
X239473Y205014D01*
X239441Y204936D01*
X239412Y204856D01*
X239387Y204775D01*
X239366Y204693D01*
X239348Y204610D01*
X239335Y204526D01*
X239325Y204442D01*
X239319Y204358D01*
X239317Y204273D01*
X239319Y204188D01*
X239325Y204104D01*
X239335Y204020D01*
X239348Y203936D01*
X239366Y203853D01*
X239387Y203771D01*
X239412Y203690D01*
X239441Y203610D01*
X239473Y203532D01*
X239509Y203456D01*
X239549Y203381D01*
X239592Y203308D01*
X239638Y203237D01*
X239687Y203168D01*
X239740Y203101D01*
X239796Y203037D01*
X239854Y202976D01*
X239915Y202918D01*
X239979Y202862D01*
X240046Y202809D01*
X240115Y202760D01*
X240186Y202714D01*
X240259Y202671D01*
X240334Y202631D01*
X240410Y202595D01*
X240488Y202563D01*
X240568Y202534D01*
X240649Y202509D01*
X240731Y202488D01*
X240814Y202470D01*
X240898Y202457D01*
X240982Y202447D01*
X241066Y202441D01*
X241151Y202439D01*
X242986Y202439D01*
X240785Y202439D02*
X239317Y199504D01*
X233732Y206108D02*
X233653Y206106D01*
X233575Y206101D01*
X233497Y206091D01*
X233420Y206078D01*
X233343Y206061D01*
X233267Y206041D01*
X233192Y206017D01*
X233118Y205990D01*
X233046Y205959D01*
X232975Y205924D01*
X232907Y205887D01*
X232839Y205846D01*
X232774Y205802D01*
X232711Y205755D01*
X232651Y205705D01*
X232593Y205652D01*
X232537Y205596D01*
X232484Y205538D01*
X232434Y205478D01*
X232387Y205415D01*
X232343Y205350D01*
X232302Y205283D01*
X232265Y205214D01*
X232230Y205143D01*
X232199Y205071D01*
X232172Y204997D01*
X232148Y204922D01*
X232128Y204846D01*
X232111Y204769D01*
X232098Y204692D01*
X232088Y204614D01*
X232083Y204536D01*
X232081Y204457D01*
X233732Y206108D02*
X233821Y206106D01*
X233910Y206101D01*
X233998Y206091D01*
X234086Y206078D01*
X234173Y206062D01*
X234260Y206041D01*
X234345Y206017D01*
X234430Y205990D01*
X234513Y205959D01*
X234595Y205924D01*
X234676Y205886D01*
X234755Y205845D01*
X234831Y205801D01*
X234907Y205753D01*
X234980Y205702D01*
X235050Y205649D01*
X235119Y205592D01*
X235185Y205532D01*
X235248Y205470D01*
X235309Y205405D01*
X235367Y205338D01*
X235422Y205268D01*
X235475Y205196D01*
X235524Y205122D01*
X235570Y205046D01*
X235612Y204968D01*
X235652Y204888D01*
X235688Y204807D01*
X235721Y204724D01*
X235750Y204640D01*
X232631Y203173D02*
X232575Y203229D01*
X232521Y203288D01*
X232470Y203349D01*
X232421Y203413D01*
X232376Y203478D01*
X232333Y203546D01*
X232294Y203615D01*
X232257Y203686D01*
X232224Y203759D01*
X232195Y203833D01*
X232168Y203908D01*
X232145Y203984D01*
X232126Y204062D01*
X232110Y204140D01*
X232097Y204218D01*
X232088Y204298D01*
X232083Y204377D01*
X232081Y204457D01*
X232631Y203173D02*
X235749Y199504D01*
X232081Y199504D01*
D10*
X706900Y415190D02*
X706900Y422810D01*
X720100Y422560D02*
X720100Y415190D01*
D11*
X713489Y426172D03*
X713489Y411694D03*
D12*
X721704Y441237D02*
X721704Y447841D01*
X719870Y447841D01*
X719870Y447840D02*
X719785Y447838D01*
X719701Y447832D01*
X719617Y447822D01*
X719533Y447809D01*
X719450Y447791D01*
X719368Y447770D01*
X719287Y447745D01*
X719207Y447716D01*
X719129Y447684D01*
X719053Y447648D01*
X718978Y447608D01*
X718905Y447565D01*
X718834Y447519D01*
X718765Y447470D01*
X718698Y447417D01*
X718634Y447361D01*
X718573Y447303D01*
X718515Y447242D01*
X718459Y447178D01*
X718406Y447111D01*
X718357Y447042D01*
X718311Y446971D01*
X718268Y446898D01*
X718228Y446823D01*
X718192Y446747D01*
X718160Y446669D01*
X718131Y446589D01*
X718106Y446508D01*
X718085Y446426D01*
X718067Y446343D01*
X718054Y446259D01*
X718044Y446175D01*
X718038Y446091D01*
X718036Y446006D01*
X718038Y445921D01*
X718044Y445837D01*
X718054Y445753D01*
X718067Y445669D01*
X718085Y445586D01*
X718106Y445504D01*
X718131Y445423D01*
X718160Y445343D01*
X718192Y445265D01*
X718228Y445189D01*
X718268Y445114D01*
X718311Y445041D01*
X718357Y444970D01*
X718406Y444901D01*
X718459Y444834D01*
X718515Y444770D01*
X718573Y444709D01*
X718634Y444651D01*
X718698Y444595D01*
X718765Y444542D01*
X718834Y444493D01*
X718905Y444447D01*
X718978Y444404D01*
X719053Y444364D01*
X719129Y444328D01*
X719207Y444296D01*
X719287Y444267D01*
X719368Y444242D01*
X719450Y444221D01*
X719533Y444203D01*
X719617Y444190D01*
X719701Y444180D01*
X719785Y444174D01*
X719870Y444172D01*
X721704Y444172D01*
X719503Y444172D02*
X718035Y441237D01*
X714468Y441237D02*
X712633Y441237D01*
X712548Y441239D01*
X712464Y441245D01*
X712380Y441255D01*
X712296Y441268D01*
X712213Y441286D01*
X712131Y441307D01*
X712050Y441332D01*
X711970Y441361D01*
X711892Y441393D01*
X711816Y441429D01*
X711741Y441469D01*
X711668Y441512D01*
X711597Y441558D01*
X711528Y441607D01*
X711461Y441660D01*
X711397Y441716D01*
X711336Y441774D01*
X711278Y441835D01*
X711222Y441899D01*
X711169Y441966D01*
X711120Y442035D01*
X711074Y442106D01*
X711031Y442179D01*
X710991Y442254D01*
X710955Y442330D01*
X710923Y442408D01*
X710894Y442488D01*
X710869Y442569D01*
X710848Y442651D01*
X710830Y442734D01*
X710817Y442818D01*
X710807Y442902D01*
X710801Y442986D01*
X710799Y443071D01*
X710801Y443156D01*
X710807Y443240D01*
X710817Y443324D01*
X710830Y443408D01*
X710848Y443491D01*
X710869Y443573D01*
X710894Y443654D01*
X710923Y443734D01*
X710955Y443812D01*
X710991Y443888D01*
X711031Y443963D01*
X711074Y444036D01*
X711120Y444107D01*
X711169Y444176D01*
X711222Y444243D01*
X711278Y444307D01*
X711336Y444368D01*
X711397Y444426D01*
X711461Y444482D01*
X711528Y444535D01*
X711597Y444584D01*
X711668Y444630D01*
X711741Y444673D01*
X711816Y444713D01*
X711892Y444749D01*
X711970Y444781D01*
X712050Y444810D01*
X712131Y444835D01*
X712213Y444856D01*
X712296Y444874D01*
X712380Y444887D01*
X712464Y444897D01*
X712548Y444903D01*
X712633Y444905D01*
X712266Y447841D02*
X714468Y447841D01*
X712266Y447841D02*
X712190Y447839D01*
X712115Y447833D01*
X712040Y447824D01*
X711966Y447810D01*
X711892Y447793D01*
X711820Y447771D01*
X711748Y447747D01*
X711678Y447718D01*
X711610Y447686D01*
X711543Y447651D01*
X711478Y447612D01*
X711415Y447569D01*
X711355Y447524D01*
X711297Y447476D01*
X711241Y447424D01*
X711189Y447370D01*
X711139Y447313D01*
X711092Y447254D01*
X711048Y447193D01*
X711007Y447129D01*
X710970Y447063D01*
X710936Y446995D01*
X710906Y446926D01*
X710879Y446855D01*
X710856Y446783D01*
X710837Y446710D01*
X710822Y446636D01*
X710810Y446561D01*
X710802Y446486D01*
X710798Y446411D01*
X710798Y446335D01*
X710802Y446260D01*
X710810Y446185D01*
X710822Y446110D01*
X710837Y446036D01*
X710856Y445963D01*
X710879Y445891D01*
X710906Y445820D01*
X710936Y445751D01*
X710970Y445683D01*
X711007Y445617D01*
X711048Y445553D01*
X711092Y445492D01*
X711139Y445433D01*
X711189Y445376D01*
X711241Y445322D01*
X711297Y445270D01*
X711355Y445222D01*
X711415Y445177D01*
X711478Y445134D01*
X711543Y445095D01*
X711610Y445060D01*
X711678Y445028D01*
X711748Y444999D01*
X711820Y444975D01*
X711892Y444953D01*
X711966Y444936D01*
X712040Y444922D01*
X712115Y444913D01*
X712190Y444907D01*
X712266Y444905D01*
X712266Y444906D02*
X713734Y444906D01*
X707153Y446373D02*
X705318Y447841D01*
X705318Y441237D01*
X703484Y441237D02*
X707153Y441237D01*
D10*
X666900Y421110D02*
X666900Y413490D01*
X680100Y413490D02*
X680100Y420860D01*
D11*
X673489Y424472D03*
X673489Y409994D03*
D12*
X682166Y439309D02*
X682166Y445913D01*
X680331Y445913D01*
X680246Y445911D01*
X680162Y445905D01*
X680078Y445895D01*
X679994Y445882D01*
X679911Y445864D01*
X679829Y445843D01*
X679748Y445818D01*
X679668Y445789D01*
X679590Y445757D01*
X679514Y445721D01*
X679439Y445681D01*
X679366Y445638D01*
X679295Y445592D01*
X679226Y445543D01*
X679159Y445490D01*
X679095Y445434D01*
X679034Y445376D01*
X678976Y445315D01*
X678920Y445251D01*
X678867Y445184D01*
X678818Y445115D01*
X678772Y445044D01*
X678729Y444971D01*
X678689Y444896D01*
X678653Y444820D01*
X678621Y444742D01*
X678592Y444662D01*
X678567Y444581D01*
X678546Y444499D01*
X678528Y444416D01*
X678515Y444332D01*
X678505Y444248D01*
X678499Y444164D01*
X678497Y444079D01*
X678499Y443994D01*
X678505Y443910D01*
X678515Y443826D01*
X678528Y443742D01*
X678546Y443659D01*
X678567Y443577D01*
X678592Y443496D01*
X678621Y443416D01*
X678653Y443338D01*
X678689Y443262D01*
X678729Y443187D01*
X678772Y443114D01*
X678818Y443043D01*
X678867Y442974D01*
X678920Y442907D01*
X678976Y442843D01*
X679034Y442782D01*
X679095Y442724D01*
X679159Y442668D01*
X679226Y442615D01*
X679295Y442566D01*
X679366Y442520D01*
X679439Y442477D01*
X679514Y442437D01*
X679590Y442401D01*
X679668Y442369D01*
X679748Y442340D01*
X679829Y442315D01*
X679911Y442294D01*
X679994Y442276D01*
X680078Y442263D01*
X680162Y442253D01*
X680246Y442247D01*
X680331Y442245D01*
X680331Y442244D02*
X682166Y442244D01*
X679964Y442244D02*
X678497Y439309D01*
X674929Y439309D02*
X673095Y439309D01*
X673095Y439310D02*
X673010Y439312D01*
X672926Y439318D01*
X672842Y439328D01*
X672758Y439341D01*
X672675Y439359D01*
X672593Y439380D01*
X672512Y439405D01*
X672432Y439434D01*
X672354Y439466D01*
X672278Y439502D01*
X672203Y439542D01*
X672130Y439585D01*
X672059Y439631D01*
X671990Y439680D01*
X671923Y439733D01*
X671859Y439789D01*
X671798Y439847D01*
X671740Y439908D01*
X671684Y439972D01*
X671631Y440039D01*
X671582Y440108D01*
X671536Y440179D01*
X671493Y440252D01*
X671453Y440327D01*
X671417Y440403D01*
X671385Y440481D01*
X671356Y440561D01*
X671331Y440642D01*
X671310Y440724D01*
X671292Y440807D01*
X671279Y440891D01*
X671269Y440975D01*
X671263Y441059D01*
X671261Y441144D01*
X671263Y441229D01*
X671269Y441313D01*
X671279Y441397D01*
X671292Y441481D01*
X671310Y441564D01*
X671331Y441646D01*
X671356Y441727D01*
X671385Y441807D01*
X671417Y441885D01*
X671453Y441961D01*
X671493Y442036D01*
X671536Y442109D01*
X671582Y442180D01*
X671631Y442249D01*
X671684Y442316D01*
X671740Y442380D01*
X671798Y442441D01*
X671859Y442499D01*
X671923Y442555D01*
X671990Y442608D01*
X672059Y442657D01*
X672130Y442703D01*
X672203Y442746D01*
X672278Y442786D01*
X672354Y442822D01*
X672432Y442854D01*
X672512Y442883D01*
X672593Y442908D01*
X672675Y442929D01*
X672758Y442947D01*
X672842Y442960D01*
X672926Y442970D01*
X673010Y442976D01*
X673095Y442978D01*
X672728Y445913D02*
X674929Y445913D01*
X672728Y445914D02*
X672652Y445912D01*
X672577Y445906D01*
X672502Y445897D01*
X672428Y445883D01*
X672354Y445866D01*
X672282Y445844D01*
X672210Y445820D01*
X672140Y445791D01*
X672072Y445759D01*
X672005Y445724D01*
X671940Y445685D01*
X671877Y445642D01*
X671817Y445597D01*
X671759Y445549D01*
X671703Y445497D01*
X671651Y445443D01*
X671601Y445386D01*
X671554Y445327D01*
X671510Y445266D01*
X671469Y445202D01*
X671432Y445136D01*
X671398Y445068D01*
X671368Y444999D01*
X671341Y444928D01*
X671318Y444856D01*
X671299Y444783D01*
X671284Y444709D01*
X671272Y444634D01*
X671264Y444559D01*
X671260Y444484D01*
X671260Y444408D01*
X671264Y444333D01*
X671272Y444258D01*
X671284Y444183D01*
X671299Y444109D01*
X671318Y444036D01*
X671341Y443964D01*
X671368Y443893D01*
X671398Y443824D01*
X671432Y443756D01*
X671469Y443690D01*
X671510Y443626D01*
X671554Y443565D01*
X671601Y443506D01*
X671651Y443449D01*
X671703Y443395D01*
X671759Y443343D01*
X671817Y443295D01*
X671877Y443250D01*
X671940Y443207D01*
X672005Y443168D01*
X672072Y443133D01*
X672140Y443101D01*
X672210Y443072D01*
X672282Y443048D01*
X672354Y443026D01*
X672428Y443009D01*
X672502Y442995D01*
X672577Y442986D01*
X672652Y442980D01*
X672728Y442978D01*
X674196Y442978D01*
X665596Y445913D02*
X665517Y445911D01*
X665439Y445906D01*
X665361Y445896D01*
X665284Y445883D01*
X665207Y445866D01*
X665131Y445846D01*
X665056Y445822D01*
X664982Y445795D01*
X664910Y445764D01*
X664839Y445729D01*
X664771Y445692D01*
X664703Y445651D01*
X664638Y445607D01*
X664575Y445560D01*
X664515Y445510D01*
X664457Y445457D01*
X664401Y445401D01*
X664348Y445343D01*
X664298Y445283D01*
X664251Y445220D01*
X664207Y445155D01*
X664166Y445088D01*
X664129Y445019D01*
X664094Y444948D01*
X664063Y444876D01*
X664036Y444802D01*
X664012Y444727D01*
X663992Y444651D01*
X663975Y444574D01*
X663962Y444497D01*
X663952Y444419D01*
X663947Y444341D01*
X663945Y444262D01*
X665596Y445913D02*
X665685Y445911D01*
X665774Y445906D01*
X665862Y445896D01*
X665950Y445883D01*
X666037Y445867D01*
X666124Y445846D01*
X666209Y445822D01*
X666294Y445795D01*
X666377Y445764D01*
X666459Y445729D01*
X666540Y445691D01*
X666619Y445650D01*
X666695Y445606D01*
X666771Y445558D01*
X666844Y445507D01*
X666914Y445454D01*
X666983Y445397D01*
X667049Y445337D01*
X667112Y445275D01*
X667173Y445210D01*
X667231Y445143D01*
X667286Y445073D01*
X667339Y445001D01*
X667388Y444927D01*
X667434Y444851D01*
X667476Y444773D01*
X667516Y444693D01*
X667552Y444612D01*
X667585Y444529D01*
X667614Y444445D01*
X664496Y442978D02*
X664440Y443034D01*
X664386Y443093D01*
X664335Y443154D01*
X664286Y443218D01*
X664241Y443283D01*
X664198Y443351D01*
X664159Y443420D01*
X664122Y443491D01*
X664089Y443564D01*
X664060Y443638D01*
X664033Y443713D01*
X664010Y443789D01*
X663991Y443867D01*
X663975Y443945D01*
X663962Y444023D01*
X663953Y444103D01*
X663948Y444182D01*
X663946Y444262D01*
X664496Y442978D02*
X667614Y439309D01*
X663945Y439309D01*
D10*
X736900Y421910D02*
X736900Y414290D01*
X750100Y414290D02*
X750100Y421660D01*
D11*
X743489Y425272D03*
X743489Y410794D03*
D12*
X751455Y439576D02*
X751455Y446180D01*
X749620Y446180D01*
X749620Y446179D02*
X749535Y446177D01*
X749451Y446171D01*
X749367Y446161D01*
X749283Y446148D01*
X749200Y446130D01*
X749118Y446109D01*
X749037Y446084D01*
X748957Y446055D01*
X748879Y446023D01*
X748803Y445987D01*
X748728Y445947D01*
X748655Y445904D01*
X748584Y445858D01*
X748515Y445809D01*
X748448Y445756D01*
X748384Y445700D01*
X748323Y445642D01*
X748265Y445581D01*
X748209Y445517D01*
X748156Y445450D01*
X748107Y445381D01*
X748061Y445310D01*
X748018Y445237D01*
X747978Y445162D01*
X747942Y445086D01*
X747910Y445008D01*
X747881Y444928D01*
X747856Y444847D01*
X747835Y444765D01*
X747817Y444682D01*
X747804Y444598D01*
X747794Y444514D01*
X747788Y444430D01*
X747786Y444345D01*
X747788Y444260D01*
X747794Y444176D01*
X747804Y444092D01*
X747817Y444008D01*
X747835Y443925D01*
X747856Y443843D01*
X747881Y443762D01*
X747910Y443682D01*
X747942Y443604D01*
X747978Y443528D01*
X748018Y443453D01*
X748061Y443380D01*
X748107Y443309D01*
X748156Y443240D01*
X748209Y443173D01*
X748265Y443109D01*
X748323Y443048D01*
X748384Y442990D01*
X748448Y442934D01*
X748515Y442881D01*
X748584Y442832D01*
X748655Y442786D01*
X748728Y442743D01*
X748803Y442703D01*
X748879Y442667D01*
X748957Y442635D01*
X749037Y442606D01*
X749118Y442581D01*
X749200Y442560D01*
X749283Y442542D01*
X749367Y442529D01*
X749451Y442519D01*
X749535Y442513D01*
X749620Y442511D01*
X751455Y442511D01*
X749253Y442511D02*
X747786Y439576D01*
X744218Y439576D02*
X742384Y439576D01*
X742299Y439578D01*
X742215Y439584D01*
X742131Y439594D01*
X742047Y439607D01*
X741964Y439625D01*
X741882Y439646D01*
X741801Y439671D01*
X741721Y439700D01*
X741643Y439732D01*
X741567Y439768D01*
X741492Y439808D01*
X741419Y439851D01*
X741348Y439897D01*
X741279Y439946D01*
X741212Y439999D01*
X741148Y440055D01*
X741087Y440113D01*
X741029Y440174D01*
X740973Y440238D01*
X740920Y440305D01*
X740871Y440374D01*
X740825Y440445D01*
X740782Y440518D01*
X740742Y440593D01*
X740706Y440669D01*
X740674Y440747D01*
X740645Y440827D01*
X740620Y440908D01*
X740599Y440990D01*
X740581Y441073D01*
X740568Y441157D01*
X740558Y441241D01*
X740552Y441325D01*
X740550Y441410D01*
X740552Y441495D01*
X740558Y441579D01*
X740568Y441663D01*
X740581Y441747D01*
X740599Y441830D01*
X740620Y441912D01*
X740645Y441993D01*
X740674Y442073D01*
X740706Y442151D01*
X740742Y442227D01*
X740782Y442302D01*
X740825Y442375D01*
X740871Y442446D01*
X740920Y442515D01*
X740973Y442582D01*
X741029Y442646D01*
X741087Y442707D01*
X741148Y442765D01*
X741212Y442821D01*
X741279Y442874D01*
X741348Y442923D01*
X741419Y442969D01*
X741492Y443012D01*
X741567Y443052D01*
X741643Y443088D01*
X741721Y443120D01*
X741801Y443149D01*
X741882Y443174D01*
X741964Y443195D01*
X742047Y443213D01*
X742131Y443226D01*
X742215Y443236D01*
X742299Y443242D01*
X742384Y443244D01*
X742017Y446180D02*
X744218Y446180D01*
X742017Y446180D02*
X741941Y446178D01*
X741866Y446172D01*
X741791Y446163D01*
X741717Y446149D01*
X741643Y446132D01*
X741571Y446110D01*
X741499Y446086D01*
X741429Y446057D01*
X741361Y446025D01*
X741294Y445990D01*
X741229Y445951D01*
X741166Y445908D01*
X741106Y445863D01*
X741048Y445815D01*
X740992Y445763D01*
X740940Y445709D01*
X740890Y445652D01*
X740843Y445593D01*
X740799Y445532D01*
X740758Y445468D01*
X740721Y445402D01*
X740687Y445334D01*
X740657Y445265D01*
X740630Y445194D01*
X740607Y445122D01*
X740588Y445049D01*
X740573Y444975D01*
X740561Y444900D01*
X740553Y444825D01*
X740549Y444750D01*
X740549Y444674D01*
X740553Y444599D01*
X740561Y444524D01*
X740573Y444449D01*
X740588Y444375D01*
X740607Y444302D01*
X740630Y444230D01*
X740657Y444159D01*
X740687Y444090D01*
X740721Y444022D01*
X740758Y443956D01*
X740799Y443892D01*
X740843Y443831D01*
X740890Y443772D01*
X740940Y443715D01*
X740992Y443661D01*
X741048Y443609D01*
X741106Y443561D01*
X741166Y443516D01*
X741229Y443473D01*
X741294Y443434D01*
X741361Y443399D01*
X741429Y443367D01*
X741499Y443338D01*
X741571Y443314D01*
X741643Y443292D01*
X741717Y443275D01*
X741791Y443261D01*
X741866Y443252D01*
X741941Y443246D01*
X742017Y443244D01*
X742017Y443245D02*
X743484Y443245D01*
X736903Y439576D02*
X735069Y439576D01*
X734984Y439578D01*
X734900Y439584D01*
X734816Y439594D01*
X734732Y439607D01*
X734649Y439625D01*
X734567Y439646D01*
X734486Y439671D01*
X734406Y439700D01*
X734328Y439732D01*
X734252Y439768D01*
X734177Y439808D01*
X734104Y439851D01*
X734033Y439897D01*
X733964Y439946D01*
X733897Y439999D01*
X733833Y440055D01*
X733772Y440113D01*
X733714Y440174D01*
X733658Y440238D01*
X733605Y440305D01*
X733556Y440374D01*
X733510Y440445D01*
X733467Y440518D01*
X733427Y440593D01*
X733391Y440669D01*
X733359Y440747D01*
X733330Y440827D01*
X733305Y440908D01*
X733284Y440990D01*
X733266Y441073D01*
X733253Y441157D01*
X733243Y441241D01*
X733237Y441325D01*
X733235Y441410D01*
X733237Y441495D01*
X733243Y441579D01*
X733253Y441663D01*
X733266Y441747D01*
X733284Y441830D01*
X733305Y441912D01*
X733330Y441993D01*
X733359Y442073D01*
X733391Y442151D01*
X733427Y442227D01*
X733467Y442302D01*
X733510Y442375D01*
X733556Y442446D01*
X733605Y442515D01*
X733658Y442582D01*
X733714Y442646D01*
X733772Y442707D01*
X733833Y442765D01*
X733897Y442821D01*
X733964Y442874D01*
X734033Y442923D01*
X734104Y442969D01*
X734177Y443012D01*
X734252Y443052D01*
X734328Y443088D01*
X734406Y443120D01*
X734486Y443149D01*
X734567Y443174D01*
X734649Y443195D01*
X734732Y443213D01*
X734816Y443226D01*
X734900Y443236D01*
X734984Y443242D01*
X735069Y443244D01*
X734702Y446180D02*
X736903Y446180D01*
X734702Y446180D02*
X734626Y446178D01*
X734551Y446172D01*
X734476Y446163D01*
X734402Y446149D01*
X734328Y446132D01*
X734256Y446110D01*
X734184Y446086D01*
X734114Y446057D01*
X734046Y446025D01*
X733979Y445990D01*
X733914Y445951D01*
X733851Y445908D01*
X733791Y445863D01*
X733733Y445815D01*
X733677Y445763D01*
X733625Y445709D01*
X733575Y445652D01*
X733528Y445593D01*
X733484Y445532D01*
X733443Y445468D01*
X733406Y445402D01*
X733372Y445334D01*
X733342Y445265D01*
X733315Y445194D01*
X733292Y445122D01*
X733273Y445049D01*
X733258Y444975D01*
X733246Y444900D01*
X733238Y444825D01*
X733234Y444750D01*
X733234Y444674D01*
X733238Y444599D01*
X733246Y444524D01*
X733258Y444449D01*
X733273Y444375D01*
X733292Y444302D01*
X733315Y444230D01*
X733342Y444159D01*
X733372Y444090D01*
X733406Y444022D01*
X733443Y443956D01*
X733484Y443892D01*
X733528Y443831D01*
X733575Y443772D01*
X733625Y443715D01*
X733677Y443661D01*
X733733Y443609D01*
X733791Y443561D01*
X733851Y443516D01*
X733914Y443473D01*
X733979Y443434D01*
X734046Y443399D01*
X734114Y443367D01*
X734184Y443338D01*
X734256Y443314D01*
X734328Y443292D01*
X734402Y443275D01*
X734476Y443261D01*
X734551Y443252D01*
X734626Y443246D01*
X734702Y443244D01*
X734702Y443245D02*
X736169Y443245D01*
D10*
X226510Y97755D02*
X218890Y97755D01*
X219140Y110955D02*
X226510Y110955D01*
D13*
X215529Y104344D03*
X230007Y104344D03*
D12*
X227005Y115944D02*
X227005Y122548D01*
X225170Y122548D01*
X225170Y122547D02*
X225085Y122545D01*
X225001Y122539D01*
X224917Y122529D01*
X224833Y122516D01*
X224750Y122498D01*
X224668Y122477D01*
X224587Y122452D01*
X224507Y122423D01*
X224429Y122391D01*
X224353Y122355D01*
X224278Y122315D01*
X224205Y122272D01*
X224134Y122226D01*
X224065Y122177D01*
X223998Y122124D01*
X223934Y122068D01*
X223873Y122010D01*
X223815Y121949D01*
X223759Y121885D01*
X223706Y121818D01*
X223657Y121749D01*
X223611Y121678D01*
X223568Y121605D01*
X223528Y121530D01*
X223492Y121454D01*
X223460Y121376D01*
X223431Y121296D01*
X223406Y121215D01*
X223385Y121133D01*
X223367Y121050D01*
X223354Y120966D01*
X223344Y120882D01*
X223338Y120798D01*
X223336Y120713D01*
X223338Y120628D01*
X223344Y120544D01*
X223354Y120460D01*
X223367Y120376D01*
X223385Y120293D01*
X223406Y120211D01*
X223431Y120130D01*
X223460Y120050D01*
X223492Y119972D01*
X223528Y119896D01*
X223568Y119821D01*
X223611Y119748D01*
X223657Y119677D01*
X223706Y119608D01*
X223759Y119541D01*
X223815Y119477D01*
X223873Y119416D01*
X223934Y119358D01*
X223998Y119302D01*
X224065Y119249D01*
X224134Y119200D01*
X224205Y119154D01*
X224278Y119111D01*
X224353Y119071D01*
X224429Y119035D01*
X224507Y119003D01*
X224587Y118974D01*
X224668Y118949D01*
X224750Y118928D01*
X224833Y118910D01*
X224917Y118897D01*
X225001Y118887D01*
X225085Y118881D01*
X225170Y118879D01*
X227005Y118879D01*
X224803Y118879D02*
X223336Y115944D01*
X219768Y115944D02*
X217934Y115944D01*
X217849Y115946D01*
X217765Y115952D01*
X217681Y115962D01*
X217597Y115975D01*
X217514Y115993D01*
X217432Y116014D01*
X217351Y116039D01*
X217271Y116068D01*
X217193Y116100D01*
X217117Y116136D01*
X217042Y116176D01*
X216969Y116219D01*
X216898Y116265D01*
X216829Y116314D01*
X216762Y116367D01*
X216698Y116423D01*
X216637Y116481D01*
X216579Y116542D01*
X216523Y116606D01*
X216470Y116673D01*
X216421Y116742D01*
X216375Y116813D01*
X216332Y116886D01*
X216292Y116961D01*
X216256Y117037D01*
X216224Y117115D01*
X216195Y117195D01*
X216170Y117276D01*
X216149Y117358D01*
X216131Y117441D01*
X216118Y117525D01*
X216108Y117609D01*
X216102Y117693D01*
X216100Y117778D01*
X216102Y117863D01*
X216108Y117947D01*
X216118Y118031D01*
X216131Y118115D01*
X216149Y118198D01*
X216170Y118280D01*
X216195Y118361D01*
X216224Y118441D01*
X216256Y118519D01*
X216292Y118595D01*
X216332Y118670D01*
X216375Y118743D01*
X216421Y118814D01*
X216470Y118883D01*
X216523Y118950D01*
X216579Y119014D01*
X216637Y119075D01*
X216698Y119133D01*
X216762Y119189D01*
X216829Y119242D01*
X216898Y119291D01*
X216969Y119337D01*
X217042Y119380D01*
X217117Y119420D01*
X217193Y119456D01*
X217271Y119488D01*
X217351Y119517D01*
X217432Y119542D01*
X217514Y119563D01*
X217597Y119581D01*
X217681Y119594D01*
X217765Y119604D01*
X217849Y119610D01*
X217934Y119612D01*
X217567Y122548D02*
X219768Y122548D01*
X217567Y122548D02*
X217491Y122546D01*
X217416Y122540D01*
X217341Y122531D01*
X217267Y122517D01*
X217193Y122500D01*
X217121Y122478D01*
X217049Y122454D01*
X216979Y122425D01*
X216911Y122393D01*
X216844Y122358D01*
X216779Y122319D01*
X216716Y122276D01*
X216656Y122231D01*
X216598Y122183D01*
X216542Y122131D01*
X216490Y122077D01*
X216440Y122020D01*
X216393Y121961D01*
X216349Y121900D01*
X216308Y121836D01*
X216271Y121770D01*
X216237Y121702D01*
X216207Y121633D01*
X216180Y121562D01*
X216157Y121490D01*
X216138Y121417D01*
X216123Y121343D01*
X216111Y121268D01*
X216103Y121193D01*
X216099Y121118D01*
X216099Y121042D01*
X216103Y120967D01*
X216111Y120892D01*
X216123Y120817D01*
X216138Y120743D01*
X216157Y120670D01*
X216180Y120598D01*
X216207Y120527D01*
X216237Y120458D01*
X216271Y120390D01*
X216308Y120324D01*
X216349Y120260D01*
X216393Y120199D01*
X216440Y120140D01*
X216490Y120083D01*
X216542Y120029D01*
X216598Y119977D01*
X216656Y119929D01*
X216716Y119884D01*
X216779Y119841D01*
X216844Y119802D01*
X216911Y119767D01*
X216979Y119735D01*
X217049Y119706D01*
X217121Y119682D01*
X217193Y119660D01*
X217267Y119643D01*
X217341Y119629D01*
X217416Y119620D01*
X217491Y119614D01*
X217567Y119612D01*
X217567Y119613D02*
X219035Y119613D01*
D10*
X135210Y244855D02*
X127590Y244855D01*
X127840Y258055D02*
X135210Y258055D01*
D13*
X124229Y251444D03*
X138707Y251444D03*
D12*
X152749Y242523D02*
X159353Y242523D01*
X159353Y244357D01*
X159352Y244357D02*
X159350Y244442D01*
X159344Y244526D01*
X159334Y244610D01*
X159321Y244694D01*
X159303Y244777D01*
X159282Y244859D01*
X159257Y244940D01*
X159228Y245020D01*
X159196Y245098D01*
X159160Y245174D01*
X159120Y245249D01*
X159077Y245322D01*
X159031Y245393D01*
X158982Y245462D01*
X158929Y245529D01*
X158873Y245593D01*
X158815Y245654D01*
X158754Y245712D01*
X158690Y245768D01*
X158623Y245821D01*
X158554Y245870D01*
X158483Y245916D01*
X158410Y245959D01*
X158335Y245999D01*
X158259Y246035D01*
X158181Y246067D01*
X158101Y246096D01*
X158020Y246121D01*
X157938Y246142D01*
X157855Y246160D01*
X157771Y246173D01*
X157687Y246183D01*
X157603Y246189D01*
X157518Y246191D01*
X157433Y246189D01*
X157349Y246183D01*
X157265Y246173D01*
X157181Y246160D01*
X157098Y246142D01*
X157016Y246121D01*
X156935Y246096D01*
X156855Y246067D01*
X156777Y246035D01*
X156701Y245999D01*
X156626Y245959D01*
X156553Y245916D01*
X156482Y245870D01*
X156413Y245821D01*
X156346Y245768D01*
X156282Y245712D01*
X156221Y245654D01*
X156163Y245593D01*
X156107Y245529D01*
X156054Y245462D01*
X156005Y245393D01*
X155959Y245322D01*
X155916Y245249D01*
X155876Y245174D01*
X155840Y245098D01*
X155808Y245020D01*
X155779Y244940D01*
X155754Y244859D01*
X155733Y244777D01*
X155715Y244694D01*
X155702Y244610D01*
X155692Y244526D01*
X155686Y244442D01*
X155684Y244357D01*
X155684Y242523D01*
X155684Y244724D02*
X152749Y246192D01*
X159353Y251777D02*
X159351Y251856D01*
X159346Y251934D01*
X159336Y252012D01*
X159323Y252089D01*
X159306Y252166D01*
X159286Y252242D01*
X159262Y252317D01*
X159235Y252391D01*
X159204Y252463D01*
X159169Y252534D01*
X159132Y252603D01*
X159091Y252670D01*
X159047Y252735D01*
X159000Y252798D01*
X158950Y252858D01*
X158897Y252916D01*
X158841Y252972D01*
X158783Y253025D01*
X158723Y253075D01*
X158660Y253122D01*
X158595Y253166D01*
X158528Y253207D01*
X158459Y253244D01*
X158388Y253279D01*
X158316Y253310D01*
X158242Y253337D01*
X158167Y253361D01*
X158091Y253381D01*
X158014Y253398D01*
X157937Y253411D01*
X157859Y253421D01*
X157781Y253426D01*
X157702Y253428D01*
X159353Y251777D02*
X159351Y251688D01*
X159346Y251599D01*
X159336Y251511D01*
X159323Y251423D01*
X159307Y251336D01*
X159286Y251249D01*
X159262Y251164D01*
X159235Y251079D01*
X159204Y250996D01*
X159169Y250914D01*
X159131Y250833D01*
X159090Y250754D01*
X159046Y250678D01*
X158998Y250602D01*
X158947Y250529D01*
X158894Y250459D01*
X158837Y250390D01*
X158777Y250324D01*
X158715Y250261D01*
X158650Y250200D01*
X158583Y250142D01*
X158513Y250087D01*
X158441Y250034D01*
X158367Y249985D01*
X158291Y249939D01*
X158213Y249897D01*
X158133Y249857D01*
X158052Y249821D01*
X157969Y249788D01*
X157885Y249759D01*
X156418Y252878D02*
X156474Y252934D01*
X156533Y252988D01*
X156594Y253039D01*
X156658Y253088D01*
X156723Y253133D01*
X156791Y253176D01*
X156860Y253215D01*
X156931Y253252D01*
X157004Y253285D01*
X157078Y253314D01*
X157153Y253341D01*
X157229Y253364D01*
X157307Y253383D01*
X157385Y253399D01*
X157463Y253412D01*
X157543Y253421D01*
X157622Y253426D01*
X157702Y253428D01*
X156418Y252878D02*
X152749Y249759D01*
X152749Y253428D01*
X154583Y257075D02*
X154668Y257077D01*
X154752Y257083D01*
X154836Y257093D01*
X154920Y257106D01*
X155003Y257124D01*
X155085Y257145D01*
X155166Y257170D01*
X155246Y257199D01*
X155324Y257231D01*
X155400Y257267D01*
X155475Y257307D01*
X155548Y257350D01*
X155619Y257396D01*
X155688Y257445D01*
X155755Y257498D01*
X155819Y257554D01*
X155880Y257612D01*
X155938Y257673D01*
X155994Y257737D01*
X156047Y257804D01*
X156096Y257873D01*
X156142Y257944D01*
X156185Y258017D01*
X156225Y258092D01*
X156261Y258168D01*
X156293Y258246D01*
X156322Y258326D01*
X156347Y258407D01*
X156368Y258489D01*
X156386Y258572D01*
X156399Y258656D01*
X156409Y258740D01*
X156415Y258824D01*
X156417Y258909D01*
X156415Y258994D01*
X156409Y259078D01*
X156399Y259162D01*
X156386Y259246D01*
X156368Y259329D01*
X156347Y259411D01*
X156322Y259492D01*
X156293Y259572D01*
X156261Y259650D01*
X156225Y259726D01*
X156185Y259801D01*
X156142Y259874D01*
X156096Y259945D01*
X156047Y260014D01*
X155994Y260081D01*
X155938Y260145D01*
X155880Y260206D01*
X155819Y260264D01*
X155755Y260320D01*
X155688Y260373D01*
X155619Y260422D01*
X155548Y260468D01*
X155475Y260511D01*
X155400Y260551D01*
X155324Y260587D01*
X155246Y260619D01*
X155166Y260648D01*
X155085Y260673D01*
X155003Y260694D01*
X154920Y260712D01*
X154836Y260725D01*
X154752Y260735D01*
X154668Y260741D01*
X154583Y260743D01*
X154498Y260741D01*
X154414Y260735D01*
X154330Y260725D01*
X154246Y260712D01*
X154163Y260694D01*
X154081Y260673D01*
X154000Y260648D01*
X153920Y260619D01*
X153842Y260587D01*
X153766Y260551D01*
X153691Y260511D01*
X153618Y260468D01*
X153547Y260422D01*
X153478Y260373D01*
X153411Y260320D01*
X153347Y260264D01*
X153286Y260206D01*
X153228Y260145D01*
X153172Y260081D01*
X153119Y260014D01*
X153070Y259945D01*
X153024Y259874D01*
X152981Y259801D01*
X152941Y259726D01*
X152905Y259650D01*
X152873Y259572D01*
X152844Y259492D01*
X152819Y259411D01*
X152798Y259329D01*
X152780Y259246D01*
X152767Y259162D01*
X152757Y259078D01*
X152751Y258994D01*
X152749Y258909D01*
X152751Y258824D01*
X152757Y258740D01*
X152767Y258656D01*
X152780Y258572D01*
X152798Y258489D01*
X152819Y258407D01*
X152844Y258326D01*
X152873Y258246D01*
X152905Y258168D01*
X152941Y258092D01*
X152981Y258017D01*
X153024Y257944D01*
X153070Y257873D01*
X153119Y257804D01*
X153172Y257737D01*
X153228Y257673D01*
X153286Y257612D01*
X153347Y257554D01*
X153411Y257498D01*
X153478Y257445D01*
X153547Y257396D01*
X153618Y257350D01*
X153691Y257307D01*
X153766Y257267D01*
X153842Y257231D01*
X153920Y257199D01*
X154000Y257170D01*
X154081Y257145D01*
X154163Y257124D01*
X154246Y257106D01*
X154330Y257093D01*
X154414Y257083D01*
X154498Y257077D01*
X154583Y257075D01*
X157885Y257441D02*
X157961Y257443D01*
X158036Y257449D01*
X158111Y257458D01*
X158185Y257472D01*
X158259Y257489D01*
X158331Y257511D01*
X158403Y257535D01*
X158473Y257564D01*
X158541Y257596D01*
X158608Y257631D01*
X158673Y257670D01*
X158736Y257713D01*
X158796Y257758D01*
X158854Y257806D01*
X158910Y257858D01*
X158962Y257912D01*
X159012Y257969D01*
X159059Y258028D01*
X159103Y258089D01*
X159144Y258153D01*
X159181Y258219D01*
X159215Y258287D01*
X159245Y258356D01*
X159272Y258427D01*
X159295Y258499D01*
X159314Y258572D01*
X159329Y258646D01*
X159341Y258721D01*
X159349Y258796D01*
X159353Y258871D01*
X159353Y258947D01*
X159349Y259022D01*
X159341Y259097D01*
X159329Y259172D01*
X159314Y259246D01*
X159295Y259319D01*
X159272Y259391D01*
X159245Y259462D01*
X159215Y259531D01*
X159181Y259599D01*
X159144Y259665D01*
X159103Y259729D01*
X159059Y259790D01*
X159012Y259849D01*
X158962Y259906D01*
X158910Y259960D01*
X158854Y260012D01*
X158796Y260060D01*
X158736Y260105D01*
X158673Y260148D01*
X158608Y260187D01*
X158541Y260222D01*
X158473Y260254D01*
X158403Y260283D01*
X158331Y260307D01*
X158259Y260329D01*
X158185Y260346D01*
X158111Y260360D01*
X158036Y260369D01*
X157961Y260375D01*
X157885Y260377D01*
X157809Y260375D01*
X157734Y260369D01*
X157659Y260360D01*
X157585Y260346D01*
X157511Y260329D01*
X157439Y260307D01*
X157367Y260283D01*
X157297Y260254D01*
X157229Y260222D01*
X157162Y260187D01*
X157097Y260148D01*
X157034Y260105D01*
X156974Y260060D01*
X156916Y260012D01*
X156860Y259960D01*
X156808Y259906D01*
X156758Y259849D01*
X156711Y259790D01*
X156667Y259729D01*
X156626Y259665D01*
X156589Y259599D01*
X156555Y259531D01*
X156525Y259462D01*
X156498Y259391D01*
X156475Y259319D01*
X156456Y259246D01*
X156441Y259172D01*
X156429Y259097D01*
X156421Y259022D01*
X156417Y258947D01*
X156417Y258871D01*
X156421Y258796D01*
X156429Y258721D01*
X156441Y258646D01*
X156456Y258572D01*
X156475Y258499D01*
X156498Y258427D01*
X156525Y258356D01*
X156555Y258287D01*
X156589Y258219D01*
X156626Y258153D01*
X156667Y258089D01*
X156711Y258028D01*
X156758Y257969D01*
X156808Y257912D01*
X156860Y257858D01*
X156916Y257806D01*
X156974Y257758D01*
X157034Y257713D01*
X157097Y257670D01*
X157162Y257631D01*
X157229Y257596D01*
X157297Y257564D01*
X157367Y257535D01*
X157439Y257511D01*
X157511Y257489D01*
X157585Y257472D01*
X157659Y257458D01*
X157734Y257449D01*
X157809Y257443D01*
X157885Y257441D01*
D10*
X134566Y207355D02*
X126946Y207355D01*
X127196Y220555D02*
X134566Y220555D01*
D13*
X123585Y213944D03*
X138063Y213944D03*
D12*
X151838Y204845D02*
X158442Y204845D01*
X158442Y206679D01*
X158440Y206764D01*
X158434Y206848D01*
X158424Y206932D01*
X158411Y207016D01*
X158393Y207099D01*
X158372Y207181D01*
X158347Y207262D01*
X158318Y207342D01*
X158286Y207420D01*
X158250Y207496D01*
X158210Y207571D01*
X158167Y207644D01*
X158121Y207715D01*
X158072Y207784D01*
X158019Y207851D01*
X157963Y207915D01*
X157905Y207976D01*
X157844Y208034D01*
X157780Y208090D01*
X157713Y208143D01*
X157644Y208192D01*
X157573Y208238D01*
X157500Y208281D01*
X157425Y208321D01*
X157349Y208357D01*
X157271Y208389D01*
X157191Y208418D01*
X157110Y208443D01*
X157028Y208464D01*
X156945Y208482D01*
X156861Y208495D01*
X156777Y208505D01*
X156693Y208511D01*
X156608Y208513D01*
X156523Y208511D01*
X156439Y208505D01*
X156355Y208495D01*
X156271Y208482D01*
X156188Y208464D01*
X156106Y208443D01*
X156025Y208418D01*
X155945Y208389D01*
X155867Y208357D01*
X155791Y208321D01*
X155716Y208281D01*
X155643Y208238D01*
X155572Y208192D01*
X155503Y208143D01*
X155436Y208090D01*
X155372Y208034D01*
X155311Y207976D01*
X155253Y207915D01*
X155197Y207851D01*
X155144Y207784D01*
X155095Y207715D01*
X155049Y207644D01*
X155006Y207571D01*
X154966Y207496D01*
X154930Y207420D01*
X154898Y207342D01*
X154869Y207262D01*
X154844Y207181D01*
X154823Y207099D01*
X154805Y207016D01*
X154792Y206932D01*
X154782Y206848D01*
X154776Y206764D01*
X154774Y206679D01*
X154773Y206679D02*
X154773Y204845D01*
X154773Y207046D02*
X151838Y208514D01*
X158442Y214099D02*
X158440Y214178D01*
X158435Y214256D01*
X158425Y214334D01*
X158412Y214411D01*
X158395Y214488D01*
X158375Y214564D01*
X158351Y214639D01*
X158324Y214713D01*
X158293Y214785D01*
X158258Y214856D01*
X158221Y214925D01*
X158180Y214992D01*
X158136Y215057D01*
X158089Y215120D01*
X158039Y215180D01*
X157986Y215238D01*
X157930Y215294D01*
X157872Y215347D01*
X157812Y215397D01*
X157749Y215444D01*
X157684Y215488D01*
X157617Y215529D01*
X157548Y215566D01*
X157477Y215601D01*
X157405Y215632D01*
X157331Y215659D01*
X157256Y215683D01*
X157180Y215703D01*
X157103Y215720D01*
X157026Y215733D01*
X156948Y215743D01*
X156870Y215748D01*
X156791Y215750D01*
X158442Y214099D02*
X158440Y214010D01*
X158435Y213921D01*
X158425Y213833D01*
X158412Y213745D01*
X158396Y213658D01*
X158375Y213571D01*
X158351Y213486D01*
X158324Y213401D01*
X158293Y213318D01*
X158258Y213236D01*
X158220Y213155D01*
X158179Y213076D01*
X158135Y213000D01*
X158087Y212924D01*
X158036Y212851D01*
X157983Y212781D01*
X157926Y212712D01*
X157866Y212646D01*
X157804Y212583D01*
X157739Y212522D01*
X157672Y212464D01*
X157602Y212409D01*
X157530Y212356D01*
X157456Y212307D01*
X157380Y212261D01*
X157302Y212219D01*
X157222Y212179D01*
X157141Y212143D01*
X157058Y212110D01*
X156974Y212081D01*
X155507Y215200D02*
X155563Y215256D01*
X155622Y215310D01*
X155683Y215361D01*
X155747Y215410D01*
X155812Y215455D01*
X155880Y215498D01*
X155949Y215537D01*
X156020Y215574D01*
X156093Y215607D01*
X156167Y215636D01*
X156242Y215663D01*
X156318Y215686D01*
X156396Y215705D01*
X156474Y215721D01*
X156552Y215734D01*
X156632Y215743D01*
X156711Y215748D01*
X156791Y215750D01*
X155507Y215200D02*
X151838Y212081D01*
X151838Y215750D01*
X154773Y220864D02*
X154773Y223066D01*
X154773Y220864D02*
X154775Y220790D01*
X154781Y220715D01*
X154790Y220642D01*
X154803Y220568D01*
X154820Y220496D01*
X154840Y220425D01*
X154864Y220354D01*
X154892Y220285D01*
X154923Y220218D01*
X154957Y220152D01*
X154995Y220087D01*
X155036Y220025D01*
X155080Y219965D01*
X155127Y219908D01*
X155177Y219853D01*
X155230Y219800D01*
X155285Y219750D01*
X155342Y219703D01*
X155402Y219659D01*
X155464Y219618D01*
X155529Y219580D01*
X155595Y219546D01*
X155662Y219515D01*
X155731Y219487D01*
X155802Y219463D01*
X155873Y219443D01*
X155945Y219426D01*
X156019Y219413D01*
X156092Y219404D01*
X156167Y219398D01*
X156241Y219396D01*
X156241Y219397D02*
X156608Y219397D01*
X156693Y219399D01*
X156777Y219405D01*
X156861Y219415D01*
X156945Y219428D01*
X157028Y219446D01*
X157110Y219467D01*
X157191Y219492D01*
X157271Y219521D01*
X157349Y219553D01*
X157425Y219589D01*
X157500Y219629D01*
X157573Y219672D01*
X157644Y219718D01*
X157713Y219767D01*
X157780Y219820D01*
X157844Y219876D01*
X157905Y219934D01*
X157963Y219995D01*
X158019Y220059D01*
X158072Y220126D01*
X158121Y220195D01*
X158167Y220266D01*
X158210Y220339D01*
X158250Y220414D01*
X158286Y220490D01*
X158318Y220568D01*
X158347Y220648D01*
X158372Y220729D01*
X158393Y220811D01*
X158411Y220894D01*
X158424Y220978D01*
X158434Y221062D01*
X158440Y221146D01*
X158442Y221231D01*
X158440Y221316D01*
X158434Y221400D01*
X158424Y221484D01*
X158411Y221568D01*
X158393Y221651D01*
X158372Y221733D01*
X158347Y221814D01*
X158318Y221894D01*
X158286Y221972D01*
X158250Y222048D01*
X158210Y222123D01*
X158167Y222196D01*
X158121Y222267D01*
X158072Y222336D01*
X158019Y222403D01*
X157963Y222467D01*
X157905Y222528D01*
X157844Y222586D01*
X157780Y222642D01*
X157713Y222695D01*
X157644Y222744D01*
X157573Y222790D01*
X157500Y222833D01*
X157425Y222873D01*
X157349Y222909D01*
X157271Y222941D01*
X157191Y222970D01*
X157110Y222995D01*
X157028Y223016D01*
X156945Y223034D01*
X156861Y223047D01*
X156777Y223057D01*
X156693Y223063D01*
X156608Y223065D01*
X156608Y223066D02*
X154773Y223066D01*
X154773Y223065D02*
X154666Y223063D01*
X154559Y223057D01*
X154452Y223047D01*
X154346Y223034D01*
X154240Y223016D01*
X154135Y222995D01*
X154031Y222970D01*
X153927Y222941D01*
X153825Y222908D01*
X153725Y222871D01*
X153625Y222831D01*
X153527Y222787D01*
X153431Y222740D01*
X153337Y222689D01*
X153244Y222635D01*
X153154Y222578D01*
X153065Y222517D01*
X152979Y222453D01*
X152896Y222386D01*
X152814Y222316D01*
X152736Y222243D01*
X152660Y222167D01*
X152587Y222089D01*
X152517Y222007D01*
X152450Y221924D01*
X152386Y221838D01*
X152325Y221749D01*
X152268Y221659D01*
X152214Y221566D01*
X152163Y221472D01*
X152116Y221376D01*
X152072Y221278D01*
X152032Y221178D01*
X151995Y221078D01*
X151962Y220976D01*
X151933Y220872D01*
X151908Y220768D01*
X151887Y220663D01*
X151869Y220557D01*
X151856Y220451D01*
X151846Y220344D01*
X151840Y220237D01*
X151838Y220130D01*
D10*
X617300Y534290D02*
X617300Y541910D01*
X630500Y541660D02*
X630500Y534290D01*
D11*
X623889Y545272D03*
X623889Y530794D03*
D12*
X628641Y559487D02*
X628641Y566091D01*
X626807Y566091D01*
X626807Y566090D02*
X626722Y566088D01*
X626638Y566082D01*
X626554Y566072D01*
X626470Y566059D01*
X626387Y566041D01*
X626305Y566020D01*
X626224Y565995D01*
X626144Y565966D01*
X626066Y565934D01*
X625990Y565898D01*
X625915Y565858D01*
X625842Y565815D01*
X625771Y565769D01*
X625702Y565720D01*
X625635Y565667D01*
X625571Y565611D01*
X625510Y565553D01*
X625452Y565492D01*
X625396Y565428D01*
X625343Y565361D01*
X625294Y565292D01*
X625248Y565221D01*
X625205Y565148D01*
X625165Y565073D01*
X625129Y564997D01*
X625097Y564919D01*
X625068Y564839D01*
X625043Y564758D01*
X625022Y564676D01*
X625004Y564593D01*
X624991Y564509D01*
X624981Y564425D01*
X624975Y564341D01*
X624973Y564256D01*
X624975Y564171D01*
X624981Y564087D01*
X624991Y564003D01*
X625004Y563919D01*
X625022Y563836D01*
X625043Y563754D01*
X625068Y563673D01*
X625097Y563593D01*
X625129Y563515D01*
X625165Y563439D01*
X625205Y563364D01*
X625248Y563291D01*
X625294Y563220D01*
X625343Y563151D01*
X625396Y563084D01*
X625452Y563020D01*
X625510Y562959D01*
X625571Y562901D01*
X625635Y562845D01*
X625702Y562792D01*
X625771Y562743D01*
X625842Y562697D01*
X625915Y562654D01*
X625990Y562614D01*
X626066Y562578D01*
X626144Y562546D01*
X626224Y562517D01*
X626305Y562492D01*
X626387Y562471D01*
X626470Y562453D01*
X626554Y562440D01*
X626638Y562430D01*
X626722Y562424D01*
X626807Y562422D01*
X628641Y562422D01*
X626440Y562422D02*
X624973Y559487D01*
X621405Y560954D02*
X619938Y566091D01*
X621405Y560954D02*
X617736Y560954D01*
X618837Y559487D02*
X618837Y562422D01*
D10*
X75522Y207309D02*
X75522Y199689D01*
X88722Y199689D02*
X88722Y207059D01*
D11*
X82111Y210671D03*
X82111Y196193D03*
D12*
X90966Y182862D02*
X90966Y176258D01*
X90966Y182862D02*
X89131Y182862D01*
X89131Y182861D02*
X89046Y182859D01*
X88962Y182853D01*
X88878Y182843D01*
X88794Y182830D01*
X88711Y182812D01*
X88629Y182791D01*
X88548Y182766D01*
X88468Y182737D01*
X88390Y182705D01*
X88314Y182669D01*
X88239Y182629D01*
X88166Y182586D01*
X88095Y182540D01*
X88026Y182491D01*
X87959Y182438D01*
X87895Y182382D01*
X87834Y182324D01*
X87776Y182263D01*
X87720Y182199D01*
X87667Y182132D01*
X87618Y182063D01*
X87572Y181992D01*
X87529Y181919D01*
X87489Y181844D01*
X87453Y181768D01*
X87421Y181690D01*
X87392Y181610D01*
X87367Y181529D01*
X87346Y181447D01*
X87328Y181364D01*
X87315Y181280D01*
X87305Y181196D01*
X87299Y181112D01*
X87297Y181027D01*
X87299Y180942D01*
X87305Y180858D01*
X87315Y180774D01*
X87328Y180690D01*
X87346Y180607D01*
X87367Y180525D01*
X87392Y180444D01*
X87421Y180364D01*
X87453Y180286D01*
X87489Y180210D01*
X87529Y180135D01*
X87572Y180062D01*
X87618Y179991D01*
X87667Y179922D01*
X87720Y179855D01*
X87776Y179791D01*
X87834Y179730D01*
X87895Y179672D01*
X87959Y179616D01*
X88026Y179563D01*
X88095Y179514D01*
X88166Y179468D01*
X88239Y179425D01*
X88314Y179385D01*
X88390Y179349D01*
X88468Y179317D01*
X88548Y179288D01*
X88629Y179263D01*
X88711Y179242D01*
X88794Y179224D01*
X88878Y179211D01*
X88962Y179201D01*
X89046Y179195D01*
X89131Y179193D01*
X90966Y179193D01*
X88764Y179193D02*
X87297Y176258D01*
X83729Y176258D02*
X81895Y176258D01*
X81810Y176260D01*
X81726Y176266D01*
X81642Y176276D01*
X81558Y176289D01*
X81475Y176307D01*
X81393Y176328D01*
X81312Y176353D01*
X81232Y176382D01*
X81154Y176414D01*
X81078Y176450D01*
X81003Y176490D01*
X80930Y176533D01*
X80859Y176579D01*
X80790Y176628D01*
X80723Y176681D01*
X80659Y176737D01*
X80598Y176795D01*
X80540Y176856D01*
X80484Y176920D01*
X80431Y176987D01*
X80382Y177056D01*
X80336Y177127D01*
X80293Y177200D01*
X80253Y177275D01*
X80217Y177351D01*
X80185Y177429D01*
X80156Y177509D01*
X80131Y177590D01*
X80110Y177672D01*
X80092Y177755D01*
X80079Y177839D01*
X80069Y177923D01*
X80063Y178007D01*
X80061Y178092D01*
X80063Y178177D01*
X80069Y178261D01*
X80079Y178345D01*
X80092Y178429D01*
X80110Y178512D01*
X80131Y178594D01*
X80156Y178675D01*
X80185Y178755D01*
X80217Y178833D01*
X80253Y178909D01*
X80293Y178984D01*
X80336Y179057D01*
X80382Y179128D01*
X80431Y179197D01*
X80484Y179264D01*
X80540Y179328D01*
X80598Y179389D01*
X80659Y179447D01*
X80723Y179503D01*
X80790Y179556D01*
X80859Y179605D01*
X80930Y179651D01*
X81003Y179694D01*
X81078Y179734D01*
X81154Y179770D01*
X81232Y179802D01*
X81312Y179831D01*
X81393Y179856D01*
X81475Y179877D01*
X81558Y179895D01*
X81642Y179908D01*
X81726Y179918D01*
X81810Y179924D01*
X81895Y179926D01*
X81528Y182862D02*
X83729Y182862D01*
X81528Y182862D02*
X81452Y182860D01*
X81377Y182854D01*
X81302Y182845D01*
X81228Y182831D01*
X81154Y182814D01*
X81082Y182792D01*
X81010Y182768D01*
X80940Y182739D01*
X80872Y182707D01*
X80805Y182672D01*
X80740Y182633D01*
X80677Y182590D01*
X80617Y182545D01*
X80559Y182497D01*
X80503Y182445D01*
X80451Y182391D01*
X80401Y182334D01*
X80354Y182275D01*
X80310Y182214D01*
X80269Y182150D01*
X80232Y182084D01*
X80198Y182016D01*
X80168Y181947D01*
X80141Y181876D01*
X80118Y181804D01*
X80099Y181731D01*
X80084Y181657D01*
X80072Y181582D01*
X80064Y181507D01*
X80060Y181432D01*
X80060Y181356D01*
X80064Y181281D01*
X80072Y181206D01*
X80084Y181131D01*
X80099Y181057D01*
X80118Y180984D01*
X80141Y180912D01*
X80168Y180841D01*
X80198Y180772D01*
X80232Y180704D01*
X80269Y180638D01*
X80310Y180574D01*
X80354Y180513D01*
X80401Y180454D01*
X80451Y180397D01*
X80503Y180343D01*
X80559Y180291D01*
X80617Y180243D01*
X80677Y180198D01*
X80740Y180155D01*
X80805Y180116D01*
X80872Y180081D01*
X80940Y180049D01*
X81010Y180020D01*
X81082Y179996D01*
X81154Y179974D01*
X81228Y179957D01*
X81302Y179943D01*
X81377Y179934D01*
X81452Y179928D01*
X81528Y179926D01*
X81528Y179927D02*
X82995Y179927D01*
X76414Y177725D02*
X74947Y182862D01*
X76414Y177725D02*
X72745Y177725D01*
X73846Y176258D02*
X73846Y179193D01*
D10*
X219790Y127755D02*
X227410Y127755D01*
X227410Y140955D02*
X220040Y140955D01*
D13*
X216429Y134344D03*
X230907Y134344D03*
D12*
X228209Y146092D02*
X228209Y152696D01*
X226374Y152696D01*
X226374Y152695D02*
X226289Y152693D01*
X226205Y152687D01*
X226121Y152677D01*
X226037Y152664D01*
X225954Y152646D01*
X225872Y152625D01*
X225791Y152600D01*
X225711Y152571D01*
X225633Y152539D01*
X225557Y152503D01*
X225482Y152463D01*
X225409Y152420D01*
X225338Y152374D01*
X225269Y152325D01*
X225202Y152272D01*
X225138Y152216D01*
X225077Y152158D01*
X225019Y152097D01*
X224963Y152033D01*
X224910Y151966D01*
X224861Y151897D01*
X224815Y151826D01*
X224772Y151753D01*
X224732Y151678D01*
X224696Y151602D01*
X224664Y151524D01*
X224635Y151444D01*
X224610Y151363D01*
X224589Y151281D01*
X224571Y151198D01*
X224558Y151114D01*
X224548Y151030D01*
X224542Y150946D01*
X224540Y150861D01*
X224542Y150776D01*
X224548Y150692D01*
X224558Y150608D01*
X224571Y150524D01*
X224589Y150441D01*
X224610Y150359D01*
X224635Y150278D01*
X224664Y150198D01*
X224696Y150120D01*
X224732Y150044D01*
X224772Y149969D01*
X224815Y149896D01*
X224861Y149825D01*
X224910Y149756D01*
X224963Y149689D01*
X225019Y149625D01*
X225077Y149564D01*
X225138Y149506D01*
X225202Y149450D01*
X225269Y149397D01*
X225338Y149348D01*
X225409Y149302D01*
X225482Y149259D01*
X225557Y149219D01*
X225633Y149183D01*
X225711Y149151D01*
X225791Y149122D01*
X225872Y149097D01*
X225954Y149076D01*
X226037Y149058D01*
X226121Y149045D01*
X226205Y149035D01*
X226289Y149029D01*
X226374Y149027D01*
X228209Y149027D01*
X226007Y149027D02*
X224540Y146092D01*
X220972Y146092D02*
X218771Y146092D01*
X218771Y146091D02*
X218697Y146093D01*
X218622Y146099D01*
X218549Y146108D01*
X218475Y146121D01*
X218403Y146138D01*
X218332Y146158D01*
X218261Y146182D01*
X218192Y146210D01*
X218125Y146241D01*
X218059Y146275D01*
X217994Y146313D01*
X217932Y146354D01*
X217872Y146398D01*
X217815Y146445D01*
X217760Y146495D01*
X217707Y146548D01*
X217657Y146603D01*
X217610Y146660D01*
X217566Y146720D01*
X217525Y146782D01*
X217487Y146847D01*
X217453Y146912D01*
X217422Y146980D01*
X217394Y147049D01*
X217370Y147120D01*
X217350Y147191D01*
X217333Y147263D01*
X217320Y147337D01*
X217311Y147410D01*
X217305Y147485D01*
X217303Y147559D01*
X217303Y148293D01*
X217305Y148367D01*
X217311Y148442D01*
X217320Y148515D01*
X217333Y148589D01*
X217350Y148661D01*
X217370Y148732D01*
X217394Y148803D01*
X217422Y148872D01*
X217453Y148939D01*
X217487Y149005D01*
X217525Y149070D01*
X217566Y149132D01*
X217610Y149192D01*
X217657Y149249D01*
X217707Y149304D01*
X217760Y149357D01*
X217815Y149407D01*
X217872Y149454D01*
X217932Y149498D01*
X217994Y149539D01*
X218059Y149577D01*
X218125Y149611D01*
X218192Y149642D01*
X218261Y149670D01*
X218332Y149694D01*
X218403Y149714D01*
X218475Y149731D01*
X218549Y149744D01*
X218622Y149753D01*
X218697Y149759D01*
X218771Y149761D01*
X220972Y149761D01*
X220972Y152696D01*
X217303Y152696D01*
D10*
X27478Y141974D02*
X27478Y134354D01*
X40678Y134354D02*
X40678Y141724D01*
D11*
X34066Y145336D03*
X34066Y130858D03*
D12*
X22516Y132994D02*
X15912Y132994D01*
X22516Y132994D02*
X22516Y134828D01*
X22514Y134913D01*
X22508Y134997D01*
X22498Y135081D01*
X22485Y135165D01*
X22467Y135248D01*
X22446Y135330D01*
X22421Y135411D01*
X22392Y135491D01*
X22360Y135569D01*
X22324Y135645D01*
X22284Y135720D01*
X22241Y135793D01*
X22195Y135864D01*
X22146Y135933D01*
X22093Y136000D01*
X22037Y136064D01*
X21979Y136125D01*
X21918Y136183D01*
X21854Y136239D01*
X21787Y136292D01*
X21718Y136341D01*
X21647Y136387D01*
X21574Y136430D01*
X21499Y136470D01*
X21423Y136506D01*
X21345Y136538D01*
X21265Y136567D01*
X21184Y136592D01*
X21102Y136613D01*
X21019Y136631D01*
X20935Y136644D01*
X20851Y136654D01*
X20767Y136660D01*
X20682Y136662D01*
X20597Y136660D01*
X20513Y136654D01*
X20429Y136644D01*
X20345Y136631D01*
X20262Y136613D01*
X20180Y136592D01*
X20099Y136567D01*
X20019Y136538D01*
X19941Y136506D01*
X19865Y136470D01*
X19790Y136430D01*
X19717Y136387D01*
X19646Y136341D01*
X19577Y136292D01*
X19510Y136239D01*
X19446Y136183D01*
X19385Y136125D01*
X19327Y136064D01*
X19271Y136000D01*
X19218Y135933D01*
X19169Y135864D01*
X19123Y135793D01*
X19080Y135720D01*
X19040Y135645D01*
X19004Y135569D01*
X18972Y135491D01*
X18943Y135411D01*
X18918Y135330D01*
X18897Y135248D01*
X18879Y135165D01*
X18866Y135081D01*
X18856Y134997D01*
X18850Y134913D01*
X18848Y134828D01*
X18847Y134828D02*
X18847Y132994D01*
X18847Y135195D02*
X15912Y136663D01*
X17746Y140231D02*
X17831Y140233D01*
X17915Y140239D01*
X17999Y140249D01*
X18083Y140262D01*
X18166Y140280D01*
X18248Y140301D01*
X18329Y140326D01*
X18409Y140355D01*
X18487Y140387D01*
X18563Y140423D01*
X18638Y140463D01*
X18711Y140506D01*
X18782Y140552D01*
X18851Y140601D01*
X18918Y140654D01*
X18982Y140710D01*
X19043Y140768D01*
X19101Y140829D01*
X19157Y140893D01*
X19210Y140960D01*
X19259Y141029D01*
X19305Y141100D01*
X19348Y141173D01*
X19388Y141248D01*
X19424Y141324D01*
X19456Y141402D01*
X19485Y141482D01*
X19510Y141563D01*
X19531Y141645D01*
X19549Y141728D01*
X19562Y141812D01*
X19572Y141896D01*
X19578Y141980D01*
X19580Y142065D01*
X19578Y142150D01*
X19572Y142234D01*
X19562Y142318D01*
X19549Y142402D01*
X19531Y142485D01*
X19510Y142567D01*
X19485Y142648D01*
X19456Y142728D01*
X19424Y142806D01*
X19388Y142882D01*
X19348Y142957D01*
X19305Y143030D01*
X19259Y143101D01*
X19210Y143170D01*
X19157Y143237D01*
X19101Y143301D01*
X19043Y143362D01*
X18982Y143420D01*
X18918Y143476D01*
X18851Y143529D01*
X18782Y143578D01*
X18711Y143624D01*
X18638Y143667D01*
X18563Y143707D01*
X18487Y143743D01*
X18409Y143775D01*
X18329Y143804D01*
X18248Y143829D01*
X18166Y143850D01*
X18083Y143868D01*
X17999Y143881D01*
X17915Y143891D01*
X17831Y143897D01*
X17746Y143899D01*
X17661Y143897D01*
X17577Y143891D01*
X17493Y143881D01*
X17409Y143868D01*
X17326Y143850D01*
X17244Y143829D01*
X17163Y143804D01*
X17083Y143775D01*
X17005Y143743D01*
X16929Y143707D01*
X16854Y143667D01*
X16781Y143624D01*
X16710Y143578D01*
X16641Y143529D01*
X16574Y143476D01*
X16510Y143420D01*
X16449Y143362D01*
X16391Y143301D01*
X16335Y143237D01*
X16282Y143170D01*
X16233Y143101D01*
X16187Y143030D01*
X16144Y142957D01*
X16104Y142882D01*
X16068Y142806D01*
X16036Y142728D01*
X16007Y142648D01*
X15982Y142567D01*
X15961Y142485D01*
X15943Y142402D01*
X15930Y142318D01*
X15920Y142234D01*
X15914Y142150D01*
X15912Y142065D01*
X15914Y141980D01*
X15920Y141896D01*
X15930Y141812D01*
X15943Y141728D01*
X15961Y141645D01*
X15982Y141563D01*
X16007Y141482D01*
X16036Y141402D01*
X16068Y141324D01*
X16104Y141248D01*
X16144Y141173D01*
X16187Y141100D01*
X16233Y141029D01*
X16282Y140960D01*
X16335Y140893D01*
X16391Y140829D01*
X16449Y140768D01*
X16510Y140710D01*
X16574Y140654D01*
X16641Y140601D01*
X16710Y140552D01*
X16781Y140506D01*
X16854Y140463D01*
X16929Y140423D01*
X17005Y140387D01*
X17083Y140355D01*
X17163Y140326D01*
X17244Y140301D01*
X17326Y140280D01*
X17409Y140262D01*
X17493Y140249D01*
X17577Y140239D01*
X17661Y140233D01*
X17746Y140231D01*
X21048Y140597D02*
X21124Y140599D01*
X21199Y140605D01*
X21274Y140614D01*
X21348Y140628D01*
X21422Y140645D01*
X21494Y140667D01*
X21566Y140691D01*
X21636Y140720D01*
X21704Y140752D01*
X21771Y140787D01*
X21836Y140826D01*
X21899Y140869D01*
X21959Y140914D01*
X22017Y140962D01*
X22073Y141014D01*
X22125Y141068D01*
X22175Y141125D01*
X22222Y141184D01*
X22266Y141245D01*
X22307Y141309D01*
X22344Y141375D01*
X22378Y141443D01*
X22408Y141512D01*
X22435Y141583D01*
X22458Y141655D01*
X22477Y141728D01*
X22492Y141802D01*
X22504Y141877D01*
X22512Y141952D01*
X22516Y142027D01*
X22516Y142103D01*
X22512Y142178D01*
X22504Y142253D01*
X22492Y142328D01*
X22477Y142402D01*
X22458Y142475D01*
X22435Y142547D01*
X22408Y142618D01*
X22378Y142687D01*
X22344Y142755D01*
X22307Y142821D01*
X22266Y142885D01*
X22222Y142946D01*
X22175Y143005D01*
X22125Y143062D01*
X22073Y143116D01*
X22017Y143168D01*
X21959Y143216D01*
X21899Y143261D01*
X21836Y143304D01*
X21771Y143343D01*
X21704Y143378D01*
X21636Y143410D01*
X21566Y143439D01*
X21494Y143463D01*
X21422Y143485D01*
X21348Y143502D01*
X21274Y143516D01*
X21199Y143525D01*
X21124Y143531D01*
X21048Y143533D01*
X20972Y143531D01*
X20897Y143525D01*
X20822Y143516D01*
X20748Y143502D01*
X20674Y143485D01*
X20602Y143463D01*
X20530Y143439D01*
X20460Y143410D01*
X20392Y143378D01*
X20325Y143343D01*
X20260Y143304D01*
X20197Y143261D01*
X20137Y143216D01*
X20079Y143168D01*
X20023Y143116D01*
X19971Y143062D01*
X19921Y143005D01*
X19874Y142946D01*
X19830Y142885D01*
X19789Y142821D01*
X19752Y142755D01*
X19718Y142687D01*
X19688Y142618D01*
X19661Y142547D01*
X19638Y142475D01*
X19619Y142402D01*
X19604Y142328D01*
X19592Y142253D01*
X19584Y142178D01*
X19580Y142103D01*
X19580Y142027D01*
X19584Y141952D01*
X19592Y141877D01*
X19604Y141802D01*
X19619Y141728D01*
X19638Y141655D01*
X19661Y141583D01*
X19688Y141512D01*
X19718Y141443D01*
X19752Y141375D01*
X19789Y141309D01*
X19830Y141245D01*
X19874Y141184D01*
X19921Y141125D01*
X19971Y141068D01*
X20023Y141014D01*
X20079Y140962D01*
X20137Y140914D01*
X20197Y140869D01*
X20260Y140826D01*
X20325Y140787D01*
X20392Y140752D01*
X20460Y140720D01*
X20530Y140691D01*
X20602Y140667D01*
X20674Y140645D01*
X20748Y140628D01*
X20822Y140614D01*
X20897Y140605D01*
X20972Y140599D01*
X21048Y140597D01*
D10*
X31701Y193199D02*
X39321Y193199D01*
X39071Y179999D02*
X31701Y179999D01*
D13*
X42682Y186610D03*
X28204Y186610D03*
D12*
X45905Y174004D02*
X45905Y167400D01*
X45905Y174004D02*
X44070Y174004D01*
X43985Y174002D01*
X43901Y173996D01*
X43817Y173986D01*
X43733Y173973D01*
X43650Y173955D01*
X43568Y173934D01*
X43487Y173909D01*
X43407Y173880D01*
X43329Y173848D01*
X43253Y173812D01*
X43178Y173772D01*
X43105Y173729D01*
X43034Y173683D01*
X42965Y173634D01*
X42898Y173581D01*
X42834Y173525D01*
X42773Y173467D01*
X42715Y173406D01*
X42659Y173342D01*
X42606Y173275D01*
X42557Y173206D01*
X42511Y173135D01*
X42468Y173062D01*
X42428Y172987D01*
X42392Y172911D01*
X42360Y172833D01*
X42331Y172753D01*
X42306Y172672D01*
X42285Y172590D01*
X42267Y172507D01*
X42254Y172423D01*
X42244Y172339D01*
X42238Y172255D01*
X42236Y172170D01*
X42238Y172085D01*
X42244Y172001D01*
X42254Y171917D01*
X42267Y171833D01*
X42285Y171750D01*
X42306Y171668D01*
X42331Y171587D01*
X42360Y171507D01*
X42392Y171429D01*
X42428Y171353D01*
X42468Y171278D01*
X42511Y171205D01*
X42557Y171134D01*
X42606Y171065D01*
X42659Y170998D01*
X42715Y170934D01*
X42773Y170873D01*
X42834Y170815D01*
X42898Y170759D01*
X42965Y170706D01*
X43034Y170657D01*
X43105Y170611D01*
X43178Y170568D01*
X43253Y170528D01*
X43329Y170492D01*
X43407Y170460D01*
X43487Y170431D01*
X43568Y170406D01*
X43650Y170385D01*
X43733Y170367D01*
X43817Y170354D01*
X43901Y170344D01*
X43985Y170338D01*
X44070Y170336D01*
X44070Y170335D02*
X45905Y170335D01*
X43703Y170335D02*
X42236Y167400D01*
X37201Y170335D02*
X34999Y170335D01*
X37201Y170335D02*
X37275Y170337D01*
X37350Y170343D01*
X37423Y170352D01*
X37497Y170365D01*
X37569Y170382D01*
X37640Y170402D01*
X37711Y170426D01*
X37780Y170454D01*
X37848Y170485D01*
X37913Y170519D01*
X37978Y170557D01*
X38040Y170598D01*
X38100Y170642D01*
X38157Y170689D01*
X38212Y170739D01*
X38265Y170792D01*
X38315Y170847D01*
X38362Y170904D01*
X38406Y170964D01*
X38447Y171026D01*
X38485Y171091D01*
X38519Y171157D01*
X38550Y171224D01*
X38578Y171293D01*
X38602Y171364D01*
X38622Y171435D01*
X38639Y171508D01*
X38652Y171581D01*
X38661Y171655D01*
X38667Y171729D01*
X38669Y171803D01*
X38668Y171803D02*
X38668Y172170D01*
X38666Y172255D01*
X38660Y172339D01*
X38650Y172423D01*
X38637Y172507D01*
X38619Y172590D01*
X38598Y172672D01*
X38573Y172753D01*
X38544Y172833D01*
X38512Y172911D01*
X38476Y172987D01*
X38436Y173062D01*
X38393Y173135D01*
X38347Y173206D01*
X38298Y173275D01*
X38245Y173342D01*
X38189Y173406D01*
X38131Y173467D01*
X38070Y173525D01*
X38006Y173581D01*
X37939Y173634D01*
X37870Y173683D01*
X37799Y173729D01*
X37726Y173772D01*
X37651Y173812D01*
X37575Y173848D01*
X37497Y173880D01*
X37417Y173909D01*
X37336Y173934D01*
X37254Y173955D01*
X37171Y173973D01*
X37087Y173986D01*
X37003Y173996D01*
X36919Y174002D01*
X36834Y174004D01*
X36749Y174002D01*
X36665Y173996D01*
X36581Y173986D01*
X36497Y173973D01*
X36414Y173955D01*
X36332Y173934D01*
X36251Y173909D01*
X36171Y173880D01*
X36093Y173848D01*
X36017Y173812D01*
X35942Y173772D01*
X35869Y173729D01*
X35798Y173683D01*
X35729Y173634D01*
X35662Y173581D01*
X35598Y173525D01*
X35537Y173467D01*
X35479Y173406D01*
X35423Y173342D01*
X35370Y173275D01*
X35321Y173206D01*
X35275Y173135D01*
X35232Y173062D01*
X35192Y172987D01*
X35156Y172911D01*
X35124Y172833D01*
X35095Y172753D01*
X35070Y172672D01*
X35049Y172590D01*
X35031Y172507D01*
X35018Y172423D01*
X35008Y172339D01*
X35002Y172255D01*
X35000Y172170D01*
X34999Y172170D02*
X34999Y170335D01*
X35000Y170335D02*
X35002Y170228D01*
X35008Y170121D01*
X35018Y170014D01*
X35031Y169908D01*
X35049Y169802D01*
X35070Y169697D01*
X35095Y169593D01*
X35124Y169489D01*
X35157Y169387D01*
X35194Y169287D01*
X35234Y169187D01*
X35278Y169089D01*
X35325Y168993D01*
X35376Y168899D01*
X35430Y168806D01*
X35487Y168716D01*
X35548Y168627D01*
X35612Y168541D01*
X35679Y168458D01*
X35749Y168376D01*
X35822Y168298D01*
X35898Y168222D01*
X35976Y168149D01*
X36058Y168079D01*
X36141Y168012D01*
X36227Y167948D01*
X36316Y167887D01*
X36406Y167830D01*
X36499Y167776D01*
X36593Y167725D01*
X36689Y167678D01*
X36787Y167634D01*
X36887Y167594D01*
X36987Y167557D01*
X37089Y167524D01*
X37193Y167495D01*
X37297Y167470D01*
X37402Y167449D01*
X37508Y167431D01*
X37614Y167418D01*
X37721Y167408D01*
X37828Y167402D01*
X37935Y167400D01*
X388050Y141302D02*
X388050Y138000D01*
X388050Y141302D02*
X397829Y141302D01*
X397829Y138000D01*
X388050Y138000D01*
X388050Y136302D02*
X388050Y133000D01*
X388050Y136302D02*
X397829Y136302D01*
X397829Y133000D01*
X388050Y133000D01*
X388050Y131302D02*
X388050Y128000D01*
X388050Y131302D02*
X397829Y131302D01*
X397829Y128000D01*
X388050Y128000D01*
X388050Y126302D02*
X388050Y123000D01*
X388050Y126302D02*
X397829Y126302D01*
X397829Y123000D01*
X388050Y123000D01*
X388050Y121302D02*
X388050Y118000D01*
X388050Y121302D02*
X397829Y121302D01*
X397829Y118000D01*
X388050Y118000D01*
X357062Y118000D02*
X357062Y121302D01*
X357062Y118000D02*
X347283Y118000D01*
X347283Y121302D01*
X357062Y121302D01*
X357062Y123000D02*
X357062Y126302D01*
X357062Y123000D02*
X347283Y123000D01*
X347283Y126302D01*
X357062Y126302D01*
X357062Y128000D02*
X357062Y131302D01*
X357062Y128000D02*
X347283Y128000D01*
X347283Y131302D01*
X357062Y131302D01*
X357062Y133000D02*
X357062Y136302D01*
X357062Y133000D02*
X347283Y133000D01*
X347283Y136302D01*
X357062Y136302D01*
X357062Y138000D02*
X357062Y141302D01*
X357062Y138000D02*
X347283Y138000D01*
X347283Y141302D01*
X357062Y141302D01*
X357062Y114157D02*
X388050Y114157D01*
X357062Y114157D02*
X357062Y145145D01*
X388050Y145145D01*
X388050Y114157D01*
X375604Y145145D02*
X375602Y145036D01*
X375596Y144928D01*
X375587Y144819D01*
X375573Y144711D01*
X375556Y144604D01*
X375534Y144497D01*
X375509Y144391D01*
X375481Y144286D01*
X375448Y144182D01*
X375412Y144080D01*
X375372Y143979D01*
X375329Y143879D01*
X375282Y143781D01*
X375231Y143684D01*
X375177Y143590D01*
X375120Y143497D01*
X375060Y143407D01*
X374996Y143318D01*
X374929Y143232D01*
X374860Y143149D01*
X374787Y143068D01*
X374711Y142990D01*
X374633Y142914D01*
X374552Y142841D01*
X374469Y142772D01*
X374383Y142705D01*
X374294Y142641D01*
X374204Y142581D01*
X374111Y142524D01*
X374017Y142470D01*
X373920Y142419D01*
X373822Y142372D01*
X373722Y142329D01*
X373621Y142289D01*
X373519Y142253D01*
X373415Y142220D01*
X373310Y142192D01*
X373204Y142167D01*
X373097Y142145D01*
X372990Y142128D01*
X372882Y142114D01*
X372773Y142105D01*
X372665Y142099D01*
X372556Y142097D01*
X372447Y142099D01*
X372339Y142105D01*
X372230Y142114D01*
X372122Y142128D01*
X372015Y142145D01*
X371908Y142167D01*
X371802Y142192D01*
X371697Y142220D01*
X371593Y142253D01*
X371491Y142289D01*
X371390Y142329D01*
X371290Y142372D01*
X371192Y142419D01*
X371095Y142470D01*
X371001Y142524D01*
X370908Y142581D01*
X370818Y142641D01*
X370729Y142705D01*
X370643Y142772D01*
X370560Y142841D01*
X370479Y142914D01*
X370401Y142990D01*
X370325Y143068D01*
X370252Y143149D01*
X370183Y143232D01*
X370116Y143318D01*
X370052Y143407D01*
X369992Y143497D01*
X369935Y143590D01*
X369881Y143684D01*
X369830Y143781D01*
X369783Y143879D01*
X369740Y143979D01*
X369700Y144080D01*
X369664Y144182D01*
X369631Y144286D01*
X369603Y144391D01*
X369578Y144497D01*
X369556Y144604D01*
X369539Y144711D01*
X369525Y144819D01*
X369516Y144928D01*
X369510Y145036D01*
X369508Y145145D01*
X355792Y112887D02*
X389320Y112887D01*
X389320Y146415D02*
X355792Y146415D01*
D14*
X869318Y267216D02*
X869318Y279916D01*
X60198Y301028D02*
X60198Y313728D01*
X899408Y75682D02*
X912108Y75682D01*
X118250Y16818D02*
X105550Y16818D01*
M02*
