G04 EAGLE Gerber RS-274X export*
G75*
%MOMM*%
%FSLAX34Y34*%
%LPD*%
%INSolderpaste Top*%
%IPPOS*%
%AMOC8*
5,1,8,0,0,1.08239X$1,22.5*%
G01*
G04 Define Apertures*
%ADD10R,1.500000X1.300000*%
%ADD11R,2.800000X1.600000*%
%ADD12R,1.300000X1.500000*%
%ADD13R,1.600000X2.800000*%
%ADD14R,2.540000X2.540000*%
%ADD15R,1.200000X0.700000*%
%ADD16R,0.800000X1.400000*%
%ADD17R,1.800000X2.200000*%
%ADD18R,2.200000X0.600000*%
%ADD19R,1.400000X1.000000*%
%ADD20R,1.066800X0.228600*%
D10*
X508700Y613200D03*
X508700Y596200D03*
D11*
X430351Y534211D03*
X473351Y534211D03*
D12*
X661200Y536200D03*
X678200Y536200D03*
D10*
X609200Y598700D03*
X609200Y615700D03*
D13*
X559700Y582840D03*
X559700Y625840D03*
D12*
X310833Y436578D03*
X327833Y436578D03*
X310833Y410334D03*
X327833Y410334D03*
D10*
X120801Y323533D03*
X120801Y340533D03*
D12*
X182900Y155700D03*
X199900Y155700D03*
D13*
X202900Y356900D03*
X202900Y399900D03*
D10*
X814688Y103757D03*
X814688Y120757D03*
D11*
X702160Y489400D03*
X659160Y489400D03*
D13*
X264900Y459300D03*
X264900Y502300D03*
D10*
X424278Y618189D03*
X424278Y601189D03*
D14*
X360195Y483400D03*
X313205Y483400D03*
D15*
X136000Y282200D03*
X173000Y282200D03*
X110000Y169700D03*
X147000Y169700D03*
D16*
X467300Y617860D03*
X452300Y617860D03*
X482300Y617860D03*
D17*
X467300Y587060D03*
D16*
X653200Y589640D03*
X668200Y589640D03*
X638200Y589640D03*
D17*
X653200Y620440D03*
D18*
X614800Y414050D03*
X562800Y414050D03*
X614800Y401350D03*
X614800Y426750D03*
X614800Y439450D03*
X562800Y401350D03*
X562800Y426750D03*
X562800Y439450D03*
X707300Y414950D03*
X655300Y414950D03*
X707300Y402250D03*
X707300Y427650D03*
X707300Y440350D03*
X655300Y402250D03*
X655300Y427650D03*
X655300Y440350D03*
D19*
X132800Y244500D03*
X154800Y254000D03*
X154800Y235000D03*
X132800Y203100D03*
X154800Y212600D03*
X154800Y193600D03*
D12*
X169900Y328500D03*
X152900Y328500D03*
D10*
X103699Y378678D03*
X103699Y395678D03*
X136056Y394011D03*
X136056Y377011D03*
D12*
X228655Y241412D03*
X211655Y241412D03*
X226810Y283546D03*
X209810Y283546D03*
X204800Y215267D03*
X187800Y215267D03*
X214590Y186345D03*
X197590Y186345D03*
X137556Y145723D03*
X120556Y145723D03*
X201300Y123500D03*
X184300Y123500D03*
X120322Y114633D03*
X137322Y114633D03*
D10*
X393289Y618200D03*
X393289Y601200D03*
X395200Y556000D03*
X395200Y573000D03*
D20*
X846737Y137600D03*
X846737Y132600D03*
X846737Y127600D03*
X846737Y122600D03*
X846737Y117600D03*
X889663Y117600D03*
X889663Y122600D03*
X889663Y127600D03*
X889663Y132600D03*
X889663Y137600D03*
M02*
