G04 EAGLE Gerber RS-274X export*
G75*
%MOMM*%
%FSLAX34Y34*%
%LPD*%
%INSolderpaste Bottom*%
%IPPOS*%
%AMOC8*
5,1,8,0,0,1.08239X$1,22.5*%
G01*
G04 Define Apertures*
%ADD10R,1.500000X1.300000*%
%ADD11R,1.300000X1.500000*%
%ADD12R,0.700000X1.200000*%
%ADD13R,2.200000X0.600000*%
%ADD14R,0.600000X2.200000*%
%ADD15R,1.066800X0.228600*%
D10*
X805300Y551300D03*
X805300Y534300D03*
D11*
X47600Y215743D03*
X30600Y215743D03*
D10*
X408200Y475900D03*
X408200Y492900D03*
D11*
X486800Y446800D03*
X503800Y446800D03*
X405200Y429300D03*
X422200Y429300D03*
X212100Y170155D03*
X195100Y170155D03*
D10*
X193200Y292000D03*
X193200Y309000D03*
D11*
X72100Y251288D03*
X89100Y251288D03*
X384045Y178718D03*
X367045Y178718D03*
D10*
X184700Y115055D03*
X184700Y132055D03*
D11*
X706200Y467200D03*
X689200Y467200D03*
D10*
X77211Y144033D03*
X77211Y161033D03*
D11*
X123300Y282255D03*
X140300Y282255D03*
D12*
X530300Y545000D03*
X530300Y508000D03*
X530300Y486000D03*
X530300Y449000D03*
X556645Y508000D03*
X556645Y545000D03*
X556556Y447267D03*
X556556Y484267D03*
D13*
X657700Y515850D03*
X709700Y515850D03*
X657700Y503150D03*
X657700Y528550D03*
X657700Y541250D03*
X709700Y503150D03*
X709700Y528550D03*
X709700Y541250D03*
X441340Y385750D03*
X389340Y385750D03*
X441340Y398450D03*
X441340Y373050D03*
X441340Y360350D03*
X389340Y398450D03*
X389340Y373050D03*
X389340Y360350D03*
D14*
X122650Y180255D03*
X122650Y128255D03*
X109950Y180255D03*
X135350Y180255D03*
X148050Y180255D03*
X109950Y128255D03*
X135350Y128255D03*
X148050Y128255D03*
D10*
X806400Y504200D03*
X806400Y487200D03*
D11*
X33660Y252609D03*
X16660Y252609D03*
D10*
X498600Y475300D03*
X498600Y492300D03*
X441400Y493000D03*
X441400Y476000D03*
X471400Y493800D03*
X471400Y476800D03*
X481400Y162100D03*
X481400Y145100D03*
X481400Y215400D03*
X481400Y198400D03*
X478600Y241300D03*
X478600Y258300D03*
X488500Y400900D03*
X488500Y383900D03*
X513500Y401700D03*
X513500Y384700D03*
X238600Y170455D03*
X238600Y187455D03*
X713500Y427500D03*
X713500Y410500D03*
X673500Y425800D03*
X673500Y408800D03*
X743500Y426600D03*
X743500Y409600D03*
D11*
X214200Y104355D03*
X231200Y104355D03*
X122900Y251455D03*
X139900Y251455D03*
X122256Y213955D03*
X139256Y213955D03*
D10*
X623900Y546600D03*
X623900Y529600D03*
X82122Y211999D03*
X82122Y194999D03*
D11*
X215100Y134355D03*
X232100Y134355D03*
D10*
X34078Y146664D03*
X34078Y129664D03*
D11*
X44011Y186599D03*
X27011Y186599D03*
D15*
X394019Y139651D03*
X394019Y134651D03*
X394019Y129651D03*
X394019Y124651D03*
X394019Y119651D03*
X351093Y119651D03*
X351093Y124651D03*
X351093Y129651D03*
X351093Y134651D03*
X351093Y139651D03*
M02*
