G04 EAGLE Gerber RS-274X export*
G75*
%MOMM*%
%FSLAX34Y34*%
%LPD*%
%INSoldermask Top*%
%IPPOS*%
%AMOC8*
5,1,8,0,0,1.08239X$1,22.5*%
G01*
G04 Define Apertures*
%ADD10R,1.703200X1.503200*%
%ADD11R,3.003200X1.803200*%
%ADD12R,1.503200X1.703200*%
%ADD13R,1.803200X3.003200*%
%ADD14R,2.743200X2.743200*%
%ADD15R,1.403200X0.903200*%
%ADD16C,4.013200*%
%ADD17R,4.419200X4.419200*%
%ADD18C,2.403200*%
%ADD19R,1.050000X1.575000*%
%ADD20C,1.711200*%
%ADD21R,1.611200X1.611200*%
%ADD22C,1.611200*%
%ADD23P,1.74395X8X202.5*%
%ADD24C,1.611200*%
%ADD25C,1.711200*%
%ADD26R,2.403200X0.803200*%
%ADD27C,2.997200*%
%ADD28C,1.411200*%
%ADD29C,0.526847*%
%ADD30R,1.603200X1.203200*%
%ADD31R,1.270000X0.431800*%
%ADD32C,2.082800*%
%ADD33C,0.959600*%
D10*
X508700Y613200D03*
X508700Y596200D03*
D11*
X430351Y534211D03*
X473351Y534211D03*
D12*
X661200Y536200D03*
X678200Y536200D03*
D10*
X609200Y598700D03*
X609200Y615700D03*
D13*
X559700Y582840D03*
X559700Y625840D03*
D12*
X310833Y436578D03*
X327833Y436578D03*
X310833Y410334D03*
X327833Y410334D03*
D10*
X120801Y323533D03*
X120801Y340533D03*
D12*
X182900Y155700D03*
X199900Y155700D03*
D13*
X202900Y356900D03*
X202900Y399900D03*
D10*
X814688Y103757D03*
X814688Y120757D03*
D11*
X702160Y489400D03*
X659160Y489400D03*
D13*
X264900Y459300D03*
X264900Y502300D03*
D10*
X424278Y618189D03*
X424278Y601189D03*
D14*
X360195Y483400D03*
X313205Y483400D03*
D15*
X136000Y282200D03*
X173000Y282200D03*
X110000Y169700D03*
X147000Y169700D03*
D16*
X272900Y584340D03*
X323700Y616090D03*
D17*
X323700Y546240D03*
D18*
X467300Y581160D02*
X467300Y596160D01*
D19*
X482300Y617935D03*
X452300Y617935D03*
X467300Y617935D03*
D18*
X653200Y611340D02*
X653200Y626340D01*
D19*
X638200Y589565D03*
X668200Y589565D03*
X653200Y589565D03*
D20*
X282440Y293500D02*
X267360Y293500D01*
X267360Y268100D02*
X282440Y268100D01*
X282440Y242700D02*
X267360Y242700D01*
X267360Y217300D02*
X282440Y217300D01*
X282440Y191900D02*
X267360Y191900D01*
X267360Y166500D02*
X282440Y166500D01*
X282440Y141100D02*
X267360Y141100D01*
X267360Y115700D02*
X282440Y115700D01*
X521360Y115700D02*
X536440Y115700D01*
X536440Y141100D02*
X521360Y141100D01*
X521360Y166500D02*
X536440Y166500D01*
X536440Y191900D02*
X521360Y191900D01*
X521360Y217300D02*
X536440Y217300D01*
X536440Y242700D02*
X521360Y242700D01*
X521360Y268100D02*
X536440Y268100D01*
X536440Y293500D02*
X521360Y293500D01*
D21*
X743700Y31280D03*
X667500Y361480D03*
X591300Y56680D03*
D22*
X591300Y31280D02*
X591300Y17200D01*
D23*
X591300Y82080D03*
D24*
X692900Y361480D03*
X718300Y361480D03*
X642100Y361480D03*
X616700Y361480D03*
X591300Y361480D03*
X743700Y361480D03*
X743700Y56680D03*
X743700Y82080D03*
X743700Y107480D03*
X743700Y132880D03*
X743700Y158280D03*
X743700Y183680D03*
X743700Y209080D03*
X743700Y234480D03*
X743700Y259880D03*
X743700Y285280D03*
X743700Y310680D03*
X743700Y336080D03*
X616700Y56680D03*
X591300Y336080D03*
X591300Y310680D03*
X591300Y285280D03*
X591300Y259880D03*
X591300Y234480D03*
X591300Y209080D03*
X591300Y183680D03*
X591300Y158280D03*
X591300Y132880D03*
X591300Y107480D03*
D25*
X616700Y323380D03*
X642100Y323380D03*
X667500Y323380D03*
X692900Y323380D03*
X718300Y323380D03*
X616700Y278930D03*
X642100Y278930D03*
X667500Y278930D03*
X692900Y278930D03*
X718300Y278930D03*
D26*
X614800Y414050D03*
X562800Y414050D03*
X614800Y401350D03*
X614800Y426750D03*
X614800Y439450D03*
X562800Y401350D03*
X562800Y426750D03*
X562800Y439450D03*
X707300Y414950D03*
X655300Y414950D03*
X707300Y402250D03*
X707300Y427650D03*
X707300Y440350D03*
X655300Y402250D03*
X655300Y427650D03*
X655300Y440350D03*
D27*
X748270Y609512D03*
X748270Y546012D03*
X748270Y482512D03*
X913370Y609512D03*
X913370Y546012D03*
X913370Y482512D03*
X49170Y609700D03*
X49170Y546200D03*
X49170Y482700D03*
X214270Y609700D03*
X214270Y546200D03*
X214270Y482700D03*
D28*
X408360Y294200D02*
X420440Y294200D01*
X419040Y272200D02*
X406960Y272200D01*
D29*
X81618Y267832D02*
X81618Y260068D01*
X81618Y267832D02*
X84582Y267832D01*
X84582Y260068D01*
X81618Y260068D01*
X81618Y265073D02*
X84582Y265073D01*
X100618Y267832D02*
X100618Y260068D01*
X100618Y267832D02*
X103582Y267832D01*
X103582Y260068D01*
X100618Y260068D01*
X100618Y265073D02*
X103582Y265073D01*
X94082Y279568D02*
X94082Y287332D01*
X94082Y279568D02*
X91118Y279568D01*
X91118Y287332D01*
X94082Y287332D01*
X94082Y284573D02*
X91118Y284573D01*
D30*
X132800Y244500D03*
X154800Y254000D03*
X154800Y235000D03*
X132800Y203100D03*
X154800Y212600D03*
X154800Y193600D03*
D29*
X98415Y223157D02*
X98415Y230921D01*
X98415Y223157D02*
X95451Y223157D01*
X95451Y230921D01*
X98415Y230921D01*
X98415Y228162D02*
X95451Y228162D01*
X79415Y230921D02*
X79415Y223157D01*
X76451Y223157D01*
X76451Y230921D01*
X79415Y230921D01*
X79415Y228162D02*
X76451Y228162D01*
X85951Y211421D02*
X85951Y203657D01*
X85951Y211421D02*
X88915Y211421D01*
X88915Y203657D01*
X85951Y203657D01*
X85951Y208662D02*
X88915Y208662D01*
D12*
X169900Y328500D03*
X152900Y328500D03*
D10*
X103699Y378678D03*
X103699Y395678D03*
X136056Y394011D03*
X136056Y377011D03*
D12*
X228655Y241412D03*
X211655Y241412D03*
X226810Y283546D03*
X209810Y283546D03*
X204800Y215267D03*
X187800Y215267D03*
X214590Y186345D03*
X197590Y186345D03*
X137556Y145723D03*
X120556Y145723D03*
X201300Y123500D03*
X184300Y123500D03*
X120322Y114633D03*
X137322Y114633D03*
D10*
X393289Y618200D03*
X393289Y601200D03*
X395200Y556000D03*
X395200Y573000D03*
D31*
X846737Y137600D03*
X846737Y132600D03*
X846737Y127600D03*
X846737Y122600D03*
X846737Y117600D03*
X889663Y117600D03*
X889663Y122600D03*
X889663Y127600D03*
X889663Y132600D03*
X889663Y137600D03*
D32*
X884558Y273566D03*
X909958Y273566D03*
X884558Y248166D03*
X909958Y248166D03*
X884558Y222766D03*
X909958Y222766D03*
X884558Y197366D03*
X909958Y197366D03*
X44958Y307378D03*
X19558Y307378D03*
X44958Y332778D03*
X19558Y332778D03*
X44958Y358178D03*
X19558Y358178D03*
X44958Y383578D03*
X19558Y383578D03*
X905758Y60442D03*
X905758Y35042D03*
X880358Y60442D03*
X880358Y35042D03*
X854958Y60442D03*
X854958Y35042D03*
X829558Y60442D03*
X829558Y35042D03*
X111900Y32058D03*
X111900Y57458D03*
X137300Y32058D03*
X137300Y57458D03*
X162700Y32058D03*
X162700Y57458D03*
X188100Y32058D03*
X188100Y57458D03*
D33*
X52500Y150455D03*
X279989Y399246D03*
X135000Y360000D03*
X101330Y308389D03*
X75000Y122955D03*
X690000Y565000D03*
X430000Y632500D03*
X727623Y465123D03*
X264873Y329026D03*
X652500Y560000D03*
X165000Y162955D03*
X109257Y360743D03*
X675000Y565000D03*
X497500Y626646D03*
X417500Y560000D03*
X273844Y422279D03*
X62500Y75000D03*
X469772Y377938D03*
X305575Y172753D03*
X445000Y420000D03*
X898000Y583000D03*
X771000Y520000D03*
X576000Y518000D03*
X544000Y494000D03*
X453000Y516000D03*
X378000Y427000D03*
X609000Y574000D03*
X528000Y582000D03*
X600000Y551646D03*
X395907Y526593D03*
X591879Y520268D03*
X241344Y217756D03*
X530503Y436774D03*
X290000Y378854D03*
X363442Y401757D03*
X621646Y505000D03*
X65046Y275455D03*
X394885Y459500D03*
X362097Y449020D03*
X494910Y300565D03*
X465000Y292966D03*
X710519Y384481D03*
X504739Y306497D03*
X584106Y405960D03*
X775999Y402186D03*
X530000Y570000D03*
X617500Y464489D03*
X415792Y128861D03*
X406629Y54851D03*
X513874Y512368D03*
X345646Y159957D03*
X199782Y263770D03*
X166150Y100676D03*
X225000Y321406D03*
X171641Y243974D03*
X113090Y233286D03*
X170356Y198144D03*
X137500Y232149D03*
X318000Y376000D03*
X78578Y300445D03*
X172500Y377500D03*
X615000Y498354D03*
X430000Y452500D03*
X489413Y421167D03*
X371495Y447642D03*
X660130Y383944D03*
X350400Y403877D03*
X584158Y470343D03*
X567500Y362486D03*
X625000Y27500D03*
X409079Y514577D03*
X513874Y486646D03*
X552500Y48354D03*
X426781Y209846D03*
X405078Y167548D03*
X493274Y268305D03*
X767500Y13942D03*
X417500Y151941D03*
X294704Y95745D03*
X304749Y88633D03*
X380937Y104991D03*
X392405Y96634D03*
X779205Y134784D03*
X617881Y90755D03*
X789061Y144640D03*
M02*
