G04 EAGLE Gerber RS-274X export*
G75*
%MOMM*%
%FSLAX34Y34*%
%LPD*%
%INTop Copper*%
%IPPOS*%
%AMOC8*
5,1,8,0,0,1.08239X$1,22.5*%
G01*
G04 Define Apertures*
%ADD10R,2.540000X2.540000*%
%ADD11R,1.600000X2.800000*%
%ADD12R,1.500000X1.300000*%
%ADD13R,1.450000X0.450000*%
%ADD14R,1.300000X1.500000*%
%ADD15R,1.500000X1.000000*%
%ADD16R,2.000000X1.000000*%
%ADD17C,2.200000*%
%ADD18R,2.800000X1.600000*%
%ADD19R,0.600000X2.200000*%
%ADD20C,1.320800*%
%ADD21R,1.465300X1.164600*%
%ADD22R,2.000000X5.500000*%
%ADD23C,0.304800*%
%ADD24C,0.756400*%
G36*
X294446Y258951D02*
X293851Y258831D01*
X290524Y258831D01*
X289975Y258933D01*
X289464Y259260D01*
X289121Y259760D01*
X289000Y260355D01*
X289000Y298316D01*
X289102Y298865D01*
X289429Y299376D01*
X289930Y299719D01*
X290524Y299840D01*
X320515Y299840D01*
X321064Y299738D01*
X321575Y299411D01*
X321918Y298910D01*
X322039Y298316D01*
X322039Y287018D01*
X321927Y286446D01*
X321592Y285940D01*
X294929Y259277D01*
X294446Y258951D01*
G37*
G36*
X367166Y41484D02*
X366572Y41363D01*
X350279Y41363D01*
X349729Y41466D01*
X349218Y41793D01*
X348875Y42293D01*
X348755Y42887D01*
X348755Y69710D01*
X342968Y75497D01*
X339522Y75497D01*
X338950Y75608D01*
X338445Y75943D01*
X331240Y83148D01*
X330934Y83587D01*
X330794Y84177D01*
X330896Y84775D01*
X331223Y85286D01*
X331723Y85629D01*
X332317Y85750D01*
X355745Y85750D01*
X356638Y86643D01*
X356638Y103905D01*
X355745Y104798D01*
X336532Y104798D01*
X335960Y104909D01*
X335454Y105244D01*
X307533Y133165D01*
X307217Y133626D01*
X307087Y134218D01*
X307198Y134815D01*
X307251Y134894D01*
X308161Y137090D01*
X308161Y139201D01*
X307353Y141151D01*
X305860Y142644D01*
X303910Y143451D01*
X301799Y143451D01*
X299849Y142644D01*
X298356Y141151D01*
X297549Y139201D01*
X297549Y137100D01*
X297455Y136574D01*
X297136Y136058D01*
X296641Y135707D01*
X296049Y135577D01*
X295453Y135688D01*
X294947Y136023D01*
X292849Y138121D01*
X292848Y138121D01*
X291502Y139468D01*
X291055Y139915D01*
X290841Y140235D01*
X289273Y141803D01*
X287323Y142611D01*
X285212Y142611D01*
X284592Y142354D01*
X284058Y142239D01*
X283460Y142341D01*
X282949Y142668D01*
X282606Y143168D01*
X282485Y143762D01*
X282485Y151240D01*
X282597Y151812D01*
X282932Y152318D01*
X294878Y164264D01*
X294878Y175257D01*
X294972Y175784D01*
X295291Y176300D01*
X295785Y176651D01*
X296378Y176781D01*
X296974Y176670D01*
X297480Y176335D01*
X300165Y173650D01*
X300485Y173178D01*
X300611Y172584D01*
X300495Y171989D01*
X299694Y170055D01*
X299694Y167945D01*
X300502Y165994D01*
X301994Y164502D01*
X303945Y163694D01*
X306055Y163694D01*
X308006Y164502D01*
X309498Y165994D01*
X310306Y167945D01*
X310306Y170055D01*
X309498Y172006D01*
X308494Y173009D01*
X308169Y173493D01*
X308048Y174087D01*
X308048Y174388D01*
X295386Y187050D01*
X295060Y187533D01*
X294940Y188127D01*
X294940Y189998D01*
X295051Y190570D01*
X295386Y191075D01*
X301964Y197653D01*
X301964Y217594D01*
X297838Y221720D01*
X297513Y222203D01*
X297392Y222797D01*
X297392Y233208D01*
X296499Y234101D01*
X286136Y234101D01*
X285564Y234212D01*
X285059Y234547D01*
X275896Y243711D01*
X265961Y243711D01*
X265411Y243813D01*
X264900Y244140D01*
X264557Y244640D01*
X264437Y245235D01*
X264437Y247476D01*
X264539Y248025D01*
X264866Y248536D01*
X265366Y248879D01*
X265961Y249000D01*
X288926Y249000D01*
X288986Y249006D01*
X288991Y249008D01*
X289000Y249087D01*
X289000Y251211D01*
X289102Y251760D01*
X289429Y252271D01*
X289930Y252614D01*
X290524Y252735D01*
X297008Y252735D01*
X319437Y275164D01*
X319876Y275470D01*
X320466Y275609D01*
X321064Y275508D01*
X321575Y275181D01*
X321918Y274681D01*
X322039Y274086D01*
X322039Y271209D01*
X322931Y270316D01*
X340194Y270316D01*
X341087Y271209D01*
X341087Y298316D01*
X341189Y298865D01*
X341516Y299376D01*
X342016Y299719D01*
X342611Y299840D01*
X519316Y299840D01*
X519865Y299738D01*
X520376Y299411D01*
X520719Y298910D01*
X520840Y298316D01*
X520840Y280048D01*
X520738Y279499D01*
X520411Y278988D01*
X519910Y278645D01*
X519316Y278524D01*
X492209Y278524D01*
X491316Y277631D01*
X491316Y260369D01*
X492209Y259476D01*
X511422Y259476D01*
X511994Y259365D01*
X512500Y259030D01*
X515822Y255708D01*
X516147Y255225D01*
X516268Y254630D01*
X516268Y236842D01*
X516170Y236304D01*
X515847Y235790D01*
X515350Y235443D01*
X514756Y235318D01*
X514161Y235434D01*
X512055Y236306D01*
X509945Y236306D01*
X507994Y235498D01*
X506502Y234006D01*
X505694Y232055D01*
X505694Y229945D01*
X506502Y227994D01*
X507506Y226991D01*
X507831Y226507D01*
X507952Y225913D01*
X507952Y221564D01*
X507850Y221015D01*
X507523Y220504D01*
X507022Y220161D01*
X506428Y220040D01*
X505262Y220040D01*
X505262Y209238D01*
X503738Y209238D01*
X503738Y220040D01*
X496948Y220040D01*
X496359Y219451D01*
X495899Y219136D01*
X495307Y219005D01*
X495206Y219024D01*
X480369Y219024D01*
X479476Y218131D01*
X479476Y201869D01*
X480369Y200976D01*
X482928Y200976D01*
X483477Y200874D01*
X483988Y200547D01*
X484331Y200046D01*
X484452Y199452D01*
X484452Y198548D01*
X484350Y197999D01*
X484023Y197488D01*
X483522Y197145D01*
X482928Y197024D01*
X478369Y197024D01*
X477476Y196131D01*
X477476Y179869D01*
X478369Y178976D01*
X480928Y178976D01*
X481477Y178874D01*
X481988Y178547D01*
X482331Y178046D01*
X482452Y177452D01*
X482452Y176548D01*
X482350Y175999D01*
X482023Y175488D01*
X481522Y175145D01*
X480928Y175024D01*
X478369Y175024D01*
X477476Y174131D01*
X477476Y170572D01*
X477374Y170023D01*
X477047Y169512D01*
X476546Y169169D01*
X475952Y169048D01*
X468048Y169048D01*
X467499Y169150D01*
X466988Y169477D01*
X466645Y169978D01*
X466524Y170572D01*
X466524Y174131D01*
X465631Y175024D01*
X454300Y175024D01*
X453774Y175118D01*
X453258Y175437D01*
X452907Y175931D01*
X452776Y176524D01*
X452888Y177120D01*
X453223Y177626D01*
X454334Y178737D01*
X454525Y179036D01*
X455026Y179379D01*
X455620Y179500D01*
X465631Y179500D01*
X466524Y180393D01*
X466524Y196655D01*
X465631Y197548D01*
X455203Y197548D01*
X454677Y197642D01*
X454161Y197961D01*
X453810Y198455D01*
X453679Y199048D01*
X453791Y199644D01*
X454126Y200150D01*
X456506Y202530D01*
X456989Y202855D01*
X457583Y202976D01*
X465631Y202976D01*
X466524Y203869D01*
X466524Y220131D01*
X465631Y221024D01*
X451369Y221024D01*
X451078Y220733D01*
X450617Y220417D01*
X450024Y220287D01*
X449428Y220398D01*
X448922Y220733D01*
X448631Y221024D01*
X438918Y221024D01*
X438346Y221135D01*
X437840Y221470D01*
X430752Y228558D01*
X430427Y229041D01*
X430306Y229636D01*
X430306Y231055D01*
X430049Y231675D01*
X429934Y232209D01*
X430036Y232807D01*
X430363Y233318D01*
X430863Y233661D01*
X431457Y233782D01*
X460593Y233782D01*
X466888Y240077D01*
X466888Y257952D01*
X466990Y258501D01*
X467317Y259012D01*
X467818Y259355D01*
X468412Y259476D01*
X478471Y259476D01*
X479364Y260369D01*
X479364Y277631D01*
X478471Y278524D01*
X449209Y278524D01*
X448316Y277631D01*
X448316Y260369D01*
X449209Y259476D01*
X459268Y259476D01*
X459817Y259374D01*
X460328Y259047D01*
X460671Y258546D01*
X460792Y257952D01*
X460792Y243234D01*
X460681Y242662D01*
X460346Y242156D01*
X458514Y240324D01*
X458031Y239999D01*
X457436Y239878D01*
X418908Y239878D01*
X408122Y229092D01*
X408122Y204548D01*
X408020Y203999D01*
X407693Y203488D01*
X407192Y203145D01*
X406598Y203024D01*
X403369Y203024D01*
X403078Y202733D01*
X402617Y202417D01*
X402024Y202287D01*
X401428Y202398D01*
X400922Y202733D01*
X400631Y203024D01*
X395572Y203024D01*
X395023Y203126D01*
X394512Y203453D01*
X394169Y203954D01*
X394048Y204548D01*
X394048Y209939D01*
X394159Y210511D01*
X394494Y211017D01*
X395498Y212020D01*
X396306Y213971D01*
X396306Y216081D01*
X395498Y218032D01*
X394006Y219524D01*
X392055Y220332D01*
X389945Y220332D01*
X387994Y219524D01*
X386502Y218032D01*
X385694Y216081D01*
X385694Y213971D01*
X386502Y212020D01*
X387506Y211017D01*
X387831Y210533D01*
X387952Y209939D01*
X387952Y204548D01*
X387850Y203999D01*
X387523Y203488D01*
X387022Y203145D01*
X386428Y203024D01*
X386369Y203024D01*
X385476Y202131D01*
X385476Y185869D01*
X386369Y184976D01*
X389928Y184976D01*
X390477Y184874D01*
X390988Y184547D01*
X391331Y184046D01*
X391452Y183452D01*
X391452Y171548D01*
X391350Y170999D01*
X391023Y170488D01*
X390522Y170145D01*
X389928Y170024D01*
X387369Y170024D01*
X386476Y169131D01*
X386476Y152869D01*
X387369Y151976D01*
X402171Y151976D01*
X402257Y151995D01*
X402854Y151884D01*
X403359Y151549D01*
X403948Y150960D01*
X410738Y150960D01*
X410738Y171040D01*
X403948Y171040D01*
X403359Y170451D01*
X402899Y170136D01*
X402307Y170005D01*
X402206Y170024D01*
X399072Y170024D01*
X398523Y170126D01*
X398012Y170453D01*
X397669Y170954D01*
X397548Y171548D01*
X397548Y183452D01*
X397650Y184001D01*
X397977Y184512D01*
X398478Y184855D01*
X399072Y184976D01*
X400631Y184976D01*
X400922Y185267D01*
X401383Y185583D01*
X401976Y185713D01*
X402572Y185602D01*
X403078Y185267D01*
X403369Y184976D01*
X417631Y184976D01*
X418524Y185869D01*
X418524Y202131D01*
X417631Y203024D01*
X415742Y203024D01*
X415193Y203126D01*
X414682Y203453D01*
X414339Y203954D01*
X414218Y204548D01*
X414218Y225935D01*
X414329Y226507D01*
X414664Y227013D01*
X417174Y229522D01*
X417624Y229833D01*
X418215Y229968D01*
X418812Y229862D01*
X419320Y229531D01*
X419659Y229028D01*
X420502Y226994D01*
X421994Y225502D01*
X423945Y224694D01*
X425364Y224694D01*
X425936Y224583D01*
X426442Y224248D01*
X433030Y217660D01*
X433355Y217177D01*
X433476Y216582D01*
X433476Y203869D01*
X434369Y202976D01*
X444652Y202976D01*
X445178Y202882D01*
X445694Y202563D01*
X446045Y202069D01*
X446176Y201476D01*
X446064Y200880D01*
X445729Y200374D01*
X443666Y198311D01*
X443475Y198012D01*
X442974Y197669D01*
X442380Y197548D01*
X434369Y197548D01*
X433476Y196655D01*
X433476Y187442D01*
X433365Y186870D01*
X433030Y186364D01*
X431280Y184614D01*
X430797Y184289D01*
X430202Y184168D01*
X425581Y184168D01*
X418000Y176587D01*
X418000Y172564D01*
X417898Y172015D01*
X417571Y171504D01*
X417070Y171161D01*
X416476Y171040D01*
X412262Y171040D01*
X412262Y150960D01*
X416476Y150960D01*
X417025Y150858D01*
X417536Y150531D01*
X417879Y150030D01*
X418000Y149436D01*
X418000Y144564D01*
X417898Y144015D01*
X417571Y143504D01*
X417070Y143161D01*
X416476Y143040D01*
X412262Y143040D01*
X412262Y132238D01*
X410738Y132238D01*
X410738Y143040D01*
X403948Y143040D01*
X403359Y142451D01*
X402899Y142136D01*
X402307Y142005D01*
X402206Y142024D01*
X387369Y142024D01*
X387339Y141994D01*
X386856Y141669D01*
X386261Y141548D01*
X380548Y141548D01*
X379999Y141650D01*
X379488Y141977D01*
X379145Y142478D01*
X379024Y143072D01*
X379024Y145631D01*
X378733Y145922D01*
X378417Y146383D01*
X378287Y146976D01*
X378398Y147572D01*
X378733Y148078D01*
X379024Y148369D01*
X379024Y162631D01*
X378131Y163524D01*
X374572Y163524D01*
X374023Y163626D01*
X373512Y163953D01*
X373169Y164454D01*
X373048Y165048D01*
X373048Y168138D01*
X370738Y170447D01*
X370412Y170931D01*
X370292Y171525D01*
X370292Y251850D01*
X370403Y252422D01*
X370738Y252928D01*
X376840Y259030D01*
X377323Y259355D01*
X377918Y259476D01*
X397131Y259476D01*
X398024Y260369D01*
X398024Y277631D01*
X397131Y278524D01*
X367869Y278524D01*
X366976Y277631D01*
X366976Y260369D01*
X367189Y260155D01*
X367506Y259694D01*
X367636Y259102D01*
X367524Y258506D01*
X367189Y258000D01*
X364196Y255006D01*
X364196Y168369D01*
X366439Y166126D01*
X366745Y165687D01*
X366885Y165097D01*
X366783Y164499D01*
X366456Y163988D01*
X365956Y163645D01*
X365361Y163524D01*
X362342Y163524D01*
X361770Y163635D01*
X361264Y163970D01*
X339551Y185684D01*
X339225Y186167D01*
X339104Y186761D01*
X339104Y205975D01*
X338212Y206868D01*
X320949Y206868D01*
X320056Y205975D01*
X320056Y176712D01*
X320949Y175820D01*
X338212Y175820D01*
X338425Y176033D01*
X338886Y176349D01*
X339478Y176479D01*
X340075Y176368D01*
X340580Y176033D01*
X355958Y160656D01*
X356283Y160172D01*
X356404Y159578D01*
X356404Y129510D01*
X356310Y128983D01*
X355991Y128467D01*
X355497Y128116D01*
X354904Y127986D01*
X354308Y128097D01*
X353802Y128432D01*
X339551Y142684D01*
X339225Y143167D01*
X339104Y143761D01*
X339104Y162975D01*
X338212Y163868D01*
X320949Y163868D01*
X320056Y162975D01*
X320056Y133712D01*
X320949Y132820D01*
X338212Y132820D01*
X338425Y133033D01*
X338886Y133349D01*
X339478Y133479D01*
X340075Y133368D01*
X340580Y133033D01*
X358661Y114952D01*
X363083Y114952D01*
X363655Y114841D01*
X364161Y114506D01*
X365164Y113502D01*
X367155Y112677D01*
X367632Y112364D01*
X367975Y111864D01*
X368096Y111269D01*
X368096Y42887D01*
X367993Y42338D01*
X367666Y41827D01*
X367166Y41484D01*
G37*
%LPC*%
G36*
X426262Y269762D02*
X442040Y269762D01*
X442040Y278052D01*
X440552Y279540D01*
X426262Y279540D01*
X426262Y269762D01*
G37*
G36*
X408960Y269762D02*
X424738Y269762D01*
X424738Y279540D01*
X410448Y279540D01*
X408960Y278052D01*
X408960Y269762D01*
G37*
G36*
X426262Y258460D02*
X440552Y258460D01*
X442040Y259948D01*
X442040Y268238D01*
X426262Y268238D01*
X426262Y258460D01*
G37*
G36*
X410448Y258460D02*
X424738Y258460D01*
X424738Y268238D01*
X408960Y268238D01*
X408960Y259948D01*
X410448Y258460D01*
G37*
G36*
X321023Y243602D02*
X330801Y243602D01*
X330801Y259380D01*
X322510Y259380D01*
X321023Y257892D01*
X321023Y243602D01*
G37*
G36*
X332325Y243602D02*
X342103Y243602D01*
X342103Y257892D01*
X340615Y259380D01*
X332325Y259380D01*
X332325Y243602D01*
G37*
G36*
X332325Y226300D02*
X340615Y226300D01*
X342103Y227788D01*
X342103Y242078D01*
X332325Y242078D01*
X332325Y226300D01*
G37*
G36*
X322510Y226300D02*
X330801Y226300D01*
X330801Y242078D01*
X321023Y242078D01*
X321023Y227788D01*
X322510Y226300D01*
G37*
%LPD*%
G36*
X243851Y180881D02*
X243256Y180761D01*
X208314Y180761D01*
X207765Y180863D01*
X207254Y181190D01*
X206911Y181690D01*
X206790Y182285D01*
X206790Y183451D01*
X196238Y183451D01*
X196238Y184975D01*
X206790Y184975D01*
X206790Y187937D01*
X206738Y188174D01*
X206849Y188770D01*
X207184Y189276D01*
X210415Y192506D01*
X210457Y192724D01*
X210792Y193230D01*
X212078Y194515D01*
X212561Y194841D01*
X213155Y194962D01*
X223524Y194962D01*
X224382Y195820D01*
X224821Y196126D01*
X225411Y196265D01*
X226009Y196164D01*
X226520Y195837D01*
X226863Y195337D01*
X226984Y194742D01*
X226984Y194224D01*
X247064Y194224D01*
X247064Y201014D01*
X246475Y201602D01*
X246159Y202063D01*
X246029Y202656D01*
X246048Y202757D01*
X246048Y217593D01*
X245155Y218486D01*
X237221Y218486D01*
X236649Y218597D01*
X236143Y218932D01*
X232359Y222716D01*
X232033Y223199D01*
X231913Y223794D01*
X231913Y229099D01*
X232015Y229648D01*
X232342Y230159D01*
X232842Y230502D01*
X233437Y230623D01*
X238651Y230623D01*
X238651Y241425D01*
X240175Y241425D01*
X240175Y230623D01*
X246965Y230623D01*
X247553Y231211D01*
X248015Y231528D01*
X248608Y231657D01*
X248709Y231639D01*
X262495Y231639D01*
X263067Y231527D01*
X263572Y231192D01*
X268079Y226686D01*
X268404Y226203D01*
X268525Y225608D01*
X268525Y221152D01*
X268423Y220602D01*
X268096Y220091D01*
X267595Y219748D01*
X267001Y219628D01*
X261787Y219628D01*
X261787Y209826D01*
X250985Y209826D01*
X250985Y203035D01*
X251574Y202447D01*
X251890Y201986D01*
X252020Y201393D01*
X252001Y201292D01*
X252001Y189505D01*
X251890Y188933D01*
X251555Y188428D01*
X249666Y186539D01*
X249227Y186233D01*
X248637Y186093D01*
X248039Y186195D01*
X247528Y186522D01*
X247185Y187022D01*
X247064Y187616D01*
X247064Y192700D01*
X237786Y192700D01*
X237786Y184422D01*
X243869Y184422D01*
X244396Y184328D01*
X244912Y184009D01*
X245263Y183514D01*
X245393Y182922D01*
X245282Y182326D01*
X244947Y181820D01*
X244334Y181207D01*
X243851Y180881D01*
G37*
%LPC*%
G36*
X250985Y211350D02*
X260263Y211350D01*
X260263Y219628D01*
X252473Y219628D01*
X250985Y218140D01*
X250985Y211350D01*
G37*
G36*
X228472Y184422D02*
X236262Y184422D01*
X236262Y192700D01*
X226984Y192700D01*
X226984Y185909D01*
X228472Y184422D01*
G37*
%LPD*%
G36*
X222221Y149787D02*
X221628Y149656D01*
X221032Y149768D01*
X220526Y150103D01*
X220244Y150385D01*
X218118Y151265D01*
X217667Y151554D01*
X217312Y152046D01*
X217177Y152637D01*
X217284Y153234D01*
X217615Y153742D01*
X218118Y154081D01*
X219722Y154746D01*
X221214Y156238D01*
X222022Y158189D01*
X222022Y160299D01*
X221214Y162250D01*
X220124Y163339D01*
X219808Y163800D01*
X219678Y164393D01*
X219790Y164989D01*
X220124Y165494D01*
X221284Y166654D01*
X222092Y168605D01*
X222092Y170715D01*
X221329Y172557D01*
X221214Y173092D01*
X221316Y173690D01*
X221643Y174201D01*
X222143Y174544D01*
X222737Y174665D01*
X246413Y174665D01*
X256865Y185117D01*
X257348Y185443D01*
X257943Y185564D01*
X269156Y185564D01*
X270049Y186456D01*
X270049Y196359D01*
X270160Y196931D01*
X270495Y197437D01*
X274621Y201562D01*
X274621Y228765D01*
X268373Y235013D01*
X268067Y235452D01*
X267927Y236042D01*
X268029Y236640D01*
X268356Y237151D01*
X268856Y237494D01*
X269450Y237615D01*
X272739Y237615D01*
X273311Y237503D01*
X273817Y237168D01*
X279245Y231740D01*
X279570Y231257D01*
X279691Y230663D01*
X279691Y220300D01*
X280913Y219078D01*
X281229Y218617D01*
X281359Y218024D01*
X281248Y217428D01*
X280913Y216922D01*
X279691Y215700D01*
X279691Y202792D01*
X280584Y201899D01*
X283970Y201899D01*
X284519Y201797D01*
X285030Y201470D01*
X285373Y200969D01*
X285494Y200375D01*
X285494Y196901D01*
X285382Y196329D01*
X285047Y195823D01*
X284272Y195048D01*
X284272Y183077D01*
X288336Y179013D01*
X288661Y178530D01*
X288782Y177935D01*
X288782Y167420D01*
X288671Y166848D01*
X288336Y166343D01*
X276389Y154396D01*
X276389Y153545D01*
X276295Y153018D01*
X275977Y152502D01*
X275482Y152151D01*
X274889Y152021D01*
X274293Y152132D01*
X273787Y152467D01*
X273701Y152554D01*
X273385Y153014D01*
X273255Y153607D01*
X273274Y153708D01*
X273274Y168544D01*
X272381Y169437D01*
X256119Y169437D01*
X255226Y168544D01*
X255226Y165985D01*
X255124Y165435D01*
X254797Y164924D01*
X254296Y164581D01*
X253702Y164461D01*
X250161Y164461D01*
X249611Y164563D01*
X249100Y164890D01*
X248757Y165390D01*
X248637Y165985D01*
X248637Y168544D01*
X247744Y169437D01*
X231481Y169437D01*
X230589Y168544D01*
X230589Y158533D01*
X230486Y157983D01*
X230159Y157472D01*
X229816Y157237D01*
X222682Y150103D01*
X222221Y149787D01*
G37*
G36*
X210701Y63169D02*
X210106Y63048D01*
X200054Y63048D01*
X199482Y63159D01*
X198976Y63494D01*
X197970Y64500D01*
X197645Y64983D01*
X197524Y65578D01*
X197524Y84791D01*
X196631Y85684D01*
X179369Y85684D01*
X178476Y84791D01*
X178476Y78124D01*
X178382Y77598D01*
X178063Y77082D01*
X177569Y76731D01*
X176976Y76600D01*
X176380Y76712D01*
X175874Y77047D01*
X152835Y100086D01*
X138857Y100086D01*
X138331Y100180D01*
X137815Y100499D01*
X137464Y100993D01*
X137334Y101586D01*
X137445Y102182D01*
X137780Y102688D01*
X138540Y103448D01*
X138540Y111238D01*
X128738Y111238D01*
X128738Y112762D01*
X138540Y112762D01*
X138540Y120619D01*
X138388Y120837D01*
X138248Y121427D01*
X138350Y122025D01*
X138677Y122536D01*
X139177Y122879D01*
X139771Y123000D01*
X141960Y123000D01*
X142532Y122889D01*
X143038Y122554D01*
X149099Y116492D01*
X149420Y116020D01*
X149546Y115427D01*
X149430Y114831D01*
X148694Y113055D01*
X148694Y110945D01*
X149502Y108994D01*
X150994Y107502D01*
X152945Y106694D01*
X155055Y106694D01*
X157006Y107502D01*
X158498Y108994D01*
X159306Y110945D01*
X159306Y113055D01*
X158498Y115006D01*
X157494Y116009D01*
X157169Y116493D01*
X157048Y117087D01*
X157048Y117165D01*
X154816Y119396D01*
X150684Y123529D01*
X150368Y123990D01*
X150238Y124582D01*
X150349Y125178D01*
X150684Y125684D01*
X178052Y153052D01*
X178491Y153358D01*
X179081Y153498D01*
X179679Y153396D01*
X180190Y153069D01*
X180533Y152569D01*
X180654Y151975D01*
X180654Y141596D01*
X180543Y141024D01*
X180208Y140518D01*
X169442Y129752D01*
X168959Y129427D01*
X168364Y129306D01*
X166945Y129306D01*
X164994Y128498D01*
X163502Y127006D01*
X162694Y125055D01*
X162694Y122945D01*
X163502Y120994D01*
X164994Y119502D01*
X166945Y118694D01*
X169055Y118694D01*
X171006Y119502D01*
X172498Y120994D01*
X173306Y122945D01*
X173306Y124364D01*
X173417Y124936D01*
X173752Y125442D01*
X174858Y126548D01*
X175297Y126854D01*
X175887Y126993D01*
X176485Y126892D01*
X176996Y126565D01*
X177339Y126065D01*
X177460Y125470D01*
X177460Y113922D01*
X187238Y113922D01*
X187238Y129700D01*
X181690Y129700D01*
X181163Y129794D01*
X180647Y130113D01*
X180296Y130607D01*
X180166Y131200D01*
X180277Y131796D01*
X180612Y132302D01*
X186750Y138439D01*
X186750Y140128D01*
X186844Y140655D01*
X187163Y141171D01*
X187657Y141522D01*
X188250Y141652D01*
X188846Y141541D01*
X189000Y141439D01*
X204881Y141439D01*
X205909Y142466D01*
X206392Y142792D01*
X206987Y142913D01*
X212077Y142913D01*
X212649Y142801D01*
X213155Y142466D01*
X214233Y141388D01*
X216183Y140581D01*
X218294Y140581D01*
X220244Y141388D01*
X220794Y141938D01*
X221277Y142264D01*
X221872Y142385D01*
X223585Y142385D01*
X226971Y145771D01*
X227410Y146077D01*
X228000Y146216D01*
X228598Y146115D01*
X229109Y145788D01*
X229452Y145288D01*
X229475Y145175D01*
X249653Y145175D01*
X249653Y151965D01*
X249064Y152553D01*
X248748Y153014D01*
X248618Y153607D01*
X248637Y153708D01*
X248637Y156841D01*
X248739Y157390D01*
X249066Y157901D01*
X249566Y158244D01*
X250161Y158365D01*
X253702Y158365D01*
X254251Y158262D01*
X254762Y157935D01*
X255105Y157435D01*
X255226Y156841D01*
X255226Y153741D01*
X255245Y153655D01*
X255134Y153059D01*
X254799Y152553D01*
X254210Y151965D01*
X254210Y145175D01*
X265012Y145175D01*
X265012Y135373D01*
X272802Y135373D01*
X273788Y136358D01*
X274226Y136664D01*
X274817Y136804D01*
X275415Y136702D01*
X275926Y136375D01*
X276269Y135875D01*
X276389Y135280D01*
X276389Y118318D01*
X276278Y117746D01*
X275943Y117240D01*
X262004Y103302D01*
X261565Y102996D01*
X260975Y102856D01*
X260377Y102958D01*
X259866Y103285D01*
X259523Y103785D01*
X259403Y104379D01*
X259403Y111398D01*
X238323Y111398D01*
X238323Y97108D01*
X239849Y95581D01*
X240157Y95526D01*
X240673Y95207D01*
X241024Y94713D01*
X241154Y94120D01*
X241043Y93524D01*
X240708Y93018D01*
X211184Y63494D01*
X210701Y63169D01*
G37*
%LPC*%
G36*
X231060Y135373D02*
X238851Y135373D01*
X238851Y143651D01*
X229573Y143651D01*
X229573Y136860D01*
X231060Y135373D01*
G37*
G36*
X255698Y135373D02*
X263488Y135373D01*
X263488Y143651D01*
X254210Y143651D01*
X254210Y136860D01*
X255698Y135373D01*
G37*
G36*
X240375Y135373D02*
X248165Y135373D01*
X249653Y136860D01*
X249653Y143651D01*
X240375Y143651D01*
X240375Y135373D01*
G37*
G36*
X210115Y75864D02*
X212225Y75864D01*
X214176Y76672D01*
X215668Y78164D01*
X215949Y78841D01*
X216262Y79318D01*
X216762Y79661D01*
X217025Y79715D01*
X221048Y83737D01*
X221048Y120060D01*
X221159Y120632D01*
X221494Y121138D01*
X221581Y121225D01*
X222064Y121550D01*
X222659Y121671D01*
X224078Y121671D01*
X226029Y122479D01*
X227521Y123971D01*
X228329Y125922D01*
X228329Y128032D01*
X227521Y129983D01*
X226029Y131475D01*
X224078Y132283D01*
X221968Y132283D01*
X220017Y131475D01*
X219337Y130795D01*
X218887Y130484D01*
X218296Y130349D01*
X217699Y130456D01*
X217190Y130786D01*
X216851Y131289D01*
X216595Y131909D01*
X215102Y133402D01*
X213152Y134209D01*
X211041Y134209D01*
X209091Y133402D01*
X207599Y131909D01*
X206791Y129959D01*
X206791Y128539D01*
X206679Y127967D01*
X206344Y127461D01*
X201952Y123069D01*
X201952Y98737D01*
X202248Y98442D01*
X202573Y97959D01*
X202694Y97364D01*
X202694Y95945D01*
X203502Y93994D01*
X204994Y92502D01*
X206945Y91694D01*
X209055Y91694D01*
X211006Y92502D01*
X212350Y93847D01*
X212789Y94153D01*
X213379Y94292D01*
X213977Y94190D01*
X214488Y93864D01*
X214831Y93363D01*
X214952Y92769D01*
X214952Y87627D01*
X214854Y87089D01*
X214531Y86576D01*
X214034Y86229D01*
X213440Y86104D01*
X212845Y86219D01*
X212225Y86476D01*
X210115Y86476D01*
X208164Y85668D01*
X206672Y84176D01*
X205864Y82225D01*
X205864Y80115D01*
X206672Y78164D01*
X208164Y76672D01*
X210115Y75864D01*
G37*
G36*
X188762Y113922D02*
X198540Y113922D01*
X198540Y128212D01*
X197052Y129700D01*
X188762Y129700D01*
X188762Y113922D01*
G37*
G36*
X238323Y112922D02*
X248101Y112922D01*
X248101Y128700D01*
X239810Y128700D01*
X238323Y127212D01*
X238323Y112922D01*
G37*
G36*
X249625Y112922D02*
X259403Y112922D01*
X259403Y127212D01*
X257915Y128700D01*
X249625Y128700D01*
X249625Y112922D01*
G37*
G36*
X188762Y96620D02*
X197052Y96620D01*
X198540Y98108D01*
X198540Y112398D01*
X188762Y112398D01*
X188762Y96620D01*
G37*
G36*
X178948Y96620D02*
X187238Y96620D01*
X187238Y112398D01*
X177460Y112398D01*
X177460Y98108D01*
X178948Y96620D01*
G37*
%LPD*%
G36*
X490281Y48877D02*
X489686Y48757D01*
X474556Y48757D01*
X473984Y48868D01*
X473478Y49203D01*
X469504Y53177D01*
X457701Y53177D01*
X457174Y53271D01*
X456658Y53590D01*
X456307Y54085D01*
X456177Y54677D01*
X456288Y55273D01*
X456623Y55779D01*
X457668Y56824D01*
X458476Y58775D01*
X458476Y60194D01*
X458587Y60766D01*
X458922Y61272D01*
X464680Y67030D01*
X465163Y67355D01*
X465758Y67476D01*
X469581Y67476D01*
X470474Y68369D01*
X470474Y91631D01*
X469581Y92524D01*
X462319Y92524D01*
X461426Y91631D01*
X461426Y73028D01*
X461315Y72456D01*
X460980Y71950D01*
X454612Y65582D01*
X454129Y65257D01*
X453534Y65136D01*
X452115Y65136D01*
X450164Y64328D01*
X448672Y62836D01*
X447864Y60885D01*
X447864Y58775D01*
X448672Y56824D01*
X449717Y55779D01*
X450023Y55340D01*
X450163Y54750D01*
X450061Y54152D01*
X449734Y53641D01*
X449234Y53298D01*
X448640Y53177D01*
X445639Y53177D01*
X445067Y53289D01*
X444562Y53624D01*
X435665Y62520D01*
X435359Y62959D01*
X435220Y63549D01*
X435321Y64147D01*
X435648Y64658D01*
X436148Y65001D01*
X436743Y65122D01*
X440409Y65122D01*
X445489Y70203D01*
X445961Y70524D01*
X446555Y70649D01*
X447150Y70533D01*
X448610Y69928D01*
X450721Y69928D01*
X452671Y70736D01*
X454164Y72229D01*
X454971Y74179D01*
X454971Y76290D01*
X454164Y78240D01*
X452671Y79733D01*
X450721Y80540D01*
X448610Y80540D01*
X446660Y79733D01*
X445656Y78729D01*
X445173Y78403D01*
X445042Y78377D01*
X438330Y71664D01*
X437847Y71339D01*
X437252Y71218D01*
X435065Y71218D01*
X434493Y71329D01*
X433987Y71664D01*
X433433Y72218D01*
X394913Y72218D01*
X394341Y72329D01*
X393836Y72664D01*
X393142Y73358D01*
X392836Y73797D01*
X392696Y74387D01*
X392798Y74985D01*
X393125Y75496D01*
X393625Y75839D01*
X393738Y75862D01*
X393738Y86762D01*
X395262Y86762D01*
X395262Y75960D01*
X402052Y75960D01*
X402641Y76549D01*
X403103Y76865D01*
X403695Y76995D01*
X403796Y76976D01*
X418631Y76976D01*
X419524Y77869D01*
X419524Y89082D01*
X419635Y89654D01*
X419970Y90160D01*
X430358Y100548D01*
X430797Y100854D01*
X431387Y100993D01*
X431985Y100892D01*
X432496Y100565D01*
X432839Y100065D01*
X432960Y99470D01*
X432960Y99262D01*
X453040Y99262D01*
X453040Y106052D01*
X452451Y106641D01*
X452135Y107102D01*
X452005Y107694D01*
X452024Y107795D01*
X452024Y113132D01*
X452135Y113704D01*
X452470Y114210D01*
X458950Y120689D01*
X459411Y121006D01*
X460003Y121136D01*
X460600Y121024D01*
X461105Y120689D01*
X462319Y119476D01*
X468030Y119476D01*
X468579Y119374D01*
X469090Y119047D01*
X469326Y118703D01*
X473125Y114904D01*
X486175Y114904D01*
X490301Y119030D01*
X490784Y119355D01*
X491378Y119476D01*
X493430Y119476D01*
X493979Y119374D01*
X494490Y119047D01*
X494726Y118703D01*
X498525Y114904D01*
X511575Y114904D01*
X513666Y116995D01*
X514105Y117301D01*
X514695Y117441D01*
X515293Y117339D01*
X515804Y117012D01*
X516147Y116512D01*
X516268Y115918D01*
X516268Y65076D01*
X516157Y64504D01*
X515822Y63998D01*
X501027Y49203D01*
X500544Y48877D01*
X499949Y48757D01*
X492404Y48757D01*
X491888Y48847D01*
X491370Y49161D01*
X491038Y49622D01*
X490781Y49220D01*
X490281Y48877D01*
G37*
%LPC*%
G36*
X434448Y89460D02*
X442238Y89460D01*
X442238Y97738D01*
X432960Y97738D01*
X432960Y90948D01*
X434448Y89460D01*
G37*
G36*
X443762Y89460D02*
X451552Y89460D01*
X453040Y90948D01*
X453040Y97738D01*
X443762Y97738D01*
X443762Y89460D01*
G37*
G36*
X490711Y51409D02*
X491053Y50943D01*
X491317Y51350D01*
X491820Y51689D01*
X494051Y52613D01*
X495543Y54105D01*
X496351Y56055D01*
X496351Y58166D01*
X495543Y60116D01*
X494844Y60815D01*
X494519Y61298D01*
X494398Y61893D01*
X494398Y66261D01*
X494509Y66833D01*
X494844Y67339D01*
X495908Y68403D01*
X496347Y68709D01*
X496937Y68849D01*
X497535Y68747D01*
X498046Y68420D01*
X498065Y68393D01*
X499998Y66460D01*
X503288Y66460D01*
X503288Y93540D01*
X499998Y93540D01*
X498110Y91652D01*
X498097Y91632D01*
X498071Y91613D01*
X498064Y91606D01*
X498062Y91607D01*
X497603Y91281D01*
X497010Y91151D01*
X496414Y91262D01*
X495908Y91597D01*
X494981Y92524D01*
X487719Y92524D01*
X486826Y91631D01*
X486826Y68369D01*
X487856Y67339D01*
X488181Y66856D01*
X488302Y66261D01*
X488302Y62503D01*
X488191Y61931D01*
X487856Y61425D01*
X486547Y60116D01*
X485739Y58166D01*
X485739Y56055D01*
X486547Y54105D01*
X488039Y52613D01*
X490269Y51689D01*
X490711Y51409D01*
G37*
G36*
X504812Y80762D02*
X509590Y80762D01*
X509590Y92052D01*
X508102Y93540D01*
X504812Y93540D01*
X504812Y80762D01*
G37*
G36*
X476329Y51805D02*
X478440Y51805D01*
X480390Y52613D01*
X481883Y54105D01*
X482691Y56055D01*
X482691Y58166D01*
X481814Y60283D01*
X481698Y60866D01*
X481698Y66261D01*
X481809Y66833D01*
X482144Y67339D01*
X483174Y68369D01*
X483174Y91631D01*
X482281Y92524D01*
X475019Y92524D01*
X474126Y91631D01*
X474126Y68369D01*
X475156Y67339D01*
X475481Y66856D01*
X475602Y66261D01*
X475602Y63134D01*
X475495Y62573D01*
X475164Y62065D01*
X474661Y61726D01*
X474379Y61609D01*
X472887Y60116D01*
X472079Y58166D01*
X472079Y56055D01*
X472887Y54105D01*
X474379Y52613D01*
X476329Y51805D01*
G37*
G36*
X504812Y66460D02*
X508102Y66460D01*
X509590Y67948D01*
X509590Y79238D01*
X504812Y79238D01*
X504812Y66460D01*
G37*
%LPD*%
G36*
X116856Y55655D02*
X116262Y55534D01*
X86637Y55534D01*
X86065Y55645D01*
X85560Y55980D01*
X84556Y56984D01*
X82606Y57792D01*
X80495Y57792D01*
X78545Y56984D01*
X77612Y56051D01*
X77173Y55745D01*
X76583Y55606D01*
X75985Y55707D01*
X75474Y56034D01*
X75131Y56534D01*
X75010Y57129D01*
X75010Y67387D01*
X75100Y67902D01*
X75414Y68421D01*
X75906Y68776D01*
X76498Y68911D01*
X77095Y68804D01*
X77603Y68473D01*
X77942Y67970D01*
X78621Y66330D01*
X82430Y62521D01*
X87407Y60460D01*
X96838Y60460D01*
X96838Y87540D01*
X87407Y87540D01*
X82430Y85479D01*
X78621Y81670D01*
X77094Y77981D01*
X76797Y77522D01*
X76302Y77171D01*
X75710Y77041D01*
X75114Y77152D01*
X74608Y77487D01*
X60895Y91200D01*
X60589Y91639D01*
X60449Y92229D01*
X60551Y92827D01*
X60878Y93338D01*
X61378Y93681D01*
X61972Y93802D01*
X71466Y93802D01*
X81019Y103356D01*
X81503Y103681D01*
X82097Y103802D01*
X84345Y103802D01*
X84917Y103691D01*
X85423Y103356D01*
X98637Y90142D01*
X98943Y89703D01*
X99082Y89113D01*
X98981Y88515D01*
X98654Y88004D01*
X98362Y87804D01*
X98362Y60460D01*
X107793Y60460D01*
X112770Y62521D01*
X115184Y64936D01*
X115623Y65242D01*
X116213Y65382D01*
X116811Y65280D01*
X117322Y64953D01*
X117665Y64453D01*
X117786Y63858D01*
X117786Y57058D01*
X117684Y56509D01*
X117357Y55998D01*
X116856Y55655D01*
G37*
G36*
X88556Y10281D02*
X87962Y10160D01*
X11684Y10160D01*
X11135Y10262D01*
X10624Y10589D01*
X10281Y11090D01*
X10160Y11684D01*
X10160Y30096D01*
X10262Y30645D01*
X10589Y31156D01*
X11090Y31499D01*
X11684Y31620D01*
X22098Y31620D01*
X22098Y62100D01*
X11684Y62100D01*
X11135Y62202D01*
X10624Y62529D01*
X10281Y63030D01*
X10160Y63624D01*
X10160Y78102D01*
X10262Y78651D01*
X10589Y79162D01*
X11090Y79505D01*
X11684Y79626D01*
X36191Y79626D01*
X37084Y80519D01*
X37084Y92278D01*
X37186Y92827D01*
X37513Y93338D01*
X38014Y93681D01*
X38608Y93802D01*
X49041Y93802D01*
X49613Y93691D01*
X50118Y93356D01*
X68468Y75006D01*
X68793Y74523D01*
X68914Y73929D01*
X68914Y46675D01*
X85926Y29664D01*
X86251Y29181D01*
X86372Y28586D01*
X86372Y17179D01*
X87609Y14192D01*
X89040Y12762D01*
X89346Y12323D01*
X89485Y11733D01*
X89384Y11135D01*
X89057Y10624D01*
X88556Y10281D01*
G37*
%LPC*%
G36*
X23622Y47622D02*
X38100Y47622D01*
X38100Y60612D01*
X36612Y62100D01*
X23622Y62100D01*
X23622Y47622D01*
G37*
G36*
X23622Y31620D02*
X36612Y31620D01*
X38100Y33108D01*
X38100Y46098D01*
X23622Y46098D01*
X23622Y31620D01*
G37*
%LPD*%
G36*
X113956Y10281D02*
X113362Y10160D01*
X101038Y10160D01*
X100511Y10254D01*
X99995Y10573D01*
X99644Y11067D01*
X99514Y11660D01*
X99625Y12256D01*
X99960Y12762D01*
X101391Y14192D01*
X102628Y17179D01*
X102628Y33621D01*
X101391Y36608D01*
X99104Y38895D01*
X96117Y40132D01*
X92883Y40132D01*
X89896Y38895D01*
X88684Y37682D01*
X88223Y37366D01*
X87630Y37236D01*
X87034Y37347D01*
X86528Y37682D01*
X79632Y44578D01*
X79326Y45017D01*
X79187Y45607D01*
X79288Y46205D01*
X79615Y46716D01*
X80115Y47059D01*
X80710Y47180D01*
X82606Y47180D01*
X84556Y47988D01*
X85560Y48992D01*
X86043Y49317D01*
X86637Y49438D01*
X128073Y49438D01*
X129918Y51283D01*
X129960Y51511D01*
X130287Y52022D01*
X130788Y52365D01*
X131382Y52486D01*
X134941Y52486D01*
X135834Y53379D01*
X135834Y64641D01*
X135746Y64729D01*
X135430Y65190D01*
X135300Y65782D01*
X135411Y66379D01*
X135746Y66884D01*
X136810Y67948D01*
X136810Y73238D01*
X123508Y73238D01*
X123508Y74762D01*
X136810Y74762D01*
X136810Y77476D01*
X136912Y78025D01*
X137239Y78536D01*
X137740Y78879D01*
X138334Y79000D01*
X150639Y79000D01*
X151211Y78889D01*
X151716Y78554D01*
X172458Y57812D01*
X172783Y57329D01*
X172904Y56735D01*
X172904Y54635D01*
X177475Y50064D01*
X212840Y50064D01*
X228442Y65666D01*
X228925Y65991D01*
X229520Y66112D01*
X237815Y66112D01*
X238364Y66010D01*
X238875Y65683D01*
X239218Y65182D01*
X239339Y64588D01*
X239339Y54529D01*
X240231Y53636D01*
X257520Y53636D01*
X257860Y53875D01*
X258449Y54019D01*
X258726Y53975D01*
X258507Y54293D01*
X258387Y54888D01*
X258387Y61141D01*
X258485Y61679D01*
X258807Y62192D01*
X259305Y62539D01*
X259898Y62665D01*
X260494Y62549D01*
X261011Y62334D01*
X261488Y62021D01*
X261831Y61521D01*
X261952Y60926D01*
X261952Y55405D01*
X261841Y54833D01*
X261506Y54327D01*
X260988Y53810D01*
X260549Y53504D01*
X259959Y53364D01*
X259694Y53409D01*
X259908Y53102D01*
X260034Y52509D01*
X259918Y51913D01*
X259694Y51373D01*
X259694Y49263D01*
X260502Y47312D01*
X261994Y45820D01*
X263945Y45012D01*
X266055Y45012D01*
X268006Y45820D01*
X269498Y47312D01*
X269705Y47811D01*
X270001Y48271D01*
X270496Y48622D01*
X271089Y48752D01*
X271685Y48641D01*
X272190Y48306D01*
X272324Y48172D01*
X274274Y47364D01*
X275694Y47364D01*
X276266Y47253D01*
X276771Y46918D01*
X278949Y44741D01*
X291252Y44741D01*
X291824Y44629D01*
X292330Y44294D01*
X293785Y42839D01*
X294101Y42378D01*
X294232Y41786D01*
X294120Y41190D01*
X293785Y40684D01*
X293572Y40470D01*
X293572Y23208D01*
X294465Y22315D01*
X323727Y22315D01*
X324620Y23208D01*
X324620Y40470D01*
X323727Y41363D01*
X304514Y41363D01*
X303942Y41475D01*
X303436Y41810D01*
X294409Y50837D01*
X282160Y50837D01*
X281610Y50939D01*
X281099Y51266D01*
X280756Y51766D01*
X280636Y52361D01*
X280636Y53726D01*
X279828Y55676D01*
X278335Y57169D01*
X276385Y57976D01*
X274274Y57976D01*
X272324Y57169D01*
X270650Y55494D01*
X270211Y55188D01*
X269621Y55049D01*
X269023Y55150D01*
X268512Y55477D01*
X268169Y55978D01*
X268048Y56572D01*
X268048Y58877D01*
X268159Y59449D01*
X268494Y59954D01*
X272483Y63943D01*
X272493Y63958D01*
X279000Y70465D01*
X279483Y70791D01*
X280078Y70911D01*
X281497Y70911D01*
X283448Y71719D01*
X284940Y73212D01*
X285748Y75162D01*
X285748Y77273D01*
X284940Y79223D01*
X283448Y80716D01*
X282828Y80972D01*
X282369Y81269D01*
X282018Y81763D01*
X281887Y82356D01*
X281999Y82952D01*
X282334Y83458D01*
X284179Y85303D01*
X284663Y85629D01*
X285257Y85750D01*
X312745Y85750D01*
X313638Y86643D01*
X313638Y88450D01*
X313732Y88976D01*
X314050Y89492D01*
X314545Y89843D01*
X315138Y89973D01*
X315734Y89862D01*
X316240Y89527D01*
X336366Y69401D01*
X339812Y69401D01*
X340384Y69289D01*
X340889Y68954D01*
X342212Y67632D01*
X342538Y67149D01*
X342659Y66554D01*
X342659Y42887D01*
X342556Y42338D01*
X342229Y41827D01*
X341729Y41484D01*
X341135Y41363D01*
X337465Y41363D01*
X336572Y40470D01*
X336572Y23208D01*
X337465Y22315D01*
X366727Y22315D01*
X367620Y23208D01*
X367620Y28308D01*
X367714Y28835D01*
X368032Y29351D01*
X368527Y29702D01*
X369120Y29832D01*
X369716Y29721D01*
X370221Y29386D01*
X379651Y19956D01*
X379977Y19473D01*
X380098Y18878D01*
X380098Y17459D01*
X380906Y15508D01*
X382398Y14016D01*
X384348Y13208D01*
X386459Y13208D01*
X388409Y14016D01*
X389902Y15508D01*
X390710Y17459D01*
X390710Y19569D01*
X389902Y21520D01*
X388409Y23012D01*
X388002Y23181D01*
X387560Y23461D01*
X387202Y23950D01*
X387062Y24540D01*
X387164Y25138D01*
X387491Y25649D01*
X387991Y25992D01*
X388585Y26113D01*
X397343Y26113D01*
X397343Y35891D01*
X381565Y35891D01*
X381565Y30342D01*
X381471Y29816D01*
X381153Y29300D01*
X380658Y28949D01*
X380065Y28819D01*
X379469Y28930D01*
X378964Y29265D01*
X374638Y33590D01*
X374313Y34073D01*
X374192Y34668D01*
X374192Y73542D01*
X374286Y74069D01*
X374604Y74585D01*
X375099Y74936D01*
X375692Y75066D01*
X376288Y74955D01*
X376793Y74620D01*
X389897Y61516D01*
X390216Y61460D01*
X390734Y61146D01*
X391089Y60654D01*
X391224Y60062D01*
X391118Y59465D01*
X390787Y58957D01*
X390284Y58618D01*
X389994Y58498D01*
X388502Y57006D01*
X387694Y55055D01*
X387694Y52945D01*
X388502Y50994D01*
X389702Y49795D01*
X390008Y49356D01*
X390147Y48766D01*
X390046Y48168D01*
X389719Y47657D01*
X389218Y47314D01*
X388624Y47193D01*
X383053Y47193D01*
X381565Y45705D01*
X381565Y37415D01*
X397343Y37415D01*
X397343Y47199D01*
X396849Y47287D01*
X396333Y47606D01*
X395982Y48100D01*
X395852Y48693D01*
X395963Y49289D01*
X396298Y49795D01*
X397009Y50506D01*
X397493Y50831D01*
X398087Y50952D01*
X421864Y50952D01*
X422436Y50841D01*
X422942Y50506D01*
X425795Y47653D01*
X426111Y47192D01*
X426241Y46600D01*
X426130Y46003D01*
X425795Y45498D01*
X425581Y45284D01*
X425581Y28022D01*
X426474Y27129D01*
X455736Y27129D01*
X456629Y28022D01*
X456629Y45557D01*
X456732Y46107D01*
X457059Y46618D01*
X457559Y46961D01*
X458153Y47081D01*
X466347Y47081D01*
X466919Y46970D01*
X467425Y46635D01*
X471399Y42661D01*
X503105Y42661D01*
X518238Y57794D01*
X518677Y58100D01*
X519267Y58239D01*
X519865Y58138D01*
X520376Y57811D01*
X520719Y57310D01*
X520840Y56716D01*
X520840Y11684D01*
X520738Y11135D01*
X520411Y10624D01*
X519910Y10281D01*
X519316Y10160D01*
X280275Y10160D01*
X279748Y10254D01*
X279232Y10573D01*
X278881Y11067D01*
X278751Y11660D01*
X278862Y12256D01*
X279197Y12762D01*
X280052Y13616D01*
X281444Y16977D01*
X281444Y24638D01*
X263156Y24638D01*
X263156Y16977D01*
X264548Y13616D01*
X265403Y12762D01*
X265709Y12323D01*
X265848Y11733D01*
X265747Y11135D01*
X265420Y10624D01*
X264920Y10281D01*
X264325Y10160D01*
X253438Y10160D01*
X252911Y10254D01*
X252395Y10573D01*
X252044Y11067D01*
X251914Y11660D01*
X252025Y12256D01*
X252360Y12762D01*
X253791Y14192D01*
X255028Y17179D01*
X255028Y33621D01*
X253791Y36608D01*
X251504Y38895D01*
X248517Y40132D01*
X245283Y40132D01*
X242296Y38895D01*
X240009Y36608D01*
X238772Y33621D01*
X238772Y17179D01*
X240009Y14192D01*
X241440Y12762D01*
X241746Y12323D01*
X241885Y11733D01*
X241784Y11135D01*
X241457Y10624D01*
X240956Y10281D01*
X240362Y10160D01*
X228038Y10160D01*
X227511Y10254D01*
X226995Y10573D01*
X226644Y11067D01*
X226514Y11660D01*
X226625Y12256D01*
X226960Y12762D01*
X228391Y14192D01*
X229628Y17179D01*
X229628Y33621D01*
X228391Y36608D01*
X226104Y38895D01*
X223117Y40132D01*
X219883Y40132D01*
X216896Y38895D01*
X214609Y36608D01*
X213372Y33621D01*
X213372Y17179D01*
X214609Y14192D01*
X216040Y12762D01*
X216346Y12323D01*
X216485Y11733D01*
X216384Y11135D01*
X216057Y10624D01*
X215556Y10281D01*
X214962Y10160D01*
X202638Y10160D01*
X202111Y10254D01*
X201595Y10573D01*
X201244Y11067D01*
X201114Y11660D01*
X201225Y12256D01*
X201560Y12762D01*
X202991Y14192D01*
X204228Y17179D01*
X204228Y33621D01*
X202991Y36608D01*
X200704Y38895D01*
X197717Y40132D01*
X194483Y40132D01*
X191496Y38895D01*
X189209Y36608D01*
X187972Y33621D01*
X187972Y17179D01*
X189209Y14192D01*
X190640Y12762D01*
X190946Y12323D01*
X191085Y11733D01*
X190984Y11135D01*
X190657Y10624D01*
X190156Y10281D01*
X189562Y10160D01*
X177238Y10160D01*
X176711Y10254D01*
X176195Y10573D01*
X175844Y11067D01*
X175714Y11660D01*
X175825Y12256D01*
X176160Y12762D01*
X177591Y14192D01*
X178828Y17179D01*
X178828Y33621D01*
X177591Y36608D01*
X175304Y38895D01*
X172317Y40132D01*
X169083Y40132D01*
X166096Y38895D01*
X163809Y36608D01*
X162572Y33621D01*
X162572Y17179D01*
X163809Y14192D01*
X165240Y12762D01*
X165546Y12323D01*
X165685Y11733D01*
X165584Y11135D01*
X165257Y10624D01*
X164756Y10281D01*
X164162Y10160D01*
X151838Y10160D01*
X151311Y10254D01*
X150795Y10573D01*
X150444Y11067D01*
X150314Y11660D01*
X150425Y12256D01*
X150760Y12762D01*
X152191Y14192D01*
X153428Y17179D01*
X153428Y33621D01*
X152191Y36608D01*
X149904Y38895D01*
X146917Y40132D01*
X143683Y40132D01*
X140696Y38895D01*
X138409Y36608D01*
X137172Y33621D01*
X137172Y17179D01*
X138409Y14192D01*
X139840Y12762D01*
X140146Y12323D01*
X140285Y11733D01*
X140184Y11135D01*
X139857Y10624D01*
X139356Y10281D01*
X138762Y10160D01*
X126438Y10160D01*
X125911Y10254D01*
X125395Y10573D01*
X125044Y11067D01*
X124914Y11660D01*
X125025Y12256D01*
X125360Y12762D01*
X126791Y14192D01*
X128028Y17179D01*
X128028Y33621D01*
X126791Y36608D01*
X124504Y38895D01*
X121517Y40132D01*
X118283Y40132D01*
X115296Y38895D01*
X113009Y36608D01*
X111772Y33621D01*
X111772Y17179D01*
X113009Y14192D01*
X114440Y12762D01*
X114746Y12323D01*
X114885Y11733D01*
X114784Y11135D01*
X114457Y10624D01*
X113956Y10281D01*
G37*
%LPC*%
G36*
X398867Y37415D02*
X414645Y37415D01*
X414645Y45705D01*
X413157Y47193D01*
X398867Y47193D01*
X398867Y37415D01*
G37*
G36*
X263156Y26162D02*
X271538Y26162D01*
X271538Y41148D01*
X270481Y41148D01*
X267120Y39756D01*
X264548Y37184D01*
X263156Y33823D01*
X263156Y26162D01*
G37*
G36*
X273062Y26162D02*
X281444Y26162D01*
X281444Y33823D01*
X280052Y37184D01*
X277480Y39756D01*
X274119Y41148D01*
X273062Y41148D01*
X273062Y26162D01*
G37*
G36*
X398867Y26113D02*
X413157Y26113D01*
X414645Y27601D01*
X414645Y35891D01*
X398867Y35891D01*
X398867Y26113D01*
G37*
%LPD*%
G36*
X45972Y110121D02*
X45378Y110000D01*
X38524Y110000D01*
X37975Y110102D01*
X37464Y110429D01*
X37121Y110930D01*
X37000Y111524D01*
X37000Y124926D01*
X36994Y124986D01*
X36992Y124991D01*
X36913Y125000D01*
X11684Y125000D01*
X11135Y125102D01*
X10624Y125429D01*
X10281Y125930D01*
X10160Y126524D01*
X10160Y298316D01*
X10262Y298865D01*
X10589Y299376D01*
X11090Y299719D01*
X11684Y299840D01*
X16112Y299840D01*
X16661Y299738D01*
X17172Y299411D01*
X17515Y298910D01*
X17636Y298316D01*
X17636Y244209D01*
X18529Y243316D01*
X39808Y243316D01*
X40216Y243596D01*
X40808Y243726D01*
X41404Y243614D01*
X41910Y243279D01*
X43975Y241215D01*
X80165Y241215D01*
X80714Y241112D01*
X81225Y240785D01*
X81568Y240285D01*
X81689Y239691D01*
X81689Y236619D01*
X82581Y235726D01*
X98844Y235726D01*
X99737Y236619D01*
X99737Y247832D01*
X99848Y248404D01*
X100183Y248910D01*
X101077Y249804D01*
X101560Y250129D01*
X102154Y250250D01*
X103689Y250250D01*
X104238Y250148D01*
X104749Y249821D01*
X105092Y249320D01*
X105213Y248726D01*
X105213Y236619D01*
X106105Y235726D01*
X117319Y235726D01*
X117891Y235615D01*
X118396Y235280D01*
X120475Y233201D01*
X120762Y233148D01*
X121273Y232821D01*
X121616Y232320D01*
X121737Y231726D01*
X121737Y228355D01*
X125801Y224290D01*
X126117Y223829D01*
X126248Y223237D01*
X126136Y222641D01*
X125801Y222135D01*
X114446Y210780D01*
X113963Y210454D01*
X113369Y210334D01*
X89812Y210334D01*
X78934Y199455D01*
X78451Y199129D01*
X77856Y199009D01*
X64412Y199009D01*
X46238Y180834D01*
X45755Y180509D01*
X45161Y180388D01*
X42208Y180388D01*
X41659Y180490D01*
X41148Y180817D01*
X40805Y181318D01*
X40684Y181912D01*
X40684Y205471D01*
X39791Y206364D01*
X18529Y206364D01*
X17636Y205471D01*
X17636Y149209D01*
X18529Y148316D01*
X39791Y148316D01*
X40684Y149209D01*
X40684Y172768D01*
X40786Y173317D01*
X41113Y173828D01*
X41614Y174171D01*
X42208Y174292D01*
X48317Y174292D01*
X66491Y192466D01*
X66974Y192792D01*
X67569Y192913D01*
X81013Y192913D01*
X88212Y200112D01*
X88651Y200418D01*
X89241Y200557D01*
X89839Y200456D01*
X90350Y200129D01*
X90693Y199629D01*
X90814Y199034D01*
X90814Y188606D01*
X91706Y187714D01*
X94266Y187714D01*
X94815Y187611D01*
X95326Y187284D01*
X95669Y186784D01*
X95790Y186190D01*
X95790Y178136D01*
X95687Y177586D01*
X95360Y177075D01*
X94860Y176732D01*
X94266Y176612D01*
X87806Y176612D01*
X86914Y175719D01*
X86914Y165708D01*
X86811Y165158D01*
X86484Y164647D01*
X85984Y164304D01*
X85390Y164184D01*
X84986Y164184D01*
X84436Y164286D01*
X83925Y164613D01*
X83582Y165113D01*
X83462Y165708D01*
X83462Y176544D01*
X82569Y177437D01*
X66306Y177437D01*
X65414Y176544D01*
X65414Y165330D01*
X65302Y164758D01*
X64967Y164253D01*
X63300Y162586D01*
X63300Y132437D01*
X63198Y131887D01*
X62871Y131376D01*
X62370Y131033D01*
X61776Y130913D01*
X60989Y130913D01*
X58960Y128883D01*
X58477Y128557D01*
X57882Y128437D01*
X46669Y128437D01*
X45776Y127544D01*
X45776Y113281D01*
X46456Y112602D01*
X46762Y112163D01*
X46901Y111573D01*
X46800Y110975D01*
X46473Y110464D01*
X45972Y110121D01*
G37*
G36*
X159901Y241065D02*
X159308Y240934D01*
X158712Y241046D01*
X158206Y241381D01*
X128474Y271113D01*
X128149Y271596D01*
X128028Y272190D01*
X128028Y287621D01*
X126791Y290608D01*
X124504Y292895D01*
X121517Y294132D01*
X118283Y294132D01*
X115296Y292895D01*
X113009Y290608D01*
X111772Y287621D01*
X111772Y271179D01*
X112192Y270165D01*
X112306Y269654D01*
X112214Y269055D01*
X111896Y268539D01*
X111401Y268188D01*
X110809Y268058D01*
X110212Y268169D01*
X109707Y268504D01*
X103074Y275136D01*
X102749Y275619D01*
X102628Y276214D01*
X102628Y287621D01*
X101391Y290608D01*
X99104Y292895D01*
X96117Y294132D01*
X92883Y294132D01*
X89896Y292895D01*
X87609Y290608D01*
X86372Y287621D01*
X86372Y271179D01*
X87609Y268192D01*
X89896Y265905D01*
X92883Y264668D01*
X96117Y264668D01*
X99104Y265905D01*
X100316Y267118D01*
X100777Y267434D01*
X101370Y267564D01*
X101966Y267453D01*
X102472Y267118D01*
X110642Y258948D01*
X110948Y258509D01*
X111087Y257919D01*
X110986Y257321D01*
X110659Y256810D01*
X110159Y256467D01*
X109564Y256346D01*
X98998Y256346D01*
X94872Y252220D01*
X94389Y251895D01*
X93795Y251774D01*
X82581Y251774D01*
X81689Y250881D01*
X81689Y248835D01*
X81586Y248285D01*
X81259Y247774D01*
X80759Y247431D01*
X80165Y247311D01*
X47131Y247311D01*
X46559Y247422D01*
X46054Y247757D01*
X41130Y252680D01*
X40805Y253163D01*
X40684Y253758D01*
X40684Y298316D01*
X40786Y298865D01*
X41113Y299376D01*
X41614Y299719D01*
X42208Y299840D01*
X285476Y299840D01*
X286025Y299738D01*
X286536Y299411D01*
X286879Y298910D01*
X287000Y298316D01*
X287000Y260355D01*
X286898Y259805D01*
X286571Y259294D01*
X286070Y258951D01*
X285476Y258831D01*
X259720Y258831D01*
X259194Y258924D01*
X258678Y259243D01*
X258327Y259738D01*
X258196Y260330D01*
X258308Y260926D01*
X258643Y261432D01*
X264328Y267118D01*
X264789Y267434D01*
X265382Y267564D01*
X265978Y267453D01*
X266484Y267118D01*
X267696Y265905D01*
X270683Y264668D01*
X273917Y264668D01*
X276904Y265905D01*
X279191Y268192D01*
X280428Y271179D01*
X280428Y287621D01*
X279191Y290608D01*
X276904Y292895D01*
X273917Y294132D01*
X270683Y294132D01*
X267696Y292895D01*
X265409Y290608D01*
X264172Y287621D01*
X264172Y276214D01*
X264061Y275642D01*
X263726Y275136D01*
X257093Y268504D01*
X256666Y268203D01*
X256077Y268059D01*
X255478Y268156D01*
X254964Y268478D01*
X254617Y268976D01*
X254492Y269569D01*
X254608Y270165D01*
X255028Y271179D01*
X255028Y287621D01*
X253791Y290608D01*
X251504Y292895D01*
X248517Y294132D01*
X245283Y294132D01*
X242296Y292895D01*
X240009Y290608D01*
X238772Y287621D01*
X238772Y271179D01*
X240009Y268192D01*
X242197Y266004D01*
X242503Y265565D01*
X242643Y264975D01*
X242541Y264377D01*
X242214Y263866D01*
X241714Y263523D01*
X241120Y263403D01*
X227280Y263403D01*
X226754Y263496D01*
X226238Y263815D01*
X225887Y264310D01*
X225757Y264902D01*
X225868Y265498D01*
X226203Y266004D01*
X228391Y268192D01*
X229628Y271179D01*
X229628Y287621D01*
X228391Y290608D01*
X226104Y292895D01*
X223117Y294132D01*
X219883Y294132D01*
X216896Y292895D01*
X214609Y290608D01*
X213372Y287621D01*
X213372Y271179D01*
X214609Y268192D01*
X216797Y266004D01*
X217103Y265565D01*
X217243Y264975D01*
X217141Y264377D01*
X216814Y263866D01*
X216314Y263523D01*
X215720Y263403D01*
X201880Y263403D01*
X201354Y263496D01*
X200838Y263815D01*
X200487Y264310D01*
X200357Y264902D01*
X200468Y265498D01*
X200803Y266004D01*
X202991Y268192D01*
X204228Y271179D01*
X204228Y287621D01*
X202991Y290608D01*
X200704Y292895D01*
X197717Y294132D01*
X194483Y294132D01*
X191496Y292895D01*
X189209Y290608D01*
X187972Y287621D01*
X187972Y276214D01*
X187861Y275642D01*
X187526Y275136D01*
X180893Y268504D01*
X180466Y268203D01*
X179877Y268059D01*
X179278Y268156D01*
X178764Y268478D01*
X178417Y268976D01*
X178292Y269569D01*
X178408Y270165D01*
X178828Y271179D01*
X178828Y287621D01*
X177591Y290608D01*
X175304Y292895D01*
X172317Y294132D01*
X169083Y294132D01*
X166096Y292895D01*
X163809Y290608D01*
X162572Y287621D01*
X162572Y271179D01*
X162992Y270165D01*
X163106Y269654D01*
X163014Y269055D01*
X162696Y268539D01*
X162201Y268188D01*
X161609Y268058D01*
X161012Y268169D01*
X160507Y268504D01*
X153874Y275136D01*
X153549Y275619D01*
X153428Y276214D01*
X153428Y287621D01*
X152191Y290608D01*
X149904Y292895D01*
X146917Y294132D01*
X143683Y294132D01*
X140696Y292895D01*
X138409Y290608D01*
X137172Y287621D01*
X137172Y271179D01*
X138409Y268192D01*
X140696Y265905D01*
X143683Y264668D01*
X146917Y264668D01*
X149904Y265905D01*
X151116Y267118D01*
X151577Y267434D01*
X152170Y267564D01*
X152766Y267453D01*
X153272Y267118D01*
X160362Y260028D01*
X160687Y259545D01*
X160808Y258950D01*
X160808Y242458D01*
X160714Y241932D01*
X160395Y241416D01*
X159901Y241065D01*
G37*
G36*
X146963Y125121D02*
X146369Y125000D01*
X101830Y125000D01*
X101281Y125102D01*
X100770Y125429D01*
X100427Y125930D01*
X100306Y126524D01*
X100306Y126885D01*
X99498Y128836D01*
X99432Y128902D01*
X99106Y129385D01*
X98986Y129980D01*
X98986Y142040D01*
X99088Y142589D01*
X99415Y143100D01*
X99915Y143443D01*
X100510Y143564D01*
X104069Y143564D01*
X104962Y144456D01*
X104962Y147016D01*
X105064Y147565D01*
X105391Y148076D01*
X105891Y148419D01*
X106486Y148540D01*
X106752Y148540D01*
X107301Y148437D01*
X107812Y148110D01*
X108155Y147610D01*
X108276Y147016D01*
X108276Y144456D01*
X109169Y143564D01*
X125431Y143564D01*
X126324Y144456D01*
X126324Y158719D01*
X126033Y159010D01*
X125717Y159471D01*
X125587Y160063D01*
X125698Y160659D01*
X126033Y161165D01*
X126324Y161456D01*
X126324Y172670D01*
X126435Y173242D01*
X126770Y173747D01*
X127124Y174101D01*
X127563Y174407D01*
X128153Y174547D01*
X128751Y174445D01*
X129262Y174118D01*
X129605Y173618D01*
X129726Y173024D01*
X129726Y155331D01*
X130619Y154439D01*
X146381Y154439D01*
X147451Y155508D01*
X147703Y155903D01*
X148047Y156138D01*
X149414Y157506D01*
X149897Y157831D01*
X150492Y157952D01*
X151913Y157952D01*
X152485Y157841D01*
X152991Y157506D01*
X153994Y156502D01*
X155945Y155694D01*
X158055Y155694D01*
X160006Y156502D01*
X161498Y157994D01*
X162306Y159945D01*
X162306Y162055D01*
X161498Y164006D01*
X160081Y165422D01*
X159765Y165883D01*
X159635Y166476D01*
X159746Y167072D01*
X160081Y167578D01*
X161498Y168994D01*
X162306Y170945D01*
X162306Y173055D01*
X161498Y175006D01*
X160006Y176498D01*
X158055Y177306D01*
X155945Y177306D01*
X153994Y176498D01*
X152991Y175494D01*
X152507Y175169D01*
X151913Y175048D01*
X151835Y175048D01*
X149876Y173088D01*
X149437Y172782D01*
X148847Y172643D01*
X148249Y172744D01*
X147738Y173071D01*
X147395Y173571D01*
X147274Y174166D01*
X147274Y180594D01*
X146381Y181487D01*
X130619Y181487D01*
X130339Y181207D01*
X129856Y180881D01*
X129261Y180761D01*
X125162Y180761D01*
X121460Y177058D01*
X120977Y176732D01*
X120382Y176612D01*
X109169Y176612D01*
X108276Y175719D01*
X108276Y173160D01*
X108174Y172610D01*
X107847Y172099D01*
X107346Y171756D01*
X106752Y171636D01*
X106486Y171636D01*
X105936Y171738D01*
X105425Y172065D01*
X105082Y172565D01*
X104962Y173160D01*
X104962Y175719D01*
X104069Y176612D01*
X103410Y176612D01*
X102860Y176714D01*
X102349Y177041D01*
X102006Y177541D01*
X101886Y178136D01*
X101886Y186190D01*
X101988Y186739D01*
X102315Y187250D01*
X102815Y187593D01*
X103410Y187714D01*
X105969Y187714D01*
X106260Y188005D01*
X106721Y188321D01*
X107313Y188451D01*
X107909Y188340D01*
X108415Y188005D01*
X108706Y187714D01*
X122969Y187714D01*
X123862Y188606D01*
X123862Y192641D01*
X123964Y193190D01*
X124291Y193701D01*
X124791Y194044D01*
X125386Y194165D01*
X128202Y194165D01*
X128751Y194062D01*
X129262Y193735D01*
X129605Y193235D01*
X129726Y192641D01*
X129726Y187831D01*
X130619Y186939D01*
X146381Y186939D01*
X147376Y187934D01*
X147860Y188259D01*
X148454Y188380D01*
X157156Y188380D01*
X171908Y203132D01*
X172347Y203438D01*
X172937Y203578D01*
X173535Y203476D01*
X174046Y203149D01*
X174389Y202649D01*
X174510Y202054D01*
X174510Y166906D01*
X174399Y166334D01*
X174064Y165829D01*
X156942Y148707D01*
X156459Y148381D01*
X155864Y148261D01*
X147739Y148261D01*
X147167Y148372D01*
X146661Y148707D01*
X146381Y148987D01*
X130619Y148987D01*
X129726Y148094D01*
X129726Y142331D01*
X130619Y141439D01*
X146381Y141439D01*
X146661Y141718D01*
X147144Y142044D01*
X147739Y142165D01*
X159020Y142165D01*
X180606Y163750D01*
X180606Y204733D01*
X180620Y204804D01*
X180620Y237616D01*
X180731Y238188D01*
X181066Y238694D01*
X199233Y256860D01*
X199716Y257186D01*
X200310Y257307D01*
X229756Y257307D01*
X230283Y257213D01*
X230799Y256894D01*
X231150Y256399D01*
X231280Y255807D01*
X231169Y255211D01*
X230834Y254705D01*
X228034Y251906D01*
X227551Y251580D01*
X226957Y251459D01*
X203578Y251459D01*
X203441Y251436D01*
X203392Y251397D01*
X184359Y232364D01*
X184278Y232251D01*
X184270Y232189D01*
X184270Y162902D01*
X184159Y162330D01*
X183824Y161824D01*
X147446Y125446D01*
X146963Y125121D01*
G37*
G36*
X73070Y110121D02*
X72476Y110000D01*
X64222Y110000D01*
X63695Y110094D01*
X63179Y110413D01*
X62828Y110907D01*
X62698Y111500D01*
X62809Y112096D01*
X63144Y112602D01*
X63824Y113281D01*
X63824Y123293D01*
X63926Y123842D01*
X64253Y124353D01*
X64754Y124696D01*
X65348Y124817D01*
X65825Y124817D01*
X69396Y128387D01*
X69396Y134849D01*
X69490Y135376D01*
X69809Y135892D01*
X70303Y136243D01*
X70896Y136373D01*
X71492Y136262D01*
X71998Y135927D01*
X72994Y134930D01*
X74945Y134122D01*
X77055Y134122D01*
X79006Y134930D01*
X80498Y136422D01*
X81306Y138373D01*
X81306Y140483D01*
X80498Y142434D01*
X79494Y143437D01*
X79169Y143921D01*
X79048Y144515D01*
X79048Y156812D01*
X79142Y157339D01*
X79461Y157855D01*
X79955Y158206D01*
X80548Y158336D01*
X81144Y158225D01*
X81351Y158088D01*
X85390Y158088D01*
X85939Y157985D01*
X86450Y157658D01*
X86793Y157158D01*
X86914Y156564D01*
X86914Y144456D01*
X87806Y143564D01*
X91366Y143564D01*
X91915Y143461D01*
X92426Y143134D01*
X92769Y142634D01*
X92890Y142040D01*
X92890Y131717D01*
X92783Y131157D01*
X92452Y130648D01*
X92031Y130365D01*
X90502Y128836D01*
X89694Y126885D01*
X89694Y126524D01*
X89592Y125975D01*
X89265Y125464D01*
X88764Y125121D01*
X88170Y125000D01*
X74074Y125000D01*
X74014Y124994D01*
X74009Y124992D01*
X74000Y124913D01*
X74000Y111524D01*
X73898Y110975D01*
X73571Y110464D01*
X73070Y110121D01*
G37*
D10*
X22860Y93850D03*
X22860Y46860D03*
D11*
X248863Y69160D03*
X248863Y112160D03*
D12*
X90713Y243750D03*
X90713Y226750D03*
X114237Y243750D03*
X114237Y226750D03*
D13*
X138500Y229713D03*
X138500Y223213D03*
X138500Y216713D03*
X138500Y210213D03*
X138500Y203713D03*
X138500Y197213D03*
X138500Y190713D03*
X138500Y184213D03*
X138500Y177713D03*
X138500Y171213D03*
X138500Y164713D03*
X138500Y158213D03*
X138500Y151713D03*
X138500Y145213D03*
X197000Y145213D03*
X197000Y151713D03*
X197000Y158213D03*
X197000Y164713D03*
X197000Y171213D03*
X197000Y177713D03*
X197000Y184213D03*
X197000Y190713D03*
X197000Y197213D03*
X197000Y203713D03*
X197000Y210213D03*
X197000Y216713D03*
X197000Y223213D03*
X197000Y229713D03*
D12*
X74438Y186413D03*
X74438Y169413D03*
X54800Y137413D03*
X54800Y120413D03*
D14*
X115838Y196738D03*
X98838Y196738D03*
D12*
X237024Y193462D03*
X237024Y210462D03*
X264250Y161413D03*
X264250Y144413D03*
X239613Y161413D03*
X239613Y144413D03*
X261025Y193588D03*
X261025Y210588D03*
D14*
X256413Y240663D03*
X239413Y240663D03*
D12*
X117300Y151588D03*
X117300Y168588D03*
X95938Y151588D03*
X95938Y168588D03*
D11*
X331563Y285840D03*
X331563Y242840D03*
D14*
X112500Y112000D03*
X129500Y112000D03*
D15*
X126810Y59010D03*
X126810Y88990D03*
D16*
X124270Y74000D03*
D17*
X105100Y74000D02*
X90100Y74000D01*
D11*
X188000Y70160D03*
X188000Y113160D03*
D18*
X341114Y95274D03*
X298114Y95274D03*
X352096Y31839D03*
X309096Y31839D03*
D19*
X478650Y80000D03*
X478650Y132000D03*
X465950Y80000D03*
X491350Y80000D03*
X504050Y80000D03*
X465950Y132000D03*
X491350Y132000D03*
X504050Y132000D03*
D12*
X443000Y98500D03*
X443000Y115500D03*
D14*
X502500Y166000D03*
X485500Y166000D03*
X485500Y188000D03*
X502500Y188000D03*
X458500Y188524D03*
X441500Y188524D03*
X458500Y212000D03*
X441500Y212000D03*
X487500Y210000D03*
X504500Y210000D03*
X441500Y166000D03*
X458500Y166000D03*
X394500Y133000D03*
X411500Y133000D03*
X394500Y110000D03*
X411500Y110000D03*
X394500Y86000D03*
X411500Y86000D03*
D12*
X370000Y155500D03*
X370000Y138500D03*
D18*
X382500Y269000D03*
X425500Y269000D03*
X506840Y269000D03*
X463840Y269000D03*
D14*
X393500Y194000D03*
X410500Y194000D03*
X394500Y161000D03*
X411500Y161000D03*
D20*
X94500Y272796D02*
X94500Y286004D01*
X119900Y286004D02*
X119900Y272796D01*
X145300Y272796D02*
X145300Y286004D01*
X170700Y286004D02*
X170700Y272796D01*
X196100Y272796D02*
X196100Y286004D01*
X221500Y286004D02*
X221500Y272796D01*
X246900Y272796D02*
X246900Y286004D01*
X272300Y286004D02*
X272300Y272796D01*
X94500Y32004D02*
X94500Y18796D01*
X119900Y18796D02*
X119900Y32004D01*
X145300Y32004D02*
X145300Y18796D01*
X170700Y18796D02*
X170700Y32004D01*
X196100Y32004D02*
X196100Y18796D01*
X221500Y18796D02*
X221500Y32004D01*
X246900Y32004D02*
X246900Y18796D01*
X272300Y18796D02*
X272300Y32004D01*
D18*
X441105Y36653D03*
X398105Y36653D03*
D11*
X329580Y148344D03*
X329580Y191344D03*
D21*
X288542Y209246D03*
X288542Y226754D03*
D22*
X29160Y177340D03*
X29160Y272340D03*
D23*
X126810Y88990D02*
X133752Y82048D01*
X152533Y82048D01*
X175952Y58629D01*
X50935Y96850D02*
X34214Y96850D01*
X50935Y96850D02*
X71962Y75823D01*
X175952Y58629D02*
X175952Y55898D01*
X178738Y53112D01*
X94500Y25400D02*
X71962Y47938D01*
X227626Y69160D02*
X248863Y69160D01*
X211578Y53112D02*
X178738Y53112D01*
X211578Y53112D02*
X227626Y69160D01*
X71962Y75823D02*
X71962Y47938D01*
X22860Y93850D02*
X20214Y93850D01*
X23214Y96850D02*
X34214Y96850D01*
X23214Y96850D02*
X20214Y93850D01*
X34214Y96850D02*
X70203Y96850D01*
X80203Y106850D01*
X86239Y106850D02*
X104099Y88990D01*
X86239Y106850D02*
X80203Y106850D01*
X104099Y88990D02*
X126810Y88990D01*
X117300Y151588D02*
X95938Y151588D01*
X443000Y98500D02*
X493161Y98500D01*
X411500Y133000D02*
X411500Y161000D01*
X443000Y98500D02*
X443000Y91726D01*
X434402Y79798D01*
X187000Y114160D02*
X187000Y120659D01*
X187000Y114160D02*
X188000Y113160D01*
X200170Y133829D02*
X207170Y133829D01*
X200170Y133829D02*
X187000Y120659D01*
X375000Y218500D02*
X425500Y269000D01*
X131212Y67058D02*
X124270Y74000D01*
X105112Y81512D02*
X97600Y74000D01*
X271850Y25850D02*
X272300Y25400D01*
X271850Y25850D02*
X256044Y41656D01*
X124270Y74000D02*
X97600Y74000D01*
X105112Y81512D01*
X504050Y80000D02*
X504050Y57575D01*
X503586Y57111D01*
D24*
X503586Y57111D03*
D23*
X211171Y137830D02*
X207170Y133829D01*
X211171Y137830D02*
X216829Y137830D01*
X218829Y135830D01*
X188000Y121466D02*
X188000Y113160D01*
X233030Y137830D02*
X239613Y144413D01*
X233030Y137830D02*
X216829Y137830D01*
X201363Y133829D02*
X188000Y120466D01*
X188000Y113160D01*
X201363Y133829D02*
X207170Y133829D01*
X377171Y166170D02*
X377641Y166170D01*
X377171Y166170D02*
X375000Y168341D01*
X375000Y218500D01*
D24*
X406000Y178000D03*
D23*
X411500Y172500D01*
X411500Y161000D01*
D24*
X436000Y75000D03*
X512486Y102000D03*
D23*
X512486Y88436D02*
X504050Y80000D01*
X512486Y88436D02*
X512486Y102000D01*
X504500Y210000D02*
X499000Y215500D01*
D24*
X511000Y36000D03*
D23*
X456368Y25605D02*
X425843Y25605D01*
X414795Y36653D02*
X398105Y36653D01*
X414795Y36653D02*
X425843Y25605D01*
X456368Y25605D02*
X461763Y31000D01*
X506000Y31000D02*
X511000Y36000D01*
X506000Y31000D02*
X461763Y31000D01*
D24*
X338877Y65619D03*
D23*
X317000Y19000D02*
X278700Y19000D01*
X271850Y25850D01*
X227775Y184213D02*
X237024Y193462D01*
X227775Y184213D02*
X197000Y184213D01*
D24*
X95000Y125830D03*
D23*
X95938Y125830D02*
X95938Y151588D01*
X95938Y125830D02*
X95000Y125830D01*
D24*
X201341Y134000D03*
D23*
X200534Y134000D01*
X188000Y121466D01*
X253263Y204136D02*
X254573Y204136D01*
X261025Y210588D01*
X261025Y213740D01*
X239413Y235352D01*
X239413Y240663D01*
X239613Y144413D02*
X240161Y143865D01*
X247499Y112160D02*
X248863Y112160D01*
X247499Y112160D02*
X223829Y135830D01*
X218829Y135830D01*
X392234Y30782D02*
X398105Y36653D01*
D24*
X54000Y37119D03*
D23*
X170625Y54759D02*
X183728Y41656D01*
X170625Y54759D02*
X170625Y56048D01*
X159615Y67058D01*
X131212Y67058D01*
X183728Y41656D02*
X256044Y41656D01*
X327563Y244600D02*
X327563Y247840D01*
X327563Y244600D01*
X313625Y230663D01*
X242589Y193462D02*
X237024Y193462D01*
X242589Y193462D02*
X253263Y204136D01*
X327563Y247840D02*
X327563Y249840D01*
X327563Y247840D01*
X327563Y249840D02*
X331563Y245840D01*
D24*
X317000Y18533D03*
D23*
X317000Y19000D01*
X322567Y19000D01*
X326144Y22577D01*
X326144Y52886D02*
X338877Y65619D01*
X326144Y52886D02*
X326144Y22577D01*
X448578Y280048D02*
X479103Y280048D01*
X448578Y280048D02*
X437530Y269000D01*
X425500Y269000D01*
X479103Y280048D02*
X489792Y269359D01*
X331563Y245840D02*
X331563Y242840D01*
X499000Y223811D02*
X499000Y215500D01*
X489792Y233019D02*
X489792Y269359D01*
X489792Y233019D02*
X499000Y223811D01*
X470555Y59940D02*
X470555Y54282D01*
X474556Y50281D01*
X499398Y75348D02*
X504050Y80000D01*
X499398Y55805D02*
X493874Y50281D01*
X499398Y55805D02*
X499398Y75348D01*
X493874Y50281D02*
X474556Y50281D01*
X488709Y94048D02*
X493161Y98500D01*
X474388Y94048D02*
X472602Y92263D01*
X474388Y94048D02*
X488709Y94048D01*
X472602Y61987D02*
X470555Y59940D01*
X472602Y61987D02*
X472602Y92263D01*
X434402Y79798D02*
X436000Y75000D01*
X403738Y75452D02*
X401952Y77238D01*
X435548Y75452D02*
X436000Y75000D01*
X435548Y75452D02*
X403738Y75452D01*
X401952Y77238D02*
X401952Y78548D01*
X394500Y86000D01*
X411500Y133000D02*
X404048Y140452D01*
X386738Y150452D02*
X384952Y152238D01*
X386738Y150452D02*
X395359Y150452D01*
X404048Y141763D01*
X404048Y140452D01*
X384952Y152238D02*
X384952Y158859D01*
X377641Y166170D01*
X283000Y163163D02*
X283000Y179000D01*
D24*
X283000Y179000D03*
D23*
X283000Y163163D02*
X274798Y154961D01*
X313625Y207159D02*
X313625Y230663D01*
X274798Y154961D02*
X274798Y153650D01*
X273013Y151865D01*
X271702Y151865D01*
X264250Y144413D01*
X240709Y144413D01*
X240161Y143865D01*
X392234Y30782D02*
X392234Y15685D01*
X388233Y11684D01*
X382575Y11684D01*
X375259Y19000D02*
X317000Y19000D01*
X375259Y19000D02*
X382575Y11684D01*
D24*
X298722Y189063D03*
D23*
X298722Y192256D02*
X313625Y207159D01*
X298722Y192256D02*
X298722Y189063D01*
X277161Y244600D02*
X327563Y244600D01*
X248650Y251211D02*
X246865Y249425D01*
X246865Y248115D01*
X239413Y240663D01*
X270551Y251211D02*
X277161Y244600D01*
X270551Y251211D02*
X248650Y251211D01*
X144341Y112000D02*
X129500Y112000D01*
X144341Y112000D02*
X151171Y105170D01*
X180010Y105170D01*
X188000Y113160D01*
D24*
X296000Y271000D03*
X83032Y100020D03*
D23*
X84818Y101805D02*
X105112Y81512D01*
X84818Y101805D02*
X83032Y100020D01*
X44259Y46860D02*
X54000Y37119D01*
X44259Y46860D02*
X22860Y46860D01*
D24*
X499000Y224170D03*
D23*
X499000Y215500D01*
X98838Y196738D02*
X98838Y171488D01*
X95938Y168588D01*
X117300Y168588D02*
X125925Y177213D01*
X117300Y168588D02*
X95938Y168588D01*
X88486Y161136D01*
X82715Y161136D01*
X74438Y169413D01*
X138500Y171213D02*
X138500Y177713D01*
X76000Y167850D02*
X74438Y169413D01*
X76000Y167850D02*
X76000Y139428D01*
D24*
X76000Y139428D03*
D23*
X125925Y177213D02*
X126425Y177713D01*
X138500Y177713D01*
X74438Y169413D02*
X66348Y161323D01*
X66348Y129650D02*
X64563Y127865D01*
X66348Y129650D02*
X66348Y161323D01*
X64563Y127865D02*
X62252Y127865D01*
X54800Y120413D01*
X138500Y184213D02*
X156788Y184213D01*
X127848Y143825D02*
X126063Y142040D01*
X127848Y143825D02*
X127848Y150000D01*
X156788Y184213D02*
X163830Y177170D01*
X138500Y151713D02*
X129561Y151713D01*
X127848Y150000D01*
X127863Y142040D02*
X126063Y142040D01*
X163830Y158171D02*
X163830Y177170D01*
X163830Y158171D02*
X157372Y151713D01*
X138500Y151713D01*
X97829Y119000D02*
X92171Y119000D01*
X120869Y142040D02*
X126063Y142040D01*
X120869Y142040D02*
X97829Y119000D01*
D24*
X154000Y112000D03*
D23*
X154000Y115902D01*
X127863Y142040D01*
X114237Y226750D02*
X90713Y226750D01*
X66986Y178961D02*
X65675Y178961D01*
X66986Y178961D02*
X74438Y186413D01*
X54800Y168086D02*
X54800Y137413D01*
X54800Y168086D02*
X65675Y178961D01*
D24*
X65000Y205000D03*
X26000Y135000D03*
D23*
X65000Y205000D02*
X86750Y226750D01*
X90713Y226750D01*
D24*
X65000Y275000D03*
D23*
X77289Y123591D02*
X87580Y123591D01*
X92171Y119000D01*
X77289Y123591D02*
X64563Y110865D01*
X46038Y110865D01*
X42252Y114650D01*
X42252Y118748D02*
X26000Y135000D01*
X42252Y118748D02*
X42252Y114650D01*
X52388Y135000D02*
X26000Y135000D01*
X52388Y135000D02*
X54800Y137413D01*
X90713Y243750D02*
X90713Y244263D01*
X45238Y244263D02*
X29160Y260340D01*
X29160Y272340D01*
X45238Y244263D02*
X90713Y244263D01*
X90713Y243750D02*
X100261Y253298D01*
X115000Y253298D01*
X122999Y253298D01*
X138500Y237797D01*
X138500Y229713D01*
X124785Y234513D02*
X122999Y236298D01*
X121689Y236298D01*
X114237Y243750D01*
X131190Y223213D02*
X138500Y223213D01*
X131190Y223213D02*
X124785Y229618D01*
X124785Y234513D01*
X137298Y222011D02*
X138500Y223213D01*
X137298Y222011D02*
X129988Y222011D01*
X115263Y207286D02*
X91075Y207286D01*
X47055Y177340D02*
X29160Y177340D01*
X115263Y207286D02*
X129988Y222011D01*
X65675Y195961D02*
X47055Y177340D01*
X65675Y195961D02*
X79750Y195961D01*
X91075Y207286D01*
X116313Y197213D02*
X138500Y197213D01*
X116313Y197213D02*
X115838Y196738D01*
X147013Y196011D02*
X147023Y196000D01*
X147013Y196011D02*
X139702Y196011D01*
X138500Y197213D01*
X170700Y254166D02*
X170700Y279400D01*
X150564Y196000D02*
X147023Y196000D01*
X150564Y196000D02*
X168428Y213864D01*
X168428Y251894D02*
X170700Y254166D01*
X168428Y251894D02*
X168428Y213864D01*
X209965Y196713D02*
X211262Y198010D01*
X228865Y221900D02*
X237024Y213741D01*
X237024Y210462D01*
X209965Y196713D02*
X207298Y194046D01*
X207298Y193700D01*
X204311Y190713D01*
X197000Y190713D01*
X211262Y198010D02*
X222262Y198010D01*
X229572Y203010D02*
X237024Y210462D01*
X229572Y203010D02*
X227262Y203010D01*
X222262Y198010D01*
X325803Y285840D02*
X331563Y285840D01*
X325803Y285840D02*
X295745Y255783D01*
X228865Y248425D02*
X228865Y221900D01*
X228865Y248425D02*
X236222Y255783D01*
X295745Y255783D01*
X264250Y161413D02*
X239613Y161413D01*
X217784Y145433D02*
X215756Y145433D01*
X215228Y145961D01*
X197748Y145961D01*
X197000Y145213D01*
D24*
X217238Y145887D03*
D23*
X217784Y145433D02*
X218238Y145887D01*
X217238Y145887D01*
X232161Y153961D02*
X239613Y161413D01*
X232161Y153961D02*
X230850Y153961D01*
X222322Y145433D02*
X217784Y145433D01*
X222322Y145433D02*
X230850Y153961D01*
X139500Y217713D02*
X138500Y216713D01*
X139500Y217713D02*
X149455Y217713D01*
X112446Y261455D02*
X94500Y279400D01*
X153370Y235119D02*
X153370Y221628D01*
X149455Y217713D01*
X153370Y235119D02*
X127034Y261455D01*
X112446Y261455D01*
X119900Y275376D02*
X119900Y279400D01*
X138500Y210213D02*
X148420Y210213D01*
X159284Y221076D01*
X159284Y235992D01*
X119900Y275376D01*
X138500Y203713D02*
X151811Y203713D01*
X163856Y215758D01*
X163856Y260844D02*
X145300Y279400D01*
X163856Y260844D02*
X163856Y215758D01*
X139216Y191428D02*
X138500Y190713D01*
X139216Y191428D02*
X155894Y191428D01*
X177000Y254000D02*
X177000Y260300D01*
X196100Y279400D01*
X173000Y208534D02*
X155894Y191428D01*
X173000Y208534D02*
X173000Y250000D01*
X177000Y254000D01*
D24*
X157000Y172000D03*
D23*
X153098Y172000D01*
X145811Y164713D01*
X138500Y164713D01*
D24*
X157000Y161000D03*
D23*
X139702Y159415D02*
X138500Y158213D01*
X139702Y159415D02*
X147013Y159415D01*
X148598Y161000D01*
X157000Y161000D01*
X157758Y145213D02*
X138500Y145213D01*
X157758Y145213D02*
X177558Y165013D01*
X177558Y206626D02*
X177572Y206640D01*
X177572Y239510D01*
X177558Y206626D02*
X177558Y165013D01*
X253255Y260355D02*
X272300Y279400D01*
X198416Y260355D02*
X177572Y239510D01*
X198416Y260355D02*
X253255Y260355D01*
X449450Y115500D02*
X465950Y132000D01*
X449450Y115500D02*
X443000Y115500D01*
X443000Y135000D01*
X438000Y140000D01*
D24*
X438000Y144718D03*
D23*
X438000Y140000D01*
X245150Y177713D02*
X197000Y177713D01*
X245150Y177713D02*
X261025Y193588D01*
X258413Y240663D02*
X256413Y240663D01*
X267477Y200040D02*
X261025Y193588D01*
X271573Y227502D02*
X258413Y240663D01*
X271573Y227502D02*
X271573Y202825D01*
X268788Y200040D01*
X267477Y200040D01*
X274633Y240663D02*
X256413Y240663D01*
X274633Y240663D02*
X288542Y226754D01*
D24*
X305000Y169000D03*
D23*
X305000Y173125D01*
X291892Y186233D01*
X288542Y226706D02*
X288542Y226754D01*
X288542Y226706D02*
X298916Y216332D01*
X298916Y198916D01*
X291892Y191892D02*
X291892Y186233D01*
X291892Y191892D02*
X298916Y198916D01*
X315162Y111497D02*
X315162Y94915D01*
X341706Y72449D02*
X345707Y68448D01*
X341706Y72449D02*
X337629Y72449D01*
X315162Y94915D01*
X345707Y38229D02*
X352096Y31839D01*
X345707Y38229D02*
X345707Y68448D01*
D24*
X286267Y137305D03*
D23*
X289354Y137305D02*
X315162Y111497D01*
X289354Y137305D02*
X286267Y137305D01*
D24*
X302855Y138145D03*
D23*
X302855Y133533D02*
X341114Y95274D01*
X302855Y133533D02*
X302855Y138145D01*
D24*
X262169Y67598D03*
D23*
X289839Y95274D02*
X298114Y95274D01*
X289839Y95274D02*
X262169Y67603D01*
X262169Y67598D01*
D24*
X275330Y52670D03*
D23*
X293146Y47789D02*
X309096Y31839D01*
X293146Y47789D02*
X280211Y47789D01*
X275330Y52670D01*
D24*
X216786Y169660D03*
D23*
X209758Y169660D01*
D24*
X168000Y124000D03*
D23*
X183702Y139702D02*
X183702Y156225D01*
X183702Y139702D02*
X168000Y124000D01*
X197000Y158213D02*
X196202Y159011D01*
X186488Y159011D02*
X183702Y156225D01*
X186488Y159011D02*
X196202Y159011D01*
X205513Y159415D02*
X207298Y161200D01*
X205513Y159415D02*
X198202Y159415D01*
X197000Y158213D01*
X207298Y167200D02*
X209758Y169660D01*
X207298Y167200D02*
X207298Y161200D01*
D24*
X216716Y159244D03*
D23*
X197713Y151000D02*
X197000Y151713D01*
X197713Y151000D02*
X208472Y151000D01*
X216716Y159244D01*
X485500Y166000D02*
X485500Y188000D01*
X485500Y166000D02*
X459500Y166000D01*
X458500Y166000D01*
X487500Y190000D02*
X487500Y210000D01*
X487500Y190000D02*
X485500Y188000D01*
X441500Y188524D02*
X440488Y187512D01*
X438488Y187512D01*
X432096Y181120D01*
X426844Y181120D01*
X389000Y138500D02*
X394500Y133000D01*
X389000Y138500D02*
X370000Y138500D01*
X446952Y195976D02*
X446952Y197287D01*
X446952Y195976D02*
X438488Y187512D01*
X458500Y208835D02*
X458500Y212000D01*
X458500Y208835D02*
X446952Y197287D01*
X400952Y124238D02*
X402738Y122452D01*
X400952Y124238D02*
X400952Y126548D01*
X394500Y133000D01*
X419263Y122452D02*
X421048Y124238D01*
X419263Y122452D02*
X402738Y122452D01*
X421048Y124238D02*
X421048Y175324D01*
X426844Y181120D01*
X443952Y157238D02*
X445738Y155452D01*
X443952Y157238D02*
X443952Y163548D01*
X441500Y166000D01*
X445738Y155452D02*
X469274Y155452D01*
X485302Y146263D02*
X487088Y148048D01*
X485302Y146263D02*
X485302Y138652D01*
X478650Y132000D01*
X394500Y110000D02*
X393724Y110000D01*
X379380Y95656D01*
X519316Y256524D02*
X506840Y269000D01*
X512098Y123738D02*
X512098Y119738D01*
X510313Y117952D01*
X478650Y132000D02*
X478570Y132080D01*
X478570Y146156D01*
X468241Y50129D02*
X472662Y45709D01*
X512098Y123738D02*
X519316Y130956D01*
X478570Y146156D02*
X469274Y155452D01*
X472662Y45709D02*
X501843Y45709D01*
X519316Y63182D02*
X519316Y130956D01*
X519316Y63182D02*
X501843Y45709D01*
X499788Y117952D02*
X498002Y119738D01*
X499788Y117952D02*
X510313Y117952D01*
X498002Y119738D02*
X498002Y143659D01*
X493613Y148048D01*
X487088Y148048D01*
X519316Y130956D02*
X519316Y256524D01*
X379380Y95656D02*
X379380Y76344D01*
X429277Y64598D02*
X443746Y50129D01*
X429277Y64598D02*
X391126Y64598D01*
X443746Y50129D02*
X468241Y50129D01*
X391126Y64598D02*
X379380Y76344D01*
X502500Y166000D02*
X504050Y164450D01*
X504050Y132000D01*
X504050Y141564D01*
D24*
X449665Y75234D03*
D23*
X446210Y75234D01*
X504050Y141564D02*
X512486Y150000D01*
D24*
X512486Y150000D03*
D23*
X387738Y97548D02*
X384952Y94763D01*
X384952Y77238D01*
X404048Y102548D02*
X411500Y110000D01*
X404048Y102548D02*
X404048Y101238D01*
X400359Y97548D01*
X387738Y97548D01*
X384952Y77238D02*
X393020Y69170D01*
X432171Y69170D01*
X433171Y68170D01*
X439146Y68170D01*
X446210Y75234D01*
X428452Y102952D02*
X411500Y86000D01*
X428452Y102952D02*
X428452Y123263D01*
X454048Y148048D02*
X451216Y150880D01*
X426952Y174763D02*
X428738Y176548D01*
X426952Y174763D02*
X426952Y157238D01*
X431170Y125981D02*
X428452Y123263D01*
X435171Y151548D02*
X440829Y151548D01*
X435171Y151548D02*
X431170Y147547D01*
X435171Y151548D02*
X440829Y151548D01*
X441497Y150880D01*
X451216Y150880D01*
X454048Y148048D02*
X444329Y148048D01*
X440829Y151548D01*
X431170Y147547D02*
X431170Y125981D01*
X432641Y151548D02*
X426952Y157238D01*
X432641Y151548D02*
X435171Y151548D01*
X451048Y181072D02*
X458500Y188524D01*
X451048Y181072D02*
X451048Y179762D01*
X447835Y176548D01*
X428738Y176548D01*
X484913Y117952D02*
X491350Y124390D01*
X491350Y132000D01*
X474388Y117952D02*
X472602Y119738D01*
X474388Y117952D02*
X484913Y117952D01*
X468213Y148048D02*
X454048Y148048D01*
X468213Y148048D02*
X472602Y143659D01*
X472602Y119738D01*
X370000Y155500D02*
X370000Y166875D01*
X367244Y253744D02*
X382500Y269000D01*
X367244Y253744D02*
X367244Y169631D01*
X370000Y166875D01*
X411170Y194670D02*
X411170Y227829D01*
X411170Y194670D02*
X410500Y194000D01*
X463840Y241340D02*
X463840Y269000D01*
X420171Y236830D02*
X411170Y227829D01*
X459330Y236830D02*
X463840Y241340D01*
X459330Y236830D02*
X420171Y236830D01*
X393500Y194000D02*
X394500Y193000D01*
X394500Y161000D01*
X393500Y194000D02*
X391000Y196500D01*
D24*
X265000Y50318D03*
X391000Y215026D03*
D23*
X391000Y196500D01*
D24*
X280442Y76217D03*
D23*
X265000Y60770D02*
X265000Y50318D01*
X265000Y60770D02*
X268999Y64769D01*
X268999Y64774D01*
X280442Y76217D01*
X207311Y210213D02*
X197000Y210213D01*
D24*
X220826Y223603D03*
D23*
X220701Y223603D01*
X207311Y210213D01*
D24*
X511000Y231000D03*
D23*
X511000Y221811D01*
X514048Y218763D01*
X514048Y199548D01*
X502500Y188000D01*
X213243Y203713D02*
X197000Y203713D01*
D24*
X220631Y210556D03*
D23*
X220086Y210556D02*
X213243Y203713D01*
X220086Y210556D02*
X220631Y210556D01*
D24*
X425000Y230000D03*
D23*
X441500Y213500D01*
X441500Y212000D01*
X491350Y80000D02*
X491350Y57416D01*
X491045Y57111D01*
D24*
X491045Y57111D03*
X477385Y57111D03*
D23*
X478650Y58376D02*
X478650Y80000D01*
X478650Y58376D02*
X477385Y57111D01*
X441105Y36653D02*
X423758Y54000D01*
X393000Y54000D01*
D24*
X393000Y54000D03*
X220000Y242000D03*
D23*
X198202Y217915D02*
X197000Y216713D01*
X198202Y217915D02*
X205513Y217915D01*
X207298Y219700D01*
X207298Y219734D01*
X216660Y238660D02*
X220000Y242000D01*
X216660Y238660D02*
X216660Y229096D01*
D24*
X212097Y128903D03*
D23*
X205000Y121807D01*
X207298Y219734D02*
X216660Y229096D01*
D24*
X208000Y97000D03*
D23*
X205000Y100000D01*
X205000Y121807D01*
X197000Y223213D02*
X198202Y224415D01*
X218000Y85000D02*
X215830Y82830D01*
D24*
X223023Y126977D03*
D23*
X218000Y121954D02*
X218000Y85000D01*
X218000Y121954D02*
X223023Y126977D01*
D24*
X209830Y238170D03*
D23*
X205513Y224415D02*
X198202Y224415D01*
X209830Y228732D02*
X209830Y238170D01*
X209830Y228732D02*
X205513Y224415D01*
D24*
X211170Y81170D03*
D23*
X212830Y82830D02*
X215830Y82830D01*
X212830Y82830D02*
X211170Y81170D01*
X329580Y191344D02*
X359452Y161472D01*
X359452Y130738D01*
X370999Y124830D02*
X375000Y120829D01*
X375000Y115171D01*
X371144Y111315D01*
X370999Y124830D02*
X365360Y124830D01*
X359452Y130738D01*
D24*
X385404Y18514D03*
D23*
X371144Y32774D02*
X371144Y111315D01*
X371144Y32774D02*
X385404Y18514D01*
D24*
X453170Y59830D03*
D23*
X465950Y72610D02*
X465950Y80000D01*
X465950Y72610D02*
X453170Y59830D01*
D24*
X368170Y118000D03*
D23*
X359924Y118000D02*
X329580Y148344D01*
X359924Y118000D02*
X368170Y118000D01*
X112500Y112000D02*
X111469Y113031D01*
X90561Y113031D01*
D24*
X82830Y116761D03*
D23*
X86830Y116761D02*
X90561Y113031D01*
X86830Y116761D02*
X82830Y116761D01*
D24*
X81550Y52486D03*
D23*
X126810Y52486D01*
X126810Y59010D01*
X189080Y69080D02*
X198160Y60000D01*
X189080Y69080D02*
X188000Y70160D01*
X198160Y60000D02*
X212000Y60000D01*
X247112Y95112D01*
X258125Y95112D01*
X288542Y195007D02*
X288542Y209246D01*
X119952Y104548D02*
X112500Y112000D01*
X119952Y104548D02*
X119952Y103238D01*
X179531Y69080D02*
X189080Y69080D01*
X179531Y69080D02*
X151573Y97038D01*
X126152Y97038D02*
X119952Y103238D01*
X126152Y97038D02*
X151573Y97038D01*
X287320Y184340D02*
X287320Y193785D01*
X288542Y195007D01*
X291830Y179829D02*
X291830Y165527D01*
X291830Y179829D02*
X287320Y184340D01*
X279437Y116424D02*
X258125Y95112D01*
X279437Y116424D02*
X279437Y153134D01*
X291830Y165527D01*
M02*
