G04 EAGLE Gerber RS-274X export*
G75*
%MOMM*%
%FSLAX34Y34*%
%LPD*%
%INSilkscreen Bottom*%
%IPPOS*%
%AMOC8*
5,1,8,0,0,1.08239X$1,22.5*%
G01*
G04 Define Apertures*
%ADD10C,0.203200*%
%ADD11R,0.490000X1.100000*%
%ADD12C,0.076200*%
%ADD13C,0.152400*%
%ADD14C,0.101600*%
%ADD15R,1.450100X0.750100*%
%ADD16R,0.750100X1.450100*%
%ADD17C,0.120000*%
D10*
X312000Y193000D02*
X312000Y160000D01*
X312000Y155000D01*
X360000Y155000D01*
X360000Y160000D01*
X360000Y193000D01*
X312000Y193000D01*
X312000Y160000D02*
X360000Y160000D01*
D11*
X355050Y148500D03*
X342350Y148500D03*
X329650Y148500D03*
X316950Y148500D03*
X316950Y199500D03*
X329650Y199500D03*
X342350Y199500D03*
X355050Y199500D03*
D12*
X352435Y165872D02*
X352437Y165974D01*
X352443Y166076D01*
X352453Y166177D01*
X352467Y166279D01*
X352485Y166379D01*
X352506Y166479D01*
X352532Y166578D01*
X352561Y166675D01*
X352595Y166772D01*
X352632Y166867D01*
X352672Y166960D01*
X352717Y167052D01*
X352764Y167143D01*
X352816Y167231D01*
X352870Y167317D01*
X352928Y167401D01*
X352990Y167482D01*
X353054Y167562D01*
X353122Y167638D01*
X353192Y167712D01*
X353265Y167783D01*
X353341Y167851D01*
X353420Y167916D01*
X353501Y167979D01*
X353584Y168037D01*
X353670Y168093D01*
X353757Y168145D01*
X353847Y168194D01*
X353938Y168239D01*
X354032Y168281D01*
X354126Y168318D01*
X354223Y168353D01*
X354320Y168383D01*
X354418Y168410D01*
X354518Y168432D01*
X354618Y168451D01*
X354719Y168466D01*
X354821Y168477D01*
X354922Y168484D01*
X355024Y168487D01*
X355127Y168486D01*
X355228Y168481D01*
X355330Y168472D01*
X355431Y168459D01*
X355532Y168442D01*
X355632Y168421D01*
X355731Y168397D01*
X355829Y168368D01*
X355926Y168336D01*
X356021Y168300D01*
X356115Y168260D01*
X356208Y168217D01*
X356298Y168170D01*
X356387Y168119D01*
X356474Y168066D01*
X356558Y168008D01*
X356640Y167948D01*
X356720Y167884D01*
X356797Y167818D01*
X356872Y167748D01*
X356944Y167675D01*
X357013Y167600D01*
X357078Y167522D01*
X357141Y167442D01*
X357201Y167359D01*
X357257Y167274D01*
X357310Y167187D01*
X357360Y167098D01*
X357406Y167007D01*
X357449Y166914D01*
X357487Y166819D01*
X357522Y166724D01*
X357554Y166627D01*
X357581Y166528D01*
X357605Y166429D01*
X357625Y166329D01*
X357641Y166228D01*
X357653Y166127D01*
X357661Y166025D01*
X357665Y165923D01*
X357665Y165821D01*
X357661Y165719D01*
X357653Y165617D01*
X357641Y165516D01*
X357625Y165415D01*
X357605Y165315D01*
X357581Y165216D01*
X357554Y165117D01*
X357522Y165020D01*
X357487Y164925D01*
X357449Y164830D01*
X357406Y164737D01*
X357360Y164646D01*
X357310Y164557D01*
X357257Y164470D01*
X357201Y164385D01*
X357141Y164302D01*
X357078Y164222D01*
X357013Y164144D01*
X356944Y164069D01*
X356872Y163996D01*
X356797Y163926D01*
X356720Y163860D01*
X356640Y163796D01*
X356558Y163736D01*
X356474Y163678D01*
X356387Y163625D01*
X356298Y163574D01*
X356208Y163527D01*
X356115Y163484D01*
X356021Y163444D01*
X355926Y163408D01*
X355829Y163376D01*
X355731Y163347D01*
X355632Y163323D01*
X355532Y163302D01*
X355431Y163285D01*
X355330Y163272D01*
X355228Y163263D01*
X355127Y163258D01*
X355024Y163257D01*
X354922Y163260D01*
X354821Y163267D01*
X354719Y163278D01*
X354618Y163293D01*
X354518Y163312D01*
X354418Y163334D01*
X354320Y163361D01*
X354223Y163391D01*
X354126Y163426D01*
X354032Y163463D01*
X353938Y163505D01*
X353847Y163550D01*
X353757Y163599D01*
X353670Y163651D01*
X353584Y163707D01*
X353501Y163765D01*
X353420Y163828D01*
X353341Y163893D01*
X353265Y163961D01*
X353192Y164032D01*
X353122Y164106D01*
X353054Y164182D01*
X352990Y164262D01*
X352928Y164343D01*
X352870Y164427D01*
X352816Y164513D01*
X352764Y164601D01*
X352717Y164692D01*
X352672Y164784D01*
X352632Y164877D01*
X352595Y164972D01*
X352561Y165069D01*
X352532Y165166D01*
X352506Y165265D01*
X352485Y165365D01*
X352467Y165465D01*
X352453Y165567D01*
X352443Y165668D01*
X352437Y165770D01*
X352435Y165872D01*
D10*
X312000Y160000D02*
X312000Y193000D01*
X312000Y160000D02*
X312000Y155000D01*
X360000Y155000D01*
X360000Y160000D01*
X360000Y193000D01*
X312000Y193000D01*
D13*
X339554Y180036D02*
X339554Y173432D01*
X340288Y173432D02*
X338820Y173432D01*
X338820Y180036D02*
X340288Y180036D01*
X334105Y173432D02*
X332637Y173432D01*
X334105Y173432D02*
X334179Y173434D01*
X334254Y173440D01*
X334327Y173449D01*
X334401Y173462D01*
X334473Y173479D01*
X334544Y173499D01*
X334615Y173523D01*
X334684Y173551D01*
X334752Y173582D01*
X334817Y173616D01*
X334882Y173654D01*
X334944Y173695D01*
X335004Y173739D01*
X335061Y173786D01*
X335116Y173836D01*
X335169Y173889D01*
X335219Y173944D01*
X335266Y174001D01*
X335310Y174061D01*
X335351Y174123D01*
X335389Y174188D01*
X335423Y174254D01*
X335454Y174321D01*
X335482Y174390D01*
X335506Y174461D01*
X335526Y174532D01*
X335543Y174605D01*
X335556Y174678D01*
X335565Y174752D01*
X335571Y174826D01*
X335573Y174900D01*
X335572Y174900D02*
X335572Y178568D01*
X335570Y178642D01*
X335564Y178717D01*
X335555Y178790D01*
X335542Y178863D01*
X335525Y178936D01*
X335505Y179007D01*
X335481Y179078D01*
X335453Y179147D01*
X335422Y179214D01*
X335388Y179280D01*
X335350Y179345D01*
X335309Y179407D01*
X335265Y179467D01*
X335218Y179524D01*
X335168Y179579D01*
X335115Y179632D01*
X335060Y179682D01*
X335003Y179729D01*
X334943Y179773D01*
X334881Y179814D01*
X334816Y179852D01*
X334751Y179886D01*
X334683Y179917D01*
X334614Y179945D01*
X334544Y179969D01*
X334472Y179989D01*
X334400Y180006D01*
X334326Y180019D01*
X334253Y180028D01*
X334178Y180034D01*
X334104Y180036D01*
X334105Y180036D02*
X332637Y180036D01*
X327423Y180036D02*
X327344Y180034D01*
X327266Y180029D01*
X327188Y180019D01*
X327111Y180006D01*
X327034Y179989D01*
X326958Y179969D01*
X326883Y179945D01*
X326809Y179918D01*
X326737Y179887D01*
X326666Y179852D01*
X326598Y179815D01*
X326530Y179774D01*
X326465Y179730D01*
X326402Y179683D01*
X326342Y179633D01*
X326284Y179580D01*
X326228Y179524D01*
X326175Y179466D01*
X326125Y179406D01*
X326078Y179343D01*
X326034Y179278D01*
X325993Y179211D01*
X325956Y179142D01*
X325921Y179071D01*
X325890Y178999D01*
X325863Y178925D01*
X325839Y178850D01*
X325819Y178774D01*
X325802Y178697D01*
X325789Y178620D01*
X325779Y178542D01*
X325774Y178464D01*
X325772Y178385D01*
X327423Y180036D02*
X327512Y180034D01*
X327601Y180029D01*
X327689Y180019D01*
X327777Y180006D01*
X327864Y179990D01*
X327951Y179969D01*
X328036Y179945D01*
X328121Y179918D01*
X328204Y179887D01*
X328286Y179852D01*
X328367Y179814D01*
X328446Y179773D01*
X328522Y179729D01*
X328598Y179681D01*
X328671Y179630D01*
X328741Y179577D01*
X328810Y179520D01*
X328876Y179460D01*
X328939Y179398D01*
X329000Y179333D01*
X329058Y179266D01*
X329113Y179196D01*
X329166Y179124D01*
X329215Y179050D01*
X329261Y178974D01*
X329303Y178896D01*
X329343Y178816D01*
X329379Y178735D01*
X329412Y178652D01*
X329441Y178568D01*
X326322Y177101D02*
X326266Y177157D01*
X326212Y177216D01*
X326161Y177277D01*
X326112Y177341D01*
X326067Y177406D01*
X326024Y177474D01*
X325985Y177543D01*
X325948Y177614D01*
X325915Y177687D01*
X325886Y177761D01*
X325859Y177836D01*
X325836Y177912D01*
X325817Y177990D01*
X325801Y178068D01*
X325788Y178146D01*
X325779Y178226D01*
X325774Y178305D01*
X325772Y178385D01*
X326322Y177101D02*
X329441Y173432D01*
X325772Y173432D01*
D14*
X284600Y107810D02*
X284600Y100190D01*
X271400Y100440D02*
X271400Y107810D01*
D15*
X278012Y96829D03*
X278012Y111307D03*
D13*
X283453Y123748D02*
X283453Y130352D01*
X281618Y130352D01*
X281533Y130350D01*
X281449Y130344D01*
X281365Y130334D01*
X281281Y130321D01*
X281198Y130303D01*
X281116Y130282D01*
X281035Y130257D01*
X280955Y130228D01*
X280877Y130196D01*
X280801Y130160D01*
X280726Y130120D01*
X280653Y130077D01*
X280582Y130031D01*
X280513Y129982D01*
X280446Y129929D01*
X280382Y129873D01*
X280321Y129815D01*
X280263Y129754D01*
X280207Y129690D01*
X280154Y129623D01*
X280105Y129554D01*
X280059Y129483D01*
X280016Y129410D01*
X279976Y129335D01*
X279940Y129259D01*
X279908Y129181D01*
X279879Y129101D01*
X279854Y129020D01*
X279833Y128938D01*
X279815Y128855D01*
X279802Y128771D01*
X279792Y128687D01*
X279786Y128603D01*
X279784Y128518D01*
X279786Y128433D01*
X279792Y128349D01*
X279802Y128265D01*
X279815Y128181D01*
X279833Y128098D01*
X279854Y128016D01*
X279879Y127935D01*
X279908Y127855D01*
X279940Y127777D01*
X279976Y127701D01*
X280016Y127626D01*
X280059Y127553D01*
X280105Y127482D01*
X280154Y127413D01*
X280207Y127346D01*
X280263Y127282D01*
X280321Y127221D01*
X280382Y127163D01*
X280446Y127107D01*
X280513Y127054D01*
X280582Y127005D01*
X280653Y126959D01*
X280726Y126916D01*
X280801Y126876D01*
X280877Y126840D01*
X280955Y126808D01*
X281035Y126779D01*
X281116Y126754D01*
X281198Y126733D01*
X281281Y126715D01*
X281365Y126702D01*
X281449Y126692D01*
X281533Y126686D01*
X281618Y126684D01*
X281618Y126683D02*
X283453Y126683D01*
X281251Y126683D02*
X279784Y123748D01*
X274198Y130352D02*
X274119Y130350D01*
X274041Y130345D01*
X273963Y130335D01*
X273886Y130322D01*
X273809Y130305D01*
X273733Y130285D01*
X273658Y130261D01*
X273584Y130234D01*
X273512Y130203D01*
X273441Y130168D01*
X273373Y130131D01*
X273305Y130090D01*
X273240Y130046D01*
X273177Y129999D01*
X273117Y129949D01*
X273059Y129896D01*
X273003Y129840D01*
X272950Y129782D01*
X272900Y129722D01*
X272853Y129659D01*
X272809Y129594D01*
X272768Y129527D01*
X272731Y129458D01*
X272696Y129387D01*
X272665Y129315D01*
X272638Y129241D01*
X272614Y129166D01*
X272594Y129090D01*
X272577Y129013D01*
X272564Y128936D01*
X272554Y128858D01*
X272549Y128780D01*
X272547Y128701D01*
X274198Y130352D02*
X274287Y130350D01*
X274376Y130345D01*
X274464Y130335D01*
X274552Y130322D01*
X274639Y130306D01*
X274726Y130285D01*
X274811Y130261D01*
X274896Y130234D01*
X274979Y130203D01*
X275061Y130168D01*
X275142Y130130D01*
X275221Y130089D01*
X275297Y130045D01*
X275373Y129997D01*
X275446Y129946D01*
X275516Y129893D01*
X275585Y129836D01*
X275651Y129776D01*
X275714Y129714D01*
X275775Y129649D01*
X275833Y129582D01*
X275888Y129512D01*
X275941Y129440D01*
X275990Y129366D01*
X276036Y129290D01*
X276078Y129212D01*
X276118Y129132D01*
X276154Y129051D01*
X276187Y128968D01*
X276216Y128884D01*
X273098Y127417D02*
X273042Y127473D01*
X272988Y127532D01*
X272937Y127593D01*
X272888Y127657D01*
X272843Y127722D01*
X272800Y127790D01*
X272761Y127859D01*
X272724Y127930D01*
X272691Y128003D01*
X272662Y128077D01*
X272635Y128152D01*
X272612Y128228D01*
X272593Y128306D01*
X272577Y128384D01*
X272564Y128462D01*
X272555Y128542D01*
X272550Y128621D01*
X272548Y128701D01*
X273098Y127417D02*
X276216Y123748D01*
X272547Y123748D01*
D14*
X307841Y108597D02*
X307841Y100977D01*
X294641Y101227D02*
X294641Y108597D01*
D15*
X301253Y97615D03*
X301253Y112093D03*
D13*
X306694Y124535D02*
X306694Y131139D01*
X304860Y131139D01*
X304860Y131138D02*
X304775Y131136D01*
X304691Y131130D01*
X304607Y131120D01*
X304523Y131107D01*
X304440Y131089D01*
X304358Y131068D01*
X304277Y131043D01*
X304197Y131014D01*
X304119Y130982D01*
X304043Y130946D01*
X303968Y130906D01*
X303895Y130863D01*
X303824Y130817D01*
X303755Y130768D01*
X303688Y130715D01*
X303624Y130659D01*
X303563Y130601D01*
X303505Y130540D01*
X303449Y130476D01*
X303396Y130409D01*
X303347Y130340D01*
X303301Y130269D01*
X303258Y130196D01*
X303218Y130121D01*
X303182Y130045D01*
X303150Y129967D01*
X303121Y129887D01*
X303096Y129806D01*
X303075Y129724D01*
X303057Y129641D01*
X303044Y129557D01*
X303034Y129473D01*
X303028Y129389D01*
X303026Y129304D01*
X303028Y129219D01*
X303034Y129135D01*
X303044Y129051D01*
X303057Y128967D01*
X303075Y128884D01*
X303096Y128802D01*
X303121Y128721D01*
X303150Y128641D01*
X303182Y128563D01*
X303218Y128487D01*
X303258Y128412D01*
X303301Y128339D01*
X303347Y128268D01*
X303396Y128199D01*
X303449Y128132D01*
X303505Y128068D01*
X303563Y128007D01*
X303624Y127949D01*
X303688Y127893D01*
X303755Y127840D01*
X303824Y127791D01*
X303895Y127745D01*
X303968Y127702D01*
X304043Y127662D01*
X304119Y127626D01*
X304197Y127594D01*
X304277Y127565D01*
X304358Y127540D01*
X304440Y127519D01*
X304523Y127501D01*
X304607Y127488D01*
X304691Y127478D01*
X304775Y127472D01*
X304860Y127470D01*
X306694Y127470D01*
X304493Y127470D02*
X303025Y124535D01*
X299458Y128204D02*
X297256Y128204D01*
X297182Y128202D01*
X297107Y128196D01*
X297034Y128187D01*
X296960Y128174D01*
X296888Y128157D01*
X296817Y128137D01*
X296746Y128113D01*
X296677Y128085D01*
X296610Y128054D01*
X296544Y128020D01*
X296479Y127982D01*
X296417Y127941D01*
X296357Y127897D01*
X296300Y127850D01*
X296245Y127800D01*
X296192Y127747D01*
X296142Y127692D01*
X296095Y127635D01*
X296051Y127575D01*
X296010Y127513D01*
X295972Y127448D01*
X295938Y127382D01*
X295907Y127315D01*
X295879Y127246D01*
X295855Y127175D01*
X295835Y127104D01*
X295818Y127032D01*
X295805Y126958D01*
X295796Y126885D01*
X295790Y126810D01*
X295788Y126736D01*
X295789Y126736D02*
X295789Y126369D01*
X295791Y126284D01*
X295797Y126200D01*
X295807Y126116D01*
X295820Y126032D01*
X295838Y125949D01*
X295859Y125867D01*
X295884Y125786D01*
X295913Y125706D01*
X295945Y125628D01*
X295981Y125552D01*
X296021Y125477D01*
X296064Y125404D01*
X296110Y125333D01*
X296159Y125264D01*
X296212Y125197D01*
X296268Y125133D01*
X296326Y125072D01*
X296387Y125014D01*
X296451Y124958D01*
X296518Y124905D01*
X296587Y124856D01*
X296658Y124810D01*
X296731Y124767D01*
X296806Y124727D01*
X296882Y124691D01*
X296960Y124659D01*
X297040Y124630D01*
X297121Y124605D01*
X297203Y124584D01*
X297286Y124566D01*
X297370Y124553D01*
X297454Y124543D01*
X297538Y124537D01*
X297623Y124535D01*
X297708Y124537D01*
X297792Y124543D01*
X297876Y124553D01*
X297960Y124566D01*
X298043Y124584D01*
X298125Y124605D01*
X298206Y124630D01*
X298286Y124659D01*
X298364Y124691D01*
X298440Y124727D01*
X298515Y124767D01*
X298588Y124810D01*
X298659Y124856D01*
X298728Y124905D01*
X298795Y124958D01*
X298859Y125014D01*
X298920Y125072D01*
X298978Y125133D01*
X299034Y125197D01*
X299087Y125264D01*
X299136Y125333D01*
X299182Y125404D01*
X299225Y125477D01*
X299265Y125552D01*
X299301Y125628D01*
X299333Y125706D01*
X299362Y125786D01*
X299387Y125867D01*
X299408Y125949D01*
X299426Y126032D01*
X299439Y126116D01*
X299449Y126200D01*
X299455Y126284D01*
X299457Y126369D01*
X299458Y126369D02*
X299458Y128204D01*
X299456Y128311D01*
X299450Y128418D01*
X299440Y128525D01*
X299427Y128631D01*
X299409Y128737D01*
X299388Y128842D01*
X299363Y128946D01*
X299334Y129050D01*
X299301Y129152D01*
X299264Y129252D01*
X299224Y129352D01*
X299180Y129450D01*
X299133Y129546D01*
X299082Y129640D01*
X299028Y129733D01*
X298971Y129823D01*
X298910Y129912D01*
X298846Y129998D01*
X298779Y130081D01*
X298709Y130163D01*
X298636Y130241D01*
X298560Y130317D01*
X298482Y130390D01*
X298400Y130460D01*
X298317Y130527D01*
X298231Y130591D01*
X298142Y130652D01*
X298052Y130709D01*
X297959Y130763D01*
X297865Y130814D01*
X297769Y130861D01*
X297671Y130905D01*
X297572Y130945D01*
X297471Y130982D01*
X297369Y131015D01*
X297265Y131044D01*
X297161Y131069D01*
X297056Y131090D01*
X296950Y131108D01*
X296844Y131121D01*
X296737Y131131D01*
X296630Y131137D01*
X296523Y131139D01*
D14*
X331190Y231600D02*
X338810Y231600D01*
X338560Y218400D02*
X331190Y218400D01*
D16*
X342172Y225012D03*
X327694Y225012D03*
D13*
X307648Y223035D02*
X307648Y221567D01*
X307650Y221493D01*
X307656Y221418D01*
X307665Y221345D01*
X307678Y221271D01*
X307695Y221199D01*
X307715Y221128D01*
X307739Y221057D01*
X307767Y220988D01*
X307798Y220921D01*
X307832Y220855D01*
X307870Y220790D01*
X307911Y220728D01*
X307955Y220668D01*
X308002Y220611D01*
X308052Y220556D01*
X308105Y220503D01*
X308160Y220453D01*
X308217Y220406D01*
X308277Y220362D01*
X308339Y220321D01*
X308404Y220283D01*
X308470Y220249D01*
X308537Y220218D01*
X308606Y220190D01*
X308677Y220166D01*
X308748Y220146D01*
X308820Y220129D01*
X308894Y220116D01*
X308967Y220107D01*
X309042Y220101D01*
X309116Y220099D01*
X309116Y220100D02*
X312784Y220100D01*
X312784Y220099D02*
X312858Y220101D01*
X312933Y220107D01*
X313006Y220116D01*
X313080Y220129D01*
X313152Y220146D01*
X313223Y220166D01*
X313294Y220190D01*
X313363Y220218D01*
X313430Y220249D01*
X313496Y220283D01*
X313561Y220321D01*
X313623Y220362D01*
X313683Y220406D01*
X313740Y220453D01*
X313795Y220503D01*
X313848Y220556D01*
X313898Y220611D01*
X313945Y220668D01*
X313989Y220728D01*
X314030Y220790D01*
X314068Y220855D01*
X314102Y220920D01*
X314133Y220988D01*
X314161Y221057D01*
X314185Y221128D01*
X314205Y221199D01*
X314222Y221271D01*
X314235Y221345D01*
X314244Y221418D01*
X314250Y221493D01*
X314252Y221567D01*
X314252Y223035D01*
X310583Y227699D02*
X310583Y229900D01*
X310583Y227699D02*
X310585Y227625D01*
X310591Y227550D01*
X310600Y227477D01*
X310613Y227403D01*
X310630Y227331D01*
X310650Y227260D01*
X310674Y227189D01*
X310702Y227120D01*
X310733Y227053D01*
X310767Y226987D01*
X310805Y226922D01*
X310846Y226860D01*
X310890Y226800D01*
X310937Y226743D01*
X310987Y226688D01*
X311040Y226635D01*
X311095Y226585D01*
X311152Y226538D01*
X311212Y226494D01*
X311274Y226453D01*
X311339Y226415D01*
X311405Y226381D01*
X311472Y226350D01*
X311541Y226322D01*
X311612Y226298D01*
X311683Y226278D01*
X311755Y226261D01*
X311829Y226248D01*
X311902Y226239D01*
X311977Y226233D01*
X312051Y226231D01*
X312418Y226231D01*
X312418Y226232D02*
X312503Y226234D01*
X312587Y226240D01*
X312671Y226250D01*
X312755Y226263D01*
X312838Y226281D01*
X312920Y226302D01*
X313001Y226327D01*
X313081Y226356D01*
X313159Y226388D01*
X313235Y226424D01*
X313310Y226464D01*
X313383Y226507D01*
X313454Y226553D01*
X313523Y226602D01*
X313590Y226655D01*
X313654Y226711D01*
X313715Y226769D01*
X313773Y226830D01*
X313829Y226894D01*
X313882Y226961D01*
X313931Y227030D01*
X313977Y227101D01*
X314020Y227174D01*
X314060Y227249D01*
X314096Y227325D01*
X314128Y227403D01*
X314157Y227483D01*
X314182Y227564D01*
X314203Y227646D01*
X314221Y227729D01*
X314234Y227813D01*
X314244Y227897D01*
X314250Y227981D01*
X314252Y228066D01*
X314250Y228151D01*
X314244Y228235D01*
X314234Y228319D01*
X314221Y228403D01*
X314203Y228486D01*
X314182Y228568D01*
X314157Y228649D01*
X314128Y228729D01*
X314096Y228807D01*
X314060Y228883D01*
X314020Y228958D01*
X313977Y229031D01*
X313931Y229102D01*
X313882Y229171D01*
X313829Y229238D01*
X313773Y229302D01*
X313715Y229363D01*
X313654Y229421D01*
X313590Y229477D01*
X313523Y229530D01*
X313454Y229579D01*
X313383Y229625D01*
X313310Y229668D01*
X313235Y229708D01*
X313159Y229744D01*
X313081Y229776D01*
X313001Y229805D01*
X312920Y229830D01*
X312838Y229851D01*
X312755Y229869D01*
X312671Y229882D01*
X312587Y229892D01*
X312503Y229898D01*
X312418Y229900D01*
X310583Y229900D01*
X310476Y229898D01*
X310369Y229892D01*
X310262Y229882D01*
X310156Y229869D01*
X310050Y229851D01*
X309945Y229830D01*
X309841Y229805D01*
X309737Y229776D01*
X309635Y229743D01*
X309535Y229706D01*
X309435Y229666D01*
X309337Y229622D01*
X309241Y229575D01*
X309147Y229524D01*
X309054Y229470D01*
X308964Y229413D01*
X308875Y229352D01*
X308789Y229288D01*
X308706Y229221D01*
X308624Y229151D01*
X308546Y229078D01*
X308470Y229002D01*
X308397Y228924D01*
X308327Y228842D01*
X308260Y228759D01*
X308196Y228673D01*
X308135Y228584D01*
X308078Y228494D01*
X308024Y228401D01*
X307973Y228307D01*
X307926Y228211D01*
X307882Y228113D01*
X307842Y228013D01*
X307805Y227913D01*
X307772Y227811D01*
X307743Y227707D01*
X307718Y227603D01*
X307697Y227498D01*
X307679Y227392D01*
X307666Y227286D01*
X307656Y227179D01*
X307650Y227072D01*
X307648Y226965D01*
D14*
X227424Y104810D02*
X227424Y97190D01*
X240624Y97190D02*
X240624Y104560D01*
D15*
X234013Y108172D03*
X234013Y93694D03*
D13*
X235989Y74648D02*
X237457Y74648D01*
X237531Y74650D01*
X237606Y74656D01*
X237679Y74665D01*
X237753Y74678D01*
X237825Y74695D01*
X237896Y74715D01*
X237967Y74739D01*
X238036Y74767D01*
X238104Y74798D01*
X238169Y74832D01*
X238234Y74870D01*
X238296Y74911D01*
X238356Y74955D01*
X238413Y75002D01*
X238468Y75052D01*
X238521Y75105D01*
X238571Y75160D01*
X238618Y75217D01*
X238662Y75277D01*
X238703Y75339D01*
X238741Y75404D01*
X238775Y75470D01*
X238806Y75537D01*
X238834Y75606D01*
X238858Y75677D01*
X238878Y75748D01*
X238895Y75821D01*
X238908Y75894D01*
X238917Y75968D01*
X238923Y76042D01*
X238925Y76116D01*
X238924Y76116D02*
X238924Y79784D01*
X238925Y79784D02*
X238923Y79858D01*
X238917Y79933D01*
X238908Y80006D01*
X238895Y80079D01*
X238878Y80152D01*
X238858Y80223D01*
X238834Y80294D01*
X238806Y80363D01*
X238775Y80430D01*
X238741Y80496D01*
X238703Y80561D01*
X238662Y80623D01*
X238618Y80683D01*
X238571Y80740D01*
X238521Y80795D01*
X238468Y80848D01*
X238413Y80898D01*
X238356Y80945D01*
X238296Y80989D01*
X238234Y81030D01*
X238169Y81068D01*
X238104Y81102D01*
X238036Y81133D01*
X237967Y81161D01*
X237897Y81185D01*
X237825Y81205D01*
X237753Y81222D01*
X237679Y81235D01*
X237606Y81244D01*
X237531Y81250D01*
X237457Y81252D01*
X235989Y81252D01*
X232793Y81252D02*
X232793Y80518D01*
X232793Y81252D02*
X229124Y81252D01*
X230958Y74648D01*
D14*
X330190Y107600D02*
X337810Y107600D01*
X337560Y94400D02*
X330190Y94400D01*
D16*
X341172Y101012D03*
X326694Y101012D03*
D13*
X353648Y95547D02*
X360252Y95547D01*
X360252Y97382D01*
X360250Y97467D01*
X360244Y97551D01*
X360234Y97635D01*
X360221Y97719D01*
X360203Y97802D01*
X360182Y97884D01*
X360157Y97965D01*
X360128Y98045D01*
X360096Y98123D01*
X360060Y98199D01*
X360020Y98274D01*
X359977Y98347D01*
X359931Y98418D01*
X359882Y98487D01*
X359829Y98554D01*
X359773Y98618D01*
X359715Y98679D01*
X359654Y98737D01*
X359590Y98793D01*
X359523Y98846D01*
X359454Y98895D01*
X359383Y98941D01*
X359310Y98984D01*
X359235Y99024D01*
X359159Y99060D01*
X359081Y99092D01*
X359001Y99121D01*
X358920Y99146D01*
X358838Y99167D01*
X358755Y99185D01*
X358671Y99198D01*
X358587Y99208D01*
X358503Y99214D01*
X358418Y99216D01*
X358333Y99214D01*
X358249Y99208D01*
X358165Y99198D01*
X358081Y99185D01*
X357998Y99167D01*
X357916Y99146D01*
X357835Y99121D01*
X357755Y99092D01*
X357677Y99060D01*
X357601Y99024D01*
X357526Y98984D01*
X357453Y98941D01*
X357382Y98895D01*
X357313Y98846D01*
X357246Y98793D01*
X357182Y98737D01*
X357121Y98679D01*
X357063Y98618D01*
X357007Y98554D01*
X356954Y98487D01*
X356905Y98418D01*
X356859Y98347D01*
X356816Y98274D01*
X356776Y98199D01*
X356740Y98123D01*
X356708Y98045D01*
X356679Y97965D01*
X356654Y97884D01*
X356633Y97802D01*
X356615Y97719D01*
X356602Y97635D01*
X356592Y97551D01*
X356586Y97467D01*
X356584Y97382D01*
X356583Y97382D02*
X356583Y95547D01*
X356583Y97749D02*
X353648Y99216D01*
X353648Y102784D02*
X353648Y104985D01*
X353650Y105059D01*
X353656Y105134D01*
X353665Y105207D01*
X353678Y105281D01*
X353695Y105353D01*
X353715Y105424D01*
X353739Y105495D01*
X353767Y105564D01*
X353798Y105631D01*
X353832Y105697D01*
X353870Y105762D01*
X353911Y105824D01*
X353955Y105884D01*
X354002Y105941D01*
X354052Y105996D01*
X354105Y106049D01*
X354160Y106099D01*
X354217Y106146D01*
X354277Y106190D01*
X354339Y106231D01*
X354404Y106269D01*
X354469Y106303D01*
X354537Y106334D01*
X354606Y106362D01*
X354677Y106386D01*
X354748Y106406D01*
X354820Y106423D01*
X354894Y106436D01*
X354967Y106445D01*
X355042Y106451D01*
X355116Y106453D01*
X355849Y106453D01*
X355923Y106451D01*
X355998Y106445D01*
X356071Y106436D01*
X356145Y106423D01*
X356217Y106406D01*
X356288Y106386D01*
X356359Y106362D01*
X356428Y106334D01*
X356495Y106303D01*
X356561Y106269D01*
X356626Y106231D01*
X356688Y106190D01*
X356748Y106146D01*
X356805Y106099D01*
X356860Y106049D01*
X356913Y105996D01*
X356963Y105941D01*
X357010Y105884D01*
X357054Y105824D01*
X357095Y105762D01*
X357133Y105697D01*
X357167Y105631D01*
X357198Y105564D01*
X357226Y105495D01*
X357250Y105424D01*
X357270Y105353D01*
X357287Y105281D01*
X357300Y105207D01*
X357309Y105134D01*
X357315Y105059D01*
X357317Y104985D01*
X357317Y102784D01*
X360252Y102784D01*
X360252Y106453D01*
D14*
X249400Y107810D02*
X249400Y100190D01*
X262600Y100190D02*
X262600Y107560D01*
D15*
X255989Y111172D03*
X255989Y96694D03*
D13*
X261453Y84252D02*
X261453Y77648D01*
X261453Y84252D02*
X259618Y84252D01*
X259533Y84250D01*
X259449Y84244D01*
X259365Y84234D01*
X259281Y84221D01*
X259198Y84203D01*
X259116Y84182D01*
X259035Y84157D01*
X258955Y84128D01*
X258877Y84096D01*
X258801Y84060D01*
X258726Y84020D01*
X258653Y83977D01*
X258582Y83931D01*
X258513Y83882D01*
X258446Y83829D01*
X258382Y83773D01*
X258321Y83715D01*
X258263Y83654D01*
X258207Y83590D01*
X258154Y83523D01*
X258105Y83454D01*
X258059Y83383D01*
X258016Y83310D01*
X257976Y83235D01*
X257940Y83159D01*
X257908Y83081D01*
X257879Y83001D01*
X257854Y82920D01*
X257833Y82838D01*
X257815Y82755D01*
X257802Y82671D01*
X257792Y82587D01*
X257786Y82503D01*
X257784Y82418D01*
X257786Y82333D01*
X257792Y82249D01*
X257802Y82165D01*
X257815Y82081D01*
X257833Y81998D01*
X257854Y81916D01*
X257879Y81835D01*
X257908Y81755D01*
X257940Y81677D01*
X257976Y81601D01*
X258016Y81526D01*
X258059Y81453D01*
X258105Y81382D01*
X258154Y81313D01*
X258207Y81246D01*
X258263Y81182D01*
X258321Y81121D01*
X258382Y81063D01*
X258446Y81007D01*
X258513Y80954D01*
X258582Y80905D01*
X258653Y80859D01*
X258726Y80816D01*
X258801Y80776D01*
X258877Y80740D01*
X258955Y80708D01*
X259035Y80679D01*
X259116Y80654D01*
X259198Y80633D01*
X259281Y80615D01*
X259365Y80602D01*
X259449Y80592D01*
X259533Y80586D01*
X259618Y80584D01*
X259618Y80583D02*
X261453Y80583D01*
X259251Y80583D02*
X257784Y77648D01*
X254216Y77648D02*
X252382Y77648D01*
X252297Y77650D01*
X252213Y77656D01*
X252129Y77666D01*
X252045Y77679D01*
X251962Y77697D01*
X251880Y77718D01*
X251799Y77743D01*
X251719Y77772D01*
X251641Y77804D01*
X251565Y77840D01*
X251490Y77880D01*
X251417Y77923D01*
X251346Y77969D01*
X251277Y78018D01*
X251210Y78071D01*
X251146Y78127D01*
X251085Y78185D01*
X251027Y78246D01*
X250971Y78310D01*
X250918Y78377D01*
X250869Y78446D01*
X250823Y78517D01*
X250780Y78590D01*
X250740Y78665D01*
X250704Y78741D01*
X250672Y78819D01*
X250643Y78899D01*
X250618Y78980D01*
X250597Y79062D01*
X250579Y79145D01*
X250566Y79229D01*
X250556Y79313D01*
X250550Y79397D01*
X250548Y79482D01*
X250550Y79567D01*
X250556Y79651D01*
X250566Y79735D01*
X250579Y79819D01*
X250597Y79902D01*
X250618Y79984D01*
X250643Y80065D01*
X250672Y80145D01*
X250704Y80223D01*
X250740Y80299D01*
X250780Y80374D01*
X250823Y80447D01*
X250869Y80518D01*
X250918Y80587D01*
X250971Y80654D01*
X251027Y80718D01*
X251085Y80779D01*
X251146Y80837D01*
X251210Y80893D01*
X251277Y80946D01*
X251346Y80995D01*
X251417Y81041D01*
X251490Y81084D01*
X251565Y81124D01*
X251641Y81160D01*
X251719Y81192D01*
X251799Y81221D01*
X251880Y81246D01*
X251962Y81267D01*
X252045Y81285D01*
X252129Y81298D01*
X252213Y81308D01*
X252297Y81314D01*
X252382Y81316D01*
X252015Y84252D02*
X254216Y84252D01*
X252015Y84252D02*
X251939Y84250D01*
X251864Y84244D01*
X251789Y84235D01*
X251715Y84221D01*
X251641Y84204D01*
X251569Y84182D01*
X251497Y84158D01*
X251427Y84129D01*
X251359Y84097D01*
X251292Y84062D01*
X251227Y84023D01*
X251164Y83980D01*
X251104Y83935D01*
X251046Y83887D01*
X250990Y83835D01*
X250938Y83781D01*
X250888Y83724D01*
X250841Y83665D01*
X250797Y83604D01*
X250756Y83540D01*
X250719Y83474D01*
X250685Y83406D01*
X250655Y83337D01*
X250628Y83266D01*
X250605Y83194D01*
X250586Y83121D01*
X250571Y83047D01*
X250559Y82972D01*
X250551Y82897D01*
X250547Y82822D01*
X250547Y82746D01*
X250551Y82671D01*
X250559Y82596D01*
X250571Y82521D01*
X250586Y82447D01*
X250605Y82374D01*
X250628Y82302D01*
X250655Y82231D01*
X250685Y82162D01*
X250719Y82094D01*
X250756Y82028D01*
X250797Y81964D01*
X250841Y81903D01*
X250888Y81844D01*
X250938Y81787D01*
X250990Y81733D01*
X251046Y81681D01*
X251104Y81633D01*
X251164Y81588D01*
X251227Y81545D01*
X251292Y81506D01*
X251359Y81471D01*
X251427Y81439D01*
X251497Y81410D01*
X251569Y81386D01*
X251641Y81364D01*
X251715Y81347D01*
X251789Y81333D01*
X251864Y81324D01*
X251939Y81318D01*
X252015Y81316D01*
X252015Y81317D02*
X253482Y81317D01*
D14*
X330190Y129600D02*
X337810Y129600D01*
X337560Y116400D02*
X330190Y116400D01*
D16*
X341172Y123012D03*
X326694Y123012D03*
D13*
X352648Y121035D02*
X352648Y119567D01*
X352650Y119493D01*
X352656Y119418D01*
X352665Y119345D01*
X352678Y119271D01*
X352695Y119199D01*
X352715Y119128D01*
X352739Y119057D01*
X352767Y118988D01*
X352798Y118921D01*
X352832Y118855D01*
X352870Y118790D01*
X352911Y118728D01*
X352955Y118668D01*
X353002Y118611D01*
X353052Y118556D01*
X353105Y118503D01*
X353160Y118453D01*
X353217Y118406D01*
X353277Y118362D01*
X353339Y118321D01*
X353404Y118283D01*
X353470Y118249D01*
X353537Y118218D01*
X353606Y118190D01*
X353677Y118166D01*
X353748Y118146D01*
X353820Y118129D01*
X353894Y118116D01*
X353967Y118107D01*
X354042Y118101D01*
X354116Y118099D01*
X354116Y118100D02*
X357784Y118100D01*
X357784Y118099D02*
X357858Y118101D01*
X357933Y118107D01*
X358006Y118116D01*
X358080Y118129D01*
X358152Y118146D01*
X358223Y118166D01*
X358294Y118190D01*
X358363Y118218D01*
X358430Y118249D01*
X358496Y118283D01*
X358561Y118321D01*
X358623Y118362D01*
X358683Y118406D01*
X358740Y118453D01*
X358795Y118503D01*
X358848Y118556D01*
X358898Y118611D01*
X358945Y118668D01*
X358989Y118728D01*
X359030Y118790D01*
X359068Y118855D01*
X359102Y118920D01*
X359133Y118988D01*
X359161Y119057D01*
X359185Y119128D01*
X359205Y119199D01*
X359222Y119271D01*
X359235Y119345D01*
X359244Y119418D01*
X359250Y119493D01*
X359252Y119567D01*
X359252Y121035D01*
X354482Y124232D02*
X354567Y124234D01*
X354651Y124240D01*
X354735Y124250D01*
X354819Y124263D01*
X354902Y124281D01*
X354984Y124302D01*
X355065Y124327D01*
X355145Y124356D01*
X355223Y124388D01*
X355299Y124424D01*
X355374Y124464D01*
X355447Y124507D01*
X355518Y124553D01*
X355587Y124602D01*
X355654Y124655D01*
X355718Y124711D01*
X355779Y124769D01*
X355837Y124830D01*
X355893Y124894D01*
X355946Y124961D01*
X355995Y125030D01*
X356041Y125101D01*
X356084Y125174D01*
X356124Y125249D01*
X356160Y125325D01*
X356192Y125403D01*
X356221Y125483D01*
X356246Y125564D01*
X356267Y125646D01*
X356285Y125729D01*
X356298Y125813D01*
X356308Y125897D01*
X356314Y125981D01*
X356316Y126066D01*
X356314Y126151D01*
X356308Y126235D01*
X356298Y126319D01*
X356285Y126403D01*
X356267Y126486D01*
X356246Y126568D01*
X356221Y126649D01*
X356192Y126729D01*
X356160Y126807D01*
X356124Y126883D01*
X356084Y126958D01*
X356041Y127031D01*
X355995Y127102D01*
X355946Y127171D01*
X355893Y127238D01*
X355837Y127302D01*
X355779Y127363D01*
X355718Y127421D01*
X355654Y127477D01*
X355587Y127530D01*
X355518Y127579D01*
X355447Y127625D01*
X355374Y127668D01*
X355299Y127708D01*
X355223Y127744D01*
X355145Y127776D01*
X355065Y127805D01*
X354984Y127830D01*
X354902Y127851D01*
X354819Y127869D01*
X354735Y127882D01*
X354651Y127892D01*
X354567Y127898D01*
X354482Y127900D01*
X354397Y127898D01*
X354313Y127892D01*
X354229Y127882D01*
X354145Y127869D01*
X354062Y127851D01*
X353980Y127830D01*
X353899Y127805D01*
X353819Y127776D01*
X353741Y127744D01*
X353665Y127708D01*
X353590Y127668D01*
X353517Y127625D01*
X353446Y127579D01*
X353377Y127530D01*
X353310Y127477D01*
X353246Y127421D01*
X353185Y127363D01*
X353127Y127302D01*
X353071Y127238D01*
X353018Y127171D01*
X352969Y127102D01*
X352923Y127031D01*
X352880Y126958D01*
X352840Y126883D01*
X352804Y126807D01*
X352772Y126729D01*
X352743Y126649D01*
X352718Y126568D01*
X352697Y126486D01*
X352679Y126403D01*
X352666Y126319D01*
X352656Y126235D01*
X352650Y126151D01*
X352648Y126066D01*
X352650Y125981D01*
X352656Y125897D01*
X352666Y125813D01*
X352679Y125729D01*
X352697Y125646D01*
X352718Y125564D01*
X352743Y125483D01*
X352772Y125403D01*
X352804Y125325D01*
X352840Y125249D01*
X352880Y125174D01*
X352923Y125101D01*
X352969Y125030D01*
X353018Y124961D01*
X353071Y124894D01*
X353127Y124830D01*
X353185Y124769D01*
X353246Y124711D01*
X353310Y124655D01*
X353377Y124602D01*
X353446Y124553D01*
X353517Y124507D01*
X353590Y124464D01*
X353665Y124424D01*
X353741Y124388D01*
X353819Y124356D01*
X353899Y124327D01*
X353980Y124302D01*
X354062Y124281D01*
X354145Y124263D01*
X354229Y124250D01*
X354313Y124240D01*
X354397Y124234D01*
X354482Y124232D01*
X357784Y124598D02*
X357860Y124600D01*
X357935Y124606D01*
X358010Y124615D01*
X358084Y124629D01*
X358158Y124646D01*
X358230Y124668D01*
X358302Y124692D01*
X358372Y124721D01*
X358440Y124753D01*
X358507Y124788D01*
X358572Y124827D01*
X358635Y124870D01*
X358695Y124915D01*
X358753Y124963D01*
X358809Y125015D01*
X358861Y125069D01*
X358911Y125126D01*
X358958Y125185D01*
X359002Y125246D01*
X359043Y125310D01*
X359080Y125376D01*
X359114Y125444D01*
X359144Y125513D01*
X359171Y125584D01*
X359194Y125656D01*
X359213Y125729D01*
X359228Y125803D01*
X359240Y125878D01*
X359248Y125953D01*
X359252Y126028D01*
X359252Y126104D01*
X359248Y126179D01*
X359240Y126254D01*
X359228Y126329D01*
X359213Y126403D01*
X359194Y126476D01*
X359171Y126548D01*
X359144Y126619D01*
X359114Y126688D01*
X359080Y126756D01*
X359043Y126822D01*
X359002Y126886D01*
X358958Y126947D01*
X358911Y127006D01*
X358861Y127063D01*
X358809Y127117D01*
X358753Y127169D01*
X358695Y127217D01*
X358635Y127262D01*
X358572Y127305D01*
X358507Y127344D01*
X358440Y127379D01*
X358372Y127411D01*
X358302Y127440D01*
X358230Y127464D01*
X358158Y127486D01*
X358084Y127503D01*
X358010Y127517D01*
X357935Y127526D01*
X357860Y127532D01*
X357784Y127534D01*
X357708Y127532D01*
X357633Y127526D01*
X357558Y127517D01*
X357484Y127503D01*
X357410Y127486D01*
X357338Y127464D01*
X357266Y127440D01*
X357196Y127411D01*
X357128Y127379D01*
X357061Y127344D01*
X356996Y127305D01*
X356933Y127262D01*
X356873Y127217D01*
X356815Y127169D01*
X356759Y127117D01*
X356707Y127063D01*
X356657Y127006D01*
X356610Y126947D01*
X356566Y126886D01*
X356525Y126822D01*
X356488Y126756D01*
X356454Y126688D01*
X356424Y126619D01*
X356397Y126548D01*
X356374Y126476D01*
X356355Y126403D01*
X356340Y126329D01*
X356328Y126254D01*
X356320Y126179D01*
X356316Y126104D01*
X356316Y126028D01*
X356320Y125953D01*
X356328Y125878D01*
X356340Y125803D01*
X356355Y125729D01*
X356374Y125656D01*
X356397Y125584D01*
X356424Y125513D01*
X356454Y125444D01*
X356488Y125376D01*
X356525Y125310D01*
X356566Y125246D01*
X356610Y125185D01*
X356657Y125126D01*
X356707Y125069D01*
X356759Y125015D01*
X356815Y124963D01*
X356873Y124915D01*
X356933Y124870D01*
X356996Y124827D01*
X357061Y124788D01*
X357128Y124753D01*
X357196Y124721D01*
X357266Y124692D01*
X357338Y124668D01*
X357410Y124646D01*
X357484Y124629D01*
X357558Y124615D01*
X357633Y124606D01*
X357708Y124600D01*
X357784Y124598D01*
D14*
X246810Y157600D02*
X239190Y157600D01*
X239190Y144400D02*
X246560Y144400D01*
D16*
X250172Y151012D03*
X235694Y151012D03*
D13*
X264648Y145547D02*
X271252Y145547D01*
X271252Y147382D01*
X271250Y147467D01*
X271244Y147551D01*
X271234Y147635D01*
X271221Y147719D01*
X271203Y147802D01*
X271182Y147884D01*
X271157Y147965D01*
X271128Y148045D01*
X271096Y148123D01*
X271060Y148199D01*
X271020Y148274D01*
X270977Y148347D01*
X270931Y148418D01*
X270882Y148487D01*
X270829Y148554D01*
X270773Y148618D01*
X270715Y148679D01*
X270654Y148737D01*
X270590Y148793D01*
X270523Y148846D01*
X270454Y148895D01*
X270383Y148941D01*
X270310Y148984D01*
X270235Y149024D01*
X270159Y149060D01*
X270081Y149092D01*
X270001Y149121D01*
X269920Y149146D01*
X269838Y149167D01*
X269755Y149185D01*
X269671Y149198D01*
X269587Y149208D01*
X269503Y149214D01*
X269418Y149216D01*
X269333Y149214D01*
X269249Y149208D01*
X269165Y149198D01*
X269081Y149185D01*
X268998Y149167D01*
X268916Y149146D01*
X268835Y149121D01*
X268755Y149092D01*
X268677Y149060D01*
X268601Y149024D01*
X268526Y148984D01*
X268453Y148941D01*
X268382Y148895D01*
X268313Y148846D01*
X268246Y148793D01*
X268182Y148737D01*
X268121Y148679D01*
X268063Y148618D01*
X268007Y148554D01*
X267954Y148487D01*
X267905Y148418D01*
X267859Y148347D01*
X267816Y148274D01*
X267776Y148199D01*
X267740Y148123D01*
X267708Y148045D01*
X267679Y147965D01*
X267654Y147884D01*
X267633Y147802D01*
X267615Y147719D01*
X267602Y147635D01*
X267592Y147551D01*
X267586Y147467D01*
X267584Y147382D01*
X267583Y147382D02*
X267583Y145547D01*
X267583Y147749D02*
X264648Y149216D01*
X270518Y152784D02*
X271252Y152784D01*
X271252Y156453D01*
X264648Y154618D01*
D14*
X246810Y165400D02*
X239190Y165400D01*
X239440Y178600D02*
X246810Y178600D01*
D16*
X235829Y171989D03*
X250307Y171989D03*
D13*
X263748Y166547D02*
X270352Y166547D01*
X270352Y168382D01*
X270350Y168467D01*
X270344Y168551D01*
X270334Y168635D01*
X270321Y168719D01*
X270303Y168802D01*
X270282Y168884D01*
X270257Y168965D01*
X270228Y169045D01*
X270196Y169123D01*
X270160Y169199D01*
X270120Y169274D01*
X270077Y169347D01*
X270031Y169418D01*
X269982Y169487D01*
X269929Y169554D01*
X269873Y169618D01*
X269815Y169679D01*
X269754Y169737D01*
X269690Y169793D01*
X269623Y169846D01*
X269554Y169895D01*
X269483Y169941D01*
X269410Y169984D01*
X269335Y170024D01*
X269259Y170060D01*
X269181Y170092D01*
X269101Y170121D01*
X269020Y170146D01*
X268938Y170167D01*
X268855Y170185D01*
X268771Y170198D01*
X268687Y170208D01*
X268603Y170214D01*
X268518Y170216D01*
X268433Y170214D01*
X268349Y170208D01*
X268265Y170198D01*
X268181Y170185D01*
X268098Y170167D01*
X268016Y170146D01*
X267935Y170121D01*
X267855Y170092D01*
X267777Y170060D01*
X267701Y170024D01*
X267626Y169984D01*
X267553Y169941D01*
X267482Y169895D01*
X267413Y169846D01*
X267346Y169793D01*
X267282Y169737D01*
X267221Y169679D01*
X267163Y169618D01*
X267107Y169554D01*
X267054Y169487D01*
X267005Y169418D01*
X266959Y169347D01*
X266916Y169274D01*
X266876Y169199D01*
X266840Y169123D01*
X266808Y169045D01*
X266779Y168965D01*
X266754Y168884D01*
X266733Y168802D01*
X266715Y168719D01*
X266702Y168635D01*
X266692Y168551D01*
X266686Y168467D01*
X266684Y168382D01*
X266683Y168382D02*
X266683Y166547D01*
X266683Y168749D02*
X263748Y170216D01*
X265216Y173784D02*
X270352Y175251D01*
X265216Y173784D02*
X265216Y177453D01*
X266683Y176352D02*
X263748Y176352D01*
D14*
X246810Y186400D02*
X239190Y186400D01*
X239440Y199600D02*
X246810Y199600D01*
D16*
X235829Y192989D03*
X250307Y192989D03*
D13*
X263748Y187377D02*
X263748Y185910D01*
X263750Y185836D01*
X263756Y185761D01*
X263765Y185688D01*
X263778Y185614D01*
X263795Y185542D01*
X263815Y185471D01*
X263839Y185400D01*
X263867Y185331D01*
X263898Y185264D01*
X263932Y185198D01*
X263970Y185133D01*
X264011Y185071D01*
X264055Y185011D01*
X264102Y184954D01*
X264152Y184899D01*
X264205Y184846D01*
X264260Y184796D01*
X264317Y184749D01*
X264377Y184705D01*
X264439Y184664D01*
X264504Y184626D01*
X264570Y184592D01*
X264637Y184561D01*
X264706Y184533D01*
X264777Y184509D01*
X264848Y184489D01*
X264920Y184472D01*
X264994Y184459D01*
X265067Y184450D01*
X265142Y184444D01*
X265216Y184442D01*
X268884Y184442D01*
X268958Y184444D01*
X269033Y184450D01*
X269106Y184459D01*
X269180Y184472D01*
X269252Y184489D01*
X269323Y184509D01*
X269394Y184533D01*
X269463Y184561D01*
X269530Y184592D01*
X269596Y184626D01*
X269661Y184664D01*
X269723Y184705D01*
X269783Y184749D01*
X269840Y184796D01*
X269895Y184846D01*
X269948Y184899D01*
X269998Y184954D01*
X270045Y185011D01*
X270089Y185071D01*
X270130Y185133D01*
X270168Y185198D01*
X270202Y185263D01*
X270233Y185331D01*
X270261Y185400D01*
X270285Y185471D01*
X270305Y185542D01*
X270322Y185614D01*
X270335Y185688D01*
X270344Y185761D01*
X270350Y185836D01*
X270352Y185910D01*
X270352Y187377D01*
X268884Y190574D02*
X270352Y192408D01*
X263748Y192408D01*
X263748Y190574D02*
X263748Y194243D01*
X269618Y197889D02*
X270352Y197889D01*
X270352Y201558D01*
X263748Y199723D01*
D14*
X381600Y188810D02*
X381600Y181190D01*
X368400Y181440D02*
X368400Y188810D01*
D15*
X375012Y177829D03*
X375012Y192307D03*
D13*
X380623Y204748D02*
X382090Y204748D01*
X382164Y204750D01*
X382239Y204756D01*
X382312Y204765D01*
X382386Y204778D01*
X382458Y204795D01*
X382529Y204815D01*
X382600Y204839D01*
X382669Y204867D01*
X382737Y204898D01*
X382802Y204932D01*
X382867Y204970D01*
X382929Y205011D01*
X382989Y205055D01*
X383046Y205102D01*
X383101Y205152D01*
X383154Y205205D01*
X383204Y205260D01*
X383251Y205317D01*
X383295Y205377D01*
X383336Y205439D01*
X383374Y205504D01*
X383408Y205570D01*
X383439Y205637D01*
X383467Y205706D01*
X383491Y205777D01*
X383511Y205848D01*
X383528Y205921D01*
X383541Y205994D01*
X383550Y206068D01*
X383556Y206142D01*
X383558Y206216D01*
X383558Y209884D01*
X383556Y209958D01*
X383550Y210033D01*
X383541Y210106D01*
X383528Y210179D01*
X383511Y210252D01*
X383491Y210323D01*
X383467Y210394D01*
X383439Y210463D01*
X383408Y210530D01*
X383374Y210596D01*
X383336Y210661D01*
X383295Y210723D01*
X383251Y210783D01*
X383204Y210840D01*
X383154Y210895D01*
X383101Y210948D01*
X383046Y210998D01*
X382989Y211045D01*
X382929Y211089D01*
X382867Y211130D01*
X382802Y211168D01*
X382737Y211202D01*
X382669Y211233D01*
X382600Y211261D01*
X382530Y211285D01*
X382458Y211305D01*
X382386Y211322D01*
X382312Y211335D01*
X382239Y211344D01*
X382164Y211350D01*
X382090Y211352D01*
X380623Y211352D01*
X377426Y209884D02*
X375592Y211352D01*
X375592Y204748D01*
X377426Y204748D02*
X373757Y204748D01*
X370111Y208050D02*
X370109Y208195D01*
X370103Y208340D01*
X370094Y208485D01*
X370080Y208630D01*
X370063Y208774D01*
X370041Y208917D01*
X370016Y209061D01*
X369987Y209203D01*
X369955Y209344D01*
X369918Y209485D01*
X369878Y209624D01*
X369834Y209763D01*
X369787Y209900D01*
X369736Y210036D01*
X369681Y210170D01*
X369623Y210303D01*
X369561Y210435D01*
X369562Y210435D02*
X369536Y210504D01*
X369507Y210571D01*
X369474Y210637D01*
X369438Y210700D01*
X369398Y210762D01*
X369355Y210821D01*
X369309Y210878D01*
X369260Y210932D01*
X369208Y210984D01*
X369153Y211033D01*
X369096Y211078D01*
X369036Y211121D01*
X368974Y211160D01*
X368911Y211196D01*
X368845Y211229D01*
X368778Y211257D01*
X368709Y211283D01*
X368639Y211304D01*
X368568Y211322D01*
X368496Y211335D01*
X368423Y211345D01*
X368350Y211351D01*
X368277Y211353D01*
X368277Y211352D02*
X368204Y211350D01*
X368131Y211344D01*
X368058Y211334D01*
X367987Y211321D01*
X367915Y211303D01*
X367845Y211282D01*
X367777Y211256D01*
X367709Y211228D01*
X367644Y211195D01*
X367580Y211159D01*
X367518Y211120D01*
X367459Y211078D01*
X367402Y211032D01*
X367347Y210983D01*
X367295Y210932D01*
X367246Y210877D01*
X367200Y210820D01*
X367157Y210761D01*
X367117Y210700D01*
X367081Y210636D01*
X367048Y210571D01*
X367019Y210504D01*
X366993Y210435D01*
X366992Y210435D02*
X366930Y210303D01*
X366872Y210170D01*
X366817Y210036D01*
X366766Y209900D01*
X366719Y209763D01*
X366675Y209624D01*
X366635Y209485D01*
X366598Y209344D01*
X366566Y209203D01*
X366537Y209061D01*
X366512Y208918D01*
X366490Y208774D01*
X366473Y208630D01*
X366459Y208485D01*
X366450Y208340D01*
X366444Y208195D01*
X366442Y208050D01*
X370111Y208050D02*
X370109Y207905D01*
X370103Y207760D01*
X370094Y207615D01*
X370080Y207470D01*
X370063Y207326D01*
X370041Y207183D01*
X370016Y207040D01*
X369988Y206897D01*
X369955Y206756D01*
X369918Y206615D01*
X369878Y206476D01*
X369834Y206337D01*
X369787Y206200D01*
X369736Y206064D01*
X369681Y205930D01*
X369623Y205797D01*
X369561Y205665D01*
X369562Y205666D02*
X369536Y205597D01*
X369507Y205530D01*
X369474Y205464D01*
X369438Y205401D01*
X369398Y205339D01*
X369355Y205280D01*
X369309Y205223D01*
X369260Y205169D01*
X369208Y205117D01*
X369153Y205068D01*
X369096Y205023D01*
X369036Y204980D01*
X368974Y204941D01*
X368911Y204905D01*
X368845Y204872D01*
X368778Y204844D01*
X368709Y204818D01*
X368639Y204797D01*
X368568Y204779D01*
X368496Y204766D01*
X368423Y204756D01*
X368350Y204750D01*
X368277Y204748D01*
X366992Y205665D02*
X366930Y205797D01*
X366872Y205930D01*
X366817Y206064D01*
X366766Y206200D01*
X366719Y206337D01*
X366675Y206476D01*
X366635Y206615D01*
X366598Y206756D01*
X366566Y206897D01*
X366537Y207039D01*
X366512Y207182D01*
X366490Y207326D01*
X366473Y207470D01*
X366459Y207615D01*
X366450Y207760D01*
X366444Y207905D01*
X366442Y208050D01*
X366993Y205665D02*
X367019Y205596D01*
X367048Y205529D01*
X367081Y205464D01*
X367117Y205400D01*
X367157Y205339D01*
X367200Y205280D01*
X367246Y205223D01*
X367295Y205168D01*
X367347Y205117D01*
X367402Y205068D01*
X367459Y205022D01*
X367518Y204980D01*
X367580Y204941D01*
X367644Y204905D01*
X367709Y204872D01*
X367777Y204844D01*
X367845Y204818D01*
X367915Y204797D01*
X367987Y204779D01*
X368058Y204766D01*
X368131Y204756D01*
X368204Y204750D01*
X368277Y204748D01*
X369744Y206216D02*
X366809Y209884D01*
D14*
X396105Y114964D02*
X403725Y114964D01*
X403475Y101764D02*
X396105Y101764D01*
D16*
X407086Y108376D03*
X392608Y108376D03*
D13*
X380167Y99254D02*
X373563Y99254D01*
X380167Y99254D02*
X380167Y101088D01*
X380166Y101088D02*
X380164Y101173D01*
X380158Y101257D01*
X380148Y101341D01*
X380135Y101425D01*
X380117Y101508D01*
X380096Y101590D01*
X380071Y101671D01*
X380042Y101751D01*
X380010Y101829D01*
X379974Y101905D01*
X379934Y101980D01*
X379891Y102053D01*
X379845Y102124D01*
X379796Y102193D01*
X379743Y102260D01*
X379687Y102324D01*
X379629Y102385D01*
X379568Y102443D01*
X379504Y102499D01*
X379437Y102552D01*
X379368Y102601D01*
X379297Y102647D01*
X379224Y102690D01*
X379149Y102730D01*
X379073Y102766D01*
X378995Y102798D01*
X378915Y102827D01*
X378834Y102852D01*
X378752Y102873D01*
X378669Y102891D01*
X378585Y102904D01*
X378501Y102914D01*
X378417Y102920D01*
X378332Y102922D01*
X378247Y102920D01*
X378163Y102914D01*
X378079Y102904D01*
X377995Y102891D01*
X377912Y102873D01*
X377830Y102852D01*
X377749Y102827D01*
X377669Y102798D01*
X377591Y102766D01*
X377515Y102730D01*
X377440Y102690D01*
X377367Y102647D01*
X377296Y102601D01*
X377227Y102552D01*
X377160Y102499D01*
X377096Y102443D01*
X377035Y102385D01*
X376977Y102324D01*
X376921Y102260D01*
X376868Y102193D01*
X376819Y102124D01*
X376773Y102053D01*
X376730Y101980D01*
X376690Y101905D01*
X376654Y101829D01*
X376622Y101751D01*
X376593Y101671D01*
X376568Y101590D01*
X376547Y101508D01*
X376529Y101425D01*
X376516Y101341D01*
X376506Y101257D01*
X376500Y101173D01*
X376498Y101088D01*
X376498Y99254D01*
X376498Y101455D02*
X373563Y102923D01*
X378699Y106490D02*
X380167Y108325D01*
X373563Y108325D01*
X373563Y110159D02*
X373563Y106490D01*
X380167Y115824D02*
X380165Y115903D01*
X380160Y115981D01*
X380150Y116059D01*
X380137Y116136D01*
X380120Y116213D01*
X380100Y116289D01*
X380076Y116364D01*
X380049Y116438D01*
X380018Y116510D01*
X379983Y116581D01*
X379946Y116650D01*
X379905Y116717D01*
X379861Y116782D01*
X379814Y116845D01*
X379764Y116905D01*
X379711Y116963D01*
X379655Y117019D01*
X379597Y117072D01*
X379537Y117122D01*
X379474Y117169D01*
X379409Y117213D01*
X379342Y117254D01*
X379273Y117291D01*
X379202Y117326D01*
X379130Y117357D01*
X379056Y117384D01*
X378981Y117408D01*
X378905Y117428D01*
X378828Y117445D01*
X378751Y117458D01*
X378673Y117468D01*
X378595Y117473D01*
X378516Y117475D01*
X380167Y115824D02*
X380165Y115735D01*
X380160Y115646D01*
X380150Y115558D01*
X380137Y115470D01*
X380121Y115383D01*
X380100Y115296D01*
X380076Y115211D01*
X380049Y115126D01*
X380018Y115043D01*
X379983Y114961D01*
X379945Y114880D01*
X379904Y114801D01*
X379860Y114725D01*
X379812Y114649D01*
X379761Y114576D01*
X379708Y114506D01*
X379651Y114437D01*
X379591Y114371D01*
X379529Y114308D01*
X379464Y114247D01*
X379397Y114189D01*
X379327Y114134D01*
X379255Y114081D01*
X379181Y114032D01*
X379105Y113986D01*
X379027Y113944D01*
X378947Y113904D01*
X378866Y113868D01*
X378783Y113835D01*
X378699Y113806D01*
X377232Y116924D02*
X377288Y116980D01*
X377347Y117034D01*
X377408Y117085D01*
X377472Y117134D01*
X377537Y117179D01*
X377605Y117222D01*
X377674Y117261D01*
X377745Y117298D01*
X377818Y117331D01*
X377892Y117360D01*
X377967Y117387D01*
X378043Y117410D01*
X378121Y117429D01*
X378199Y117445D01*
X378277Y117458D01*
X378357Y117467D01*
X378436Y117472D01*
X378516Y117474D01*
X377232Y116924D02*
X373563Y113806D01*
X373563Y117475D01*
D14*
X315080Y74025D02*
X307460Y74025D01*
X307460Y60825D02*
X314830Y60825D01*
D16*
X318441Y67436D03*
X303963Y67436D03*
D13*
X292522Y61972D02*
X285918Y61972D01*
X292522Y61972D02*
X292522Y63807D01*
X292521Y63807D02*
X292519Y63892D01*
X292513Y63976D01*
X292503Y64060D01*
X292490Y64144D01*
X292472Y64227D01*
X292451Y64309D01*
X292426Y64390D01*
X292397Y64470D01*
X292365Y64548D01*
X292329Y64624D01*
X292289Y64699D01*
X292246Y64772D01*
X292200Y64843D01*
X292151Y64912D01*
X292098Y64979D01*
X292042Y65043D01*
X291984Y65104D01*
X291923Y65162D01*
X291859Y65218D01*
X291792Y65271D01*
X291723Y65320D01*
X291652Y65366D01*
X291579Y65409D01*
X291504Y65449D01*
X291428Y65485D01*
X291350Y65517D01*
X291270Y65546D01*
X291189Y65571D01*
X291107Y65592D01*
X291024Y65610D01*
X290940Y65623D01*
X290856Y65633D01*
X290772Y65639D01*
X290687Y65641D01*
X290602Y65639D01*
X290518Y65633D01*
X290434Y65623D01*
X290350Y65610D01*
X290267Y65592D01*
X290185Y65571D01*
X290104Y65546D01*
X290024Y65517D01*
X289946Y65485D01*
X289870Y65449D01*
X289795Y65409D01*
X289722Y65366D01*
X289651Y65320D01*
X289582Y65271D01*
X289515Y65218D01*
X289451Y65162D01*
X289390Y65104D01*
X289332Y65043D01*
X289276Y64979D01*
X289223Y64912D01*
X289174Y64843D01*
X289128Y64772D01*
X289085Y64699D01*
X289045Y64624D01*
X289009Y64548D01*
X288977Y64470D01*
X288948Y64390D01*
X288923Y64309D01*
X288902Y64227D01*
X288884Y64144D01*
X288871Y64060D01*
X288861Y63976D01*
X288855Y63892D01*
X288853Y63807D01*
X288853Y61972D01*
X288853Y64173D02*
X285918Y65641D01*
X287752Y69209D02*
X287837Y69211D01*
X287921Y69217D01*
X288005Y69227D01*
X288089Y69240D01*
X288172Y69258D01*
X288254Y69279D01*
X288335Y69304D01*
X288415Y69333D01*
X288493Y69365D01*
X288569Y69401D01*
X288644Y69441D01*
X288717Y69484D01*
X288788Y69530D01*
X288857Y69579D01*
X288924Y69632D01*
X288988Y69688D01*
X289049Y69746D01*
X289107Y69807D01*
X289163Y69871D01*
X289216Y69938D01*
X289265Y70007D01*
X289311Y70078D01*
X289354Y70151D01*
X289394Y70226D01*
X289430Y70302D01*
X289462Y70380D01*
X289491Y70460D01*
X289516Y70541D01*
X289537Y70623D01*
X289555Y70706D01*
X289568Y70790D01*
X289578Y70874D01*
X289584Y70958D01*
X289586Y71043D01*
X289584Y71128D01*
X289578Y71212D01*
X289568Y71296D01*
X289555Y71380D01*
X289537Y71463D01*
X289516Y71545D01*
X289491Y71626D01*
X289462Y71706D01*
X289430Y71784D01*
X289394Y71860D01*
X289354Y71935D01*
X289311Y72008D01*
X289265Y72079D01*
X289216Y72148D01*
X289163Y72215D01*
X289107Y72279D01*
X289049Y72340D01*
X288988Y72398D01*
X288924Y72454D01*
X288857Y72507D01*
X288788Y72556D01*
X288717Y72602D01*
X288644Y72645D01*
X288569Y72685D01*
X288493Y72721D01*
X288415Y72753D01*
X288335Y72782D01*
X288254Y72807D01*
X288172Y72828D01*
X288089Y72846D01*
X288005Y72859D01*
X287921Y72869D01*
X287837Y72875D01*
X287752Y72877D01*
X287667Y72875D01*
X287583Y72869D01*
X287499Y72859D01*
X287415Y72846D01*
X287332Y72828D01*
X287250Y72807D01*
X287169Y72782D01*
X287089Y72753D01*
X287011Y72721D01*
X286935Y72685D01*
X286860Y72645D01*
X286787Y72602D01*
X286716Y72556D01*
X286647Y72507D01*
X286580Y72454D01*
X286516Y72398D01*
X286455Y72340D01*
X286397Y72279D01*
X286341Y72215D01*
X286288Y72148D01*
X286239Y72079D01*
X286193Y72008D01*
X286150Y71935D01*
X286110Y71860D01*
X286074Y71784D01*
X286042Y71706D01*
X286013Y71626D01*
X285988Y71545D01*
X285967Y71463D01*
X285949Y71380D01*
X285936Y71296D01*
X285926Y71212D01*
X285920Y71128D01*
X285918Y71043D01*
X285920Y70958D01*
X285926Y70874D01*
X285936Y70790D01*
X285949Y70706D01*
X285967Y70623D01*
X285988Y70541D01*
X286013Y70460D01*
X286042Y70380D01*
X286074Y70302D01*
X286110Y70226D01*
X286150Y70151D01*
X286193Y70078D01*
X286239Y70007D01*
X286288Y69938D01*
X286341Y69871D01*
X286397Y69807D01*
X286455Y69746D01*
X286516Y69688D01*
X286580Y69632D01*
X286647Y69579D01*
X286716Y69530D01*
X286787Y69484D01*
X286860Y69441D01*
X286935Y69401D01*
X287011Y69365D01*
X287089Y69333D01*
X287169Y69304D01*
X287250Y69279D01*
X287332Y69258D01*
X287415Y69240D01*
X287499Y69227D01*
X287583Y69217D01*
X287667Y69211D01*
X287752Y69209D01*
X291054Y69575D02*
X291130Y69577D01*
X291205Y69583D01*
X291280Y69592D01*
X291354Y69606D01*
X291428Y69623D01*
X291500Y69645D01*
X291572Y69669D01*
X291642Y69698D01*
X291710Y69730D01*
X291777Y69765D01*
X291842Y69804D01*
X291905Y69847D01*
X291965Y69892D01*
X292023Y69940D01*
X292079Y69992D01*
X292131Y70046D01*
X292181Y70103D01*
X292228Y70162D01*
X292272Y70223D01*
X292313Y70287D01*
X292350Y70353D01*
X292384Y70421D01*
X292414Y70490D01*
X292441Y70561D01*
X292464Y70633D01*
X292483Y70706D01*
X292498Y70780D01*
X292510Y70855D01*
X292518Y70930D01*
X292522Y71005D01*
X292522Y71081D01*
X292518Y71156D01*
X292510Y71231D01*
X292498Y71306D01*
X292483Y71380D01*
X292464Y71453D01*
X292441Y71525D01*
X292414Y71596D01*
X292384Y71665D01*
X292350Y71733D01*
X292313Y71799D01*
X292272Y71863D01*
X292228Y71924D01*
X292181Y71983D01*
X292131Y72040D01*
X292079Y72094D01*
X292023Y72146D01*
X291965Y72194D01*
X291905Y72239D01*
X291842Y72282D01*
X291777Y72321D01*
X291710Y72356D01*
X291642Y72388D01*
X291572Y72417D01*
X291500Y72441D01*
X291428Y72463D01*
X291354Y72480D01*
X291280Y72494D01*
X291205Y72503D01*
X291130Y72509D01*
X291054Y72511D01*
X290978Y72509D01*
X290903Y72503D01*
X290828Y72494D01*
X290754Y72480D01*
X290680Y72463D01*
X290608Y72441D01*
X290536Y72417D01*
X290466Y72388D01*
X290398Y72356D01*
X290331Y72321D01*
X290266Y72282D01*
X290203Y72239D01*
X290143Y72194D01*
X290085Y72146D01*
X290029Y72094D01*
X289977Y72040D01*
X289927Y71983D01*
X289880Y71924D01*
X289836Y71863D01*
X289795Y71799D01*
X289758Y71733D01*
X289724Y71665D01*
X289694Y71596D01*
X289667Y71525D01*
X289644Y71453D01*
X289625Y71380D01*
X289610Y71306D01*
X289598Y71231D01*
X289590Y71156D01*
X289586Y71081D01*
X289586Y71005D01*
X289590Y70930D01*
X289598Y70855D01*
X289610Y70780D01*
X289625Y70706D01*
X289644Y70633D01*
X289667Y70561D01*
X289694Y70490D01*
X289724Y70421D01*
X289758Y70353D01*
X289795Y70287D01*
X289836Y70223D01*
X289880Y70162D01*
X289927Y70103D01*
X289977Y70046D01*
X290029Y69992D01*
X290085Y69940D01*
X290143Y69892D01*
X290203Y69847D01*
X290266Y69804D01*
X290331Y69765D01*
X290398Y69730D01*
X290466Y69698D01*
X290536Y69669D01*
X290608Y69645D01*
X290680Y69623D01*
X290754Y69606D01*
X290828Y69592D01*
X290903Y69583D01*
X290978Y69577D01*
X291054Y69575D01*
D14*
X355991Y48650D02*
X363611Y48650D01*
X363361Y35450D02*
X355991Y35450D01*
D16*
X366972Y42062D03*
X352494Y42062D03*
D13*
X341053Y32940D02*
X334449Y32940D01*
X341053Y32940D02*
X341053Y34774D01*
X341052Y34774D02*
X341050Y34859D01*
X341044Y34943D01*
X341034Y35027D01*
X341021Y35111D01*
X341003Y35194D01*
X340982Y35276D01*
X340957Y35357D01*
X340928Y35437D01*
X340896Y35515D01*
X340860Y35591D01*
X340820Y35666D01*
X340777Y35739D01*
X340731Y35810D01*
X340682Y35879D01*
X340629Y35946D01*
X340573Y36010D01*
X340515Y36071D01*
X340454Y36129D01*
X340390Y36185D01*
X340323Y36238D01*
X340254Y36287D01*
X340183Y36333D01*
X340110Y36376D01*
X340035Y36416D01*
X339959Y36452D01*
X339881Y36484D01*
X339801Y36513D01*
X339720Y36538D01*
X339638Y36559D01*
X339555Y36577D01*
X339471Y36590D01*
X339387Y36600D01*
X339303Y36606D01*
X339218Y36608D01*
X339133Y36606D01*
X339049Y36600D01*
X338965Y36590D01*
X338881Y36577D01*
X338798Y36559D01*
X338716Y36538D01*
X338635Y36513D01*
X338555Y36484D01*
X338477Y36452D01*
X338401Y36416D01*
X338326Y36376D01*
X338253Y36333D01*
X338182Y36287D01*
X338113Y36238D01*
X338046Y36185D01*
X337982Y36129D01*
X337921Y36071D01*
X337863Y36010D01*
X337807Y35946D01*
X337754Y35879D01*
X337705Y35810D01*
X337659Y35739D01*
X337616Y35666D01*
X337576Y35591D01*
X337540Y35515D01*
X337508Y35437D01*
X337479Y35357D01*
X337454Y35276D01*
X337433Y35194D01*
X337415Y35111D01*
X337402Y35027D01*
X337392Y34943D01*
X337386Y34859D01*
X337384Y34774D01*
X337384Y32940D01*
X337384Y35141D02*
X334449Y36609D01*
X339585Y40176D02*
X341053Y42011D01*
X334449Y42011D01*
X334449Y43845D02*
X334449Y40176D01*
X334449Y47491D02*
X334449Y49326D01*
X334451Y49411D01*
X334457Y49495D01*
X334467Y49579D01*
X334480Y49663D01*
X334498Y49746D01*
X334519Y49828D01*
X334544Y49909D01*
X334573Y49989D01*
X334605Y50067D01*
X334641Y50143D01*
X334681Y50218D01*
X334724Y50291D01*
X334770Y50362D01*
X334819Y50431D01*
X334872Y50498D01*
X334928Y50562D01*
X334986Y50623D01*
X335047Y50681D01*
X335111Y50737D01*
X335178Y50790D01*
X335247Y50839D01*
X335318Y50885D01*
X335391Y50928D01*
X335466Y50968D01*
X335542Y51004D01*
X335620Y51036D01*
X335700Y51065D01*
X335781Y51090D01*
X335863Y51111D01*
X335946Y51129D01*
X336030Y51142D01*
X336114Y51152D01*
X336198Y51158D01*
X336283Y51160D01*
X336368Y51158D01*
X336452Y51152D01*
X336536Y51142D01*
X336620Y51129D01*
X336703Y51111D01*
X336785Y51090D01*
X336866Y51065D01*
X336946Y51036D01*
X337024Y51004D01*
X337100Y50968D01*
X337175Y50928D01*
X337248Y50885D01*
X337319Y50839D01*
X337388Y50790D01*
X337455Y50737D01*
X337519Y50681D01*
X337580Y50623D01*
X337638Y50562D01*
X337694Y50498D01*
X337747Y50431D01*
X337796Y50362D01*
X337842Y50291D01*
X337885Y50218D01*
X337925Y50143D01*
X337961Y50067D01*
X337993Y49989D01*
X338022Y49909D01*
X338047Y49828D01*
X338068Y49746D01*
X338086Y49663D01*
X338099Y49579D01*
X338109Y49495D01*
X338115Y49411D01*
X338117Y49326D01*
X341053Y49693D02*
X341053Y47491D01*
X341053Y49693D02*
X341051Y49769D01*
X341045Y49844D01*
X341036Y49919D01*
X341022Y49993D01*
X341005Y50067D01*
X340983Y50139D01*
X340959Y50211D01*
X340930Y50281D01*
X340898Y50349D01*
X340863Y50416D01*
X340824Y50481D01*
X340781Y50544D01*
X340736Y50604D01*
X340688Y50662D01*
X340636Y50718D01*
X340582Y50770D01*
X340525Y50820D01*
X340466Y50867D01*
X340405Y50911D01*
X340341Y50952D01*
X340275Y50989D01*
X340207Y51023D01*
X340138Y51053D01*
X340067Y51080D01*
X339995Y51103D01*
X339922Y51122D01*
X339848Y51137D01*
X339773Y51149D01*
X339698Y51157D01*
X339623Y51161D01*
X339547Y51161D01*
X339472Y51157D01*
X339397Y51149D01*
X339322Y51137D01*
X339248Y51122D01*
X339175Y51103D01*
X339103Y51080D01*
X339032Y51053D01*
X338963Y51023D01*
X338895Y50989D01*
X338829Y50952D01*
X338765Y50911D01*
X338704Y50867D01*
X338645Y50820D01*
X338588Y50770D01*
X338534Y50718D01*
X338482Y50662D01*
X338434Y50604D01*
X338389Y50544D01*
X338346Y50481D01*
X338307Y50416D01*
X338272Y50349D01*
X338240Y50281D01*
X338211Y50211D01*
X338187Y50139D01*
X338165Y50067D01*
X338148Y49993D01*
X338134Y49919D01*
X338125Y49844D01*
X338119Y49769D01*
X338117Y49693D01*
X338118Y49693D02*
X338118Y48225D01*
D14*
X317840Y49369D02*
X310220Y49369D01*
X310220Y36169D02*
X317590Y36169D01*
D16*
X321202Y42780D03*
X306724Y42780D03*
D13*
X293282Y37316D02*
X286678Y37316D01*
X293282Y37316D02*
X293282Y39151D01*
X293280Y39236D01*
X293274Y39320D01*
X293264Y39404D01*
X293251Y39488D01*
X293233Y39571D01*
X293212Y39653D01*
X293187Y39734D01*
X293158Y39814D01*
X293126Y39892D01*
X293090Y39968D01*
X293050Y40043D01*
X293007Y40116D01*
X292961Y40187D01*
X292912Y40256D01*
X292859Y40323D01*
X292803Y40387D01*
X292745Y40448D01*
X292684Y40506D01*
X292620Y40562D01*
X292553Y40615D01*
X292484Y40664D01*
X292413Y40710D01*
X292340Y40753D01*
X292265Y40793D01*
X292189Y40829D01*
X292111Y40861D01*
X292031Y40890D01*
X291950Y40915D01*
X291868Y40936D01*
X291785Y40954D01*
X291701Y40967D01*
X291617Y40977D01*
X291533Y40983D01*
X291448Y40985D01*
X291363Y40983D01*
X291279Y40977D01*
X291195Y40967D01*
X291111Y40954D01*
X291028Y40936D01*
X290946Y40915D01*
X290865Y40890D01*
X290785Y40861D01*
X290707Y40829D01*
X290631Y40793D01*
X290556Y40753D01*
X290483Y40710D01*
X290412Y40664D01*
X290343Y40615D01*
X290276Y40562D01*
X290212Y40506D01*
X290151Y40448D01*
X290093Y40387D01*
X290037Y40323D01*
X289984Y40256D01*
X289935Y40187D01*
X289889Y40116D01*
X289846Y40043D01*
X289806Y39968D01*
X289770Y39892D01*
X289738Y39814D01*
X289709Y39734D01*
X289684Y39653D01*
X289663Y39571D01*
X289645Y39488D01*
X289632Y39404D01*
X289622Y39320D01*
X289616Y39236D01*
X289614Y39151D01*
X289614Y37316D01*
X289614Y39518D02*
X286678Y40985D01*
X289614Y46020D02*
X289614Y48222D01*
X289613Y46020D02*
X289615Y45946D01*
X289621Y45871D01*
X289630Y45798D01*
X289643Y45724D01*
X289660Y45652D01*
X289680Y45581D01*
X289704Y45510D01*
X289732Y45441D01*
X289763Y45374D01*
X289797Y45308D01*
X289835Y45243D01*
X289876Y45181D01*
X289920Y45121D01*
X289967Y45064D01*
X290017Y45009D01*
X290070Y44956D01*
X290125Y44906D01*
X290182Y44859D01*
X290242Y44815D01*
X290304Y44774D01*
X290369Y44736D01*
X290435Y44702D01*
X290502Y44671D01*
X290571Y44643D01*
X290642Y44619D01*
X290713Y44599D01*
X290785Y44582D01*
X290859Y44569D01*
X290932Y44560D01*
X291007Y44554D01*
X291081Y44552D01*
X291081Y44553D02*
X291448Y44553D01*
X291533Y44555D01*
X291617Y44561D01*
X291701Y44571D01*
X291785Y44584D01*
X291868Y44602D01*
X291950Y44623D01*
X292031Y44648D01*
X292111Y44677D01*
X292189Y44709D01*
X292265Y44745D01*
X292340Y44785D01*
X292413Y44828D01*
X292484Y44874D01*
X292553Y44923D01*
X292620Y44976D01*
X292684Y45032D01*
X292745Y45090D01*
X292803Y45151D01*
X292859Y45215D01*
X292912Y45282D01*
X292961Y45351D01*
X293007Y45422D01*
X293050Y45495D01*
X293090Y45570D01*
X293126Y45646D01*
X293158Y45724D01*
X293187Y45804D01*
X293212Y45885D01*
X293233Y45967D01*
X293251Y46050D01*
X293264Y46134D01*
X293274Y46218D01*
X293280Y46302D01*
X293282Y46387D01*
X293280Y46472D01*
X293274Y46556D01*
X293264Y46640D01*
X293251Y46724D01*
X293233Y46807D01*
X293212Y46889D01*
X293187Y46970D01*
X293158Y47050D01*
X293126Y47128D01*
X293090Y47204D01*
X293050Y47279D01*
X293007Y47352D01*
X292961Y47423D01*
X292912Y47492D01*
X292859Y47559D01*
X292803Y47623D01*
X292745Y47684D01*
X292684Y47742D01*
X292620Y47798D01*
X292553Y47851D01*
X292484Y47900D01*
X292413Y47946D01*
X292340Y47989D01*
X292265Y48029D01*
X292189Y48065D01*
X292111Y48097D01*
X292031Y48126D01*
X291950Y48151D01*
X291868Y48172D01*
X291785Y48190D01*
X291701Y48203D01*
X291617Y48213D01*
X291533Y48219D01*
X291448Y48221D01*
X291448Y48222D02*
X289614Y48222D01*
X289614Y48221D02*
X289507Y48219D01*
X289400Y48213D01*
X289293Y48203D01*
X289187Y48190D01*
X289081Y48172D01*
X288976Y48151D01*
X288872Y48126D01*
X288768Y48097D01*
X288666Y48064D01*
X288566Y48027D01*
X288466Y47987D01*
X288368Y47943D01*
X288272Y47896D01*
X288178Y47845D01*
X288085Y47791D01*
X287995Y47734D01*
X287906Y47673D01*
X287820Y47609D01*
X287737Y47542D01*
X287655Y47472D01*
X287577Y47399D01*
X287501Y47323D01*
X287428Y47245D01*
X287358Y47163D01*
X287291Y47080D01*
X287227Y46994D01*
X287166Y46905D01*
X287109Y46815D01*
X287055Y46722D01*
X287004Y46628D01*
X286957Y46532D01*
X286913Y46434D01*
X286873Y46334D01*
X286836Y46234D01*
X286803Y46132D01*
X286774Y46028D01*
X286749Y45924D01*
X286728Y45819D01*
X286710Y45713D01*
X286697Y45607D01*
X286687Y45500D01*
X286681Y45393D01*
X286679Y45286D01*
D14*
X437157Y87872D02*
X444777Y87872D01*
X444777Y101072D02*
X437407Y101072D01*
D16*
X433796Y94460D03*
X448274Y94460D03*
D13*
X462715Y88849D02*
X462715Y87382D01*
X462717Y87308D01*
X462723Y87233D01*
X462732Y87160D01*
X462745Y87086D01*
X462762Y87014D01*
X462782Y86943D01*
X462806Y86872D01*
X462834Y86803D01*
X462865Y86736D01*
X462899Y86670D01*
X462937Y86605D01*
X462978Y86543D01*
X463022Y86483D01*
X463069Y86426D01*
X463119Y86371D01*
X463172Y86318D01*
X463227Y86268D01*
X463284Y86221D01*
X463344Y86177D01*
X463406Y86136D01*
X463471Y86098D01*
X463537Y86064D01*
X463604Y86033D01*
X463673Y86005D01*
X463744Y85981D01*
X463815Y85961D01*
X463887Y85944D01*
X463961Y85931D01*
X464034Y85922D01*
X464109Y85916D01*
X464183Y85914D01*
X467852Y85914D01*
X467926Y85916D01*
X468001Y85922D01*
X468074Y85931D01*
X468148Y85944D01*
X468220Y85961D01*
X468291Y85981D01*
X468362Y86005D01*
X468431Y86033D01*
X468498Y86064D01*
X468564Y86098D01*
X468629Y86136D01*
X468691Y86177D01*
X468751Y86221D01*
X468808Y86268D01*
X468863Y86318D01*
X468916Y86371D01*
X468966Y86426D01*
X469013Y86483D01*
X469057Y86543D01*
X469098Y86605D01*
X469136Y86670D01*
X469170Y86735D01*
X469201Y86803D01*
X469229Y86872D01*
X469253Y86943D01*
X469273Y87014D01*
X469290Y87086D01*
X469303Y87160D01*
X469312Y87233D01*
X469318Y87308D01*
X469320Y87382D01*
X469319Y87382D02*
X469319Y88849D01*
X469319Y94063D02*
X469317Y94142D01*
X469312Y94220D01*
X469302Y94298D01*
X469289Y94375D01*
X469272Y94452D01*
X469252Y94528D01*
X469228Y94603D01*
X469201Y94677D01*
X469170Y94749D01*
X469135Y94820D01*
X469098Y94889D01*
X469057Y94956D01*
X469013Y95021D01*
X468966Y95084D01*
X468916Y95144D01*
X468863Y95202D01*
X468807Y95258D01*
X468749Y95311D01*
X468689Y95361D01*
X468626Y95408D01*
X468561Y95452D01*
X468494Y95493D01*
X468425Y95530D01*
X468354Y95565D01*
X468282Y95596D01*
X468208Y95623D01*
X468133Y95647D01*
X468057Y95667D01*
X467980Y95684D01*
X467903Y95697D01*
X467825Y95707D01*
X467747Y95712D01*
X467668Y95714D01*
X469319Y94063D02*
X469317Y93974D01*
X469312Y93885D01*
X469302Y93797D01*
X469289Y93709D01*
X469273Y93622D01*
X469252Y93535D01*
X469228Y93450D01*
X469201Y93365D01*
X469170Y93282D01*
X469135Y93200D01*
X469097Y93119D01*
X469056Y93040D01*
X469012Y92964D01*
X468964Y92888D01*
X468913Y92815D01*
X468860Y92745D01*
X468803Y92676D01*
X468743Y92610D01*
X468681Y92547D01*
X468616Y92486D01*
X468549Y92428D01*
X468479Y92373D01*
X468407Y92320D01*
X468333Y92271D01*
X468257Y92225D01*
X468179Y92183D01*
X468099Y92143D01*
X468018Y92107D01*
X467935Y92074D01*
X467851Y92045D01*
X466384Y95164D02*
X466440Y95220D01*
X466499Y95274D01*
X466560Y95325D01*
X466624Y95374D01*
X466689Y95419D01*
X466757Y95462D01*
X466826Y95501D01*
X466897Y95538D01*
X466970Y95571D01*
X467044Y95600D01*
X467119Y95627D01*
X467195Y95650D01*
X467273Y95669D01*
X467351Y95685D01*
X467429Y95698D01*
X467509Y95707D01*
X467588Y95712D01*
X467668Y95714D01*
X466384Y95164D02*
X462715Y92045D01*
X462715Y95714D01*
X464183Y99361D02*
X469319Y100828D01*
X464183Y99361D02*
X464183Y103030D01*
X465650Y101929D02*
X462715Y101929D01*
D14*
X389663Y78288D02*
X382043Y78288D01*
X382293Y91488D02*
X389663Y91488D01*
D16*
X378682Y84877D03*
X393160Y84877D03*
D13*
X407601Y79266D02*
X407601Y77798D01*
X407603Y77724D01*
X407609Y77649D01*
X407618Y77576D01*
X407631Y77502D01*
X407648Y77430D01*
X407668Y77359D01*
X407692Y77288D01*
X407720Y77219D01*
X407751Y77152D01*
X407785Y77086D01*
X407823Y77021D01*
X407864Y76959D01*
X407908Y76899D01*
X407955Y76842D01*
X408005Y76787D01*
X408058Y76734D01*
X408113Y76684D01*
X408170Y76637D01*
X408230Y76593D01*
X408292Y76552D01*
X408357Y76514D01*
X408423Y76480D01*
X408490Y76449D01*
X408559Y76421D01*
X408630Y76397D01*
X408701Y76377D01*
X408773Y76360D01*
X408847Y76347D01*
X408920Y76338D01*
X408995Y76332D01*
X409069Y76330D01*
X412738Y76330D01*
X412812Y76332D01*
X412887Y76338D01*
X412960Y76347D01*
X413034Y76360D01*
X413106Y76377D01*
X413177Y76397D01*
X413248Y76421D01*
X413317Y76449D01*
X413384Y76480D01*
X413450Y76514D01*
X413515Y76552D01*
X413577Y76593D01*
X413637Y76637D01*
X413694Y76684D01*
X413749Y76734D01*
X413802Y76787D01*
X413852Y76842D01*
X413899Y76899D01*
X413943Y76959D01*
X413984Y77021D01*
X414022Y77086D01*
X414056Y77151D01*
X414087Y77219D01*
X414115Y77288D01*
X414139Y77359D01*
X414159Y77430D01*
X414176Y77502D01*
X414189Y77576D01*
X414198Y77649D01*
X414204Y77724D01*
X414206Y77798D01*
X414205Y77798D02*
X414205Y79266D01*
X414205Y84480D02*
X414203Y84559D01*
X414198Y84637D01*
X414188Y84715D01*
X414175Y84792D01*
X414158Y84869D01*
X414138Y84945D01*
X414114Y85020D01*
X414087Y85094D01*
X414056Y85166D01*
X414021Y85237D01*
X413984Y85306D01*
X413943Y85373D01*
X413899Y85438D01*
X413852Y85501D01*
X413802Y85561D01*
X413749Y85619D01*
X413693Y85675D01*
X413635Y85728D01*
X413575Y85778D01*
X413512Y85825D01*
X413447Y85869D01*
X413380Y85910D01*
X413311Y85947D01*
X413240Y85982D01*
X413168Y86013D01*
X413094Y86040D01*
X413019Y86064D01*
X412943Y86084D01*
X412866Y86101D01*
X412789Y86114D01*
X412711Y86124D01*
X412633Y86129D01*
X412554Y86131D01*
X414205Y84480D02*
X414203Y84391D01*
X414198Y84302D01*
X414188Y84214D01*
X414175Y84126D01*
X414159Y84039D01*
X414138Y83952D01*
X414114Y83867D01*
X414087Y83782D01*
X414056Y83699D01*
X414021Y83617D01*
X413983Y83536D01*
X413942Y83457D01*
X413898Y83381D01*
X413850Y83305D01*
X413799Y83232D01*
X413746Y83162D01*
X413689Y83093D01*
X413629Y83027D01*
X413567Y82964D01*
X413502Y82903D01*
X413435Y82845D01*
X413365Y82790D01*
X413293Y82737D01*
X413219Y82688D01*
X413143Y82642D01*
X413065Y82600D01*
X412985Y82560D01*
X412904Y82524D01*
X412821Y82491D01*
X412737Y82462D01*
X411270Y85581D02*
X411326Y85637D01*
X411385Y85691D01*
X411446Y85742D01*
X411510Y85791D01*
X411575Y85836D01*
X411643Y85879D01*
X411712Y85918D01*
X411783Y85955D01*
X411856Y85988D01*
X411930Y86017D01*
X412005Y86044D01*
X412081Y86067D01*
X412159Y86086D01*
X412237Y86102D01*
X412315Y86115D01*
X412395Y86124D01*
X412474Y86129D01*
X412554Y86131D01*
X411270Y85581D02*
X407601Y82462D01*
X407601Y86131D01*
X407601Y89777D02*
X407601Y91612D01*
X407602Y91612D02*
X407604Y91697D01*
X407610Y91781D01*
X407620Y91865D01*
X407633Y91949D01*
X407651Y92032D01*
X407672Y92114D01*
X407697Y92195D01*
X407726Y92275D01*
X407758Y92353D01*
X407794Y92429D01*
X407834Y92504D01*
X407877Y92577D01*
X407923Y92648D01*
X407972Y92717D01*
X408025Y92784D01*
X408081Y92848D01*
X408139Y92909D01*
X408200Y92967D01*
X408264Y93023D01*
X408331Y93076D01*
X408400Y93125D01*
X408471Y93171D01*
X408544Y93214D01*
X408619Y93254D01*
X408695Y93290D01*
X408773Y93322D01*
X408853Y93351D01*
X408934Y93376D01*
X409016Y93397D01*
X409099Y93415D01*
X409183Y93428D01*
X409267Y93438D01*
X409351Y93444D01*
X409436Y93446D01*
X409521Y93444D01*
X409605Y93438D01*
X409689Y93428D01*
X409773Y93415D01*
X409856Y93397D01*
X409938Y93376D01*
X410019Y93351D01*
X410099Y93322D01*
X410177Y93290D01*
X410253Y93254D01*
X410328Y93214D01*
X410401Y93171D01*
X410472Y93125D01*
X410541Y93076D01*
X410608Y93023D01*
X410672Y92967D01*
X410733Y92909D01*
X410791Y92848D01*
X410847Y92784D01*
X410900Y92717D01*
X410949Y92648D01*
X410995Y92577D01*
X411038Y92504D01*
X411078Y92429D01*
X411114Y92353D01*
X411146Y92275D01*
X411175Y92195D01*
X411200Y92114D01*
X411221Y92032D01*
X411239Y91949D01*
X411252Y91865D01*
X411262Y91781D01*
X411268Y91697D01*
X411270Y91612D01*
X414205Y91978D02*
X414205Y89777D01*
X414206Y91978D02*
X414204Y92054D01*
X414198Y92129D01*
X414189Y92204D01*
X414175Y92278D01*
X414158Y92352D01*
X414136Y92424D01*
X414112Y92496D01*
X414083Y92566D01*
X414051Y92634D01*
X414016Y92701D01*
X413977Y92766D01*
X413934Y92829D01*
X413889Y92889D01*
X413841Y92947D01*
X413789Y93003D01*
X413735Y93055D01*
X413678Y93105D01*
X413619Y93152D01*
X413558Y93196D01*
X413494Y93237D01*
X413428Y93274D01*
X413360Y93308D01*
X413291Y93338D01*
X413220Y93365D01*
X413148Y93388D01*
X413075Y93407D01*
X413001Y93422D01*
X412926Y93434D01*
X412851Y93442D01*
X412776Y93446D01*
X412700Y93446D01*
X412625Y93442D01*
X412550Y93434D01*
X412475Y93422D01*
X412401Y93407D01*
X412328Y93388D01*
X412256Y93365D01*
X412185Y93338D01*
X412116Y93308D01*
X412048Y93274D01*
X411982Y93237D01*
X411918Y93196D01*
X411857Y93152D01*
X411798Y93105D01*
X411741Y93055D01*
X411687Y93003D01*
X411635Y92947D01*
X411587Y92889D01*
X411542Y92829D01*
X411499Y92766D01*
X411460Y92701D01*
X411425Y92634D01*
X411393Y92566D01*
X411364Y92496D01*
X411340Y92424D01*
X411318Y92352D01*
X411301Y92278D01*
X411287Y92204D01*
X411278Y92129D01*
X411272Y92054D01*
X411270Y91978D01*
X411270Y90511D01*
D14*
X371843Y69174D02*
X364223Y69174D01*
X364223Y55974D02*
X371593Y55974D01*
D16*
X375204Y62586D03*
X360726Y62586D03*
D13*
X363536Y73681D02*
X363536Y80285D01*
X361702Y80285D01*
X361702Y80284D02*
X361617Y80282D01*
X361533Y80276D01*
X361449Y80266D01*
X361365Y80253D01*
X361282Y80235D01*
X361200Y80214D01*
X361119Y80189D01*
X361039Y80160D01*
X360961Y80128D01*
X360885Y80092D01*
X360810Y80052D01*
X360737Y80009D01*
X360666Y79963D01*
X360597Y79914D01*
X360530Y79861D01*
X360466Y79805D01*
X360405Y79747D01*
X360347Y79686D01*
X360291Y79622D01*
X360238Y79555D01*
X360189Y79486D01*
X360143Y79415D01*
X360100Y79342D01*
X360060Y79267D01*
X360024Y79191D01*
X359992Y79113D01*
X359963Y79033D01*
X359938Y78952D01*
X359917Y78870D01*
X359899Y78787D01*
X359886Y78703D01*
X359876Y78619D01*
X359870Y78535D01*
X359868Y78450D01*
X359870Y78365D01*
X359876Y78281D01*
X359886Y78197D01*
X359899Y78113D01*
X359917Y78030D01*
X359938Y77948D01*
X359963Y77867D01*
X359992Y77787D01*
X360024Y77709D01*
X360060Y77633D01*
X360100Y77558D01*
X360143Y77485D01*
X360189Y77414D01*
X360238Y77345D01*
X360291Y77278D01*
X360347Y77214D01*
X360405Y77153D01*
X360466Y77095D01*
X360530Y77039D01*
X360597Y76986D01*
X360666Y76937D01*
X360737Y76891D01*
X360810Y76848D01*
X360885Y76808D01*
X360961Y76772D01*
X361039Y76740D01*
X361119Y76711D01*
X361200Y76686D01*
X361282Y76665D01*
X361365Y76647D01*
X361449Y76634D01*
X361533Y76624D01*
X361617Y76618D01*
X361702Y76616D01*
X363536Y76616D01*
X361335Y76616D02*
X359867Y73681D01*
X356300Y78817D02*
X354465Y80285D01*
X354465Y73681D01*
X352631Y73681D02*
X356300Y73681D01*
X348985Y75148D02*
X347517Y80285D01*
X348985Y75148D02*
X345316Y75148D01*
X346416Y73681D02*
X346416Y76616D01*
D14*
X415223Y63260D02*
X422843Y63260D01*
X422593Y50060D02*
X415223Y50060D01*
D16*
X426204Y56672D03*
X411726Y56672D03*
D13*
X439681Y50037D02*
X439681Y48570D01*
X439680Y48570D02*
X439682Y48496D01*
X439688Y48421D01*
X439697Y48348D01*
X439710Y48274D01*
X439727Y48202D01*
X439747Y48131D01*
X439771Y48060D01*
X439799Y47991D01*
X439830Y47924D01*
X439864Y47858D01*
X439902Y47793D01*
X439943Y47731D01*
X439987Y47671D01*
X440034Y47614D01*
X440084Y47559D01*
X440137Y47506D01*
X440192Y47456D01*
X440249Y47409D01*
X440309Y47365D01*
X440371Y47324D01*
X440436Y47286D01*
X440502Y47252D01*
X440569Y47221D01*
X440638Y47193D01*
X440709Y47169D01*
X440780Y47149D01*
X440852Y47132D01*
X440926Y47119D01*
X440999Y47110D01*
X441074Y47104D01*
X441148Y47102D01*
X444817Y47102D01*
X444891Y47104D01*
X444966Y47110D01*
X445039Y47119D01*
X445113Y47132D01*
X445185Y47149D01*
X445256Y47169D01*
X445327Y47193D01*
X445396Y47221D01*
X445463Y47252D01*
X445529Y47286D01*
X445594Y47324D01*
X445656Y47365D01*
X445716Y47409D01*
X445773Y47456D01*
X445828Y47506D01*
X445881Y47559D01*
X445931Y47614D01*
X445978Y47671D01*
X446022Y47731D01*
X446063Y47793D01*
X446101Y47858D01*
X446135Y47923D01*
X446166Y47991D01*
X446194Y48060D01*
X446218Y48131D01*
X446238Y48202D01*
X446255Y48274D01*
X446268Y48348D01*
X446277Y48421D01*
X446283Y48496D01*
X446285Y48570D01*
X446285Y50037D01*
X446285Y55252D02*
X446283Y55331D01*
X446278Y55409D01*
X446268Y55487D01*
X446255Y55564D01*
X446238Y55641D01*
X446218Y55717D01*
X446194Y55792D01*
X446167Y55866D01*
X446136Y55938D01*
X446101Y56009D01*
X446064Y56078D01*
X446023Y56145D01*
X445979Y56210D01*
X445932Y56273D01*
X445882Y56333D01*
X445829Y56391D01*
X445773Y56447D01*
X445715Y56500D01*
X445655Y56550D01*
X445592Y56597D01*
X445527Y56641D01*
X445460Y56682D01*
X445391Y56719D01*
X445320Y56754D01*
X445248Y56785D01*
X445174Y56812D01*
X445099Y56836D01*
X445023Y56856D01*
X444946Y56873D01*
X444869Y56886D01*
X444791Y56896D01*
X444713Y56901D01*
X444634Y56903D01*
X446285Y55252D02*
X446283Y55163D01*
X446278Y55074D01*
X446268Y54986D01*
X446255Y54898D01*
X446239Y54811D01*
X446218Y54724D01*
X446194Y54639D01*
X446167Y54554D01*
X446136Y54471D01*
X446101Y54389D01*
X446063Y54308D01*
X446022Y54229D01*
X445978Y54153D01*
X445930Y54077D01*
X445879Y54004D01*
X445826Y53934D01*
X445769Y53865D01*
X445709Y53799D01*
X445647Y53736D01*
X445582Y53675D01*
X445515Y53617D01*
X445445Y53562D01*
X445373Y53509D01*
X445299Y53460D01*
X445223Y53414D01*
X445145Y53372D01*
X445065Y53332D01*
X444984Y53296D01*
X444901Y53263D01*
X444817Y53234D01*
X443350Y56352D02*
X443406Y56408D01*
X443465Y56462D01*
X443526Y56513D01*
X443590Y56562D01*
X443655Y56607D01*
X443723Y56650D01*
X443792Y56689D01*
X443863Y56726D01*
X443936Y56759D01*
X444010Y56788D01*
X444085Y56815D01*
X444161Y56838D01*
X444239Y56857D01*
X444317Y56873D01*
X444395Y56886D01*
X444475Y56895D01*
X444554Y56900D01*
X444634Y56902D01*
X443350Y56352D02*
X439681Y53234D01*
X439681Y56903D01*
X442616Y62016D02*
X442616Y64218D01*
X442616Y62016D02*
X442618Y61942D01*
X442624Y61867D01*
X442633Y61794D01*
X442646Y61720D01*
X442663Y61648D01*
X442683Y61577D01*
X442707Y61506D01*
X442735Y61437D01*
X442766Y61370D01*
X442800Y61304D01*
X442838Y61239D01*
X442879Y61177D01*
X442923Y61117D01*
X442970Y61060D01*
X443020Y61005D01*
X443073Y60952D01*
X443128Y60902D01*
X443185Y60855D01*
X443245Y60811D01*
X443307Y60770D01*
X443372Y60732D01*
X443438Y60698D01*
X443505Y60667D01*
X443574Y60639D01*
X443645Y60615D01*
X443716Y60595D01*
X443788Y60578D01*
X443862Y60565D01*
X443935Y60556D01*
X444010Y60550D01*
X444084Y60548D01*
X444084Y60549D02*
X444450Y60549D01*
X444535Y60551D01*
X444619Y60557D01*
X444703Y60567D01*
X444787Y60580D01*
X444870Y60598D01*
X444952Y60619D01*
X445033Y60644D01*
X445113Y60673D01*
X445191Y60705D01*
X445267Y60741D01*
X445342Y60781D01*
X445415Y60824D01*
X445486Y60870D01*
X445555Y60919D01*
X445622Y60972D01*
X445686Y61028D01*
X445747Y61086D01*
X445805Y61147D01*
X445861Y61211D01*
X445914Y61278D01*
X445963Y61347D01*
X446009Y61418D01*
X446052Y61491D01*
X446092Y61566D01*
X446128Y61642D01*
X446160Y61720D01*
X446189Y61800D01*
X446214Y61881D01*
X446235Y61963D01*
X446253Y62046D01*
X446266Y62130D01*
X446276Y62214D01*
X446282Y62298D01*
X446284Y62383D01*
X446282Y62468D01*
X446276Y62552D01*
X446266Y62636D01*
X446253Y62720D01*
X446235Y62803D01*
X446214Y62885D01*
X446189Y62966D01*
X446160Y63046D01*
X446128Y63124D01*
X446092Y63200D01*
X446052Y63275D01*
X446009Y63348D01*
X445963Y63419D01*
X445914Y63488D01*
X445861Y63555D01*
X445805Y63619D01*
X445747Y63680D01*
X445686Y63738D01*
X445622Y63794D01*
X445555Y63847D01*
X445486Y63896D01*
X445415Y63942D01*
X445342Y63985D01*
X445267Y64025D01*
X445191Y64061D01*
X445113Y64093D01*
X445033Y64122D01*
X444952Y64147D01*
X444870Y64168D01*
X444787Y64186D01*
X444703Y64199D01*
X444619Y64209D01*
X444535Y64215D01*
X444450Y64217D01*
X444450Y64218D02*
X442616Y64218D01*
X442509Y64216D01*
X442402Y64210D01*
X442295Y64200D01*
X442189Y64187D01*
X442083Y64169D01*
X441978Y64148D01*
X441874Y64123D01*
X441770Y64094D01*
X441668Y64061D01*
X441568Y64024D01*
X441468Y63984D01*
X441370Y63940D01*
X441274Y63893D01*
X441180Y63842D01*
X441087Y63788D01*
X440997Y63731D01*
X440908Y63670D01*
X440822Y63606D01*
X440739Y63539D01*
X440657Y63469D01*
X440579Y63396D01*
X440503Y63320D01*
X440430Y63242D01*
X440360Y63160D01*
X440293Y63077D01*
X440229Y62991D01*
X440168Y62902D01*
X440111Y62812D01*
X440057Y62719D01*
X440006Y62625D01*
X439959Y62529D01*
X439915Y62431D01*
X439875Y62331D01*
X439838Y62231D01*
X439805Y62129D01*
X439776Y62025D01*
X439751Y61921D01*
X439730Y61816D01*
X439712Y61710D01*
X439699Y61604D01*
X439689Y61497D01*
X439683Y61390D01*
X439681Y61283D01*
D14*
X411843Y147260D02*
X404223Y147260D01*
X404223Y134060D02*
X411593Y134060D01*
D16*
X415204Y140672D03*
X400726Y140672D03*
D13*
X387285Y131550D02*
X380681Y131550D01*
X387285Y131550D02*
X387285Y133384D01*
X387284Y133384D02*
X387282Y133469D01*
X387276Y133553D01*
X387266Y133637D01*
X387253Y133721D01*
X387235Y133804D01*
X387214Y133886D01*
X387189Y133967D01*
X387160Y134047D01*
X387128Y134125D01*
X387092Y134201D01*
X387052Y134276D01*
X387009Y134349D01*
X386963Y134420D01*
X386914Y134489D01*
X386861Y134556D01*
X386805Y134620D01*
X386747Y134681D01*
X386686Y134739D01*
X386622Y134795D01*
X386555Y134848D01*
X386486Y134897D01*
X386415Y134943D01*
X386342Y134986D01*
X386267Y135026D01*
X386191Y135062D01*
X386113Y135094D01*
X386033Y135123D01*
X385952Y135148D01*
X385870Y135169D01*
X385787Y135187D01*
X385703Y135200D01*
X385619Y135210D01*
X385535Y135216D01*
X385450Y135218D01*
X385365Y135216D01*
X385281Y135210D01*
X385197Y135200D01*
X385113Y135187D01*
X385030Y135169D01*
X384948Y135148D01*
X384867Y135123D01*
X384787Y135094D01*
X384709Y135062D01*
X384633Y135026D01*
X384558Y134986D01*
X384485Y134943D01*
X384414Y134897D01*
X384345Y134848D01*
X384278Y134795D01*
X384214Y134739D01*
X384153Y134681D01*
X384095Y134620D01*
X384039Y134556D01*
X383986Y134489D01*
X383937Y134420D01*
X383891Y134349D01*
X383848Y134276D01*
X383808Y134201D01*
X383772Y134125D01*
X383740Y134047D01*
X383711Y133967D01*
X383686Y133886D01*
X383665Y133804D01*
X383647Y133721D01*
X383634Y133637D01*
X383624Y133553D01*
X383618Y133469D01*
X383616Y133384D01*
X383616Y131550D01*
X383616Y133751D02*
X380681Y135219D01*
X385817Y138786D02*
X387285Y140621D01*
X380681Y140621D01*
X380681Y142455D02*
X380681Y138786D01*
X382515Y146102D02*
X382600Y146104D01*
X382684Y146110D01*
X382768Y146120D01*
X382852Y146133D01*
X382935Y146151D01*
X383017Y146172D01*
X383098Y146197D01*
X383178Y146226D01*
X383256Y146258D01*
X383332Y146294D01*
X383407Y146334D01*
X383480Y146377D01*
X383551Y146423D01*
X383620Y146472D01*
X383687Y146525D01*
X383751Y146581D01*
X383812Y146639D01*
X383870Y146700D01*
X383926Y146764D01*
X383979Y146831D01*
X384028Y146900D01*
X384074Y146971D01*
X384117Y147044D01*
X384157Y147119D01*
X384193Y147195D01*
X384225Y147273D01*
X384254Y147353D01*
X384279Y147434D01*
X384300Y147516D01*
X384318Y147599D01*
X384331Y147683D01*
X384341Y147767D01*
X384347Y147851D01*
X384349Y147936D01*
X384347Y148021D01*
X384341Y148105D01*
X384331Y148189D01*
X384318Y148273D01*
X384300Y148356D01*
X384279Y148438D01*
X384254Y148519D01*
X384225Y148599D01*
X384193Y148677D01*
X384157Y148753D01*
X384117Y148828D01*
X384074Y148901D01*
X384028Y148972D01*
X383979Y149041D01*
X383926Y149108D01*
X383870Y149172D01*
X383812Y149233D01*
X383751Y149291D01*
X383687Y149347D01*
X383620Y149400D01*
X383551Y149449D01*
X383480Y149495D01*
X383407Y149538D01*
X383332Y149578D01*
X383256Y149614D01*
X383178Y149646D01*
X383098Y149675D01*
X383017Y149700D01*
X382935Y149721D01*
X382852Y149739D01*
X382768Y149752D01*
X382684Y149762D01*
X382600Y149768D01*
X382515Y149770D01*
X382430Y149768D01*
X382346Y149762D01*
X382262Y149752D01*
X382178Y149739D01*
X382095Y149721D01*
X382013Y149700D01*
X381932Y149675D01*
X381852Y149646D01*
X381774Y149614D01*
X381698Y149578D01*
X381623Y149538D01*
X381550Y149495D01*
X381479Y149449D01*
X381410Y149400D01*
X381343Y149347D01*
X381279Y149291D01*
X381218Y149233D01*
X381160Y149172D01*
X381104Y149108D01*
X381051Y149041D01*
X381002Y148972D01*
X380956Y148901D01*
X380913Y148828D01*
X380873Y148753D01*
X380837Y148677D01*
X380805Y148599D01*
X380776Y148519D01*
X380751Y148438D01*
X380730Y148356D01*
X380712Y148273D01*
X380699Y148189D01*
X380689Y148105D01*
X380683Y148021D01*
X380681Y147936D01*
X380683Y147851D01*
X380689Y147767D01*
X380699Y147683D01*
X380712Y147599D01*
X380730Y147516D01*
X380751Y147434D01*
X380776Y147353D01*
X380805Y147273D01*
X380837Y147195D01*
X380873Y147119D01*
X380913Y147044D01*
X380956Y146971D01*
X381002Y146900D01*
X381051Y146831D01*
X381104Y146764D01*
X381160Y146700D01*
X381218Y146639D01*
X381279Y146581D01*
X381343Y146525D01*
X381410Y146472D01*
X381479Y146423D01*
X381550Y146377D01*
X381623Y146334D01*
X381698Y146294D01*
X381774Y146258D01*
X381852Y146226D01*
X381932Y146197D01*
X382013Y146172D01*
X382095Y146151D01*
X382178Y146133D01*
X382262Y146120D01*
X382346Y146110D01*
X382430Y146104D01*
X382515Y146102D01*
X385817Y146468D02*
X385893Y146470D01*
X385968Y146476D01*
X386043Y146485D01*
X386117Y146499D01*
X386191Y146516D01*
X386263Y146538D01*
X386335Y146562D01*
X386405Y146591D01*
X386473Y146623D01*
X386540Y146658D01*
X386605Y146697D01*
X386668Y146740D01*
X386728Y146785D01*
X386786Y146833D01*
X386842Y146885D01*
X386894Y146939D01*
X386944Y146996D01*
X386991Y147055D01*
X387035Y147116D01*
X387076Y147180D01*
X387113Y147246D01*
X387147Y147314D01*
X387177Y147383D01*
X387204Y147454D01*
X387227Y147526D01*
X387246Y147599D01*
X387261Y147673D01*
X387273Y147748D01*
X387281Y147823D01*
X387285Y147898D01*
X387285Y147974D01*
X387281Y148049D01*
X387273Y148124D01*
X387261Y148199D01*
X387246Y148273D01*
X387227Y148346D01*
X387204Y148418D01*
X387177Y148489D01*
X387147Y148558D01*
X387113Y148626D01*
X387076Y148692D01*
X387035Y148756D01*
X386991Y148817D01*
X386944Y148876D01*
X386894Y148933D01*
X386842Y148987D01*
X386786Y149039D01*
X386728Y149087D01*
X386668Y149132D01*
X386605Y149175D01*
X386540Y149214D01*
X386473Y149249D01*
X386405Y149281D01*
X386335Y149310D01*
X386263Y149334D01*
X386191Y149356D01*
X386117Y149373D01*
X386043Y149387D01*
X385968Y149396D01*
X385893Y149402D01*
X385817Y149404D01*
X385741Y149402D01*
X385666Y149396D01*
X385591Y149387D01*
X385517Y149373D01*
X385443Y149356D01*
X385371Y149334D01*
X385299Y149310D01*
X385229Y149281D01*
X385161Y149249D01*
X385094Y149214D01*
X385029Y149175D01*
X384966Y149132D01*
X384906Y149087D01*
X384848Y149039D01*
X384792Y148987D01*
X384740Y148933D01*
X384690Y148876D01*
X384643Y148817D01*
X384599Y148756D01*
X384558Y148692D01*
X384521Y148626D01*
X384487Y148558D01*
X384457Y148489D01*
X384430Y148418D01*
X384407Y148346D01*
X384388Y148273D01*
X384373Y148199D01*
X384361Y148124D01*
X384353Y148049D01*
X384349Y147974D01*
X384349Y147898D01*
X384353Y147823D01*
X384361Y147748D01*
X384373Y147673D01*
X384388Y147599D01*
X384407Y147526D01*
X384430Y147454D01*
X384457Y147383D01*
X384487Y147314D01*
X384521Y147246D01*
X384558Y147180D01*
X384599Y147116D01*
X384643Y147055D01*
X384690Y146996D01*
X384740Y146939D01*
X384792Y146885D01*
X384848Y146833D01*
X384906Y146785D01*
X384966Y146740D01*
X385029Y146697D01*
X385094Y146658D01*
X385161Y146623D01*
X385229Y146591D01*
X385299Y146562D01*
X385371Y146538D01*
X385443Y146516D01*
X385517Y146499D01*
X385591Y146485D01*
X385666Y146476D01*
X385741Y146470D01*
X385817Y146468D01*
D14*
X410465Y30260D02*
X418085Y30260D01*
X417835Y17060D02*
X410465Y17060D01*
D16*
X421447Y23672D03*
X406969Y23672D03*
D13*
X434923Y14550D02*
X441527Y14550D01*
X441527Y16384D01*
X441525Y16469D01*
X441519Y16553D01*
X441509Y16637D01*
X441496Y16721D01*
X441478Y16804D01*
X441457Y16886D01*
X441432Y16967D01*
X441403Y17047D01*
X441371Y17125D01*
X441335Y17201D01*
X441295Y17276D01*
X441252Y17349D01*
X441206Y17420D01*
X441157Y17489D01*
X441104Y17556D01*
X441048Y17620D01*
X440990Y17681D01*
X440929Y17739D01*
X440865Y17795D01*
X440798Y17848D01*
X440729Y17897D01*
X440658Y17943D01*
X440585Y17986D01*
X440510Y18026D01*
X440434Y18062D01*
X440356Y18094D01*
X440276Y18123D01*
X440195Y18148D01*
X440113Y18169D01*
X440030Y18187D01*
X439946Y18200D01*
X439862Y18210D01*
X439778Y18216D01*
X439693Y18218D01*
X439608Y18216D01*
X439524Y18210D01*
X439440Y18200D01*
X439356Y18187D01*
X439273Y18169D01*
X439191Y18148D01*
X439110Y18123D01*
X439030Y18094D01*
X438952Y18062D01*
X438876Y18026D01*
X438801Y17986D01*
X438728Y17943D01*
X438657Y17897D01*
X438588Y17848D01*
X438521Y17795D01*
X438457Y17739D01*
X438396Y17681D01*
X438338Y17620D01*
X438282Y17556D01*
X438229Y17489D01*
X438180Y17420D01*
X438134Y17349D01*
X438091Y17276D01*
X438051Y17201D01*
X438015Y17125D01*
X437983Y17047D01*
X437954Y16967D01*
X437929Y16886D01*
X437908Y16804D01*
X437890Y16721D01*
X437877Y16637D01*
X437867Y16553D01*
X437861Y16469D01*
X437859Y16384D01*
X437858Y16384D02*
X437858Y14550D01*
X437858Y16751D02*
X434923Y18219D01*
X441527Y23804D02*
X441525Y23883D01*
X441520Y23961D01*
X441510Y24039D01*
X441497Y24116D01*
X441480Y24193D01*
X441460Y24269D01*
X441436Y24344D01*
X441409Y24418D01*
X441378Y24490D01*
X441343Y24561D01*
X441306Y24630D01*
X441265Y24697D01*
X441221Y24762D01*
X441174Y24825D01*
X441124Y24885D01*
X441071Y24943D01*
X441015Y24999D01*
X440957Y25052D01*
X440897Y25102D01*
X440834Y25149D01*
X440769Y25193D01*
X440702Y25234D01*
X440633Y25271D01*
X440562Y25306D01*
X440490Y25337D01*
X440416Y25364D01*
X440341Y25388D01*
X440265Y25408D01*
X440188Y25425D01*
X440111Y25438D01*
X440033Y25448D01*
X439955Y25453D01*
X439876Y25455D01*
X441527Y23804D02*
X441525Y23715D01*
X441520Y23626D01*
X441510Y23538D01*
X441497Y23450D01*
X441481Y23363D01*
X441460Y23276D01*
X441436Y23191D01*
X441409Y23106D01*
X441378Y23023D01*
X441343Y22941D01*
X441305Y22860D01*
X441264Y22781D01*
X441220Y22705D01*
X441172Y22629D01*
X441121Y22556D01*
X441068Y22486D01*
X441011Y22417D01*
X440951Y22351D01*
X440889Y22288D01*
X440824Y22227D01*
X440757Y22169D01*
X440687Y22114D01*
X440615Y22061D01*
X440541Y22012D01*
X440465Y21966D01*
X440387Y21924D01*
X440307Y21884D01*
X440226Y21848D01*
X440143Y21815D01*
X440059Y21786D01*
X438592Y24905D02*
X438648Y24961D01*
X438707Y25015D01*
X438768Y25066D01*
X438832Y25115D01*
X438897Y25160D01*
X438965Y25203D01*
X439034Y25242D01*
X439105Y25279D01*
X439178Y25312D01*
X439252Y25341D01*
X439327Y25368D01*
X439403Y25391D01*
X439481Y25410D01*
X439559Y25426D01*
X439637Y25439D01*
X439717Y25448D01*
X439796Y25453D01*
X439876Y25455D01*
X438592Y24905D02*
X434923Y21786D01*
X434923Y25455D01*
X440060Y29101D02*
X441527Y30936D01*
X434923Y30936D01*
X434923Y32770D02*
X434923Y29101D01*
D14*
X363199Y24260D02*
X355579Y24260D01*
X355579Y11060D02*
X362949Y11060D01*
D16*
X366561Y17672D03*
X352083Y17672D03*
D13*
X338641Y8550D02*
X332037Y8550D01*
X338641Y8550D02*
X338641Y10384D01*
X338639Y10469D01*
X338633Y10553D01*
X338623Y10637D01*
X338610Y10721D01*
X338592Y10804D01*
X338571Y10886D01*
X338546Y10967D01*
X338517Y11047D01*
X338485Y11125D01*
X338449Y11201D01*
X338409Y11276D01*
X338366Y11349D01*
X338320Y11420D01*
X338271Y11489D01*
X338218Y11556D01*
X338162Y11620D01*
X338104Y11681D01*
X338043Y11739D01*
X337979Y11795D01*
X337912Y11848D01*
X337843Y11897D01*
X337772Y11943D01*
X337699Y11986D01*
X337624Y12026D01*
X337548Y12062D01*
X337470Y12094D01*
X337390Y12123D01*
X337309Y12148D01*
X337227Y12169D01*
X337144Y12187D01*
X337060Y12200D01*
X336976Y12210D01*
X336892Y12216D01*
X336807Y12218D01*
X336722Y12216D01*
X336638Y12210D01*
X336554Y12200D01*
X336470Y12187D01*
X336387Y12169D01*
X336305Y12148D01*
X336224Y12123D01*
X336144Y12094D01*
X336066Y12062D01*
X335990Y12026D01*
X335915Y11986D01*
X335842Y11943D01*
X335771Y11897D01*
X335702Y11848D01*
X335635Y11795D01*
X335571Y11739D01*
X335510Y11681D01*
X335452Y11620D01*
X335396Y11556D01*
X335343Y11489D01*
X335294Y11420D01*
X335248Y11349D01*
X335205Y11276D01*
X335165Y11201D01*
X335129Y11125D01*
X335097Y11047D01*
X335068Y10967D01*
X335043Y10886D01*
X335022Y10804D01*
X335004Y10721D01*
X334991Y10637D01*
X334981Y10553D01*
X334975Y10469D01*
X334973Y10384D01*
X334972Y10384D02*
X334972Y8550D01*
X334972Y10751D02*
X332037Y12219D01*
X338641Y17804D02*
X338639Y17883D01*
X338634Y17961D01*
X338624Y18039D01*
X338611Y18116D01*
X338594Y18193D01*
X338574Y18269D01*
X338550Y18344D01*
X338523Y18418D01*
X338492Y18490D01*
X338457Y18561D01*
X338420Y18630D01*
X338379Y18697D01*
X338335Y18762D01*
X338288Y18825D01*
X338238Y18885D01*
X338185Y18943D01*
X338129Y18999D01*
X338071Y19052D01*
X338011Y19102D01*
X337948Y19149D01*
X337883Y19193D01*
X337816Y19234D01*
X337747Y19271D01*
X337676Y19306D01*
X337604Y19337D01*
X337530Y19364D01*
X337455Y19388D01*
X337379Y19408D01*
X337302Y19425D01*
X337225Y19438D01*
X337147Y19448D01*
X337069Y19453D01*
X336990Y19455D01*
X338641Y17804D02*
X338639Y17715D01*
X338634Y17626D01*
X338624Y17538D01*
X338611Y17450D01*
X338595Y17363D01*
X338574Y17276D01*
X338550Y17191D01*
X338523Y17106D01*
X338492Y17023D01*
X338457Y16941D01*
X338419Y16860D01*
X338378Y16781D01*
X338334Y16705D01*
X338286Y16629D01*
X338235Y16556D01*
X338182Y16486D01*
X338125Y16417D01*
X338065Y16351D01*
X338003Y16288D01*
X337938Y16227D01*
X337871Y16169D01*
X337801Y16114D01*
X337729Y16061D01*
X337655Y16012D01*
X337579Y15966D01*
X337501Y15924D01*
X337421Y15884D01*
X337340Y15848D01*
X337257Y15815D01*
X337173Y15786D01*
X335706Y18905D02*
X335762Y18961D01*
X335821Y19015D01*
X335882Y19066D01*
X335946Y19115D01*
X336011Y19160D01*
X336079Y19203D01*
X336148Y19242D01*
X336219Y19279D01*
X336292Y19312D01*
X336366Y19341D01*
X336441Y19368D01*
X336517Y19391D01*
X336595Y19410D01*
X336673Y19426D01*
X336751Y19439D01*
X336831Y19448D01*
X336910Y19453D01*
X336990Y19455D01*
X335706Y18905D02*
X332037Y15786D01*
X332037Y19455D01*
X332037Y23101D02*
X332037Y24936D01*
X332038Y24936D02*
X332040Y25021D01*
X332046Y25105D01*
X332056Y25189D01*
X332069Y25273D01*
X332087Y25356D01*
X332108Y25438D01*
X332133Y25519D01*
X332162Y25599D01*
X332194Y25677D01*
X332230Y25753D01*
X332270Y25828D01*
X332313Y25901D01*
X332359Y25972D01*
X332408Y26041D01*
X332461Y26108D01*
X332517Y26172D01*
X332575Y26233D01*
X332636Y26291D01*
X332700Y26347D01*
X332767Y26400D01*
X332836Y26449D01*
X332907Y26495D01*
X332980Y26538D01*
X333055Y26578D01*
X333131Y26614D01*
X333209Y26646D01*
X333289Y26675D01*
X333370Y26700D01*
X333452Y26721D01*
X333535Y26739D01*
X333619Y26752D01*
X333703Y26762D01*
X333787Y26768D01*
X333872Y26770D01*
X333957Y26768D01*
X334041Y26762D01*
X334125Y26752D01*
X334209Y26739D01*
X334292Y26721D01*
X334374Y26700D01*
X334455Y26675D01*
X334535Y26646D01*
X334613Y26614D01*
X334689Y26578D01*
X334764Y26538D01*
X334837Y26495D01*
X334908Y26449D01*
X334977Y26400D01*
X335044Y26347D01*
X335108Y26291D01*
X335169Y26233D01*
X335227Y26172D01*
X335283Y26108D01*
X335336Y26041D01*
X335385Y25972D01*
X335431Y25901D01*
X335474Y25828D01*
X335514Y25753D01*
X335550Y25677D01*
X335582Y25599D01*
X335611Y25519D01*
X335636Y25438D01*
X335657Y25356D01*
X335675Y25273D01*
X335688Y25189D01*
X335698Y25105D01*
X335704Y25021D01*
X335706Y24936D01*
X338641Y25303D02*
X338641Y23101D01*
X338642Y25303D02*
X338640Y25379D01*
X338634Y25454D01*
X338625Y25529D01*
X338611Y25603D01*
X338594Y25677D01*
X338572Y25749D01*
X338548Y25821D01*
X338519Y25891D01*
X338487Y25959D01*
X338452Y26026D01*
X338413Y26091D01*
X338370Y26154D01*
X338325Y26214D01*
X338277Y26272D01*
X338225Y26328D01*
X338171Y26380D01*
X338114Y26430D01*
X338055Y26477D01*
X337994Y26521D01*
X337930Y26562D01*
X337864Y26599D01*
X337796Y26633D01*
X337727Y26663D01*
X337656Y26690D01*
X337584Y26713D01*
X337511Y26732D01*
X337437Y26747D01*
X337362Y26759D01*
X337287Y26767D01*
X337212Y26771D01*
X337136Y26771D01*
X337061Y26767D01*
X336986Y26759D01*
X336911Y26747D01*
X336837Y26732D01*
X336764Y26713D01*
X336692Y26690D01*
X336621Y26663D01*
X336552Y26633D01*
X336484Y26599D01*
X336418Y26562D01*
X336354Y26521D01*
X336293Y26477D01*
X336234Y26430D01*
X336177Y26380D01*
X336123Y26328D01*
X336071Y26272D01*
X336023Y26214D01*
X335978Y26154D01*
X335935Y26091D01*
X335896Y26026D01*
X335861Y25959D01*
X335829Y25891D01*
X335800Y25821D01*
X335776Y25749D01*
X335754Y25677D01*
X335737Y25603D01*
X335723Y25529D01*
X335714Y25454D01*
X335708Y25379D01*
X335706Y25303D01*
X335706Y23835D01*
D14*
X479224Y43184D02*
X486844Y43184D01*
X486594Y29984D02*
X479224Y29984D01*
D16*
X490205Y36596D03*
X475727Y36596D03*
D13*
X455682Y30962D02*
X455682Y29494D01*
X455681Y29494D02*
X455683Y29420D01*
X455689Y29345D01*
X455698Y29272D01*
X455711Y29198D01*
X455728Y29126D01*
X455748Y29055D01*
X455772Y28984D01*
X455800Y28915D01*
X455831Y28848D01*
X455865Y28782D01*
X455903Y28717D01*
X455944Y28655D01*
X455988Y28595D01*
X456035Y28538D01*
X456085Y28483D01*
X456138Y28430D01*
X456193Y28380D01*
X456250Y28333D01*
X456310Y28289D01*
X456372Y28248D01*
X456437Y28210D01*
X456503Y28176D01*
X456570Y28145D01*
X456639Y28117D01*
X456710Y28093D01*
X456781Y28073D01*
X456853Y28056D01*
X456927Y28043D01*
X457000Y28034D01*
X457075Y28028D01*
X457149Y28026D01*
X457149Y28027D02*
X460818Y28027D01*
X460818Y28026D02*
X460892Y28028D01*
X460967Y28034D01*
X461040Y28043D01*
X461114Y28056D01*
X461186Y28073D01*
X461257Y28093D01*
X461328Y28117D01*
X461397Y28145D01*
X461464Y28176D01*
X461530Y28210D01*
X461595Y28248D01*
X461657Y28289D01*
X461717Y28333D01*
X461774Y28380D01*
X461829Y28430D01*
X461882Y28483D01*
X461932Y28538D01*
X461979Y28595D01*
X462023Y28655D01*
X462064Y28717D01*
X462102Y28782D01*
X462136Y28847D01*
X462167Y28915D01*
X462195Y28984D01*
X462219Y29055D01*
X462239Y29126D01*
X462256Y29198D01*
X462269Y29272D01*
X462278Y29345D01*
X462284Y29420D01*
X462286Y29494D01*
X462286Y30962D01*
X455682Y34158D02*
X455682Y35993D01*
X455684Y36078D01*
X455690Y36162D01*
X455700Y36246D01*
X455713Y36330D01*
X455731Y36413D01*
X455752Y36495D01*
X455777Y36576D01*
X455806Y36656D01*
X455838Y36734D01*
X455874Y36810D01*
X455914Y36885D01*
X455957Y36958D01*
X456003Y37029D01*
X456052Y37098D01*
X456105Y37165D01*
X456161Y37229D01*
X456219Y37290D01*
X456280Y37348D01*
X456344Y37404D01*
X456411Y37457D01*
X456480Y37506D01*
X456551Y37552D01*
X456624Y37595D01*
X456699Y37635D01*
X456775Y37671D01*
X456853Y37703D01*
X456933Y37732D01*
X457014Y37757D01*
X457096Y37778D01*
X457179Y37796D01*
X457263Y37809D01*
X457347Y37819D01*
X457431Y37825D01*
X457516Y37827D01*
X457601Y37825D01*
X457685Y37819D01*
X457769Y37809D01*
X457853Y37796D01*
X457936Y37778D01*
X458018Y37757D01*
X458099Y37732D01*
X458179Y37703D01*
X458257Y37671D01*
X458333Y37635D01*
X458408Y37595D01*
X458481Y37552D01*
X458552Y37506D01*
X458621Y37457D01*
X458688Y37404D01*
X458752Y37348D01*
X458813Y37290D01*
X458871Y37229D01*
X458927Y37165D01*
X458980Y37098D01*
X459029Y37029D01*
X459075Y36958D01*
X459118Y36885D01*
X459158Y36810D01*
X459194Y36734D01*
X459226Y36656D01*
X459255Y36576D01*
X459280Y36495D01*
X459301Y36413D01*
X459319Y36330D01*
X459332Y36246D01*
X459342Y36162D01*
X459348Y36078D01*
X459350Y35993D01*
X462286Y36359D02*
X462286Y34158D01*
X462286Y36359D02*
X462284Y36435D01*
X462278Y36510D01*
X462269Y36585D01*
X462255Y36659D01*
X462238Y36733D01*
X462216Y36805D01*
X462192Y36877D01*
X462163Y36947D01*
X462131Y37015D01*
X462096Y37082D01*
X462057Y37147D01*
X462014Y37210D01*
X461969Y37270D01*
X461921Y37328D01*
X461869Y37384D01*
X461815Y37436D01*
X461758Y37486D01*
X461699Y37533D01*
X461638Y37577D01*
X461574Y37618D01*
X461508Y37655D01*
X461440Y37689D01*
X461371Y37719D01*
X461300Y37746D01*
X461228Y37769D01*
X461155Y37788D01*
X461081Y37803D01*
X461006Y37815D01*
X460931Y37823D01*
X460856Y37827D01*
X460780Y37827D01*
X460705Y37823D01*
X460630Y37815D01*
X460555Y37803D01*
X460481Y37788D01*
X460408Y37769D01*
X460336Y37746D01*
X460265Y37719D01*
X460196Y37689D01*
X460128Y37655D01*
X460062Y37618D01*
X459998Y37577D01*
X459937Y37533D01*
X459878Y37486D01*
X459821Y37436D01*
X459767Y37384D01*
X459715Y37328D01*
X459667Y37270D01*
X459622Y37210D01*
X459579Y37147D01*
X459540Y37082D01*
X459505Y37015D01*
X459473Y36947D01*
X459444Y36877D01*
X459420Y36805D01*
X459398Y36733D01*
X459381Y36659D01*
X459367Y36585D01*
X459358Y36510D01*
X459352Y36435D01*
X459350Y36359D01*
X459351Y36359D02*
X459351Y34892D01*
X458984Y41474D02*
X459129Y41476D01*
X459274Y41482D01*
X459419Y41491D01*
X459564Y41505D01*
X459708Y41522D01*
X459851Y41544D01*
X459995Y41569D01*
X460137Y41598D01*
X460278Y41630D01*
X460419Y41667D01*
X460558Y41707D01*
X460697Y41751D01*
X460834Y41798D01*
X460970Y41849D01*
X461104Y41904D01*
X461237Y41962D01*
X461369Y42024D01*
X461368Y42023D02*
X461437Y42049D01*
X461504Y42078D01*
X461570Y42111D01*
X461633Y42147D01*
X461695Y42187D01*
X461754Y42230D01*
X461811Y42276D01*
X461865Y42325D01*
X461917Y42377D01*
X461966Y42432D01*
X462011Y42489D01*
X462054Y42549D01*
X462093Y42611D01*
X462129Y42674D01*
X462162Y42740D01*
X462190Y42807D01*
X462216Y42876D01*
X462237Y42946D01*
X462255Y43017D01*
X462268Y43089D01*
X462278Y43162D01*
X462284Y43235D01*
X462286Y43308D01*
X462285Y43308D02*
X462283Y43381D01*
X462277Y43454D01*
X462267Y43527D01*
X462254Y43599D01*
X462236Y43670D01*
X462215Y43740D01*
X462189Y43808D01*
X462161Y43876D01*
X462128Y43941D01*
X462092Y44005D01*
X462053Y44067D01*
X462011Y44126D01*
X461965Y44183D01*
X461916Y44238D01*
X461865Y44290D01*
X461810Y44339D01*
X461753Y44385D01*
X461694Y44428D01*
X461633Y44468D01*
X461569Y44504D01*
X461504Y44537D01*
X461437Y44566D01*
X461368Y44592D01*
X461369Y44592D02*
X461237Y44654D01*
X461104Y44712D01*
X460970Y44767D01*
X460834Y44818D01*
X460697Y44865D01*
X460558Y44909D01*
X460419Y44949D01*
X460278Y44986D01*
X460137Y45018D01*
X459995Y45047D01*
X459852Y45072D01*
X459708Y45094D01*
X459564Y45111D01*
X459419Y45125D01*
X459274Y45134D01*
X459129Y45140D01*
X458984Y45142D01*
X458984Y41474D02*
X458839Y41476D01*
X458694Y41482D01*
X458549Y41491D01*
X458404Y41505D01*
X458260Y41522D01*
X458117Y41544D01*
X457974Y41569D01*
X457831Y41597D01*
X457690Y41630D01*
X457549Y41667D01*
X457410Y41707D01*
X457271Y41751D01*
X457134Y41798D01*
X456998Y41849D01*
X456864Y41904D01*
X456731Y41962D01*
X456599Y42024D01*
X456599Y42023D02*
X456530Y42049D01*
X456463Y42078D01*
X456397Y42111D01*
X456334Y42147D01*
X456272Y42187D01*
X456213Y42230D01*
X456156Y42276D01*
X456102Y42325D01*
X456050Y42377D01*
X456001Y42432D01*
X455956Y42489D01*
X455913Y42549D01*
X455874Y42611D01*
X455838Y42674D01*
X455805Y42740D01*
X455777Y42807D01*
X455751Y42876D01*
X455730Y42946D01*
X455712Y43017D01*
X455699Y43089D01*
X455689Y43162D01*
X455683Y43235D01*
X455681Y43308D01*
X456599Y44592D02*
X456731Y44654D01*
X456864Y44712D01*
X456998Y44767D01*
X457134Y44818D01*
X457271Y44865D01*
X457410Y44909D01*
X457549Y44949D01*
X457690Y44986D01*
X457831Y45018D01*
X457973Y45047D01*
X458116Y45072D01*
X458260Y45094D01*
X458404Y45111D01*
X458549Y45125D01*
X458694Y45134D01*
X458839Y45140D01*
X458984Y45142D01*
X456599Y44592D02*
X456530Y44566D01*
X456463Y44537D01*
X456398Y44504D01*
X456334Y44468D01*
X456273Y44428D01*
X456214Y44385D01*
X456157Y44339D01*
X456102Y44290D01*
X456051Y44238D01*
X456002Y44183D01*
X455956Y44126D01*
X455914Y44067D01*
X455875Y44005D01*
X455839Y43941D01*
X455806Y43876D01*
X455778Y43808D01*
X455752Y43740D01*
X455731Y43670D01*
X455713Y43598D01*
X455700Y43527D01*
X455690Y43454D01*
X455684Y43381D01*
X455682Y43308D01*
X457149Y41840D02*
X460818Y44775D01*
D17*
X140000Y72954D02*
X118000Y72954D01*
X118000Y52020D02*
X140000Y52020D01*
X140000Y55237D02*
X118000Y55237D01*
X140000Y55237D02*
X140000Y69737D01*
X118000Y69737D01*
X118000Y55237D01*
D13*
X137528Y78066D02*
X137528Y84670D01*
X134593Y84670D01*
X134593Y81734D02*
X137528Y81734D01*
X131031Y81734D02*
X129197Y81734D01*
X129112Y81732D01*
X129028Y81726D01*
X128944Y81716D01*
X128860Y81703D01*
X128777Y81685D01*
X128695Y81664D01*
X128614Y81639D01*
X128534Y81610D01*
X128456Y81578D01*
X128380Y81542D01*
X128305Y81502D01*
X128232Y81459D01*
X128161Y81413D01*
X128092Y81364D01*
X128025Y81311D01*
X127961Y81255D01*
X127900Y81197D01*
X127842Y81136D01*
X127786Y81072D01*
X127733Y81005D01*
X127684Y80936D01*
X127638Y80865D01*
X127595Y80792D01*
X127555Y80717D01*
X127519Y80641D01*
X127487Y80563D01*
X127458Y80483D01*
X127433Y80402D01*
X127412Y80320D01*
X127394Y80237D01*
X127381Y80153D01*
X127371Y80069D01*
X127365Y79985D01*
X127363Y79900D01*
X127365Y79815D01*
X127371Y79731D01*
X127381Y79647D01*
X127394Y79563D01*
X127412Y79480D01*
X127433Y79398D01*
X127458Y79317D01*
X127487Y79237D01*
X127519Y79159D01*
X127555Y79083D01*
X127595Y79008D01*
X127638Y78935D01*
X127684Y78864D01*
X127733Y78795D01*
X127786Y78728D01*
X127842Y78664D01*
X127900Y78603D01*
X127961Y78545D01*
X128025Y78489D01*
X128092Y78436D01*
X128161Y78387D01*
X128232Y78341D01*
X128305Y78298D01*
X128380Y78258D01*
X128456Y78222D01*
X128534Y78190D01*
X128614Y78161D01*
X128695Y78136D01*
X128777Y78115D01*
X128860Y78097D01*
X128944Y78084D01*
X129028Y78074D01*
X129112Y78068D01*
X129197Y78066D01*
X131031Y78066D01*
X131031Y84670D01*
X129197Y84670D01*
X129121Y84668D01*
X129046Y84662D01*
X128971Y84653D01*
X128897Y84639D01*
X128823Y84622D01*
X128751Y84600D01*
X128679Y84576D01*
X128609Y84547D01*
X128541Y84515D01*
X128474Y84480D01*
X128409Y84441D01*
X128346Y84398D01*
X128286Y84353D01*
X128228Y84305D01*
X128172Y84253D01*
X128120Y84199D01*
X128070Y84142D01*
X128023Y84083D01*
X127979Y84022D01*
X127938Y83958D01*
X127901Y83892D01*
X127867Y83824D01*
X127837Y83755D01*
X127810Y83684D01*
X127787Y83612D01*
X127768Y83539D01*
X127753Y83465D01*
X127741Y83390D01*
X127733Y83315D01*
X127729Y83240D01*
X127729Y83164D01*
X127733Y83089D01*
X127741Y83014D01*
X127753Y82939D01*
X127768Y82865D01*
X127787Y82792D01*
X127810Y82720D01*
X127837Y82649D01*
X127867Y82580D01*
X127901Y82512D01*
X127938Y82446D01*
X127979Y82382D01*
X128023Y82321D01*
X128070Y82262D01*
X128120Y82205D01*
X128172Y82151D01*
X128228Y82099D01*
X128286Y82051D01*
X128346Y82006D01*
X128409Y81963D01*
X128474Y81924D01*
X128541Y81889D01*
X128609Y81857D01*
X128679Y81828D01*
X128751Y81804D01*
X128823Y81782D01*
X128897Y81765D01*
X128971Y81751D01*
X129046Y81742D01*
X129121Y81736D01*
X129197Y81734D01*
X124141Y83202D02*
X122307Y84670D01*
X122307Y78066D01*
X124141Y78066D02*
X120472Y78066D01*
M02*
