G04 EAGLE Gerber RS-274X export*
G75*
%MOMM*%
%FSLAX34Y34*%
%LPD*%
%INSolderpaste Top*%
%IPPOS*%
%AMOC8*
5,1,8,0,0,1.08239X$1,22.5*%
G01*
G04 Define Apertures*
%ADD10R,2.540000X2.540000*%
%ADD11R,1.600000X2.800000*%
%ADD12R,1.500000X1.300000*%
%ADD13R,1.450000X0.450000*%
%ADD14R,1.300000X1.500000*%
%ADD15R,1.400000X0.800000*%
%ADD16R,2.200000X1.800000*%
%ADD17R,2.800000X1.600000*%
%ADD18R,0.600000X2.200000*%
%ADD19R,1.465300X1.164600*%
%ADD20R,2.000000X5.500000*%
D10*
X22860Y93850D03*
X22860Y46860D03*
D11*
X248863Y69160D03*
X248863Y112160D03*
D12*
X90713Y243750D03*
X90713Y226750D03*
X114237Y243750D03*
X114237Y226750D03*
D13*
X138500Y229713D03*
X138500Y223213D03*
X138500Y216713D03*
X138500Y210213D03*
X138500Y203713D03*
X138500Y197213D03*
X138500Y190713D03*
X138500Y184213D03*
X138500Y177713D03*
X138500Y171213D03*
X138500Y164713D03*
X138500Y158213D03*
X138500Y151713D03*
X138500Y145213D03*
X197000Y145213D03*
X197000Y151713D03*
X197000Y158213D03*
X197000Y164713D03*
X197000Y171213D03*
X197000Y177713D03*
X197000Y184213D03*
X197000Y190713D03*
X197000Y197213D03*
X197000Y203713D03*
X197000Y210213D03*
X197000Y216713D03*
X197000Y223213D03*
X197000Y229713D03*
D12*
X74438Y186413D03*
X74438Y169413D03*
X54800Y137413D03*
X54800Y120413D03*
D14*
X115838Y196738D03*
X98838Y196738D03*
D12*
X237024Y193462D03*
X237024Y210462D03*
X264250Y161413D03*
X264250Y144413D03*
X239613Y161413D03*
X239613Y144413D03*
X261025Y193588D03*
X261025Y210588D03*
D14*
X256413Y240663D03*
X239413Y240663D03*
D12*
X117300Y151588D03*
X117300Y168588D03*
X95938Y151588D03*
X95938Y168588D03*
D11*
X331563Y285840D03*
X331563Y242840D03*
D14*
X112500Y112000D03*
X129500Y112000D03*
D15*
X126800Y74000D03*
X126800Y89000D03*
X126800Y59000D03*
D16*
X96000Y74000D03*
D11*
X188000Y70160D03*
X188000Y113160D03*
D17*
X341114Y95274D03*
X298114Y95274D03*
X352096Y31839D03*
X309096Y31839D03*
D18*
X478650Y80000D03*
X478650Y132000D03*
X465950Y80000D03*
X491350Y80000D03*
X504050Y80000D03*
X465950Y132000D03*
X491350Y132000D03*
X504050Y132000D03*
D12*
X443000Y98500D03*
X443000Y115500D03*
D14*
X502500Y166000D03*
X485500Y166000D03*
X485500Y188000D03*
X502500Y188000D03*
X458500Y188524D03*
X441500Y188524D03*
X458500Y212000D03*
X441500Y212000D03*
X487500Y210000D03*
X504500Y210000D03*
X441500Y166000D03*
X458500Y166000D03*
X394500Y133000D03*
X411500Y133000D03*
X394500Y110000D03*
X411500Y110000D03*
X394500Y86000D03*
X411500Y86000D03*
D12*
X370000Y155500D03*
X370000Y138500D03*
D17*
X382500Y269000D03*
X425500Y269000D03*
X506840Y269000D03*
X463840Y269000D03*
D14*
X393500Y194000D03*
X410500Y194000D03*
X394500Y161000D03*
X411500Y161000D03*
D17*
X441105Y36653D03*
X398105Y36653D03*
D11*
X329580Y148344D03*
X329580Y191344D03*
D19*
X288542Y209246D03*
X288542Y226754D03*
D20*
X29160Y177340D03*
X29160Y272340D03*
M02*
